{
  "header": {
    "PPQ": 480,
    "timeSignature": [
      9,
      8
    ],
    "bpm": 100
  },
  "startTime": 0.3,
  "duration": 193.50000000000358,
  "tracks": 
    {
      "startTime": 0.3,
      "duration": 193.50000000000358,
      "length": 1491,
      "id": 0,
      "name": "Clair de Lune",
      "instrumentNumber": 0,
      "instrument": "acoustic grand piano",
      "instrumentFamily": "piano",
      "channelNumber": 0,
      "isPercussion": false,
      "notes": [
        {
          "name": "F4",
          "midi": 65,
          "time": 0.3,
          "velocity": 0.28346456692913385,
          "duration": 2.4
        },
        {
          "name": "G#4",
          "midi": 68,
          "time": 0.3,
          "velocity": 0.33858267716535434,
          "duration": 2.4
        },
        {
          "name": "G#5",
          "midi": 80,
          "time": 0.6,
          "velocity": 0.33858267716535434,
          "duration": 1.1999999999999997
        },
        {
          "name": "F5",
          "midi": 77,
          "time": 0.6,
          "velocity": 0.28346456692913385,
          "duration": 1.1999999999999997
        },
        {
          "name": "F5",
          "midi": 77,
          "time": 1.7999999999999998,
          "velocity": 0.30708661417322836,
          "duration": 1.1999999999999997
        },
        {
          "name": "C#5",
          "midi": 73,
          "time": 1.7999999999999998,
          "velocity": 0.25984251968503935,
          "duration": 1.1999999999999997
        },
        {
          "name": "A4",
          "midi": 69,
          "time": 2.6999999999999997,
          "velocity": 0.28346456692913385,
          "duration": 2.699999999999999
        },
        {
          "name": "F#4",
          "midi": 66,
          "time": 2.6999999999999997,
          "velocity": 0.23622047244094488,
          "duration": 2.699999999999999
        },
        {
          "name": "C5",
          "midi": 72,
          "time": 2.9999999999999996,
          "velocity": 0.2440944881889764,
          "duration": 0.2999999999999998
        },
        {
          "name": "D#5",
          "midi": 75,
          "time": 2.9999999999999996,
          "velocity": 0.29133858267716534,
          "duration": 0.2999999999999998
        },
        {
          "name": "C#5",
          "midi": 73,
          "time": 3.2999999999999994,
          "velocity": 0.2125984251968504,
          "duration": 0.2999999999999998
        },
        {
          "name": "F5",
          "midi": 77,
          "time": 3.2999999999999994,
          "velocity": 0.25196850393700787,
          "duration": 0.2999999999999998
        },
        {
          "name": "D#5",
          "midi": 75,
          "time": 3.599999999999999,
          "velocity": 0.23622047244094488,
          "duration": 2.099999999999999
        },
        {
          "name": "C5",
          "midi": 72,
          "time": 3.599999999999999,
          "velocity": 0.1968503937007874,
          "duration": 2.099999999999999
        },
        {
          "name": "F4",
          "midi": 65,
          "time": 5.399999999999999,
          "velocity": 0.25984251968503935,
          "duration": 2.6999999999999993
        },
        {
          "name": "G#4",
          "midi": 68,
          "time": 5.399999999999999,
          "velocity": 0.30708661417322836,
          "duration": 2.6999999999999993
        },
        {
          "name": "C#5",
          "midi": 73,
          "time": 5.699999999999998,
          "velocity": 0.31496062992125984,
          "duration": 0.2999999999999998
        },
        {
          "name": "A#4",
          "midi": 70,
          "time": 5.699999999999998,
          "velocity": 0.2677165354330709,
          "duration": 0.2999999999999998
        },
        {
          "name": "D#5",
          "midi": 75,
          "time": 5.999999999999998,
          "velocity": 0.2677165354330709,
          "duration": 0.2999999999999998
        },
        {
          "name": "C5",
          "midi": 72,
          "time": 5.999999999999998,
          "velocity": 0.2204724409448819,
          "duration": 0.2999999999999998
        },
        {
          "name": "A#4",
          "midi": 70,
          "time": 6.299999999999998,
          "velocity": 0.2125984251968504,
          "duration": 2.0999999999999988
        },
        {
          "name": "C#5",
          "midi": 73,
          "time": 6.299999999999998,
          "velocity": 0.25196850393700787,
          "duration": 0.4500000000000002
        },
        {
          "name": "F5",
          "midi": 77,
          "time": 6.749999999999998,
          "velocity": 0.36220472440944884,
          "duration": 0.9000000000000004
        },
        {
          "name": "C#5",
          "midi": 73,
          "time": 7.649999999999999,
          "velocity": 0.3543307086614173,
          "duration": 0.7499999999999982
        },
        {
          "name": "D#4",
          "midi": 63,
          "time": 8.099999999999998,
          "velocity": 0.25196850393700787,
          "duration": 2.700000000000001
        },
        {
          "name": "F#4",
          "midi": 66,
          "time": 8.099999999999998,
          "velocity": 0.2992125984251969,
          "duration": 2.6950000000000003
        },
        {
          "name": "C5",
          "midi": 72,
          "time": 8.399999999999997,
          "velocity": 0.2677165354330709,
          "duration": 0.3000000000000007
        },
        {
          "name": "G#4",
          "midi": 68,
          "time": 8.399999999999997,
          "velocity": 0.2204724409448819,
          "duration": 0.3000000000000007
        },
        {
          "name": "A#4",
          "midi": 70,
          "time": 8.699999999999998,
          "velocity": 0.2047244094488189,
          "duration": 0.3000000000000007
        },
        {
          "name": "C#5",
          "midi": 73,
          "time": 8.699999999999998,
          "velocity": 0.2440944881889764,
          "duration": 0.3000000000000007
        },
        {
          "name": "C5",
          "midi": 72,
          "time": 8.999999999999998,
          "velocity": 0.2125984251968504,
          "duration": 2.1000000000000014
        },
        {
          "name": "G#4",
          "midi": 68,
          "time": 8.999999999999998,
          "velocity": 0.1732283464566929,
          "duration": 2.1000000000000014
        },
        {
          "name": "F#4",
          "midi": 66,
          "time": 10.799999999999999,
          "velocity": 0.25984251968503935,
          "duration": 1.8000000000000043
        },
        {
          "name": "D#4",
          "midi": 63,
          "time": 10.799999999999999,
          "velocity": 0.29133858267716534,
          "duration": 1.8000000000000043
        },
        {
          "name": "C#4",
          "midi": 61,
          "time": 10.799999999999999,
          "velocity": 0.2440944881889764,
          "duration": 1.8000000000000043
        },
        {
          "name": "A#4",
          "midi": 70,
          "time": 11.1,
          "velocity": 0.30708661417322836,
          "duration": 0.3000000000000007
        },
        {
          "name": "C5",
          "midi": 72,
          "time": 11.4,
          "velocity": 0.28346456692913385,
          "duration": 0.3000000000000007
        },
        {
          "name": "A#4",
          "midi": 70,
          "time": 11.700000000000001,
          "velocity": 0.28346456692913385,
          "duration": 0.3000000000000007
        },
        {
          "name": "D#5",
          "midi": 75,
          "time": 12.000000000000002,
          "velocity": 0.30708661417322836,
          "duration": 0.3000000000000007
        },
        {
          "name": "A#4",
          "midi": 70,
          "time": 12.300000000000002,
          "velocity": 0.29133858267716534,
          "duration": 0.3000000000000007
        },
        {
          "name": "G#4",
          "midi": 68,
          "time": 12.600000000000003,
          "velocity": 0.31496062992125984,
          "duration": 0.3000000000000007
        },
        {
          "name": "F#4",
          "midi": 66,
          "time": 12.600000000000003,
          "velocity": 0.2204724409448819,
          "duration": 0.9000000000000004
        },
        {
          "name": "C4",
          "midi": 60,
          "time": 12.600000000000003,
          "velocity": 0.2204724409448819,
          "duration": 0.9000000000000004
        },
        {
          "name": "D#4",
          "midi": 63,
          "time": 12.600000000000003,
          "velocity": 0.25984251968503935,
          "duration": 0.8975000000000009
        },
        {
          "name": "A#4",
          "midi": 70,
          "time": 12.900000000000004,
          "velocity": 0.29133858267716534,
          "duration": 0.3000000000000007
        },
        {
          "name": "G#4",
          "midi": 68,
          "time": 13.200000000000005,
          "velocity": 0.28346456692913385,
          "duration": 0.5999999999999996
        },
        {
          "name": "D#4",
          "midi": 63,
          "time": 13.500000000000004,
          "velocity": 0.23622047244094488,
          "duration": 1.8000000000000025
        },
        {
          "name": "A#3",
          "midi": 58,
          "time": 13.500000000000004,
          "velocity": 0.23622047244094488,
          "duration": 1.8000000000000025
        },
        {
          "name": "C#4",
          "midi": 61,
          "time": 13.500000000000004,
          "velocity": 0.25984251968503935,
          "duration": 1.8000000000000025
        },
        {
          "name": "F#4",
          "midi": 66,
          "time": 13.800000000000004,
          "velocity": 0.2677165354330709,
          "duration": 0.3000000000000007
        },
        {
          "name": "G#4",
          "midi": 68,
          "time": 14.100000000000005,
          "velocity": 0.25984251968503935,
          "duration": 0.3000000000000007
        },
        {
          "name": "F#4",
          "midi": 66,
          "time": 14.400000000000006,
          "velocity": 0.25984251968503935,
          "duration": 0.9000000000000004
        },
        {
          "name": "D#4",
          "midi": 63,
          "time": 15.300000000000006,
          "velocity": 0.23622047244094488,
          "duration": 0.9000000000000004
        },
        {
          "name": "F4",
          "midi": 65,
          "time": 15.300000000000006,
          "velocity": 0.2677165354330709,
          "duration": 1.200000000000001
        },
        {
          "name": "A3",
          "midi": 57,
          "time": 15.300000000000006,
          "velocity": 0.2204724409448819,
          "duration": 0.9000000000000004
        },
        {
          "name": "C4",
          "midi": 60,
          "time": 15.300000000000006,
          "velocity": 0.25984251968503935,
          "duration": 0.9000000000000004
        },
        {
          "name": "C#4",
          "midi": 61,
          "time": 16.200000000000006,
          "velocity": 0.2204724409448819,
          "duration": 1.8000000000000043
        },
        {
          "name": "G#3",
          "midi": 56,
          "time": 16.200000000000006,
          "velocity": 0.2204724409448819,
          "duration": 1.8000000000000043
        },
        {
          "name": "A#3",
          "midi": 58,
          "time": 16.200000000000006,
          "velocity": 0.25984251968503935,
          "duration": 2.697500000000005
        },
        {
          "name": "F4",
          "midi": 65,
          "time": 16.500000000000007,
          "velocity": 0.2992125984251969,
          "duration": 0.3000000000000007
        },
        {
          "name": "F#4",
          "midi": 66,
          "time": 16.800000000000008,
          "velocity": 0.29133858267716534,
          "duration": 0.3000000000000007
        },
        {
          "name": "F4",
          "midi": 65,
          "time": 17.10000000000001,
          "velocity": 0.29133858267716534,
          "duration": 0.3000000000000007
        },
        {
          "name": "A#4",
          "midi": 70,
          "time": 17.40000000000001,
          "velocity": 0.30708661417322836,
          "duration": 0.3000000000000007
        },
        {
          "name": "F4",
          "midi": 65,
          "time": 17.70000000000001,
          "velocity": 0.29133858267716534,
          "duration": 0.3000000000000007
        },
        {
          "name": "D#4",
          "midi": 63,
          "time": 18.00000000000001,
          "velocity": 0.30708661417322836,
          "duration": 0.3000000000000007
        },
        {
          "name": "F#3",
          "midi": 54,
          "time": 18.00000000000001,
          "velocity": 0.2992125984251969,
          "duration": 0.9000000000000021
        },
        {
          "name": "F4",
          "midi": 65,
          "time": 18.30000000000001,
          "velocity": 0.29133858267716534,
          "duration": 0.3000000000000007
        },
        {
          "name": "D#4",
          "midi": 63,
          "time": 18.600000000000012,
          "velocity": 0.29133858267716534,
          "duration": 0.6000000000000014
        },
        {
          "name": "A#3",
          "midi": 58,
          "time": 18.900000000000013,
          "velocity": 0.2204724409448819,
          "duration": 1.8000000000000007
        },
        {
          "name": "F3",
          "midi": 53,
          "time": 18.900000000000013,
          "velocity": 0.2047244094488189,
          "duration": 1.8000000000000007
        },
        {
          "name": "G#3",
          "midi": 56,
          "time": 18.900000000000013,
          "velocity": 0.2440944881889764,
          "duration": 0.8975000000000009
        },
        {
          "name": "C#4",
          "midi": 61,
          "time": 19.200000000000014,
          "velocity": 0.2677165354330709,
          "duration": 0.3000000000000007
        },
        {
          "name": "D#4",
          "midi": 63,
          "time": 19.500000000000014,
          "velocity": 0.2677165354330709,
          "duration": 0.3000000000000007
        },
        {
          "name": "C#4",
          "midi": 61,
          "time": 19.800000000000015,
          "velocity": 0.2677165354330709,
          "duration": 0.8999999999999986
        },
        {
          "name": "G#3",
          "midi": 56,
          "time": 20.700000000000014,
          "velocity": 0.1732283464566929,
          "duration": 0.8999999999999986
        },
        {
          "name": "C4",
          "midi": 60,
          "time": 20.700000000000014,
          "velocity": 0.2125984251968504,
          "duration": 0.8999999999999986
        },
        {
          "name": "D#3",
          "midi": 51,
          "time": 20.700000000000014,
          "velocity": 0.18110236220472442,
          "duration": 0.4499999999999993
        },
        {
          "name": "F#3",
          "midi": 54,
          "time": 20.700000000000014,
          "velocity": 0.2204724409448819,
          "duration": 0.8999999999999986
        },
        {
          "name": "G#2",
          "midi": 44,
          "time": 21.150000000000013,
          "velocity": 0.2204724409448819,
          "duration": 0.75
        },
        {
          "name": "C#2",
          "midi": 37,
          "time": 21.600000000000012,
          "velocity": 0.23622047244094488,
          "duration": 0.3000000000000007
        },
        {
          "name": "G#3",
          "midi": 56,
          "time": 21.900000000000013,
          "velocity": 0.2204724409448819,
          "duration": 0.3000000000000007
        },
        {
          "name": "F3",
          "midi": 53,
          "time": 21.900000000000013,
          "velocity": 0.18110236220472442,
          "duration": 0.3000000000000007
        },
        {
          "name": "F4",
          "midi": 65,
          "time": 22.200000000000014,
          "velocity": 0.23622047244094488,
          "duration": 2.099999999999998
        },
        {
          "name": "G#4",
          "midi": 68,
          "time": 22.200000000000014,
          "velocity": 0.28346456692913385,
          "duration": 2.099999999999998
        },
        {
          "name": "G#5",
          "midi": 80,
          "time": 22.500000000000014,
          "velocity": 0.30708661417322836,
          "duration": 0.8999999999999986
        },
        {
          "name": "F5",
          "midi": 77,
          "time": 22.500000000000014,
          "velocity": 0.25984251968503935,
          "duration": 0.8999999999999986
        },
        {
          "name": "C#5",
          "midi": 73,
          "time": 23.400000000000013,
          "velocity": 0.2283464566929134,
          "duration": 1.1999999999999993
        },
        {
          "name": "F5",
          "midi": 77,
          "time": 23.400000000000013,
          "velocity": 0.2755905511811024,
          "duration": 1.1999999999999993
        },
        {
          "name": "F#2",
          "midi": 42,
          "time": 24.30000000000001,
          "velocity": 0.2204724409448819,
          "duration": 1.8000000000000043
        },
        {
          "name": "C#3",
          "midi": 49,
          "time": 24.30000000000001,
          "velocity": 0.25984251968503935,
          "duration": 1.8000000000000043
        },
        {
          "name": "F#4",
          "midi": 66,
          "time": 24.600000000000012,
          "velocity": 0.2125984251968504,
          "duration": 2.400000000000002
        },
        {
          "name": "D#5",
          "midi": 75,
          "time": 24.600000000000012,
          "velocity": 0.33070866141732286,
          "duration": 0.3000000000000007
        },
        {
          "name": "A#4",
          "midi": 70,
          "time": 24.600000000000012,
          "velocity": 0.2125984251968504,
          "duration": 2.400000000000002
        },
        {
          "name": "C#4",
          "midi": 61,
          "time": 24.600000000000012,
          "velocity": 0.2125984251968504,
          "duration": 2.400000000000002
        },
        {
          "name": "A#3",
          "midi": 58,
          "time": 24.600000000000012,
          "velocity": 0.1732283464566929,
          "duration": 2.400000000000002
        },
        {
          "name": "F#3",
          "midi": 54,
          "time": 24.600000000000012,
          "velocity": 0.1732283464566929,
          "duration": 2.400000000000002
        },
        {
          "name": "C#3",
          "midi": 49,
          "time": 24.600000000000012,
          "velocity": 0.1732283464566929,
          "duration": 2.400000000000002
        },
        {
          "name": "F5",
          "midi": 77,
          "time": 24.900000000000013,
          "velocity": 0.29133858267716534,
          "duration": 0.3000000000000007
        },
        {
          "name": "D#5",
          "midi": 75,
          "time": 25.200000000000014,
          "velocity": 0.2440944881889764,
          "duration": 2.1000000000000014
        },
        {
          "name": "F2",
          "midi": 41,
          "time": 27.000000000000014,
          "velocity": 0.23622047244094488,
          "duration": 1.8000000000000007
        },
        {
          "name": "C#3",
          "midi": 49,
          "time": 27.000000000000014,
          "velocity": 0.28346456692913385,
          "duration": 1.8000000000000007
        },
        {
          "name": "C#5",
          "midi": 73,
          "time": 27.300000000000015,
          "velocity": 0.30708661417322836,
          "duration": 0.3000000000000007
        },
        {
          "name": "G#4",
          "midi": 68,
          "time": 27.300000000000015,
          "velocity": 0.30708661417322836,
          "duration": 0.6000000000000014
        },
        {
          "name": "C#4",
          "midi": 61,
          "time": 27.300000000000015,
          "velocity": 0.25984251968503935,
          "duration": 0.3000000000000007
        },
        {
          "name": "F3",
          "midi": 53,
          "time": 27.300000000000015,
          "velocity": 0.2204724409448819,
          "duration": 0.6000000000000014
        },
        {
          "name": "G#3",
          "midi": 56,
          "time": 27.300000000000015,
          "velocity": 0.25984251968503935,
          "duration": 0.6000000000000014
        },
        {
          "name": "D#5",
          "midi": 75,
          "time": 27.600000000000016,
          "velocity": 0.31496062992125984,
          "duration": 0.3000000000000007
        },
        {
          "name": "D#4",
          "midi": 63,
          "time": 27.600000000000016,
          "velocity": 0.2677165354330709,
          "duration": 0.3000000000000007
        },
        {
          "name": "G#4",
          "midi": 68,
          "time": 27.900000000000016,
          "velocity": 0.2677165354330709,
          "duration": 0.8999999999999986
        },
        {
          "name": "C#5",
          "midi": 73,
          "time": 27.900000000000016,
          "velocity": 0.2677165354330709,
          "duration": 0.8999999999999986
        },
        {
          "name": "G#5",
          "midi": 80,
          "time": 27.900000000000016,
          "velocity": 0.31496062992125984,
          "duration": 0.8999999999999986
        },
        {
          "name": "F4",
          "midi": 65,
          "time": 27.900000000000016,
          "velocity": 0.25984251968503935,
          "duration": 0.8974999999999973
        },
        {
          "name": "C#4",
          "midi": 61,
          "time": 27.900000000000016,
          "velocity": 0.2204724409448819,
          "duration": 0.8999999999999986
        },
        {
          "name": "C#5",
          "midi": 73,
          "time": 28.800000000000015,
          "velocity": 0.25196850393700787,
          "duration": 0.8999999999999986
        },
        {
          "name": "F4",
          "midi": 65,
          "time": 28.800000000000015,
          "velocity": 0.25196850393700787,
          "duration": 0.8999999999999986
        },
        {
          "name": "F5",
          "midi": 77,
          "time": 28.800000000000015,
          "velocity": 0.2992125984251969,
          "duration": 1.1999999999999957
        },
        {
          "name": "G#3",
          "midi": 56,
          "time": 28.800000000000015,
          "velocity": 0.2125984251968504,
          "duration": 0.8999999999999986
        },
        {
          "name": "C#4",
          "midi": 61,
          "time": 28.800000000000015,
          "velocity": 0.25196850393700787,
          "duration": 0.8999999999999986
        },
        {
          "name": "F#2",
          "midi": 42,
          "time": 29.700000000000014,
          "velocity": 0.2204724409448819,
          "duration": 1.7999999999999972
        },
        {
          "name": "C#3",
          "midi": 49,
          "time": 29.700000000000014,
          "velocity": 0.25984251968503935,
          "duration": 1.7999999999999972
        },
        {
          "name": "D#5",
          "midi": 75,
          "time": 30.00000000000001,
          "velocity": 0.33070866141732286,
          "duration": 0.3000000000000007
        },
        {
          "name": "F#4",
          "midi": 66,
          "time": 30.00000000000001,
          "velocity": 0.2125984251968504,
          "duration": 2.400000000000002
        },
        {
          "name": "A#4",
          "midi": 70,
          "time": 30.00000000000001,
          "velocity": 0.2125984251968504,
          "duration": 2.400000000000002
        },
        {
          "name": "C#4",
          "midi": 61,
          "time": 30.00000000000001,
          "velocity": 0.2125984251968504,
          "duration": 2.400000000000002
        },
        {
          "name": "A#3",
          "midi": 58,
          "time": 30.00000000000001,
          "velocity": 0.1732283464566929,
          "duration": 2.400000000000002
        },
        {
          "name": "F#3",
          "midi": 54,
          "time": 30.00000000000001,
          "velocity": 0.1732283464566929,
          "duration": 2.400000000000002
        },
        {
          "name": "C#3",
          "midi": 49,
          "time": 30.00000000000001,
          "velocity": 0.1732283464566929,
          "duration": 2.400000000000002
        },
        {
          "name": "F5",
          "midi": 77,
          "time": 30.30000000000001,
          "velocity": 0.29133858267716534,
          "duration": 0.3000000000000007
        },
        {
          "name": "D#5",
          "midi": 75,
          "time": 30.600000000000012,
          "velocity": 0.2440944881889764,
          "duration": 0.8999999999999986
        },
        {
          "name": "C#5",
          "midi": 73,
          "time": 31.50000000000001,
          "velocity": 0.29133858267716534,
          "duration": 1.1999999999999993
        },
        {
          "name": "G#2",
          "midi": 44,
          "time": 32.40000000000001,
          "velocity": 0.28346456692913385,
          "duration": 2.6999999999999886
        },
        {
          "name": "G#4",
          "midi": 68,
          "time": 32.70000000000001,
          "velocity": 0.25984251968503935,
          "duration": 0.5999999999999943
        },
        {
          "name": "C#5",
          "midi": 73,
          "time": 32.70000000000001,
          "velocity": 0.30708661417322836,
          "duration": 0.29999999999999716
        },
        {
          "name": "C#4",
          "midi": 61,
          "time": 32.70000000000001,
          "velocity": 0.25984251968503935,
          "duration": 0.29999999999999716
        },
        {
          "name": "F3",
          "midi": 53,
          "time": 32.70000000000001,
          "velocity": 0.2204724409448819,
          "duration": 0.5999999999999943
        },
        {
          "name": "B3",
          "midi": 59,
          "time": 32.70000000000001,
          "velocity": 0.25984251968503935,
          "duration": 0.5999999999999943
        },
        {
          "name": "D#4",
          "midi": 63,
          "time": 33.00000000000001,
          "velocity": 0.2677165354330709,
          "duration": 0.29999999999999716
        },
        {
          "name": "D#5",
          "midi": 75,
          "time": 33.00000000000001,
          "velocity": 0.31496062992125984,
          "duration": 0.29999999999999716
        },
        {
          "name": "A#4",
          "midi": 70,
          "time": 33.300000000000004,
          "velocity": 0.31496062992125984,
          "duration": 0.45000000000000284
        },
        {
          "name": "A#5",
          "midi": 82,
          "time": 33.300000000000004,
          "velocity": 0.3779527559055118,
          "duration": 0.45000000000000284
        },
        {
          "name": "F5",
          "midi": 77,
          "time": 33.300000000000004,
          "velocity": 0.3543307086614173,
          "duration": 1.7999999999999972
        },
        {
          "name": "F4",
          "midi": 65,
          "time": 33.300000000000004,
          "velocity": 0.25984251968503935,
          "duration": 1.1999999999999957
        },
        {
          "name": "C#4",
          "midi": 61,
          "time": 33.300000000000004,
          "velocity": 0.2204724409448819,
          "duration": 1.1999999999999957
        },
        {
          "name": "B3",
          "midi": 59,
          "time": 33.300000000000004,
          "velocity": 0.2204724409448819,
          "duration": 1.1999999999999957
        },
        {
          "name": "G#5",
          "midi": 80,
          "time": 33.75000000000001,
          "velocity": 0.36220472440944884,
          "duration": 0.8999999999999915
        },
        {
          "name": "G#4",
          "midi": 68,
          "time": 33.75000000000001,
          "velocity": 0.30708661417322836,
          "duration": 0.8999999999999915
        },
        {
          "name": "F4",
          "midi": 65,
          "time": 34.65,
          "velocity": 0.29133858267716534,
          "duration": 0.7500000000000071
        },
        {
          "name": "F5",
          "midi": 77,
          "time": 34.65,
          "velocity": 0.3464566929133858,
          "duration": 0.7500000000000071
        },
        {
          "name": "A#2",
          "midi": 46,
          "time": 35.1,
          "velocity": 0.30708661417322836,
          "duration": 1.8000000000000043
        },
        {
          "name": "F4",
          "midi": 65,
          "time": 35.400000000000006,
          "velocity": 0.25196850393700787,
          "duration": 2.3999999999999986
        },
        {
          "name": "D#5",
          "midi": 75,
          "time": 35.400000000000006,
          "velocity": 0.31496062992125984,
          "duration": 0.29999999999999716
        },
        {
          "name": "A#4",
          "midi": 70,
          "time": 35.400000000000006,
          "velocity": 0.25196850393700787,
          "duration": 2.3999999999999986
        },
        {
          "name": "D#4",
          "midi": 63,
          "time": 35.400000000000006,
          "velocity": 0.31496062992125984,
          "duration": 1.0499999999999972
        },
        {
          "name": "F3",
          "midi": 53,
          "time": 35.400000000000006,
          "velocity": 0.25196850393700787,
          "duration": 2.3999999999999986
        },
        {
          "name": "A#3",
          "midi": 58,
          "time": 35.400000000000006,
          "velocity": 0.25196850393700787,
          "duration": 2.3999999999999986
        },
        {
          "name": "F5",
          "midi": 77,
          "time": 35.7,
          "velocity": 0.29133858267716534,
          "duration": 0.29999999999999716
        },
        {
          "name": "D#5",
          "midi": 75,
          "time": 36,
          "velocity": 0.25984251968503935,
          "duration": 0.45000000000000284
        },
        {
          "name": "C#5",
          "midi": 73,
          "time": 36.45,
          "velocity": 0.29133858267716534,
          "duration": 0.9000000000000057
        },
        {
          "name": "C#4",
          "midi": 61,
          "time": 36.45,
          "velocity": 0.29133858267716534,
          "duration": 1.3500000000000014
        },
        {
          "name": "A#4",
          "midi": 70,
          "time": 37.35000000000001,
          "velocity": 0.25984251968503935,
          "duration": 0.44999999999999574
        },
        {
          "name": "D#1",
          "midi": 27,
          "time": 37.800000000000004,
          "velocity": 0.23622047244094488,
          "duration": 1.7999999999999972
        },
        {
          "name": "D#2",
          "midi": 39,
          "time": 37.800000000000004,
          "velocity": 0.28346456692913385,
          "duration": 1.7999999999999972
        },
        {
          "name": "A#5",
          "midi": 82,
          "time": 38.25000000000001,
          "velocity": 0.29133858267716534,
          "duration": 1.0499999999999972
        },
        {
          "name": "F5",
          "midi": 77,
          "time": 38.25000000000001,
          "velocity": 0.29133858267716534,
          "duration": 1.3499999999999943
        },
        {
          "name": "F6",
          "midi": 89,
          "time": 38.25000000000001,
          "velocity": 0.31496062992125984,
          "duration": 1.3499999999999943
        },
        {
          "name": "A#4",
          "midi": 70,
          "time": 38.25000000000001,
          "velocity": 0.25196850393700787,
          "duration": 1.0499999999999972
        },
        {
          "name": "F#4",
          "midi": 66,
          "time": 38.25000000000001,
          "velocity": 0.25196850393700787,
          "duration": 1.0499999999999972
        },
        {
          "name": "F4",
          "midi": 65,
          "time": 38.25000000000001,
          "velocity": 0.25196850393700787,
          "duration": 1.3499999999999943
        },
        {
          "name": "D#6",
          "midi": 87,
          "time": 39.00000000000001,
          "velocity": 0.30708661417322836,
          "duration": 0.29999999999999716
        },
        {
          "name": "A#5",
          "midi": 82,
          "time": 39.00000000000001,
          "velocity": 0.28346456692913385,
          "duration": 0.5749999999999957
        },
        {
          "name": "D#5",
          "midi": 75,
          "time": 39.00000000000001,
          "velocity": 0.28346456692913385,
          "duration": 0.29999999999999716
        },
        {
          "name": "D#4",
          "midi": 63,
          "time": 39.00000000000001,
          "velocity": 0.2440944881889764,
          "duration": 0.29999999999999716
        },
        {
          "name": "F#4",
          "midi": 66,
          "time": 39.00000000000001,
          "velocity": 0.2440944881889764,
          "duration": 0.5749999999999957
        },
        {
          "name": "A#4",
          "midi": 70,
          "time": 39.00000000000001,
          "velocity": 0.2440944881889764,
          "duration": 0.5749999999999957
        },
        {
          "name": "A#5",
          "midi": 82,
          "time": 39.300000000000004,
          "velocity": 0.28346456692913385,
          "duration": 0.29999999999999716
        },
        {
          "name": "D#6",
          "midi": 87,
          "time": 39.300000000000004,
          "velocity": 0.30708661417322836,
          "duration": 0.2749999999999986
        },
        {
          "name": "D#5",
          "midi": 75,
          "time": 39.300000000000004,
          "velocity": 0.28346456692913385,
          "duration": 0.2749999999999986
        },
        {
          "name": "D#4",
          "midi": 63,
          "time": 39.300000000000004,
          "velocity": 0.2440944881889764,
          "duration": 0.2749999999999986
        },
        {
          "name": "F#4",
          "midi": 66,
          "time": 39.300000000000004,
          "velocity": 0.2440944881889764,
          "duration": 0.29999999999999716
        },
        {
          "name": "A#4",
          "midi": 70,
          "time": 39.300000000000004,
          "velocity": 0.2440944881889764,
          "duration": 0.29999999999999716
        },
        {
          "name": "D#5",
          "midi": 75,
          "time": 39.6,
          "velocity": 0.2992125984251969,
          "duration": 0.29999999999999716
        },
        {
          "name": "D#6",
          "midi": 87,
          "time": 39.6,
          "velocity": 0.3228346456692913,
          "duration": 0.29999999999999716
        },
        {
          "name": "A#5",
          "midi": 82,
          "time": 39.6,
          "velocity": 0.2992125984251969,
          "duration": 0.29999999999999716
        },
        {
          "name": "D#4",
          "midi": 63,
          "time": 39.6,
          "velocity": 0.25196850393700787,
          "duration": 0.29999999999999716
        },
        {
          "name": "F#4",
          "midi": 66,
          "time": 39.6,
          "velocity": 0.25196850393700787,
          "duration": 0.29999999999999716
        },
        {
          "name": "A#4",
          "midi": 70,
          "time": 39.6,
          "velocity": 0.25196850393700787,
          "duration": 0.29999999999999716
        },
        {
          "name": "A#5",
          "midi": 82,
          "time": 39.9,
          "velocity": 0.29133858267716534,
          "duration": 0.29999999999999716
        },
        {
          "name": "C#5",
          "midi": 73,
          "time": 39.9,
          "velocity": 0.29133858267716534,
          "duration": 0.29999999999999716
        },
        {
          "name": "C#6",
          "midi": 85,
          "time": 39.9,
          "velocity": 0.31496062992125984,
          "duration": 0.29999999999999716
        },
        {
          "name": "C#4",
          "midi": 61,
          "time": 39.9,
          "velocity": 0.2440944881889764,
          "duration": 0.29999999999999716
        },
        {
          "name": "F#4",
          "midi": 66,
          "time": 39.9,
          "velocity": 0.2440944881889764,
          "duration": 0.29999999999999716
        },
        {
          "name": "A#4",
          "midi": 70,
          "time": 39.9,
          "velocity": 0.2440944881889764,
          "duration": 0.29999999999999716
        },
        {
          "name": "C#5",
          "midi": 73,
          "time": 40.199999999999996,
          "velocity": 0.29133858267716534,
          "duration": 0.2749999999999986
        },
        {
          "name": "C#6",
          "midi": 85,
          "time": 40.199999999999996,
          "velocity": 0.31496062992125984,
          "duration": 0.2749999999999986
        },
        {
          "name": "A#5",
          "midi": 82,
          "time": 40.199999999999996,
          "velocity": 0.29133858267716534,
          "duration": 0.2749999999999986
        },
        {
          "name": "C#4",
          "midi": 61,
          "time": 40.199999999999996,
          "velocity": 0.2440944881889764,
          "duration": 0.2749999999999986
        },
        {
          "name": "F#4",
          "midi": 66,
          "time": 40.199999999999996,
          "velocity": 0.2440944881889764,
          "duration": 0.2749999999999986
        },
        {
          "name": "A#4",
          "midi": 70,
          "time": 40.199999999999996,
          "velocity": 0.2440944881889764,
          "duration": 0.2749999999999986
        },
        {
          "name": "C#6",
          "midi": 85,
          "time": 40.49999999999999,
          "velocity": 0.3228346456692913,
          "duration": 0.29999999999999716
        },
        {
          "name": "C#5",
          "midi": 73,
          "time": 40.49999999999999,
          "velocity": 0.2992125984251969,
          "duration": 0.29999999999999716
        },
        {
          "name": "A#5",
          "midi": 82,
          "time": 40.49999999999999,
          "velocity": 0.2992125984251969,
          "duration": 0.29999999999999716
        },
        {
          "name": "C#4",
          "midi": 61,
          "time": 40.49999999999999,
          "velocity": 0.2677165354330709,
          "duration": 0.29999999999999716
        },
        {
          "name": "F#4",
          "midi": 66,
          "time": 40.49999999999999,
          "velocity": 0.2677165354330709,
          "duration": 0.29999999999999716
        },
        {
          "name": "A#4",
          "midi": 70,
          "time": 40.49999999999999,
          "velocity": 0.2677165354330709,
          "duration": 0.29999999999999716
        },
        {
          "name": "A#5",
          "midi": 82,
          "time": 40.79999999999999,
          "velocity": 0.28346456692913385,
          "duration": 0.29999999999999716
        },
        {
          "name": "F#5",
          "midi": 78,
          "time": 40.79999999999999,
          "velocity": 0.28346456692913385,
          "duration": 0.29999999999999716
        },
        {
          "name": "C5",
          "midi": 72,
          "time": 40.79999999999999,
          "velocity": 0.28346456692913385,
          "duration": 0.29999999999999716
        },
        {
          "name": "C6",
          "midi": 84,
          "time": 40.79999999999999,
          "velocity": 0.30708661417322836,
          "duration": 0.29999999999999716
        },
        {
          "name": "C4",
          "midi": 60,
          "time": 40.79999999999999,
          "velocity": 0.25196850393700787,
          "duration": 0.29999999999999716
        },
        {
          "name": "F#4",
          "midi": 66,
          "time": 40.79999999999999,
          "velocity": 0.25196850393700787,
          "duration": 0.29999999999999716
        },
        {
          "name": "A#4",
          "midi": 70,
          "time": 40.79999999999999,
          "velocity": 0.25196850393700787,
          "duration": 0.29999999999999716
        },
        {
          "name": "C5",
          "midi": 72,
          "time": 41.09999999999999,
          "velocity": 0.28346456692913385,
          "duration": 0.2749999999999986
        },
        {
          "name": "A#5",
          "midi": 82,
          "time": 41.09999999999999,
          "velocity": 0.28346456692913385,
          "duration": 0.2749999999999986
        },
        {
          "name": "C6",
          "midi": 84,
          "time": 41.09999999999999,
          "velocity": 0.30708661417322836,
          "duration": 0.2749999999999986
        },
        {
          "name": "F#5",
          "midi": 78,
          "time": 41.09999999999999,
          "velocity": 0.28346456692913385,
          "duration": 0.2749999999999986
        },
        {
          "name": "C4",
          "midi": 60,
          "time": 41.09999999999999,
          "velocity": 0.25196850393700787,
          "duration": 0.2749999999999986
        },
        {
          "name": "F#4",
          "midi": 66,
          "time": 41.09999999999999,
          "velocity": 0.25196850393700787,
          "duration": 0.2749999999999986
        },
        {
          "name": "A#4",
          "midi": 70,
          "time": 41.09999999999999,
          "velocity": 0.25196850393700787,
          "duration": 0.2749999999999986
        },
        {
          "name": "C6",
          "midi": 84,
          "time": 41.399999999999984,
          "velocity": 0.30708661417322836,
          "duration": 0.44999999999999574
        },
        {
          "name": "C5",
          "midi": 72,
          "time": 41.399999999999984,
          "velocity": 0.28346456692913385,
          "duration": 0.44999999999999574
        },
        {
          "name": "A#5",
          "midi": 82,
          "time": 41.399999999999984,
          "velocity": 0.28346456692913385,
          "duration": 0.44999999999999574
        },
        {
          "name": "F#5",
          "midi": 78,
          "time": 41.399999999999984,
          "velocity": 0.28346456692913385,
          "duration": 0.44999999999999574
        },
        {
          "name": "C4",
          "midi": 60,
          "time": 41.399999999999984,
          "velocity": 0.2440944881889764,
          "duration": 0.44999999999999574
        },
        {
          "name": "F#4",
          "midi": 66,
          "time": 41.399999999999984,
          "velocity": 0.2440944881889764,
          "duration": 0.44999999999999574
        },
        {
          "name": "A#4",
          "midi": 70,
          "time": 41.399999999999984,
          "velocity": 0.2440944881889764,
          "duration": 0.44999999999999574
        },
        {
          "name": "A#5",
          "midi": 82,
          "time": 41.84999999999998,
          "velocity": 0.25984251968503935,
          "duration": 0.44999999999999574
        },
        {
          "name": "C#5",
          "midi": 73,
          "time": 41.84999999999998,
          "velocity": 0.25984251968503935,
          "duration": 0.44999999999999574
        },
        {
          "name": "C#6",
          "midi": 85,
          "time": 41.84999999999998,
          "velocity": 0.28346456692913385,
          "duration": 0.44999999999999574
        },
        {
          "name": "C#4",
          "midi": 61,
          "time": 41.84999999999998,
          "velocity": 0.23622047244094488,
          "duration": 0.44999999999999574
        },
        {
          "name": "F#4",
          "midi": 66,
          "time": 41.84999999999998,
          "velocity": 0.23622047244094488,
          "duration": 0.44999999999999574
        },
        {
          "name": "A#4",
          "midi": 70,
          "time": 41.84999999999998,
          "velocity": 0.23622047244094488,
          "duration": 0.44999999999999574
        },
        {
          "name": "A#4",
          "midi": 70,
          "time": 42.299999999999976,
          "velocity": 0.25984251968503935,
          "duration": 0.8999999999999986
        },
        {
          "name": "A#5",
          "midi": 82,
          "time": 42.299999999999976,
          "velocity": 0.28346456692913385,
          "duration": 0.8999999999999986
        },
        {
          "name": "F#5",
          "midi": 78,
          "time": 42.299999999999976,
          "velocity": 0.25984251968503935,
          "duration": 0.8999999999999986
        },
        {
          "name": "A#3",
          "midi": 58,
          "time": 42.299999999999976,
          "velocity": 0.2204724409448819,
          "duration": 0.8999999999999986
        },
        {
          "name": "C#4",
          "midi": 61,
          "time": 42.299999999999976,
          "velocity": 0.2204724409448819,
          "duration": 0.8999999999999986
        },
        {
          "name": "F#4",
          "midi": 66,
          "time": 42.299999999999976,
          "velocity": 0.2204724409448819,
          "duration": 0.8999999999999986
        },
        {
          "name": "A#2",
          "midi": 46,
          "time": 43.199999999999974,
          "velocity": 0.28346456692913385,
          "duration": 1.79999999999999
        },
        {
          "name": "D#1",
          "midi": 27,
          "time": 43.199999999999974,
          "velocity": 0.23622047244094488,
          "duration": 1.79999999999999
        },
        {
          "name": "D#2",
          "midi": 39,
          "time": 43.199999999999974,
          "velocity": 0.23622047244094488,
          "duration": 1.79999999999999
        },
        {
          "name": "A#5",
          "midi": 82,
          "time": 43.64999999999997,
          "velocity": 0.36220472440944884,
          "duration": 1.0499999999999972
        },
        {
          "name": "F6",
          "midi": 89,
          "time": 43.64999999999997,
          "velocity": 0.3779527559055118,
          "duration": 1.3249999999999957
        },
        {
          "name": "F5",
          "midi": 77,
          "time": 43.64999999999997,
          "velocity": 0.36220472440944884,
          "duration": 1.3249999999999957
        },
        {
          "name": "A#4",
          "midi": 70,
          "time": 43.64999999999997,
          "velocity": 0.2677165354330709,
          "duration": 1.0499999999999972
        },
        {
          "name": "F#4",
          "midi": 66,
          "time": 43.64999999999997,
          "velocity": 0.2677165354330709,
          "duration": 1.0499999999999972
        },
        {
          "name": "F4",
          "midi": 65,
          "time": 43.64999999999997,
          "velocity": 0.2677165354330709,
          "duration": 1.3249999999999957
        },
        {
          "name": "F#5",
          "midi": 78,
          "time": 44.39999999999997,
          "velocity": 0.31496062992125984,
          "duration": 0.29999999999999716
        },
        {
          "name": "F#6",
          "midi": 90,
          "time": 44.39999999999997,
          "velocity": 0.33070866141732286,
          "duration": 0.29999999999999716
        },
        {
          "name": "A#5",
          "midi": 82,
          "time": 44.39999999999997,
          "velocity": 0.31496062992125984,
          "duration": 0.5749999999999957
        },
        {
          "name": "F#4",
          "midi": 66,
          "time": 44.39999999999997,
          "velocity": 0.2677165354330709,
          "duration": 0.5749999999999957
        },
        {
          "name": "D#5",
          "midi": 75,
          "time": 44.39999999999997,
          "velocity": 0.2677165354330709,
          "duration": 0.29999999999999716
        },
        {
          "name": "A#4",
          "midi": 70,
          "time": 44.39999999999997,
          "velocity": 0.2677165354330709,
          "duration": 0.5749999999999957
        },
        {
          "name": "A#5",
          "midi": 82,
          "time": 44.69999999999997,
          "velocity": 0.29133858267716534,
          "duration": 0.29999999999999716
        },
        {
          "name": "F6",
          "midi": 89,
          "time": 44.69999999999997,
          "velocity": 0.2992125984251969,
          "duration": 0.29999999999999716
        },
        {
          "name": "F5",
          "midi": 77,
          "time": 44.69999999999997,
          "velocity": 0.29133858267716534,
          "duration": 0.29999999999999716
        },
        {
          "name": "F4",
          "midi": 65,
          "time": 44.69999999999997,
          "velocity": 0.25196850393700787,
          "duration": 0.29999999999999716
        },
        {
          "name": "F#4",
          "midi": 66,
          "time": 44.69999999999997,
          "velocity": 0.25196850393700787,
          "duration": 0.29999999999999716
        },
        {
          "name": "A#4",
          "midi": 70,
          "time": 44.69999999999997,
          "velocity": 0.25196850393700787,
          "duration": 0.29999999999999716
        },
        {
          "name": "D#6",
          "midi": 87,
          "time": 44.999999999999964,
          "velocity": 0.31496062992125984,
          "duration": 0.2749999999999986
        },
        {
          "name": "D#5",
          "midi": 75,
          "time": 44.999999999999964,
          "velocity": 0.30708661417322836,
          "duration": 0.2749999999999986
        },
        {
          "name": "A#5",
          "midi": 82,
          "time": 44.999999999999964,
          "velocity": 0.30708661417322836,
          "duration": 0.2749999999999986
        },
        {
          "name": "D#4",
          "midi": 63,
          "time": 44.999999999999964,
          "velocity": 0.25984251968503935,
          "duration": 0.2749999999999986
        },
        {
          "name": "F#4",
          "midi": 66,
          "time": 44.999999999999964,
          "velocity": 0.25984251968503935,
          "duration": 0.2749999999999986
        },
        {
          "name": "A#4",
          "midi": 70,
          "time": 44.999999999999964,
          "velocity": 0.25984251968503935,
          "duration": 0.2749999999999986
        },
        {
          "name": "F5",
          "midi": 77,
          "time": 45.29999999999996,
          "velocity": 0.2992125984251969,
          "duration": 0.29999999999999716
        },
        {
          "name": "F6",
          "midi": 89,
          "time": 45.29999999999996,
          "velocity": 0.30708661417322836,
          "duration": 0.29999999999999716
        },
        {
          "name": "A#5",
          "midi": 82,
          "time": 45.29999999999996,
          "velocity": 0.2992125984251969,
          "duration": 0.29999999999999716
        },
        {
          "name": "F4",
          "midi": 65,
          "time": 45.29999999999996,
          "velocity": 0.25196850393700787,
          "duration": 0.29999999999999716
        },
        {
          "name": "F#4",
          "midi": 66,
          "time": 45.29999999999996,
          "velocity": 0.25196850393700787,
          "duration": 0.29999999999999716
        },
        {
          "name": "A#4",
          "midi": 70,
          "time": 45.29999999999996,
          "velocity": 0.25196850393700787,
          "duration": 0.29999999999999716
        },
        {
          "name": "A#5",
          "midi": 82,
          "time": 45.59999999999996,
          "velocity": 0.2992125984251969,
          "duration": 0.29999999999999716
        },
        {
          "name": "D#6",
          "midi": 87,
          "time": 45.59999999999996,
          "velocity": 0.30708661417322836,
          "duration": 0.29999999999999716
        },
        {
          "name": "D#5",
          "midi": 75,
          "time": 45.59999999999996,
          "velocity": 0.2992125984251969,
          "duration": 0.29999999999999716
        },
        {
          "name": "D#4",
          "midi": 63,
          "time": 45.59999999999996,
          "velocity": 0.25196850393700787,
          "duration": 0.29999999999999716
        },
        {
          "name": "F#4",
          "midi": 66,
          "time": 45.59999999999996,
          "velocity": 0.25196850393700787,
          "duration": 0.29999999999999716
        },
        {
          "name": "A#4",
          "midi": 70,
          "time": 45.59999999999996,
          "velocity": 0.25196850393700787,
          "duration": 0.29999999999999716
        },
        {
          "name": "C#6",
          "midi": 85,
          "time": 45.899999999999956,
          "velocity": 0.31496062992125984,
          "duration": 0.2749999999999986
        },
        {
          "name": "A#5",
          "midi": 82,
          "time": 45.899999999999956,
          "velocity": 0.30708661417322836,
          "duration": 0.2749999999999986
        },
        {
          "name": "C#5",
          "midi": 73,
          "time": 45.899999999999956,
          "velocity": 0.30708661417322836,
          "duration": 0.2749999999999986
        },
        {
          "name": "C#4",
          "midi": 61,
          "time": 45.899999999999956,
          "velocity": 0.2755905511811024,
          "duration": 0.2749999999999986
        },
        {
          "name": "F#4",
          "midi": 66,
          "time": 45.899999999999956,
          "velocity": 0.2755905511811024,
          "duration": 0.2749999999999986
        },
        {
          "name": "A#4",
          "midi": 70,
          "time": 45.899999999999956,
          "velocity": 0.2755905511811024,
          "duration": 0.2749999999999986
        },
        {
          "name": "A#5",
          "midi": 82,
          "time": 46.19999999999995,
          "velocity": 0.29133858267716534,
          "duration": 0.29999999999999716
        },
        {
          "name": "D#5",
          "midi": 75,
          "time": 46.19999999999995,
          "velocity": 0.29133858267716534,
          "duration": 0.29999999999999716
        },
        {
          "name": "D#6",
          "midi": 87,
          "time": 46.19999999999995,
          "velocity": 0.2992125984251969,
          "duration": 0.29999999999999716
        },
        {
          "name": "D#4",
          "midi": 63,
          "time": 46.19999999999995,
          "velocity": 0.25984251968503935,
          "duration": 0.29999999999999716
        },
        {
          "name": "F#4",
          "midi": 66,
          "time": 46.19999999999995,
          "velocity": 0.25984251968503935,
          "duration": 0.29999999999999716
        },
        {
          "name": "A#4",
          "midi": 70,
          "time": 46.19999999999995,
          "velocity": 0.25984251968503935,
          "duration": 0.29999999999999716
        },
        {
          "name": "C#5",
          "midi": 73,
          "time": 46.49999999999995,
          "velocity": 0.29133858267716534,
          "duration": 0.2749999999999986
        },
        {
          "name": "A#5",
          "midi": 82,
          "time": 46.49999999999995,
          "velocity": 0.29133858267716534,
          "duration": 0.2749999999999986
        },
        {
          "name": "C#6",
          "midi": 85,
          "time": 46.49999999999995,
          "velocity": 0.2992125984251969,
          "duration": 0.2749999999999986
        },
        {
          "name": "C#4",
          "midi": 61,
          "time": 46.49999999999995,
          "velocity": 0.25984251968503935,
          "duration": 0.2749999999999986
        },
        {
          "name": "F#4",
          "midi": 66,
          "time": 46.49999999999995,
          "velocity": 0.25984251968503935,
          "duration": 0.2749999999999986
        },
        {
          "name": "A#4",
          "midi": 70,
          "time": 46.49999999999995,
          "velocity": 0.25984251968503935,
          "duration": 0.2749999999999986
        },
        {
          "name": "A#5",
          "midi": 82,
          "time": 46.79999999999995,
          "velocity": 0.29133858267716534,
          "duration": 0.4125000000000014
        },
        {
          "name": "C5",
          "midi": 72,
          "time": 46.79999999999995,
          "velocity": 0.29133858267716534,
          "duration": 0.4125000000000014
        },
        {
          "name": "C6",
          "midi": 84,
          "time": 46.79999999999995,
          "velocity": 0.2992125984251969,
          "duration": 0.4125000000000014
        },
        {
          "name": "C4",
          "midi": 60,
          "time": 46.79999999999995,
          "velocity": 0.25196850393700787,
          "duration": 0.45000000000000284
        },
        {
          "name": "F#4",
          "midi": 66,
          "time": 46.79999999999995,
          "velocity": 0.25196850393700787,
          "duration": 0.45000000000000284
        },
        {
          "name": "A#4",
          "midi": 70,
          "time": 46.79999999999995,
          "velocity": 0.25196850393700787,
          "duration": 0.45000000000000284
        },
        {
          "name": "D#6",
          "midi": 87,
          "time": 47.21249999999995,
          "velocity": 0.33858267716535434,
          "duration": 0.03750000000000142
        },
        {
          "name": "C#6",
          "midi": 85,
          "time": 47.24999999999995,
          "velocity": 0.29133858267716534,
          "duration": 0.44999999999999574
        },
        {
          "name": "C#5",
          "midi": 73,
          "time": 47.24999999999995,
          "velocity": 0.2677165354330709,
          "duration": 0.44999999999999574
        },
        {
          "name": "A#5",
          "midi": 82,
          "time": 47.24999999999995,
          "velocity": 0.2677165354330709,
          "duration": 0.44999999999999574
        },
        {
          "name": "C#4",
          "midi": 61,
          "time": 47.24999999999995,
          "velocity": 0.2440944881889764,
          "duration": 0.44999999999999574
        },
        {
          "name": "F#4",
          "midi": 66,
          "time": 47.24999999999995,
          "velocity": 0.2440944881889764,
          "duration": 0.44999999999999574
        },
        {
          "name": "A#4",
          "midi": 70,
          "time": 47.24999999999995,
          "velocity": 0.2440944881889764,
          "duration": 0.44999999999999574
        },
        {
          "name": "A#4",
          "midi": 70,
          "time": 47.699999999999946,
          "velocity": 0.25984251968503935,
          "duration": 1.3500000000000085
        },
        {
          "name": "F#5",
          "midi": 78,
          "time": 47.699999999999946,
          "velocity": 0.25984251968503935,
          "duration": 1.3500000000000085
        },
        {
          "name": "A#5",
          "midi": 82,
          "time": 47.699999999999946,
          "velocity": 0.2755905511811024,
          "duration": 1.3500000000000085
        },
        {
          "name": "A#3",
          "midi": 58,
          "time": 47.699999999999946,
          "velocity": 0.23622047244094488,
          "duration": 0.9000000000000057
        },
        {
          "name": "D#4",
          "midi": 63,
          "time": 47.699999999999946,
          "velocity": 0.23622047244094488,
          "duration": 0.9000000000000057
        },
        {
          "name": "F#4",
          "midi": 66,
          "time": 47.699999999999946,
          "velocity": 0.23622047244094488,
          "duration": 0.9000000000000057
        },
        {
          "name": "G#1",
          "midi": 32,
          "time": 48.59999999999995,
          "velocity": 0.2755905511811024,
          "duration": 1.8000000000000043
        },
        {
          "name": "G#2",
          "midi": 44,
          "time": 48.59999999999995,
          "velocity": 0.33070866141732286,
          "duration": 1.8000000000000043
        },
        {
          "name": "F#5",
          "midi": 78,
          "time": 49.049999999999955,
          "velocity": 0.4015748031496063,
          "duration": 0.45000000000000284
        },
        {
          "name": "F#4",
          "midi": 66,
          "time": 49.049999999999955,
          "velocity": 0.3858267716535433,
          "duration": 0.45000000000000284
        },
        {
          "name": "F#3",
          "midi": 54,
          "time": 49.049999999999955,
          "velocity": 0.3779527559055118,
          "duration": 0.45000000000000284
        },
        {
          "name": "D#5",
          "midi": 75,
          "time": 49.49999999999996,
          "velocity": 0.3543307086614173,
          "duration": 0.44999999999999574
        },
        {
          "name": "G#5",
          "midi": 80,
          "time": 49.49999999999996,
          "velocity": 0.3700787401574803,
          "duration": 0.44999999999999574
        },
        {
          "name": "G#4",
          "midi": 68,
          "time": 49.49999999999996,
          "velocity": 0.3543307086614173,
          "duration": 0.44999999999999574
        },
        {
          "name": "D#4",
          "midi": 63,
          "time": 49.49999999999996,
          "velocity": 0.30708661417322836,
          "duration": 0.8999999999999986
        },
        {
          "name": "C4",
          "midi": 60,
          "time": 49.49999999999996,
          "velocity": 0.25984251968503935,
          "duration": 0.8999999999999986
        },
        {
          "name": "G#3",
          "midi": 56,
          "time": 49.49999999999996,
          "velocity": 0.2992125984251969,
          "duration": 0.44999999999999574
        },
        {
          "name": "C5",
          "midi": 72,
          "time": 49.94999999999995,
          "velocity": 0.3858267716535433,
          "duration": 0.45000000000000284
        },
        {
          "name": "C6",
          "midi": 84,
          "time": 49.94999999999995,
          "velocity": 0.4015748031496063,
          "duration": 0.45000000000000284
        },
        {
          "name": "C4",
          "midi": 60,
          "time": 49.94999999999995,
          "velocity": 0.3937007874015748,
          "duration": 0.45000000000000284
        },
        {
          "name": "A#4",
          "midi": 70,
          "time": 50.399999999999956,
          "velocity": 0.36220472440944884,
          "duration": 0.44999999999999574
        },
        {
          "name": "A#5",
          "midi": 82,
          "time": 50.399999999999956,
          "velocity": 0.3779527559055118,
          "duration": 0.44999999999999574
        },
        {
          "name": "F#5",
          "midi": 78,
          "time": 50.399999999999956,
          "velocity": 0.36220472440944884,
          "duration": 0.44999999999999574
        },
        {
          "name": "F#4",
          "midi": 66,
          "time": 50.399999999999956,
          "velocity": 0.31496062992125984,
          "duration": 0.8999999999999915
        },
        {
          "name": "D#4",
          "midi": 63,
          "time": 50.399999999999956,
          "velocity": 0.2677165354330709,
          "duration": 0.8999999999999915
        },
        {
          "name": "A#3",
          "midi": 58,
          "time": 50.399999999999956,
          "velocity": 0.30708661417322836,
          "duration": 0.44999999999999574
        },
        {
          "name": "F#4",
          "midi": 66,
          "time": 50.84999999999995,
          "velocity": 0.3464566929133858,
          "duration": 0.44999999999999574
        },
        {
          "name": "F#5",
          "midi": 78,
          "time": 50.84999999999995,
          "velocity": 0.36220472440944884,
          "duration": 0.44999999999999574
        },
        {
          "name": "F#3",
          "midi": 54,
          "time": 50.84999999999995,
          "velocity": 0.3464566929133858,
          "duration": 0.44999999999999574
        },
        {
          "name": "A1",
          "midi": 33,
          "time": 51.29999999999995,
          "velocity": 0.2755905511811024,
          "duration": 1.79999999999999
        },
        {
          "name": "A2",
          "midi": 45,
          "time": 51.29999999999995,
          "velocity": 0.33070866141732286,
          "duration": 1.79999999999999
        },
        {
          "name": "D#5",
          "midi": 75,
          "time": 51.599999999999945,
          "velocity": 0.28346456692913385,
          "duration": 0.29999999999999716
        },
        {
          "name": "F#4",
          "midi": 66,
          "time": 51.599999999999945,
          "velocity": 0.28346456692913385,
          "duration": 0.29999999999999716
        },
        {
          "name": "F#5",
          "midi": 78,
          "time": 51.599999999999945,
          "velocity": 0.30708661417322836,
          "duration": 0.29999999999999716
        },
        {
          "name": "C5",
          "midi": 72,
          "time": 51.599999999999945,
          "velocity": 0.28346456692913385,
          "duration": 0.29999999999999716
        },
        {
          "name": "D#4",
          "midi": 63,
          "time": 51.599999999999945,
          "velocity": 0.23622047244094488,
          "duration": 0.29999999999999716
        },
        {
          "name": "C4",
          "midi": 60,
          "time": 51.599999999999945,
          "velocity": 0.23622047244094488,
          "duration": 0.29999999999999716
        },
        {
          "name": "F#3",
          "midi": 54,
          "time": 51.599999999999945,
          "velocity": 0.23622047244094488,
          "duration": 0.29999999999999716
        },
        {
          "name": "F#4",
          "midi": 66,
          "time": 51.89999999999994,
          "velocity": 0.28346456692913385,
          "duration": 0.2875000000000014
        },
        {
          "name": "C5",
          "midi": 72,
          "time": 51.89999999999994,
          "velocity": 0.28346456692913385,
          "duration": 0.30000000000000426
        },
        {
          "name": "D#5",
          "midi": 75,
          "time": 51.89999999999994,
          "velocity": 0.28346456692913385,
          "duration": 0.2875000000000014
        },
        {
          "name": "F#5",
          "midi": 78,
          "time": 51.89999999999994,
          "velocity": 0.30708661417322836,
          "duration": 0.2875000000000014
        },
        {
          "name": "D#4",
          "midi": 63,
          "time": 51.89999999999994,
          "velocity": 0.23622047244094488,
          "duration": 0.2875000000000014
        },
        {
          "name": "C4",
          "midi": 60,
          "time": 51.89999999999994,
          "velocity": 0.23622047244094488,
          "duration": 0.2875000000000014
        },
        {
          "name": "F#3",
          "midi": 54,
          "time": 51.89999999999994,
          "velocity": 0.23622047244094488,
          "duration": 0.2875000000000014
        },
        {
          "name": "D#5",
          "midi": 75,
          "time": 52.199999999999946,
          "velocity": 0.30708661417322836,
          "duration": 0.29999999999999716
        },
        {
          "name": "F#5",
          "midi": 78,
          "time": 52.199999999999946,
          "velocity": 0.33070866141732286,
          "duration": 0.29999999999999716
        },
        {
          "name": "F#4",
          "midi": 66,
          "time": 52.199999999999946,
          "velocity": 0.30708661417322836,
          "duration": 0.29999999999999716
        },
        {
          "name": "C5",
          "midi": 72,
          "time": 52.199999999999946,
          "velocity": 0.30708661417322836,
          "duration": 0.29999999999999716
        },
        {
          "name": "D#4",
          "midi": 63,
          "time": 52.199999999999946,
          "velocity": 0.25984251968503935,
          "duration": 0.29999999999999716
        },
        {
          "name": "C4",
          "midi": 60,
          "time": 52.199999999999946,
          "velocity": 0.25984251968503935,
          "duration": 0.29999999999999716
        },
        {
          "name": "F#3",
          "midi": 54,
          "time": 52.199999999999946,
          "velocity": 0.25984251968503935,
          "duration": 0.29999999999999716
        },
        {
          "name": "C5",
          "midi": 72,
          "time": 52.49999999999994,
          "velocity": 0.29133858267716534,
          "duration": 0.2749999999999986
        },
        {
          "name": "D#5",
          "midi": 75,
          "time": 52.49999999999994,
          "velocity": 0.29133858267716534,
          "duration": 0.2749999999999986
        },
        {
          "name": "F#5",
          "midi": 78,
          "time": 52.49999999999994,
          "velocity": 0.31496062992125984,
          "duration": 0.2749999999999986
        },
        {
          "name": "F#4",
          "midi": 66,
          "time": 52.49999999999994,
          "velocity": 0.29133858267716534,
          "duration": 0.2749999999999986
        },
        {
          "name": "D#4",
          "midi": 63,
          "time": 52.49999999999994,
          "velocity": 0.2440944881889764,
          "duration": 0.2749999999999986
        },
        {
          "name": "C4",
          "midi": 60,
          "time": 52.49999999999994,
          "velocity": 0.2440944881889764,
          "duration": 0.2749999999999986
        },
        {
          "name": "F#3",
          "midi": 54,
          "time": 52.49999999999994,
          "velocity": 0.2440944881889764,
          "duration": 0.2749999999999986
        },
        {
          "name": "G#5",
          "midi": 80,
          "time": 52.79999999999994,
          "velocity": 0.3464566929133858,
          "duration": 0.29999999999999716
        },
        {
          "name": "C5",
          "midi": 72,
          "time": 52.79999999999994,
          "velocity": 0.31496062992125984,
          "duration": 0.29999999999999716
        },
        {
          "name": "G#4",
          "midi": 68,
          "time": 52.79999999999994,
          "velocity": 0.31496062992125984,
          "duration": 0.29999999999999716
        },
        {
          "name": "D#5",
          "midi": 75,
          "time": 52.79999999999994,
          "velocity": 0.31496062992125984,
          "duration": 0.29999999999999716
        },
        {
          "name": "G#3",
          "midi": 56,
          "time": 52.79999999999994,
          "velocity": 0.2677165354330709,
          "duration": 0.29999999999999716
        },
        {
          "name": "C4",
          "midi": 60,
          "time": 52.79999999999994,
          "velocity": 0.2677165354330709,
          "duration": 0.29999999999999716
        },
        {
          "name": "D#4",
          "midi": 63,
          "time": 52.79999999999994,
          "velocity": 0.2677165354330709,
          "duration": 0.29999999999999716
        },
        {
          "name": "F#4",
          "midi": 66,
          "time": 53.09999999999994,
          "velocity": 0.30708661417322836,
          "duration": 0.8999999999999986
        },
        {
          "name": "F#5",
          "midi": 78,
          "time": 53.09999999999994,
          "velocity": 0.33070866141732286,
          "duration": 0.8999999999999986
        },
        {
          "name": "C5",
          "midi": 72,
          "time": 53.09999999999994,
          "velocity": 0.30708661417322836,
          "duration": 0.8999999999999986
        },
        {
          "name": "D#5",
          "midi": 75,
          "time": 53.09999999999994,
          "velocity": 0.30708661417322836,
          "duration": 0.8999999999999986
        },
        {
          "name": "F#3",
          "midi": 54,
          "time": 53.09999999999994,
          "velocity": 0.25984251968503935,
          "duration": 0.8999999999999986
        },
        {
          "name": "C4",
          "midi": 60,
          "time": 53.09999999999994,
          "velocity": 0.25984251968503935,
          "duration": 0.8999999999999986
        },
        {
          "name": "D#4",
          "midi": 63,
          "time": 53.09999999999994,
          "velocity": 0.25984251968503935,
          "duration": 0.8999999999999986
        },
        {
          "name": "A#1",
          "midi": 34,
          "time": 53.999999999999936,
          "velocity": 0.30708661417322836,
          "duration": 1.7999999999999972
        },
        {
          "name": "A#2",
          "midi": 46,
          "time": 53.999999999999936,
          "velocity": 0.36220472440944884,
          "duration": 1.7999999999999972
        },
        {
          "name": "F#4",
          "midi": 66,
          "time": 54.44999999999993,
          "velocity": 0.3228346456692913,
          "duration": 0.45000000000000284
        },
        {
          "name": "F#5",
          "midi": 78,
          "time": 54.44999999999993,
          "velocity": 0.41732283464566927,
          "duration": 0.45000000000000284
        },
        {
          "name": "C#5",
          "midi": 73,
          "time": 54.44999999999993,
          "velocity": 0.3543307086614173,
          "duration": 0.8999999999999986
        },
        {
          "name": "C#4",
          "midi": 61,
          "time": 54.44999999999993,
          "velocity": 0.2992125984251969,
          "duration": 0.8999999999999986
        },
        {
          "name": "A#3",
          "midi": 58,
          "time": 54.44999999999993,
          "velocity": 0.2992125984251969,
          "duration": 0.8999999999999986
        },
        {
          "name": "F#3",
          "midi": 54,
          "time": 54.44999999999993,
          "velocity": 0.31496062992125984,
          "duration": 0.45000000000000284
        },
        {
          "name": "G#4",
          "midi": 68,
          "time": 54.899999999999935,
          "velocity": 0.4330708661417323,
          "duration": 0.44999999999999574
        },
        {
          "name": "G#5",
          "midi": 80,
          "time": 54.899999999999935,
          "velocity": 0.47244094488188976,
          "duration": 0.44999999999999574
        },
        {
          "name": "G#3",
          "midi": 56,
          "time": 54.899999999999935,
          "velocity": 0.3543307086614173,
          "duration": 0.44999999999999574
        },
        {
          "name": "C#6",
          "midi": 85,
          "time": 55.34999999999993,
          "velocity": 0.47244094488188976,
          "duration": 0.45000000000000284
        },
        {
          "name": "C#5",
          "midi": 73,
          "time": 55.34999999999993,
          "velocity": 0.4330708661417323,
          "duration": 0.45000000000000284
        },
        {
          "name": "C#4",
          "midi": 61,
          "time": 55.34999999999993,
          "velocity": 0.3464566929133858,
          "duration": 0.45000000000000284
        },
        {
          "name": "A#4",
          "midi": 70,
          "time": 55.79999999999993,
          "velocity": 0.3464566929133858,
          "duration": 0.45000000000000284
        },
        {
          "name": "A#5",
          "midi": 82,
          "time": 55.79999999999993,
          "velocity": 0.44881889763779526,
          "duration": 0.45000000000000284
        },
        {
          "name": "F#5",
          "midi": 78,
          "time": 55.79999999999993,
          "velocity": 0.4094488188976378,
          "duration": 0.9000000000000057
        },
        {
          "name": "F#4",
          "midi": 66,
          "time": 55.79999999999993,
          "velocity": 0.33858267716535434,
          "duration": 0.9000000000000057
        },
        {
          "name": "C#4",
          "midi": 61,
          "time": 55.79999999999993,
          "velocity": 0.33858267716535434,
          "duration": 0.9000000000000057
        },
        {
          "name": "A#3",
          "midi": 58,
          "time": 55.79999999999993,
          "velocity": 0.33858267716535434,
          "duration": 0.45000000000000284
        },
        {
          "name": "F#5",
          "midi": 78,
          "time": 56.249999999999936,
          "velocity": 0.4094488188976378,
          "duration": 0.45000000000000284
        },
        {
          "name": "F#4",
          "midi": 66,
          "time": 56.249999999999936,
          "velocity": 0.3779527559055118,
          "duration": 0.45000000000000284
        },
        {
          "name": "F#3",
          "midi": 54,
          "time": 56.249999999999936,
          "velocity": 0.3228346456692913,
          "duration": 0.45000000000000284
        },
        {
          "name": "C2",
          "midi": 36,
          "time": 56.69999999999994,
          "velocity": 0.2992125984251969,
          "duration": 1.79999999999999
        },
        {
          "name": "C3",
          "midi": 48,
          "time": 56.69999999999994,
          "velocity": 0.3543307086614173,
          "duration": 1.79999999999999
        },
        {
          "name": "A#4",
          "midi": 70,
          "time": 56.999999999999936,
          "velocity": 0.30708661417322836,
          "duration": 0.29999999999999716
        },
        {
          "name": "F#4",
          "midi": 66,
          "time": 56.999999999999936,
          "velocity": 0.30708661417322836,
          "duration": 0.29999999999999716
        },
        {
          "name": "D#5",
          "midi": 75,
          "time": 56.999999999999936,
          "velocity": 0.30708661417322836,
          "duration": 0.29999999999999716
        },
        {
          "name": "F#5",
          "midi": 78,
          "time": 56.999999999999936,
          "velocity": 0.33070866141732286,
          "duration": 0.29999999999999716
        },
        {
          "name": "D#4",
          "midi": 63,
          "time": 56.999999999999936,
          "velocity": 0.25984251968503935,
          "duration": 0.29999999999999716
        },
        {
          "name": "A#3",
          "midi": 58,
          "time": 56.999999999999936,
          "velocity": 0.25984251968503935,
          "duration": 0.29999999999999716
        },
        {
          "name": "F#3",
          "midi": 54,
          "time": 56.999999999999936,
          "velocity": 0.25984251968503935,
          "duration": 0.29999999999999716
        },
        {
          "name": "A#4",
          "midi": 70,
          "time": 57.29999999999993,
          "velocity": 0.30708661417322836,
          "duration": 0.30000000000000426
        },
        {
          "name": "D#5",
          "midi": 75,
          "time": 57.29999999999993,
          "velocity": 0.30708661417322836,
          "duration": 0.2875000000000014
        },
        {
          "name": "F#4",
          "midi": 66,
          "time": 57.29999999999993,
          "velocity": 0.30708661417322836,
          "duration": 0.2875000000000014
        },
        {
          "name": "F#5",
          "midi": 78,
          "time": 57.29999999999993,
          "velocity": 0.33070866141732286,
          "duration": 0.2875000000000014
        },
        {
          "name": "D#4",
          "midi": 63,
          "time": 57.29999999999993,
          "velocity": 0.25984251968503935,
          "duration": 0.2875000000000014
        },
        {
          "name": "A#3",
          "midi": 58,
          "time": 57.29999999999993,
          "velocity": 0.25984251968503935,
          "duration": 0.2875000000000014
        },
        {
          "name": "F#3",
          "midi": 54,
          "time": 57.29999999999993,
          "velocity": 0.25984251968503935,
          "duration": 0.2875000000000014
        },
        {
          "name": "A#4",
          "midi": 70,
          "time": 57.59999999999994,
          "velocity": 0.33070866141732286,
          "duration": 0.29999999999999716
        },
        {
          "name": "F#5",
          "midi": 78,
          "time": 57.59999999999994,
          "velocity": 0.36220472440944884,
          "duration": 0.29999999999999716
        },
        {
          "name": "F#4",
          "midi": 66,
          "time": 57.59999999999994,
          "velocity": 0.33070866141732286,
          "duration": 0.29999999999999716
        },
        {
          "name": "D#5",
          "midi": 75,
          "time": 57.59999999999994,
          "velocity": 0.33070866141732286,
          "duration": 0.29999999999999716
        },
        {
          "name": "D#4",
          "midi": 63,
          "time": 57.59999999999994,
          "velocity": 0.2755905511811024,
          "duration": 0.29999999999999716
        },
        {
          "name": "A#3",
          "midi": 58,
          "time": 57.59999999999994,
          "velocity": 0.2755905511811024,
          "duration": 0.29999999999999716
        },
        {
          "name": "F#3",
          "midi": 54,
          "time": 57.59999999999994,
          "velocity": 0.2755905511811024,
          "duration": 0.29999999999999716
        },
        {
          "name": "F#4",
          "midi": 66,
          "time": 57.899999999999935,
          "velocity": 0.31496062992125984,
          "duration": 0.2749999999999986
        },
        {
          "name": "A#4",
          "midi": 70,
          "time": 57.899999999999935,
          "velocity": 0.31496062992125984,
          "duration": 0.2749999999999986
        },
        {
          "name": "D#5",
          "midi": 75,
          "time": 57.899999999999935,
          "velocity": 0.31496062992125984,
          "duration": 0.2749999999999986
        },
        {
          "name": "F#5",
          "midi": 78,
          "time": 57.899999999999935,
          "velocity": 0.3464566929133858,
          "duration": 0.2749999999999986
        },
        {
          "name": "D#4",
          "midi": 63,
          "time": 57.899999999999935,
          "velocity": 0.2677165354330709,
          "duration": 0.2749999999999986
        },
        {
          "name": "A#3",
          "midi": 58,
          "time": 57.899999999999935,
          "velocity": 0.2677165354330709,
          "duration": 0.2749999999999986
        },
        {
          "name": "F#3",
          "midi": 54,
          "time": 57.899999999999935,
          "velocity": 0.2677165354330709,
          "duration": 0.2749999999999986
        },
        {
          "name": "C5",
          "midi": 72,
          "time": 58.19999999999993,
          "velocity": 0.33858267716535434,
          "duration": 0.29999999999999716
        },
        {
          "name": "G#4",
          "midi": 68,
          "time": 58.19999999999993,
          "velocity": 0.33858267716535434,
          "duration": 0.29999999999999716
        },
        {
          "name": "G#5",
          "midi": 80,
          "time": 58.19999999999993,
          "velocity": 0.3700787401574803,
          "duration": 0.29999999999999716
        },
        {
          "name": "F5",
          "midi": 77,
          "time": 58.19999999999993,
          "velocity": 0.33858267716535434,
          "duration": 0.29999999999999716
        },
        {
          "name": "G#3",
          "midi": 56,
          "time": 58.19999999999993,
          "velocity": 0.28346456692913385,
          "duration": 0.29999999999999716
        },
        {
          "name": "C4",
          "midi": 60,
          "time": 58.19999999999993,
          "velocity": 0.28346456692913385,
          "duration": 0.29999999999999716
        },
        {
          "name": "F4",
          "midi": 65,
          "time": 58.19999999999993,
          "velocity": 0.28346456692913385,
          "duration": 0.29999999999999716
        },
        {
          "name": "A#4",
          "midi": 70,
          "time": 58.49999999999993,
          "velocity": 0.33070866141732286,
          "duration": 0.8999999999999986
        },
        {
          "name": "D#5",
          "midi": 75,
          "time": 58.49999999999993,
          "velocity": 0.33070866141732286,
          "duration": 0.8999999999999986
        },
        {
          "name": "F#5",
          "midi": 78,
          "time": 58.49999999999993,
          "velocity": 0.36220472440944884,
          "duration": 0.8999999999999986
        },
        {
          "name": "F#4",
          "midi": 66,
          "time": 58.49999999999993,
          "velocity": 0.33070866141732286,
          "duration": 0.8999999999999986
        },
        {
          "name": "F#3",
          "midi": 54,
          "time": 58.49999999999993,
          "velocity": 0.2755905511811024,
          "duration": 0.8999999999999986
        },
        {
          "name": "A#3",
          "midi": 58,
          "time": 58.49999999999993,
          "velocity": 0.2755905511811024,
          "duration": 0.8999999999999986
        },
        {
          "name": "D#4",
          "midi": 63,
          "time": 58.49999999999993,
          "velocity": 0.2755905511811024,
          "duration": 0.8999999999999986
        },
        {
          "name": "C#2",
          "midi": 37,
          "time": 59.39999999999993,
          "velocity": 0.33858267716535434,
          "duration": 1.7999999999999972
        },
        {
          "name": "C#3",
          "midi": 49,
          "time": 59.39999999999993,
          "velocity": 0.4015748031496063,
          "duration": 1.7999999999999972
        },
        {
          "name": "F#5",
          "midi": 78,
          "time": 59.84999999999992,
          "velocity": 0.48031496062992124,
          "duration": 0.45000000000000284
        },
        {
          "name": "C#5",
          "midi": 73,
          "time": 59.84999999999992,
          "velocity": 0.3858267716535433,
          "duration": 0.8999999999999986
        },
        {
          "name": "A#4",
          "midi": 70,
          "time": 59.84999999999992,
          "velocity": 0.3858267716535433,
          "duration": 0.8999999999999986
        },
        {
          "name": "F#4",
          "midi": 66,
          "time": 59.84999999999992,
          "velocity": 0.4251968503937008,
          "duration": 0.45000000000000284
        },
        {
          "name": "C#4",
          "midi": 61,
          "time": 59.84999999999992,
          "velocity": 0.3228346456692913,
          "duration": 0.8999999999999986
        },
        {
          "name": "A#3",
          "midi": 58,
          "time": 59.84999999999992,
          "velocity": 0.3228346456692913,
          "duration": 0.8999999999999986
        },
        {
          "name": "F#3",
          "midi": 54,
          "time": 59.84999999999992,
          "velocity": 0.3464566929133858,
          "duration": 0.45000000000000284
        },
        {
          "name": "G#4",
          "midi": 68,
          "time": 60.299999999999926,
          "velocity": 0.48031496062992124,
          "duration": 0.44999999999999574
        },
        {
          "name": "G#5",
          "midi": 80,
          "time": 60.299999999999926,
          "velocity": 0.5511811023622047,
          "duration": 0.44999999999999574
        },
        {
          "name": "G#3",
          "midi": 56,
          "time": 60.299999999999926,
          "velocity": 0.3858267716535433,
          "duration": 0.44999999999999574
        },
        {
          "name": "D#6",
          "midi": 87,
          "time": 60.74999999999992,
          "velocity": 0.5590551181102362,
          "duration": 0.45000000000000284
        },
        {
          "name": "D#5",
          "midi": 75,
          "time": 60.74999999999992,
          "velocity": 0.4881889763779528,
          "duration": 0.45000000000000284
        },
        {
          "name": "D#4",
          "midi": 63,
          "time": 60.74999999999992,
          "velocity": 0.4015748031496063,
          "duration": 0.45000000000000284
        },
        {
          "name": "C#5",
          "midi": 73,
          "time": 61.199999999999925,
          "velocity": 0.3779527559055118,
          "duration": 0.44999999999999574
        },
        {
          "name": "F#5",
          "midi": 78,
          "time": 61.199999999999925,
          "velocity": 0.3858267716535433,
          "duration": 0.8999999999999986
        },
        {
          "name": "A#5",
          "midi": 82,
          "time": 61.199999999999925,
          "velocity": 0.3858267716535433,
          "duration": 0.8999999999999986
        },
        {
          "name": "C#6",
          "midi": 85,
          "time": 61.199999999999925,
          "velocity": 0.5118110236220472,
          "duration": 0.44999999999999574
        },
        {
          "name": "A#4",
          "midi": 70,
          "time": 61.199999999999925,
          "velocity": 0.3700787401574803,
          "duration": 0.8999999999999986
        },
        {
          "name": "F#4",
          "midi": 66,
          "time": 61.199999999999925,
          "velocity": 0.3700787401574803,
          "duration": 0.8999999999999986
        },
        {
          "name": "C#4",
          "midi": 61,
          "time": 61.199999999999925,
          "velocity": 0.3700787401574803,
          "duration": 0.44999999999999574
        },
        {
          "name": "A#4",
          "midi": 70,
          "time": 61.64999999999992,
          "velocity": 0.44881889763779526,
          "duration": 0.45000000000000284
        },
        {
          "name": "A#5",
          "midi": 82,
          "time": 61.64999999999992,
          "velocity": 0.5118110236220472,
          "duration": 0.45000000000000284
        },
        {
          "name": "A#3",
          "midi": 58,
          "time": 61.64999999999992,
          "velocity": 0.3858267716535433,
          "duration": 0.45000000000000284
        },
        {
          "name": "D#2",
          "midi": 39,
          "time": 62.09999999999992,
          "velocity": 0.3228346456692913,
          "duration": 1.79999999999999
        },
        {
          "name": "D#3",
          "midi": 51,
          "time": 62.09999999999992,
          "velocity": 0.3858267716535433,
          "duration": 1.79999999999999
        },
        {
          "name": "A#5",
          "midi": 82,
          "time": 62.39999999999992,
          "velocity": 0.3937007874015748,
          "duration": 0.29999999999999716
        },
        {
          "name": "A#4",
          "midi": 70,
          "time": 62.39999999999992,
          "velocity": 0.3779527559055118,
          "duration": 0.29999999999999716
        },
        {
          "name": "F#5",
          "midi": 78,
          "time": 62.39999999999992,
          "velocity": 0.3779527559055118,
          "duration": 0.29999999999999716
        },
        {
          "name": "D#4",
          "midi": 63,
          "time": 62.39999999999992,
          "velocity": 0.31496062992125984,
          "duration": 0.29999999999999716
        },
        {
          "name": "A#3",
          "midi": 58,
          "time": 62.39999999999992,
          "velocity": 0.31496062992125984,
          "duration": 0.29999999999999716
        },
        {
          "name": "F#3",
          "midi": 54,
          "time": 62.39999999999992,
          "velocity": 0.31496062992125984,
          "duration": 0.29999999999999716
        },
        {
          "name": "A#5",
          "midi": 82,
          "time": 62.69999999999992,
          "velocity": 0.3937007874015748,
          "duration": 0.2875000000000014
        },
        {
          "name": "F#5",
          "midi": 78,
          "time": 62.69999999999992,
          "velocity": 0.3779527559055118,
          "duration": 0.2875000000000014
        },
        {
          "name": "A#4",
          "midi": 70,
          "time": 62.69999999999992,
          "velocity": 0.3779527559055118,
          "duration": 0.30000000000000426
        },
        {
          "name": "D#4",
          "midi": 63,
          "time": 62.69999999999992,
          "velocity": 0.31496062992125984,
          "duration": 0.2875000000000014
        },
        {
          "name": "A#3",
          "midi": 58,
          "time": 62.69999999999992,
          "velocity": 0.31496062992125984,
          "duration": 0.2875000000000014
        },
        {
          "name": "F#3",
          "midi": 54,
          "time": 62.69999999999992,
          "velocity": 0.31496062992125984,
          "duration": 0.2875000000000014
        },
        {
          "name": "A#5",
          "midi": 82,
          "time": 62.99999999999992,
          "velocity": 0.41732283464566927,
          "duration": 0.29999999999999716
        },
        {
          "name": "A#4",
          "midi": 70,
          "time": 62.99999999999992,
          "velocity": 0.4015748031496063,
          "duration": 0.29999999999999716
        },
        {
          "name": "F#5",
          "midi": 78,
          "time": 62.99999999999992,
          "velocity": 0.4015748031496063,
          "duration": 0.29999999999999716
        },
        {
          "name": "D#4",
          "midi": 63,
          "time": 62.99999999999992,
          "velocity": 0.33858267716535434,
          "duration": 0.29999999999999716
        },
        {
          "name": "A#3",
          "midi": 58,
          "time": 62.99999999999992,
          "velocity": 0.33858267716535434,
          "duration": 0.29999999999999716
        },
        {
          "name": "F#3",
          "midi": 54,
          "time": 62.99999999999992,
          "velocity": 0.33858267716535434,
          "duration": 0.29999999999999716
        },
        {
          "name": "A#4",
          "midi": 70,
          "time": 63.29999999999992,
          "velocity": 0.3858267716535433,
          "duration": 0.2749999999999986
        },
        {
          "name": "A#5",
          "midi": 82,
          "time": 63.29999999999992,
          "velocity": 0.4015748031496063,
          "duration": 0.2749999999999986
        },
        {
          "name": "F#5",
          "midi": 78,
          "time": 63.29999999999992,
          "velocity": 0.3858267716535433,
          "duration": 0.2749999999999986
        },
        {
          "name": "D#4",
          "midi": 63,
          "time": 63.29999999999992,
          "velocity": 0.3228346456692913,
          "duration": 0.2749999999999986
        },
        {
          "name": "A#3",
          "midi": 58,
          "time": 63.29999999999992,
          "velocity": 0.3228346456692913,
          "duration": 0.2749999999999986
        },
        {
          "name": "F#3",
          "midi": 54,
          "time": 63.29999999999992,
          "velocity": 0.3228346456692913,
          "duration": 0.2749999999999986
        },
        {
          "name": "G#5",
          "midi": 80,
          "time": 63.599999999999916,
          "velocity": 0.3937007874015748,
          "duration": 0.29999999999999716
        },
        {
          "name": "C5",
          "midi": 72,
          "time": 63.599999999999916,
          "velocity": 0.3937007874015748,
          "duration": 0.29999999999999716
        },
        {
          "name": "C6",
          "midi": 84,
          "time": 63.599999999999916,
          "velocity": 0.4094488188976378,
          "duration": 0.29999999999999716
        },
        {
          "name": "G#3",
          "midi": 56,
          "time": 63.599999999999916,
          "velocity": 0.33070866141732286,
          "duration": 0.29999999999999716
        },
        {
          "name": "C4",
          "midi": 60,
          "time": 63.599999999999916,
          "velocity": 0.33070866141732286,
          "duration": 0.29999999999999716
        },
        {
          "name": "F4",
          "midi": 65,
          "time": 63.599999999999916,
          "velocity": 0.33070866141732286,
          "duration": 0.29999999999999716
        },
        {
          "name": "F#5",
          "midi": 78,
          "time": 63.89999999999991,
          "velocity": 0.3937007874015748,
          "duration": 0.2749999999999986
        },
        {
          "name": "A#4",
          "midi": 70,
          "time": 63.89999999999991,
          "velocity": 0.3937007874015748,
          "duration": 0.2749999999999986
        },
        {
          "name": "A#5",
          "midi": 82,
          "time": 63.89999999999991,
          "velocity": 0.4094488188976378,
          "duration": 0.2749999999999986
        },
        {
          "name": "D#4",
          "midi": 63,
          "time": 63.89999999999991,
          "velocity": 0.33070866141732286,
          "duration": 0.2749999999999986
        },
        {
          "name": "A#3",
          "midi": 58,
          "time": 63.89999999999991,
          "velocity": 0.33070866141732286,
          "duration": 0.2749999999999986
        },
        {
          "name": "F#3",
          "midi": 54,
          "time": 63.89999999999991,
          "velocity": 0.33070866141732286,
          "duration": 0.2749999999999986
        },
        {
          "name": "A#5",
          "midi": 82,
          "time": 64.19999999999992,
          "velocity": 0.4015748031496063,
          "duration": 0.29999999999999716
        },
        {
          "name": "C#5",
          "midi": 73,
          "time": 64.19999999999992,
          "velocity": 0.4015748031496063,
          "duration": 0.29999999999999716
        },
        {
          "name": "C#6",
          "midi": 85,
          "time": 64.19999999999992,
          "velocity": 0.41732283464566927,
          "duration": 0.29999999999999716
        },
        {
          "name": "C#4",
          "midi": 61,
          "time": 64.19999999999992,
          "velocity": 0.33858267716535434,
          "duration": 0.29999999999999716
        },
        {
          "name": "F#4",
          "midi": 66,
          "time": 64.19999999999992,
          "velocity": 0.33858267716535434,
          "duration": 0.29999999999999716
        },
        {
          "name": "A#4",
          "midi": 70,
          "time": 64.19999999999992,
          "velocity": 0.33858267716535434,
          "duration": 0.29999999999999716
        },
        {
          "name": "D#6",
          "midi": 87,
          "time": 64.49999999999991,
          "velocity": 0.44881889763779526,
          "duration": 0.15000000000000568
        },
        {
          "name": "D#5",
          "midi": 75,
          "time": 64.49999999999991,
          "velocity": 0.4330708661417323,
          "duration": 0.15000000000000568
        },
        {
          "name": "A#5",
          "midi": 82,
          "time": 64.49999999999991,
          "velocity": 0.4330708661417323,
          "duration": 0.15000000000000568
        },
        {
          "name": "D#4",
          "midi": 63,
          "time": 64.49999999999991,
          "velocity": 0.3543307086614173,
          "duration": 0.15000000000000568
        },
        {
          "name": "F#4",
          "midi": 66,
          "time": 64.49999999999991,
          "velocity": 0.3543307086614173,
          "duration": 0.15000000000000568
        },
        {
          "name": "A#4",
          "midi": 70,
          "time": 64.49999999999991,
          "velocity": 0.3543307086614173,
          "duration": 0.15000000000000568
        },
        {
          "name": "F4",
          "midi": 65,
          "time": 64.64999999999992,
          "velocity": 0.2992125984251969,
          "duration": 1.8000000000000114
        },
        {
          "name": "G#4",
          "midi": 68,
          "time": 64.67499999999991,
          "velocity": 0.30708661417322836,
          "duration": 1.77500000000002
        },
        {
          "name": "C#5",
          "midi": 73,
          "time": 64.69999999999992,
          "velocity": 0.31496062992125984,
          "duration": 1.7500000000000142
        },
        {
          "name": "F5",
          "midi": 77,
          "time": 64.72499999999992,
          "velocity": 0.33070866141732286,
          "duration": 1.7250000000000085
        },
        {
          "name": "G#5",
          "midi": 80,
          "time": 64.74999999999991,
          "velocity": 0.4015748031496063,
          "duration": 1.700000000000017
        },
        {
          "name": "C#6",
          "midi": 85,
          "time": 64.77499999999992,
          "velocity": 0.4409448818897638,
          "duration": 1.6750000000000114
        },
        {
          "name": "G#6",
          "midi": 92,
          "time": 64.79999999999993,
          "velocity": 0.5118110236220472,
          "duration": 1.6500000000000057
        },
        {
          "name": "E4",
          "midi": 64,
          "time": 66.44999999999993,
          "velocity": 0.25984251968503935,
          "duration": 0.899999999999963
        },
        {
          "name": "G#4",
          "midi": 68,
          "time": 66.47124999999993,
          "velocity": 0.2677165354330709,
          "duration": 0.8787499999999682
        },
        {
          "name": "A#4",
          "midi": 70,
          "time": 66.49249999999992,
          "velocity": 0.2677165354330709,
          "duration": 0.8574999999999733
        },
        {
          "name": "C#5",
          "midi": 73,
          "time": 66.51374999999992,
          "velocity": 0.28346456692913385,
          "duration": 0.8362499999999784
        },
        {
          "name": "E5",
          "midi": 76,
          "time": 66.53499999999991,
          "velocity": 0.29133858267716534,
          "duration": 0.8149999999999835
        },
        {
          "name": "G#5",
          "midi": 80,
          "time": 66.5562499999999,
          "velocity": 0.3543307086614173,
          "duration": 0.7937499999999886
        },
        {
          "name": "C#6",
          "midi": 85,
          "time": 66.5774999999999,
          "velocity": 0.3937007874015748,
          "duration": 0.7724999999999937
        },
        {
          "name": "G#6",
          "midi": 92,
          "time": 66.5999999999999,
          "velocity": 0.4330708661417323,
          "duration": 0.75
        },
        {
          "name": "D#4",
          "midi": 63,
          "time": 67.3499999999999,
          "velocity": 0.25984251968503935,
          "duration": 1.7999999999999687
        },
        {
          "name": "F#4",
          "midi": 66,
          "time": 67.37124999999989,
          "velocity": 0.2677165354330709,
          "duration": 1.7787499999999739
        },
        {
          "name": "G#4",
          "midi": 68,
          "time": 67.39249999999988,
          "velocity": 0.2677165354330709,
          "duration": 1.757499999999979
        },
        {
          "name": "C#5",
          "midi": 73,
          "time": 67.41374999999988,
          "velocity": 0.28346456692913385,
          "duration": 1.736249999999984
        },
        {
          "name": "D#5",
          "midi": 75,
          "time": 67.43499999999987,
          "velocity": 0.29133858267716534,
          "duration": 1.7149999999999892
        },
        {
          "name": "G#5",
          "midi": 80,
          "time": 67.45624999999987,
          "velocity": 0.3543307086614173,
          "duration": 1.6937499999999943
        },
        {
          "name": "C#6",
          "midi": 85,
          "time": 67.47749999999986,
          "velocity": 0.3937007874015748,
          "duration": 1.6724999999999994
        },
        {
          "name": "G#6",
          "midi": 92,
          "time": 67.49999999999986,
          "velocity": 0.4330708661417323,
          "duration": 1.6500000000000057
        },
        {
          "name": "G#3",
          "midi": 56,
          "time": 69.14999999999986,
          "velocity": 0.2125984251968504,
          "duration": 1.0500000000000114
        },
        {
          "name": "D#4",
          "midi": 63,
          "time": 69.17499999999987,
          "velocity": 0.2204724409448819,
          "duration": 1.0250000000000057
        },
        {
          "name": "F#4",
          "midi": 66,
          "time": 69.19999999999986,
          "velocity": 0.23622047244094488,
          "duration": 1.0000000000000142
        },
        {
          "name": "C5",
          "midi": 72,
          "time": 69.22499999999987,
          "velocity": 0.2440944881889764,
          "duration": 0.9750000000000085
        },
        {
          "name": "G#4",
          "midi": 68,
          "time": 69.24999999999987,
          "velocity": 0.25196850393700787,
          "duration": 0.9500000000000028
        },
        {
          "name": "D#5",
          "midi": 75,
          "time": 69.27499999999988,
          "velocity": 0.25984251968503935,
          "duration": 0.9249999999999972
        },
        {
          "name": "G#5",
          "midi": 80,
          "time": 69.29999999999988,
          "velocity": 0.30708661417322836,
          "duration": 0.8999999999999915
        },
        {
          "name": "G#4",
          "midi": 68,
          "time": 70.19999999999987,
          "velocity": 0.31496062992125984,
          "duration": 1.8000000000000682
        },
        {
          "name": "F4",
          "midi": 65,
          "time": 70.19999999999987,
          "velocity": 0.29133858267716534,
          "duration": 1.8000000000000682
        },
        {
          "name": "C#2",
          "midi": 37,
          "time": 70.19999999999987,
          "velocity": 0.25196850393700787,
          "duration": 0.45000000000001705
        },
        {
          "name": "G#2",
          "midi": 44,
          "time": 70.34999999999988,
          "velocity": 0.23622047244094488,
          "duration": 0.15000000000000568
        },
        {
          "name": "C#3",
          "midi": 49,
          "time": 70.49999999999989,
          "velocity": 0.23622047244094488,
          "duration": 0.15000000000000568
        },
        {
          "name": "F3",
          "midi": 53,
          "time": 70.64999999999989,
          "velocity": 0.23622047244094488,
          "duration": 0.15000000000000568
        },
        {
          "name": "G#3",
          "midi": 56,
          "time": 70.7999999999999,
          "velocity": 0.23622047244094488,
          "duration": 0.15000000000000568
        },
        {
          "name": "C#4",
          "midi": 61,
          "time": 70.9499999999999,
          "velocity": 0.23622047244094488,
          "duration": 0.15000000000000568
        },
        {
          "name": "F2",
          "midi": 41,
          "time": 71.09999999999991,
          "velocity": 0.25984251968503935,
          "duration": 0.45000000000001705
        },
        {
          "name": "C3",
          "midi": 48,
          "time": 71.24999999999991,
          "velocity": 0.2047244094488189,
          "duration": 0.15000000000000568
        },
        {
          "name": "F3",
          "midi": 53,
          "time": 71.39999999999992,
          "velocity": 0.2125984251968504,
          "duration": 0.15000000000000568
        },
        {
          "name": "G#3",
          "midi": 56,
          "time": 71.54999999999993,
          "velocity": 0.2204724409448819,
          "duration": 0.15000000000000568
        },
        {
          "name": "C4",
          "midi": 60,
          "time": 71.69999999999993,
          "velocity": 0.23622047244094488,
          "duration": 0.15000000000000568
        },
        {
          "name": "F4",
          "midi": 65,
          "time": 71.84999999999994,
          "velocity": 0.2440944881889764,
          "duration": 0.15000000000000568
        },
        {
          "name": "G#4",
          "midi": 68,
          "time": 71.99999999999994,
          "velocity": 0.28346456692913385,
          "duration": 0.8975000000000222
        },
        {
          "name": "B4",
          "midi": 71,
          "time": 71.99999999999994,
          "velocity": 0.30708661417322836,
          "duration": 0.6000000000000227
        },
        {
          "name": "G#2",
          "midi": 44,
          "time": 71.99999999999994,
          "velocity": 0.2677165354330709,
          "duration": 0.45000000000001705
        },
        {
          "name": "E3",
          "midi": 52,
          "time": 72.14999999999995,
          "velocity": 0.25196850393700787,
          "duration": 0.15000000000000568
        },
        {
          "name": "G#3",
          "midi": 56,
          "time": 72.29999999999995,
          "velocity": 0.25196850393700787,
          "duration": 0.15000000000000568
        },
        {
          "name": "B3",
          "midi": 59,
          "time": 72.44999999999996,
          "velocity": 0.25196850393700787,
          "duration": 0.15000000000000568
        },
        {
          "name": "C#5",
          "midi": 73,
          "time": 72.59999999999997,
          "velocity": 0.29133858267716534,
          "duration": 0.29999999999999716
        },
        {
          "name": "E4",
          "midi": 64,
          "time": 72.59999999999997,
          "velocity": 0.25196850393700787,
          "duration": 0.15000000000000568
        },
        {
          "name": "G#4",
          "midi": 68,
          "time": 72.74999999999997,
          "velocity": 0.25196850393700787,
          "duration": 0.14999999999999147
        },
        {
          "name": "F4",
          "midi": 65,
          "time": 72.89999999999996,
          "velocity": 0.29133858267716534,
          "duration": 1.6375000000000597
        },
        {
          "name": "G#4",
          "midi": 68,
          "time": 72.89999999999996,
          "velocity": 0.31496062992125984,
          "duration": 1.8000000000000682
        },
        {
          "name": "C#2",
          "midi": 37,
          "time": 72.89999999999996,
          "velocity": 0.25984251968503935,
          "duration": 0.45000000000001705
        },
        {
          "name": "G#2",
          "midi": 44,
          "time": 73.04999999999997,
          "velocity": 0.23622047244094488,
          "duration": 0.15000000000000568
        },
        {
          "name": "C#3",
          "midi": 49,
          "time": 73.19999999999997,
          "velocity": 0.23622047244094488,
          "duration": 0.15000000000000568
        },
        {
          "name": "F3",
          "midi": 53,
          "time": 73.34999999999998,
          "velocity": 0.23622047244094488,
          "duration": 0.15000000000000568
        },
        {
          "name": "G#3",
          "midi": 56,
          "time": 73.49999999999999,
          "velocity": 0.23622047244094488,
          "duration": 0.15000000000000568
        },
        {
          "name": "C#4",
          "midi": 61,
          "time": 73.64999999999999,
          "velocity": 0.23622047244094488,
          "duration": 0.15000000000000568
        },
        {
          "name": "F2",
          "midi": 41,
          "time": 73.8,
          "velocity": 0.25984251968503935,
          "duration": 0.45000000000001705
        },
        {
          "name": "C3",
          "midi": 48,
          "time": 73.95,
          "velocity": 0.23622047244094488,
          "duration": 0.15000000000000568
        },
        {
          "name": "F3",
          "midi": 53,
          "time": 74.10000000000001,
          "velocity": 0.23622047244094488,
          "duration": 0.15000000000000568
        },
        {
          "name": "G#3",
          "midi": 56,
          "time": 74.25000000000001,
          "velocity": 0.2440944881889764,
          "duration": 0.15000000000000568
        },
        {
          "name": "C4",
          "midi": 60,
          "time": 74.40000000000002,
          "velocity": 0.25196850393700787,
          "duration": 0.15000000000000568
        },
        {
          "name": "F4",
          "midi": 65,
          "time": 74.55000000000003,
          "velocity": 0.25196850393700787,
          "duration": 0.15000000000000568
        },
        {
          "name": "G#4",
          "midi": 68,
          "time": 74.70000000000003,
          "velocity": 0.29133858267716534,
          "duration": 0.6000000000000227
        },
        {
          "name": "B4",
          "midi": 71,
          "time": 74.70000000000003,
          "velocity": 0.31496062992125984,
          "duration": 0.6000000000000227
        },
        {
          "name": "G#2",
          "midi": 44,
          "time": 74.70000000000003,
          "velocity": 0.2677165354330709,
          "duration": 0.45000000000001705
        },
        {
          "name": "E3",
          "midi": 52,
          "time": 74.85000000000004,
          "velocity": 0.25196850393700787,
          "duration": 0.15000000000000568
        },
        {
          "name": "G#3",
          "midi": 56,
          "time": 75.00000000000004,
          "velocity": 0.25196850393700787,
          "duration": 0.15000000000000568
        },
        {
          "name": "B3",
          "midi": 59,
          "time": 75.15000000000005,
          "velocity": 0.25196850393700787,
          "duration": 0.15000000000000568
        },
        {
          "name": "G#4",
          "midi": 68,
          "time": 75.30000000000005,
          "velocity": 0.31496062992125984,
          "duration": 0.30000000000001137
        },
        {
          "name": "E4",
          "midi": 64,
          "time": 75.45000000000006,
          "velocity": 0.25196850393700787,
          "duration": 0.15000000000000568
        },
        {
          "name": "F4",
          "midi": 65,
          "time": 75.60000000000007,
          "velocity": 0.33070866141732286,
          "duration": 0.6000000000000085
        },
        {
          "name": "C#5",
          "midi": 73,
          "time": 75.60000000000007,
          "velocity": 0.36220472440944884,
          "duration": 0.6000000000000085
        },
        {
          "name": "C#2",
          "midi": 37,
          "time": 75.60000000000007,
          "velocity": 0.25984251968503935,
          "duration": 0.14999999999999147
        },
        {
          "name": "G#2",
          "midi": 44,
          "time": 75.75000000000006,
          "velocity": 0.25984251968503935,
          "duration": 0.15000000000000568
        },
        {
          "name": "C#3",
          "midi": 49,
          "time": 75.90000000000006,
          "velocity": 0.25984251968503935,
          "duration": 0.15000000000000568
        },
        {
          "name": "F3",
          "midi": 53,
          "time": 76.05000000000007,
          "velocity": 0.25984251968503935,
          "duration": 0.15000000000000568
        },
        {
          "name": "D#5",
          "midi": 75,
          "time": 76.20000000000007,
          "velocity": 0.3464566929133858,
          "duration": 0.29999999999999716
        },
        {
          "name": "G#4",
          "midi": 68,
          "time": 76.20000000000007,
          "velocity": 0.31496062992125984,
          "duration": 0.29999999999999716
        },
        {
          "name": "G#3",
          "midi": 56,
          "time": 76.20000000000007,
          "velocity": 0.25984251968503935,
          "duration": 0.15000000000000568
        },
        {
          "name": "C#4",
          "midi": 61,
          "time": 76.35000000000008,
          "velocity": 0.25984251968503935,
          "duration": 0.14999999999999147
        },
        {
          "name": "F5",
          "midi": 77,
          "time": 76.50000000000007,
          "velocity": 0.3779527559055118,
          "duration": 0.9000000000000341
        },
        {
          "name": "C#5",
          "midi": 73,
          "time": 76.50000000000007,
          "velocity": 0.3464566929133858,
          "duration": 0.9000000000000341
        },
        {
          "name": "F4",
          "midi": 65,
          "time": 76.50000000000007,
          "velocity": 0.2677165354330709,
          "duration": 0.15000000000000568
        },
        {
          "name": "G#4",
          "midi": 68,
          "time": 76.65000000000008,
          "velocity": 0.2677165354330709,
          "duration": 0.15000000000000568
        },
        {
          "name": "F4",
          "midi": 65,
          "time": 76.80000000000008,
          "velocity": 0.2677165354330709,
          "duration": 0.15000000000000568
        },
        {
          "name": "C#4",
          "midi": 61,
          "time": 76.95000000000009,
          "velocity": 0.2677165354330709,
          "duration": 0.15000000000000568
        },
        {
          "name": "G#3",
          "midi": 56,
          "time": 77.1000000000001,
          "velocity": 0.2677165354330709,
          "duration": 0.15000000000000568
        },
        {
          "name": "F3",
          "midi": 53,
          "time": 77.2500000000001,
          "velocity": 0.28346456692913385,
          "duration": 0.15000000000000568
        },
        {
          "name": "F4",
          "midi": 65,
          "time": 77.4000000000001,
          "velocity": 0.33858267716535434,
          "duration": 0.6000000000000227
        },
        {
          "name": "C#5",
          "midi": 73,
          "time": 77.4000000000001,
          "velocity": 0.3700787401574803,
          "duration": 0.6000000000000227
        },
        {
          "name": "G#3",
          "midi": 56,
          "time": 77.4000000000001,
          "velocity": 0.28346456692913385,
          "duration": 0.15000000000000568
        },
        {
          "name": "F3",
          "midi": 53,
          "time": 77.55000000000011,
          "velocity": 0.28346456692913385,
          "duration": 0.15000000000000568
        },
        {
          "name": "C#3",
          "midi": 49,
          "time": 77.70000000000012,
          "velocity": 0.28346456692913385,
          "duration": 0.15000000000000568
        },
        {
          "name": "G#2",
          "midi": 44,
          "time": 77.85000000000012,
          "velocity": 0.28346456692913385,
          "duration": 0.15000000000000568
        },
        {
          "name": "C#5",
          "midi": 73,
          "time": 78.00000000000013,
          "velocity": 0.3464566929133858,
          "duration": 0.30000000000001137
        },
        {
          "name": "F5",
          "midi": 77,
          "time": 78.00000000000013,
          "velocity": 0.3779527559055118,
          "duration": 0.30000000000001137
        },
        {
          "name": "C#3",
          "midi": 49,
          "time": 78.00000000000013,
          "velocity": 0.28346456692913385,
          "duration": 0.15000000000000568
        },
        {
          "name": "G#2",
          "midi": 44,
          "time": 78.15000000000013,
          "velocity": 0.29133858267716534,
          "duration": 0.15000000000000568
        },
        {
          "name": "G5",
          "midi": 79,
          "time": 78.30000000000014,
          "velocity": 0.41732283464566927,
          "duration": 0.30000000000001137
        },
        {
          "name": "D#5",
          "midi": 75,
          "time": 78.30000000000014,
          "velocity": 0.3858267716535433,
          "duration": 0.30000000000001137
        },
        {
          "name": "D#2",
          "midi": 39,
          "time": 78.30000000000014,
          "velocity": 0.29133858267716534,
          "duration": 0.15000000000000568
        },
        {
          "name": "A#2",
          "midi": 46,
          "time": 78.45000000000014,
          "velocity": 0.29133858267716534,
          "duration": 0.15000000000000568
        },
        {
          "name": "F5",
          "midi": 77,
          "time": 78.60000000000015,
          "velocity": 0.3700787401574803,
          "duration": 0.30000000000001137
        },
        {
          "name": "C#5",
          "midi": 73,
          "time": 78.60000000000015,
          "velocity": 0.33858267716535434,
          "duration": 0.30000000000001137
        },
        {
          "name": "D#3",
          "midi": 51,
          "time": 78.60000000000015,
          "velocity": 0.29133858267716534,
          "duration": 0.15000000000000568
        },
        {
          "name": "G3",
          "midi": 55,
          "time": 78.75000000000016,
          "velocity": 0.29133858267716534,
          "duration": 0.15000000000000568
        },
        {
          "name": "C#5",
          "midi": 73,
          "time": 78.90000000000016,
          "velocity": 0.3700787401574803,
          "duration": 0.30000000000001137
        },
        {
          "name": "A#4",
          "midi": 70,
          "time": 78.90000000000016,
          "velocity": 0.33858267716535434,
          "duration": 0.30000000000001137
        },
        {
          "name": "A#3",
          "midi": 58,
          "time": 78.90000000000016,
          "velocity": 0.29133858267716534,
          "duration": 0.15000000000000568
        },
        {
          "name": "D#4",
          "midi": 63,
          "time": 79.05000000000017,
          "velocity": 0.29133858267716534,
          "duration": 0.15000000000000568
        },
        {
          "name": "A#4",
          "midi": 70,
          "time": 79.20000000000017,
          "velocity": 0.30708661417322836,
          "duration": 0.9000000000000341
        },
        {
          "name": "G4",
          "midi": 67,
          "time": 79.20000000000017,
          "velocity": 0.33858267716535434,
          "duration": 0.30000000000001137
        },
        {
          "name": "C#5",
          "midi": 73,
          "time": 79.20000000000017,
          "velocity": 0.33070866141732286,
          "duration": 0.9000000000000341
        },
        {
          "name": "D#4",
          "midi": 63,
          "time": 79.35000000000018,
          "velocity": 0.28346456692913385,
          "duration": 0.15000000000000568
        },
        {
          "name": "F4",
          "midi": 65,
          "time": 79.50000000000018,
          "velocity": 0.28346456692913385,
          "duration": 0.30000000000001137
        },
        {
          "name": "A#3",
          "midi": 58,
          "time": 79.50000000000018,
          "velocity": 0.28346456692913385,
          "duration": 0.15000000000000568
        },
        {
          "name": "G3",
          "midi": 55,
          "time": 79.65000000000019,
          "velocity": 0.2677165354330709,
          "duration": 0.15000000000000568
        },
        {
          "name": "C#4",
          "midi": 61,
          "time": 79.8000000000002,
          "velocity": 0.2677165354330709,
          "duration": 0.30000000000001137
        },
        {
          "name": "D#3",
          "midi": 51,
          "time": 79.8000000000002,
          "velocity": 0.2677165354330709,
          "duration": 0.15000000000000568
        },
        {
          "name": "A#2",
          "midi": 46,
          "time": 79.9500000000002,
          "velocity": 0.2677165354330709,
          "duration": 0.15000000000000568
        },
        {
          "name": "C#4",
          "midi": 61,
          "time": 80.10000000000021,
          "velocity": 0.2992125984251969,
          "duration": 0.45000000000000284
        },
        {
          "name": "D#2",
          "midi": 39,
          "time": 80.10000000000021,
          "velocity": 0.25984251968503935,
          "duration": 0.15000000000000568
        },
        {
          "name": "A#2",
          "midi": 46,
          "time": 80.25000000000021,
          "velocity": 0.25984251968503935,
          "duration": 0.14999999999999147
        },
        {
          "name": "D#3",
          "midi": 51,
          "time": 80.4000000000002,
          "velocity": 0.25984251968503935,
          "duration": 0.15000000000000568
        },
        {
          "name": "A#3",
          "midi": 58,
          "time": 80.55000000000021,
          "velocity": 0.28346456692913385,
          "duration": 0.44999999999998863
        },
        {
          "name": "G3",
          "midi": 55,
          "time": 80.55000000000021,
          "velocity": 0.25984251968503935,
          "duration": 0.14999999999999147
        },
        {
          "name": "D#3",
          "midi": 51,
          "time": 80.7000000000002,
          "velocity": 0.25984251968503935,
          "duration": 0.15000000000000568
        },
        {
          "name": "A#2",
          "midi": 46,
          "time": 80.85000000000021,
          "velocity": 0.25984251968503935,
          "duration": 0.14999999999999147
        },
        {
          "name": "A#4",
          "midi": 70,
          "time": 81.0000000000002,
          "velocity": 0.4094488188976378,
          "duration": 1.800000000000054
        },
        {
          "name": "G#2",
          "midi": 44,
          "time": 81.0000000000002,
          "velocity": 0.29133858267716534,
          "duration": 0.9000000000000199
        },
        {
          "name": "D#3",
          "midi": 51,
          "time": 81.15000000000019,
          "velocity": 0.25984251968503935,
          "duration": 0.15000000000000568
        },
        {
          "name": "F#3",
          "midi": 54,
          "time": 81.3000000000002,
          "velocity": 0.25984251968503935,
          "duration": 0.15000000000000568
        },
        {
          "name": "A#3",
          "midi": 58,
          "time": 81.4500000000002,
          "velocity": 0.25984251968503935,
          "duration": 0.15000000000000568
        },
        {
          "name": "C4",
          "midi": 60,
          "time": 81.60000000000021,
          "velocity": 0.25984251968503935,
          "duration": 0.15000000000000568
        },
        {
          "name": "F#4",
          "midi": 66,
          "time": 81.75000000000021,
          "velocity": 0.25984251968503935,
          "duration": 0.15000000000000568
        },
        {
          "name": "F#2",
          "midi": 42,
          "time": 81.90000000000022,
          "velocity": 0.2992125984251969,
          "duration": 0.9000000000000341
        },
        {
          "name": "C#3",
          "midi": 49,
          "time": 82.05000000000022,
          "velocity": 0.25196850393700787,
          "duration": 0.15000000000000568
        },
        {
          "name": "F#3",
          "midi": 54,
          "time": 82.20000000000023,
          "velocity": 0.25984251968503935,
          "duration": 0.15000000000000568
        },
        {
          "name": "A#3",
          "midi": 58,
          "time": 82.35000000000024,
          "velocity": 0.2677165354330709,
          "duration": 0.15000000000000568
        },
        {
          "name": "C#4",
          "midi": 61,
          "time": 82.50000000000024,
          "velocity": 0.2677165354330709,
          "duration": 0.15000000000000568
        },
        {
          "name": "F#4",
          "midi": 66,
          "time": 82.65000000000025,
          "velocity": 0.28346456692913385,
          "duration": 0.15000000000000568
        },
        {
          "name": "C5",
          "midi": 72,
          "time": 82.80000000000025,
          "velocity": 0.4015748031496063,
          "duration": 0.6000000000000227
        },
        {
          "name": "F2",
          "midi": 41,
          "time": 82.80000000000025,
          "velocity": 0.31496062992125984,
          "duration": 0.9000000000000199
        },
        {
          "name": "C3",
          "midi": 48,
          "time": 82.95000000000026,
          "velocity": 0.28346456692913385,
          "duration": 0.15000000000000568
        },
        {
          "name": "F3",
          "midi": 53,
          "time": 83.10000000000026,
          "velocity": 0.29133858267716534,
          "duration": 0.15000000000000568
        },
        {
          "name": "G#3",
          "midi": 56,
          "time": 83.25000000000027,
          "velocity": 0.2992125984251969,
          "duration": 0.15000000000000568
        },
        {
          "name": "F5",
          "midi": 77,
          "time": 83.40000000000028,
          "velocity": 0.4409448818897638,
          "duration": 0.29999999999999716
        },
        {
          "name": "C4",
          "midi": 60,
          "time": 83.40000000000028,
          "velocity": 0.30708661417322836,
          "duration": 0.29999999999999716
        },
        {
          "name": "G#4",
          "midi": 68,
          "time": 83.40875000000028,
          "velocity": 0.2992125984251969,
          "duration": 0.14999999999999147
        },
        {
          "name": "F4",
          "midi": 65,
          "time": 83.54125000000028,
          "velocity": 0.2992125984251969,
          "duration": 0.14999999999999147
        },
        {
          "name": "A#4",
          "midi": 70,
          "time": 83.71875000000028,
          "velocity": 0.4094488188976378,
          "duration": 1.8000000000000114
        },
        {
          "name": "G#2",
          "midi": 44,
          "time": 83.71875000000028,
          "velocity": 0.29133858267716534,
          "duration": 0.9000000000000057
        },
        {
          "name": "D#3",
          "midi": 51,
          "time": 83.86875000000028,
          "velocity": 0.25984251968503935,
          "duration": 0.15000000000000568
        },
        {
          "name": "F#3",
          "midi": 54,
          "time": 84.01875000000028,
          "velocity": 0.25984251968503935,
          "duration": 0.15000000000000568
        },
        {
          "name": "A#3",
          "midi": 58,
          "time": 84.16875000000029,
          "velocity": 0.25984251968503935,
          "duration": 0.15000000000000568
        },
        {
          "name": "C4",
          "midi": 60,
          "time": 84.31875000000029,
          "velocity": 0.25984251968503935,
          "duration": 0.15000000000000568
        },
        {
          "name": "F#4",
          "midi": 66,
          "time": 84.4687500000003,
          "velocity": 0.2677165354330709,
          "duration": 0.14999999999999147
        },
        {
          "name": "F#2",
          "midi": 42,
          "time": 84.61875000000029,
          "velocity": 0.30708661417322836,
          "duration": 0.9000000000000057
        },
        {
          "name": "C#3",
          "midi": 49,
          "time": 84.76875000000028,
          "velocity": 0.2677165354330709,
          "duration": 0.15000000000000568
        },
        {
          "name": "F#3",
          "midi": 54,
          "time": 84.91875000000029,
          "velocity": 0.29133858267716534,
          "duration": 0.15000000000000568
        },
        {
          "name": "A#3",
          "midi": 58,
          "time": 85.06875000000029,
          "velocity": 0.2992125984251969,
          "duration": 0.15000000000000568
        },
        {
          "name": "C#4",
          "midi": 61,
          "time": 85.2187500000003,
          "velocity": 0.2992125984251969,
          "duration": 0.14999999999999147
        },
        {
          "name": "F#4",
          "midi": 66,
          "time": 85.36875000000029,
          "velocity": 0.30708661417322836,
          "duration": 0.15000000000000568
        },
        {
          "name": "C5",
          "midi": 72,
          "time": 85.5187500000003,
          "velocity": 0.4409448818897638,
          "duration": 0.6000000000000085
        },
        {
          "name": "F2",
          "midi": 41,
          "time": 85.5187500000003,
          "velocity": 0.3464566929133858,
          "duration": 0.9000000000000199
        },
        {
          "name": "C3",
          "midi": 48,
          "time": 85.6687500000003,
          "velocity": 0.30708661417322836,
          "duration": 0.14999999999999147
        },
        {
          "name": "F3",
          "midi": 53,
          "time": 85.81875000000029,
          "velocity": 0.31496062992125984,
          "duration": 0.15000000000000568
        },
        {
          "name": "G#3",
          "midi": 56,
          "time": 85.9687500000003,
          "velocity": 0.33858267716535434,
          "duration": 0.15000000000000568
        },
        {
          "name": "F5",
          "midi": 77,
          "time": 86.1187500000003,
          "velocity": 0.47244094488188976,
          "duration": 0.30000000000001137
        },
        {
          "name": "C4",
          "midi": 60,
          "time": 86.1187500000003,
          "velocity": 0.3464566929133858,
          "duration": 0.30000000000001137
        },
        {
          "name": "G#4",
          "midi": 68,
          "time": 86.12750000000031,
          "velocity": 0.2992125984251969,
          "duration": 0.14999999999999147
        },
        {
          "name": "F4",
          "midi": 65,
          "time": 86.2600000000003,
          "velocity": 0.2992125984251969,
          "duration": 0.15000000000000568
        },
        {
          "name": "F#5",
          "midi": 78,
          "time": 86.4000000000003,
          "velocity": 0.5039370078740157,
          "duration": 1.350000000000037
        },
        {
          "name": "D#2",
          "midi": 39,
          "time": 86.4000000000003,
          "velocity": 0.3543307086614173,
          "duration": 0.9000000000000341
        },
        {
          "name": "A#2",
          "midi": 46,
          "time": 86.55000000000031,
          "velocity": 0.31496062992125984,
          "duration": 0.15000000000000568
        },
        {
          "name": "D#3",
          "midi": 51,
          "time": 86.70000000000032,
          "velocity": 0.31496062992125984,
          "duration": 0.15000000000000568
        },
        {
          "name": "F#3",
          "midi": 54,
          "time": 86.85000000000032,
          "velocity": 0.31496062992125984,
          "duration": 0.15000000000000568
        },
        {
          "name": "A#3",
          "midi": 58,
          "time": 87.00000000000033,
          "velocity": 0.31496062992125984,
          "duration": 0.15000000000000568
        },
        {
          "name": "D#4",
          "midi": 63,
          "time": 87.15000000000033,
          "velocity": 0.31496062992125984,
          "duration": 0.15000000000000568
        },
        {
          "name": "F#4",
          "midi": 66,
          "time": 87.30000000000034,
          "velocity": 0.47244094488188976,
          "duration": 0.14749999999999375
        },
        {
          "name": "F#4",
          "midi": 66,
          "time": 87.45000000000033,
          "velocity": 0.36220472440944884,
          "duration": 0.30000000000001137
        },
        {
          "name": "A#4",
          "midi": 70,
          "time": 87.60000000000034,
          "velocity": 0.36220472440944884,
          "duration": 0.15000000000000568
        },
        {
          "name": "F5",
          "midi": 77,
          "time": 87.75000000000034,
          "velocity": 0.4566929133858268,
          "duration": 0.45000000000001705
        },
        {
          "name": "F4",
          "midi": 65,
          "time": 87.75000000000034,
          "velocity": 0.4566929133858268,
          "duration": 0.45000000000001705
        },
        {
          "name": "F#4",
          "midi": 66,
          "time": 87.90000000000035,
          "velocity": 0.36220472440944884,
          "duration": 0.15000000000000568
        },
        {
          "name": "A#4",
          "midi": 70,
          "time": 88.05000000000035,
          "velocity": 0.36220472440944884,
          "duration": 0.15000000000000568
        },
        {
          "name": "D5",
          "midi": 74,
          "time": 88.20000000000036,
          "velocity": 0.4566929133858268,
          "duration": 0.45000000000001705
        },
        {
          "name": "D4",
          "midi": 62,
          "time": 88.20000000000036,
          "velocity": 0.44881889763779526,
          "duration": 0.45000000000001705
        },
        {
          "name": "F#4",
          "midi": 66,
          "time": 88.35000000000036,
          "velocity": 0.36220472440944884,
          "duration": 0.15000000000000568
        },
        {
          "name": "A#4",
          "midi": 70,
          "time": 88.50000000000037,
          "velocity": 0.36220472440944884,
          "duration": 0.15000000000000568
        },
        {
          "name": "D#5",
          "midi": 75,
          "time": 88.65000000000038,
          "velocity": 0.47244094488188976,
          "duration": 0.45000000000001705
        },
        {
          "name": "D#4",
          "midi": 63,
          "time": 88.65000000000038,
          "velocity": 0.4566929133858268,
          "duration": 0.45000000000001705
        },
        {
          "name": "F#4",
          "midi": 66,
          "time": 88.80000000000038,
          "velocity": 0.3858267716535433,
          "duration": 0.15000000000000568
        },
        {
          "name": "A#4",
          "midi": 70,
          "time": 88.95000000000039,
          "velocity": 0.3858267716535433,
          "duration": 0.15000000000000568
        },
        {
          "name": "A#5",
          "midi": 82,
          "time": 89.10000000000039,
          "velocity": 0.5275590551181102,
          "duration": 0.7437500000000199
        },
        {
          "name": "D4",
          "midi": 62,
          "time": 89.10000000000039,
          "velocity": 0.4330708661417323,
          "duration": 0.45000000000001705
        },
        {
          "name": "F#4",
          "midi": 66,
          "time": 89.2500000000004,
          "velocity": 0.33858267716535434,
          "duration": 0.15000000000000568
        },
        {
          "name": "A#4",
          "midi": 70,
          "time": 89.4000000000004,
          "velocity": 0.33858267716535434,
          "duration": 0.15000000000000568
        },
        {
          "name": "A#4",
          "midi": 70,
          "time": 89.55000000000041,
          "velocity": 0.33858267716535434,
          "duration": 0.15000000000000568
        },
        {
          "name": "F#5",
          "midi": 78,
          "time": 89.70000000000041,
          "velocity": 0.33858267716535434,
          "duration": 0.14999999999999147
        },
        {
          "name": "A#5",
          "midi": 82,
          "time": 89.8500000000004,
          "velocity": 0.33858267716535434,
          "duration": 0.9000000000000199
        },
        {
          "name": "D#4",
          "midi": 63,
          "time": 90.00000000000041,
          "velocity": 0.3937007874015748,
          "duration": 0.45000000000000284
        },
        {
          "name": "F#4",
          "midi": 66,
          "time": 90.1500000000004,
          "velocity": 0.2992125984251969,
          "duration": 0.15000000000000568
        },
        {
          "name": "A#4",
          "midi": 70,
          "time": 90.30000000000041,
          "velocity": 0.2992125984251969,
          "duration": 0.15000000000000568
        },
        {
          "name": "A#4",
          "midi": 70,
          "time": 90.45000000000041,
          "velocity": 0.2992125984251969,
          "duration": 0.15000000000000568
        },
        {
          "name": "F#5",
          "midi": 78,
          "time": 90.60000000000042,
          "velocity": 0.2992125984251969,
          "duration": 0.15000000000000568
        },
        {
          "name": "A#5",
          "midi": 82,
          "time": 90.75000000000043,
          "velocity": 0.2992125984251969,
          "duration": 0.15000000000000568
        },
        {
          "name": "G#5",
          "midi": 80,
          "time": 90.90000000000043,
          "velocity": 0.4015748031496063,
          "duration": 0.7437500000000199
        },
        {
          "name": "C4",
          "midi": 60,
          "time": 90.90000000000043,
          "velocity": 0.3464566929133858,
          "duration": 0.14999999999999147
        },
        {
          "name": "G#3",
          "midi": 56,
          "time": 90.90000000000043,
          "velocity": 0.3464566929133858,
          "duration": 0.44999999999998863
        },
        {
          "name": "E4",
          "midi": 64,
          "time": 91.05000000000042,
          "velocity": 0.29133858267716534,
          "duration": 0.15000000000000568
        },
        {
          "name": "G#4",
          "midi": 68,
          "time": 91.20000000000043,
          "velocity": 0.28346456692913385,
          "duration": 0.14999999999999147
        },
        {
          "name": "C5",
          "midi": 72,
          "time": 91.35000000000042,
          "velocity": 0.2677165354330709,
          "duration": 0.15000000000000568
        },
        {
          "name": "E5",
          "midi": 76,
          "time": 91.50000000000043,
          "velocity": 0.2677165354330709,
          "duration": 0.1500000000000199
        },
        {
          "name": "G#5",
          "midi": 80,
          "time": 91.65000000000045,
          "velocity": 0.25984251968503935,
          "duration": 0.14750000000002217
        },
        {
          "name": "G#5",
          "midi": 80,
          "time": 91.80000000000047,
          "velocity": 0.4015748031496063,
          "duration": 1.8000000000000682
        },
        {
          "name": "F5",
          "midi": 77,
          "time": 91.80000000000047,
          "velocity": 0.4015748031496063,
          "duration": 1.8000000000000682
        },
        {
          "name": "C#3",
          "midi": 49,
          "time": 91.80000000000047,
          "velocity": 0.33858267716535434,
          "duration": 0.9000000000000341
        },
        {
          "name": "G#3",
          "midi": 56,
          "time": 91.95000000000047,
          "velocity": 0.29133858267716534,
          "duration": 0.15000000000000568
        },
        {
          "name": "C#4",
          "midi": 61,
          "time": 92.10000000000048,
          "velocity": 0.29133858267716534,
          "duration": 0.15000000000000568
        },
        {
          "name": "F4",
          "midi": 65,
          "time": 92.25000000000048,
          "velocity": 0.29133858267716534,
          "duration": 0.15000000000000568
        },
        {
          "name": "G#4",
          "midi": 68,
          "time": 92.40000000000049,
          "velocity": 0.29133858267716534,
          "duration": 0.15000000000000568
        },
        {
          "name": "C#5",
          "midi": 73,
          "time": 92.5500000000005,
          "velocity": 0.29133858267716534,
          "duration": 0.15000000000000568
        },
        {
          "name": "G#3",
          "midi": 56,
          "time": 92.7000000000005,
          "velocity": 0.36220472440944884,
          "duration": 0.15000000000000568
        },
        {
          "name": "F3",
          "midi": 53,
          "time": 92.7000000000005,
          "velocity": 0.30708661417322836,
          "duration": 0.9000000000000341
        },
        {
          "name": "C4",
          "midi": 60,
          "time": 92.8500000000005,
          "velocity": 0.2992125984251969,
          "duration": 0.15000000000000568
        },
        {
          "name": "F4",
          "midi": 65,
          "time": 93.00000000000051,
          "velocity": 0.31496062992125984,
          "duration": 0.15000000000000568
        },
        {
          "name": "G#4",
          "midi": 68,
          "time": 93.15000000000052,
          "velocity": 0.33070866141732286,
          "duration": 0.15000000000000568
        },
        {
          "name": "C5",
          "midi": 72,
          "time": 93.30000000000052,
          "velocity": 0.3464566929133858,
          "duration": 0.15000000000000568
        },
        {
          "name": "F5",
          "midi": 77,
          "time": 93.45000000000053,
          "velocity": 0.36220472440944884,
          "duration": 0.15000000000000568
        },
        {
          "name": "G#5",
          "midi": 80,
          "time": 93.60000000000053,
          "velocity": 0.44881889763779526,
          "duration": 0.6000000000000085
        },
        {
          "name": "B5",
          "midi": 83,
          "time": 93.60000000000053,
          "velocity": 0.44881889763779526,
          "duration": 0.6000000000000085
        },
        {
          "name": "B3",
          "midi": 59,
          "time": 93.60000000000053,
          "velocity": 0.3937007874015748,
          "duration": 0.14999999999999147
        },
        {
          "name": "G#3",
          "midi": 56,
          "time": 93.60000000000053,
          "velocity": 0.33070866141732286,
          "duration": 0.9000000000000057
        },
        {
          "name": "E4",
          "midi": 64,
          "time": 93.75000000000053,
          "velocity": 0.33858267716535434,
          "duration": 0.15000000000000568
        },
        {
          "name": "G#4",
          "midi": 68,
          "time": 93.90000000000053,
          "velocity": 0.33858267716535434,
          "duration": 0.15000000000000568
        },
        {
          "name": "B4",
          "midi": 71,
          "time": 94.05000000000054,
          "velocity": 0.33858267716535434,
          "duration": 0.15000000000000568
        },
        {
          "name": "C#6",
          "midi": 85,
          "time": 94.20000000000054,
          "velocity": 0.47244094488188976,
          "duration": 0.29999999999999716
        },
        {
          "name": "E5",
          "midi": 76,
          "time": 94.20000000000054,
          "velocity": 0.33858267716535434,
          "duration": 0.15000000000000568
        },
        {
          "name": "G#5",
          "midi": 80,
          "time": 94.35000000000055,
          "velocity": 0.33858267716535434,
          "duration": 0.14749999999999375
        },
        {
          "name": "F5",
          "midi": 77,
          "time": 94.50000000000054,
          "velocity": 0.44881889763779526,
          "duration": 1.8000000000000682
        },
        {
          "name": "G#5",
          "midi": 80,
          "time": 94.50000000000054,
          "velocity": 0.44881889763779526,
          "duration": 1.8000000000000682
        },
        {
          "name": "C#3",
          "midi": 49,
          "time": 94.50000000000054,
          "velocity": 0.3779527559055118,
          "duration": 0.9000000000000341
        },
        {
          "name": "G#3",
          "midi": 56,
          "time": 94.65000000000055,
          "velocity": 0.33858267716535434,
          "duration": 0.15000000000000568
        },
        {
          "name": "C#4",
          "midi": 61,
          "time": 94.80000000000055,
          "velocity": 0.33858267716535434,
          "duration": 0.15000000000000568
        },
        {
          "name": "F4",
          "midi": 65,
          "time": 94.95000000000056,
          "velocity": 0.33858267716535434,
          "duration": 0.15000000000000568
        },
        {
          "name": "G#4",
          "midi": 68,
          "time": 95.10000000000056,
          "velocity": 0.33858267716535434,
          "duration": 0.15000000000000568
        },
        {
          "name": "C#5",
          "midi": 73,
          "time": 95.25000000000057,
          "velocity": 0.33858267716535434,
          "duration": 0.15000000000000568
        },
        {
          "name": "G#3",
          "midi": 56,
          "time": 95.40000000000057,
          "velocity": 0.4015748031496063,
          "duration": 0.15000000000000568
        },
        {
          "name": "F3",
          "midi": 53,
          "time": 95.40000000000057,
          "velocity": 0.33858267716535434,
          "duration": 0.9000000000000341
        },
        {
          "name": "C4",
          "midi": 60,
          "time": 95.55000000000058,
          "velocity": 0.31496062992125984,
          "duration": 0.15000000000000568
        },
        {
          "name": "F4",
          "midi": 65,
          "time": 95.70000000000059,
          "velocity": 0.33070866141732286,
          "duration": 0.15000000000000568
        },
        {
          "name": "G#4",
          "midi": 68,
          "time": 95.85000000000059,
          "velocity": 0.33858267716535434,
          "duration": 0.15000000000000568
        },
        {
          "name": "C5",
          "midi": 72,
          "time": 96.0000000000006,
          "velocity": 0.3464566929133858,
          "duration": 0.15000000000000568
        },
        {
          "name": "F5",
          "midi": 77,
          "time": 96.1500000000006,
          "velocity": 0.3543307086614173,
          "duration": 0.15000000000000568
        },
        {
          "name": "B5",
          "midi": 83,
          "time": 96.30000000000061,
          "velocity": 0.4881889763779528,
          "duration": 0.6000000000000227
        },
        {
          "name": "G#5",
          "midi": 80,
          "time": 96.30000000000061,
          "velocity": 0.4881889763779528,
          "duration": 0.6000000000000227
        },
        {
          "name": "B3",
          "midi": 59,
          "time": 96.30000000000061,
          "velocity": 0.4251968503937008,
          "duration": 0.15000000000000568
        },
        {
          "name": "G#3",
          "midi": 56,
          "time": 96.30000000000061,
          "velocity": 0.3543307086614173,
          "duration": 0.9000000000000341
        },
        {
          "name": "E4",
          "midi": 64,
          "time": 96.45000000000061,
          "velocity": 0.3543307086614173,
          "duration": 0.15000000000000568
        },
        {
          "name": "G#4",
          "midi": 68,
          "time": 96.60000000000062,
          "velocity": 0.3543307086614173,
          "duration": 0.15000000000000568
        },
        {
          "name": "B4",
          "midi": 71,
          "time": 96.75000000000063,
          "velocity": 0.3543307086614173,
          "duration": 0.15000000000000568
        },
        {
          "name": "G#5",
          "midi": 80,
          "time": 96.90000000000063,
          "velocity": 0.5511811023622047,
          "duration": 0.15000000000000568
        },
        {
          "name": "G#5",
          "midi": 80,
          "time": 96.90000000000063,
          "velocity": 0.3543307086614173,
          "duration": 0.30000000000001137
        },
        {
          "name": "E5",
          "midi": 76,
          "time": 97.05000000000064,
          "velocity": 0.3543307086614173,
          "duration": 0.15000000000000568
        },
        {
          "name": "C#6",
          "midi": 85,
          "time": 97.20000000000064,
          "velocity": 0.6850393700787402,
          "duration": 0.9000000000000341
        },
        {
          "name": "B3",
          "midi": 59,
          "time": 97.20000000000064,
          "velocity": 0.3464566929133858,
          "duration": 0.45000000000001705
        },
        {
          "name": "C#4",
          "midi": 61,
          "time": 97.20000000000064,
          "velocity": 0.4094488188976378,
          "duration": 0.15000000000000568
        },
        {
          "name": "E4",
          "midi": 64,
          "time": 97.35000000000065,
          "velocity": 0.3937007874015748,
          "duration": 0.15000000000000568
        },
        {
          "name": "G#4",
          "midi": 68,
          "time": 97.50000000000065,
          "velocity": 0.3937007874015748,
          "duration": 0.15000000000000568
        },
        {
          "name": "C#5",
          "midi": 73,
          "time": 97.65000000000066,
          "velocity": 0.4015748031496063,
          "duration": 0.15000000000000568
        },
        {
          "name": "B4",
          "midi": 71,
          "time": 97.65000000000066,
          "velocity": 0.3937007874015748,
          "duration": 0.45000000000001705
        },
        {
          "name": "G#5",
          "midi": 80,
          "time": 97.80000000000067,
          "velocity": 0.5748031496062992,
          "duration": 0.30000000000001137
        },
        {
          "name": "E5",
          "midi": 76,
          "time": 97.95000000000067,
          "velocity": 0.4015748031496063,
          "duration": 0.15000000000000568
        },
        {
          "name": "E6",
          "midi": 88,
          "time": 98.10000000000068,
          "velocity": 0.6771653543307087,
          "duration": 0.9000000000000341
        },
        {
          "name": "C#4",
          "midi": 61,
          "time": 98.10000000000068,
          "velocity": 0.3464566929133858,
          "duration": 0.45000000000001705
        },
        {
          "name": "E4",
          "midi": 64,
          "time": 98.10000000000068,
          "velocity": 0.4094488188976378,
          "duration": 0.15000000000000568
        },
        {
          "name": "G#4",
          "midi": 68,
          "time": 98.25000000000068,
          "velocity": 0.3937007874015748,
          "duration": 0.15000000000000568
        },
        {
          "name": "B4",
          "midi": 71,
          "time": 98.40000000000069,
          "velocity": 0.3937007874015748,
          "duration": 0.15000000000000568
        },
        {
          "name": "E5",
          "midi": 76,
          "time": 98.5500000000007,
          "velocity": 0.4251968503937008,
          "duration": 0.15000000000000568
        },
        {
          "name": "C#5",
          "midi": 73,
          "time": 98.5500000000007,
          "velocity": 0.3937007874015748,
          "duration": 0.45000000000001705
        },
        {
          "name": "C#6",
          "midi": 85,
          "time": 98.7000000000007,
          "velocity": 0.5511811023622047,
          "duration": 0.30000000000001137
        },
        {
          "name": "G#5",
          "midi": 80,
          "time": 98.8500000000007,
          "velocity": 0.4251968503937008,
          "duration": 0.15000000000000568
        },
        {
          "name": "G#6",
          "midi": 92,
          "time": 99.00000000000071,
          "velocity": 0.7086614173228346,
          "duration": 0.9000000000000341
        },
        {
          "name": "E4",
          "midi": 64,
          "time": 99.00000000000071,
          "velocity": 0.36220472440944884,
          "duration": 0.45000000000001705
        },
        {
          "name": "G#4",
          "midi": 68,
          "time": 99.00000000000071,
          "velocity": 0.4330708661417323,
          "duration": 0.15000000000000568
        },
        {
          "name": "B4",
          "midi": 71,
          "time": 99.15000000000072,
          "velocity": 0.4094488188976378,
          "duration": 0.15000000000000568
        },
        {
          "name": "C#5",
          "midi": 73,
          "time": 99.30000000000072,
          "velocity": 0.4094488188976378,
          "duration": 0.15000000000000568
        },
        {
          "name": "G#5",
          "midi": 80,
          "time": 99.45000000000073,
          "velocity": 0.4409448818897638,
          "duration": 0.15000000000000568
        },
        {
          "name": "E5",
          "midi": 76,
          "time": 99.45000000000073,
          "velocity": 0.4094488188976378,
          "duration": 0.45000000000001705
        },
        {
          "name": "E6",
          "midi": 88,
          "time": 99.60000000000073,
          "velocity": 0.5511811023622047,
          "duration": 0.30000000000001137
        },
        {
          "name": "B5",
          "midi": 83,
          "time": 99.75000000000074,
          "velocity": 0.4409448818897638,
          "duration": 0.15000000000000568
        },
        {
          "name": "G#6",
          "midi": 92,
          "time": 99.90000000000074,
          "velocity": 0.7244094488188977,
          "duration": 0.9000000000000341
        },
        {
          "name": "G#4",
          "midi": 68,
          "time": 99.90000000000074,
          "velocity": 0.44881889763779526,
          "duration": 0.45000000000001705
        },
        {
          "name": "A4",
          "midi": 69,
          "time": 100.05000000000075,
          "velocity": 0.4251968503937008,
          "duration": 0.15000000000000568
        },
        {
          "name": "C#5",
          "midi": 73,
          "time": 100.20000000000076,
          "velocity": 0.4251968503937008,
          "duration": 0.15000000000000568
        },
        {
          "name": "G#5",
          "midi": 80,
          "time": 100.35000000000076,
          "velocity": 0.4409448818897638,
          "duration": 0.15000000000000568
        },
        {
          "name": "C#6",
          "midi": 85,
          "time": 100.50000000000077,
          "velocity": 0.4409448818897638,
          "duration": 0.15000000000000568
        },
        {
          "name": "A5",
          "midi": 81,
          "time": 100.65000000000077,
          "velocity": 0.4409448818897638,
          "duration": 0.15000000000000568
        },
        {
          "name": "F#6",
          "midi": 90,
          "time": 100.80000000000078,
          "velocity": 0.7165354330708661,
          "duration": 1.8000000000000682
        },
        {
          "name": "F#4",
          "midi": 66,
          "time": 100.80000000000078,
          "velocity": 0.4409448818897638,
          "duration": 0.45000000000001705
        },
        {
          "name": "A4",
          "midi": 69,
          "time": 100.95000000000078,
          "velocity": 0.4094488188976378,
          "duration": 0.15000000000000568
        },
        {
          "name": "C#5",
          "midi": 73,
          "time": 101.10000000000079,
          "velocity": 0.4094488188976378,
          "duration": 0.15000000000000568
        },
        {
          "name": "F#5",
          "midi": 78,
          "time": 101.2500000000008,
          "velocity": 0.4094488188976378,
          "duration": 0.15000000000000568
        },
        {
          "name": "C#6",
          "midi": 85,
          "time": 101.4000000000008,
          "velocity": 0.4094488188976378,
          "duration": 0.15000000000000568
        },
        {
          "name": "A5",
          "midi": 81,
          "time": 101.55000000000081,
          "velocity": 0.4094488188976378,
          "duration": 0.15000000000000568
        },
        {
          "name": "F#4",
          "midi": 66,
          "time": 101.70000000000081,
          "velocity": 0.4409448818897638,
          "duration": 0.15000000000000568
        },
        {
          "name": "F4",
          "midi": 65,
          "time": 101.70000000000081,
          "velocity": 0.3700787401574803,
          "duration": 0.45000000000001705
        },
        {
          "name": "A4",
          "midi": 69,
          "time": 101.85000000000082,
          "velocity": 0.4094488188976378,
          "duration": 0.15000000000000568
        },
        {
          "name": "C#5",
          "midi": 73,
          "time": 102.00000000000082,
          "velocity": 0.4094488188976378,
          "duration": 0.15000000000000568
        },
        {
          "name": "F#5",
          "midi": 78,
          "time": 102.15000000000083,
          "velocity": 0.4094488188976378,
          "duration": 0.15000000000000568
        },
        {
          "name": "C#6",
          "midi": 85,
          "time": 102.30000000000084,
          "velocity": 0.4094488188976378,
          "duration": 0.15000000000000568
        },
        {
          "name": "A5",
          "midi": 81,
          "time": 102.45000000000084,
          "velocity": 0.4094488188976378,
          "duration": 0.15000000000000568
        },
        {
          "name": "F#6",
          "midi": 90,
          "time": 102.60000000000085,
          "velocity": 0.7165354330708661,
          "duration": 1.8000000000000398
        },
        {
          "name": "E4",
          "midi": 64,
          "time": 102.60000000000085,
          "velocity": 0.4409448818897638,
          "duration": 0.45000000000000284
        },
        {
          "name": "F#4",
          "midi": 66,
          "time": 102.75000000000084,
          "velocity": 0.4094488188976378,
          "duration": 0.15000000000000568
        },
        {
          "name": "A4",
          "midi": 69,
          "time": 102.90000000000084,
          "velocity": 0.4094488188976378,
          "duration": 0.15000000000000568
        },
        {
          "name": "F#5",
          "midi": 78,
          "time": 103.05000000000085,
          "velocity": 0.4094488188976378,
          "duration": 0.15000000000000568
        },
        {
          "name": "C#6",
          "midi": 85,
          "time": 103.20000000000086,
          "velocity": 0.4094488188976378,
          "duration": 0.15000000000000568
        },
        {
          "name": "A5",
          "midi": 81,
          "time": 103.35000000000086,
          "velocity": 0.4094488188976378,
          "duration": 0.15000000000000568
        },
        {
          "name": "F#4",
          "midi": 66,
          "time": 103.50000000000087,
          "velocity": 0.4409448818897638,
          "duration": 0.14999999999999147
        },
        {
          "name": "D#4",
          "midi": 63,
          "time": 103.50000000000087,
          "velocity": 0.3700787401574803,
          "duration": 0.45000000000000284
        },
        {
          "name": "A4",
          "midi": 69,
          "time": 103.65000000000086,
          "velocity": 0.4094488188976378,
          "duration": 0.15000000000000568
        },
        {
          "name": "C#5",
          "midi": 73,
          "time": 103.80000000000086,
          "velocity": 0.4094488188976378,
          "duration": 0.15000000000000568
        },
        {
          "name": "F#5",
          "midi": 78,
          "time": 103.95000000000087,
          "velocity": 0.4094488188976378,
          "duration": 0.15000000000000568
        },
        {
          "name": "C#6",
          "midi": 85,
          "time": 104.10000000000088,
          "velocity": 0.4094488188976378,
          "duration": 0.15000000000000568
        },
        {
          "name": "A5",
          "midi": 81,
          "time": 104.25000000000088,
          "velocity": 0.4094488188976378,
          "duration": 0.15000000000000568
        },
        {
          "name": "A6",
          "midi": 93,
          "time": 104.40000000000089,
          "velocity": 0.7165354330708661,
          "duration": 0.6000000000000227
        },
        {
          "name": "E4",
          "midi": 64,
          "time": 104.40000000000089,
          "velocity": 0.4409448818897638,
          "duration": 0.15000000000000568
        },
        {
          "name": "C#4",
          "midi": 61,
          "time": 104.40000000000089,
          "velocity": 0.3700787401574803,
          "duration": 0.45000000000001705
        },
        {
          "name": "A4",
          "midi": 69,
          "time": 104.55000000000089,
          "velocity": 0.4094488188976378,
          "duration": 0.15000000000000568
        },
        {
          "name": "C#5",
          "midi": 73,
          "time": 104.7000000000009,
          "velocity": 0.4094488188976378,
          "duration": 0.15000000000000568
        },
        {
          "name": "E5",
          "midi": 76,
          "time": 104.8500000000009,
          "velocity": 0.4094488188976378,
          "duration": 0.15000000000000568
        },
        {
          "name": "C#7",
          "midi": 97,
          "time": 105.00000000000091,
          "velocity": 0.7165354330708661,
          "duration": 0.30000000000001137
        },
        {
          "name": "C#6",
          "midi": 85,
          "time": 105.15000000000092,
          "velocity": 0.4094488188976378,
          "duration": 0.15000000000000568
        },
        {
          "name": "F#5",
          "midi": 78,
          "time": 105.30000000000092,
          "velocity": 0.6456692913385826,
          "duration": 1.8000000000000682
        },
        {
          "name": "B3",
          "midi": 59,
          "time": 105.30000000000092,
          "velocity": 0.4409448818897638,
          "duration": 0.45000000000001705
        },
        {
          "name": "D#4",
          "midi": 63,
          "time": 105.45000000000093,
          "velocity": 0.4094488188976378,
          "duration": 0.15000000000000568
        },
        {
          "name": "F#4",
          "midi": 66,
          "time": 105.60000000000093,
          "velocity": 0.4094488188976378,
          "duration": 0.15000000000000568
        },
        {
          "name": "F#4",
          "midi": 66,
          "time": 105.75000000000094,
          "velocity": 0.4094488188976378,
          "duration": 0.15000000000000568
        },
        {
          "name": "C#5",
          "midi": 73,
          "time": 105.90000000000094,
          "velocity": 0.4094488188976378,
          "duration": 0.15000000000000568
        },
        {
          "name": "A4",
          "midi": 69,
          "time": 106.05000000000095,
          "velocity": 0.4094488188976378,
          "duration": 0.15000000000000568
        },
        {
          "name": "A3",
          "midi": 57,
          "time": 106.20000000000095,
          "velocity": 0.4409448818897638,
          "duration": 0.45000000000001705
        },
        {
          "name": "C#4",
          "midi": 61,
          "time": 106.35000000000096,
          "velocity": 0.4094488188976378,
          "duration": 0.15000000000000568
        },
        {
          "name": "E4",
          "midi": 64,
          "time": 106.50000000000097,
          "velocity": 0.4094488188976378,
          "duration": 0.15000000000000568
        },
        {
          "name": "F#4",
          "midi": 66,
          "time": 106.65000000000097,
          "velocity": 0.4094488188976378,
          "duration": 0.15000000000000568
        },
        {
          "name": "C#5",
          "midi": 73,
          "time": 106.80000000000098,
          "velocity": 0.4094488188976378,
          "duration": 0.15000000000000568
        },
        {
          "name": "A4",
          "midi": 69,
          "time": 106.95000000000098,
          "velocity": 0.4094488188976378,
          "duration": 0.15000000000000568
        },
        {
          "name": "A5",
          "midi": 81,
          "time": 107.10000000000099,
          "velocity": 0.6614173228346457,
          "duration": 0.6000000000000085
        },
        {
          "name": "G#3",
          "midi": 56,
          "time": 107.10000000000099,
          "velocity": 0.4409448818897638,
          "duration": 0.45000000000000284
        },
        {
          "name": "C#4",
          "midi": 61,
          "time": 107.25000000000098,
          "velocity": 0.4094488188976378,
          "duration": 0.15000000000000568
        },
        {
          "name": "E4",
          "midi": 64,
          "time": 107.40000000000099,
          "velocity": 0.4094488188976378,
          "duration": 0.15000000000000568
        },
        {
          "name": "A4",
          "midi": 69,
          "time": 107.55000000000099,
          "velocity": 0.4094488188976378,
          "duration": 0.15000000000000568
        },
        {
          "name": "E5",
          "midi": 76,
          "time": 107.700000000001,
          "velocity": 0.4094488188976378,
          "duration": 0.15000000000000568
        },
        {
          "name": "C#6",
          "midi": 85,
          "time": 107.700000000001,
          "velocity": 0.6220472440944882,
          "duration": 0.30000000000001137
        },
        {
          "name": "A5",
          "midi": 81,
          "time": 107.850000000001,
          "velocity": 0.4094488188976378,
          "duration": 0.15000000000000568
        },
        {
          "name": "E6",
          "midi": 88,
          "time": 108.00000000000101,
          "velocity": 0.6220472440944882,
          "duration": 0.30000000000001137
        },
        {
          "name": "C#6",
          "midi": 85,
          "time": 108.00000000000101,
          "velocity": 0.6220472440944882,
          "duration": 0.30000000000001137
        },
        {
          "name": "F#3",
          "midi": 54,
          "time": 108.00000000000101,
          "velocity": 0.4409448818897638,
          "duration": 2.700000000000074
        },
        {
          "name": "C#4",
          "midi": 61,
          "time": 108.15000000000101,
          "velocity": 0.33858267716535434,
          "duration": 0.15000000000000568
        },
        {
          "name": "D#6",
          "midi": 87,
          "time": 108.30000000000102,
          "velocity": 0.5433070866141733,
          "duration": 0.29999999999999716
        },
        {
          "name": "B5",
          "midi": 83,
          "time": 108.30000000000102,
          "velocity": 0.5433070866141733,
          "duration": 0.29999999999999716
        },
        {
          "name": "E4",
          "midi": 64,
          "time": 108.30000000000102,
          "velocity": 0.3543307086614173,
          "duration": 0.14999999999999147
        },
        {
          "name": "F#4",
          "midi": 66,
          "time": 108.45000000000101,
          "velocity": 0.36220472440944884,
          "duration": 0.15000000000000568
        },
        {
          "name": "C#6",
          "midi": 85,
          "time": 108.60000000000102,
          "velocity": 0.5433070866141733,
          "duration": 0.30000000000001137
        },
        {
          "name": "A5",
          "midi": 81,
          "time": 108.60000000000102,
          "velocity": 0.5433070866141733,
          "duration": 0.30000000000001137
        },
        {
          "name": "A4",
          "midi": 69,
          "time": 108.60000000000102,
          "velocity": 0.3858267716535433,
          "duration": 0.15000000000000568
        },
        {
          "name": "C#5",
          "midi": 73,
          "time": 108.75000000000102,
          "velocity": 0.3937007874015748,
          "duration": 0.15000000000000568
        },
        {
          "name": "G#5",
          "midi": 80,
          "time": 108.90000000000103,
          "velocity": 0.5826771653543307,
          "duration": 0.45000000000001705
        },
        {
          "name": "B5",
          "midi": 83,
          "time": 108.90000000000103,
          "velocity": 0.5826771653543307,
          "duration": 0.45000000000001705
        },
        {
          "name": "E5",
          "midi": 76,
          "time": 108.90000000000103,
          "velocity": 0.3937007874015748,
          "duration": 0.15000000000000568
        },
        {
          "name": "F#5",
          "midi": 78,
          "time": 109.05000000000103,
          "velocity": 0.3937007874015748,
          "duration": 0.15000000000000568
        },
        {
          "name": "E5",
          "midi": 76,
          "time": 109.20000000000104,
          "velocity": 0.3858267716535433,
          "duration": 0.15000000000000568
        },
        {
          "name": "F#5",
          "midi": 78,
          "time": 109.35000000000105,
          "velocity": 0.5275590551181102,
          "duration": 0.7500000000000142
        },
        {
          "name": "A5",
          "midi": 81,
          "time": 109.35000000000105,
          "velocity": 0.5275590551181102,
          "duration": 0.7500000000000142
        },
        {
          "name": "C#5",
          "midi": 73,
          "time": 109.35000000000105,
          "velocity": 0.3779527559055118,
          "duration": 0.14999999999999147
        },
        {
          "name": "A4",
          "midi": 69,
          "time": 109.50000000000104,
          "velocity": 0.36220472440944884,
          "duration": 0.15000000000000568
        },
        {
          "name": "F#4",
          "midi": 66,
          "time": 109.65000000000104,
          "velocity": 0.36220472440944884,
          "duration": 0.15000000000000568
        },
        {
          "name": "E4",
          "midi": 64,
          "time": 109.80000000000105,
          "velocity": 0.33858267716535434,
          "duration": 0.15000000000000568
        },
        {
          "name": "F#4",
          "midi": 66,
          "time": 109.95000000000105,
          "velocity": 0.33070866141732286,
          "duration": 0.15000000000000568
        },
        {
          "name": "G#5",
          "midi": 80,
          "time": 110.10000000000106,
          "velocity": 0.47244094488188976,
          "duration": 0.30000000000001137
        },
        {
          "name": "E5",
          "midi": 76,
          "time": 110.10000000000106,
          "velocity": 0.47244094488188976,
          "duration": 0.30000000000001137
        },
        {
          "name": "E4",
          "midi": 64,
          "time": 110.10000000000106,
          "velocity": 0.31496062992125984,
          "duration": 0.15000000000000568
        },
        {
          "name": "C#4",
          "midi": 61,
          "time": 110.25000000000107,
          "velocity": 0.30708661417322836,
          "duration": 0.15000000000000568
        },
        {
          "name": "F#5",
          "midi": 78,
          "time": 110.40000000000107,
          "velocity": 0.47244094488188976,
          "duration": 0.30000000000001137
        },
        {
          "name": "D#5",
          "midi": 75,
          "time": 110.40000000000107,
          "velocity": 0.47244094488188976,
          "duration": 0.30000000000001137
        },
        {
          "name": "A3",
          "midi": 57,
          "time": 110.40000000000107,
          "velocity": 0.2992125984251969,
          "duration": 0.15000000000000568
        },
        {
          "name": "F#3",
          "midi": 54,
          "time": 110.55000000000108,
          "velocity": 0.29133858267716534,
          "duration": 0.15000000000000568
        },
        {
          "name": "C#5",
          "midi": 73,
          "time": 110.70000000000108,
          "velocity": 0.4881889763779528,
          "duration": 0.30000000000001137
        },
        {
          "name": "E5",
          "midi": 76,
          "time": 110.70000000000108,
          "velocity": 0.4881889763779528,
          "duration": 0.30000000000001137
        },
        {
          "name": "F#2",
          "midi": 42,
          "time": 110.70000000000108,
          "velocity": 0.33858267716535434,
          "duration": 0.15000000000000568
        },
        {
          "name": "C#3",
          "midi": 49,
          "time": 110.85000000000109,
          "velocity": 0.2992125984251969,
          "duration": 0.15000000000000568
        },
        {
          "name": "D#5",
          "midi": 75,
          "time": 111.0000000000011,
          "velocity": 0.4566929133858268,
          "duration": 0.29999999999999716
        },
        {
          "name": "B4",
          "midi": 71,
          "time": 111.0000000000011,
          "velocity": 0.4566929133858268,
          "duration": 0.29999999999999716
        },
        {
          "name": "E3",
          "midi": 52,
          "time": 111.0000000000011,
          "velocity": 0.30708661417322836,
          "duration": 0.14999999999999147
        },
        {
          "name": "F#3",
          "midi": 54,
          "time": 111.15000000000109,
          "velocity": 0.31496062992125984,
          "duration": 0.15000000000000568
        },
        {
          "name": "A4",
          "midi": 69,
          "time": 111.30000000000109,
          "velocity": 0.4409448818897638,
          "duration": 0.30000000000001137
        },
        {
          "name": "C#5",
          "midi": 73,
          "time": 111.30000000000109,
          "velocity": 0.4409448818897638,
          "duration": 0.30000000000001137
        },
        {
          "name": "A3",
          "midi": 57,
          "time": 111.30000000000109,
          "velocity": 0.33070866141732286,
          "duration": 0.15000000000000568
        },
        {
          "name": "C#4",
          "midi": 61,
          "time": 111.4500000000011,
          "velocity": 0.33858267716535434,
          "duration": 0.15000000000000568
        },
        {
          "name": "B4",
          "midi": 71,
          "time": 111.6000000000011,
          "velocity": 0.44881889763779526,
          "duration": 0.30000000000001137
        },
        {
          "name": "G#4",
          "midi": 68,
          "time": 111.6000000000011,
          "velocity": 0.44881889763779526,
          "duration": 0.30000000000001137
        },
        {
          "name": "E4",
          "midi": 64,
          "time": 111.6000000000011,
          "velocity": 0.33070866141732286,
          "duration": 0.15000000000000568
        },
        {
          "name": "C#4",
          "midi": 61,
          "time": 111.75000000000111,
          "velocity": 0.33070866141732286,
          "duration": 0.15000000000000568
        },
        {
          "name": "F#4",
          "midi": 66,
          "time": 111.90000000000111,
          "velocity": 0.4094488188976378,
          "duration": 0.30000000000001137
        },
        {
          "name": "A4",
          "midi": 69,
          "time": 111.90000000000111,
          "velocity": 0.4094488188976378,
          "duration": 0.30000000000001137
        },
        {
          "name": "A3",
          "midi": 57,
          "time": 111.90000000000111,
          "velocity": 0.31496062992125984,
          "duration": 0.15000000000000568
        },
        {
          "name": "F#3",
          "midi": 54,
          "time": 112.05000000000112,
          "velocity": 0.31496062992125984,
          "duration": 0.15000000000000568
        },
        {
          "name": "G#4",
          "midi": 68,
          "time": 112.20000000000113,
          "velocity": 0.3858267716535433,
          "duration": 0.6000000000000227
        },
        {
          "name": "E4",
          "midi": 64,
          "time": 112.20000000000113,
          "velocity": 0.3858267716535433,
          "duration": 0.6000000000000227
        },
        {
          "name": "E3",
          "midi": 52,
          "time": 112.20000000000113,
          "velocity": 0.30708661417322836,
          "duration": 0.15000000000000568
        },
        {
          "name": "C#3",
          "midi": 49,
          "time": 112.35000000000113,
          "velocity": 0.2992125984251969,
          "duration": 0.15000000000000568
        },
        {
          "name": "A3",
          "midi": 57,
          "time": 112.50000000000114,
          "velocity": 0.36220472440944884,
          "duration": 0.9000000000000341
        },
        {
          "name": "F#2",
          "midi": 42,
          "time": 112.50000000000114,
          "velocity": 0.29133858267716534,
          "duration": 0.15000000000000568
        },
        {
          "name": "C#3",
          "midi": 49,
          "time": 112.65000000000114,
          "velocity": 0.2677165354330709,
          "duration": 0.15000000000000568
        },
        {
          "name": "F#4",
          "midi": 66,
          "time": 112.80000000000115,
          "velocity": 0.33858267716535434,
          "duration": 0.30000000000001137
        },
        {
          "name": "D#4",
          "midi": 63,
          "time": 112.80000000000115,
          "velocity": 0.33858267716535434,
          "duration": 0.30000000000001137
        },
        {
          "name": "F#2",
          "midi": 42,
          "time": 112.80000000000115,
          "velocity": 0.29133858267716534,
          "duration": 0.15000000000000568
        },
        {
          "name": "C#3",
          "midi": 49,
          "time": 112.95000000000115,
          "velocity": 0.2677165354330709,
          "duration": 0.15000000000000568
        },
        {
          "name": "C#4",
          "midi": 61,
          "time": 113.10000000000116,
          "velocity": 0.31496062992125984,
          "duration": 0.30000000000001137
        },
        {
          "name": "E4",
          "midi": 64,
          "time": 113.10000000000116,
          "velocity": 0.31496062992125984,
          "duration": 0.30000000000001137
        },
        {
          "name": "F#2",
          "midi": 42,
          "time": 113.10000000000116,
          "velocity": 0.29133858267716534,
          "duration": 0.15000000000000568
        },
        {
          "name": "C#3",
          "midi": 49,
          "time": 113.25000000000117,
          "velocity": 0.2677165354330709,
          "duration": 0.15000000000000568
        },
        {
          "name": "C#4",
          "midi": 61,
          "time": 113.40000000000117,
          "velocity": 0.29133858267716534,
          "duration": 1.8000000000000682
        },
        {
          "name": "D#4",
          "midi": 63,
          "time": 113.40000000000117,
          "velocity": 0.31496062992125984,
          "duration": 1.8000000000000682
        },
        {
          "name": "F#3",
          "midi": 54,
          "time": 113.40000000000117,
          "velocity": 0.29133858267716534,
          "duration": 0.6000000000000227
        },
        {
          "name": "G#2",
          "midi": 44,
          "time": 113.40000000000117,
          "velocity": 0.25196850393700787,
          "duration": 0.15000000000000568
        },
        {
          "name": "D#3",
          "midi": 51,
          "time": 113.55000000000118,
          "velocity": 0.2440944881889764,
          "duration": 0.15000000000000568
        },
        {
          "name": "G#2",
          "midi": 44,
          "time": 113.70000000000118,
          "velocity": 0.25984251968503935,
          "duration": 0.15000000000000568
        },
        {
          "name": "D#3",
          "midi": 51,
          "time": 113.85000000000119,
          "velocity": 0.2440944881889764,
          "duration": 0.15000000000000568
        },
        {
          "name": "G#3",
          "midi": 56,
          "time": 114.0000000000012,
          "velocity": 0.28346456692913385,
          "duration": 0.30000000000001137
        },
        {
          "name": "G#2",
          "midi": 44,
          "time": 114.0000000000012,
          "velocity": 0.25984251968503935,
          "duration": 0.15000000000000568
        },
        {
          "name": "D#3",
          "midi": 51,
          "time": 114.1500000000012,
          "velocity": 0.25196850393700787,
          "duration": 0.15000000000000568
        },
        {
          "name": "A#3",
          "midi": 58,
          "time": 114.3000000000012,
          "velocity": 0.2992125984251969,
          "duration": 0.6000000000000227
        },
        {
          "name": "G#2",
          "midi": 44,
          "time": 114.3000000000012,
          "velocity": 0.2677165354330709,
          "duration": 0.15000000000000568
        },
        {
          "name": "D#3",
          "midi": 51,
          "time": 114.45000000000121,
          "velocity": 0.25196850393700787,
          "duration": 0.15000000000000568
        },
        {
          "name": "G#2",
          "midi": 44,
          "time": 114.60000000000122,
          "velocity": 0.2677165354330709,
          "duration": 0.15000000000000568
        },
        {
          "name": "D#3",
          "midi": 51,
          "time": 114.75000000000122,
          "velocity": 0.2677165354330709,
          "duration": 0.15000000000000568
        },
        {
          "name": "C#4",
          "midi": 61,
          "time": 114.90000000000123,
          "velocity": 0.29133858267716534,
          "duration": 0.30000000000001137
        },
        {
          "name": "G#2",
          "midi": 44,
          "time": 114.90000000000123,
          "velocity": 0.28346456692913385,
          "duration": 0.15000000000000568
        },
        {
          "name": "D#3",
          "midi": 51,
          "time": 115.05000000000123,
          "velocity": 0.2677165354330709,
          "duration": 0.15000000000000568
        },
        {
          "name": "F#4",
          "midi": 66,
          "time": 115.20000000000124,
          "velocity": 0.3464566929133858,
          "duration": 0.6000000000000085
        },
        {
          "name": "C4",
          "midi": 60,
          "time": 115.20000000000124,
          "velocity": 0.29133858267716534,
          "duration": 0.9000000000000199
        },
        {
          "name": "D#4",
          "midi": 63,
          "time": 115.20000000000124,
          "velocity": 0.29133858267716534,
          "duration": 0.6000000000000085
        },
        {
          "name": "G#2",
          "midi": 44,
          "time": 115.20000000000124,
          "velocity": 0.25984251968503935,
          "duration": 0.14999999999999147
        },
        {
          "name": "D#3",
          "midi": 51,
          "time": 115.35000000000123,
          "velocity": 0.2440944881889764,
          "duration": 0.15000000000000568
        },
        {
          "name": "G#2",
          "midi": 44,
          "time": 115.50000000000124,
          "velocity": 0.25984251968503935,
          "duration": 0.15000000000000568
        },
        {
          "name": "D#3",
          "midi": 51,
          "time": 115.65000000000124,
          "velocity": 0.2440944881889764,
          "duration": 0.15000000000000568
        },
        {
          "name": "D#4",
          "midi": 63,
          "time": 115.80000000000125,
          "velocity": 0.31496062992125984,
          "duration": 0.30000000000001137
        },
        {
          "name": "F#4",
          "midi": 66,
          "time": 115.80000000000125,
          "velocity": 0.29133858267716534,
          "duration": 0.30000000000001137
        },
        {
          "name": "A#4",
          "midi": 70,
          "time": 115.80000000000125,
          "velocity": 0.3464566929133858,
          "duration": 0.30000000000001137
        },
        {
          "name": "G#2",
          "midi": 44,
          "time": 115.80000000000125,
          "velocity": 0.25984251968503935,
          "duration": 0.15000000000000568
        },
        {
          "name": "D#3",
          "midi": 51,
          "time": 115.95000000000125,
          "velocity": 0.2440944881889764,
          "duration": 0.15000000000000568
        },
        {
          "name": "C#4",
          "midi": 61,
          "time": 116.10000000000126,
          "velocity": 0.29133858267716534,
          "duration": 1.800000000000054
        },
        {
          "name": "D#4",
          "midi": 63,
          "time": 116.10000000000126,
          "velocity": 0.31496062992125984,
          "duration": 1.800000000000054
        },
        {
          "name": "F#3",
          "midi": 54,
          "time": 116.10000000000126,
          "velocity": 0.29133858267716534,
          "duration": 0.6000000000000085
        },
        {
          "name": "G#2",
          "midi": 44,
          "time": 116.10000000000126,
          "velocity": 0.25196850393700787,
          "duration": 0.14999999999999147
        },
        {
          "name": "D#3",
          "midi": 51,
          "time": 116.25000000000125,
          "velocity": 0.2440944881889764,
          "duration": 0.15000000000000568
        },
        {
          "name": "G#2",
          "midi": 44,
          "time": 116.40000000000126,
          "velocity": 0.25984251968503935,
          "duration": 0.15000000000000568
        },
        {
          "name": "D#3",
          "midi": 51,
          "time": 116.55000000000126,
          "velocity": 0.2440944881889764,
          "duration": 0.15000000000000568
        },
        {
          "name": "G#3",
          "midi": 56,
          "time": 116.70000000000127,
          "velocity": 0.2677165354330709,
          "duration": 0.30000000000001137
        },
        {
          "name": "G#2",
          "midi": 44,
          "time": 116.70000000000127,
          "velocity": 0.25984251968503935,
          "duration": 0.15000000000000568
        },
        {
          "name": "D#3",
          "midi": 51,
          "time": 116.85000000000127,
          "velocity": 0.25196850393700787,
          "duration": 0.15000000000000568
        },
        {
          "name": "A#3",
          "midi": 58,
          "time": 117.00000000000128,
          "velocity": 0.2992125984251969,
          "duration": 0.6000000000000227
        },
        {
          "name": "G#2",
          "midi": 44,
          "time": 117.00000000000128,
          "velocity": 0.2677165354330709,
          "duration": 0.15000000000000568
        },
        {
          "name": "D#3",
          "midi": 51,
          "time": 117.15000000000128,
          "velocity": 0.25196850393700787,
          "duration": 0.15000000000000568
        },
        {
          "name": "G#2",
          "midi": 44,
          "time": 117.30000000000129,
          "velocity": 0.2677165354330709,
          "duration": 0.15000000000000568
        },
        {
          "name": "D#3",
          "midi": 51,
          "time": 117.4500000000013,
          "velocity": 0.25984251968503935,
          "duration": 0.15000000000000568
        },
        {
          "name": "C#4",
          "midi": 61,
          "time": 117.6000000000013,
          "velocity": 0.29133858267716534,
          "duration": 0.30000000000001137
        },
        {
          "name": "G#2",
          "midi": 44,
          "time": 117.6000000000013,
          "velocity": 0.28346456692913385,
          "duration": 0.15000000000000568
        },
        {
          "name": "D#3",
          "midi": 51,
          "time": 117.75000000000131,
          "velocity": 0.2677165354330709,
          "duration": 0.15000000000000568
        },
        {
          "name": "F#4",
          "midi": 66,
          "time": 117.90000000000131,
          "velocity": 0.31496062992125984,
          "duration": 0.6000000000000085
        },
        {
          "name": "C4",
          "midi": 60,
          "time": 117.90000000000131,
          "velocity": 0.29133858267716534,
          "duration": 0.9000000000000199
        },
        {
          "name": "D#4",
          "midi": 63,
          "time": 117.90000000000131,
          "velocity": 0.29133858267716534,
          "duration": 0.6000000000000085
        },
        {
          "name": "G#2",
          "midi": 44,
          "time": 117.90000000000131,
          "velocity": 0.25984251968503935,
          "duration": 0.14999999999999147
        },
        {
          "name": "D#3",
          "midi": 51,
          "time": 118.0500000000013,
          "velocity": 0.2440944881889764,
          "duration": 0.15000000000000568
        },
        {
          "name": "G#2",
          "midi": 44,
          "time": 118.20000000000131,
          "velocity": 0.25984251968503935,
          "duration": 0.15000000000000568
        },
        {
          "name": "D#3",
          "midi": 51,
          "time": 118.35000000000132,
          "velocity": 0.2440944881889764,
          "duration": 0.15000000000000568
        },
        {
          "name": "D#4",
          "midi": 63,
          "time": 118.50000000000132,
          "velocity": 0.28346456692913385,
          "duration": 0.30000000000001137
        },
        {
          "name": "F#4",
          "midi": 66,
          "time": 118.50000000000132,
          "velocity": 0.28346456692913385,
          "duration": 0.5750000000000028
        },
        {
          "name": "A#4",
          "midi": 70,
          "time": 118.50000000000132,
          "velocity": 0.30708661417322836,
          "duration": 0.5750000000000028
        },
        {
          "name": "G#2",
          "midi": 44,
          "time": 118.50000000000132,
          "velocity": 0.25984251968503935,
          "duration": 0.15000000000000568
        },
        {
          "name": "D#3",
          "midi": 51,
          "time": 118.65000000000133,
          "velocity": 0.2440944881889764,
          "duration": 0.15000000000000568
        },
        {
          "name": "C#4",
          "midi": 61,
          "time": 118.80000000000133,
          "velocity": 0.2677165354330709,
          "duration": 0.2749999999999915
        },
        {
          "name": "G#2",
          "midi": 44,
          "time": 118.80000000000133,
          "velocity": 0.29133858267716534,
          "duration": 0.14999999999999147
        },
        {
          "name": "D#2",
          "midi": 39,
          "time": 118.95000000000132,
          "velocity": 0.25984251968503935,
          "duration": 0.15000000000000568
        },
        {
          "name": "G#4",
          "midi": 68,
          "time": 119.10000000000133,
          "velocity": 0.30708661417322836,
          "duration": 0.30000000000001137
        },
        {
          "name": "F5",
          "midi": 77,
          "time": 119.10000000000133,
          "velocity": 0.33070866141732286,
          "duration": 0.30000000000001137
        },
        {
          "name": "C5",
          "midi": 72,
          "time": 119.10000000000133,
          "velocity": 0.30708661417322836,
          "duration": 0.30000000000001137
        },
        {
          "name": "G#2",
          "midi": 44,
          "time": 119.10000000000133,
          "velocity": 0.29133858267716534,
          "duration": 0.15000000000000568
        },
        {
          "name": "D#3",
          "midi": 51,
          "time": 119.25000000000134,
          "velocity": 0.28346456692913385,
          "duration": 0.15000000000000568
        },
        {
          "name": "A#4",
          "midi": 70,
          "time": 119.40000000000134,
          "velocity": 0.2992125984251969,
          "duration": 0.30000000000001137
        },
        {
          "name": "D#5",
          "midi": 75,
          "time": 119.40000000000134,
          "velocity": 0.3228346456692913,
          "duration": 0.30000000000001137
        },
        {
          "name": "F#4",
          "midi": 66,
          "time": 119.40000000000134,
          "velocity": 0.2992125984251969,
          "duration": 0.30000000000001137
        },
        {
          "name": "G#2",
          "midi": 44,
          "time": 119.40000000000134,
          "velocity": 0.29133858267716534,
          "duration": 0.15000000000000568
        },
        {
          "name": "D#3",
          "midi": 51,
          "time": 119.55000000000135,
          "velocity": 0.28346456692913385,
          "duration": 0.15000000000000568
        },
        {
          "name": "C#4",
          "midi": 61,
          "time": 119.70000000000135,
          "velocity": 0.28346456692913385,
          "duration": 0.29999999999999716
        },
        {
          "name": "F#4",
          "midi": 66,
          "time": 119.70000000000135,
          "velocity": 0.28346456692913385,
          "duration": 0.9000000000000199
        },
        {
          "name": "A#4",
          "midi": 70,
          "time": 119.70000000000135,
          "velocity": 0.30708661417322836,
          "duration": 0.9000000000000199
        },
        {
          "name": "G#3",
          "midi": 56,
          "time": 119.70000000000135,
          "velocity": 0.30708661417322836,
          "duration": 0.14999999999999147
        },
        {
          "name": "D#3",
          "midi": 51,
          "time": 119.85000000000134,
          "velocity": 0.2677165354330709,
          "duration": 0.15000000000000568
        },
        {
          "name": "A#3",
          "midi": 58,
          "time": 120.00000000000135,
          "velocity": 0.2677165354330709,
          "duration": 0.30000000000001137
        },
        {
          "name": "G#3",
          "midi": 56,
          "time": 120.00000000000135,
          "velocity": 0.29133858267716534,
          "duration": 0.15000000000000568
        },
        {
          "name": "D#4",
          "midi": 63,
          "time": 120.15000000000136,
          "velocity": 0.2677165354330709,
          "duration": 0.15000000000000568
        },
        {
          "name": "C#4",
          "midi": 61,
          "time": 120.30000000000136,
          "velocity": 0.2677165354330709,
          "duration": 0.30000000000001137
        },
        {
          "name": "G#3",
          "midi": 56,
          "time": 120.30000000000136,
          "velocity": 0.28346456692913385,
          "duration": 0.15000000000000568
        },
        {
          "name": "D#3",
          "midi": 51,
          "time": 120.45000000000137,
          "velocity": 0.2677165354330709,
          "duration": 0.15000000000000568
        },
        {
          "name": "A#3",
          "midi": 58,
          "time": 120.60000000000137,
          "velocity": 0.2440944881889764,
          "duration": 0.29999999999999716
        },
        {
          "name": "G#4",
          "midi": 68,
          "time": 120.60000000000137,
          "velocity": 0.28346456692913385,
          "duration": 0.9000000000000199
        },
        {
          "name": "F#4",
          "midi": 66,
          "time": 120.60000000000137,
          "velocity": 0.25984251968503935,
          "duration": 0.9000000000000199
        },
        {
          "name": "G#3",
          "midi": 56,
          "time": 120.60000000000137,
          "velocity": 0.29133858267716534,
          "duration": 0.14999999999999147
        },
        {
          "name": "D#3",
          "midi": 51,
          "time": 120.75000000000136,
          "velocity": 0.2677165354330709,
          "duration": 0.15000000000000568
        },
        {
          "name": "C4",
          "midi": 60,
          "time": 120.90000000000137,
          "velocity": 0.2677165354330709,
          "duration": 0.30000000000001137
        },
        {
          "name": "G#2",
          "midi": 44,
          "time": 120.90000000000137,
          "velocity": 0.2677165354330709,
          "duration": 0.15000000000000568
        },
        {
          "name": "D#3",
          "midi": 51,
          "time": 121.05000000000138,
          "velocity": 0.25984251968503935,
          "duration": 0.15000000000000568
        },
        {
          "name": "D#4",
          "midi": 63,
          "time": 121.20000000000138,
          "velocity": 0.2677165354330709,
          "duration": 0.30000000000001137
        },
        {
          "name": "G#2",
          "midi": 44,
          "time": 121.20000000000138,
          "velocity": 0.2677165354330709,
          "duration": 0.15000000000000568
        },
        {
          "name": "D#2",
          "midi": 39,
          "time": 121.35000000000139,
          "velocity": 0.25984251968503935,
          "duration": 0.15000000000000568
        },
        {
          "name": "F#4",
          "midi": 66,
          "time": 121.50000000000139,
          "velocity": 0.2677165354330709,
          "duration": 0.2749999999999915
        },
        {
          "name": "A#4",
          "midi": 70,
          "time": 121.50000000000139,
          "velocity": 0.2677165354330709,
          "duration": 0.2749999999999915
        },
        {
          "name": "C#4",
          "midi": 61,
          "time": 121.50000000000139,
          "velocity": 0.2677165354330709,
          "duration": 0.2749999999999915
        },
        {
          "name": "G#2",
          "midi": 44,
          "time": 121.50000000000139,
          "velocity": 0.29133858267716534,
          "duration": 0.14999999999999147
        },
        {
          "name": "D#2",
          "midi": 39,
          "time": 121.65000000000138,
          "velocity": 0.25984251968503935,
          "duration": 0.15000000000000568
        },
        {
          "name": "G#4",
          "midi": 68,
          "time": 121.80000000000139,
          "velocity": 0.30708661417322836,
          "duration": 0.30000000000001137
        },
        {
          "name": "F5",
          "midi": 77,
          "time": 121.80000000000139,
          "velocity": 0.33070866141732286,
          "duration": 0.30000000000001137
        },
        {
          "name": "C5",
          "midi": 72,
          "time": 121.80000000000139,
          "velocity": 0.30708661417322836,
          "duration": 0.30000000000001137
        },
        {
          "name": "G#2",
          "midi": 44,
          "time": 121.80000000000139,
          "velocity": 0.29133858267716534,
          "duration": 0.15000000000000568
        },
        {
          "name": "D#3",
          "midi": 51,
          "time": 121.9500000000014,
          "velocity": 0.28346456692913385,
          "duration": 0.15000000000000568
        },
        {
          "name": "F#4",
          "midi": 66,
          "time": 122.1000000000014,
          "velocity": 0.2992125984251969,
          "duration": 0.30000000000001137
        },
        {
          "name": "D#5",
          "midi": 75,
          "time": 122.1000000000014,
          "velocity": 0.3228346456692913,
          "duration": 0.30000000000001137
        },
        {
          "name": "A#4",
          "midi": 70,
          "time": 122.1000000000014,
          "velocity": 0.2992125984251969,
          "duration": 0.30000000000001137
        },
        {
          "name": "G#2",
          "midi": 44,
          "time": 122.1000000000014,
          "velocity": 0.29133858267716534,
          "duration": 0.15000000000000568
        },
        {
          "name": "D#3",
          "midi": 51,
          "time": 122.2500000000014,
          "velocity": 0.28346456692913385,
          "duration": 0.15000000000000568
        },
        {
          "name": "F#4",
          "midi": 66,
          "time": 122.40000000000141,
          "velocity": 0.28346456692913385,
          "duration": 0.9000000000000341
        },
        {
          "name": "A#4",
          "midi": 70,
          "time": 122.40000000000141,
          "velocity": 0.30708661417322836,
          "duration": 0.9000000000000341
        },
        {
          "name": "C#4",
          "midi": 61,
          "time": 122.40000000000141,
          "velocity": 0.28346456692913385,
          "duration": 0.30000000000001137
        },
        {
          "name": "G#3",
          "midi": 56,
          "time": 122.40000000000141,
          "velocity": 0.30708661417322836,
          "duration": 0.15000000000000568
        },
        {
          "name": "D#3",
          "midi": 51,
          "time": 122.55000000000142,
          "velocity": 0.2677165354330709,
          "duration": 0.15000000000000568
        },
        {
          "name": "A#3",
          "midi": 58,
          "time": 122.70000000000142,
          "velocity": 0.2677165354330709,
          "duration": 0.30000000000001137
        },
        {
          "name": "G#3",
          "midi": 56,
          "time": 122.70000000000142,
          "velocity": 0.29133858267716534,
          "duration": 0.15000000000000568
        },
        {
          "name": "D#4",
          "midi": 63,
          "time": 122.85000000000143,
          "velocity": 0.2677165354330709,
          "duration": 0.15000000000000568
        },
        {
          "name": "C#4",
          "midi": 61,
          "time": 123.00000000000144,
          "velocity": 0.2677165354330709,
          "duration": 0.30000000000001137
        },
        {
          "name": "G#3",
          "midi": 56,
          "time": 123.00000000000144,
          "velocity": 0.28346456692913385,
          "duration": 0.15000000000000568
        },
        {
          "name": "D#3",
          "midi": 51,
          "time": 123.15000000000144,
          "velocity": 0.2677165354330709,
          "duration": 0.15000000000000568
        },
        {
          "name": "A#3",
          "midi": 58,
          "time": 123.30000000000145,
          "velocity": 0.2440944881889764,
          "duration": 0.29999999999999716
        },
        {
          "name": "G#4",
          "midi": 68,
          "time": 123.30000000000145,
          "velocity": 0.28346456692913385,
          "duration": 0.9000000000000199
        },
        {
          "name": "F#4",
          "midi": 66,
          "time": 123.30000000000145,
          "velocity": 0.25984251968503935,
          "duration": 0.9000000000000199
        },
        {
          "name": "G#3",
          "midi": 56,
          "time": 123.30000000000145,
          "velocity": 0.29133858267716534,
          "duration": 0.14999999999999147
        },
        {
          "name": "D#3",
          "midi": 51,
          "time": 123.45000000000144,
          "velocity": 0.29133858267716534,
          "duration": 0.15000000000000568
        },
        {
          "name": "C4",
          "midi": 60,
          "time": 123.60000000000144,
          "velocity": 0.2677165354330709,
          "duration": 0.30000000000001137
        },
        {
          "name": "G#3",
          "midi": 56,
          "time": 123.60000000000144,
          "velocity": 0.2677165354330709,
          "duration": 0.15000000000000568
        },
        {
          "name": "D#3",
          "midi": 51,
          "time": 123.75000000000145,
          "velocity": 0.25984251968503935,
          "duration": 0.15000000000000568
        },
        {
          "name": "D#4",
          "midi": 63,
          "time": 123.90000000000146,
          "velocity": 0.2677165354330709,
          "duration": 0.30000000000001137
        },
        {
          "name": "G#3",
          "midi": 56,
          "time": 123.90000000000146,
          "velocity": 0.2677165354330709,
          "duration": 0.15000000000000568
        },
        {
          "name": "D#3",
          "midi": 51,
          "time": 124.05000000000146,
          "velocity": 0.25984251968503935,
          "duration": 0.15000000000000568
        },
        {
          "name": "D#5",
          "midi": 75,
          "time": 124.20000000000147,
          "velocity": 0.3779527559055118,
          "duration": 1.800000000000054
        },
        {
          "name": "C#4",
          "midi": 61,
          "time": 124.20000000000147,
          "velocity": 0.31496062992125984,
          "duration": 1.800000000000054
        },
        {
          "name": "F#3",
          "midi": 54,
          "time": 124.20000000000147,
          "velocity": 0.31496062992125984,
          "duration": 0.6000000000000085
        },
        {
          "name": "D#4",
          "midi": 63,
          "time": 124.35000000000146,
          "velocity": 0.25196850393700787,
          "duration": 0.15000000000000568
        },
        {
          "name": "F#4",
          "midi": 66,
          "time": 124.50000000000146,
          "velocity": 0.2677165354330709,
          "duration": 0.15000000000000568
        },
        {
          "name": "A#4",
          "midi": 70,
          "time": 124.65000000000147,
          "velocity": 0.25196850393700787,
          "duration": 0.15000000000000568
        },
        {
          "name": "F#4",
          "midi": 66,
          "time": 124.80000000000148,
          "velocity": 0.2677165354330709,
          "duration": 0.15000000000000568
        },
        {
          "name": "G#3",
          "midi": 56,
          "time": 124.80000000000148,
          "velocity": 0.30708661417322836,
          "duration": 0.30000000000001137
        },
        {
          "name": "D#4",
          "midi": 63,
          "time": 124.95000000000148,
          "velocity": 0.25196850393700787,
          "duration": 0.15000000000000568
        },
        {
          "name": "A#3",
          "midi": 58,
          "time": 125.10000000000149,
          "velocity": 0.33070866141732286,
          "duration": 0.6000000000000227
        },
        {
          "name": "D#4",
          "midi": 63,
          "time": 125.25000000000149,
          "velocity": 0.25196850393700787,
          "duration": 0.15000000000000568
        },
        {
          "name": "F#4",
          "midi": 66,
          "time": 125.4000000000015,
          "velocity": 0.28346456692913385,
          "duration": 0.15000000000000568
        },
        {
          "name": "A#4",
          "midi": 70,
          "time": 125.5500000000015,
          "velocity": 0.25196850393700787,
          "duration": 0.15000000000000568
        },
        {
          "name": "F#4",
          "midi": 66,
          "time": 125.70000000000151,
          "velocity": 0.28346456692913385,
          "duration": 0.15000000000000568
        },
        {
          "name": "C#4",
          "midi": 61,
          "time": 125.70000000000151,
          "velocity": 0.31496062992125984,
          "duration": 0.30000000000001137
        },
        {
          "name": "D#4",
          "midi": 63,
          "time": 125.85000000000151,
          "velocity": 0.25196850393700787,
          "duration": 0.15000000000000568
        },
        {
          "name": "F#5",
          "midi": 78,
          "time": 126.00000000000152,
          "velocity": 0.41732283464566927,
          "duration": 0.6000000000000085
        },
        {
          "name": "C4",
          "midi": 60,
          "time": 126.00000000000152,
          "velocity": 0.31496062992125984,
          "duration": 0.9000000000000199
        },
        {
          "name": "D#4",
          "midi": 63,
          "time": 126.15000000000151,
          "velocity": 0.23622047244094488,
          "duration": 0.15000000000000568
        },
        {
          "name": "F#4",
          "midi": 66,
          "time": 126.30000000000152,
          "velocity": 0.23622047244094488,
          "duration": 0.15000000000000568
        },
        {
          "name": "A#4",
          "midi": 70,
          "time": 126.45000000000152,
          "velocity": 0.23622047244094488,
          "duration": 0.15000000000000568
        },
        {
          "name": "A#5",
          "midi": 82,
          "time": 126.60000000000153,
          "velocity": 0.3937007874015748,
          "duration": 0.30000000000001137
        },
        {
          "name": "C5",
          "midi": 72,
          "time": 126.60000000000153,
          "velocity": 0.23622047244094488,
          "duration": 0.15000000000000568
        },
        {
          "name": "D#5",
          "midi": 75,
          "time": 126.75000000000153,
          "velocity": 0.25196850393700787,
          "duration": 0.15000000000000568
        },
        {
          "name": "D#5",
          "midi": 75,
          "time": 126.90000000000154,
          "velocity": 0.3779527559055118,
          "duration": 1.8000000000000682
        },
        {
          "name": "C#4",
          "midi": 61,
          "time": 126.90000000000154,
          "velocity": 0.31496062992125984,
          "duration": 1.8000000000000682
        },
        {
          "name": "F#3",
          "midi": 54,
          "time": 126.90000000000154,
          "velocity": 0.31496062992125984,
          "duration": 0.6000000000000227
        },
        {
          "name": "D#4",
          "midi": 63,
          "time": 127.05000000000155,
          "velocity": 0.25196850393700787,
          "duration": 0.15000000000000568
        },
        {
          "name": "F#4",
          "midi": 66,
          "time": 127.20000000000155,
          "velocity": 0.2677165354330709,
          "duration": 0.15000000000000568
        },
        {
          "name": "A#4",
          "midi": 70,
          "time": 127.35000000000156,
          "velocity": 0.25196850393700787,
          "duration": 0.15000000000000568
        },
        {
          "name": "F#4",
          "midi": 66,
          "time": 127.50000000000156,
          "velocity": 0.2677165354330709,
          "duration": 0.15000000000000568
        },
        {
          "name": "G#3",
          "midi": 56,
          "time": 127.50000000000156,
          "velocity": 0.30708661417322836,
          "duration": 0.30000000000001137
        },
        {
          "name": "D#4",
          "midi": 63,
          "time": 127.65000000000157,
          "velocity": 0.25196850393700787,
          "duration": 0.15000000000000568
        },
        {
          "name": "A#3",
          "midi": 58,
          "time": 127.80000000000157,
          "velocity": 0.33070866141732286,
          "duration": 0.6000000000000227
        },
        {
          "name": "D#4",
          "midi": 63,
          "time": 127.95000000000158,
          "velocity": 0.25196850393700787,
          "duration": 0.15000000000000568
        },
        {
          "name": "F#4",
          "midi": 66,
          "time": 128.1000000000016,
          "velocity": 0.28346456692913385,
          "duration": 0.15000000000000568
        },
        {
          "name": "A#4",
          "midi": 70,
          "time": 128.2500000000016,
          "velocity": 0.25196850393700787,
          "duration": 0.15000000000000568
        },
        {
          "name": "F#4",
          "midi": 66,
          "time": 128.4000000000016,
          "velocity": 0.28346456692913385,
          "duration": 0.15000000000000568
        },
        {
          "name": "C#4",
          "midi": 61,
          "time": 128.4000000000016,
          "velocity": 0.31496062992125984,
          "duration": 0.30000000000001137
        },
        {
          "name": "D#4",
          "midi": 63,
          "time": 128.5500000000016,
          "velocity": 0.25196850393700787,
          "duration": 0.15000000000000568
        },
        {
          "name": "F#5",
          "midi": 78,
          "time": 128.7000000000016,
          "velocity": 0.41732283464566927,
          "duration": 0.6000000000000227
        },
        {
          "name": "C4",
          "midi": 60,
          "time": 128.7000000000016,
          "velocity": 0.31496062992125984,
          "duration": 0.9000000000000341
        },
        {
          "name": "D#4",
          "midi": 63,
          "time": 128.85000000000161,
          "velocity": 0.23622047244094488,
          "duration": 0.15000000000000568
        },
        {
          "name": "F#4",
          "midi": 66,
          "time": 129.00000000000162,
          "velocity": 0.23622047244094488,
          "duration": 0.15000000000000568
        },
        {
          "name": "A#4",
          "midi": 70,
          "time": 129.15000000000163,
          "velocity": 0.23622047244094488,
          "duration": 0.15000000000000568
        },
        {
          "name": "C5",
          "midi": 72,
          "time": 129.30000000000163,
          "velocity": 0.25196850393700787,
          "duration": 0.15000000000000568
        },
        {
          "name": "A#5",
          "midi": 82,
          "time": 129.30000000000163,
          "velocity": 0.4094488188976378,
          "duration": 0.30000000000001137
        },
        {
          "name": "D#5",
          "midi": 75,
          "time": 129.45000000000164,
          "velocity": 0.25196850393700787,
          "duration": 0.15000000000000568
        },
        {
          "name": "D#6",
          "midi": 87,
          "time": 129.60000000000164,
          "velocity": 0.4094488188976378,
          "duration": 3.5999999999999943
        },
        {
          "name": "F#4",
          "midi": 66,
          "time": 129.60000000000164,
          "velocity": 0.3464566929133858,
          "duration": 1.049999999999983
        },
        {
          "name": "A#4",
          "midi": 70,
          "time": 129.75000000000162,
          "velocity": 0.29133858267716534,
          "duration": 0.15000000000000568
        },
        {
          "name": "C#5",
          "midi": 73,
          "time": 129.90000000000163,
          "velocity": 0.29133858267716534,
          "duration": 0.15000000000000568
        },
        {
          "name": "D#5",
          "midi": 75,
          "time": 130.05000000000163,
          "velocity": 0.28346456692913385,
          "duration": 0.14999999999997726
        },
        {
          "name": "F#5",
          "midi": 78,
          "time": 130.2000000000016,
          "velocity": 0.25984251968503935,
          "duration": 0.15000000000000568
        },
        {
          "name": "A#5",
          "midi": 82,
          "time": 130.35000000000161,
          "velocity": 0.25196850393700787,
          "duration": 0.15000000000000568
        },
        {
          "name": "F#4",
          "midi": 66,
          "time": 130.50000000000162,
          "velocity": 0.28346456692913385,
          "duration": 1.0500000000000114
        },
        {
          "name": "A#4",
          "midi": 70,
          "time": 130.65000000000163,
          "velocity": 0.25196850393700787,
          "duration": 0.15000000000000568
        },
        {
          "name": "C#5",
          "midi": 73,
          "time": 130.80000000000163,
          "velocity": 0.25196850393700787,
          "duration": 0.15000000000000568
        },
        {
          "name": "D#5",
          "midi": 75,
          "time": 130.95000000000164,
          "velocity": 0.28346456692913385,
          "duration": 0.15000000000000568
        },
        {
          "name": "F#5",
          "midi": 78,
          "time": 131.10000000000164,
          "velocity": 0.25984251968503935,
          "duration": 0.15000000000000568
        },
        {
          "name": "C6",
          "midi": 84,
          "time": 131.25000000000165,
          "velocity": 0.25196850393700787,
          "duration": 0.15000000000000568
        },
        {
          "name": "F#4",
          "midi": 66,
          "time": 131.40000000000165,
          "velocity": 0.29133858267716534,
          "duration": 0.8999999999999773
        },
        {
          "name": "A#4",
          "midi": 70,
          "time": 131.55000000000163,
          "velocity": 0.2440944881889764,
          "duration": 0.15000000000000568
        },
        {
          "name": "C#5",
          "midi": 73,
          "time": 131.70000000000164,
          "velocity": 0.2440944881889764,
          "duration": 0.15000000000000568
        },
        {
          "name": "D#5",
          "midi": 75,
          "time": 131.85000000000164,
          "velocity": 0.25984251968503935,
          "duration": 0.15000000000000568
        },
        {
          "name": "F#5",
          "midi": 78,
          "time": 132.00000000000165,
          "velocity": 0.25196850393700787,
          "duration": 0.15000000000000568
        },
        {
          "name": "A#5",
          "midi": 82,
          "time": 132.15000000000165,
          "velocity": 0.2440944881889764,
          "duration": 0.14999999999997726
        },
        {
          "name": "F#4",
          "midi": 66,
          "time": 132.30000000000163,
          "velocity": 0.30708661417322836,
          "duration": 1.049999999999983
        },
        {
          "name": "A4",
          "midi": 69,
          "time": 132.4500000000016,
          "velocity": 0.23622047244094488,
          "duration": 0.15000000000000568
        },
        {
          "name": "C#5",
          "midi": 73,
          "time": 132.60000000000161,
          "velocity": 0.23622047244094488,
          "duration": 0.15000000000000568
        },
        {
          "name": "D#5",
          "midi": 75,
          "time": 132.75000000000162,
          "velocity": 0.25196850393700787,
          "duration": 0.15000000000000568
        },
        {
          "name": "F#5",
          "midi": 78,
          "time": 132.90000000000163,
          "velocity": 0.2440944881889764,
          "duration": 0.15000000000000568
        },
        {
          "name": "A5",
          "midi": 81,
          "time": 133.05000000000163,
          "velocity": 0.2440944881889764,
          "duration": 0.15000000000000568
        },
        {
          "name": "C#6",
          "midi": 85,
          "time": 133.20000000000164,
          "velocity": 0.4094488188976378,
          "duration": 0.9000000000000057
        },
        {
          "name": "F#4",
          "midi": 66,
          "time": 133.20000000000164,
          "velocity": 0.2677165354330709,
          "duration": 1.0500000000000114
        },
        {
          "name": "A4",
          "midi": 69,
          "time": 133.35000000000161,
          "velocity": 0.23622047244094488,
          "duration": 0.15000000000000568
        },
        {
          "name": "C#5",
          "midi": 73,
          "time": 133.50000000000162,
          "velocity": 0.2204724409448819,
          "duration": 0.15000000000000568
        },
        {
          "name": "D#5",
          "midi": 75,
          "time": 133.65000000000163,
          "velocity": 0.2440944881889764,
          "duration": 0.15000000000000568
        },
        {
          "name": "F#5",
          "midi": 78,
          "time": 133.80000000000163,
          "velocity": 0.23622047244094488,
          "duration": 0.15000000000000568
        },
        {
          "name": "B5",
          "midi": 83,
          "time": 133.95000000000164,
          "velocity": 0.2204724409448819,
          "duration": 0.15000000000000568
        },
        {
          "name": "D#6",
          "midi": 87,
          "time": 134.10000000000164,
          "velocity": 0.4094488188976378,
          "duration": 0.9000000000001478
        },
        {
          "name": "F#4",
          "midi": 66,
          "time": 134.10000000000164,
          "velocity": 0.2677165354330709,
          "duration": 0.9000000000001478
        },
        {
          "name": "A4",
          "midi": 69,
          "time": 134.25000000000165,
          "velocity": 0.2204724409448819,
          "duration": 0.1500000000000341
        },
        {
          "name": "C#5",
          "midi": 73,
          "time": 134.40000000000168,
          "velocity": 0.2204724409448819,
          "duration": 0.1500000000000341
        },
        {
          "name": "D#5",
          "midi": 75,
          "time": 134.55000000000172,
          "velocity": 0.2204724409448819,
          "duration": 0.1500000000000341
        },
        {
          "name": "F#5",
          "midi": 78,
          "time": 134.70000000000175,
          "velocity": 0.2204724409448819,
          "duration": 0.1500000000000341
        },
        {
          "name": "A5",
          "midi": 81,
          "time": 134.85000000000178,
          "velocity": 0.2125984251968504,
          "duration": 0.15000000000000568
        },
        {
          "name": "F4",
          "midi": 65,
          "time": 135.0000000000018,
          "velocity": 0.25196850393700787,
          "duration": 1.8000000000000398
        },
        {
          "name": "G#4",
          "midi": 68,
          "time": 135.1500000000018,
          "velocity": 0.25196850393700787,
          "duration": 0.15000000000000568
        },
        {
          "name": "C5",
          "midi": 72,
          "time": 135.3000000000018,
          "velocity": 0.25196850393700787,
          "duration": 0.15000000000000568
        },
        {
          "name": "F5",
          "midi": 77,
          "time": 135.4500000000018,
          "velocity": 0.25196850393700787,
          "duration": 0.15000000000000568
        },
        {
          "name": "G#5",
          "midi": 80,
          "time": 135.6000000000018,
          "velocity": 0.25196850393700787,
          "duration": 0.15000000000000568
        },
        {
          "name": "C6",
          "midi": 84,
          "time": 135.75000000000182,
          "velocity": 0.25196850393700787,
          "duration": 0.15000000000000568
        },
        {
          "name": "F6",
          "midi": 89,
          "time": 135.90000000000182,
          "velocity": 0.2992125984251969,
          "duration": 0.9000000000000057
        },
        {
          "name": "G#6",
          "midi": 92,
          "time": 135.90000000000182,
          "velocity": 0.2992125984251969,
          "duration": 0.9000000000000057
        },
        {
          "name": "F6",
          "midi": 89,
          "time": 136.80000000000183,
          "velocity": 0.30708661417322836,
          "duration": 1.200000000000017
        },
        {
          "name": "F4",
          "midi": 65,
          "time": 136.80000000000183,
          "velocity": 0.2283464566929134,
          "duration": 0.8999999999999773
        },
        {
          "name": "F4",
          "midi": 65,
          "time": 137.7000000000018,
          "velocity": 0.23622047244094488,
          "duration": 1.8000000000000682
        },
        {
          "name": "A4",
          "midi": 69,
          "time": 137.8500000000018,
          "velocity": 0.23622047244094488,
          "duration": 0.1500000000000341
        },
        {
          "name": "C6",
          "midi": 84,
          "time": 138.00000000000185,
          "velocity": 0.25984251968503935,
          "duration": 0.30000000000001137
        },
        {
          "name": "D#6",
          "midi": 87,
          "time": 138.00000000000185,
          "velocity": 0.28346456692913385,
          "duration": 0.30000000000001137
        },
        {
          "name": "C5",
          "midi": 72,
          "time": 138.00000000000185,
          "velocity": 0.2283464566929134,
          "duration": 0.15000000000000568
        },
        {
          "name": "D#5",
          "midi": 75,
          "time": 138.15000000000185,
          "velocity": 0.2204724409448819,
          "duration": 0.15000000000000568
        },
        {
          "name": "F6",
          "midi": 89,
          "time": 138.30000000000186,
          "velocity": 0.2440944881889764,
          "duration": 0.3000000000000398
        },
        {
          "name": "C#6",
          "midi": 85,
          "time": 138.30000000000186,
          "velocity": 0.2283464566929134,
          "duration": 0.3000000000000398
        },
        {
          "name": "F5",
          "midi": 77,
          "time": 138.30000000000186,
          "velocity": 0.2125984251968504,
          "duration": 0.15000000000000568
        },
        {
          "name": "A5",
          "midi": 81,
          "time": 138.45000000000186,
          "velocity": 0.2125984251968504,
          "duration": 0.1500000000000341
        },
        {
          "name": "D#6",
          "midi": 87,
          "time": 138.6000000000019,
          "velocity": 0.2283464566929134,
          "duration": 2.100000000000051
        },
        {
          "name": "C6",
          "midi": 84,
          "time": 138.6000000000019,
          "velocity": 0.2125984251968504,
          "duration": 2.100000000000051
        },
        {
          "name": "F4",
          "midi": 65,
          "time": 139.50000000000188,
          "velocity": 0.2204724409448819,
          "duration": 0.9000000000000057
        },
        {
          "name": "F4",
          "midi": 65,
          "time": 140.40000000000188,
          "velocity": 0.2283464566929134,
          "duration": 1.8000000000000966
        },
        {
          "name": "G#4",
          "midi": 68,
          "time": 140.55000000000192,
          "velocity": 0.2283464566929134,
          "duration": 0.1500000000000341
        },
        {
          "name": "A#5",
          "midi": 82,
          "time": 140.70000000000195,
          "velocity": 0.28346456692913385,
          "duration": 0.30000000000001137
        },
        {
          "name": "C#6",
          "midi": 85,
          "time": 140.70000000000195,
          "velocity": 0.30708661417322836,
          "duration": 0.30000000000001137
        },
        {
          "name": "A#4",
          "midi": 70,
          "time": 140.70000000000195,
          "velocity": 0.2204724409448819,
          "duration": 0.15000000000000568
        },
        {
          "name": "C#5",
          "midi": 73,
          "time": 140.85000000000196,
          "velocity": 0.2204724409448819,
          "duration": 0.15000000000000568
        },
        {
          "name": "C6",
          "midi": 84,
          "time": 141.00000000000196,
          "velocity": 0.23622047244094488,
          "duration": 0.29999999999998295
        },
        {
          "name": "D#6",
          "midi": 87,
          "time": 141.00000000000196,
          "velocity": 0.25984251968503935,
          "duration": 0.29999999999998295
        },
        {
          "name": "F5",
          "midi": 77,
          "time": 141.00000000000196,
          "velocity": 0.2125984251968504,
          "duration": 0.14999999999997726
        },
        {
          "name": "G#5",
          "midi": 80,
          "time": 141.15000000000194,
          "velocity": 0.2125984251968504,
          "duration": 0.15000000000000568
        },
        {
          "name": "C#6",
          "midi": 85,
          "time": 141.30000000000194,
          "velocity": 0.23622047244094488,
          "duration": 0.45000000000001705
        },
        {
          "name": "A#5",
          "midi": 82,
          "time": 141.30000000000194,
          "velocity": 0.2204724409448819,
          "duration": 0.45000000000001705
        },
        {
          "name": "F6",
          "midi": 89,
          "time": 141.75000000000196,
          "velocity": 0.3228346456692913,
          "duration": 0.9000000000000057
        },
        {
          "name": "C#6",
          "midi": 85,
          "time": 141.75000000000196,
          "velocity": 0.2992125984251969,
          "duration": 0.9000000000000057
        },
        {
          "name": "F4",
          "midi": 65,
          "time": 142.20000000000198,
          "velocity": 0.2204724409448819,
          "duration": 0.8999999999999773
        },
        {
          "name": "C#6",
          "midi": 85,
          "time": 142.65000000000197,
          "velocity": 0.28346456692913385,
          "duration": 0.7500000000000568
        },
        {
          "name": "A#5",
          "midi": 82,
          "time": 142.65000000000197,
          "velocity": 0.25984251968503935,
          "duration": 0.7500000000000568
        },
        {
          "name": "D#4",
          "midi": 63,
          "time": 143.10000000000196,
          "velocity": 0.2204724409448819,
          "duration": 1.800000000000125
        },
        {
          "name": "F#4",
          "midi": 66,
          "time": 143.250000000002,
          "velocity": 0.2204724409448819,
          "duration": 0.1500000000000341
        },
        {
          "name": "C6",
          "midi": 84,
          "time": 143.40000000000202,
          "velocity": 0.23622047244094488,
          "duration": 0.30000000000001137
        },
        {
          "name": "G#5",
          "midi": 80,
          "time": 143.40000000000202,
          "velocity": 0.2204724409448819,
          "duration": 0.30000000000001137
        },
        {
          "name": "G#4",
          "midi": 68,
          "time": 143.40000000000202,
          "velocity": 0.2047244094488189,
          "duration": 0.15000000000000568
        },
        {
          "name": "C5",
          "midi": 72,
          "time": 143.55000000000203,
          "velocity": 0.1968503937007874,
          "duration": 0.15000000000000568
        },
        {
          "name": "A#5",
          "midi": 82,
          "time": 143.70000000000203,
          "velocity": 0.2125984251968504,
          "duration": 0.3000000000000682
        },
        {
          "name": "C#6",
          "midi": 85,
          "time": 143.70000000000203,
          "velocity": 0.2283464566929134,
          "duration": 0.3000000000000682
        },
        {
          "name": "D#5",
          "midi": 75,
          "time": 143.70000000000203,
          "velocity": 0.1968503937007874,
          "duration": 0.1500000000000341
        },
        {
          "name": "F#5",
          "midi": 78,
          "time": 143.85000000000207,
          "velocity": 0.18110236220472442,
          "duration": 0.1500000000000341
        },
        {
          "name": "C6",
          "midi": 84,
          "time": 144.0000000000021,
          "velocity": 0.2047244094488189,
          "duration": 1.799999999999983
        },
        {
          "name": "G#5",
          "midi": 80,
          "time": 144.0000000000021,
          "velocity": 0.1889763779527559,
          "duration": 1.799999999999983
        },
        {
          "name": "D#4",
          "midi": 63,
          "time": 144.90000000000208,
          "velocity": 0.2125984251968504,
          "duration": 0.9000000000000057
        },
        {
          "name": "C#4",
          "midi": 61,
          "time": 145.8000000000021,
          "velocity": 0.25196850393700787,
          "duration": 1.8000000000000966
        },
        {
          "name": "D#4",
          "midi": 63,
          "time": 145.9500000000021,
          "velocity": 0.25196850393700787,
          "duration": 0.1500000000000341
        },
        {
          "name": "F#5",
          "midi": 78,
          "time": 146.10000000000213,
          "velocity": 0.2755905511811024,
          "duration": 0.30000000000001137
        },
        {
          "name": "A#5",
          "midi": 82,
          "time": 146.10000000000213,
          "velocity": 0.2992125984251969,
          "duration": 0.30000000000001137
        },
        {
          "name": "F#4",
          "midi": 66,
          "time": 146.10000000000213,
          "velocity": 0.25196850393700787,
          "duration": 0.15000000000000568
        },
        {
          "name": "A#4",
          "midi": 70,
          "time": 146.25000000000213,
          "velocity": 0.25196850393700787,
          "duration": 0.15000000000000568
        },
        {
          "name": "C6",
          "midi": 84,
          "time": 146.40000000000214,
          "velocity": 0.2755905511811024,
          "duration": 0.30000000000001137
        },
        {
          "name": "G#5",
          "midi": 80,
          "time": 146.40000000000214,
          "velocity": 0.25196850393700787,
          "duration": 0.30000000000001137
        },
        {
          "name": "C#5",
          "midi": 73,
          "time": 146.40000000000214,
          "velocity": 0.25196850393700787,
          "duration": 0.15000000000000568
        },
        {
          "name": "D#5",
          "midi": 75,
          "time": 146.55000000000214,
          "velocity": 0.25196850393700787,
          "duration": 0.15000000000000568
        },
        {
          "name": "A#5",
          "midi": 82,
          "time": 146.70000000000215,
          "velocity": 0.2755905511811024,
          "duration": 0.29999999999998295
        },
        {
          "name": "F#5",
          "midi": 78,
          "time": 146.70000000000215,
          "velocity": 0.2283464566929134,
          "duration": 0.9000000000000341
        },
        {
          "name": "D#6",
          "midi": 87,
          "time": 147.00000000000213,
          "velocity": 0.2992125984251969,
          "duration": 0.29999999999998295
        },
        {
          "name": "A#5",
          "midi": 82,
          "time": 147.30000000000211,
          "velocity": 0.28346456692913385,
          "duration": 0.3000000000000682
        },
        {
          "name": "C4",
          "midi": 60,
          "time": 147.30000000000211,
          "velocity": 0.1889763779527559,
          "duration": 1.2000000000001023
        },
        {
          "name": "D#4",
          "midi": 63,
          "time": 147.37500000000213,
          "velocity": 0.1889763779527559,
          "duration": 1.1250000000000853
        },
        {
          "name": "F4",
          "midi": 65,
          "time": 147.45000000000215,
          "velocity": 0.1889763779527559,
          "duration": 1.0500000000000682
        },
        {
          "name": "G#4",
          "midi": 68,
          "time": 147.52500000000217,
          "velocity": 0.1889763779527559,
          "duration": 0.9750000000000512
        },
        {
          "name": "F5",
          "midi": 77,
          "time": 147.60000000000218,
          "velocity": 0.2283464566929134,
          "duration": 1.200000000000074
        },
        {
          "name": "G#5",
          "midi": 80,
          "time": 147.60000000000218,
          "velocity": 0.30708661417322836,
          "duration": 0.30000000000001137
        },
        {
          "name": "C5",
          "midi": 72,
          "time": 147.60000000000218,
          "velocity": 0.1889763779527559,
          "duration": 0.9000000000000341
        },
        {
          "name": "A#5",
          "midi": 82,
          "time": 147.9000000000022,
          "velocity": 0.28346456692913385,
          "duration": 0.30000000000001137
        },
        {
          "name": "G#5",
          "midi": 80,
          "time": 148.2000000000022,
          "velocity": 0.2755905511811024,
          "duration": 0.6000000000000512
        },
        {
          "name": "C3",
          "midi": 48,
          "time": 148.50000000000222,
          "velocity": 0.23622047244094488,
          "duration": 1.8000000000000398
        },
        {
          "name": "F#3",
          "midi": 54,
          "time": 148.65000000000225,
          "velocity": 0.23622047244094488,
          "duration": 0.15000000000000568
        },
        {
          "name": "F#5",
          "midi": 78,
          "time": 148.80000000000226,
          "velocity": 0.25984251968503935,
          "duration": 0.30000000000001137
        },
        {
          "name": "D#5",
          "midi": 75,
          "time": 148.80000000000226,
          "velocity": 0.23622047244094488,
          "duration": 0.30000000000001137
        },
        {
          "name": "A#3",
          "midi": 58,
          "time": 148.80000000000226,
          "velocity": 0.2283464566929134,
          "duration": 0.15000000000000568
        },
        {
          "name": "C4",
          "midi": 60,
          "time": 148.95000000000226,
          "velocity": 0.2283464566929134,
          "duration": 0.15000000000000568
        },
        {
          "name": "G#5",
          "midi": 80,
          "time": 149.10000000000227,
          "velocity": 0.2440944881889764,
          "duration": 0.30000000000001137
        },
        {
          "name": "F5",
          "midi": 77,
          "time": 149.10000000000227,
          "velocity": 0.2283464566929134,
          "duration": 0.30000000000001137
        },
        {
          "name": "D#4",
          "midi": 63,
          "time": 149.10000000000227,
          "velocity": 0.2204724409448819,
          "duration": 0.15000000000000568
        },
        {
          "name": "F#4",
          "midi": 66,
          "time": 149.25000000000227,
          "velocity": 0.2204724409448819,
          "duration": 0.15000000000000568
        },
        {
          "name": "F#5",
          "midi": 78,
          "time": 149.40000000000228,
          "velocity": 0.2440944881889764,
          "duration": 0.8999999999999773
        },
        {
          "name": "D#5",
          "midi": 75,
          "time": 149.40000000000228,
          "velocity": 0.2283464566929134,
          "duration": 0.8999999999999773
        },
        {
          "name": "A#4",
          "midi": 70,
          "time": 149.40000000000228,
          "velocity": 0.2283464566929134,
          "duration": 0.8999999999999773
        },
        {
          "name": "A4",
          "midi": 69,
          "time": 150.30000000000226,
          "velocity": 0.25196850393700787,
          "duration": 0.9000000000000057
        },
        {
          "name": "F5",
          "midi": 77,
          "time": 150.30000000000226,
          "velocity": 0.25984251968503935,
          "duration": 1.200000000000074
        },
        {
          "name": "D#4",
          "midi": 63,
          "time": 150.30000000000226,
          "velocity": 0.2283464566929134,
          "duration": 0.9000000000000057
        },
        {
          "name": "C4",
          "midi": 60,
          "time": 150.30000000000226,
          "velocity": 0.2283464566929134,
          "duration": 0.9000000000000057
        },
        {
          "name": "F3",
          "midi": 53,
          "time": 150.30000000000226,
          "velocity": 0.2283464566929134,
          "duration": 0.9000000000000057
        },
        {
          "name": "G#3",
          "midi": 56,
          "time": 151.20000000000226,
          "velocity": 0.23622047244094488,
          "duration": 1.800000000000182
        },
        {
          "name": "A#3",
          "midi": 58,
          "time": 151.3500000000023,
          "velocity": 0.2204724409448819,
          "duration": 0.1500000000000341
        },
        {
          "name": "F5",
          "midi": 77,
          "time": 151.50000000000233,
          "velocity": 0.29133858267716534,
          "duration": 0.30000000000001137
        },
        {
          "name": "C#5",
          "midi": 73,
          "time": 151.50000000000233,
          "velocity": 0.2677165354330709,
          "duration": 0.30000000000001137
        },
        {
          "name": "C#4",
          "midi": 61,
          "time": 151.50000000000233,
          "velocity": 0.2204724409448819,
          "duration": 0.15000000000000568
        },
        {
          "name": "F4",
          "midi": 65,
          "time": 151.65000000000234,
          "velocity": 0.2125984251968504,
          "duration": 0.15000000000000568
        },
        {
          "name": "D#5",
          "midi": 75,
          "time": 151.80000000000234,
          "velocity": 0.25984251968503935,
          "duration": 0.30000000000001137
        },
        {
          "name": "F#5",
          "midi": 78,
          "time": 151.80000000000234,
          "velocity": 0.28346456692913385,
          "duration": 0.30000000000001137
        },
        {
          "name": "G#4",
          "midi": 68,
          "time": 151.80000000000234,
          "velocity": 0.2125984251968504,
          "duration": 0.15000000000000568
        },
        {
          "name": "A#4",
          "midi": 70,
          "time": 151.95000000000235,
          "velocity": 0.2125984251968504,
          "duration": 0.15000000000000568
        },
        {
          "name": "F5",
          "midi": 77,
          "time": 152.10000000000235,
          "velocity": 0.28346456692913385,
          "duration": 0.30000000000001137
        },
        {
          "name": "C#5",
          "midi": 73,
          "time": 152.10000000000235,
          "velocity": 0.2283464566929134,
          "duration": 0.900000000000091
        },
        {
          "name": "A#5",
          "midi": 82,
          "time": 152.40000000000236,
          "velocity": 0.2992125984251969,
          "duration": 0.30000000000001137
        },
        {
          "name": "F5",
          "midi": 77,
          "time": 152.70000000000238,
          "velocity": 0.28346456692913385,
          "duration": 0.3000000000000682
        },
        {
          "name": "F#3",
          "midi": 54,
          "time": 152.7750000000024,
          "velocity": 0.2125984251968504,
          "duration": 1.1250000000000853
        },
        {
          "name": "A#3",
          "midi": 58,
          "time": 152.8500000000024,
          "velocity": 0.2125984251968504,
          "duration": 1.0500000000000682
        },
        {
          "name": "C#4",
          "midi": 61,
          "time": 152.92500000000243,
          "velocity": 0.2125984251968504,
          "duration": 0.9750000000000512
        },
        {
          "name": "C#5",
          "midi": 73,
          "time": 153.00000000000244,
          "velocity": 0.2204724409448819,
          "duration": 0.9000000000000341
        },
        {
          "name": "D#5",
          "midi": 75,
          "time": 153.00000000000244,
          "velocity": 0.29133858267716534,
          "duration": 0.30000000000001137
        },
        {
          "name": "D#4",
          "midi": 63,
          "time": 153.00000000000244,
          "velocity": 0.2125984251968504,
          "duration": 0.9000000000000341
        },
        {
          "name": "F5",
          "midi": 77,
          "time": 153.30000000000246,
          "velocity": 0.28346456692913385,
          "duration": 0.30000000000001137
        },
        {
          "name": "D#5",
          "midi": 75,
          "time": 153.60000000000247,
          "velocity": 0.28346456692913385,
          "duration": 0.6000000000000796
        },
        {
          "name": "F3",
          "midi": 53,
          "time": 153.90000000000248,
          "velocity": 0.2283464566929134,
          "duration": 1.8000000000001535
        },
        {
          "name": "G#3",
          "midi": 56,
          "time": 154.0500000000025,
          "velocity": 0.2283464566929134,
          "duration": 0.1500000000000341
        },
        {
          "name": "C#5",
          "midi": 73,
          "time": 154.20000000000255,
          "velocity": 0.25984251968503935,
          "duration": 0.30000000000001137
        },
        {
          "name": "A#4",
          "midi": 70,
          "time": 154.20000000000255,
          "velocity": 0.23622047244094488,
          "duration": 0.30000000000001137
        },
        {
          "name": "A#3",
          "midi": 58,
          "time": 154.20000000000255,
          "velocity": 0.2204724409448819,
          "duration": 0.15000000000000568
        },
        {
          "name": "C#4",
          "midi": 61,
          "time": 154.35000000000255,
          "velocity": 0.2204724409448819,
          "duration": 0.15000000000000568
        },
        {
          "name": "D#5",
          "midi": 75,
          "time": 154.50000000000256,
          "velocity": 0.2440944881889764,
          "duration": 0.3000000000000682
        },
        {
          "name": "C5",
          "midi": 72,
          "time": 154.50000000000256,
          "velocity": 0.2283464566929134,
          "duration": 0.3000000000000682
        },
        {
          "name": "F4",
          "midi": 65,
          "time": 154.50000000000256,
          "velocity": 0.2125984251968504,
          "duration": 0.1500000000000341
        },
        {
          "name": "G#4",
          "midi": 68,
          "time": 154.6500000000026,
          "velocity": 0.2125984251968504,
          "duration": 0.1500000000000341
        },
        {
          "name": "C#5",
          "midi": 73,
          "time": 154.80000000000263,
          "velocity": 0.2440944881889764,
          "duration": 0.9000000000000057
        },
        {
          "name": "A#4",
          "midi": 70,
          "time": 154.80000000000263,
          "velocity": 0.2283464566929134,
          "duration": 0.9000000000000057
        },
        {
          "name": "C5",
          "midi": 72,
          "time": 155.70000000000263,
          "velocity": 0.2047244094488189,
          "duration": 0.9000000000000341
        },
        {
          "name": "G#4",
          "midi": 68,
          "time": 155.70000000000263,
          "velocity": 0.1889763779527559,
          "duration": 0.9000000000000341
        },
        {
          "name": "D#3",
          "midi": 51,
          "time": 155.70000000000263,
          "velocity": 0.25196850393700787,
          "duration": 0.45000000000001705
        },
        {
          "name": "F#3",
          "midi": 54,
          "time": 155.70000000000263,
          "velocity": 0.25196850393700787,
          "duration": 0.9000000000000341
        },
        {
          "name": "C4",
          "midi": 60,
          "time": 155.70000000000263,
          "velocity": 0.25196850393700787,
          "duration": 0.9000000000000341
        },
        {
          "name": "G#2",
          "midi": 44,
          "time": 156.15000000000265,
          "velocity": 0.25196850393700787,
          "duration": 2.2500000000000284
        },
        {
          "name": "C#2",
          "midi": 37,
          "time": 156.60000000000267,
          "velocity": 0.2204724409448819,
          "duration": 1.8000000000000114
        },
        {
          "name": "F3",
          "midi": 53,
          "time": 156.90000000000268,
          "velocity": 0.2047244094488189,
          "duration": 0.29999999999998295
        },
        {
          "name": "G#3",
          "midi": 56,
          "time": 156.90000000000268,
          "velocity": 0.2047244094488189,
          "duration": 0.29999999999998295
        },
        {
          "name": "F4",
          "midi": 65,
          "time": 157.20000000000266,
          "velocity": 0.25984251968503935,
          "duration": 2.1000000000000227
        },
        {
          "name": "G#4",
          "midi": 68,
          "time": 157.20000000000266,
          "velocity": 0.25984251968503935,
          "duration": 2.1000000000000227
        },
        {
          "name": "G#5",
          "midi": 80,
          "time": 157.50000000000267,
          "velocity": 0.28346456692913385,
          "duration": 0.9000000000000057
        },
        {
          "name": "F5",
          "midi": 77,
          "time": 157.50000000000267,
          "velocity": 0.28346456692913385,
          "duration": 0.9000000000000057
        },
        {
          "name": "B3",
          "midi": 59,
          "time": 157.50000000000267,
          "velocity": 0.2204724409448819,
          "duration": 1.8000000000000114
        },
        {
          "name": "C#5",
          "midi": 73,
          "time": 158.40000000000268,
          "velocity": 0.25984251968503935,
          "duration": 1.1999999999999886
        },
        {
          "name": "F5",
          "midi": 77,
          "time": 158.40000000000268,
          "velocity": 0.25984251968503935,
          "duration": 1.1999999999999886
        },
        {
          "name": "F#2",
          "midi": 42,
          "time": 159.30000000000268,
          "velocity": 0.2047244094488189,
          "duration": 1.8000000000000398
        },
        {
          "name": "C#3",
          "midi": 49,
          "time": 159.30000000000268,
          "velocity": 0.2440944881889764,
          "duration": 1.8000000000000398
        },
        {
          "name": "A#4",
          "midi": 70,
          "time": 159.60000000000267,
          "velocity": 0.1968503937007874,
          "duration": 2.4000000000000625
        },
        {
          "name": "D#5",
          "midi": 75,
          "time": 159.60000000000267,
          "velocity": 0.30708661417322836,
          "duration": 0.30000000000001137
        },
        {
          "name": "F#4",
          "midi": 66,
          "time": 159.60000000000267,
          "velocity": 0.1968503937007874,
          "duration": 2.4000000000000625
        },
        {
          "name": "C#4",
          "midi": 61,
          "time": 159.60000000000267,
          "velocity": 0.1968503937007874,
          "duration": 2.4000000000000625
        },
        {
          "name": "A#3",
          "midi": 58,
          "time": 159.60000000000267,
          "velocity": 0.16535433070866143,
          "duration": 2.4000000000000625
        },
        {
          "name": "F#3",
          "midi": 54,
          "time": 159.60000000000267,
          "velocity": 0.16535433070866143,
          "duration": 2.4000000000000625
        },
        {
          "name": "C#3",
          "midi": 49,
          "time": 159.60000000000267,
          "velocity": 0.16535433070866143,
          "duration": 2.4000000000000625
        },
        {
          "name": "F5",
          "midi": 77,
          "time": 159.90000000000268,
          "velocity": 0.2677165354330709,
          "duration": 0.30000000000001137
        },
        {
          "name": "D#5",
          "midi": 75,
          "time": 160.2000000000027,
          "velocity": 0.2283464566929134,
          "duration": 2.100000000000051
        },
        {
          "name": "G#2",
          "midi": 44,
          "time": 162.00000000000273,
          "velocity": 0.25984251968503935,
          "duration": 1.8000000000000398
        },
        {
          "name": "G#4",
          "midi": 68,
          "time": 162.30000000000274,
          "velocity": 0.28346456692913385,
          "duration": 0.6000000000000227
        },
        {
          "name": "C#4",
          "midi": 61,
          "time": 162.30000000000274,
          "velocity": 0.28346456692913385,
          "duration": 0.30000000000001137
        },
        {
          "name": "C#5",
          "midi": 73,
          "time": 162.30000000000274,
          "velocity": 0.28346456692913385,
          "duration": 0.30000000000001137
        },
        {
          "name": "F3",
          "midi": 53,
          "time": 162.30000000000274,
          "velocity": 0.2440944881889764,
          "duration": 0.6000000000000227
        },
        {
          "name": "G#3",
          "midi": 56,
          "time": 162.30000000000274,
          "velocity": 0.2440944881889764,
          "duration": 0.6000000000000227
        },
        {
          "name": "D#5",
          "midi": 75,
          "time": 162.60000000000275,
          "velocity": 0.29133858267716534,
          "duration": 0.30000000000001137
        },
        {
          "name": "D#4",
          "midi": 63,
          "time": 162.60000000000275,
          "velocity": 0.29133858267716534,
          "duration": 0.30000000000001137
        },
        {
          "name": "G#4",
          "midi": 68,
          "time": 162.90000000000276,
          "velocity": 0.29133858267716534,
          "duration": 0.9000000000000057
        },
        {
          "name": "G#5",
          "midi": 80,
          "time": 162.90000000000276,
          "velocity": 0.29133858267716534,
          "duration": 0.9000000000000057
        },
        {
          "name": "F5",
          "midi": 77,
          "time": 162.90000000000276,
          "velocity": 0.29133858267716534,
          "duration": 0.9000000000000057
        },
        {
          "name": "B3",
          "midi": 59,
          "time": 162.90000000000276,
          "velocity": 0.2047244094488189,
          "duration": 1.8000000000000398
        },
        {
          "name": "F4",
          "midi": 65,
          "time": 162.90000000000276,
          "velocity": 0.2440944881889764,
          "duration": 0.897500000000008
        },
        {
          "name": "C#4",
          "midi": 61,
          "time": 162.90000000000276,
          "velocity": 0.2440944881889764,
          "duration": 0.9000000000000057
        },
        {
          "name": "C#5",
          "midi": 73,
          "time": 163.80000000000277,
          "velocity": 0.25984251968503935,
          "duration": 0.9000000000000341
        },
        {
          "name": "F5",
          "midi": 77,
          "time": 163.80000000000277,
          "velocity": 0.25984251968503935,
          "duration": 1.2000000000000455
        },
        {
          "name": "F4",
          "midi": 65,
          "time": 163.80000000000277,
          "velocity": 0.25984251968503935,
          "duration": 0.9000000000000341
        },
        {
          "name": "C#4",
          "midi": 61,
          "time": 163.80000000000277,
          "velocity": 0.23622047244094488,
          "duration": 0.9000000000000341
        },
        {
          "name": "A#2",
          "midi": 46,
          "time": 164.7000000000028,
          "velocity": 0.2440944881889764,
          "duration": 1.8000000000000398
        },
        {
          "name": "F4",
          "midi": 65,
          "time": 165.0000000000028,
          "velocity": 0.1968503937007874,
          "duration": 2.400000000000034
        },
        {
          "name": "A#4",
          "midi": 70,
          "time": 165.0000000000028,
          "velocity": 0.1968503937007874,
          "duration": 2.400000000000034
        },
        {
          "name": "D#5",
          "midi": 75,
          "time": 165.0000000000028,
          "velocity": 0.30708661417322836,
          "duration": 0.30000000000001137
        },
        {
          "name": "D#4",
          "midi": 63,
          "time": 165.0000000000028,
          "velocity": 0.1968503937007874,
          "duration": 1.5000000000000284
        },
        {
          "name": "A#3",
          "midi": 58,
          "time": 165.0000000000028,
          "velocity": 0.1968503937007874,
          "duration": 2.400000000000034
        },
        {
          "name": "F3",
          "midi": 53,
          "time": 165.0000000000028,
          "velocity": 0.16535433070866143,
          "duration": 2.400000000000034
        },
        {
          "name": "F5",
          "midi": 77,
          "time": 165.30000000000283,
          "velocity": 0.2677165354330709,
          "duration": 0.30000000000001137
        },
        {
          "name": "D#5",
          "midi": 75,
          "time": 165.60000000000284,
          "velocity": 0.2283464566929134,
          "duration": 0.9000000000000057
        },
        {
          "name": "C#5",
          "midi": 73,
          "time": 166.50000000000284,
          "velocity": 0.2283464566929134,
          "duration": 0.9000000000000057
        },
        {
          "name": "C#4",
          "midi": 61,
          "time": 166.50000000000284,
          "velocity": 0.23622047244094488,
          "duration": 0.9000000000000057
        },
        {
          "name": "F2",
          "midi": 41,
          "time": 167.40000000000285,
          "velocity": 0.2677165354330709,
          "duration": 2.700000000000017
        },
        {
          "name": "C#4",
          "midi": 61,
          "time": 167.70000000000286,
          "velocity": 0.29133858267716534,
          "duration": 0.30000000000001137
        },
        {
          "name": "G#3",
          "midi": 56,
          "time": 167.70000000000286,
          "velocity": 0.25984251968503935,
          "duration": 0.6000000000000227
        },
        {
          "name": "D#4",
          "midi": 63,
          "time": 168.00000000000287,
          "velocity": 0.31496062992125984,
          "duration": 0.30000000000001137
        },
        {
          "name": "F4",
          "midi": 65,
          "time": 168.30000000000288,
          "velocity": 0.25984251968503935,
          "duration": 0.8999999999999773
        },
        {
          "name": "A#4",
          "midi": 70,
          "time": 168.30000000000288,
          "velocity": 0.29133858267716534,
          "duration": 0.8999999999999773
        },
        {
          "name": "C#4",
          "midi": 61,
          "time": 168.30000000000288,
          "velocity": 0.25984251968503935,
          "duration": 0.8999999999999773
        },
        {
          "name": "G#3",
          "midi": 56,
          "time": 169.20000000000286,
          "velocity": 0.2125984251968504,
          "duration": 0.9000000000000057
        },
        {
          "name": "C#4",
          "midi": 61,
          "time": 169.20000000000286,
          "velocity": 0.2125984251968504,
          "duration": 0.9000000000000057
        },
        {
          "name": "F4",
          "midi": 65,
          "time": 169.20000000000286,
          "velocity": 0.2440944881889764,
          "duration": 0.9000000000000057
        },
        {
          "name": "D#2",
          "midi": 39,
          "time": 170.10000000000286,
          "velocity": 0.2677165354330709,
          "duration": 1.8000000000000114
        },
        {
          "name": "A#3",
          "midi": 58,
          "time": 170.40000000000285,
          "velocity": 0.25984251968503935,
          "duration": 0.6000000000000227
        },
        {
          "name": "C#4",
          "midi": 61,
          "time": 170.40000000000285,
          "velocity": 0.25984251968503935,
          "duration": 0.6000000000000227
        },
        {
          "name": "F#4",
          "midi": 66,
          "time": 170.40000000000285,
          "velocity": 0.29133858267716534,
          "duration": 0.30000000000001137
        },
        {
          "name": "G#4",
          "midi": 68,
          "time": 170.70000000000286,
          "velocity": 0.31496062992125984,
          "duration": 0.30000000000001137
        },
        {
          "name": "F#4",
          "midi": 66,
          "time": 171.00000000000287,
          "velocity": 0.2283464566929134,
          "duration": 0.9000000000000057
        },
        {
          "name": "A#4",
          "midi": 70,
          "time": 171.00000000000287,
          "velocity": 0.2283464566929134,
          "duration": 0.9000000000000057
        },
        {
          "name": "C#5",
          "midi": 73,
          "time": 171.00000000000287,
          "velocity": 0.25984251968503935,
          "duration": 0.9000000000000057
        },
        {
          "name": "D#3",
          "midi": 51,
          "time": 171.00000000000287,
          "velocity": 0.1968503937007874,
          "duration": 0.9000000000000057
        },
        {
          "name": "A#4",
          "midi": 70,
          "time": 171.90000000000288,
          "velocity": 0.2283464566929134,
          "duration": 0.8999999999999773
        },
        {
          "name": "C#4",
          "midi": 61,
          "time": 171.90000000000288,
          "velocity": 0.2047244094488189,
          "duration": 0.8999999999999773
        },
        {
          "name": "F#4",
          "midi": 66,
          "time": 171.90000000000288,
          "velocity": 0.2047244094488189,
          "duration": 0.8999999999999773
        },
        {
          "name": "D#4",
          "midi": 63,
          "time": 171.90000000000288,
          "velocity": 0.2047244094488189,
          "duration": 0.8999999999999773
        },
        {
          "name": "G#2",
          "midi": 44,
          "time": 172.80000000000285,
          "velocity": 0.2677165354330709,
          "duration": 1.8000000000000114
        },
        {
          "name": "C4",
          "midi": 60,
          "time": 173.10000000000284,
          "velocity": 0.2755905511811024,
          "duration": 0.6000000000000227
        },
        {
          "name": "A#4",
          "midi": 70,
          "time": 173.10000000000284,
          "velocity": 0.2755905511811024,
          "duration": 0.30000000000001137
        },
        {
          "name": "F#4",
          "midi": 66,
          "time": 173.10000000000284,
          "velocity": 0.2755905511811024,
          "duration": 0.6000000000000227
        },
        {
          "name": "D#3",
          "midi": 51,
          "time": 173.25000000000284,
          "velocity": 0.2440944881889764,
          "duration": 0.45000000000001705
        },
        {
          "name": "C5",
          "midi": 72,
          "time": 173.40000000000285,
          "velocity": 0.29133858267716534,
          "duration": 0.30000000000001137
        },
        {
          "name": "C5",
          "midi": 72,
          "time": 173.70000000000286,
          "velocity": 0.2283464566929134,
          "duration": 0.9000000000000057
        },
        {
          "name": "F5",
          "midi": 77,
          "time": 173.70000000000286,
          "velocity": 0.2283464566929134,
          "duration": 0.9000000000000057
        },
        {
          "name": "G#4",
          "midi": 68,
          "time": 173.70000000000286,
          "velocity": 0.1889763779527559,
          "duration": 0.9000000000000057
        },
        {
          "name": "G#5",
          "midi": 80,
          "time": 173.70000000000286,
          "velocity": 0.1968503937007874,
          "duration": 0.9000000000000057
        },
        {
          "name": "C4",
          "midi": 60,
          "time": 174.60000000000286,
          "velocity": 0.16535433070866143,
          "duration": 0.9000000000000057
        },
        {
          "name": "G#4",
          "midi": 68,
          "time": 174.60000000000286,
          "velocity": 0.1968503937007874,
          "duration": 0.9000000000000057
        },
        {
          "name": "F#4",
          "midi": 66,
          "time": 174.60000000000286,
          "velocity": 0.1968503937007874,
          "duration": 0.9000000000000057
        },
        {
          "name": "G#3",
          "midi": 56,
          "time": 174.60000000000286,
          "velocity": 0.1968503937007874,
          "duration": 0.9000000000000057
        },
        {
          "name": "C#2",
          "midi": 37,
          "time": 175.50000000000287,
          "velocity": 0.2440944881889764,
          "duration": 0.9000000000001478
        },
        {
          "name": "G#2",
          "midi": 44,
          "time": 175.65000000000288,
          "velocity": 0.2125984251968504,
          "duration": 0.15000000000000568
        },
        {
          "name": "C#3",
          "midi": 49,
          "time": 175.80000000000288,
          "velocity": 0.2047244094488189,
          "duration": 0.1500000000000341
        },
        {
          "name": "F3",
          "midi": 53,
          "time": 175.95000000000292,
          "velocity": 0.2047244094488189,
          "duration": 0.1500000000000341
        },
        {
          "name": "G#3",
          "midi": 56,
          "time": 176.10000000000295,
          "velocity": 0.1968503937007874,
          "duration": 0.1500000000000341
        },
        {
          "name": "C#4",
          "midi": 61,
          "time": 176.25000000000298,
          "velocity": 0.1968503937007874,
          "duration": 0.1500000000000341
        },
        {
          "name": "F2",
          "midi": 41,
          "time": 176.40000000000302,
          "velocity": 0.2440944881889764,
          "duration": 0.9000000000001478
        },
        {
          "name": "C3",
          "midi": 48,
          "time": 176.550000000003,
          "velocity": 0.2204724409448819,
          "duration": 0.1500000000000341
        },
        {
          "name": "F3",
          "midi": 53,
          "time": 176.70000000000303,
          "velocity": 0.2125984251968504,
          "duration": 0.1500000000000341
        },
        {
          "name": "G#3",
          "midi": 56,
          "time": 176.85000000000306,
          "velocity": 0.2047244094488189,
          "duration": 0.1500000000000341
        },
        {
          "name": "C4",
          "midi": 60,
          "time": 177.0000000000031,
          "velocity": 0.2047244094488189,
          "duration": 0.1500000000000341
        },
        {
          "name": "F4",
          "midi": 65,
          "time": 177.15000000000313,
          "velocity": 0.2047244094488189,
          "duration": 0.1500000000000341
        },
        {
          "name": "C#2",
          "midi": 37,
          "time": 177.30000000000317,
          "velocity": 0.2440944881889764,
          "duration": 0.899999999999892
        },
        {
          "name": "G#2",
          "midi": 44,
          "time": 177.45000000000314,
          "velocity": 0.2204724409448819,
          "duration": 0.14999999999997726
        },
        {
          "name": "C#3",
          "midi": 49,
          "time": 177.60000000000312,
          "velocity": 0.2204724409448819,
          "duration": 0.14999999999997726
        },
        {
          "name": "F3",
          "midi": 53,
          "time": 177.7500000000031,
          "velocity": 0.2125984251968504,
          "duration": 0.14999999999997726
        },
        {
          "name": "G#3",
          "midi": 56,
          "time": 177.90000000000308,
          "velocity": 0.2204724409448819,
          "duration": 0.14999999999997726
        },
        {
          "name": "C#4",
          "midi": 61,
          "time": 178.05000000000305,
          "velocity": 0.2047244094488189,
          "duration": 0.15000000000000568
        },
        {
          "name": "F2",
          "midi": 41,
          "time": 178.20000000000306,
          "velocity": 0.2440944881889764,
          "duration": 0.900000000000091
        },
        {
          "name": "C3",
          "midi": 48,
          "time": 178.35000000000306,
          "velocity": 0.2204724409448819,
          "duration": 0.15000000000000568
        },
        {
          "name": "F3",
          "midi": 53,
          "time": 178.50000000000307,
          "velocity": 0.2204724409448819,
          "duration": 0.15000000000000568
        },
        {
          "name": "G#3",
          "midi": 56,
          "time": 178.65000000000308,
          "velocity": 0.2125984251968504,
          "duration": 0.1500000000000341
        },
        {
          "name": "C4",
          "midi": 60,
          "time": 178.8000000000031,
          "velocity": 0.2125984251968504,
          "duration": 0.1500000000000341
        },
        {
          "name": "F4",
          "midi": 65,
          "time": 178.95000000000314,
          "velocity": 0.2125984251968504,
          "duration": 0.15000000000000568
        },
        {
          "name": "G#4",
          "midi": 68,
          "time": 179.10000000000315,
          "velocity": 0.23622047244094488,
          "duration": 0.9000000000000625
        },
        {
          "name": "B4",
          "midi": 71,
          "time": 179.10000000000315,
          "velocity": 0.25984251968503935,
          "duration": 0.9000000000000625
        },
        {
          "name": "G#2",
          "midi": 44,
          "time": 179.10000000000315,
          "velocity": 0.2440944881889764,
          "duration": 1.8000000000000682
        },
        {
          "name": "E3",
          "midi": 52,
          "time": 179.25000000000315,
          "velocity": 0.2204724409448819,
          "duration": 0.15000000000000568
        },
        {
          "name": "G#3",
          "midi": 56,
          "time": 179.40000000000316,
          "velocity": 0.2204724409448819,
          "duration": 0.1500000000000341
        },
        {
          "name": "B3",
          "midi": 59,
          "time": 179.5500000000032,
          "velocity": 0.2125984251968504,
          "duration": 0.15000000000000568
        },
        {
          "name": "E4",
          "midi": 64,
          "time": 179.7000000000032,
          "velocity": 0.2125984251968504,
          "duration": 0.15000000000000568
        },
        {
          "name": "F#4",
          "midi": 66,
          "time": 179.8500000000032,
          "velocity": 0.2125984251968504,
          "duration": 0.15000000000000568
        },
        {
          "name": "C#5",
          "midi": 73,
          "time": 180.0000000000032,
          "velocity": 0.2283464566929134,
          "duration": 0.9000000000000057
        },
        {
          "name": "E4",
          "midi": 64,
          "time": 180.0000000000032,
          "velocity": 0.2125984251968504,
          "duration": 0.9000000000000057
        },
        {
          "name": "G#4",
          "midi": 68,
          "time": 180.0000000000032,
          "velocity": 0.2125984251968504,
          "duration": 0.9000000000000057
        },
        {
          "name": "C#3",
          "midi": 49,
          "time": 180.90000000000322,
          "velocity": 0.2440944881889764,
          "duration": 0.9000000000001478
        },
        {
          "name": "G#3",
          "midi": 56,
          "time": 181.0500000000032,
          "velocity": 0.23622047244094488,
          "duration": 0.1500000000000341
        },
        {
          "name": "C#4",
          "midi": 61,
          "time": 181.20000000000323,
          "velocity": 0.2047244094488189,
          "duration": 0.1500000000000341
        },
        {
          "name": "F4",
          "midi": 65,
          "time": 181.35000000000326,
          "velocity": 0.2047244094488189,
          "duration": 0.1500000000000341
        },
        {
          "name": "G#4",
          "midi": 68,
          "time": 181.5000000000033,
          "velocity": 0.1968503937007874,
          "duration": 0.1500000000000341
        },
        {
          "name": "C#5",
          "midi": 73,
          "time": 181.65000000000333,
          "velocity": 0.1968503937007874,
          "duration": 0.1500000000000341
        },
        {
          "name": "F3",
          "midi": 53,
          "time": 181.80000000000337,
          "velocity": 0.2440944881889764,
          "duration": 0.9000000000001762
        },
        {
          "name": "C4",
          "midi": 60,
          "time": 181.95000000000337,
          "velocity": 0.2204724409448819,
          "duration": 0.1500000000000341
        },
        {
          "name": "F4",
          "midi": 65,
          "time": 182.1000000000034,
          "velocity": 0.2125984251968504,
          "duration": 0.1500000000000341
        },
        {
          "name": "G#4",
          "midi": 68,
          "time": 182.25000000000344,
          "velocity": 0.2047244094488189,
          "duration": 0.1500000000000341
        },
        {
          "name": "C5",
          "midi": 72,
          "time": 182.40000000000347,
          "velocity": 0.2047244094488189,
          "duration": 0.1500000000000341
        },
        {
          "name": "F5",
          "midi": 77,
          "time": 182.5500000000035,
          "velocity": 0.2047244094488189,
          "duration": 0.1500000000000341
        },
        {
          "name": "C#3",
          "midi": 49,
          "time": 182.70000000000354,
          "velocity": 0.2440944881889764,
          "duration": 0.8999999999999204
        },
        {
          "name": "G#3",
          "midi": 56,
          "time": 182.85000000000355,
          "velocity": 0.2204724409448819,
          "duration": 0.14999999999997726
        },
        {
          "name": "C#4",
          "midi": 61,
          "time": 183.00000000000352,
          "velocity": 0.2204724409448819,
          "duration": 0.14999999999997726
        },
        {
          "name": "F4",
          "midi": 65,
          "time": 183.1500000000035,
          "velocity": 0.2125984251968504,
          "duration": 0.14999999999997726
        },
        {
          "name": "G#4",
          "midi": 68,
          "time": 183.30000000000348,
          "velocity": 0.2204724409448819,
          "duration": 0.14999999999997726
        },
        {
          "name": "C#5",
          "midi": 73,
          "time": 183.45000000000346,
          "velocity": 0.2047244094488189,
          "duration": 0.15000000000000568
        },
        {
          "name": "F3",
          "midi": 53,
          "time": 183.60000000000346,
          "velocity": 0.2440944881889764,
          "duration": 0.900000000000091
        },
        {
          "name": "C4",
          "midi": 60,
          "time": 183.75000000000347,
          "velocity": 0.2204724409448819,
          "duration": 0.15000000000000568
        },
        {
          "name": "F4",
          "midi": 65,
          "time": 183.90000000000347,
          "velocity": 0.2204724409448819,
          "duration": 0.15000000000000568
        },
        {
          "name": "G#4",
          "midi": 68,
          "time": 184.05000000000348,
          "velocity": 0.2125984251968504,
          "duration": 0.1500000000000341
        },
        {
          "name": "C5",
          "midi": 72,
          "time": 184.2000000000035,
          "velocity": 0.2125984251968504,
          "duration": 0.1500000000000341
        },
        {
          "name": "F5",
          "midi": 77,
          "time": 184.35000000000355,
          "velocity": 0.2125984251968504,
          "duration": 0.15000000000000568
        },
        {
          "name": "B5",
          "midi": 83,
          "time": 184.50000000000355,
          "velocity": 0.25984251968503935,
          "duration": 0.9000000000000341
        },
        {
          "name": "G#5",
          "midi": 80,
          "time": 184.50000000000355,
          "velocity": 0.23622047244094488,
          "duration": 1.8000000000000398
        },
        {
          "name": "G#3",
          "midi": 56,
          "time": 184.50000000000355,
          "velocity": 0.2440944881889764,
          "duration": 1.8000000000000398
        },
        {
          "name": "B3",
          "midi": 59,
          "time": 184.65000000000353,
          "velocity": 0.1968503937007874,
          "duration": 0.15000000000000568
        },
        {
          "name": "E4",
          "midi": 64,
          "time": 184.80000000000354,
          "velocity": 0.1968503937007874,
          "duration": 0.1500000000000341
        },
        {
          "name": "G#4",
          "midi": 68,
          "time": 184.95000000000357,
          "velocity": 0.1889763779527559,
          "duration": 0.15000000000000568
        },
        {
          "name": "B4",
          "midi": 71,
          "time": 185.10000000000358,
          "velocity": 0.1889763779527559,
          "duration": 0.15000000000000568
        },
        {
          "name": "E5",
          "midi": 76,
          "time": 185.25000000000358,
          "velocity": 0.1732283464566929,
          "duration": 1.0500000000000114
        },
        {
          "name": "C#6",
          "midi": 85,
          "time": 185.4000000000036,
          "velocity": 0.2677165354330709,
          "duration": 0.9000000000000057
        },
        {
          "name": "B5",
          "midi": 83,
          "time": 186.3000000000036,
          "velocity": 0.25984251968503935,
          "duration": 0.9000000000000625
        },
        {
          "name": "G#5",
          "midi": 80,
          "time": 186.3000000000036,
          "velocity": 0.23622047244094488,
          "duration": 2.700000000000074
        },
        {
          "name": "G#3",
          "midi": 56,
          "time": 186.3000000000036,
          "velocity": 0.2440944881889764,
          "duration": 1.8000000000000682
        },
        {
          "name": "B3",
          "midi": 59,
          "time": 186.4500000000036,
          "velocity": 0.1968503937007874,
          "duration": 0.15000000000000568
        },
        {
          "name": "E4",
          "midi": 64,
          "time": 186.6000000000036,
          "velocity": 0.1968503937007874,
          "duration": 0.1500000000000341
        },
        {
          "name": "G#4",
          "midi": 68,
          "time": 186.75000000000364,
          "velocity": 0.1889763779527559,
          "duration": 0.15000000000000568
        },
        {
          "name": "B4",
          "midi": 71,
          "time": 186.90000000000364,
          "velocity": 0.1889763779527559,
          "duration": 0.15000000000000568
        },
        {
          "name": "E5",
          "midi": 76,
          "time": 187.05000000000365,
          "velocity": 0.1732283464566929,
          "duration": 1.0500000000000114
        },
        {
          "name": "C#6",
          "midi": 85,
          "time": 187.20000000000366,
          "velocity": 0.2677165354330709,
          "duration": 0.9000000000000057
        },
        {
          "name": "E6",
          "midi": 88,
          "time": 188.10000000000366,
          "velocity": 0.29133858267716534,
          "duration": 0.9000000000000057
        },
        {
          "name": "G#2",
          "midi": 44,
          "time": 188.10000000000366,
          "velocity": 0.23622047244094488,
          "duration": 0.9000000000000057
        },
        {
          "name": "F6",
          "midi": 89,
          "time": 189.00000000000367,
          "velocity": 0.29133858267716534,
          "duration": 2.6999999999999034
        },
        {
          "name": "G#6",
          "midi": 92,
          "time": 189.00000000000367,
          "velocity": 0.31496062992125984,
          "duration": 2.6999999999999034
        },
        {
          "name": "C#2",
          "midi": 37,
          "time": 189.00000000000367,
          "velocity": 0.25984251968503935,
          "duration": 1.8000000000000398
        },
        {
          "name": "G#2",
          "midi": 44,
          "time": 189.15000000000364,
          "velocity": 0.2047244094488189,
          "duration": 0.15000000000000568
        },
        {
          "name": "C#3",
          "midi": 49,
          "time": 189.30000000000365,
          "velocity": 0.1889763779527559,
          "duration": 0.15000000000000568
        },
        {
          "name": "F3",
          "midi": 53,
          "time": 189.45000000000366,
          "velocity": 0.1732283464566929,
          "duration": 0.15000000000000568
        },
        {
          "name": "G#3",
          "midi": 56,
          "time": 189.60000000000366,
          "velocity": 0.16535433070866143,
          "duration": 0.15000000000000568
        },
        {
          "name": "C#4",
          "midi": 61,
          "time": 189.75000000000367,
          "velocity": 0.15748031496062992,
          "duration": 0.15000000000000568
        },
        {
          "name": "F4",
          "midi": 65,
          "time": 189.90000000000367,
          "velocity": 0.2125984251968504,
          "duration": 0.30000000000001137
        },
        {
          "name": "G#4",
          "midi": 68,
          "time": 190.20000000000368,
          "velocity": 0.1732283464566929,
          "duration": 0.30000000000001137
        },
        {
          "name": "C#5",
          "midi": 73,
          "time": 190.5000000000037,
          "velocity": 0.1732283464566929,
          "duration": 0.30000000000001137
        },
        {
          "name": "F5",
          "midi": 77,
          "time": 190.8000000000037,
          "velocity": 0.2125984251968504,
          "duration": 0.29999999999998295
        },
        {
          "name": "G#5",
          "midi": 80,
          "time": 191.1000000000037,
          "velocity": 0.1732283464566929,
          "duration": 0.29999999999998295
        },
        {
          "name": "C#6",
          "midi": 85,
          "time": 191.40000000000367,
          "velocity": 0.1732283464566929,
          "duration": 0.21249999999997726
        },
        {
          "name": "C#4",
          "midi": 61,
          "time": 191.61250000000365,
          "velocity": 0.15748031496062992,
          "duration": 1.8874999999999318
        },
        {
          "name": "G#4",
          "midi": 68,
          "time": 191.62500000000364,
          "velocity": 0.1732283464566929,
          "duration": 1.8749999999999432
        },
        {
          "name": "C#5",
          "midi": 73,
          "time": 191.63750000000363,
          "velocity": 0.1732283464566929,
          "duration": 1.8624999999999545
        },
        {
          "name": "F5",
          "midi": 77,
          "time": 191.65000000000362,
          "velocity": 0.1968503937007874,
          "duration": 1.849999999999966
        },
        {
          "name": "G#5",
          "midi": 80,
          "time": 191.6625000000036,
          "velocity": 0.1889763779527559,
          "duration": 1.8374999999999773
        },
        {
          "name": "C#6",
          "midi": 85,
          "time": 191.6750000000036,
          "velocity": 0.2047244094488189,
          "duration": 1.8249999999999886
        },
        {
          "name": "F6",
          "midi": 89,
          "time": 191.68750000000358,
          "velocity": 0.2204724409448819,
          "duration": 1.8125
        },
        {
          "name": "G#6",
          "midi": 92,
          "time": 191.70000000000357,
          "velocity": 0.2677165354330709,
          "duration": 1.8000000000000114
        }
      ],
      "controlChanges": {
        "7": [
          {
            "number": 7,
            "time": 0,
            "value": 0.7874015748031497
          },
          {
            "number": 7,
            "time": 0,
            "value": 0.7874015748031497
          }
        ],
        "10": [
          {
            "number": 10,
            "time": 0,
            "value": 0.5039370078740157
          },
          {
            "number": 10,
            "time": 0,
            "value": 0.5039370078740157
          }
        ],
        "64": [
          {
            "number": 64,
            "time": 0,
            "value": 0
          },
          {
            "number": 64,
            "time": 0.3,
            "value": 1
          },
          {
            "number": 64,
            "time": 2.6999999999999997,
            "value": 0
          },
          {
            "number": 64,
            "time": 6.414999999999998,
            "value": 1
          },
          {
            "number": 64,
            "time": 8.099999999999998,
            "value": 0
          },
          {
            "number": 64,
            "time": 8.391249999999998,
            "value": 1
          },
          {
            "number": 64,
            "time": 9.026249999999997,
            "value": 0
          },
          {
            "number": 64,
            "time": 11.982500000000002,
            "value": 1
          },
          {
            "number": 64,
            "time": 12.632500000000004,
            "value": 0
          },
          {
            "number": 64,
            "time": 17.22375000000001,
            "value": 1
          },
          {
            "number": 64,
            "time": 18.02750000000001,
            "value": 0
          },
          {
            "number": 64,
            "time": 20.780000000000012,
            "value": 1
          },
          {
            "number": 64,
            "time": 21.626250000000013,
            "value": 0
          },
          {
            "number": 64,
            "time": 21.900000000000013,
            "value": 1
          },
          {
            "number": 64,
            "time": 24.30000000000001,
            "value": 0
          },
          {
            "number": 64,
            "time": 27.141250000000014,
            "value": 1
          },
          {
            "number": 64,
            "time": 27.921250000000015,
            "value": 0
          },
          {
            "number": 64,
            "time": 28.095000000000013,
            "value": 1
          },
          {
            "number": 64,
            "time": 29.700000000000014,
            "value": 0
          },
          {
            "number": 64,
            "time": 29.912500000000012,
            "value": 1
          },
          {
            "number": 64,
            "time": 30.607500000000012,
            "value": 0
          },
          {
            "number": 64,
            "time": 32.55000000000001,
            "value": 1
          },
          {
            "number": 64,
            "time": 33.316250000000004,
            "value": 0
          },
          {
            "number": 64,
            "time": 33.89125000000001,
            "value": 1
          },
          {
            "number": 64,
            "time": 35.145,
            "value": 0
          },
          {
            "number": 64,
            "time": 36.53,
            "value": 1
          },
          {
            "number": 64,
            "time": 37.80500000000001,
            "value": 0
          },
          {
            "number": 64,
            "time": 37.91125000000001,
            "value": 1
          },
          {
            "number": 64,
            "time": 39.02125000000001,
            "value": 0
          },
          {
            "number": 64,
            "time": 39.102500000000006,
            "value": 1
          },
          {
            "number": 64,
            "time": 39.911249999999995,
            "value": 0
          },
          {
            "number": 64,
            "time": 40.01125,
            "value": 1
          },
          {
            "number": 64,
            "time": 40.81749999999999,
            "value": 0
          },
          {
            "number": 64,
            "time": 40.96749999999999,
            "value": 1
          },
          {
            "number": 64,
            "time": 42.307499999999976,
            "value": 0
          },
          {
            "number": 64,
            "time": 42.42374999999998,
            "value": 1
          },
          {
            "number": 64,
            "time": 43.199999999999974,
            "value": 0
          },
          {
            "number": 64,
            "time": 43.31874999999997,
            "value": 1
          },
          {
            "number": 64,
            "time": 44.41624999999997,
            "value": 0
          },
          {
            "number": 64,
            "time": 44.54999999999997,
            "value": 1
          },
          {
            "number": 64,
            "time": 45.013749999999966,
            "value": 0
          },
          {
            "number": 64,
            "time": 45.08749999999996,
            "value": 1
          },
          {
            "number": 64,
            "time": 45.899999999999956,
            "value": 0
          },
          {
            "number": 64,
            "time": 45.939999999999955,
            "value": 1
          },
          {
            "number": 64,
            "time": 46.81624999999995,
            "value": 0
          },
          {
            "number": 64,
            "time": 46.87499999999995,
            "value": 1
          },
          {
            "number": 64,
            "time": 47.723749999999946,
            "value": 0
          },
          {
            "number": 64,
            "time": 47.81499999999995,
            "value": 1
          },
          {
            "number": 64,
            "time": 48.66249999999995,
            "value": 0
          },
          {
            "number": 64,
            "time": 48.784999999999954,
            "value": 1
          },
          {
            "number": 64,
            "time": 50.417499999999954,
            "value": 0
          },
          {
            "number": 64,
            "time": 50.51499999999995,
            "value": 1
          },
          {
            "number": 64,
            "time": 51.29999999999995,
            "value": 0
          },
          {
            "number": 64,
            "time": 51.512499999999946,
            "value": 1
          },
          {
            "number": 64,
            "time": 53.11499999999994,
            "value": 0
          },
          {
            "number": 64,
            "time": 53.29499999999994,
            "value": 1
          },
          {
            "number": 64,
            "time": 54.02624999999993,
            "value": 0
          },
          {
            "number": 64,
            "time": 54.141249999999935,
            "value": 1
          },
          {
            "number": 64,
            "time": 55.82749999999994,
            "value": 0
          },
          {
            "number": 64,
            "time": 55.914999999999935,
            "value": 1
          },
          {
            "number": 64,
            "time": 56.69999999999994,
            "value": 0
          },
          {
            "number": 64,
            "time": 56.98249999999994,
            "value": 1
          },
          {
            "number": 64,
            "time": 58.51624999999993,
            "value": 0
          },
          {
            "number": 64,
            "time": 58.729999999999926,
            "value": 1
          },
          {
            "number": 64,
            "time": 59.39999999999993,
            "value": 0
          },
          {
            "number": 64,
            "time": 59.497499999999924,
            "value": 1
          },
          {
            "number": 64,
            "time": 61.22624999999992,
            "value": 0
          },
          {
            "number": 64,
            "time": 61.30624999999992,
            "value": 1
          },
          {
            "number": 64,
            "time": 62.09999999999992,
            "value": 0
          },
          {
            "number": 64,
            "time": 62.15749999999992,
            "value": 1
          },
          {
            "number": 64,
            "time": 63.913749999999915,
            "value": 0
          },
          {
            "number": 64,
            "time": 64.02874999999992,
            "value": 1
          },
          {
            "number": 64,
            "time": 64.65374999999992,
            "value": 0
          },
          {
            "number": 64,
            "time": 64.72999999999992,
            "value": 1
          },
          {
            "number": 64,
            "time": 66.42124999999993,
            "value": 0
          },
          {
            "number": 64,
            "time": 66.46874999999993,
            "value": 1
          },
          {
            "number": 64,
            "time": 67.35749999999989,
            "value": 0
          },
          {
            "number": 64,
            "time": 67.39624999999988,
            "value": 1
          },
          {
            "number": 64,
            "time": 69.13749999999986,
            "value": 0
          },
          {
            "number": 64,
            "time": 69.18124999999986,
            "value": 1
          },
          {
            "number": 64,
            "time": 70.19999999999987,
            "value": 0
          },
          {
            "number": 64,
            "time": 70.30749999999988,
            "value": 1
          },
          {
            "number": 64,
            "time": 71.11249999999991,
            "value": 0
          },
          {
            "number": 64,
            "time": 71.19249999999991,
            "value": 1
          },
          {
            "number": 64,
            "time": 72.01124999999995,
            "value": 0
          },
          {
            "number": 64,
            "time": 72.08624999999995,
            "value": 1
          },
          {
            "number": 64,
            "time": 72.89999999999996,
            "value": 0
          },
          {
            "number": 64,
            "time": 72.99249999999996,
            "value": 1
          },
          {
            "number": 64,
            "time": 73.81625,
            "value": 0
          },
          {
            "number": 64,
            "time": 73.87125,
            "value": 1
          },
          {
            "number": 64,
            "time": 74.71125000000004,
            "value": 0
          },
          {
            "number": 64,
            "time": 74.77875000000003,
            "value": 1
          },
          {
            "number": 64,
            "time": 75.60000000000007,
            "value": 0
          },
          {
            "number": 64,
            "time": 75.73250000000006,
            "value": 1
          },
          {
            "number": 64,
            "time": 76.50875000000008,
            "value": 0
          },
          {
            "number": 64,
            "time": 76.58875000000008,
            "value": 1
          },
          {
            "number": 64,
            "time": 77.40875000000011,
            "value": 0
          },
          {
            "number": 64,
            "time": 77.51500000000011,
            "value": 1
          },
          {
            "number": 64,
            "time": 78.31125000000014,
            "value": 0
          },
          {
            "number": 64,
            "time": 78.37875000000014,
            "value": 1
          },
          {
            "number": 64,
            "time": 79.22500000000018,
            "value": 0
          },
          {
            "number": 64,
            "time": 79.30750000000018,
            "value": 1
          },
          {
            "number": 64,
            "time": 80.11000000000021,
            "value": 0
          },
          {
            "number": 64,
            "time": 80.1787500000002,
            "value": 1
          },
          {
            "number": 64,
            "time": 81.0062500000002,
            "value": 0
          },
          {
            "number": 64,
            "time": 81.0800000000002,
            "value": 1
          },
          {
            "number": 64,
            "time": 81.90875000000023,
            "value": 0
          },
          {
            "number": 64,
            "time": 82.00625000000022,
            "value": 1
          },
          {
            "number": 64,
            "time": 82.81500000000025,
            "value": 0
          },
          {
            "number": 64,
            "time": 82.90625000000026,
            "value": 1
          },
          {
            "number": 64,
            "time": 83.71000000000028,
            "value": 0
          },
          {
            "number": 64,
            "time": 83.78875000000028,
            "value": 1
          },
          {
            "number": 64,
            "time": 84.6112500000003,
            "value": 0
          },
          {
            "number": 64,
            "time": 84.73250000000029,
            "value": 1
          },
          {
            "number": 64,
            "time": 85.50875000000029,
            "value": 0
          },
          {
            "number": 64,
            "time": 85.6412500000003,
            "value": 1
          },
          {
            "number": 64,
            "time": 86.4000000000003,
            "value": 0
          },
          {
            "number": 64,
            "time": 86.55875000000032,
            "value": 1
          },
          {
            "number": 64,
            "time": 87.32125000000033,
            "value": 0
          },
          {
            "number": 64,
            "time": 89.2075000000004,
            "value": 1
          },
          {
            "number": 64,
            "time": 90.0075000000004,
            "value": 0
          },
          {
            "number": 64,
            "time": 90.1000000000004,
            "value": 1
          },
          {
            "number": 64,
            "time": 90.92125000000043,
            "value": 0
          },
          {
            "number": 64,
            "time": 90.99250000000042,
            "value": 1
          },
          {
            "number": 64,
            "time": 91.81250000000047,
            "value": 0
          },
          {
            "number": 64,
            "time": 91.95750000000046,
            "value": 1
          },
          {
            "number": 64,
            "time": 92.7112500000005,
            "value": 0
          },
          {
            "number": 64,
            "time": 92.7925000000005,
            "value": 1
          },
          {
            "number": 64,
            "time": 93.61875000000053,
            "value": 0
          },
          {
            "number": 64,
            "time": 93.70000000000053,
            "value": 1
          },
          {
            "number": 64,
            "time": 94.50375000000054,
            "value": 0
          },
          {
            "number": 64,
            "time": 94.57875000000054,
            "value": 1
          },
          {
            "number": 64,
            "time": 95.41000000000058,
            "value": 0
          },
          {
            "number": 64,
            "time": 95.46375000000057,
            "value": 1
          },
          {
            "number": 64,
            "time": 96.31500000000061,
            "value": 0
          },
          {
            "number": 64,
            "time": 96.43625000000061,
            "value": 1
          },
          {
            "number": 64,
            "time": 97.20000000000064,
            "value": 0
          },
          {
            "number": 64,
            "time": 97.28875000000065,
            "value": 1
          },
          {
            "number": 64,
            "time": 98.11750000000067,
            "value": 0
          },
          {
            "number": 64,
            "time": 98.20625000000068,
            "value": 1
          },
          {
            "number": 64,
            "time": 99.01000000000072,
            "value": 0
          },
          {
            "number": 64,
            "time": 99.10625000000071,
            "value": 1
          },
          {
            "number": 64,
            "time": 99.91250000000075,
            "value": 0
          },
          {
            "number": 64,
            "time": 100.05000000000075,
            "value": 1
          },
          {
            "number": 64,
            "time": 100.81125000000078,
            "value": 0
          },
          {
            "number": 64,
            "time": 100.90625000000078,
            "value": 1
          },
          {
            "number": 64,
            "time": 101.71125000000082,
            "value": 0
          },
          {
            "number": 64,
            "time": 101.78875000000082,
            "value": 1
          },
          {
            "number": 64,
            "time": 102.61125000000085,
            "value": 0
          },
          {
            "number": 64,
            "time": 102.68000000000085,
            "value": 1
          },
          {
            "number": 64,
            "time": 103.51750000000087,
            "value": 0
          },
          {
            "number": 64,
            "time": 103.59750000000086,
            "value": 1
          },
          {
            "number": 64,
            "time": 104.4237500000009,
            "value": 0
          },
          {
            "number": 64,
            "time": 104.52375000000089,
            "value": 1
          },
          {
            "number": 64,
            "time": 105.30500000000092,
            "value": 0
          },
          {
            "number": 64,
            "time": 105.42375000000092,
            "value": 1
          },
          {
            "number": 64,
            "time": 106.21750000000095,
            "value": 0
          },
          {
            "number": 64,
            "time": 106.30625000000096,
            "value": 1
          },
          {
            "number": 64,
            "time": 107.10750000000098,
            "value": 0
          },
          {
            "number": 64,
            "time": 107.23250000000098,
            "value": 1
          },
          {
            "number": 64,
            "time": 108.00000000000101,
            "value": 0
          },
          {
            "number": 64,
            "time": 108.08875000000101,
            "value": 1
          },
          {
            "number": 64,
            "time": 108.31750000000102,
            "value": 0
          },
          {
            "number": 64,
            "time": 108.38000000000102,
            "value": 1
          },
          {
            "number": 64,
            "time": 108.94500000000103,
            "value": 0
          },
          {
            "number": 64,
            "time": 109.03250000000104,
            "value": 1
          },
          {
            "number": 64,
            "time": 109.35750000000104,
            "value": 0
          },
          {
            "number": 64,
            "time": 109.47375000000103,
            "value": 1
          },
          {
            "number": 64,
            "time": 110.27875000000107,
            "value": 0
          },
          {
            "number": 64,
            "time": 110.35625000000107,
            "value": 1
          },
          {
            "number": 64,
            "time": 110.70875000000109,
            "value": 0
          },
          {
            "number": 64,
            "time": 110.7975000000011,
            "value": 1
          },
          {
            "number": 64,
            "time": 111.02250000000109,
            "value": 0
          },
          {
            "number": 64,
            "time": 111.11500000000109,
            "value": 1
          },
          {
            "number": 64,
            "time": 111.62625000000111,
            "value": 0
          },
          {
            "number": 64,
            "time": 111.7412500000011,
            "value": 1
          },
          {
            "number": 64,
            "time": 112.20875000000113,
            "value": 0
          },
          {
            "number": 64,
            "time": 112.28000000000114,
            "value": 1
          },
          {
            "number": 64,
            "time": 112.52000000000113,
            "value": 0
          },
          {
            "number": 64,
            "time": 112.62375000000114,
            "value": 1
          },
          {
            "number": 64,
            "time": 112.82625000000115,
            "value": 0
          },
          {
            "number": 64,
            "time": 112.91500000000116,
            "value": 1
          },
          {
            "number": 64,
            "time": 113.40000000000117,
            "value": 0
          },
          {
            "number": 64,
            "time": 113.55000000000118,
            "value": 1
          },
          {
            "number": 64,
            "time": 114.3187500000012,
            "value": 0
          },
          {
            "number": 64,
            "time": 114.4412500000012,
            "value": 1
          },
          {
            "number": 64,
            "time": 115.21250000000124,
            "value": 0
          },
          {
            "number": 64,
            "time": 115.28000000000124,
            "value": 1
          },
          {
            "number": 64,
            "time": 116.10750000000125,
            "value": 0
          },
          {
            "number": 64,
            "time": 116.22375000000125,
            "value": 1
          },
          {
            "number": 64,
            "time": 117.02625000000128,
            "value": 0
          },
          {
            "number": 64,
            "time": 117.11500000000129,
            "value": 1
          },
          {
            "number": 64,
            "time": 117.9225000000013,
            "value": 0
          },
          {
            "number": 64,
            "time": 118.0062500000013,
            "value": 1
          },
          {
            "number": 64,
            "time": 118.80750000000133,
            "value": 0
          },
          {
            "number": 64,
            "time": 118.93250000000133,
            "value": 1
          },
          {
            "number": 64,
            "time": 119.71250000000136,
            "value": 0
          },
          {
            "number": 64,
            "time": 119.78000000000135,
            "value": 1
          },
          {
            "number": 64,
            "time": 120.61375000000137,
            "value": 0
          },
          {
            "number": 64,
            "time": 120.69750000000137,
            "value": 1
          },
          {
            "number": 64,
            "time": 121.50250000000139,
            "value": 0
          },
          {
            "number": 64,
            "time": 121.59750000000139,
            "value": 1
          },
          {
            "number": 64,
            "time": 122.41125000000142,
            "value": 0
          },
          {
            "number": 64,
            "time": 122.48875000000142,
            "value": 1
          },
          {
            "number": 64,
            "time": 123.31125000000145,
            "value": 0
          },
          {
            "number": 64,
            "time": 123.38000000000144,
            "value": 1
          },
          {
            "number": 64,
            "time": 124.21250000000147,
            "value": 0
          },
          {
            "number": 64,
            "time": 124.29750000000146,
            "value": 1
          },
          {
            "number": 64,
            "time": 125.11125000000149,
            "value": 0
          },
          {
            "number": 64,
            "time": 125.1975000000015,
            "value": 1
          },
          {
            "number": 64,
            "time": 126.00750000000151,
            "value": 0
          },
          {
            "number": 64,
            "time": 126.09750000000152,
            "value": 1
          },
          {
            "number": 64,
            "time": 126.91000000000155,
            "value": 0
          },
          {
            "number": 64,
            "time": 126.98875000000155,
            "value": 1
          },
          {
            "number": 64,
            "time": 127.82625000000158,
            "value": 0
          },
          {
            "number": 64,
            "time": 127.94125000000157,
            "value": 1
          },
          {
            "number": 64,
            "time": 128.72375000000162,
            "value": 0
          },
          {
            "number": 64,
            "time": 128.81500000000162,
            "value": 1
          },
          {
            "number": 64,
            "time": 129.60000000000164,
            "value": 0
          },
          {
            "number": 64,
            "time": 129.70625000000163,
            "value": 1
          },
          {
            "number": 64,
            "time": 130.52375000000163,
            "value": 0
          },
          {
            "number": 64,
            "time": 130.60625000000164,
            "value": 1
          },
          {
            "number": 64,
            "time": 131.41125000000164,
            "value": 0
          },
          {
            "number": 64,
            "time": 131.48875000000163,
            "value": 1
          },
          {
            "number": 64,
            "time": 132.31250000000162,
            "value": 0
          },
          {
            "number": 64,
            "time": 132.40750000000162,
            "value": 1
          },
          {
            "number": 64,
            "time": 133.21125000000163,
            "value": 0
          },
          {
            "number": 64,
            "time": 133.27875000000162,
            "value": 1
          },
          {
            "number": 64,
            "time": 134.10750000000164,
            "value": 0
          },
          {
            "number": 64,
            "time": 134.20000000000164,
            "value": 1
          },
          {
            "number": 64,
            "time": 135.0000000000018,
            "value": 0
          },
          {
            "number": 64,
            "time": 135.0800000000018,
            "value": 1
          },
          {
            "number": 64,
            "time": 136.81125000000182,
            "value": 0
          },
          {
            "number": 64,
            "time": 137.7575000000018,
            "value": 1
          },
          {
            "number": 64,
            "time": 138.6425000000019,
            "value": 0
          },
          {
            "number": 64,
            "time": 138.71500000000188,
            "value": 1
          },
          {
            "number": 64,
            "time": 140.40000000000188,
            "value": 0
          },
          {
            "number": 64,
            "time": 140.5237500000019,
            "value": 1
          },
          {
            "number": 64,
            "time": 141.31750000000196,
            "value": 0
          },
          {
            "number": 64,
            "time": 141.45000000000195,
            "value": 1
          },
          {
            "number": 64,
            "time": 143.10000000000196,
            "value": 0
          },
          {
            "number": 64,
            "time": 143.19750000000198,
            "value": 1
          },
          {
            "number": 64,
            "time": 144.0075000000021,
            "value": 0
          },
          {
            "number": 64,
            "time": 144.1062500000021,
            "value": 1
          },
          {
            "number": 64,
            "time": 145.8000000000021,
            "value": 0
          },
          {
            "number": 64,
            "time": 145.8575000000021,
            "value": 1
          },
          {
            "number": 64,
            "time": 146.71000000000214,
            "value": 0
          },
          {
            "number": 64,
            "time": 147.01375000000212,
            "value": 1
          },
          {
            "number": 64,
            "time": 147.33125000000211,
            "value": 0
          },
          {
            "number": 64,
            "time": 148.59750000000224,
            "value": 1
          },
          {
            "number": 64,
            "time": 149.41500000000227,
            "value": 0
          },
          {
            "number": 64,
            "time": 149.50625000000227,
            "value": 1
          },
          {
            "number": 64,
            "time": 150.31875000000227,
            "value": 0
          },
          {
            "number": 64,
            "time": 150.42375000000226,
            "value": 1
          },
          {
            "number": 64,
            "time": 151.21750000000227,
            "value": 0
          },
          {
            "number": 64,
            "time": 151.27500000000228,
            "value": 1
          },
          {
            "number": 64,
            "time": 152.11000000000234,
            "value": 0
          },
          {
            "number": 64,
            "time": 152.18875000000236,
            "value": 1
          },
          {
            "number": 64,
            "time": 152.7175000000024,
            "value": 0
          },
          {
            "number": 64,
            "time": 152.78375000000239,
            "value": 1
          },
          {
            "number": 64,
            "time": 153.90000000000248,
            "value": 0
          },
          {
            "number": 64,
            "time": 154.0237500000025,
            "value": 1
          },
          {
            "number": 64,
            "time": 154.82125000000264,
            "value": 0
          },
          {
            "number": 64,
            "time": 154.90625000000264,
            "value": 1
          },
          {
            "number": 64,
            "time": 155.72625000000264,
            "value": 0
          },
          {
            "number": 64,
            "time": 155.85000000000264,
            "value": 1
          },
          {
            "number": 64,
            "time": 156.60000000000267,
            "value": 0
          },
          {
            "number": 64,
            "time": 156.93500000000267,
            "value": 1
          },
          {
            "number": 64,
            "time": 159.30000000000268,
            "value": 0
          },
          {
            "number": 64,
            "time": 159.53000000000267,
            "value": 1
          },
          {
            "number": 64,
            "time": 160.2187500000027,
            "value": 0
          },
          {
            "number": 64,
            "time": 160.4300000000027,
            "value": 1
          },
          {
            "number": 64,
            "time": 162.00000000000273,
            "value": 0
          },
          {
            "number": 64,
            "time": 162.15875000000273,
            "value": 1
          },
          {
            "number": 64,
            "time": 162.91625000000278,
            "value": 0
          },
          {
            "number": 64,
            "time": 163.07625000000277,
            "value": 1
          },
          {
            "number": 64,
            "time": 163.81750000000278,
            "value": 0
          },
          {
            "number": 64,
            "time": 163.9950000000028,
            "value": 1
          },
          {
            "number": 64,
            "time": 164.71750000000281,
            "value": 0
          },
          {
            "number": 64,
            "time": 164.89500000000282,
            "value": 1
          },
          {
            "number": 64,
            "time": 165.61625000000285,
            "value": 0
          },
          {
            "number": 64,
            "time": 167.40000000000285,
            "value": 1
          },
          {
            "number": 64,
            "time": 168.31250000000287,
            "value": 0
          },
          {
            "number": 64,
            "time": 168.56500000000287,
            "value": 1
          },
          {
            "number": 64,
            "time": 169.21875000000287,
            "value": 0
          },
          {
            "number": 64,
            "time": 169.46500000000287,
            "value": 1
          },
          {
            "number": 64,
            "time": 170.10750000000286,
            "value": 0
          },
          {
            "number": 64,
            "time": 170.29500000000286,
            "value": 1
          },
          {
            "number": 64,
            "time": 171.01750000000288,
            "value": 0
          },
          {
            "number": 64,
            "time": 171.24750000000287,
            "value": 1
          },
          {
            "number": 64,
            "time": 171.91000000000287,
            "value": 0
          },
          {
            "number": 64,
            "time": 172.16500000000286,
            "value": 1
          },
          {
            "number": 64,
            "time": 172.80000000000285,
            "value": 0
          },
          {
            "number": 64,
            "time": 172.90625000000284,
            "value": 1
          },
          {
            "number": 64,
            "time": 173.72000000000287,
            "value": 0
          },
          {
            "number": 64,
            "time": 173.86750000000288,
            "value": 1
          },
          {
            "number": 64,
            "time": 174.62625000000287,
            "value": 0
          },
          {
            "number": 64,
            "time": 174.72375000000287,
            "value": 1
          },
          {
            "number": 64,
            "time": 175.50000000000287,
            "value": 0
          },
          {
            "number": 64,
            "time": 175.65000000000288,
            "value": 1
          },
          {
            "number": 64,
            "time": 176.412500000003,
            "value": 0
          },
          {
            "number": 64,
            "time": 176.515000000003,
            "value": 1
          },
          {
            "number": 64,
            "time": 177.31000000000316,
            "value": 0
          },
          {
            "number": 64,
            "time": 177.44125000000315,
            "value": 1
          },
          {
            "number": 64,
            "time": 178.20000000000306,
            "value": 0
          },
          {
            "number": 64,
            "time": 178.31500000000307,
            "value": 1
          },
          {
            "number": 64,
            "time": 179.10750000000314,
            "value": 0
          },
          {
            "number": 64,
            "time": 179.25000000000315,
            "value": 1
          },
          {
            "number": 64,
            "time": 180.02125000000322,
            "value": 0
          },
          {
            "number": 64,
            "time": 180.17875000000322,
            "value": 1
          },
          {
            "number": 64,
            "time": 180.9100000000032,
            "value": 0
          },
          {
            "number": 64,
            "time": 181.0412500000032,
            "value": 1
          },
          {
            "number": 64,
            "time": 181.81750000000338,
            "value": 0
          },
          {
            "number": 64,
            "time": 181.94125000000338,
            "value": 1
          },
          {
            "number": 64,
            "time": 182.70875000000353,
            "value": 0
          },
          {
            "number": 64,
            "time": 182.82375000000354,
            "value": 1
          },
          {
            "number": 64,
            "time": 183.60875000000345,
            "value": 0
          },
          {
            "number": 64,
            "time": 183.72125000000347,
            "value": 1
          },
          {
            "number": 64,
            "time": 184.51500000000354,
            "value": 0
          },
          {
            "number": 64,
            "time": 184.63625000000354,
            "value": 1
          },
          {
            "number": 64,
            "time": 186.3575000000036,
            "value": 0
          },
          {
            "number": 64,
            "time": 186.4362500000036,
            "value": 1
          },
          {
            "number": 64,
            "time": 189.00625000000366,
            "value": 0
          },
          {
            "number": 64,
            "time": 189.11000000000365,
            "value": 1
          },
          {
            "number": 64,
            "time": 191.63250000000363,
            "value": 0
          },
          {
            "number": 64,
            "time": 191.70000000000357,
            "value": 1
          },
          {
            "number": 64,
            "time": 193.97625000000357,
            "value": 0
          }
        ],
        "91": [
          {
            "number": 91,
            "time": 0,
            "value": 1
          },
          {
            "number": 91,
            "time": 0,
            "value": 1
          },
          {
            "number": 91,
            "time": 0,
            "value": 1
          },
          {
            "number": 91,
            "time": 135.0000000000018,
            "value": 1
          }
        ]
      }
    }
}