{
  "header": {
    "PPQ": 480,
    "timeSignature": [
      4,
      4
    ],
    "bpm": 175.79996308200776,
    "name": "Chopin Fantasie-Impromptu in C# minor Opus 66"
  },
  "startTime": 0,
  "duration": 188.39594400000829,
  "tracks": [
    {
      "startTime": 0,
      "duration": 0,
      "length": 0,
      "id": 0,
      "name": "Chopin Fantasie-Impromptu in C# minor Opus 66"
    },
    {
      "startTime": 5.54607625,
      "duration": 188.39594400000829,
      "length": 1638,
      "id": 1,
      "name": "Piano right",
      "instrumentNumber": 1,
      "instrument": "bright acoustic piano",
      "instrumentFamily": "piano",
      "channelNumber": 0,
      "isPercussion": false,
      "notes": [
        {
          "name": "G#4",
          "midi": 68,
          "time": 5.54607625,
          "velocity": 0.29133858267716534,
          "duration": 0.08532425000000021
        },
        {
          "name": "A4",
          "midi": 69,
          "time": 5.6314005,
          "velocity": 0.3228346456692913,
          "duration": 0.08532425000000021
        },
        {
          "name": "G#4",
          "midi": 68,
          "time": 5.71672475,
          "velocity": 0.2992125984251969,
          "duration": 0.08532425000000021
        },
        {
          "name": "G4",
          "midi": 67,
          "time": 5.802049,
          "velocity": 0.30708661417322836,
          "duration": 0.08532425000000021
        },
        {
          "name": "G#4",
          "midi": 68,
          "time": 5.8873732500000004,
          "velocity": 0.31496062992125984,
          "duration": 0.08532425000000021
        },
        {
          "name": "C#5",
          "midi": 73,
          "time": 5.972697500000001,
          "velocity": 0.33070866141732286,
          "duration": 0.08532425000000021
        },
        {
          "name": "E5",
          "midi": 76,
          "time": 6.058021750000001,
          "velocity": 0.33858267716535434,
          "duration": 0.08532425000000021
        },
        {
          "name": "D#5",
          "midi": 75,
          "time": 6.143346000000001,
          "velocity": 0.3543307086614173,
          "duration": 0.08532425000000021
        },
        {
          "name": "C#5",
          "midi": 73,
          "time": 6.228670250000001,
          "velocity": 0.33858267716535434,
          "duration": 0.08532425000000021
        },
        {
          "name": "D#5",
          "midi": 75,
          "time": 6.3139945000000015,
          "velocity": 0.3543307086614173,
          "duration": 0.08532425000000021
        },
        {
          "name": "C#5",
          "midi": 73,
          "time": 6.399318750000002,
          "velocity": 0.33858267716535434,
          "duration": 0.08532425000000021
        },
        {
          "name": "C5",
          "midi": 72,
          "time": 6.484643000000002,
          "velocity": 0.3464566929133858,
          "duration": 0.08532425000000021
        },
        {
          "name": "C#5",
          "midi": 73,
          "time": 6.569967250000002,
          "velocity": 0.36220472440944884,
          "duration": 0.08532425000000021
        },
        {
          "name": "E5",
          "midi": 76,
          "time": 6.655291500000002,
          "velocity": 0.3858267716535433,
          "duration": 0.08532425000000021
        },
        {
          "name": "G#5",
          "midi": 80,
          "time": 6.740615750000003,
          "velocity": 0.3700787401574803,
          "duration": 0.08532425000000021
        },
        {
          "name": "G#4",
          "midi": 68,
          "time": 6.911264250000003,
          "velocity": 0.3543307086614173,
          "duration": 0.08532425000000021
        },
        {
          "name": "A4",
          "midi": 69,
          "time": 6.996588500000003,
          "velocity": 0.3858267716535433,
          "duration": 0.08532425000000021
        },
        {
          "name": "G#4",
          "midi": 68,
          "time": 7.081912750000003,
          "velocity": 0.3543307086614173,
          "duration": 0.08532425000000021
        },
        {
          "name": "G4",
          "midi": 67,
          "time": 7.167237000000004,
          "velocity": 0.36220472440944884,
          "duration": 0.08532425000000021
        },
        {
          "name": "G#4",
          "midi": 68,
          "time": 7.252561250000004,
          "velocity": 0.3779527559055118,
          "duration": 0.08532425000000021
        },
        {
          "name": "C#5",
          "midi": 73,
          "time": 7.337885500000004,
          "velocity": 0.3937007874015748,
          "duration": 0.08532425000000021
        },
        {
          "name": "E5",
          "midi": 76,
          "time": 7.423209750000004,
          "velocity": 0.4015748031496063,
          "duration": 0.08532425000000021
        },
        {
          "name": "D#5",
          "midi": 75,
          "time": 7.5085340000000045,
          "velocity": 0.4251968503937008,
          "duration": 0.08532425000000021
        },
        {
          "name": "C#5",
          "midi": 73,
          "time": 7.593858250000005,
          "velocity": 0.4015748031496063,
          "duration": 0.08532425000000021
        },
        {
          "name": "D#5",
          "midi": 75,
          "time": 7.679182500000005,
          "velocity": 0.41732283464566927,
          "duration": 0.08532425000000021
        },
        {
          "name": "C#5",
          "midi": 73,
          "time": 7.764506750000005,
          "velocity": 0.4015748031496063,
          "duration": 0.08532425000000021
        },
        {
          "name": "C5",
          "midi": 72,
          "time": 7.849831000000005,
          "velocity": 0.4094488188976378,
          "duration": 0.08532425000000021
        },
        {
          "name": "C#5",
          "midi": 73,
          "time": 7.9351552500000055,
          "velocity": 0.4251968503937008,
          "duration": 0.08532425000000021
        },
        {
          "name": "E5",
          "midi": 76,
          "time": 8.020479500000006,
          "velocity": 0.44881889763779526,
          "duration": 0.08532424999999932
        },
        {
          "name": "G#5",
          "midi": 80,
          "time": 8.105803750000005,
          "velocity": 0.4330708661417323,
          "duration": 0.08532424999999932
        },
        {
          "name": "A4",
          "midi": 69,
          "time": 8.276452250000004,
          "velocity": 0.4330708661417323,
          "duration": 0.08532424999999932
        },
        {
          "name": "C#5",
          "midi": 73,
          "time": 8.361776500000003,
          "velocity": 0.4330708661417323,
          "duration": 0.08532424999999932
        },
        {
          "name": "D#5",
          "midi": 75,
          "time": 8.447100750000002,
          "velocity": 0.4566929133858268,
          "duration": 0.08532424999999932
        },
        {
          "name": "F#5",
          "midi": 78,
          "time": 8.532425000000002,
          "velocity": 0.48031496062992124,
          "duration": 0.08532424999999932
        },
        {
          "name": "A5",
          "midi": 81,
          "time": 8.617749250000001,
          "velocity": 0.5039370078740157,
          "duration": 0.08532424999999932
        },
        {
          "name": "C#6",
          "midi": 85,
          "time": 8.7030735,
          "velocity": 0.5275590551181102,
          "duration": 0.08532424999999932
        },
        {
          "name": "D#6",
          "midi": 87,
          "time": 8.78839775,
          "velocity": 0.5511811023622047,
          "duration": 0.08532424999999932
        },
        {
          "name": "B6",
          "midi": 95,
          "time": 8.873721999999999,
          "velocity": 0.5826771653543307,
          "duration": 0.08532424999999932
        },
        {
          "name": "A6",
          "midi": 93,
          "time": 8.959046249999998,
          "velocity": 0.5669291338582677,
          "duration": 0.08532424999999932
        },
        {
          "name": "G#6",
          "midi": 92,
          "time": 9.044370499999998,
          "velocity": 0.5590551181102362,
          "duration": 0.08532424999999932
        },
        {
          "name": "F#6",
          "midi": 90,
          "time": 9.129694749999997,
          "velocity": 0.5511811023622047,
          "duration": 0.08532424999999932
        },
        {
          "name": "E6",
          "midi": 88,
          "time": 9.215018999999996,
          "velocity": 0.5433070866141733,
          "duration": 0.08532424999999932
        },
        {
          "name": "D#6",
          "midi": 87,
          "time": 9.300343249999996,
          "velocity": 0.5354330708661418,
          "duration": 0.08532424999999932
        },
        {
          "name": "F#6",
          "midi": 90,
          "time": 9.385667499999995,
          "velocity": 0.5275590551181102,
          "duration": 0.08532424999999932
        },
        {
          "name": "C#6",
          "midi": 85,
          "time": 9.470991749999994,
          "velocity": 0.5196850393700787,
          "duration": 0.08532424999999932
        },
        {
          "name": "C6",
          "midi": 84,
          "time": 9.556315999999994,
          "velocity": 0.5354330708661418,
          "duration": 0.08532424999999932
        },
        {
          "name": "D#6",
          "midi": 87,
          "time": 9.641640249999993,
          "velocity": 0.49606299212598426,
          "duration": 0.08532424999999932
        },
        {
          "name": "A5",
          "midi": 81,
          "time": 9.726964499999992,
          "velocity": 0.49606299212598426,
          "duration": 0.08532424999999932
        },
        {
          "name": "G#5",
          "midi": 80,
          "time": 9.812288749999992,
          "velocity": 0.49606299212598426,
          "duration": 0.08532424999999932
        },
        {
          "name": "F#5",
          "midi": 78,
          "time": 9.897612999999991,
          "velocity": 0.47244094488188976,
          "duration": 0.08532424999999932
        },
        {
          "name": "A5",
          "midi": 81,
          "time": 9.98293724999999,
          "velocity": 0.4566929133858268,
          "duration": 0.08532424999999932
        },
        {
          "name": "E5",
          "midi": 76,
          "time": 10.06826149999999,
          "velocity": 0.4251968503937008,
          "duration": 0.08532424999999932
        },
        {
          "name": "D#5",
          "midi": 75,
          "time": 10.153585749999989,
          "velocity": 0.4251968503937008,
          "duration": 0.08532424999999932
        },
        {
          "name": "F#5",
          "midi": 78,
          "time": 10.238909999999988,
          "velocity": 0.41732283464566927,
          "duration": 0.08532424999999932
        },
        {
          "name": "C#5",
          "midi": 73,
          "time": 10.324234249999988,
          "velocity": 0.3779527559055118,
          "duration": 0.08532424999999932
        },
        {
          "name": "C5",
          "midi": 72,
          "time": 10.409558499999987,
          "velocity": 0.3779527559055118,
          "duration": 0.08532424999999932
        },
        {
          "name": "D#5",
          "midi": 75,
          "time": 10.494882749999986,
          "velocity": 0.3700787401574803,
          "duration": 0.08532424999999932
        },
        {
          "name": "A4",
          "midi": 69,
          "time": 10.580206999999985,
          "velocity": 0.3543307086614173,
          "duration": 0.08532424999999932
        },
        {
          "name": "G#4",
          "midi": 68,
          "time": 10.665531249999985,
          "velocity": 0.33070866141732286,
          "duration": 0.08532424999999932
        },
        {
          "name": "B4",
          "midi": 71,
          "time": 10.750855499999984,
          "velocity": 0.33070866141732286,
          "duration": 0.08532424999999932
        },
        {
          "name": "A4",
          "midi": 69,
          "time": 10.836179749999983,
          "velocity": 0.3228346456692913,
          "duration": 0.17064850000000042
        },
        {
          "name": "G#4",
          "midi": 68,
          "time": 11.006828249999984,
          "velocity": 0.29133858267716534,
          "duration": 0.08532424999999932
        },
        {
          "name": "A4",
          "midi": 69,
          "time": 11.092152499999983,
          "velocity": 0.3228346456692913,
          "duration": 0.08532424999999932
        },
        {
          "name": "G#4",
          "midi": 68,
          "time": 11.177476749999983,
          "velocity": 0.2992125984251969,
          "duration": 0.08532424999999932
        },
        {
          "name": "G4",
          "midi": 67,
          "time": 11.262800999999982,
          "velocity": 0.30708661417322836,
          "duration": 0.08532424999999932
        },
        {
          "name": "G#4",
          "midi": 68,
          "time": 11.348125249999981,
          "velocity": 0.31496062992125984,
          "duration": 0.08532424999999932
        },
        {
          "name": "C#5",
          "midi": 73,
          "time": 11.43344949999998,
          "velocity": 0.33070866141732286,
          "duration": 0.08532424999999932
        },
        {
          "name": "E5",
          "midi": 76,
          "time": 11.51877374999998,
          "velocity": 0.33858267716535434,
          "duration": 0.08532424999999932
        },
        {
          "name": "D#5",
          "midi": 75,
          "time": 11.60409799999998,
          "velocity": 0.3543307086614173,
          "duration": 0.08532424999999932
        },
        {
          "name": "C#5",
          "midi": 73,
          "time": 11.689422249999978,
          "velocity": 0.33858267716535434,
          "duration": 0.08532424999999932
        },
        {
          "name": "D#5",
          "midi": 75,
          "time": 11.774746499999978,
          "velocity": 0.3543307086614173,
          "duration": 0.08532424999999932
        },
        {
          "name": "C#5",
          "midi": 73,
          "time": 11.860070749999977,
          "velocity": 0.33858267716535434,
          "duration": 0.08532424999999932
        },
        {
          "name": "C5",
          "midi": 72,
          "time": 11.945394999999976,
          "velocity": 0.3464566929133858,
          "duration": 0.08532424999999932
        },
        {
          "name": "C#5",
          "midi": 73,
          "time": 12.030719249999976,
          "velocity": 0.36220472440944884,
          "duration": 0.08532424999999932
        },
        {
          "name": "E5",
          "midi": 76,
          "time": 12.116043499999975,
          "velocity": 0.3858267716535433,
          "duration": 0.08532424999999932
        },
        {
          "name": "G#5",
          "midi": 80,
          "time": 12.201367749999974,
          "velocity": 0.3700787401574803,
          "duration": 0.08532424999999932
        },
        {
          "name": "G#4",
          "midi": 68,
          "time": 12.372016249999973,
          "velocity": 0.3543307086614173,
          "duration": 0.08532424999999932
        },
        {
          "name": "A#4",
          "midi": 70,
          "time": 12.457340499999972,
          "velocity": 0.3858267716535433,
          "duration": 0.08532424999999932
        },
        {
          "name": "G#4",
          "midi": 68,
          "time": 12.542664749999972,
          "velocity": 0.3543307086614173,
          "duration": 0.08532424999999932
        },
        {
          "name": "G4",
          "midi": 67,
          "time": 12.627988999999971,
          "velocity": 0.36220472440944884,
          "duration": 0.08532424999999932
        },
        {
          "name": "G#4",
          "midi": 68,
          "time": 12.71331324999997,
          "velocity": 0.3779527559055118,
          "duration": 0.08532424999999932
        },
        {
          "name": "C#5",
          "midi": 73,
          "time": 12.79863749999997,
          "velocity": 0.3937007874015748,
          "duration": 0.08532424999999932
        },
        {
          "name": "E5",
          "midi": 76,
          "time": 12.883961749999969,
          "velocity": 0.4015748031496063,
          "duration": 0.08532424999999932
        },
        {
          "name": "D#5",
          "midi": 75,
          "time": 12.969285999999968,
          "velocity": 0.4251968503937008,
          "duration": 0.08532424999999932
        },
        {
          "name": "C#5",
          "midi": 73,
          "time": 13.054610249999968,
          "velocity": 0.4015748031496063,
          "duration": 0.08532424999999932
        },
        {
          "name": "D#5",
          "midi": 75,
          "time": 13.139934499999967,
          "velocity": 0.41732283464566927,
          "duration": 0.08532424999999932
        },
        {
          "name": "C#5",
          "midi": 73,
          "time": 13.225258749999966,
          "velocity": 0.4015748031496063,
          "duration": 0.08532424999999932
        },
        {
          "name": "C5",
          "midi": 72,
          "time": 13.310582999999966,
          "velocity": 0.4094488188976378,
          "duration": 0.08532424999999932
        },
        {
          "name": "C#5",
          "midi": 73,
          "time": 13.395907249999965,
          "velocity": 0.4251968503937008,
          "duration": 0.08532424999999932
        },
        {
          "name": "E5",
          "midi": 76,
          "time": 13.481231499999964,
          "velocity": 0.44881889763779526,
          "duration": 0.08532424999999932
        },
        {
          "name": "G#5",
          "midi": 80,
          "time": 13.566555749999964,
          "velocity": 0.4330708661417323,
          "duration": 0.08532424999999932
        },
        {
          "name": "D#5",
          "midi": 75,
          "time": 13.651879999999963,
          "velocity": 0.5039370078740157,
          "duration": 0.08532424999999932
        },
        {
          "name": "E5",
          "midi": 76,
          "time": 13.737204249999962,
          "velocity": 0.4566929133858268,
          "duration": 0.08532424999999932
        },
        {
          "name": "D#5",
          "midi": 75,
          "time": 13.822528499999962,
          "velocity": 0.48031496062992124,
          "duration": 0.08532424999999932
        },
        {
          "name": "D5",
          "midi": 74,
          "time": 13.907852749999961,
          "velocity": 0.3937007874015748,
          "duration": 0.08532424999999932
        },
        {
          "name": "D#5",
          "midi": 75,
          "time": 13.99317699999996,
          "velocity": 0.4409448818897638,
          "duration": 0.08532424999999932
        },
        {
          "name": "B5",
          "midi": 83,
          "time": 14.07850124999996,
          "velocity": 0.5354330708661418,
          "duration": 0.08532424999999932
        },
        {
          "name": "A#5",
          "midi": 82,
          "time": 14.163825499999959,
          "velocity": 0.4881889763779528,
          "duration": 0.08532424999999932
        },
        {
          "name": "G#5",
          "midi": 80,
          "time": 14.249149749999958,
          "velocity": 0.5118110236220472,
          "duration": 0.08532424999999932
        },
        {
          "name": "G5",
          "midi": 79,
          "time": 14.334473999999958,
          "velocity": 0.5433070866141733,
          "duration": 0.08532424999999932
        },
        {
          "name": "E6",
          "midi": 88,
          "time": 14.419798249999957,
          "velocity": 0.5748031496062992,
          "duration": 0.08532424999999932
        },
        {
          "name": "D#6",
          "midi": 87,
          "time": 14.505122499999956,
          "velocity": 0.5669291338582677,
          "duration": 0.08532424999999932
        },
        {
          "name": "C#6",
          "midi": 85,
          "time": 14.590446749999956,
          "velocity": 0.5669291338582677,
          "duration": 0.08532424999999932
        },
        {
          "name": "B5",
          "midi": 83,
          "time": 14.675770999999955,
          "velocity": 0.5905511811023622,
          "duration": 0.08532424999999932
        },
        {
          "name": "A#5",
          "midi": 82,
          "time": 14.761095249999954,
          "velocity": 0.5433070866141733,
          "duration": 0.08532424999999932
        },
        {
          "name": "G#5",
          "midi": 80,
          "time": 14.846419499999953,
          "velocity": 0.5354330708661418,
          "duration": 0.08532424999999932
        },
        {
          "name": "G5",
          "midi": 79,
          "time": 14.931743749999953,
          "velocity": 0.5354330708661418,
          "duration": 0.08532424999999932
        },
        {
          "name": "A#5",
          "midi": 82,
          "time": 15.017067999999952,
          "velocity": 0.5669291338582677,
          "duration": 0.08532424999999932
        },
        {
          "name": "G#5",
          "midi": 80,
          "time": 15.102392249999951,
          "velocity": 0.5511811023622047,
          "duration": 0.08532424999999932
        },
        {
          "name": "B5",
          "midi": 83,
          "time": 15.18771649999995,
          "velocity": 0.5039370078740157,
          "duration": 0.08532424999999932
        },
        {
          "name": "D5",
          "midi": 74,
          "time": 15.27304074999995,
          "velocity": 0.44881889763779526,
          "duration": 0.08532424999999932
        },
        {
          "name": "E5",
          "midi": 76,
          "time": 15.35836499999995,
          "velocity": 0.5118110236220472,
          "duration": 0.08532424999999932
        },
        {
          "name": "D#5",
          "midi": 75,
          "time": 15.443689249999949,
          "velocity": 0.44881889763779526,
          "duration": 0.08532424999999932
        },
        {
          "name": "G#5",
          "midi": 80,
          "time": 15.529013499999948,
          "velocity": 0.49606299212598426,
          "duration": 0.08532424999999932
        },
        {
          "name": "A#4",
          "midi": 70,
          "time": 15.614337749999947,
          "velocity": 0.44881889763779526,
          "duration": 0.08532424999999932
        },
        {
          "name": "C#5",
          "midi": 73,
          "time": 15.699661999999947,
          "velocity": 0.48031496062992124,
          "duration": 0.08532424999999932
        },
        {
          "name": "B4",
          "midi": 71,
          "time": 15.784986249999946,
          "velocity": 0.4645669291338583,
          "duration": 0.08532424999999932
        },
        {
          "name": "D#5",
          "midi": 75,
          "time": 15.870310499999945,
          "velocity": 0.4566929133858268,
          "duration": 0.08532424999999932
        },
        {
          "name": "G4",
          "midi": 67,
          "time": 15.955634749999945,
          "velocity": 0.4409448818897638,
          "duration": 0.08532424999999932
        },
        {
          "name": "A#4",
          "midi": 70,
          "time": 16.040958999999944,
          "velocity": 0.47244094488188976,
          "duration": 0.08532424999999932
        },
        {
          "name": "G#4",
          "midi": 68,
          "time": 16.126283249999943,
          "velocity": 0.4015748031496063,
          "duration": 0.08532424999999932
        },
        {
          "name": "G4",
          "midi": 67,
          "time": 16.211607499999943,
          "velocity": 0.4330708661417323,
          "duration": 0.08532424999999932
        },
        {
          "name": "G#4",
          "midi": 68,
          "time": 16.296931749999942,
          "velocity": 0.3937007874015748,
          "duration": 0.08532424999999932
        },
        {
          "name": "G#4",
          "midi": 68,
          "time": 16.38225599999994,
          "velocity": 0.5669291338582677,
          "duration": 0.08532424999999932
        },
        {
          "name": "G#5",
          "midi": 80,
          "time": 16.46758024999994,
          "velocity": 0.4566929133858268,
          "duration": 0.08532424999999932
        },
        {
          "name": "C5",
          "midi": 72,
          "time": 16.55290449999994,
          "velocity": 0.4645669291338583,
          "duration": 0.08532424999999932
        },
        {
          "name": "C#5",
          "midi": 73,
          "time": 16.63822874999994,
          "velocity": 0.4645669291338583,
          "duration": 0.08532424999999932
        },
        {
          "name": "F#4",
          "midi": 66,
          "time": 16.72355299999994,
          "velocity": 0.5590551181102362,
          "duration": 0.08532424999999932
        },
        {
          "name": "F#5",
          "midi": 78,
          "time": 16.808877249999938,
          "velocity": 0.47244094488188976,
          "duration": 0.08532424999999932
        },
        {
          "name": "C5",
          "midi": 72,
          "time": 16.894201499999937,
          "velocity": 0.47244094488188976,
          "duration": 0.08532424999999932
        },
        {
          "name": "C#5",
          "midi": 73,
          "time": 16.979525749999937,
          "velocity": 0.48031496062992124,
          "duration": 0.08532424999999932
        },
        {
          "name": "F4",
          "midi": 65,
          "time": 17.064849999999936,
          "velocity": 0.5905511811023622,
          "duration": 0.08532424999999932
        },
        {
          "name": "F5",
          "midi": 77,
          "time": 17.150174249999935,
          "velocity": 0.4881889763779528,
          "duration": 0.08532424999999932
        },
        {
          "name": "C5",
          "midi": 72,
          "time": 17.235498499999935,
          "velocity": 0.49606299212598426,
          "duration": 0.08532424999999932
        },
        {
          "name": "C#5",
          "midi": 73,
          "time": 17.320822749999934,
          "velocity": 0.49606299212598426,
          "duration": 0.08532424999999932
        },
        {
          "name": "F#4",
          "midi": 66,
          "time": 17.406146999999933,
          "velocity": 0.5826771653543307,
          "duration": 0.08532424999999932
        },
        {
          "name": "F#5",
          "midi": 78,
          "time": 17.491471249999933,
          "velocity": 0.5118110236220472,
          "duration": 0.08532424999999932
        },
        {
          "name": "C5",
          "midi": 72,
          "time": 17.576795499999932,
          "velocity": 0.5039370078740157,
          "duration": 0.08532424999999932
        },
        {
          "name": "C#5",
          "midi": 73,
          "time": 17.66211974999993,
          "velocity": 0.5039370078740157,
          "duration": 0.08532424999999932
        },
        {
          "name": "C#4",
          "midi": 61,
          "time": 17.74744399999993,
          "velocity": 0.6062992125984252,
          "duration": 0.08532424999999932
        },
        {
          "name": "C#5",
          "midi": 73,
          "time": 17.83276824999993,
          "velocity": 0.5118110236220472,
          "duration": 0.08532424999999932
        },
        {
          "name": "F#4",
          "midi": 66,
          "time": 17.91809249999993,
          "velocity": 0.5118110236220472,
          "duration": 0.08532424999999932
        },
        {
          "name": "A4",
          "midi": 69,
          "time": 18.00341674999993,
          "velocity": 0.5118110236220472,
          "duration": 0.08532424999999932
        },
        {
          "name": "D#4",
          "midi": 63,
          "time": 18.088740999999928,
          "velocity": 0.5905511811023622,
          "duration": 0.08532424999999932
        },
        {
          "name": "D#5",
          "midi": 75,
          "time": 18.174065249999927,
          "velocity": 0.5118110236220472,
          "duration": 0.08532424999999932
        },
        {
          "name": "F#4",
          "midi": 66,
          "time": 18.259389499999926,
          "velocity": 0.5118110236220472,
          "duration": 0.08532424999999932
        },
        {
          "name": "A4",
          "midi": 69,
          "time": 18.344713749999926,
          "velocity": 0.5118110236220472,
          "duration": 0.08532424999999932
        },
        {
          "name": "E4",
          "midi": 64,
          "time": 18.430037999999925,
          "velocity": 0.6220472440944882,
          "duration": 0.08532424999999932
        },
        {
          "name": "E5",
          "midi": 76,
          "time": 18.515362249999924,
          "velocity": 0.5196850393700787,
          "duration": 0.08532424999999932
        },
        {
          "name": "G#4",
          "midi": 68,
          "time": 18.600686499999924,
          "velocity": 0.5196850393700787,
          "duration": 0.08532424999999932
        },
        {
          "name": "B4",
          "midi": 71,
          "time": 18.686010749999923,
          "velocity": 0.5196850393700787,
          "duration": 0.08532424999999932
        },
        {
          "name": "G#4",
          "midi": 68,
          "time": 18.771334999999922,
          "velocity": 0.6062992125984252,
          "duration": 0.08532424999999932
        },
        {
          "name": "G#5",
          "midi": 80,
          "time": 18.85665924999992,
          "velocity": 0.5275590551181102,
          "duration": 0.08532424999999932
        },
        {
          "name": "B4",
          "midi": 71,
          "time": 18.94198349999992,
          "velocity": 0.5196850393700787,
          "duration": 0.08532424999999932
        },
        {
          "name": "E5",
          "midi": 76,
          "time": 19.02730774999992,
          "velocity": 0.5118110236220472,
          "duration": 0.08532424999999932
        },
        {
          "name": "G#4",
          "midi": 68,
          "time": 19.11263199999992,
          "velocity": 0.6377952755905512,
          "duration": 0.08532424999999932
        },
        {
          "name": "G#5",
          "midi": 80,
          "time": 19.19795624999992,
          "velocity": 0.5118110236220472,
          "duration": 0.08532424999999932
        },
        {
          "name": "C5",
          "midi": 72,
          "time": 19.28328049999992,
          "velocity": 0.5118110236220472,
          "duration": 0.08532424999999932
        },
        {
          "name": "C#5",
          "midi": 73,
          "time": 19.368604749999918,
          "velocity": 0.5118110236220472,
          "duration": 0.08532424999999932
        },
        {
          "name": "F#4",
          "midi": 66,
          "time": 19.453928999999917,
          "velocity": 0.6141732283464567,
          "duration": 0.08532424999999932
        },
        {
          "name": "F#5",
          "midi": 78,
          "time": 19.539253249999916,
          "velocity": 0.5118110236220472,
          "duration": 0.08532424999999932
        },
        {
          "name": "C5",
          "midi": 72,
          "time": 19.624577499999916,
          "velocity": 0.5118110236220472,
          "duration": 0.08532424999999932
        },
        {
          "name": "C#5",
          "midi": 73,
          "time": 19.709901749999915,
          "velocity": 0.5118110236220472,
          "duration": 0.08532424999999932
        },
        {
          "name": "F4",
          "midi": 65,
          "time": 19.795225999999914,
          "velocity": 0.6220472440944882,
          "duration": 0.08532424999999932
        },
        {
          "name": "F5",
          "midi": 77,
          "time": 19.880550249999914,
          "velocity": 0.5196850393700787,
          "duration": 0.08532424999999932
        },
        {
          "name": "C5",
          "midi": 72,
          "time": 19.965874499999913,
          "velocity": 0.5196850393700787,
          "duration": 0.08532424999999932
        },
        {
          "name": "C#5",
          "midi": 73,
          "time": 20.051198749999912,
          "velocity": 0.5196850393700787,
          "duration": 0.08532424999999932
        },
        {
          "name": "F#4",
          "midi": 66,
          "time": 20.13652299999991,
          "velocity": 0.6062992125984252,
          "duration": 0.08532424999999932
        },
        {
          "name": "F#5",
          "midi": 78,
          "time": 20.22184724999991,
          "velocity": 0.5275590551181102,
          "duration": 0.08532424999999932
        },
        {
          "name": "C5",
          "midi": 72,
          "time": 20.30717149999991,
          "velocity": 0.5196850393700787,
          "duration": 0.08532424999999932
        },
        {
          "name": "C#5",
          "midi": 73,
          "time": 20.39249574999991,
          "velocity": 0.5118110236220472,
          "duration": 0.08532424999999932
        },
        {
          "name": "F4",
          "midi": 65,
          "time": 20.47781999999991,
          "velocity": 0.6377952755905512,
          "duration": 0.08532424999999932
        },
        {
          "name": "F5",
          "midi": 77,
          "time": 20.563144249999908,
          "velocity": 0.5118110236220472,
          "duration": 0.08532424999999932
        },
        {
          "name": "B4",
          "midi": 71,
          "time": 20.648468499999908,
          "velocity": 0.5118110236220472,
          "duration": 0.08532424999999932
        },
        {
          "name": "D#5",
          "midi": 75,
          "time": 20.733792749999907,
          "velocity": 0.5118110236220472,
          "duration": 0.08532424999999932
        },
        {
          "name": "F#4",
          "midi": 66,
          "time": 20.819116999999906,
          "velocity": 0.6141732283464567,
          "duration": 0.08532424999999932
        },
        {
          "name": "F#5",
          "midi": 78,
          "time": 20.904441249999905,
          "velocity": 0.5118110236220472,
          "duration": 0.08532424999999932
        },
        {
          "name": "B4",
          "midi": 71,
          "time": 20.989765499999905,
          "velocity": 0.5118110236220472,
          "duration": 0.08532424999999932
        },
        {
          "name": "D#5",
          "midi": 75,
          "time": 21.075089749999904,
          "velocity": 0.5118110236220472,
          "duration": 0.08532424999999932
        },
        {
          "name": "A4",
          "midi": 69,
          "time": 21.160413999999903,
          "velocity": 0.6220472440944882,
          "duration": 0.08532424999999932
        },
        {
          "name": "A5",
          "midi": 81,
          "time": 21.245738249999903,
          "velocity": 0.5196850393700787,
          "duration": 0.08532424999999932
        },
        {
          "name": "B4",
          "midi": 71,
          "time": 21.331062499999902,
          "velocity": 0.5196850393700787,
          "duration": 0.08532424999999932
        },
        {
          "name": "E5",
          "midi": 76,
          "time": 21.4163867499999,
          "velocity": 0.5196850393700787,
          "duration": 0.08532424999999932
        },
        {
          "name": "G#4",
          "midi": 68,
          "time": 21.5017109999999,
          "velocity": 0.6062992125984252,
          "duration": 0.08532424999999932
        },
        {
          "name": "G#5",
          "midi": 80,
          "time": 21.5870352499999,
          "velocity": 0.5275590551181102,
          "duration": 0.08532424999999932
        },
        {
          "name": "B4",
          "midi": 71,
          "time": 21.6723594999999,
          "velocity": 0.5196850393700787,
          "duration": 0.08532424999999932
        },
        {
          "name": "E5",
          "midi": 76,
          "time": 21.7576837499999,
          "velocity": 0.5118110236220472,
          "duration": 0.08532424999999932
        },
        {
          "name": "G#4",
          "midi": 68,
          "time": 21.843007999999898,
          "velocity": 0.4094488188976378,
          "duration": 0.08532424999999932
        },
        {
          "name": "G#5",
          "midi": 80,
          "time": 21.928332249999897,
          "velocity": 0.44881889763779526,
          "duration": 0.08532424999999932
        },
        {
          "name": "C5",
          "midi": 72,
          "time": 22.013656499999897,
          "velocity": 0.3700787401574803,
          "duration": 0.08532424999999932
        },
        {
          "name": "C#5",
          "midi": 73,
          "time": 22.098980749999896,
          "velocity": 0.3700787401574803,
          "duration": 0.08532424999999932
        },
        {
          "name": "F#4",
          "midi": 66,
          "time": 22.184304999999895,
          "velocity": 0.3858267716535433,
          "duration": 0.08532424999999932
        },
        {
          "name": "F#5",
          "midi": 78,
          "time": 22.269629249999895,
          "velocity": 0.4251968503937008,
          "duration": 0.08532424999999932
        },
        {
          "name": "C5",
          "midi": 72,
          "time": 22.354953499999894,
          "velocity": 0.3779527559055118,
          "duration": 0.08532424999999932
        },
        {
          "name": "C#5",
          "midi": 73,
          "time": 22.440277749999893,
          "velocity": 0.3779527559055118,
          "duration": 0.08532424999999932
        },
        {
          "name": "F4",
          "midi": 65,
          "time": 22.525601999999893,
          "velocity": 0.4015748031496063,
          "duration": 0.08532424999999932
        },
        {
          "name": "F5",
          "midi": 77,
          "time": 22.610926249999892,
          "velocity": 0.4409448818897638,
          "duration": 0.08532424999999932
        },
        {
          "name": "C5",
          "midi": 72,
          "time": 22.69625049999989,
          "velocity": 0.3937007874015748,
          "duration": 0.08532424999999932
        },
        {
          "name": "C#5",
          "midi": 73,
          "time": 22.78157474999989,
          "velocity": 0.3937007874015748,
          "duration": 0.08532424999999932
        },
        {
          "name": "F#4",
          "midi": 66,
          "time": 22.86689899999989,
          "velocity": 0.41732283464566927,
          "duration": 0.08532424999999932
        },
        {
          "name": "F#5",
          "midi": 78,
          "time": 22.95222324999989,
          "velocity": 0.4566929133858268,
          "duration": 0.08532424999999932
        },
        {
          "name": "C5",
          "midi": 72,
          "time": 23.03754749999989,
          "velocity": 0.4015748031496063,
          "duration": 0.08532424999999932
        },
        {
          "name": "C#5",
          "midi": 73,
          "time": 23.122871749999888,
          "velocity": 0.4015748031496063,
          "duration": 0.08532424999999932
        },
        {
          "name": "C#4",
          "midi": 61,
          "time": 23.208195999999887,
          "velocity": 0.4330708661417323,
          "duration": 0.08532424999999932
        },
        {
          "name": "C#5",
          "midi": 73,
          "time": 23.293520249999887,
          "velocity": 0.47244094488188976,
          "duration": 0.08532424999999932
        },
        {
          "name": "F#4",
          "midi": 66,
          "time": 23.378844499999886,
          "velocity": 0.4094488188976378,
          "duration": 0.08532424999999932
        },
        {
          "name": "A4",
          "midi": 69,
          "time": 23.464168749999885,
          "velocity": 0.41732283464566927,
          "duration": 0.08532424999999932
        },
        {
          "name": "D#4",
          "midi": 63,
          "time": 23.549492999999885,
          "velocity": 0.4330708661417323,
          "duration": 0.08532424999999932
        },
        {
          "name": "D#5",
          "midi": 75,
          "time": 23.634817249999884,
          "velocity": 0.4881889763779528,
          "duration": 0.08532424999999932
        },
        {
          "name": "F#4",
          "midi": 66,
          "time": 23.720141499999883,
          "velocity": 0.4251968503937008,
          "duration": 0.08532424999999932
        },
        {
          "name": "A4",
          "midi": 69,
          "time": 23.805465749999883,
          "velocity": 0.4251968503937008,
          "duration": 0.08532424999999932
        },
        {
          "name": "E4",
          "midi": 64,
          "time": 23.890789999999882,
          "velocity": 0.44881889763779526,
          "duration": 0.08532424999999932
        },
        {
          "name": "E5",
          "midi": 76,
          "time": 23.97611424999988,
          "velocity": 0.5118110236220472,
          "duration": 0.08532424999999932
        },
        {
          "name": "G#4",
          "midi": 68,
          "time": 24.06143849999988,
          "velocity": 0.4409448818897638,
          "duration": 0.08532424999999932
        },
        {
          "name": "B4",
          "midi": 71,
          "time": 24.14676274999988,
          "velocity": 0.4409448818897638,
          "duration": 0.08532424999999932
        },
        {
          "name": "G#4",
          "midi": 68,
          "time": 24.23208699999988,
          "velocity": 0.47244094488188976,
          "duration": 0.08532424999999932
        },
        {
          "name": "G#5",
          "midi": 80,
          "time": 24.31741124999988,
          "velocity": 0.5354330708661418,
          "duration": 0.08532424999999932
        },
        {
          "name": "B4",
          "midi": 71,
          "time": 24.402735499999878,
          "velocity": 0.44881889763779526,
          "duration": 0.08532424999999932
        },
        {
          "name": "E5",
          "midi": 76,
          "time": 24.488059749999877,
          "velocity": 0.4566929133858268,
          "duration": 0.08532424999999932
        },
        {
          "name": "G#4",
          "midi": 68,
          "time": 24.573383999999876,
          "velocity": 0.4881889763779528,
          "duration": 0.08532424999999932
        },
        {
          "name": "G#5",
          "midi": 80,
          "time": 24.658708249999876,
          "velocity": 0.5354330708661418,
          "duration": 0.08532424999999932
        },
        {
          "name": "C5",
          "midi": 72,
          "time": 24.744032499999875,
          "velocity": 0.4645669291338583,
          "duration": 0.08532424999999932
        },
        {
          "name": "C#5",
          "midi": 73,
          "time": 24.829356749999874,
          "velocity": 0.4645669291338583,
          "duration": 0.08532424999999932
        },
        {
          "name": "F#4",
          "midi": 66,
          "time": 24.914680999999874,
          "velocity": 0.4881889763779528,
          "duration": 0.08532424999999932
        },
        {
          "name": "F#5",
          "midi": 78,
          "time": 25.000005249999873,
          "velocity": 0.5511811023622047,
          "duration": 0.08532424999999932
        },
        {
          "name": "C5",
          "midi": 72,
          "time": 25.085329499999872,
          "velocity": 0.48031496062992124,
          "duration": 0.08532424999999932
        },
        {
          "name": "C#5",
          "midi": 73,
          "time": 25.17065374999987,
          "velocity": 0.48031496062992124,
          "duration": 0.08532424999999932
        },
        {
          "name": "D#5",
          "midi": 75,
          "time": 25.25597799999987,
          "velocity": 0.5039370078740157,
          "duration": 0.08532424999999932
        },
        {
          "name": "D#6",
          "midi": 87,
          "time": 25.34130224999987,
          "velocity": 0.5748031496062992,
          "duration": 0.08532424999999932
        },
        {
          "name": "F#5",
          "midi": 78,
          "time": 25.42662649999987,
          "velocity": 0.4881889763779528,
          "duration": 0.08532424999999932
        },
        {
          "name": "A5",
          "midi": 81,
          "time": 25.51195074999987,
          "velocity": 0.4881889763779528,
          "duration": 0.08532424999999932
        },
        {
          "name": "C#5",
          "midi": 73,
          "time": 25.59727499999987,
          "velocity": 0.5196850393700787,
          "duration": 0.08532424999999932
        },
        {
          "name": "C#6",
          "midi": 85,
          "time": 25.682599249999868,
          "velocity": 0.5826771653543307,
          "duration": 0.08532424999999932
        },
        {
          "name": "F#5",
          "midi": 78,
          "time": 25.767923499999867,
          "velocity": 0.4881889763779528,
          "duration": 0.08532424999999932
        },
        {
          "name": "A5",
          "midi": 81,
          "time": 25.853247749999866,
          "velocity": 0.4881889763779528,
          "duration": 0.08532424999999932
        },
        {
          "name": "C#5",
          "midi": 73,
          "time": 25.938571999999866,
          "velocity": 0.5039370078740157,
          "duration": 0.08532424999999932
        },
        {
          "name": "C#6",
          "midi": 85,
          "time": 26.023896249999865,
          "velocity": 0.5748031496062992,
          "duration": 0.08532424999999932
        },
        {
          "name": "D#5",
          "midi": 75,
          "time": 26.109220499999864,
          "velocity": 0.48031496062992124,
          "duration": 0.08532424999999932
        },
        {
          "name": "F#5",
          "midi": 78,
          "time": 26.194544749999864,
          "velocity": 0.48031496062992124,
          "duration": 0.08532424999999932
        },
        {
          "name": "C5",
          "midi": 72,
          "time": 26.279868999999863,
          "velocity": 0.5039370078740157,
          "duration": 0.08532424999999932
        },
        {
          "name": "C6",
          "midi": 84,
          "time": 26.365193249999862,
          "velocity": 0.5590551181102362,
          "duration": 0.08532424999999932
        },
        {
          "name": "D#5",
          "midi": 75,
          "time": 26.45051749999986,
          "velocity": 0.47244094488188976,
          "duration": 0.08532424999999932
        },
        {
          "name": "F#5",
          "midi": 78,
          "time": 26.53584174999986,
          "velocity": 0.4645669291338583,
          "duration": 0.08532424999999932
        },
        {
          "name": "C5",
          "midi": 72,
          "time": 26.62116599999986,
          "velocity": 0.47244094488188976,
          "duration": 0.08532424999999932
        },
        {
          "name": "C6",
          "midi": 84,
          "time": 26.70649024999986,
          "velocity": 0.5433070866141733,
          "duration": 0.08532424999999932
        },
        {
          "name": "D#5",
          "midi": 75,
          "time": 26.79181449999986,
          "velocity": 0.4566929133858268,
          "duration": 0.08532424999999932
        },
        {
          "name": "F#5",
          "midi": 78,
          "time": 26.877138749999858,
          "velocity": 0.4566929133858268,
          "duration": 0.08532424999999932
        },
        {
          "name": "C5",
          "midi": 72,
          "time": 26.962462999999858,
          "velocity": 0.48031496062992124,
          "duration": 0.08532424999999932
        },
        {
          "name": "C6",
          "midi": 84,
          "time": 27.047787249999857,
          "velocity": 0.5354330708661418,
          "duration": 0.08532424999999932
        },
        {
          "name": "D#5",
          "midi": 75,
          "time": 27.133111499999856,
          "velocity": 0.44881889763779526,
          "duration": 0.08532424999999932
        },
        {
          "name": "F#5",
          "midi": 78,
          "time": 27.218435749999855,
          "velocity": 0.4409448818897638,
          "duration": 0.08532424999999932
        },
        {
          "name": "C5",
          "midi": 72,
          "time": 27.303759999999855,
          "velocity": 0.44881889763779526,
          "duration": 0.08532424999999932
        },
        {
          "name": "C6",
          "midi": 84,
          "time": 27.389084249999854,
          "velocity": 0.5118110236220472,
          "duration": 0.08532424999999932
        },
        {
          "name": "D#5",
          "midi": 75,
          "time": 27.474408499999853,
          "velocity": 0.4330708661417323,
          "duration": 0.08532424999999932
        },
        {
          "name": "F#5",
          "midi": 78,
          "time": 27.559732749999853,
          "velocity": 0.4330708661417323,
          "duration": 0.08532424999999932
        },
        {
          "name": "B4",
          "midi": 71,
          "time": 27.645056999999852,
          "velocity": 0.4566929133858268,
          "duration": 0.08532424999999932
        },
        {
          "name": "B5",
          "midi": 83,
          "time": 27.73038124999985,
          "velocity": 0.5039370078740157,
          "duration": 0.08532424999999932
        },
        {
          "name": "D#5",
          "midi": 75,
          "time": 27.81570549999985,
          "velocity": 0.41732283464566927,
          "duration": 0.08532424999999932
        },
        {
          "name": "F#5",
          "midi": 78,
          "time": 27.90102974999985,
          "velocity": 0.41732283464566927,
          "duration": 0.08532424999999932
        },
        {
          "name": "B4",
          "midi": 71,
          "time": 27.98635399999985,
          "velocity": 0.4251968503937008,
          "duration": 0.08532424999999932
        },
        {
          "name": "B5",
          "midi": 83,
          "time": 28.07167824999985,
          "velocity": 0.4881889763779528,
          "duration": 0.08532424999999932
        },
        {
          "name": "D#5",
          "midi": 75,
          "time": 28.157002499999848,
          "velocity": 0.4094488188976378,
          "duration": 0.08532424999999932
        },
        {
          "name": "F#5",
          "midi": 78,
          "time": 28.242326749999847,
          "velocity": 0.4094488188976378,
          "duration": 0.08532424999999932
        },
        {
          "name": "A#4",
          "midi": 70,
          "time": 28.327650999999847,
          "velocity": 0.4251968503937008,
          "duration": 0.08532424999999932
        },
        {
          "name": "A#5",
          "midi": 82,
          "time": 28.412975249999846,
          "velocity": 0.47244094488188976,
          "duration": 0.08532424999999932
        },
        {
          "name": "D#5",
          "midi": 75,
          "time": 28.498299499999845,
          "velocity": 0.3937007874015748,
          "duration": 0.08532424999999932
        },
        {
          "name": "F#5",
          "midi": 78,
          "time": 28.583623749999845,
          "velocity": 0.3937007874015748,
          "duration": 0.08532424999999932
        },
        {
          "name": "A#4",
          "midi": 70,
          "time": 28.668947999999844,
          "velocity": 0.4330708661417323,
          "duration": 0.08532424999999932
        },
        {
          "name": "A#5",
          "midi": 82,
          "time": 28.758538462499843,
          "velocity": 0.3858267716535433,
          "duration": 0.08532424999999932
        },
        {
          "name": "D#5",
          "midi": 75,
          "time": 28.839596499999843,
          "velocity": 0.3779527559055118,
          "duration": 0.08532424999999932
        },
        {
          "name": "F#5",
          "midi": 78,
          "time": 28.924920749999842,
          "velocity": 0.3779527559055118,
          "duration": 0.08532424999999932
        },
        {
          "name": "A4",
          "midi": 69,
          "time": 29.01024499999984,
          "velocity": 0.41732283464566927,
          "duration": 0.08532424999999932
        },
        {
          "name": "A5",
          "midi": 81,
          "time": 29.09983546249984,
          "velocity": 0.3779527559055118,
          "duration": 0.08532424999999932
        },
        {
          "name": "D#5",
          "midi": 75,
          "time": 29.18089349999984,
          "velocity": 0.3700787401574803,
          "duration": 0.08532424999999932
        },
        {
          "name": "F#5",
          "midi": 78,
          "time": 29.26621774999984,
          "velocity": 0.3700787401574803,
          "duration": 0.08532424999999932
        },
        {
          "name": "A4",
          "midi": 69,
          "time": 29.35154199999984,
          "velocity": 0.4094488188976378,
          "duration": 0.08532424999999932
        },
        {
          "name": "A5",
          "midi": 81,
          "time": 29.436866249999838,
          "velocity": 0.3858267716535433,
          "duration": 0.08532424999999932
        },
        {
          "name": "D#5",
          "midi": 75,
          "time": 29.522190499999837,
          "velocity": 0.3543307086614173,
          "duration": 0.08532424999999932
        },
        {
          "name": "F#5",
          "midi": 78,
          "time": 29.607514749999837,
          "velocity": 0.3543307086614173,
          "duration": 0.08532424999999932
        },
        {
          "name": "A4",
          "midi": 69,
          "time": 29.692838999999836,
          "velocity": 0.4015748031496063,
          "duration": 0.08532424999999932
        },
        {
          "name": "A5",
          "midi": 81,
          "time": 29.778163249999835,
          "velocity": 0.3700787401574803,
          "duration": 0.08532424999999932
        },
        {
          "name": "D#5",
          "midi": 75,
          "time": 29.863487499999835,
          "velocity": 0.3464566929133858,
          "duration": 0.08532424999999932
        },
        {
          "name": "F#5",
          "midi": 78,
          "time": 29.948811749999834,
          "velocity": 0.3464566929133858,
          "duration": 0.08532424999999932
        },
        {
          "name": "C5",
          "midi": 72,
          "time": 30.034135999999833,
          "velocity": 0.4094488188976378,
          "duration": 0.08532424999999932
        },
        {
          "name": "C6",
          "midi": 84,
          "time": 30.12372646249983,
          "velocity": 0.3700787401574803,
          "duration": 0.08532424999999932
        },
        {
          "name": "D#5",
          "midi": 75,
          "time": 30.204784499999832,
          "velocity": 0.36220472440944884,
          "duration": 0.08532424999999932
        },
        {
          "name": "F#5",
          "midi": 78,
          "time": 30.29010874999983,
          "velocity": 0.36220472440944884,
          "duration": 0.08532424999999932
        },
        {
          "name": "B4",
          "midi": 71,
          "time": 30.37543299999983,
          "velocity": 0.3858267716535433,
          "duration": 0.08532424999999932
        },
        {
          "name": "B5",
          "midi": 83,
          "time": 30.46075724999983,
          "velocity": 0.3464566929133858,
          "duration": 0.08532424999999932
        },
        {
          "name": "D#5",
          "midi": 75,
          "time": 30.54608149999983,
          "velocity": 0.3464566929133858,
          "duration": 0.08532424999999932
        },
        {
          "name": "F#5",
          "midi": 78,
          "time": 30.63140574999983,
          "velocity": 0.3464566929133858,
          "duration": 0.08532424999999932
        },
        {
          "name": "B4",
          "midi": 71,
          "time": 30.716729999999828,
          "velocity": 0.3779527559055118,
          "duration": 0.08532424999999932
        },
        {
          "name": "B5",
          "midi": 83,
          "time": 30.802054249999827,
          "velocity": 0.3543307086614173,
          "duration": 0.08532424999999932
        },
        {
          "name": "D#5",
          "midi": 75,
          "time": 30.887378499999826,
          "velocity": 0.33070866141732286,
          "duration": 0.08532424999999932
        },
        {
          "name": "F#5",
          "midi": 78,
          "time": 30.972702749999826,
          "velocity": 0.33070866141732286,
          "duration": 0.08532424999999932
        },
        {
          "name": "A#4",
          "midi": 70,
          "time": 31.058026999999825,
          "velocity": 0.3700787401574803,
          "duration": 0.08532424999999932
        },
        {
          "name": "A#5",
          "midi": 82,
          "time": 31.143351249999824,
          "velocity": 0.33858267716535434,
          "duration": 0.08532424999999932
        },
        {
          "name": "D#5",
          "midi": 75,
          "time": 31.228675499999824,
          "velocity": 0.31496062992125984,
          "duration": 0.08532424999999932
        },
        {
          "name": "F#5",
          "midi": 78,
          "time": 31.313999749999823,
          "velocity": 0.31496062992125984,
          "duration": 0.08532424999999932
        },
        {
          "name": "A#4",
          "midi": 70,
          "time": 31.399323999999822,
          "velocity": 0.36220472440944884,
          "duration": 0.08532424999999932
        },
        {
          "name": "A#5",
          "midi": 82,
          "time": 31.48464824999982,
          "velocity": 0.33070866141732286,
          "duration": 0.08532424999999932
        },
        {
          "name": "D#5",
          "midi": 75,
          "time": 31.56997249999982,
          "velocity": 0.3228346456692913,
          "duration": 0.08532424999999932
        },
        {
          "name": "F#5",
          "midi": 78,
          "time": 31.65529674999982,
          "velocity": 0.3228346456692913,
          "duration": 0.08532424999999932
        },
        {
          "name": "A4",
          "midi": 69,
          "time": 31.74062099999982,
          "velocity": 0.3464566929133858,
          "duration": 0.08532424999999932
        },
        {
          "name": "A5",
          "midi": 81,
          "time": 31.82594524999982,
          "velocity": 0.31496062992125984,
          "duration": 0.08532424999999932
        },
        {
          "name": "D#5",
          "midi": 75,
          "time": 31.91126949999982,
          "velocity": 0.31496062992125984,
          "duration": 0.08532424999999932
        },
        {
          "name": "F#5",
          "midi": 78,
          "time": 31.996593749999818,
          "velocity": 0.30708661417322836,
          "duration": 0.08532424999999932
        },
        {
          "name": "A4",
          "midi": 69,
          "time": 32.08191799999982,
          "velocity": 0.33858267716535434,
          "duration": 0.08532424999999932
        },
        {
          "name": "A5",
          "midi": 81,
          "time": 32.167242249999816,
          "velocity": 0.31496062992125984,
          "duration": 0.08532424999999932
        },
        {
          "name": "D#5",
          "midi": 75,
          "time": 32.252566499999816,
          "velocity": 0.29133858267716534,
          "duration": 0.08532424999999932
        },
        {
          "name": "F#5",
          "midi": 78,
          "time": 32.337890749999815,
          "velocity": 0.29133858267716534,
          "duration": 0.08532424999999932
        },
        {
          "name": "G#4",
          "midi": 68,
          "time": 32.423214999999814,
          "velocity": 0.33070866141732286,
          "duration": 0.08532424999999932
        },
        {
          "name": "G#5",
          "midi": 80,
          "time": 32.508539249999814,
          "velocity": 0.2992125984251969,
          "duration": 0.08532424999999932
        },
        {
          "name": "D#5",
          "midi": 75,
          "time": 32.59386349999981,
          "velocity": 0.28346456692913385,
          "duration": 0.08532424999999932
        },
        {
          "name": "F#5",
          "midi": 78,
          "time": 32.67918774999981,
          "velocity": 0.2755905511811024,
          "duration": 0.08532424999999932
        },
        {
          "name": "G#4",
          "midi": 68,
          "time": 32.84983624999981,
          "velocity": 0.29133858267716534,
          "duration": 0.08532424999999932
        },
        {
          "name": "A4",
          "midi": 69,
          "time": 32.93516049999981,
          "velocity": 0.3228346456692913,
          "duration": 0.08532424999999932
        },
        {
          "name": "G#4",
          "midi": 68,
          "time": 33.02048474999981,
          "velocity": 0.2992125984251969,
          "duration": 0.08532424999999932
        },
        {
          "name": "G4",
          "midi": 67,
          "time": 33.10580899999981,
          "velocity": 0.30708661417322836,
          "duration": 0.08532424999999932
        },
        {
          "name": "G#4",
          "midi": 68,
          "time": 33.19113324999981,
          "velocity": 0.31496062992125984,
          "duration": 0.08532424999999932
        },
        {
          "name": "C#5",
          "midi": 73,
          "time": 33.27645749999981,
          "velocity": 0.33070866141732286,
          "duration": 0.08532424999999932
        },
        {
          "name": "E5",
          "midi": 76,
          "time": 33.36178174999981,
          "velocity": 0.33858267716535434,
          "duration": 0.08532424999999932
        },
        {
          "name": "D#5",
          "midi": 75,
          "time": 33.447105999999806,
          "velocity": 0.3543307086614173,
          "duration": 0.08532424999999932
        },
        {
          "name": "C#5",
          "midi": 73,
          "time": 33.532430249999805,
          "velocity": 0.33858267716535434,
          "duration": 0.08532424999999932
        },
        {
          "name": "D#5",
          "midi": 75,
          "time": 33.617754499999805,
          "velocity": 0.3543307086614173,
          "duration": 0.08532424999999932
        },
        {
          "name": "C#5",
          "midi": 73,
          "time": 33.703078749999804,
          "velocity": 0.33858267716535434,
          "duration": 0.08532424999999932
        },
        {
          "name": "C5",
          "midi": 72,
          "time": 33.7884029999998,
          "velocity": 0.3464566929133858,
          "duration": 0.08532424999999932
        },
        {
          "name": "C#5",
          "midi": 73,
          "time": 33.8737272499998,
          "velocity": 0.36220472440944884,
          "duration": 0.08532424999999932
        },
        {
          "name": "E5",
          "midi": 76,
          "time": 33.9590514999998,
          "velocity": 0.3858267716535433,
          "duration": 0.08532424999999932
        },
        {
          "name": "G#5",
          "midi": 80,
          "time": 34.0443757499998,
          "velocity": 0.3700787401574803,
          "duration": 0.08532424999999932
        },
        {
          "name": "G#4",
          "midi": 68,
          "time": 34.2150242499998,
          "velocity": 0.3543307086614173,
          "duration": 0.08532424999999932
        },
        {
          "name": "A4",
          "midi": 69,
          "time": 34.3003484999998,
          "velocity": 0.3858267716535433,
          "duration": 0.08532424999999932
        },
        {
          "name": "G#4",
          "midi": 68,
          "time": 34.3856727499998,
          "velocity": 0.3543307086614173,
          "duration": 0.08532424999999932
        },
        {
          "name": "G4",
          "midi": 67,
          "time": 34.4709969999998,
          "velocity": 0.36220472440944884,
          "duration": 0.08532424999999932
        },
        {
          "name": "G#4",
          "midi": 68,
          "time": 34.5563212499998,
          "velocity": 0.3779527559055118,
          "duration": 0.08532424999999932
        },
        {
          "name": "C#5",
          "midi": 73,
          "time": 34.6416454999998,
          "velocity": 0.3937007874015748,
          "duration": 0.08532424999999932
        },
        {
          "name": "E5",
          "midi": 76,
          "time": 34.726969749999796,
          "velocity": 0.4015748031496063,
          "duration": 0.08532424999999932
        },
        {
          "name": "D#5",
          "midi": 75,
          "time": 34.812293999999795,
          "velocity": 0.4251968503937008,
          "duration": 0.08532424999999932
        },
        {
          "name": "C#5",
          "midi": 73,
          "time": 34.897618249999795,
          "velocity": 0.4015748031496063,
          "duration": 0.08532424999999932
        },
        {
          "name": "D#5",
          "midi": 75,
          "time": 34.982942499999794,
          "velocity": 0.41732283464566927,
          "duration": 0.08532424999999932
        },
        {
          "name": "C#5",
          "midi": 73,
          "time": 35.06826674999979,
          "velocity": 0.4015748031496063,
          "duration": 0.08532424999999932
        },
        {
          "name": "C5",
          "midi": 72,
          "time": 35.15359099999979,
          "velocity": 0.4094488188976378,
          "duration": 0.08532424999999932
        },
        {
          "name": "C#5",
          "midi": 73,
          "time": 35.23891524999979,
          "velocity": 0.4251968503937008,
          "duration": 0.08532424999999932
        },
        {
          "name": "E5",
          "midi": 76,
          "time": 35.32423949999979,
          "velocity": 0.44881889763779526,
          "duration": 0.08532424999999932
        },
        {
          "name": "G#5",
          "midi": 80,
          "time": 35.40956374999979,
          "velocity": 0.4330708661417323,
          "duration": 0.08532424999999932
        },
        {
          "name": "A4",
          "midi": 69,
          "time": 35.58021224999979,
          "velocity": 0.4409448818897638,
          "duration": 0.08532424999999932
        },
        {
          "name": "C#5",
          "midi": 73,
          "time": 35.66553649999979,
          "velocity": 0.44881889763779526,
          "duration": 0.08532424999999932
        },
        {
          "name": "D#5",
          "midi": 75,
          "time": 35.75086074999979,
          "velocity": 0.4645669291338583,
          "duration": 0.08532424999999932
        },
        {
          "name": "F#5",
          "midi": 78,
          "time": 35.83618499999979,
          "velocity": 0.48031496062992124,
          "duration": 0.08532424999999932
        },
        {
          "name": "A5",
          "midi": 81,
          "time": 35.92150924999979,
          "velocity": 0.5196850393700787,
          "duration": 0.08532424999999932
        },
        {
          "name": "C#6",
          "midi": 85,
          "time": 36.006833499999786,
          "velocity": 0.5433070866141733,
          "duration": 0.08532424999999932
        },
        {
          "name": "D#6",
          "midi": 87,
          "time": 36.092157749999785,
          "velocity": 0.5590551181102362,
          "duration": 0.08532424999999932
        },
        {
          "name": "B6",
          "midi": 95,
          "time": 36.177481999999785,
          "velocity": 0.5748031496062992,
          "duration": 0.08532424999999932
        },
        {
          "name": "A6",
          "midi": 93,
          "time": 36.262806249999784,
          "velocity": 0.5590551181102362,
          "duration": 0.08532424999999932
        },
        {
          "name": "G#6",
          "midi": 92,
          "time": 36.34813049999978,
          "velocity": 0.5590551181102362,
          "duration": 0.08532424999999932
        },
        {
          "name": "F#6",
          "midi": 90,
          "time": 36.43345474999978,
          "velocity": 0.5511811023622047,
          "duration": 0.08532424999999932
        },
        {
          "name": "E6",
          "midi": 88,
          "time": 36.51877899999978,
          "velocity": 0.5433070866141733,
          "duration": 0.08532424999999932
        },
        {
          "name": "D#6",
          "midi": 87,
          "time": 36.60410324999978,
          "velocity": 0.5354330708661418,
          "duration": 0.08532424999999932
        },
        {
          "name": "F#6",
          "midi": 90,
          "time": 36.68942749999978,
          "velocity": 0.5275590551181102,
          "duration": 0.08532424999999932
        },
        {
          "name": "C#6",
          "midi": 85,
          "time": 36.77475174999978,
          "velocity": 0.5275590551181102,
          "duration": 0.08532424999999932
        },
        {
          "name": "C6",
          "midi": 84,
          "time": 36.86007599999978,
          "velocity": 0.5354330708661418,
          "duration": 0.08532424999999932
        },
        {
          "name": "D#6",
          "midi": 87,
          "time": 36.94540024999978,
          "velocity": 0.5039370078740157,
          "duration": 0.08532424999999932
        },
        {
          "name": "A5",
          "midi": 81,
          "time": 37.03072449999978,
          "velocity": 0.5118110236220472,
          "duration": 0.08532424999999932
        },
        {
          "name": "G#5",
          "midi": 80,
          "time": 37.11604874999978,
          "velocity": 0.5118110236220472,
          "duration": 0.08532424999999932
        },
        {
          "name": "F#5",
          "midi": 78,
          "time": 37.201372999999776,
          "velocity": 0.5039370078740157,
          "duration": 0.08532424999999932
        },
        {
          "name": "A5",
          "midi": 81,
          "time": 37.286697249999776,
          "velocity": 0.4881889763779528,
          "duration": 0.08532424999999932
        },
        {
          "name": "E5",
          "midi": 76,
          "time": 37.372021499999775,
          "velocity": 0.4645669291338583,
          "duration": 0.08532424999999932
        },
        {
          "name": "D#5",
          "midi": 75,
          "time": 37.457345749999774,
          "velocity": 0.4645669291338583,
          "duration": 0.08532424999999932
        },
        {
          "name": "F#5",
          "midi": 78,
          "time": 37.542669999999774,
          "velocity": 0.4645669291338583,
          "duration": 0.08532424999999932
        },
        {
          "name": "C#5",
          "midi": 73,
          "time": 37.62799424999977,
          "velocity": 0.4330708661417323,
          "duration": 0.08532424999999932
        },
        {
          "name": "C5",
          "midi": 72,
          "time": 37.71331849999977,
          "velocity": 0.4330708661417323,
          "duration": 0.08532424999999932
        },
        {
          "name": "D#5",
          "midi": 75,
          "time": 37.79864274999977,
          "velocity": 0.4330708661417323,
          "duration": 0.08532424999999932
        },
        {
          "name": "A4",
          "midi": 69,
          "time": 37.88396699999977,
          "velocity": 0.4251968503937008,
          "duration": 0.08532424999999932
        },
        {
          "name": "G#4",
          "midi": 68,
          "time": 37.96929124999977,
          "velocity": 0.4015748031496063,
          "duration": 0.08532424999999932
        },
        {
          "name": "B4",
          "midi": 71,
          "time": 38.05461549999977,
          "velocity": 0.4015748031496063,
          "duration": 0.08532424999999932
        },
        {
          "name": "A4",
          "midi": 69,
          "time": 38.13993974999977,
          "velocity": 0.3937007874015748,
          "duration": 0.17064849999999865
        },
        {
          "name": "G#4",
          "midi": 68,
          "time": 38.31058824999977,
          "velocity": 0.3700787401574803,
          "duration": 0.08532424999999932
        },
        {
          "name": "A4",
          "midi": 69,
          "time": 38.39591249999977,
          "velocity": 0.4015748031496063,
          "duration": 0.08532424999999932
        },
        {
          "name": "G#4",
          "midi": 68,
          "time": 38.481236749999766,
          "velocity": 0.3700787401574803,
          "duration": 0.08532424999999932
        },
        {
          "name": "G4",
          "midi": 67,
          "time": 38.566560999999766,
          "velocity": 0.3779527559055118,
          "duration": 0.08532424999999932
        },
        {
          "name": "G#4",
          "midi": 68,
          "time": 38.651885249999765,
          "velocity": 0.3858267716535433,
          "duration": 0.08532424999999932
        },
        {
          "name": "C#5",
          "midi": 73,
          "time": 38.737209499999764,
          "velocity": 0.4015748031496063,
          "duration": 0.08532424999999932
        },
        {
          "name": "E5",
          "midi": 76,
          "time": 38.822533749999764,
          "velocity": 0.4094488188976378,
          "duration": 0.08532424999999932
        },
        {
          "name": "D#5",
          "midi": 75,
          "time": 38.90785799999976,
          "velocity": 0.4251968503937008,
          "duration": 0.08532424999999932
        },
        {
          "name": "C#5",
          "midi": 73,
          "time": 38.99318224999976,
          "velocity": 0.4015748031496063,
          "duration": 0.08532424999999932
        },
        {
          "name": "D#5",
          "midi": 75,
          "time": 39.07850649999976,
          "velocity": 0.41732283464566927,
          "duration": 0.08532424999999932
        },
        {
          "name": "C#5",
          "midi": 73,
          "time": 39.16383074999976,
          "velocity": 0.4015748031496063,
          "duration": 0.08532424999999932
        },
        {
          "name": "C5",
          "midi": 72,
          "time": 39.24915499999976,
          "velocity": 0.4015748031496063,
          "duration": 0.08532424999999932
        },
        {
          "name": "C#5",
          "midi": 73,
          "time": 39.33447924999976,
          "velocity": 0.41732283464566927,
          "duration": 0.08532424999999932
        },
        {
          "name": "E5",
          "midi": 76,
          "time": 39.41980349999976,
          "velocity": 0.44881889763779526,
          "duration": 0.08532424999999932
        },
        {
          "name": "G#5",
          "midi": 80,
          "time": 39.50512774999976,
          "velocity": 0.4251968503937008,
          "duration": 0.08532424999999932
        },
        {
          "name": "E5",
          "midi": 76,
          "time": 39.59045199999976,
          "velocity": 0.4094488188976378,
          "duration": 0.08532424999999932
        },
        {
          "name": "D#5",
          "midi": 75,
          "time": 39.67577624999976,
          "velocity": 0.3779527559055118,
          "duration": 0.08532424999999932
        },
        {
          "name": "E5",
          "midi": 76,
          "time": 39.761100499999756,
          "velocity": 0.4094488188976378,
          "duration": 0.08532424999999932
        },
        {
          "name": "D#5",
          "midi": 75,
          "time": 39.846424749999755,
          "velocity": 0.3779527559055118,
          "duration": 0.08532424999999932
        },
        {
          "name": "D5",
          "midi": 74,
          "time": 39.931748999999755,
          "velocity": 0.3858267716535433,
          "duration": 0.08532424999999932
        },
        {
          "name": "D#5",
          "midi": 75,
          "time": 40.017073249999754,
          "velocity": 0.3937007874015748,
          "duration": 0.08532424999999932
        },
        {
          "name": "F#5",
          "midi": 78,
          "time": 40.10239749999975,
          "velocity": 0.41732283464566927,
          "duration": 0.08532424999999932
        },
        {
          "name": "A5",
          "midi": 81,
          "time": 40.18772174999975,
          "velocity": 0.4251968503937008,
          "duration": 0.08532424999999932
        },
        {
          "name": "F#5",
          "midi": 78,
          "time": 40.27304599999975,
          "velocity": 0.4409448818897638,
          "duration": 0.08532424999999932
        },
        {
          "name": "F5",
          "midi": 77,
          "time": 40.35837024999975,
          "velocity": 0.4251968503937008,
          "duration": 0.08532424999999932
        },
        {
          "name": "F#5",
          "midi": 78,
          "time": 40.44369449999975,
          "velocity": 0.4409448818897638,
          "duration": 0.08532424999999932
        },
        {
          "name": "F5",
          "midi": 77,
          "time": 40.52901874999975,
          "velocity": 0.4251968503937008,
          "duration": 0.08532424999999932
        },
        {
          "name": "E5",
          "midi": 76,
          "time": 40.61434299999975,
          "velocity": 0.4251968503937008,
          "duration": 0.08532424999999932
        },
        {
          "name": "F5",
          "midi": 77,
          "time": 40.69966724999975,
          "velocity": 0.4409448818897638,
          "duration": 0.08532424999999932
        },
        {
          "name": "G#5",
          "midi": 80,
          "time": 40.78499149999975,
          "velocity": 0.4645669291338583,
          "duration": 0.08532424999999932
        },
        {
          "name": "C#6",
          "midi": 85,
          "time": 40.87031574999975,
          "velocity": 0.44881889763779526,
          "duration": 0.08532424999999932
        },
        {
          "name": "C#5",
          "midi": 73,
          "time": 41.040964249999746,
          "velocity": 0.3937007874015748,
          "duration": 0.08532424999999932
        },
        {
          "name": "D5",
          "midi": 74,
          "time": 41.126288499999745,
          "velocity": 0.4330708661417323,
          "duration": 0.08532424999999932
        },
        {
          "name": "C#5",
          "midi": 73,
          "time": 41.211612749999745,
          "velocity": 0.4015748031496063,
          "duration": 0.08532424999999932
        },
        {
          "name": "C5",
          "midi": 72,
          "time": 41.296936999999744,
          "velocity": 0.4094488188976378,
          "duration": 0.08532424999999932
        },
        {
          "name": "C#5",
          "midi": 73,
          "time": 41.38226124999974,
          "velocity": 0.41732283464566927,
          "duration": 0.08532424999999932
        },
        {
          "name": "F#5",
          "midi": 78,
          "time": 41.46758549999974,
          "velocity": 0.4409448818897638,
          "duration": 0.08532424999999932
        },
        {
          "name": "A5",
          "midi": 81,
          "time": 41.55290974999974,
          "velocity": 0.44881889763779526,
          "duration": 0.08532424999999932
        },
        {
          "name": "F#5",
          "midi": 78,
          "time": 41.63823399999974,
          "velocity": 0.4645669291338583,
          "duration": 0.08532424999999932
        },
        {
          "name": "F5",
          "midi": 77,
          "time": 41.72355824999974,
          "velocity": 0.4409448818897638,
          "duration": 0.08532424999999932
        },
        {
          "name": "F#5",
          "midi": 78,
          "time": 41.80888249999974,
          "velocity": 0.4645669291338583,
          "duration": 0.08532424999999932
        },
        {
          "name": "F5",
          "midi": 77,
          "time": 41.89420674999974,
          "velocity": 0.44881889763779526,
          "duration": 0.08532424999999932
        },
        {
          "name": "E5",
          "midi": 76,
          "time": 41.97953099999974,
          "velocity": 0.44881889763779526,
          "duration": 0.08532424999999932
        },
        {
          "name": "F5",
          "midi": 77,
          "time": 42.06485524999974,
          "velocity": 0.4645669291338583,
          "duration": 0.08532424999999932
        },
        {
          "name": "G#5",
          "midi": 80,
          "time": 42.15017949999974,
          "velocity": 0.49606299212598426,
          "duration": 0.08532424999999932
        },
        {
          "name": "C#6",
          "midi": 85,
          "time": 42.23550374999974,
          "velocity": 0.4645669291338583,
          "duration": 0.08532424999999932
        },
        {
          "name": "G#5",
          "midi": 80,
          "time": 42.320827999999736,
          "velocity": 0.4566929133858268,
          "duration": 0.08532424999999932
        },
        {
          "name": "F#5",
          "midi": 78,
          "time": 42.406152249999735,
          "velocity": 0.41732283464566927,
          "duration": 0.08532424999999932
        },
        {
          "name": "G#5",
          "midi": 80,
          "time": 42.491476499999735,
          "velocity": 0.4566929133858268,
          "duration": 0.08532424999999932
        },
        {
          "name": "F#5",
          "midi": 78,
          "time": 42.576800749999734,
          "velocity": 0.4251968503937008,
          "duration": 0.08532424999999932
        },
        {
          "name": "F5",
          "midi": 77,
          "time": 42.66212499999973,
          "velocity": 0.4330708661417323,
          "duration": 0.08532424999999932
        },
        {
          "name": "F#5",
          "midi": 78,
          "time": 42.74744924999973,
          "velocity": 0.4409448818897638,
          "duration": 0.08532424999999932
        },
        {
          "name": "A5",
          "midi": 81,
          "time": 42.83277349999973,
          "velocity": 0.4645669291338583,
          "duration": 0.08532424999999932
        },
        {
          "name": "C#6",
          "midi": 85,
          "time": 42.91809774999973,
          "velocity": 0.47244094488188976,
          "duration": 0.08532424999999932
        },
        {
          "name": "A5",
          "midi": 81,
          "time": 43.00342199999973,
          "velocity": 0.49606299212598426,
          "duration": 0.08532424999999932
        },
        {
          "name": "G#5",
          "midi": 80,
          "time": 43.08874624999973,
          "velocity": 0.4645669291338583,
          "duration": 0.08532424999999932
        },
        {
          "name": "A5",
          "midi": 81,
          "time": 43.17407049999973,
          "velocity": 0.4881889763779528,
          "duration": 0.08532424999999932
        },
        {
          "name": "G#5",
          "midi": 80,
          "time": 43.25939474999973,
          "velocity": 0.47244094488188976,
          "duration": 0.08532424999999932
        },
        {
          "name": "G5",
          "midi": 79,
          "time": 43.34471899999973,
          "velocity": 0.47244094488188976,
          "duration": 0.08532424999999932
        },
        {
          "name": "G#5",
          "midi": 80,
          "time": 43.43004324999973,
          "velocity": 0.4881889763779528,
          "duration": 0.08532424999999932
        },
        {
          "name": "C6",
          "midi": 84,
          "time": 43.515367499999726,
          "velocity": 0.5196850393700787,
          "duration": 0.08532424999999932
        },
        {
          "name": "D#6",
          "midi": 87,
          "time": 43.600691749999726,
          "velocity": 0.49606299212598426,
          "duration": 0.08532424999999932
        },
        {
          "name": "G#5",
          "midi": 80,
          "time": 43.686015999999725,
          "velocity": 0.5433070866141733,
          "duration": 0.08532424999999932
        },
        {
          "name": "A5",
          "midi": 81,
          "time": 43.771340249999724,
          "velocity": 0.5039370078740157,
          "duration": 0.08532424999999932
        },
        {
          "name": "G#5",
          "midi": 80,
          "time": 43.856664499999724,
          "velocity": 0.5275590551181102,
          "duration": 0.08532424999999932
        },
        {
          "name": "G5",
          "midi": 79,
          "time": 43.94198874999972,
          "velocity": 0.4566929133858268,
          "duration": 0.08532424999999932
        },
        {
          "name": "G#5",
          "midi": 80,
          "time": 44.02731299999972,
          "velocity": 0.4881889763779528,
          "duration": 0.08532424999999932
        },
        {
          "name": "E6",
          "midi": 88,
          "time": 44.11263724999972,
          "velocity": 0.5590551181102362,
          "duration": 0.08532424999999932
        },
        {
          "name": "D#6",
          "midi": 87,
          "time": 44.19796149999972,
          "velocity": 0.5590551181102362,
          "duration": 0.08532424999999932
        },
        {
          "name": "D6",
          "midi": 86,
          "time": 44.28328574999972,
          "velocity": 0.5511811023622047,
          "duration": 0.08532424999999932
        },
        {
          "name": "C#6",
          "midi": 85,
          "time": 44.36860999999972,
          "velocity": 0.5433070866141733,
          "duration": 0.08532424999999932
        },
        {
          "name": "C6",
          "midi": 84,
          "time": 44.45393424999972,
          "velocity": 0.5433070866141733,
          "duration": 0.08532424999999932
        },
        {
          "name": "B5",
          "midi": 83,
          "time": 44.53925849999972,
          "velocity": 0.5354330708661418,
          "duration": 0.08532424999999932
        },
        {
          "name": "A#5",
          "midi": 82,
          "time": 44.62458274999972,
          "velocity": 0.5275590551181102,
          "duration": 0.08532424999999932
        },
        {
          "name": "A5",
          "midi": 81,
          "time": 44.70990699999972,
          "velocity": 0.5275590551181102,
          "duration": 0.08532424999999932
        },
        {
          "name": "G#5",
          "midi": 80,
          "time": 44.795231249999716,
          "velocity": 0.5196850393700787,
          "duration": 0.08532424999999932
        },
        {
          "name": "G5",
          "midi": 79,
          "time": 44.880555499999716,
          "velocity": 0.5118110236220472,
          "duration": 0.08532424999999932
        },
        {
          "name": "F#5",
          "midi": 78,
          "time": 44.965879749999715,
          "velocity": 0.5039370078740157,
          "duration": 0.08532424999999932
        },
        {
          "name": "E5",
          "midi": 76,
          "time": 45.051203999999714,
          "velocity": 0.5433070866141733,
          "duration": 0.08532424999999932
        },
        {
          "name": "F#5",
          "midi": 78,
          "time": 45.136528249999714,
          "velocity": 0.5039370078740157,
          "duration": 0.08532424999999932
        },
        {
          "name": "E5",
          "midi": 76,
          "time": 45.22185249999971,
          "velocity": 0.5275590551181102,
          "duration": 0.08532424999999932
        },
        {
          "name": "D#5",
          "midi": 75,
          "time": 45.30717674999971,
          "velocity": 0.4566929133858268,
          "duration": 0.08532424999999932
        },
        {
          "name": "E5",
          "midi": 76,
          "time": 45.39250099999971,
          "velocity": 0.4881889763779528,
          "duration": 0.08532424999999932
        },
        {
          "name": "E6",
          "midi": 88,
          "time": 45.47782524999971,
          "velocity": 0.5590551181102362,
          "duration": 0.08532424999999932
        },
        {
          "name": "D#6",
          "midi": 87,
          "time": 45.56314949999971,
          "velocity": 0.5590551181102362,
          "duration": 0.08532424999999932
        },
        {
          "name": "D6",
          "midi": 86,
          "time": 45.64847374999971,
          "velocity": 0.5511811023622047,
          "duration": 0.08532424999999932
        },
        {
          "name": "C#6",
          "midi": 85,
          "time": 45.73379799999971,
          "velocity": 0.5511811023622047,
          "duration": 0.08532424999999932
        },
        {
          "name": "C6",
          "midi": 84,
          "time": 45.81912224999971,
          "velocity": 0.5590551181102362,
          "duration": 0.08532424999999932
        },
        {
          "name": "B5",
          "midi": 83,
          "time": 45.90444649999971,
          "velocity": 0.5590551181102362,
          "duration": 0.08532424999999932
        },
        {
          "name": "A#5",
          "midi": 82,
          "time": 45.98977074999971,
          "velocity": 0.5669291338582677,
          "duration": 0.08532424999999932
        },
        {
          "name": "A5",
          "midi": 81,
          "time": 46.075094999999706,
          "velocity": 0.5748031496062992,
          "duration": 0.08532424999999932
        },
        {
          "name": "G#5",
          "midi": 80,
          "time": 46.160419249999705,
          "velocity": 0.5826771653543307,
          "duration": 0.08532424999999932
        },
        {
          "name": "G5",
          "midi": 79,
          "time": 46.245743499999705,
          "velocity": 0.5905511811023622,
          "duration": 0.08532424999999932
        },
        {
          "name": "F#5",
          "midi": 78,
          "time": 46.331067749999704,
          "velocity": 0.5984251968503937,
          "duration": 0.08532424999999932
        },
        {
          "name": "G#5",
          "midi": 80,
          "time": 46.4163919999997,
          "velocity": 0.5984251968503937,
          "duration": 0.04266212499999966
        },
        {
          "name": "G#6",
          "midi": 92,
          "time": 46.5870404999997,
          "velocity": 0.6692913385826772,
          "duration": 0.08532424999999932
        },
        {
          "name": "G6",
          "midi": 91,
          "time": 46.6723647499997,
          "velocity": 0.6692913385826772,
          "duration": 0.08532424999999932
        },
        {
          "name": "F#6",
          "midi": 90,
          "time": 46.7576889999997,
          "velocity": 0.6614173228346457,
          "duration": 0.08532424999999932
        },
        {
          "name": "F6",
          "midi": 89,
          "time": 46.8430132499997,
          "velocity": 0.6614173228346457,
          "duration": 0.08532424999999932
        },
        {
          "name": "E6",
          "midi": 88,
          "time": 46.9283374999997,
          "velocity": 0.6535433070866141,
          "duration": 0.08532424999999932
        },
        {
          "name": "D#6",
          "midi": 87,
          "time": 47.0136617499997,
          "velocity": 0.6535433070866141,
          "duration": 0.08532424999999932
        },
        {
          "name": "D6",
          "midi": 86,
          "time": 47.0989859999997,
          "velocity": 0.6456692913385826,
          "duration": 0.08532424999999932
        },
        {
          "name": "C#6",
          "midi": 85,
          "time": 47.1843102499997,
          "velocity": 0.6377952755905512,
          "duration": 0.08532424999999932
        },
        {
          "name": "C6",
          "midi": 84,
          "time": 47.2696344999997,
          "velocity": 0.6377952755905512,
          "duration": 0.08532424999999932
        },
        {
          "name": "B5",
          "midi": 83,
          "time": 47.354958749999696,
          "velocity": 0.6299212598425197,
          "duration": 0.08532424999999932
        },
        {
          "name": "A#5",
          "midi": 82,
          "time": 47.440282999999695,
          "velocity": 0.6299212598425197,
          "duration": 0.08532424999999932
        },
        {
          "name": "A5",
          "midi": 81,
          "time": 47.525607249999695,
          "velocity": 0.6220472440944882,
          "duration": 0.08532424999999932
        },
        {
          "name": "G#5",
          "midi": 80,
          "time": 47.610931499999694,
          "velocity": 0.6220472440944882,
          "duration": 0.08532424999999932
        },
        {
          "name": "G5",
          "midi": 79,
          "time": 47.69625574999969,
          "velocity": 0.6141732283464567,
          "duration": 0.08532424999999932
        },
        {
          "name": "F#5",
          "midi": 78,
          "time": 47.78157999999969,
          "velocity": 0.6062992125984252,
          "duration": 0.08532424999999932
        },
        {
          "name": "F5",
          "midi": 77,
          "time": 47.86690424999969,
          "velocity": 0.6062992125984252,
          "duration": 0.08532424999999932
        },
        {
          "name": "E5",
          "midi": 76,
          "time": 47.95222849999969,
          "velocity": 0.6062992125984252,
          "duration": 0.08532424999999932
        },
        {
          "name": "D#5",
          "midi": 75,
          "time": 48.03755274999969,
          "velocity": 0.6062992125984252,
          "duration": 0.08532424999999932
        },
        {
          "name": "D5",
          "midi": 74,
          "time": 48.12287699999969,
          "velocity": 0.6062992125984252,
          "duration": 0.08532424999999932
        },
        {
          "name": "C#5",
          "midi": 73,
          "time": 48.20820124999969,
          "velocity": 0.6062992125984252,
          "duration": 0.08532424999999932
        },
        {
          "name": "C5",
          "midi": 72,
          "time": 48.29352549999969,
          "velocity": 0.6062992125984252,
          "duration": 0.08532424999999932
        },
        {
          "name": "B4",
          "midi": 71,
          "time": 48.37884974999969,
          "velocity": 0.6062992125984252,
          "duration": 0.08532424999999932
        },
        {
          "name": "A#4",
          "midi": 70,
          "time": 48.46417399999969,
          "velocity": 0.6062992125984252,
          "duration": 0.08532424999999932
        },
        {
          "name": "A4",
          "midi": 69,
          "time": 48.54949824999969,
          "velocity": 0.6141732283464567,
          "duration": 0.08532424999999932
        },
        {
          "name": "G#4",
          "midi": 68,
          "time": 48.634822499999686,
          "velocity": 0.6299212598425197,
          "duration": 0.08532424999999932
        },
        {
          "name": "G4",
          "midi": 67,
          "time": 48.720146749999685,
          "velocity": 0.6456692913385826,
          "duration": 0.08532424999999932
        },
        {
          "name": "F#4",
          "midi": 66,
          "time": 48.805470999999685,
          "velocity": 0.6692913385826772,
          "duration": 0.08532424999999932
        },
        {
          "name": "E4",
          "midi": 64,
          "time": 48.890795249999684,
          "velocity": 0.6850393700787402,
          "duration": 0.08532424999999932
        },
        {
          "name": "D#4",
          "midi": 63,
          "time": 48.97611949999968,
          "velocity": 0.7086614173228346,
          "duration": 0.08532424999999932
        },
        {
          "name": "C#4",
          "midi": 61,
          "time": 49.06144374999968,
          "velocity": 0.7244094488188977,
          "duration": 0.08532424999999932
        },
        {
          "name": "G#3",
          "midi": 56,
          "time": 49.14676799999968,
          "velocity": 0.7401574803149606,
          "duration": 0.08532424999999932
        },
        {
          "name": "A6",
          "midi": 93,
          "time": 49.48806499999968,
          "velocity": 0.7086614173228346,
          "duration": 0.08532424999999932
        },
        {
          "name": "G#6",
          "midi": 92,
          "time": 49.57338924999968,
          "velocity": 0.6377952755905512,
          "duration": 0.08532424999999932
        },
        {
          "name": "E7",
          "midi": 100,
          "time": 49.65871349999968,
          "velocity": 0.6062992125984252,
          "duration": 0.08532424999999932
        },
        {
          "name": "E6",
          "midi": 88,
          "time": 49.74403774999968,
          "velocity": 0.6062992125984252,
          "duration": 0.08532424999999932
        },
        {
          "name": "F#6",
          "midi": 90,
          "time": 49.829361999999676,
          "velocity": 0.7086614173228346,
          "duration": 0.08532424999999932
        },
        {
          "name": "E6",
          "midi": 88,
          "time": 49.914686249999676,
          "velocity": 0.6062992125984252,
          "duration": 0.08532424999999932
        },
        {
          "name": "C#7",
          "midi": 97,
          "time": 50.000010499999675,
          "velocity": 0.6062992125984252,
          "duration": 0.08532424999999932
        },
        {
          "name": "C#6",
          "midi": 85,
          "time": 50.085334749999674,
          "velocity": 0.6062992125984252,
          "duration": 0.08532424999999932
        },
        {
          "name": "D#6",
          "midi": 87,
          "time": 50.170658999999674,
          "velocity": 0.7007874015748031,
          "duration": 0.08532424999999932
        },
        {
          "name": "C#6",
          "midi": 85,
          "time": 50.25598324999967,
          "velocity": 0.6062992125984252,
          "duration": 0.08532424999999932
        },
        {
          "name": "G#6",
          "midi": 92,
          "time": 50.34130749999967,
          "velocity": 0.6062992125984252,
          "duration": 0.08532424999999932
        },
        {
          "name": "G#5",
          "midi": 80,
          "time": 50.42663174999967,
          "velocity": 0.6062992125984252,
          "duration": 0.08532424999999932
        },
        {
          "name": "A5",
          "midi": 81,
          "time": 50.51195599999967,
          "velocity": 0.7007874015748031,
          "duration": 0.08532424999999932
        },
        {
          "name": "G#5",
          "midi": 80,
          "time": 50.59728024999967,
          "velocity": 0.6062992125984252,
          "duration": 0.08532424999999932
        },
        {
          "name": "E6",
          "midi": 88,
          "time": 50.68260449999967,
          "velocity": 0.6062992125984252,
          "duration": 0.08532424999999932
        },
        {
          "name": "E5",
          "midi": 76,
          "time": 50.76792874999967,
          "velocity": 0.6062992125984252,
          "duration": 0.08532424999999932
        },
        {
          "name": "F#5",
          "midi": 78,
          "time": 50.85325299999967,
          "velocity": 0.6929133858267716,
          "duration": 0.08532424999999932
        },
        {
          "name": "E5",
          "midi": 76,
          "time": 50.93857724999967,
          "velocity": 0.6062992125984252,
          "duration": 0.08532424999999932
        },
        {
          "name": "C#6",
          "midi": 85,
          "time": 51.02390149999967,
          "velocity": 0.6062992125984252,
          "duration": 0.08532424999999932
        },
        {
          "name": "C#5",
          "midi": 73,
          "time": 51.109225749999666,
          "velocity": 0.6062992125984252,
          "duration": 0.08532424999999932
        },
        {
          "name": "D#5",
          "midi": 75,
          "time": 51.194549999999666,
          "velocity": 0.7007874015748031,
          "duration": 0.08532424999999932
        },
        {
          "name": "C#5",
          "midi": 73,
          "time": 51.279874249999665,
          "velocity": 0.6062992125984252,
          "duration": 0.08532424999999932
        },
        {
          "name": "G#5",
          "midi": 80,
          "time": 51.365198499999664,
          "velocity": 0.6062992125984252,
          "duration": 0.08532424999999932
        },
        {
          "name": "G#4",
          "midi": 68,
          "time": 51.450522749999664,
          "velocity": 0.6062992125984252,
          "duration": 0.08532424999999932
        },
        {
          "name": "A4",
          "midi": 69,
          "time": 51.53584699999966,
          "velocity": 0.7086614173228346,
          "duration": 0.08532424999999932
        },
        {
          "name": "G#4",
          "midi": 68,
          "time": 51.62117124999966,
          "velocity": 0.6062992125984252,
          "duration": 0.08532424999999932
        },
        {
          "name": "E5",
          "midi": 76,
          "time": 51.70649549999966,
          "velocity": 0.6062992125984252,
          "duration": 0.08532424999999932
        },
        {
          "name": "E4",
          "midi": 64,
          "time": 51.79181974999966,
          "velocity": 0.6062992125984252,
          "duration": 0.08532424999999932
        },
        {
          "name": "F#4",
          "midi": 66,
          "time": 51.87714399999966,
          "velocity": 0.6929133858267716,
          "duration": 0.08532424999999932
        },
        {
          "name": "E4",
          "midi": 64,
          "time": 51.96246824999966,
          "velocity": 0.6062992125984252,
          "duration": 0.08532424999999932
        },
        {
          "name": "C#5",
          "midi": 73,
          "time": 52.04779249999966,
          "velocity": 0.6062992125984252,
          "duration": 0.08532424999999932
        },
        {
          "name": "C#4",
          "midi": 61,
          "time": 52.13311674999966,
          "velocity": 0.6062992125984252,
          "duration": 0.08532424999999932
        },
        {
          "name": "D#4",
          "midi": 63,
          "time": 52.21844099999966,
          "velocity": 0.7007874015748031,
          "duration": 0.08532424999999932
        },
        {
          "name": "C#4",
          "midi": 61,
          "time": 52.30376524999966,
          "velocity": 0.6062992125984252,
          "duration": 0.08532424999999932
        },
        {
          "name": "G#4",
          "midi": 68,
          "time": 52.389089499999656,
          "velocity": 0.6062992125984252,
          "duration": 0.08532424999999932
        },
        {
          "name": "G#3",
          "midi": 56,
          "time": 52.474413749999655,
          "velocity": 0.6062992125984252,
          "duration": 0.08532424999999932
        },
        {
          "name": "D#4",
          "midi": 63,
          "time": 52.559737999999655,
          "velocity": 0.7007874015748031,
          "duration": 0.08532424999999932
        },
        {
          "name": "C#4",
          "midi": 61,
          "time": 52.645062249999654,
          "velocity": 0.6062992125984252,
          "duration": 0.08532424999999932
        },
        {
          "name": "G#4",
          "midi": 68,
          "time": 52.73038649999965,
          "velocity": 0.6062992125984252,
          "duration": 0.08532424999999932
        },
        {
          "name": "G#3",
          "midi": 56,
          "time": 52.81571074999965,
          "velocity": 0.6062992125984252,
          "duration": 0.08532424999999932
        },
        {
          "name": "D#4",
          "midi": 63,
          "time": 52.90103499999965,
          "velocity": 0.7007874015748031,
          "duration": 0.08532424999999932
        },
        {
          "name": "C#4",
          "midi": 61,
          "time": 52.98635924999965,
          "velocity": 0.6062992125984252,
          "duration": 0.08532424999999932
        },
        {
          "name": "A4",
          "midi": 69,
          "time": 53.07168349999965,
          "velocity": 0.6062992125984252,
          "duration": 0.08532424999999932
        },
        {
          "name": "A3",
          "midi": 57,
          "time": 53.15700774999965,
          "velocity": 0.6062992125984252,
          "duration": 0.08532424999999932
        },
        {
          "name": "D#4",
          "midi": 63,
          "time": 53.24233199999965,
          "velocity": 0.7007874015748031,
          "duration": 0.08532424999999932
        },
        {
          "name": "C#4",
          "midi": 61,
          "time": 53.32765624999965,
          "velocity": 0.5905511811023622,
          "duration": 0.08532424999999932
        },
        {
          "name": "G#4",
          "midi": 68,
          "time": 53.41298049999965,
          "velocity": 0.5826771653543307,
          "duration": 0.08532424999999932
        },
        {
          "name": "G#3",
          "midi": 56,
          "time": 53.49830474999965,
          "velocity": 0.5748031496062992,
          "duration": 0.08532424999999932
        },
        {
          "name": "D#4",
          "midi": 63,
          "time": 53.58362899999965,
          "velocity": 0.6535433070866141,
          "duration": 0.08532424999999932
        },
        {
          "name": "C#4",
          "midi": 61,
          "time": 53.668953249999646,
          "velocity": 0.5590551181102362,
          "duration": 0.08532424999999932
        },
        {
          "name": "G4",
          "midi": 67,
          "time": 53.754277499999645,
          "velocity": 0.5590551181102362,
          "duration": 0.08532424999999932
        },
        {
          "name": "G3",
          "midi": 55,
          "time": 53.839601749999645,
          "velocity": 0.5511811023622047,
          "duration": 0.08532424999999932
        },
        {
          "name": "D#4",
          "midi": 63,
          "time": 53.924925999999644,
          "velocity": 0.6220472440944882,
          "duration": 0.08532424999999932
        },
        {
          "name": "C#4",
          "midi": 61,
          "time": 54.01025024999964,
          "velocity": 0.5354330708661418,
          "duration": 0.08532424999999932
        },
        {
          "name": "G#4",
          "midi": 68,
          "time": 54.09557449999964,
          "velocity": 0.5275590551181102,
          "duration": 0.08532424999999932
        },
        {
          "name": "G#3",
          "midi": 56,
          "time": 54.18089874999964,
          "velocity": 0.5196850393700787,
          "duration": 0.08532424999999932
        },
        {
          "name": "D#4",
          "midi": 63,
          "time": 54.26622299999964,
          "velocity": 0.5905511811023622,
          "duration": 0.08532424999999932
        },
        {
          "name": "C4",
          "midi": 60,
          "time": 54.35154724999964,
          "velocity": 0.49606299212598426,
          "duration": 0.08532424999999932
        },
        {
          "name": "G#4",
          "midi": 68,
          "time": 54.43687149999964,
          "velocity": 0.49606299212598426,
          "duration": 0.08532424999999932
        },
        {
          "name": "G#3",
          "midi": 56,
          "time": 54.52219574999964,
          "velocity": 0.4881889763779528,
          "duration": 0.08532424999999932
        },
        {
          "name": "G#4",
          "midi": 68,
          "time": 57.33789599999964,
          "velocity": 0.3543307086614173,
          "duration": 0.6825940000000017
        },
        {
          "name": "A#4",
          "midi": 70,
          "time": 58.02048999999964,
          "velocity": 0.33070866141732286,
          "duration": 0.04266212499999966
        },
        {
          "name": "C5",
          "midi": 72,
          "time": 58.06315212499964,
          "velocity": 0.33070866141732286,
          "duration": 0.04266212499999966
        },
        {
          "name": "A#4",
          "midi": 70,
          "time": 58.10581424999964,
          "velocity": 0.36220472440944884,
          "duration": 0.08532424999999932
        },
        {
          "name": "G#4",
          "midi": 68,
          "time": 58.19113849999964,
          "velocity": 0.3543307086614173,
          "duration": 0.17064849999999865
        },
        {
          "name": "C#5",
          "midi": 73,
          "time": 58.36178699999964,
          "velocity": 0.3543307086614173,
          "duration": 0.17064849999999865
        },
        {
          "name": "D#5",
          "midi": 75,
          "time": 58.532435499999636,
          "velocity": 0.3779527559055118,
          "duration": 0.17064849999999865
        },
        {
          "name": "F5",
          "midi": 77,
          "time": 58.703083999999635,
          "velocity": 0.4015748031496063,
          "duration": 0.6825940000000017
        },
        {
          "name": "G#5",
          "midi": 80,
          "time": 59.385677999999636,
          "velocity": 0.4409448818897638,
          "duration": 0.6825939999999946
        },
        {
          "name": "G#4",
          "midi": 68,
          "time": 59.726974999999634,
          "velocity": 0.3858267716535433,
          "duration": 0.3412969999999973
        },
        {
          "name": "F#5",
          "midi": 78,
          "time": 60.06827199999963,
          "velocity": 0.41732283464566927,
          "duration": 0.3412969999999973
        },
        {
          "name": "F5",
          "midi": 77,
          "time": 60.40956899999963,
          "velocity": 0.4015748031496063,
          "duration": 0.3412969999999973
        },
        {
          "name": "D#5",
          "midi": 75,
          "time": 60.750865999999625,
          "velocity": 0.3858267716535433,
          "duration": 0.3412969999999973
        },
        {
          "name": "F5",
          "midi": 77,
          "time": 61.09216299999962,
          "velocity": 0.4015748031496063,
          "duration": 0.255972749999998
        },
        {
          "name": "C#5",
          "midi": 73,
          "time": 61.34813574999962,
          "velocity": 0.3700787401574803,
          "duration": 0.08532424999999932
        },
        {
          "name": "G#4",
          "midi": 68,
          "time": 61.43345999999962,
          "velocity": 0.3779527559055118,
          "duration": 0.6825940000000017
        },
        {
          "name": "A#4",
          "midi": 70,
          "time": 62.11605399999962,
          "velocity": 0.3779527559055118,
          "duration": 1.3651880000000034
        },
        {
          "name": "B4",
          "midi": 71,
          "time": 63.481241999999625,
          "velocity": 0.33070866141732286,
          "duration": 0.04266212499999966
        },
        {
          "name": "C#5",
          "midi": 73,
          "time": 63.523904124999625,
          "velocity": 0.33070866141732286,
          "duration": 0.04266212499999966
        },
        {
          "name": "B4",
          "midi": 71,
          "time": 63.566566249999624,
          "velocity": 0.36220472440944884,
          "duration": 0.08532424999999932
        },
        {
          "name": "A#4",
          "midi": 70,
          "time": 63.651890499999624,
          "velocity": 0.3543307086614173,
          "duration": 0.17064849999999865
        },
        {
          "name": "D#5",
          "midi": 75,
          "time": 63.82253899999962,
          "velocity": 0.3543307086614173,
          "duration": 0.17064849999999865
        },
        {
          "name": "F5",
          "midi": 77,
          "time": 63.99318749999962,
          "velocity": 0.3779527559055118,
          "duration": 0.17064849999999865
        },
        {
          "name": "F#5",
          "midi": 78,
          "time": 64.16383599999962,
          "velocity": 0.4015748031496063,
          "duration": 0.3412969999999973
        },
        {
          "name": "F5",
          "midi": 77,
          "time": 64.50513299999962,
          "velocity": 0.3937007874015748,
          "duration": 0.3412969999999973
        },
        {
          "name": "D#5",
          "midi": 75,
          "time": 64.84642999999961,
          "velocity": 0.4015748031496063,
          "duration": 0.3412969999999973
        },
        {
          "name": "F5",
          "midi": 77,
          "time": 65.18772699999961,
          "velocity": 0.3858267716535433,
          "duration": 0.3412969999999973
        },
        {
          "name": "C#5",
          "midi": 73,
          "time": 65.52902399999961,
          "velocity": 0.3779527559055118,
          "duration": 0.511945499999996
        },
        {
          "name": "C5",
          "midi": 72,
          "time": 66.0409694999996,
          "velocity": 0.3858267716535433,
          "duration": 0.04266212500000677
        },
        {
          "name": "C#5",
          "midi": 73,
          "time": 66.08363162499961,
          "velocity": 0.3543307086614173,
          "duration": 0.04266212500000677
        },
        {
          "name": "D#5",
          "midi": 75,
          "time": 66.12629374999962,
          "velocity": 0.3543307086614173,
          "duration": 0.04266212500000677
        },
        {
          "name": "C#5",
          "midi": 73,
          "time": 66.16895587499963,
          "velocity": 0.3543307086614173,
          "duration": 0.04266212500000677
        },
        {
          "name": "F5",
          "midi": 77,
          "time": 66.21161799999963,
          "velocity": 0.3937007874015748,
          "duration": 0.511945499999996
        },
        {
          "name": "D#5",
          "midi": 75,
          "time": 66.72356349999963,
          "velocity": 0.3858267716535433,
          "duration": 0.17064849999999865
        },
        {
          "name": "D#5",
          "midi": 75,
          "time": 66.89421199999963,
          "velocity": 0.3700787401574803,
          "duration": 1.3651880000000034
        },
        {
          "name": "G#4",
          "midi": 68,
          "time": 68.25939999999963,
          "velocity": 0.3543307086614173,
          "duration": 0.6825939999999946
        },
        {
          "name": "A#4",
          "midi": 70,
          "time": 68.94199399999962,
          "velocity": 0.33070866141732286,
          "duration": 0.04266212500000677
        },
        {
          "name": "C5",
          "midi": 72,
          "time": 68.98465612499963,
          "velocity": 0.33070866141732286,
          "duration": 0.04266212500000677
        },
        {
          "name": "A#4",
          "midi": 70,
          "time": 69.02731824999964,
          "velocity": 0.36220472440944884,
          "duration": 0.08532424999999932
        },
        {
          "name": "G#4",
          "midi": 68,
          "time": 69.11264249999964,
          "velocity": 0.3543307086614173,
          "duration": 0.17064849999999865
        },
        {
          "name": "C#5",
          "midi": 73,
          "time": 69.28329099999964,
          "velocity": 0.3543307086614173,
          "duration": 0.17064849999999865
        },
        {
          "name": "D#5",
          "midi": 75,
          "time": 69.45393949999963,
          "velocity": 0.3779527559055118,
          "duration": 0.17064849999999865
        },
        {
          "name": "F5",
          "midi": 77,
          "time": 69.62458799999963,
          "velocity": 0.4015748031496063,
          "duration": 0.6825939999999946
        },
        {
          "name": "G#5",
          "midi": 80,
          "time": 70.30718199999963,
          "velocity": 0.4409448818897638,
          "duration": 0.6825939999999946
        },
        {
          "name": "G#4",
          "midi": 68,
          "time": 70.64847899999963,
          "velocity": 0.3858267716535433,
          "duration": 0.3412969999999973
        },
        {
          "name": "F#5",
          "midi": 78,
          "time": 70.98977599999962,
          "velocity": 0.41732283464566927,
          "duration": 0.3412969999999973
        },
        {
          "name": "F5",
          "midi": 77,
          "time": 71.33107299999962,
          "velocity": 0.4015748031496063,
          "duration": 0.3412969999999973
        },
        {
          "name": "D#5",
          "midi": 75,
          "time": 71.67236999999962,
          "velocity": 0.3858267716535433,
          "duration": 0.17064849999999865
        },
        {
          "name": "F5",
          "midi": 77,
          "time": 71.84301849999962,
          "velocity": 0.3700787401574803,
          "duration": 0.04266212500000677
        },
        {
          "name": "D#5",
          "midi": 75,
          "time": 71.88568062499962,
          "velocity": 0.3700787401574803,
          "duration": 0.04266212500000677
        },
        {
          "name": "C#5",
          "midi": 73,
          "time": 71.92834274999963,
          "velocity": 0.3700787401574803,
          "duration": 0.04266212500000677
        },
        {
          "name": "D#5",
          "midi": 75,
          "time": 71.97100487499964,
          "velocity": 0.3700787401574803,
          "duration": 0.04266212500000677
        },
        {
          "name": "F5",
          "midi": 77,
          "time": 72.01366699999964,
          "velocity": 0.4015748031496063,
          "duration": 0.255972749999998
        },
        {
          "name": "C#5",
          "midi": 73,
          "time": 72.26963974999964,
          "velocity": 0.3700787401574803,
          "duration": 0.08532424999999932
        },
        {
          "name": "G#4",
          "midi": 68,
          "time": 72.35496399999964,
          "velocity": 0.3779527559055118,
          "duration": 0.6825939999999946
        },
        {
          "name": "A#4",
          "midi": 70,
          "time": 73.03755799999963,
          "velocity": 0.3779527559055118,
          "duration": 1.3651880000000034
        },
        {
          "name": "B4",
          "midi": 71,
          "time": 74.40274599999964,
          "velocity": 0.33070866141732286,
          "duration": 0.04266212500000677
        },
        {
          "name": "C#5",
          "midi": 73,
          "time": 74.44540812499964,
          "velocity": 0.33070866141732286,
          "duration": 0.04266212500000677
        },
        {
          "name": "B4",
          "midi": 71,
          "time": 74.48807024999965,
          "velocity": 0.36220472440944884,
          "duration": 0.08532424999999932
        },
        {
          "name": "A#4",
          "midi": 70,
          "time": 74.57339449999965,
          "velocity": 0.3543307086614173,
          "duration": 0.17064849999999865
        },
        {
          "name": "D#5",
          "midi": 75,
          "time": 74.74404299999965,
          "velocity": 0.3543307086614173,
          "duration": 0.17064849999999865
        },
        {
          "name": "F5",
          "midi": 77,
          "time": 74.91469149999965,
          "velocity": 0.3779527559055118,
          "duration": 0.17064849999999865
        },
        {
          "name": "F#5",
          "midi": 78,
          "time": 75.08533999999965,
          "velocity": 0.4015748031496063,
          "duration": 0.3412969999999973
        },
        {
          "name": "F5",
          "midi": 77,
          "time": 75.42663699999964,
          "velocity": 0.3937007874015748,
          "duration": 0.3412969999999973
        },
        {
          "name": "D#5",
          "midi": 75,
          "time": 75.76793399999964,
          "velocity": 0.4015748031496063,
          "duration": 0.3412969999999973
        },
        {
          "name": "F5",
          "midi": 77,
          "time": 76.10923099999964,
          "velocity": 0.3858267716535433,
          "duration": 0.3412969999999973
        },
        {
          "name": "C#5",
          "midi": 73,
          "time": 76.45052799999964,
          "velocity": 0.3779527559055118,
          "duration": 0.511945499999996
        },
        {
          "name": "G4",
          "midi": 67,
          "time": 76.96247349999963,
          "velocity": 0.3858267716535433,
          "duration": 0.04266212500000677
        },
        {
          "name": "G#4",
          "midi": 68,
          "time": 77.00513562499964,
          "velocity": 0.3543307086614173,
          "duration": 0.04266212500000677
        },
        {
          "name": "A#4",
          "midi": 70,
          "time": 77.04779774999965,
          "velocity": 0.3543307086614173,
          "duration": 0.04266212500000677
        },
        {
          "name": "G#4",
          "midi": 68,
          "time": 77.09045987499965,
          "velocity": 0.3543307086614173,
          "duration": 0.04266212500000677
        },
        {
          "name": "F5",
          "midi": 77,
          "time": 77.13312199999966,
          "velocity": 0.3937007874015748,
          "duration": 0.511945499999996
        },
        {
          "name": "D#5",
          "midi": 75,
          "time": 77.64506749999966,
          "velocity": 0.3858267716535433,
          "duration": 0.17064849999999865
        },
        {
          "name": "D#5",
          "midi": 75,
          "time": 77.81571599999965,
          "velocity": 0.4094488188976378,
          "duration": 0.6825939999999946
        },
        {
          "name": "C#5",
          "midi": 73,
          "time": 78.49830999999965,
          "velocity": 0.4094488188976378,
          "duration": 0.3412969999999973
        },
        {
          "name": "G#5",
          "midi": 80,
          "time": 79.01025549999964,
          "velocity": 0.47244094488188976,
          "duration": 0.17064849999999865
        },
        {
          "name": "G#4",
          "midi": 68,
          "time": 79.18090399999964,
          "velocity": 0.5118110236220472,
          "duration": 0.6825939999999946
        },
        {
          "name": "A#4",
          "midi": 70,
          "time": 79.86349799999964,
          "velocity": 0.4645669291338583,
          "duration": 0.04266212500000677
        },
        {
          "name": "C5",
          "midi": 72,
          "time": 79.90616012499964,
          "velocity": 0.4645669291338583,
          "duration": 0.04266212500000677
        },
        {
          "name": "A#4",
          "midi": 70,
          "time": 79.94882224999965,
          "velocity": 0.5039370078740157,
          "duration": 0.17064849999999865
        },
        {
          "name": "A4",
          "midi": 69,
          "time": 80.11947074999965,
          "velocity": 0.44881889763779526,
          "duration": 0.08532424999999932
        },
        {
          "name": "A#4",
          "midi": 70,
          "time": 80.20479499999965,
          "velocity": 0.5039370078740157,
          "duration": 0.255972749999998
        },
        {
          "name": "C5",
          "midi": 72,
          "time": 80.46076774999965,
          "velocity": 0.4881889763779528,
          "duration": 0.08532424999999932
        },
        {
          "name": "G#4",
          "midi": 68,
          "time": 80.54609199999965,
          "velocity": 0.5196850393700787,
          "duration": 0.17064849999999865
        },
        {
          "name": "C6",
          "midi": 84,
          "time": 80.88738899999964,
          "velocity": 0.5196850393700787,
          "duration": 0.4387088520833373
        },
        {
          "name": "A#5",
          "midi": 82,
          "time": 81.32609785208298,
          "velocity": 0.49606299212598426,
          "duration": 0.09741185208334002
        },
        {
          "name": "G#5",
          "midi": 80,
          "time": 81.42350970416632,
          "velocity": 0.4881889763779528,
          "duration": 0.09741185208334002
        },
        {
          "name": "E5",
          "midi": 76,
          "time": 81.52092155624966,
          "velocity": 0.48031496062992124,
          "duration": 0.09741185208334002
        },
        {
          "name": "C#5",
          "midi": 73,
          "time": 81.618333408333,
          "velocity": 0.4645669291338583,
          "duration": 0.09741185208334002
        },
        {
          "name": "A#4",
          "midi": 70,
          "time": 81.71574526041634,
          "velocity": 0.4566929133858268,
          "duration": 0.14647329583333146
        },
        {
          "name": "G#5",
          "midi": 80,
          "time": 81.86221855624967,
          "velocity": 0.4330708661417323,
          "duration": 0.04906144375000565
        },
        {
          "name": "D#4",
          "midi": 63,
          "time": 81.91127999999968,
          "velocity": 0.5196850393700787,
          "duration": 0.639931875000002
        },
        {
          "name": "C5",
          "midi": 72,
          "time": 82.55121187499968,
          "velocity": 0.4645669291338583,
          "duration": 0.04266212500000677
        },
        {
          "name": "A#4",
          "midi": 70,
          "time": 82.59387399999969,
          "velocity": 0.5039370078740157,
          "duration": 0.255972749999998
        },
        {
          "name": "A4",
          "midi": 69,
          "time": 82.84984674999968,
          "velocity": 0.44881889763779526,
          "duration": 0.08532424999999932
        },
        {
          "name": "A#4",
          "midi": 70,
          "time": 82.93517099999968,
          "velocity": 0.5039370078740157,
          "duration": 0.255972749999998
        },
        {
          "name": "D#5",
          "midi": 75,
          "time": 83.19114374999968,
          "velocity": 0.4881889763779528,
          "duration": 0.08532424999999932
        },
        {
          "name": "G#4",
          "midi": 68,
          "time": 83.27646799999968,
          "velocity": 0.5118110236220472,
          "duration": 0.3412969999999973
        },
        {
          "name": "A#4",
          "midi": 70,
          "time": 83.95906199999968,
          "velocity": 0.30708661417322836,
          "duration": 0.3412969999999973
        },
        {
          "name": "C#5",
          "midi": 73,
          "time": 84.30035899999967,
          "velocity": 0.3464566929133858,
          "duration": 0.11376566666666577
        },
        {
          "name": "C5",
          "midi": 72,
          "time": 84.41412466666634,
          "velocity": 0.30708661417322836,
          "duration": 0.11376566666666577
        },
        {
          "name": "A#4",
          "midi": 70,
          "time": 84.527890333333,
          "velocity": 0.30708661417322836,
          "duration": 0.11376566666666577
        },
        {
          "name": "G#4",
          "midi": 68,
          "time": 84.64165599999967,
          "velocity": 0.33858267716535434,
          "duration": 0.6825939999999946
        },
        {
          "name": "A#4",
          "midi": 70,
          "time": 85.32424999999967,
          "velocity": 0.36220472440944884,
          "duration": 0.034129699999994045
        },
        {
          "name": "C5",
          "midi": 72,
          "time": 85.35837969999966,
          "velocity": 0.33070866141732286,
          "duration": 0.034129699999994045
        },
        {
          "name": "A#4",
          "midi": 70,
          "time": 85.39250939999965,
          "velocity": 0.33070866141732286,
          "duration": 0.034129699999994045
        },
        {
          "name": "C5",
          "midi": 72,
          "time": 85.42663909999965,
          "velocity": 0.3464566929133858,
          "duration": 0.034129699999994045
        },
        {
          "name": "A#4",
          "midi": 70,
          "time": 85.46076879999964,
          "velocity": 0.33070866141732286,
          "duration": 0.034129699999994045
        },
        {
          "name": "G#4",
          "midi": 68,
          "time": 85.49489849999964,
          "velocity": 0.3228346456692913,
          "duration": 0.17064849999999865
        },
        {
          "name": "C#5",
          "midi": 73,
          "time": 85.66554699999963,
          "velocity": 0.3543307086614173,
          "duration": 0.17064849999999865
        },
        {
          "name": "D#5",
          "midi": 75,
          "time": 85.83619549999963,
          "velocity": 0.3779527559055118,
          "duration": 0.17064849999999865
        },
        {
          "name": "F5",
          "midi": 77,
          "time": 86.00684399999963,
          "velocity": 0.4015748031496063,
          "duration": 0.6825939999999946
        },
        {
          "name": "G#5",
          "midi": 80,
          "time": 86.68943799999963,
          "velocity": 0.4409448818897638,
          "duration": 0.6825939999999946
        },
        {
          "name": "G#4",
          "midi": 68,
          "time": 87.03073499999962,
          "velocity": 0.3858267716535433,
          "duration": 0.3412969999999973
        },
        {
          "name": "F#5",
          "midi": 78,
          "time": 87.37203199999962,
          "velocity": 0.41732283464566927,
          "duration": 0.3412969999999973
        },
        {
          "name": "F5",
          "midi": 77,
          "time": 87.71332899999962,
          "velocity": 0.4015748031496063,
          "duration": 0.3412969999999973
        },
        {
          "name": "D#5",
          "midi": 75,
          "time": 88.05462599999962,
          "velocity": 0.3858267716535433,
          "duration": 0.17064849999999865
        },
        {
          "name": "F5",
          "midi": 77,
          "time": 88.22527449999961,
          "velocity": 0.3700787401574803,
          "duration": 0.04266212500000677
        },
        {
          "name": "D#5",
          "midi": 75,
          "time": 88.26793662499962,
          "velocity": 0.3700787401574803,
          "duration": 0.04266212500000677
        },
        {
          "name": "C#5",
          "midi": 73,
          "time": 88.31059874999963,
          "velocity": 0.3700787401574803,
          "duration": 0.04266212500000677
        },
        {
          "name": "D#5",
          "midi": 75,
          "time": 88.35326087499963,
          "velocity": 0.3700787401574803,
          "duration": 0.04266212500000677
        },
        {
          "name": "F5",
          "midi": 77,
          "time": 88.39592299999964,
          "velocity": 0.4015748031496063,
          "duration": 0.17064849999999865
        },
        {
          "name": "C#5",
          "midi": 73,
          "time": 88.56657149999964,
          "velocity": 0.3700787401574803,
          "duration": 0.17064849999999865
        },
        {
          "name": "G#4",
          "midi": 68,
          "time": 88.73721999999964,
          "velocity": 0.3779527559055118,
          "duration": 0.6825939999999946
        },
        {
          "name": "A#4",
          "midi": 70,
          "time": 89.41981399999963,
          "velocity": 0.3779527559055118,
          "duration": 1.3651880000000034
        },
        {
          "name": "B4",
          "midi": 71,
          "time": 90.78500199999964,
          "velocity": 0.3543307086614173,
          "duration": 0.034129699999994045
        },
        {
          "name": "C#5",
          "midi": 73,
          "time": 90.81913169999963,
          "velocity": 0.33070866141732286,
          "duration": 0.034129699999994045
        },
        {
          "name": "B4",
          "midi": 71,
          "time": 90.85326139999962,
          "velocity": 0.3228346456692913,
          "duration": 0.034129699999994045
        },
        {
          "name": "C#5",
          "midi": 73,
          "time": 90.88739109999962,
          "velocity": 0.33070866141732286,
          "duration": 0.034129699999994045
        },
        {
          "name": "B4",
          "midi": 71,
          "time": 90.92436494166628,
          "velocity": 0.33070866141732286,
          "duration": 0.034129700000008256
        },
        {
          "name": "A#4",
          "midi": 70,
          "time": 90.95565049999962,
          "velocity": 0.3543307086614173,
          "duration": 0.17064849999999865
        },
        {
          "name": "D#5",
          "midi": 75,
          "time": 91.12629899999962,
          "velocity": 0.3543307086614173,
          "duration": 0.17064849999999865
        },
        {
          "name": "F5",
          "midi": 77,
          "time": 91.29694749999962,
          "velocity": 0.3779527559055118,
          "duration": 0.17064849999999865
        },
        {
          "name": "F#5",
          "midi": 78,
          "time": 91.46759599999962,
          "velocity": 0.4015748031496063,
          "duration": 0.3412969999999973
        },
        {
          "name": "F5",
          "midi": 77,
          "time": 91.80889299999961,
          "velocity": 0.3937007874015748,
          "duration": 0.3412969999999973
        },
        {
          "name": "D#5",
          "midi": 75,
          "time": 92.15018999999961,
          "velocity": 0.4015748031496063,
          "duration": 0.3412969999999973
        },
        {
          "name": "F5",
          "midi": 77,
          "time": 92.49148699999961,
          "velocity": 0.3858267716535433,
          "duration": 0.3412969999999973
        },
        {
          "name": "C#5",
          "midi": 73,
          "time": 92.8327839999996,
          "velocity": 0.3779527559055118,
          "duration": 0.511945499999996
        },
        {
          "name": "G4",
          "midi": 67,
          "time": 93.3447294999996,
          "velocity": 0.3858267716535433,
          "duration": 0.04266212500000677
        },
        {
          "name": "G#4",
          "midi": 68,
          "time": 93.38739162499961,
          "velocity": 0.3543307086614173,
          "duration": 0.04266212500000677
        },
        {
          "name": "A#4",
          "midi": 70,
          "time": 93.43005374999962,
          "velocity": 0.3543307086614173,
          "duration": 0.04266212500000677
        },
        {
          "name": "G#4",
          "midi": 68,
          "time": 93.47271587499962,
          "velocity": 0.3543307086614173,
          "duration": 0.04266212500000677
        },
        {
          "name": "F5",
          "midi": 77,
          "time": 93.51537799999963,
          "velocity": 0.3937007874015748,
          "duration": 0.511945499999996
        },
        {
          "name": "D#5",
          "midi": 75,
          "time": 94.02732349999962,
          "velocity": 0.3858267716535433,
          "duration": 0.17064849999999865
        },
        {
          "name": "D#5",
          "midi": 75,
          "time": 94.19797199999962,
          "velocity": 0.4094488188976378,
          "duration": 0.6825939999999946
        },
        {
          "name": "C#5",
          "midi": 73,
          "time": 94.88056599999962,
          "velocity": 0.4094488188976378,
          "duration": 0.3412969999999973
        },
        {
          "name": "G#5",
          "midi": 80,
          "time": 95.39251149999961,
          "velocity": 0.47244094488188976,
          "duration": 0.17064849999999865
        },
        {
          "name": "G#4",
          "midi": 68,
          "time": 95.56315999999961,
          "velocity": 0.5118110236220472,
          "duration": 0.6825939999999946
        },
        {
          "name": "A#4",
          "midi": 70,
          "time": 96.24575399999961,
          "velocity": 0.5118110236220472,
          "duration": 0.04266212500000677
        },
        {
          "name": "C5",
          "midi": 72,
          "time": 96.28841612499961,
          "velocity": 0.4645669291338583,
          "duration": 0.04266212500000677
        },
        {
          "name": "A#4",
          "midi": 70,
          "time": 96.33107824999962,
          "velocity": 0.47244094488188976,
          "duration": 0.04266212500000677
        },
        {
          "name": "C5",
          "midi": 72,
          "time": 96.37374037499963,
          "velocity": 0.4645669291338583,
          "duration": 0.04266212500000677
        },
        {
          "name": "A#4",
          "midi": 70,
          "time": 96.41640249999963,
          "velocity": 0.4409448818897638,
          "duration": 0.02844141666666644
        },
        {
          "name": "C5",
          "midi": 72,
          "time": 96.4448439166663,
          "velocity": 0.4409448818897638,
          "duration": 0.02844141666666644
        },
        {
          "name": "A#4",
          "midi": 70,
          "time": 96.47328533333297,
          "velocity": 0.4409448818897638,
          "duration": 0.02844141666666644
        },
        {
          "name": "A4",
          "midi": 69,
          "time": 96.50172674999963,
          "velocity": 0.4881889763779528,
          "duration": 0.08532424999999932
        },
        {
          "name": "A#4",
          "midi": 70,
          "time": 96.58705099999963,
          "velocity": 0.5039370078740157,
          "duration": 0.255972749999998
        },
        {
          "name": "C5",
          "midi": 72,
          "time": 96.84302374999963,
          "velocity": 0.4881889763779528,
          "duration": 0.08532424999999932
        },
        {
          "name": "G#4",
          "midi": 68,
          "time": 96.92834799999963,
          "velocity": 0.5196850393700787,
          "duration": 0.17064849999999865
        },
        {
          "name": "C6",
          "midi": 84,
          "time": 97.26964499999963,
          "velocity": 0.5196850393700787,
          "duration": 0.4387088520833373
        },
        {
          "name": "A#5",
          "midi": 82,
          "time": 97.70835385208296,
          "velocity": 0.49606299212598426,
          "duration": 0.09741185208334002
        },
        {
          "name": "G#5",
          "midi": 80,
          "time": 97.8057657041663,
          "velocity": 0.4881889763779528,
          "duration": 0.09741185208334002
        },
        {
          "name": "E5",
          "midi": 76,
          "time": 97.90317755624964,
          "velocity": 0.48031496062992124,
          "duration": 0.09741185208334002
        },
        {
          "name": "C#5",
          "midi": 73,
          "time": 98.00058940833298,
          "velocity": 0.4645669291338583,
          "duration": 0.09741185208334002
        },
        {
          "name": "A#4",
          "midi": 70,
          "time": 98.09800126041632,
          "velocity": 0.4566929133858268,
          "duration": 0.14647329583333146
        },
        {
          "name": "G#5",
          "midi": 80,
          "time": 98.24447455624966,
          "velocity": 0.4330708661417323,
          "duration": 0.04906144375000565
        },
        {
          "name": "D#4",
          "midi": 63,
          "time": 98.29353599999966,
          "velocity": 0.5196850393700787,
          "duration": 0.639931875000002
        },
        {
          "name": "C5",
          "midi": 72,
          "time": 98.93346787499966,
          "velocity": 0.4645669291338583,
          "duration": 0.04266212500000677
        },
        {
          "name": "A#4",
          "midi": 70,
          "time": 98.97612999999967,
          "velocity": 0.5039370078740157,
          "duration": 0.255972749999998
        },
        {
          "name": "A4",
          "midi": 69,
          "time": 99.23210274999967,
          "velocity": 0.44881889763779526,
          "duration": 0.08532424999999932
        },
        {
          "name": "A#4",
          "midi": 70,
          "time": 99.31742699999967,
          "velocity": 0.5039370078740157,
          "duration": 0.255972749999998
        },
        {
          "name": "D#5",
          "midi": 75,
          "time": 99.57339974999967,
          "velocity": 0.4881889763779528,
          "duration": 0.08532424999999932
        },
        {
          "name": "G#4",
          "midi": 68,
          "time": 99.65872399999967,
          "velocity": 0.5118110236220472,
          "duration": 0.3412969999999973
        },
        {
          "name": "A#4",
          "midi": 70,
          "time": 100.34131799999966,
          "velocity": 0.30708661417322836,
          "duration": 0.3412969999999973
        },
        {
          "name": "C#5",
          "midi": 73,
          "time": 100.68261499999966,
          "velocity": 0.3464566929133858,
          "duration": 0.11376566666666577
        },
        {
          "name": "C5",
          "midi": 72,
          "time": 100.79638066666632,
          "velocity": 0.30708661417322836,
          "duration": 0.11376566666666577
        },
        {
          "name": "A#4",
          "midi": 70,
          "time": 100.91014633333299,
          "velocity": 0.30708661417322836,
          "duration": 0.11376566666666577
        },
        {
          "name": "G#4",
          "midi": 68,
          "time": 101.02391199999965,
          "velocity": 0.33858267716535434,
          "duration": 0.6825939999999946
        },
        {
          "name": "A#4",
          "midi": 70,
          "time": 101.70650599999965,
          "velocity": 0.3700787401574803,
          "duration": 0.034129699999994045
        },
        {
          "name": "C5",
          "midi": 72,
          "time": 101.74063569999964,
          "velocity": 0.33858267716535434,
          "duration": 0.034129699999994045
        },
        {
          "name": "A#4",
          "midi": 70,
          "time": 101.77476539999964,
          "velocity": 0.33858267716535434,
          "duration": 0.034129699999994045
        },
        {
          "name": "C5",
          "midi": 72,
          "time": 101.80889509999963,
          "velocity": 0.33858267716535434,
          "duration": 0.034129699999994045
        },
        {
          "name": "A#4",
          "midi": 70,
          "time": 101.84302479999963,
          "velocity": 0.33858267716535434,
          "duration": 0.034129699999994045
        },
        {
          "name": "G#4",
          "midi": 68,
          "time": 101.87715449999962,
          "velocity": 0.3543307086614173,
          "duration": 0.17064849999999865
        },
        {
          "name": "C#5",
          "midi": 73,
          "time": 102.04780299999962,
          "velocity": 0.3543307086614173,
          "duration": 0.17064849999999865
        },
        {
          "name": "D#5",
          "midi": 75,
          "time": 102.21845149999962,
          "velocity": 0.3779527559055118,
          "duration": 0.17064849999999865
        },
        {
          "name": "F5",
          "midi": 77,
          "time": 102.38909999999962,
          "velocity": 0.4015748031496063,
          "duration": 0.6825939999999946
        },
        {
          "name": "G#5",
          "midi": 80,
          "time": 103.07169399999961,
          "velocity": 0.4409448818897638,
          "duration": 0.6825939999999946
        },
        {
          "name": "G#4",
          "midi": 68,
          "time": 103.41299099999961,
          "velocity": 0.3858267716535433,
          "duration": 0.3412969999999973
        },
        {
          "name": "F#5",
          "midi": 78,
          "time": 103.7542879999996,
          "velocity": 0.41732283464566927,
          "duration": 0.3412969999999973
        },
        {
          "name": "F5",
          "midi": 77,
          "time": 104.0955849999996,
          "velocity": 0.4015748031496063,
          "duration": 0.3412969999999973
        },
        {
          "name": "D#5",
          "midi": 75,
          "time": 104.4368819999996,
          "velocity": 0.3858267716535433,
          "duration": 0.17064849999999865
        },
        {
          "name": "F5",
          "midi": 77,
          "time": 104.6075304999996,
          "velocity": 0.3700787401574803,
          "duration": 0.04266212500000677
        },
        {
          "name": "D#5",
          "midi": 75,
          "time": 104.6501926249996,
          "velocity": 0.3700787401574803,
          "duration": 0.04266212500000677
        },
        {
          "name": "C#5",
          "midi": 73,
          "time": 104.69285474999961,
          "velocity": 0.3700787401574803,
          "duration": 0.04266212500000677
        },
        {
          "name": "D#5",
          "midi": 75,
          "time": 104.73551687499962,
          "velocity": 0.3700787401574803,
          "duration": 0.04266212500000677
        },
        {
          "name": "F5",
          "midi": 77,
          "time": 104.77817899999962,
          "velocity": 0.4015748031496063,
          "duration": 0.17064849999999865
        },
        {
          "name": "C#5",
          "midi": 73,
          "time": 104.94882749999962,
          "velocity": 0.3700787401574803,
          "duration": 0.17064849999999865
        },
        {
          "name": "G#4",
          "midi": 68,
          "time": 105.11947599999962,
          "velocity": 0.3779527559055118,
          "duration": 0.6825939999999946
        },
        {
          "name": "A#4",
          "midi": 70,
          "time": 105.80206999999962,
          "velocity": 0.3779527559055118,
          "duration": 1.3651880000000034
        },
        {
          "name": "B4",
          "midi": 71,
          "time": 107.16725799999962,
          "velocity": 0.3779527559055118,
          "duration": 0.034129699999994045
        },
        {
          "name": "C#5",
          "midi": 73,
          "time": 107.20138769999961,
          "velocity": 0.33070866141732286,
          "duration": 0.034129699999994045
        },
        {
          "name": "B4",
          "midi": 71,
          "time": 107.23551739999961,
          "velocity": 0.33858267716535434,
          "duration": 0.034129699999994045
        },
        {
          "name": "C#5",
          "midi": 73,
          "time": 107.2696470999996,
          "velocity": 0.33070866141732286,
          "duration": 0.034129699999994045
        },
        {
          "name": "B4",
          "midi": 71,
          "time": 107.3037767999996,
          "velocity": 0.33070866141732286,
          "duration": 0.034129699999994045
        },
        {
          "name": "A#4",
          "midi": 70,
          "time": 107.33790649999959,
          "velocity": 0.3543307086614173,
          "duration": 0.17064849999999865
        },
        {
          "name": "D#5",
          "midi": 75,
          "time": 107.50855499999959,
          "velocity": 0.3543307086614173,
          "duration": 0.17064849999999865
        },
        {
          "name": "F5",
          "midi": 77,
          "time": 107.67920349999959,
          "velocity": 0.3779527559055118,
          "duration": 0.17064849999999865
        },
        {
          "name": "F#5",
          "midi": 78,
          "time": 107.84985199999959,
          "velocity": 0.4015748031496063,
          "duration": 0.3412969999999973
        },
        {
          "name": "F5",
          "midi": 77,
          "time": 108.19114899999958,
          "velocity": 0.3700787401574803,
          "duration": 0.3412969999999973
        },
        {
          "name": "D#5",
          "midi": 75,
          "time": 108.53244599999958,
          "velocity": 0.3858267716535433,
          "duration": 0.3412969999999973
        },
        {
          "name": "F5",
          "midi": 77,
          "time": 108.87374299999958,
          "velocity": 0.3543307086614173,
          "duration": 0.3412969999999973
        },
        {
          "name": "C#5",
          "midi": 73,
          "time": 109.21503999999958,
          "velocity": 0.33858267716535434,
          "duration": 0.511945499999996
        },
        {
          "name": "G4",
          "midi": 67,
          "time": 109.72698549999957,
          "velocity": 0.3464566929133858,
          "duration": 0.04266212500000677
        },
        {
          "name": "G#4",
          "midi": 68,
          "time": 109.76964762499958,
          "velocity": 0.31496062992125984,
          "duration": 0.04266212500000677
        },
        {
          "name": "A#4",
          "midi": 70,
          "time": 109.81230974999959,
          "velocity": 0.31496062992125984,
          "duration": 0.04266212500000677
        },
        {
          "name": "G#4",
          "midi": 68,
          "time": 109.85497187499959,
          "velocity": 0.31496062992125984,
          "duration": 0.04266212500000677
        },
        {
          "name": "F5",
          "midi": 77,
          "time": 109.8976339999996,
          "velocity": 0.3543307086614173,
          "duration": 0.511945499999996
        },
        {
          "name": "D#5",
          "midi": 75,
          "time": 110.4095794999996,
          "velocity": 0.3464566929133858,
          "duration": 0.17064849999999865
        },
        {
          "name": "D#5",
          "midi": 75,
          "time": 110.5802279999996,
          "velocity": 0.3464566929133858,
          "duration": 1.3651880000000034
        },
        {
          "name": "G#4",
          "midi": 68,
          "time": 112.0307402499996,
          "velocity": 0.29133858267716534,
          "duration": 0.08532424999999932
        },
        {
          "name": "A4",
          "midi": 69,
          "time": 112.1160644999996,
          "velocity": 0.3228346456692913,
          "duration": 0.08532424999999932
        },
        {
          "name": "G#4",
          "midi": 68,
          "time": 112.2013887499996,
          "velocity": 0.2992125984251969,
          "duration": 0.08532424999999932
        },
        {
          "name": "G4",
          "midi": 67,
          "time": 112.2867129999996,
          "velocity": 0.30708661417322836,
          "duration": 0.08532424999999932
        },
        {
          "name": "G#4",
          "midi": 68,
          "time": 112.3720372499996,
          "velocity": 0.31496062992125984,
          "duration": 0.08532424999999932
        },
        {
          "name": "C#5",
          "midi": 73,
          "time": 112.45736149999959,
          "velocity": 0.33070866141732286,
          "duration": 0.08532424999999932
        },
        {
          "name": "E5",
          "midi": 76,
          "time": 112.54268574999959,
          "velocity": 0.33858267716535434,
          "duration": 0.08532424999999932
        },
        {
          "name": "D#5",
          "midi": 75,
          "time": 112.62800999999959,
          "velocity": 0.3543307086614173,
          "duration": 0.08532424999999932
        },
        {
          "name": "C#5",
          "midi": 73,
          "time": 112.71333424999959,
          "velocity": 0.33858267716535434,
          "duration": 0.08532424999999932
        },
        {
          "name": "D#5",
          "midi": 75,
          "time": 112.79865849999959,
          "velocity": 0.3543307086614173,
          "duration": 0.08532424999999932
        },
        {
          "name": "C#5",
          "midi": 73,
          "time": 112.88398274999959,
          "velocity": 0.33858267716535434,
          "duration": 0.08532424999999932
        },
        {
          "name": "C5",
          "midi": 72,
          "time": 112.96930699999959,
          "velocity": 0.3464566929133858,
          "duration": 0.08532424999999932
        },
        {
          "name": "C#5",
          "midi": 73,
          "time": 113.05463124999959,
          "velocity": 0.36220472440944884,
          "duration": 0.08532424999999932
        },
        {
          "name": "E5",
          "midi": 76,
          "time": 113.13995549999959,
          "velocity": 0.3858267716535433,
          "duration": 0.08532424999999932
        },
        {
          "name": "G#5",
          "midi": 80,
          "time": 113.22527974999959,
          "velocity": 0.3700787401574803,
          "duration": 0.08532424999999932
        },
        {
          "name": "G#4",
          "midi": 68,
          "time": 113.39592824999959,
          "velocity": 0.3543307086614173,
          "duration": 0.08532424999999932
        },
        {
          "name": "A4",
          "midi": 69,
          "time": 113.48125249999958,
          "velocity": 0.3858267716535433,
          "duration": 0.08532424999999932
        },
        {
          "name": "G#4",
          "midi": 68,
          "time": 113.56657674999958,
          "velocity": 0.3543307086614173,
          "duration": 0.08532424999999932
        },
        {
          "name": "G4",
          "midi": 67,
          "time": 113.65190099999958,
          "velocity": 0.36220472440944884,
          "duration": 0.08532424999999932
        },
        {
          "name": "G#4",
          "midi": 68,
          "time": 113.73722524999958,
          "velocity": 0.3779527559055118,
          "duration": 0.08532424999999932
        },
        {
          "name": "C#5",
          "midi": 73,
          "time": 113.82254949999958,
          "velocity": 0.3937007874015748,
          "duration": 0.08532424999999932
        },
        {
          "name": "E5",
          "midi": 76,
          "time": 113.90787374999958,
          "velocity": 0.4015748031496063,
          "duration": 0.08532424999999932
        },
        {
          "name": "D#5",
          "midi": 75,
          "time": 113.99319799999958,
          "velocity": 0.4251968503937008,
          "duration": 0.08532424999999932
        },
        {
          "name": "C#5",
          "midi": 73,
          "time": 114.07852224999958,
          "velocity": 0.4015748031496063,
          "duration": 0.08532424999999932
        },
        {
          "name": "D#5",
          "midi": 75,
          "time": 114.16384649999958,
          "velocity": 0.41732283464566927,
          "duration": 0.08532424999999932
        },
        {
          "name": "C#5",
          "midi": 73,
          "time": 114.24917074999958,
          "velocity": 0.4015748031496063,
          "duration": 0.08532424999999932
        },
        {
          "name": "C5",
          "midi": 72,
          "time": 114.33449499999958,
          "velocity": 0.4094488188976378,
          "duration": 0.08532424999999932
        },
        {
          "name": "C#5",
          "midi": 73,
          "time": 114.41981924999958,
          "velocity": 0.4251968503937008,
          "duration": 0.08532424999999932
        },
        {
          "name": "E5",
          "midi": 76,
          "time": 114.50514349999958,
          "velocity": 0.44881889763779526,
          "duration": 0.08532424999999932
        },
        {
          "name": "G#5",
          "midi": 80,
          "time": 114.59046774999958,
          "velocity": 0.4330708661417323,
          "duration": 0.08532424999999932
        },
        {
          "name": "A4",
          "midi": 69,
          "time": 114.76111624999957,
          "velocity": 0.4409448818897638,
          "duration": 0.08532424999999932
        },
        {
          "name": "C#5",
          "midi": 73,
          "time": 114.84644049999957,
          "velocity": 0.4566929133858268,
          "duration": 0.08532424999999932
        },
        {
          "name": "D#5",
          "midi": 75,
          "time": 114.93176474999957,
          "velocity": 0.47244094488188976,
          "duration": 0.08532424999999932
        },
        {
          "name": "F#5",
          "midi": 78,
          "time": 115.01708899999957,
          "velocity": 0.49606299212598426,
          "duration": 0.08532424999999932
        },
        {
          "name": "A5",
          "midi": 81,
          "time": 115.10241324999957,
          "velocity": 0.49606299212598426,
          "duration": 0.08532424999999932
        },
        {
          "name": "C#6",
          "midi": 85,
          "time": 115.18773749999957,
          "velocity": 0.5196850393700787,
          "duration": 0.08532424999999932
        },
        {
          "name": "D#6",
          "midi": 87,
          "time": 115.27306174999957,
          "velocity": 0.5669291338582677,
          "duration": 0.08532424999999932
        },
        {
          "name": "B6",
          "midi": 95,
          "time": 115.35838599999957,
          "velocity": 0.5984251968503937,
          "duration": 0.08532424999999932
        },
        {
          "name": "A6",
          "midi": 93,
          "time": 115.44371024999957,
          "velocity": 0.5905511811023622,
          "duration": 0.08532424999999932
        },
        {
          "name": "G#6",
          "midi": 92,
          "time": 115.52903449999957,
          "velocity": 0.5511811023622047,
          "duration": 0.08532424999999932
        },
        {
          "name": "F#6",
          "midi": 90,
          "time": 115.61435874999957,
          "velocity": 0.5433070866141733,
          "duration": 0.08532424999999932
        },
        {
          "name": "E6",
          "midi": 88,
          "time": 115.69968299999957,
          "velocity": 0.5354330708661418,
          "duration": 0.08532424999999932
        },
        {
          "name": "D#6",
          "midi": 87,
          "time": 115.78500724999957,
          "velocity": 0.5275590551181102,
          "duration": 0.08532424999999932
        },
        {
          "name": "F#6",
          "midi": 90,
          "time": 115.87033149999957,
          "velocity": 0.5196850393700787,
          "duration": 0.08532424999999932
        },
        {
          "name": "C#6",
          "midi": 85,
          "time": 115.95565574999956,
          "velocity": 0.5275590551181102,
          "duration": 0.08532424999999932
        },
        {
          "name": "C6",
          "midi": 84,
          "time": 116.04097999999956,
          "velocity": 0.5354330708661418,
          "duration": 0.08532424999999932
        },
        {
          "name": "D#6",
          "midi": 87,
          "time": 116.12630424999956,
          "velocity": 0.49606299212598426,
          "duration": 0.08532424999999932
        },
        {
          "name": "A5",
          "midi": 81,
          "time": 116.21162849999956,
          "velocity": 0.49606299212598426,
          "duration": 0.08532424999999932
        },
        {
          "name": "G#5",
          "midi": 80,
          "time": 116.29695274999956,
          "velocity": 0.49606299212598426,
          "duration": 0.08532424999999932
        },
        {
          "name": "F#5",
          "midi": 78,
          "time": 116.38227699999956,
          "velocity": 0.47244094488188976,
          "duration": 0.08532424999999932
        },
        {
          "name": "A5",
          "midi": 81,
          "time": 116.46760124999956,
          "velocity": 0.4566929133858268,
          "duration": 0.08532424999999932
        },
        {
          "name": "E5",
          "midi": 76,
          "time": 116.55292549999956,
          "velocity": 0.4251968503937008,
          "duration": 0.08532424999999932
        },
        {
          "name": "D#5",
          "midi": 75,
          "time": 116.63824974999956,
          "velocity": 0.4251968503937008,
          "duration": 0.08532424999999932
        },
        {
          "name": "F#5",
          "midi": 78,
          "time": 116.72357399999956,
          "velocity": 0.41732283464566927,
          "duration": 0.08532424999999932
        },
        {
          "name": "C#5",
          "midi": 73,
          "time": 116.80889824999956,
          "velocity": 0.3779527559055118,
          "duration": 0.08532424999999932
        },
        {
          "name": "C5",
          "midi": 72,
          "time": 116.89422249999956,
          "velocity": 0.3779527559055118,
          "duration": 0.08532424999999932
        },
        {
          "name": "D#5",
          "midi": 75,
          "time": 116.97954674999956,
          "velocity": 0.3700787401574803,
          "duration": 0.08532424999999932
        },
        {
          "name": "A4",
          "midi": 69,
          "time": 117.06487099999956,
          "velocity": 0.3543307086614173,
          "duration": 0.08532424999999932
        },
        {
          "name": "G#4",
          "midi": 68,
          "time": 117.15019524999956,
          "velocity": 0.33070866141732286,
          "duration": 0.08532424999999932
        },
        {
          "name": "B4",
          "midi": 71,
          "time": 117.23551949999955,
          "velocity": 0.33070866141732286,
          "duration": 0.08532424999999932
        },
        {
          "name": "A4",
          "midi": 69,
          "time": 117.32084374999955,
          "velocity": 0.3228346456692913,
          "duration": 0.17064849999999865
        },
        {
          "name": "G#4",
          "midi": 68,
          "time": 117.49149224999955,
          "velocity": 0.29133858267716534,
          "duration": 0.08532424999999932
        },
        {
          "name": "A4",
          "midi": 69,
          "time": 117.57681649999955,
          "velocity": 0.3228346456692913,
          "duration": 0.08532424999999932
        },
        {
          "name": "G#4",
          "midi": 68,
          "time": 117.66214074999955,
          "velocity": 0.2992125984251969,
          "duration": 0.08532424999999932
        },
        {
          "name": "G4",
          "midi": 67,
          "time": 117.74746499999955,
          "velocity": 0.30708661417322836,
          "duration": 0.08532424999999932
        },
        {
          "name": "G#4",
          "midi": 68,
          "time": 117.83278924999955,
          "velocity": 0.31496062992125984,
          "duration": 0.08532424999999932
        },
        {
          "name": "C#5",
          "midi": 73,
          "time": 117.91811349999955,
          "velocity": 0.33070866141732286,
          "duration": 0.08532424999999932
        },
        {
          "name": "E5",
          "midi": 76,
          "time": 118.00343774999955,
          "velocity": 0.33858267716535434,
          "duration": 0.08532424999999932
        },
        {
          "name": "D#5",
          "midi": 75,
          "time": 118.08876199999955,
          "velocity": 0.3543307086614173,
          "duration": 0.08532424999999932
        },
        {
          "name": "C#5",
          "midi": 73,
          "time": 118.17408624999955,
          "velocity": 0.33858267716535434,
          "duration": 0.08532424999999932
        },
        {
          "name": "D#5",
          "midi": 75,
          "time": 118.25941049999955,
          "velocity": 0.3543307086614173,
          "duration": 0.08532424999999932
        },
        {
          "name": "C#5",
          "midi": 73,
          "time": 118.34473474999955,
          "velocity": 0.33858267716535434,
          "duration": 0.08532424999999932
        },
        {
          "name": "C5",
          "midi": 72,
          "time": 118.43005899999955,
          "velocity": 0.3464566929133858,
          "duration": 0.08532424999999932
        },
        {
          "name": "C#5",
          "midi": 73,
          "time": 118.51538324999954,
          "velocity": 0.36220472440944884,
          "duration": 0.08532424999999932
        },
        {
          "name": "E5",
          "midi": 76,
          "time": 118.60070749999954,
          "velocity": 0.3858267716535433,
          "duration": 0.08532424999999932
        },
        {
          "name": "G#5",
          "midi": 80,
          "time": 118.68603174999954,
          "velocity": 0.3700787401574803,
          "duration": 0.08532424999999932
        },
        {
          "name": "G#4",
          "midi": 68,
          "time": 118.85668024999954,
          "velocity": 0.3543307086614173,
          "duration": 0.08532424999999932
        },
        {
          "name": "A#4",
          "midi": 70,
          "time": 118.94200449999954,
          "velocity": 0.3858267716535433,
          "duration": 0.08532424999999932
        },
        {
          "name": "G#4",
          "midi": 68,
          "time": 119.02732874999954,
          "velocity": 0.3543307086614173,
          "duration": 0.08532424999999932
        },
        {
          "name": "G4",
          "midi": 67,
          "time": 119.11265299999954,
          "velocity": 0.36220472440944884,
          "duration": 0.08532424999999932
        },
        {
          "name": "G#4",
          "midi": 68,
          "time": 119.19797724999954,
          "velocity": 0.3779527559055118,
          "duration": 0.08532424999999932
        },
        {
          "name": "C#5",
          "midi": 73,
          "time": 119.28330149999954,
          "velocity": 0.3937007874015748,
          "duration": 0.08532424999999932
        },
        {
          "name": "E5",
          "midi": 76,
          "time": 119.36862574999954,
          "velocity": 0.4015748031496063,
          "duration": 0.08532424999999932
        },
        {
          "name": "D#5",
          "midi": 75,
          "time": 119.45394999999954,
          "velocity": 0.4251968503937008,
          "duration": 0.08532424999999932
        },
        {
          "name": "C#5",
          "midi": 73,
          "time": 119.53927424999954,
          "velocity": 0.4015748031496063,
          "duration": 0.08532424999999932
        },
        {
          "name": "D#5",
          "midi": 75,
          "time": 119.62459849999954,
          "velocity": 0.41732283464566927,
          "duration": 0.08532424999999932
        },
        {
          "name": "C#5",
          "midi": 73,
          "time": 119.70992274999954,
          "velocity": 0.4015748031496063,
          "duration": 0.08532424999999932
        },
        {
          "name": "C5",
          "midi": 72,
          "time": 119.79524699999953,
          "velocity": 0.4094488188976378,
          "duration": 0.08532424999999932
        },
        {
          "name": "C#5",
          "midi": 73,
          "time": 119.88057124999953,
          "velocity": 0.4251968503937008,
          "duration": 0.08532424999999932
        },
        {
          "name": "E5",
          "midi": 76,
          "time": 119.96589549999953,
          "velocity": 0.44881889763779526,
          "duration": 0.08532424999999932
        },
        {
          "name": "G#5",
          "midi": 80,
          "time": 120.05121974999953,
          "velocity": 0.4330708661417323,
          "duration": 0.08532424999999932
        },
        {
          "name": "D#5",
          "midi": 75,
          "time": 120.13654399999953,
          "velocity": 0.5039370078740157,
          "duration": 0.08532424999999932
        },
        {
          "name": "E5",
          "midi": 76,
          "time": 120.22186824999953,
          "velocity": 0.4566929133858268,
          "duration": 0.08532424999999932
        },
        {
          "name": "D#5",
          "midi": 75,
          "time": 120.30719249999953,
          "velocity": 0.48031496062992124,
          "duration": 0.08532424999999932
        },
        {
          "name": "D5",
          "midi": 74,
          "time": 120.39251674999953,
          "velocity": 0.3937007874015748,
          "duration": 0.08532424999999932
        },
        {
          "name": "D#5",
          "midi": 75,
          "time": 120.47784099999953,
          "velocity": 0.4409448818897638,
          "duration": 0.08532424999999932
        },
        {
          "name": "B5",
          "midi": 83,
          "time": 120.56316524999953,
          "velocity": 0.5354330708661418,
          "duration": 0.08532424999999932
        },
        {
          "name": "A#5",
          "midi": 82,
          "time": 120.64848949999953,
          "velocity": 0.4881889763779528,
          "duration": 0.08532424999999932
        },
        {
          "name": "G#5",
          "midi": 80,
          "time": 120.73381374999953,
          "velocity": 0.5118110236220472,
          "duration": 0.08532424999999932
        },
        {
          "name": "G5",
          "midi": 79,
          "time": 120.81913799999953,
          "velocity": 0.5354330708661418,
          "duration": 0.08532424999999932
        },
        {
          "name": "E6",
          "midi": 88,
          "time": 120.90446224999953,
          "velocity": 0.5669291338582677,
          "duration": 0.08532424999999932
        },
        {
          "name": "D#6",
          "midi": 87,
          "time": 120.98978649999952,
          "velocity": 0.5433070866141733,
          "duration": 0.08532424999999932
        },
        {
          "name": "C#6",
          "midi": 85,
          "time": 121.07511074999952,
          "velocity": 0.5433070866141733,
          "duration": 0.08532424999999932
        },
        {
          "name": "B5",
          "midi": 83,
          "time": 121.16043499999952,
          "velocity": 0.5826771653543307,
          "duration": 0.08532424999999932
        },
        {
          "name": "A#5",
          "midi": 82,
          "time": 121.24575924999952,
          "velocity": 0.5433070866141733,
          "duration": 0.08532424999999932
        },
        {
          "name": "G#5",
          "midi": 80,
          "time": 121.33108349999952,
          "velocity": 0.5433070866141733,
          "duration": 0.08532424999999932
        },
        {
          "name": "G5",
          "midi": 79,
          "time": 121.41640774999952,
          "velocity": 0.5433070866141733,
          "duration": 0.08532424999999932
        },
        {
          "name": "A#5",
          "midi": 82,
          "time": 121.50173199999952,
          "velocity": 0.5669291338582677,
          "duration": 0.08532424999999932
        },
        {
          "name": "G#5",
          "midi": 80,
          "time": 121.58705624999952,
          "velocity": 0.5511811023622047,
          "duration": 0.08532424999999932
        },
        {
          "name": "B5",
          "midi": 83,
          "time": 121.67238049999952,
          "velocity": 0.5039370078740157,
          "duration": 0.08532424999999932
        },
        {
          "name": "D5",
          "midi": 74,
          "time": 121.75770474999952,
          "velocity": 0.44881889763779526,
          "duration": 0.08532424999999932
        },
        {
          "name": "E5",
          "midi": 76,
          "time": 121.84302899999952,
          "velocity": 0.5118110236220472,
          "duration": 0.08532424999999932
        },
        {
          "name": "D#5",
          "midi": 75,
          "time": 121.92835324999952,
          "velocity": 0.44881889763779526,
          "duration": 0.08532424999999932
        },
        {
          "name": "G#5",
          "midi": 80,
          "time": 122.01367749999952,
          "velocity": 0.49606299212598426,
          "duration": 0.08532424999999932
        },
        {
          "name": "A#4",
          "midi": 70,
          "time": 122.09900174999952,
          "velocity": 0.44881889763779526,
          "duration": 0.08532424999999932
        },
        {
          "name": "C#5",
          "midi": 73,
          "time": 122.18432599999952,
          "velocity": 0.48031496062992124,
          "duration": 0.08532424999999932
        },
        {
          "name": "B4",
          "midi": 71,
          "time": 122.26965024999951,
          "velocity": 0.4645669291338583,
          "duration": 0.08532424999999932
        },
        {
          "name": "D#5",
          "midi": 75,
          "time": 122.35497449999951,
          "velocity": 0.4566929133858268,
          "duration": 0.08532424999999932
        },
        {
          "name": "G4",
          "midi": 67,
          "time": 122.44029874999951,
          "velocity": 0.4409448818897638,
          "duration": 0.08532424999999932
        },
        {
          "name": "A#4",
          "midi": 70,
          "time": 122.52562299999951,
          "velocity": 0.47244094488188976,
          "duration": 0.08532424999999932
        },
        {
          "name": "G#4",
          "midi": 68,
          "time": 122.61094724999951,
          "velocity": 0.4015748031496063,
          "duration": 0.08532424999999932
        },
        {
          "name": "G4",
          "midi": 67,
          "time": 122.69627149999951,
          "velocity": 0.4330708661417323,
          "duration": 0.08532424999999932
        },
        {
          "name": "G#4",
          "midi": 68,
          "time": 122.78159574999951,
          "velocity": 0.3937007874015748,
          "duration": 0.08532424999999932
        },
        {
          "name": "G#4",
          "midi": 68,
          "time": 122.86691999999951,
          "velocity": 0.5669291338582677,
          "duration": 0.08532424999999932
        },
        {
          "name": "G#5",
          "midi": 80,
          "time": 122.95224424999951,
          "velocity": 0.4566929133858268,
          "duration": 0.08532424999999932
        },
        {
          "name": "C5",
          "midi": 72,
          "time": 123.03756849999951,
          "velocity": 0.4645669291338583,
          "duration": 0.08532424999999932
        },
        {
          "name": "C#5",
          "midi": 73,
          "time": 123.12289274999951,
          "velocity": 0.4645669291338583,
          "duration": 0.08532424999999932
        },
        {
          "name": "F#4",
          "midi": 66,
          "time": 123.20821699999951,
          "velocity": 0.5590551181102362,
          "duration": 0.08532424999999932
        },
        {
          "name": "F#5",
          "midi": 78,
          "time": 123.2935412499995,
          "velocity": 0.47244094488188976,
          "duration": 0.08532424999999932
        },
        {
          "name": "C5",
          "midi": 72,
          "time": 123.3788654999995,
          "velocity": 0.47244094488188976,
          "duration": 0.08532424999999932
        },
        {
          "name": "C#5",
          "midi": 73,
          "time": 123.4641897499995,
          "velocity": 0.48031496062992124,
          "duration": 0.08532424999999932
        },
        {
          "name": "F4",
          "midi": 65,
          "time": 123.5495139999995,
          "velocity": 0.5905511811023622,
          "duration": 0.08532424999999932
        },
        {
          "name": "F5",
          "midi": 77,
          "time": 123.6348382499995,
          "velocity": 0.4881889763779528,
          "duration": 0.08532424999999932
        },
        {
          "name": "C5",
          "midi": 72,
          "time": 123.7201624999995,
          "velocity": 0.49606299212598426,
          "duration": 0.08532424999999932
        },
        {
          "name": "C#5",
          "midi": 73,
          "time": 123.8054867499995,
          "velocity": 0.49606299212598426,
          "duration": 0.08532424999999932
        },
        {
          "name": "F#4",
          "midi": 66,
          "time": 123.8908109999995,
          "velocity": 0.5826771653543307,
          "duration": 0.08532424999999932
        },
        {
          "name": "F#5",
          "midi": 78,
          "time": 123.9761352499995,
          "velocity": 0.5118110236220472,
          "duration": 0.08532424999999932
        },
        {
          "name": "C5",
          "midi": 72,
          "time": 124.0614594999995,
          "velocity": 0.5039370078740157,
          "duration": 0.08532424999999932
        },
        {
          "name": "C#5",
          "midi": 73,
          "time": 124.1467837499995,
          "velocity": 0.5039370078740157,
          "duration": 0.08532424999999932
        },
        {
          "name": "C#4",
          "midi": 61,
          "time": 124.2321079999995,
          "velocity": 0.6062992125984252,
          "duration": 0.08532424999999932
        },
        {
          "name": "C#5",
          "midi": 73,
          "time": 124.3174322499995,
          "velocity": 0.5118110236220472,
          "duration": 0.08532424999999932
        },
        {
          "name": "F#4",
          "midi": 66,
          "time": 124.4027564999995,
          "velocity": 0.5118110236220472,
          "duration": 0.08532424999999932
        },
        {
          "name": "A4",
          "midi": 69,
          "time": 124.4880807499995,
          "velocity": 0.5118110236220472,
          "duration": 0.08532424999999932
        },
        {
          "name": "D#4",
          "midi": 63,
          "time": 124.5734049999995,
          "velocity": 0.5905511811023622,
          "duration": 0.08532424999999932
        },
        {
          "name": "D#5",
          "midi": 75,
          "time": 124.6587292499995,
          "velocity": 0.5118110236220472,
          "duration": 0.08532424999999932
        },
        {
          "name": "F#4",
          "midi": 66,
          "time": 124.7440534999995,
          "velocity": 0.5118110236220472,
          "duration": 0.08532424999999932
        },
        {
          "name": "A4",
          "midi": 69,
          "time": 124.8293777499995,
          "velocity": 0.5118110236220472,
          "duration": 0.08532424999999932
        },
        {
          "name": "E4",
          "midi": 64,
          "time": 124.9147019999995,
          "velocity": 0.6220472440944882,
          "duration": 0.08532424999999932
        },
        {
          "name": "E5",
          "midi": 76,
          "time": 125.0000262499995,
          "velocity": 0.5196850393700787,
          "duration": 0.08532424999999932
        },
        {
          "name": "G#4",
          "midi": 68,
          "time": 125.08535049999949,
          "velocity": 0.5196850393700787,
          "duration": 0.08532424999999932
        },
        {
          "name": "B4",
          "midi": 71,
          "time": 125.17067474999949,
          "velocity": 0.5196850393700787,
          "duration": 0.08532424999999932
        },
        {
          "name": "G#4",
          "midi": 68,
          "time": 125.25599899999949,
          "velocity": 0.6062992125984252,
          "duration": 0.08532424999999932
        },
        {
          "name": "G#5",
          "midi": 80,
          "time": 125.34132324999949,
          "velocity": 0.5275590551181102,
          "duration": 0.08532424999999932
        },
        {
          "name": "B4",
          "midi": 71,
          "time": 125.42664749999949,
          "velocity": 0.5196850393700787,
          "duration": 0.08532424999999932
        },
        {
          "name": "E5",
          "midi": 76,
          "time": 125.51197174999949,
          "velocity": 0.5118110236220472,
          "duration": 0.08532424999999932
        },
        {
          "name": "G#4",
          "midi": 68,
          "time": 125.59729599999949,
          "velocity": 0.6377952755905512,
          "duration": 0.08532424999999932
        },
        {
          "name": "G#5",
          "midi": 80,
          "time": 125.68262024999949,
          "velocity": 0.5118110236220472,
          "duration": 0.08532424999999932
        },
        {
          "name": "C5",
          "midi": 72,
          "time": 125.76794449999949,
          "velocity": 0.5118110236220472,
          "duration": 0.08532424999999932
        },
        {
          "name": "C#5",
          "midi": 73,
          "time": 125.85326874999949,
          "velocity": 0.5118110236220472,
          "duration": 0.08532424999999932
        },
        {
          "name": "F#4",
          "midi": 66,
          "time": 125.93859299999949,
          "velocity": 0.6141732283464567,
          "duration": 0.08532424999999932
        },
        {
          "name": "F#5",
          "midi": 78,
          "time": 126.02391724999949,
          "velocity": 0.5118110236220472,
          "duration": 0.08532424999999932
        },
        {
          "name": "C5",
          "midi": 72,
          "time": 126.10924149999948,
          "velocity": 0.5118110236220472,
          "duration": 0.08532424999999932
        },
        {
          "name": "C#5",
          "midi": 73,
          "time": 126.19456574999948,
          "velocity": 0.5118110236220472,
          "duration": 0.08532424999999932
        },
        {
          "name": "F4",
          "midi": 65,
          "time": 126.27988999999948,
          "velocity": 0.6220472440944882,
          "duration": 0.08532424999999932
        },
        {
          "name": "F5",
          "midi": 77,
          "time": 126.36521424999948,
          "velocity": 0.5196850393700787,
          "duration": 0.08532424999999932
        },
        {
          "name": "C5",
          "midi": 72,
          "time": 126.45053849999948,
          "velocity": 0.5196850393700787,
          "duration": 0.08532424999999932
        },
        {
          "name": "C#5",
          "midi": 73,
          "time": 126.53586274999948,
          "velocity": 0.5196850393700787,
          "duration": 0.08532424999999932
        },
        {
          "name": "F#4",
          "midi": 66,
          "time": 126.62118699999948,
          "velocity": 0.6062992125984252,
          "duration": 0.08532424999999932
        },
        {
          "name": "F#5",
          "midi": 78,
          "time": 126.70651124999948,
          "velocity": 0.5275590551181102,
          "duration": 0.08532424999999932
        },
        {
          "name": "C5",
          "midi": 72,
          "time": 126.79183549999948,
          "velocity": 0.5196850393700787,
          "duration": 0.08532424999999932
        },
        {
          "name": "C#5",
          "midi": 73,
          "time": 126.87715974999948,
          "velocity": 0.5118110236220472,
          "duration": 0.08532424999999932
        },
        {
          "name": "F4",
          "midi": 65,
          "time": 126.96248399999948,
          "velocity": 0.6377952755905512,
          "duration": 0.08532424999999932
        },
        {
          "name": "F5",
          "midi": 77,
          "time": 127.04780824999948,
          "velocity": 0.5118110236220472,
          "duration": 0.08532424999999932
        },
        {
          "name": "B4",
          "midi": 71,
          "time": 127.13313249999948,
          "velocity": 0.5118110236220472,
          "duration": 0.08532424999999932
        },
        {
          "name": "D#5",
          "midi": 75,
          "time": 127.21845674999948,
          "velocity": 0.5118110236220472,
          "duration": 0.08532424999999932
        },
        {
          "name": "F#4",
          "midi": 66,
          "time": 127.30378099999947,
          "velocity": 0.6141732283464567,
          "duration": 0.08532424999999932
        },
        {
          "name": "F#5",
          "midi": 78,
          "time": 127.38910524999947,
          "velocity": 0.5118110236220472,
          "duration": 0.08532424999999932
        },
        {
          "name": "B4",
          "midi": 71,
          "time": 127.47442949999947,
          "velocity": 0.5118110236220472,
          "duration": 0.08532424999999932
        },
        {
          "name": "D#5",
          "midi": 75,
          "time": 127.55975374999947,
          "velocity": 0.5118110236220472,
          "duration": 0.08532424999999932
        },
        {
          "name": "A4",
          "midi": 69,
          "time": 127.64507799999947,
          "velocity": 0.6220472440944882,
          "duration": 0.08532424999999932
        },
        {
          "name": "A5",
          "midi": 81,
          "time": 127.73040224999947,
          "velocity": 0.5196850393700787,
          "duration": 0.08532424999999932
        },
        {
          "name": "B4",
          "midi": 71,
          "time": 127.81572649999947,
          "velocity": 0.5196850393700787,
          "duration": 0.08532424999999932
        },
        {
          "name": "E5",
          "midi": 76,
          "time": 127.90105074999947,
          "velocity": 0.5196850393700787,
          "duration": 0.08532424999999932
        },
        {
          "name": "G#4",
          "midi": 68,
          "time": 127.98637499999947,
          "velocity": 0.6062992125984252,
          "duration": 0.08532425000001354
        },
        {
          "name": "G#5",
          "midi": 80,
          "time": 128.07169924999948,
          "velocity": 0.5275590551181102,
          "duration": 0.08532425000001354
        },
        {
          "name": "B4",
          "midi": 71,
          "time": 128.1570234999995,
          "velocity": 0.5196850393700787,
          "duration": 0.08532425000001354
        },
        {
          "name": "E5",
          "midi": 76,
          "time": 128.2423477499995,
          "velocity": 0.5118110236220472,
          "duration": 0.08532425000001354
        },
        {
          "name": "G#4",
          "midi": 68,
          "time": 128.32767199999952,
          "velocity": 0.4094488188976378,
          "duration": 0.08532425000001354
        },
        {
          "name": "G#5",
          "midi": 80,
          "time": 128.41299624999954,
          "velocity": 0.44881889763779526,
          "duration": 0.08532425000001354
        },
        {
          "name": "C5",
          "midi": 72,
          "time": 128.49832049999955,
          "velocity": 0.3700787401574803,
          "duration": 0.08532425000001354
        },
        {
          "name": "C#5",
          "midi": 73,
          "time": 128.58364474999956,
          "velocity": 0.3700787401574803,
          "duration": 0.08532425000001354
        },
        {
          "name": "F#4",
          "midi": 66,
          "time": 128.66896899999958,
          "velocity": 0.3858267716535433,
          "duration": 0.08532425000001354
        },
        {
          "name": "F#5",
          "midi": 78,
          "time": 128.7542932499996,
          "velocity": 0.4251968503937008,
          "duration": 0.08532425000001354
        },
        {
          "name": "C5",
          "midi": 72,
          "time": 128.8396174999996,
          "velocity": 0.3779527559055118,
          "duration": 0.08532425000001354
        },
        {
          "name": "C#5",
          "midi": 73,
          "time": 128.92494174999962,
          "velocity": 0.3779527559055118,
          "duration": 0.08532425000001354
        },
        {
          "name": "F4",
          "midi": 65,
          "time": 129.01026599999963,
          "velocity": 0.4015748031496063,
          "duration": 0.08532425000001354
        },
        {
          "name": "F5",
          "midi": 77,
          "time": 129.09559024999965,
          "velocity": 0.4409448818897638,
          "duration": 0.08532425000001354
        },
        {
          "name": "C5",
          "midi": 72,
          "time": 129.18091449999966,
          "velocity": 0.3937007874015748,
          "duration": 0.08532425000001354
        },
        {
          "name": "C#5",
          "midi": 73,
          "time": 129.26623874999967,
          "velocity": 0.3937007874015748,
          "duration": 0.08532425000001354
        },
        {
          "name": "F#4",
          "midi": 66,
          "time": 129.3515629999997,
          "velocity": 0.41732283464566927,
          "duration": 0.08532425000001354
        },
        {
          "name": "F#5",
          "midi": 78,
          "time": 129.4368872499997,
          "velocity": 0.4566929133858268,
          "duration": 0.08532425000001354
        },
        {
          "name": "C5",
          "midi": 72,
          "time": 129.5222114999997,
          "velocity": 0.4015748031496063,
          "duration": 0.08532425000001354
        },
        {
          "name": "C#5",
          "midi": 73,
          "time": 129.60753574999973,
          "velocity": 0.4015748031496063,
          "duration": 0.08532425000001354
        },
        {
          "name": "C#4",
          "midi": 61,
          "time": 129.69285999999974,
          "velocity": 0.4330708661417323,
          "duration": 0.08532425000001354
        },
        {
          "name": "C#5",
          "midi": 73,
          "time": 129.77818424999975,
          "velocity": 0.47244094488188976,
          "duration": 0.08532425000001354
        },
        {
          "name": "F#4",
          "midi": 66,
          "time": 129.86350849999977,
          "velocity": 0.4094488188976378,
          "duration": 0.08532425000001354
        },
        {
          "name": "A4",
          "midi": 69,
          "time": 129.94883274999978,
          "velocity": 0.41732283464566927,
          "duration": 0.08532425000001354
        },
        {
          "name": "D#4",
          "midi": 63,
          "time": 130.0341569999998,
          "velocity": 0.4330708661417323,
          "duration": 0.08532425000001354
        },
        {
          "name": "D#5",
          "midi": 75,
          "time": 130.1194812499998,
          "velocity": 0.4881889763779528,
          "duration": 0.08532425000001354
        },
        {
          "name": "F#4",
          "midi": 66,
          "time": 130.20480549999982,
          "velocity": 0.4251968503937008,
          "duration": 0.08532425000001354
        },
        {
          "name": "A4",
          "midi": 69,
          "time": 130.29012974999983,
          "velocity": 0.4251968503937008,
          "duration": 0.08532425000001354
        },
        {
          "name": "E4",
          "midi": 64,
          "time": 130.37545399999985,
          "velocity": 0.44881889763779526,
          "duration": 0.08532425000001354
        },
        {
          "name": "E5",
          "midi": 76,
          "time": 130.46077824999986,
          "velocity": 0.5118110236220472,
          "duration": 0.08532425000001354
        },
        {
          "name": "G#4",
          "midi": 68,
          "time": 130.54610249999988,
          "velocity": 0.4409448818897638,
          "duration": 0.08532425000001354
        },
        {
          "name": "B4",
          "midi": 71,
          "time": 130.6314267499999,
          "velocity": 0.4409448818897638,
          "duration": 0.08532425000001354
        },
        {
          "name": "G#4",
          "midi": 68,
          "time": 130.7167509999999,
          "velocity": 0.47244094488188976,
          "duration": 0.08532425000001354
        },
        {
          "name": "G#5",
          "midi": 80,
          "time": 130.80207524999992,
          "velocity": 0.5354330708661418,
          "duration": 0.08532425000001354
        },
        {
          "name": "B4",
          "midi": 71,
          "time": 130.88739949999993,
          "velocity": 0.44881889763779526,
          "duration": 0.08532425000001354
        },
        {
          "name": "E5",
          "midi": 76,
          "time": 130.97272374999994,
          "velocity": 0.4566929133858268,
          "duration": 0.08532425000001354
        },
        {
          "name": "G#4",
          "midi": 68,
          "time": 131.05804799999996,
          "velocity": 0.4881889763779528,
          "duration": 0.08532425000001354
        },
        {
          "name": "G#5",
          "midi": 80,
          "time": 131.14337224999997,
          "velocity": 0.5354330708661418,
          "duration": 0.08532425000001354
        },
        {
          "name": "C5",
          "midi": 72,
          "time": 131.22869649999998,
          "velocity": 0.4645669291338583,
          "duration": 0.08532425000001354
        },
        {
          "name": "C#5",
          "midi": 73,
          "time": 131.31402075,
          "velocity": 0.4645669291338583,
          "duration": 0.08532425000001354
        },
        {
          "name": "F#4",
          "midi": 66,
          "time": 131.399345,
          "velocity": 0.4881889763779528,
          "duration": 0.08532425000001354
        },
        {
          "name": "F#5",
          "midi": 78,
          "time": 131.48466925000002,
          "velocity": 0.5511811023622047,
          "duration": 0.08532425000001354
        },
        {
          "name": "C5",
          "midi": 72,
          "time": 131.56999350000004,
          "velocity": 0.48031496062992124,
          "duration": 0.08532425000001354
        },
        {
          "name": "C#5",
          "midi": 73,
          "time": 131.65531775000005,
          "velocity": 0.48031496062992124,
          "duration": 0.08532425000001354
        },
        {
          "name": "D#5",
          "midi": 75,
          "time": 131.74064200000007,
          "velocity": 0.5039370078740157,
          "duration": 0.08532425000001354
        },
        {
          "name": "D#6",
          "midi": 87,
          "time": 131.82596625000008,
          "velocity": 0.5748031496062992,
          "duration": 0.08532425000001354
        },
        {
          "name": "F#5",
          "midi": 78,
          "time": 131.9112905000001,
          "velocity": 0.4881889763779528,
          "duration": 0.08532425000001354
        },
        {
          "name": "A5",
          "midi": 81,
          "time": 131.9966147500001,
          "velocity": 0.4881889763779528,
          "duration": 0.08532425000001354
        },
        {
          "name": "C#5",
          "midi": 73,
          "time": 132.08193900000012,
          "velocity": 0.5196850393700787,
          "duration": 0.08532425000001354
        },
        {
          "name": "C#6",
          "midi": 85,
          "time": 132.16726325000013,
          "velocity": 0.5826771653543307,
          "duration": 0.08532425000001354
        },
        {
          "name": "F#5",
          "midi": 78,
          "time": 132.25258750000015,
          "velocity": 0.4881889763779528,
          "duration": 0.08532425000001354
        },
        {
          "name": "A5",
          "midi": 81,
          "time": 132.33791175000016,
          "velocity": 0.4881889763779528,
          "duration": 0.08532425000001354
        },
        {
          "name": "C#5",
          "midi": 73,
          "time": 132.42323600000017,
          "velocity": 0.5039370078740157,
          "duration": 0.08532425000001354
        },
        {
          "name": "C#6",
          "midi": 85,
          "time": 132.5085602500002,
          "velocity": 0.5748031496062992,
          "duration": 0.08532425000001354
        },
        {
          "name": "D#5",
          "midi": 75,
          "time": 132.5938845000002,
          "velocity": 0.48031496062992124,
          "duration": 0.08532425000001354
        },
        {
          "name": "F#5",
          "midi": 78,
          "time": 132.6792087500002,
          "velocity": 0.48031496062992124,
          "duration": 0.08532425000001354
        },
        {
          "name": "C5",
          "midi": 72,
          "time": 132.76453300000023,
          "velocity": 0.5039370078740157,
          "duration": 0.08532425000001354
        },
        {
          "name": "C6",
          "midi": 84,
          "time": 132.84985725000024,
          "velocity": 0.5590551181102362,
          "duration": 0.08532425000001354
        },
        {
          "name": "D#5",
          "midi": 75,
          "time": 132.93518150000025,
          "velocity": 0.47244094488188976,
          "duration": 0.08532425000001354
        },
        {
          "name": "F#5",
          "midi": 78,
          "time": 133.02050575000027,
          "velocity": 0.4645669291338583,
          "duration": 0.08532425000001354
        },
        {
          "name": "C5",
          "midi": 72,
          "time": 133.10583000000028,
          "velocity": 0.47244094488188976,
          "duration": 0.08532425000001354
        },
        {
          "name": "C6",
          "midi": 84,
          "time": 133.1911542500003,
          "velocity": 0.5433070866141733,
          "duration": 0.08532425000001354
        },
        {
          "name": "D#5",
          "midi": 75,
          "time": 133.2764785000003,
          "velocity": 0.4566929133858268,
          "duration": 0.08532425000001354
        },
        {
          "name": "F#5",
          "midi": 78,
          "time": 133.36180275000032,
          "velocity": 0.4566929133858268,
          "duration": 0.08532425000001354
        },
        {
          "name": "C5",
          "midi": 72,
          "time": 133.44712700000034,
          "velocity": 0.48031496062992124,
          "duration": 0.08532425000001354
        },
        {
          "name": "C6",
          "midi": 84,
          "time": 133.53245125000035,
          "velocity": 0.5354330708661418,
          "duration": 0.08532425000001354
        },
        {
          "name": "D#5",
          "midi": 75,
          "time": 133.61777550000036,
          "velocity": 0.44881889763779526,
          "duration": 0.08532425000001354
        },
        {
          "name": "F#5",
          "midi": 78,
          "time": 133.70309975000038,
          "velocity": 0.4409448818897638,
          "duration": 0.08532425000001354
        },
        {
          "name": "C5",
          "midi": 72,
          "time": 133.7884240000004,
          "velocity": 0.44881889763779526,
          "duration": 0.08532425000001354
        },
        {
          "name": "C6",
          "midi": 84,
          "time": 133.8737482500004,
          "velocity": 0.5118110236220472,
          "duration": 0.08532425000001354
        },
        {
          "name": "D#5",
          "midi": 75,
          "time": 133.95907250000042,
          "velocity": 0.4330708661417323,
          "duration": 0.08532425000001354
        },
        {
          "name": "F#5",
          "midi": 78,
          "time": 134.04439675000043,
          "velocity": 0.4330708661417323,
          "duration": 0.08532425000001354
        },
        {
          "name": "B4",
          "midi": 71,
          "time": 134.12972100000044,
          "velocity": 0.4566929133858268,
          "duration": 0.08532425000001354
        },
        {
          "name": "B5",
          "midi": 83,
          "time": 134.21504525000046,
          "velocity": 0.5039370078740157,
          "duration": 0.08532425000001354
        },
        {
          "name": "D#5",
          "midi": 75,
          "time": 134.30036950000047,
          "velocity": 0.41732283464566927,
          "duration": 0.08532425000001354
        },
        {
          "name": "F#5",
          "midi": 78,
          "time": 134.38569375000048,
          "velocity": 0.41732283464566927,
          "duration": 0.08532425000001354
        },
        {
          "name": "B4",
          "midi": 71,
          "time": 134.4710180000005,
          "velocity": 0.4251968503937008,
          "duration": 0.08532425000001354
        },
        {
          "name": "B5",
          "midi": 83,
          "time": 134.5563422500005,
          "velocity": 0.4881889763779528,
          "duration": 0.08532425000001354
        },
        {
          "name": "D#5",
          "midi": 75,
          "time": 134.64166650000053,
          "velocity": 0.4094488188976378,
          "duration": 0.08532425000001354
        },
        {
          "name": "F#5",
          "midi": 78,
          "time": 134.72699075000054,
          "velocity": 0.4094488188976378,
          "duration": 0.08532425000001354
        },
        {
          "name": "A#4",
          "midi": 70,
          "time": 134.81231500000055,
          "velocity": 0.4251968503937008,
          "duration": 0.08532425000001354
        },
        {
          "name": "A#5",
          "midi": 82,
          "time": 134.89763925000057,
          "velocity": 0.47244094488188976,
          "duration": 0.08532425000001354
        },
        {
          "name": "D#5",
          "midi": 75,
          "time": 134.98296350000058,
          "velocity": 0.3937007874015748,
          "duration": 0.08532425000001354
        },
        {
          "name": "F#5",
          "midi": 78,
          "time": 135.0682877500006,
          "velocity": 0.3937007874015748,
          "duration": 0.08532425000001354
        },
        {
          "name": "A#4",
          "midi": 70,
          "time": 135.1536120000006,
          "velocity": 0.4330708661417323,
          "duration": 0.08532425000001354
        },
        {
          "name": "A#5",
          "midi": 82,
          "time": 135.24320246250062,
          "velocity": 0.3858267716535433,
          "duration": 0.08532424999998511
        },
        {
          "name": "D#5",
          "midi": 75,
          "time": 135.3242605000006,
          "velocity": 0.3779527559055118,
          "duration": 0.08532424999998511
        },
        {
          "name": "F#5",
          "midi": 78,
          "time": 135.4095847500006,
          "velocity": 0.3779527559055118,
          "duration": 0.08532425000001354
        },
        {
          "name": "A4",
          "midi": 69,
          "time": 135.4949090000006,
          "velocity": 0.41732283464566927,
          "duration": 0.08532425000001354
        },
        {
          "name": "A5",
          "midi": 81,
          "time": 135.58449946250062,
          "velocity": 0.3779527559055118,
          "duration": 0.08532424999998511
        },
        {
          "name": "D#5",
          "midi": 75,
          "time": 135.6655575000006,
          "velocity": 0.3700787401574803,
          "duration": 0.08532424999998511
        },
        {
          "name": "F#5",
          "midi": 78,
          "time": 135.7508817500006,
          "velocity": 0.3700787401574803,
          "duration": 0.08532425000001354
        },
        {
          "name": "A4",
          "midi": 69,
          "time": 135.8362060000006,
          "velocity": 0.4094488188976378,
          "duration": 0.08532425000001354
        },
        {
          "name": "A5",
          "midi": 81,
          "time": 135.92153025000061,
          "velocity": 0.3858267716535433,
          "duration": 0.08532425000001354
        },
        {
          "name": "D#5",
          "midi": 75,
          "time": 136.00685450000063,
          "velocity": 0.3543307086614173,
          "duration": 0.08532425000001354
        },
        {
          "name": "F#5",
          "midi": 78,
          "time": 136.09217875000064,
          "velocity": 0.3543307086614173,
          "duration": 0.08532425000001354
        },
        {
          "name": "A4",
          "midi": 69,
          "time": 136.17750300000066,
          "velocity": 0.4015748031496063,
          "duration": 0.08532425000001354
        },
        {
          "name": "A5",
          "midi": 81,
          "time": 136.26282725000067,
          "velocity": 0.3700787401574803,
          "duration": 0.08532425000001354
        },
        {
          "name": "D#5",
          "midi": 75,
          "time": 136.34815150000068,
          "velocity": 0.3464566929133858,
          "duration": 0.08532425000001354
        },
        {
          "name": "F#5",
          "midi": 78,
          "time": 136.4334757500007,
          "velocity": 0.3464566929133858,
          "duration": 0.08532425000001354
        },
        {
          "name": "C5",
          "midi": 72,
          "time": 136.5188000000007,
          "velocity": 0.4094488188976378,
          "duration": 0.08532425000001354
        },
        {
          "name": "C6",
          "midi": 84,
          "time": 136.60839046250072,
          "velocity": 0.3700787401574803,
          "duration": 0.08532424999998511
        },
        {
          "name": "D#5",
          "midi": 75,
          "time": 136.6894485000007,
          "velocity": 0.3700787401574803,
          "duration": 0.08532424999998511
        },
        {
          "name": "F#5",
          "midi": 78,
          "time": 136.7747727500007,
          "velocity": 0.3700787401574803,
          "duration": 0.08532425000001354
        },
        {
          "name": "B4",
          "midi": 71,
          "time": 136.8600970000007,
          "velocity": 0.4015748031496063,
          "duration": 0.08532425000001354
        },
        {
          "name": "B5",
          "midi": 83,
          "time": 136.94542125000072,
          "velocity": 0.36220472440944884,
          "duration": 0.08532425000001354
        },
        {
          "name": "D#5",
          "midi": 75,
          "time": 137.03074550000073,
          "velocity": 0.36220472440944884,
          "duration": 0.08532425000001354
        },
        {
          "name": "F#5",
          "midi": 78,
          "time": 137.11606975000075,
          "velocity": 0.36220472440944884,
          "duration": 0.08532425000001354
        },
        {
          "name": "B4",
          "midi": 71,
          "time": 137.20139400000076,
          "velocity": 0.4015748031496063,
          "duration": 0.08532425000001354
        },
        {
          "name": "B5",
          "midi": 83,
          "time": 137.28671825000077,
          "velocity": 0.3779527559055118,
          "duration": 0.08532425000001354
        },
        {
          "name": "D#5",
          "midi": 75,
          "time": 137.3720425000008,
          "velocity": 0.3543307086614173,
          "duration": 0.08532425000001354
        },
        {
          "name": "F#5",
          "midi": 78,
          "time": 137.4573667500008,
          "velocity": 0.3543307086614173,
          "duration": 0.08532425000001354
        },
        {
          "name": "A#4",
          "midi": 70,
          "time": 137.54269100000081,
          "velocity": 0.4015748031496063,
          "duration": 0.08532425000001354
        },
        {
          "name": "A#5",
          "midi": 82,
          "time": 137.62801525000083,
          "velocity": 0.3700787401574803,
          "duration": 0.08532425000001354
        },
        {
          "name": "D#5",
          "midi": 75,
          "time": 137.71333950000084,
          "velocity": 0.3464566929133858,
          "duration": 0.08532425000001354
        },
        {
          "name": "F#5",
          "midi": 78,
          "time": 137.79866375000086,
          "velocity": 0.3464566929133858,
          "duration": 0.08532425000001354
        },
        {
          "name": "A#4",
          "midi": 70,
          "time": 137.88398800000087,
          "velocity": 0.4094488188976378,
          "duration": 0.08532425000001354
        },
        {
          "name": "A#5",
          "midi": 82,
          "time": 137.96931225000088,
          "velocity": 0.36220472440944884,
          "duration": 0.08532425000001354
        },
        {
          "name": "D#5",
          "midi": 75,
          "time": 138.0546365000009,
          "velocity": 0.36220472440944884,
          "duration": 0.08532425000001354
        },
        {
          "name": "F#5",
          "midi": 78,
          "time": 138.1399607500009,
          "velocity": 0.3543307086614173,
          "duration": 0.08532425000001354
        },
        {
          "name": "A4",
          "midi": 69,
          "time": 138.22528500000092,
          "velocity": 0.3779527559055118,
          "duration": 0.08532425000001354
        },
        {
          "name": "A5",
          "midi": 81,
          "time": 138.31060925000094,
          "velocity": 0.33858267716535434,
          "duration": 0.08532425000001354
        },
        {
          "name": "D#5",
          "midi": 75,
          "time": 138.39593350000095,
          "velocity": 0.33070866141732286,
          "duration": 0.08532425000001354
        },
        {
          "name": "F#5",
          "midi": 78,
          "time": 138.48125775000096,
          "velocity": 0.33070866141732286,
          "duration": 0.08532425000001354
        },
        {
          "name": "A4",
          "midi": 69,
          "time": 138.56658200000098,
          "velocity": 0.3543307086614173,
          "duration": 0.08532425000001354
        },
        {
          "name": "A5",
          "midi": 81,
          "time": 138.651906250001,
          "velocity": 0.33070866141732286,
          "duration": 0.08532425000001354
        },
        {
          "name": "D#5",
          "midi": 75,
          "time": 138.737230500001,
          "velocity": 0.30708661417322836,
          "duration": 0.08532425000001354
        },
        {
          "name": "F#5",
          "midi": 78,
          "time": 138.82255475000102,
          "velocity": 0.30708661417322836,
          "duration": 0.08532425000001354
        },
        {
          "name": "G#4",
          "midi": 68,
          "time": 138.90787900000103,
          "velocity": 0.33858267716535434,
          "duration": 0.08532425000001354
        },
        {
          "name": "G#5",
          "midi": 80,
          "time": 138.99320325000105,
          "velocity": 0.30708661417322836,
          "duration": 0.08532425000001354
        },
        {
          "name": "D#5",
          "midi": 75,
          "time": 139.07852750000106,
          "velocity": 0.28346456692913385,
          "duration": 0.08532425000001354
        },
        {
          "name": "F#5",
          "midi": 78,
          "time": 139.16385175000107,
          "velocity": 0.28346456692913385,
          "duration": 0.08532425000001354
        },
        {
          "name": "G#4",
          "midi": 68,
          "time": 139.3345002500011,
          "velocity": 0.29133858267716534,
          "duration": 0.08532425000001354
        },
        {
          "name": "A4",
          "midi": 69,
          "time": 139.4198245000011,
          "velocity": 0.3228346456692913,
          "duration": 0.08532425000001354
        },
        {
          "name": "G#4",
          "midi": 68,
          "time": 139.50514875000113,
          "velocity": 0.2992125984251969,
          "duration": 0.08532425000001354
        },
        {
          "name": "G4",
          "midi": 67,
          "time": 139.59047300000114,
          "velocity": 0.30708661417322836,
          "duration": 0.08532425000001354
        },
        {
          "name": "G#4",
          "midi": 68,
          "time": 139.67579725000115,
          "velocity": 0.31496062992125984,
          "duration": 0.08532425000001354
        },
        {
          "name": "C#5",
          "midi": 73,
          "time": 139.76112150000117,
          "velocity": 0.33070866141732286,
          "duration": 0.08532425000001354
        },
        {
          "name": "E5",
          "midi": 76,
          "time": 139.84644575000118,
          "velocity": 0.33858267716535434,
          "duration": 0.08532425000001354
        },
        {
          "name": "D#5",
          "midi": 75,
          "time": 139.9317700000012,
          "velocity": 0.3543307086614173,
          "duration": 0.08532425000001354
        },
        {
          "name": "C#5",
          "midi": 73,
          "time": 140.0170942500012,
          "velocity": 0.33858267716535434,
          "duration": 0.08532425000001354
        },
        {
          "name": "D#5",
          "midi": 75,
          "time": 140.10241850000122,
          "velocity": 0.3543307086614173,
          "duration": 0.08532425000001354
        },
        {
          "name": "C#5",
          "midi": 73,
          "time": 140.18774275000123,
          "velocity": 0.33858267716535434,
          "duration": 0.08532425000001354
        },
        {
          "name": "C5",
          "midi": 72,
          "time": 140.27306700000125,
          "velocity": 0.3464566929133858,
          "duration": 0.08532425000001354
        },
        {
          "name": "C#5",
          "midi": 73,
          "time": 140.35839125000126,
          "velocity": 0.36220472440944884,
          "duration": 0.08532425000001354
        },
        {
          "name": "E5",
          "midi": 76,
          "time": 140.44371550000128,
          "velocity": 0.3858267716535433,
          "duration": 0.08532425000001354
        },
        {
          "name": "G#5",
          "midi": 80,
          "time": 140.5290397500013,
          "velocity": 0.3700787401574803,
          "duration": 0.08532425000001354
        },
        {
          "name": "G#4",
          "midi": 68,
          "time": 140.69968825000132,
          "velocity": 0.3543307086614173,
          "duration": 0.08532425000001354
        },
        {
          "name": "A4",
          "midi": 69,
          "time": 140.78501250000133,
          "velocity": 0.3858267716535433,
          "duration": 0.08532425000001354
        },
        {
          "name": "G#4",
          "midi": 68,
          "time": 140.87033675000134,
          "velocity": 0.3543307086614173,
          "duration": 0.08532425000001354
        },
        {
          "name": "G4",
          "midi": 67,
          "time": 140.95566100000136,
          "velocity": 0.36220472440944884,
          "duration": 0.08532425000001354
        },
        {
          "name": "G#4",
          "midi": 68,
          "time": 141.04098525000137,
          "velocity": 0.3779527559055118,
          "duration": 0.08532425000001354
        },
        {
          "name": "C#5",
          "midi": 73,
          "time": 141.12630950000138,
          "velocity": 0.3937007874015748,
          "duration": 0.08532425000001354
        },
        {
          "name": "E5",
          "midi": 76,
          "time": 141.2116337500014,
          "velocity": 0.4015748031496063,
          "duration": 0.08532425000001354
        },
        {
          "name": "D#5",
          "midi": 75,
          "time": 141.2969580000014,
          "velocity": 0.4251968503937008,
          "duration": 0.08532425000001354
        },
        {
          "name": "C#5",
          "midi": 73,
          "time": 141.38228225000142,
          "velocity": 0.4015748031496063,
          "duration": 0.08532425000001354
        },
        {
          "name": "D#5",
          "midi": 75,
          "time": 141.46760650000144,
          "velocity": 0.41732283464566927,
          "duration": 0.08532425000001354
        },
        {
          "name": "C#5",
          "midi": 73,
          "time": 141.55293075000145,
          "velocity": 0.4015748031496063,
          "duration": 0.08532425000001354
        },
        {
          "name": "C5",
          "midi": 72,
          "time": 141.63825500000146,
          "velocity": 0.4094488188976378,
          "duration": 0.08532425000001354
        },
        {
          "name": "C#5",
          "midi": 73,
          "time": 141.72357925000148,
          "velocity": 0.4251968503937008,
          "duration": 0.08532425000001354
        },
        {
          "name": "E5",
          "midi": 76,
          "time": 141.8089035000015,
          "velocity": 0.44881889763779526,
          "duration": 0.08532425000001354
        },
        {
          "name": "G#5",
          "midi": 80,
          "time": 141.8942277500015,
          "velocity": 0.4330708661417323,
          "duration": 0.08532425000001354
        },
        {
          "name": "A4",
          "midi": 69,
          "time": 142.06487625000153,
          "velocity": 0.4409448818897638,
          "duration": 0.08532425000001354
        },
        {
          "name": "C#5",
          "midi": 73,
          "time": 142.15020050000155,
          "velocity": 0.4645669291338583,
          "duration": 0.08532425000001354
        },
        {
          "name": "D#5",
          "midi": 75,
          "time": 142.23552475000156,
          "velocity": 0.4881889763779528,
          "duration": 0.08532425000001354
        },
        {
          "name": "F#5",
          "midi": 78,
          "time": 142.32084900000157,
          "velocity": 0.49606299212598426,
          "duration": 0.08532425000001354
        },
        {
          "name": "A5",
          "midi": 81,
          "time": 142.4061732500016,
          "velocity": 0.5196850393700787,
          "duration": 0.08532425000001354
        },
        {
          "name": "C#6",
          "midi": 85,
          "time": 142.4914975000016,
          "velocity": 0.5433070866141733,
          "duration": 0.08532425000001354
        },
        {
          "name": "D#6",
          "midi": 87,
          "time": 142.5768217500016,
          "velocity": 0.5669291338582677,
          "duration": 0.08532425000001354
        },
        {
          "name": "B6",
          "midi": 95,
          "time": 142.66214600000163,
          "velocity": 0.5905511811023622,
          "duration": 0.08532425000001354
        },
        {
          "name": "A6",
          "midi": 93,
          "time": 142.74747025000164,
          "velocity": 0.5748031496062992,
          "duration": 0.08532425000001354
        },
        {
          "name": "G#6",
          "midi": 92,
          "time": 142.83279450000165,
          "velocity": 0.5669291338582677,
          "duration": 0.08532425000001354
        },
        {
          "name": "F#6",
          "midi": 90,
          "time": 142.91811875000167,
          "velocity": 0.5590551181102362,
          "duration": 0.08532425000001354
        },
        {
          "name": "E6",
          "midi": 88,
          "time": 143.00344300000168,
          "velocity": 0.5590551181102362,
          "duration": 0.08532425000001354
        },
        {
          "name": "D#6",
          "midi": 87,
          "time": 143.0887672500017,
          "velocity": 0.5511811023622047,
          "duration": 0.08532425000001354
        },
        {
          "name": "F#6",
          "midi": 90,
          "time": 143.1740915000017,
          "velocity": 0.5354330708661418,
          "duration": 0.08532425000001354
        },
        {
          "name": "C#6",
          "midi": 85,
          "time": 143.25941575000172,
          "velocity": 0.5275590551181102,
          "duration": 0.08532425000001354
        },
        {
          "name": "C6",
          "midi": 84,
          "time": 143.34474000000174,
          "velocity": 0.5354330708661418,
          "duration": 0.08532425000001354
        },
        {
          "name": "D#6",
          "midi": 87,
          "time": 143.43006425000175,
          "velocity": 0.49606299212598426,
          "duration": 0.08532425000001354
        },
        {
          "name": "A5",
          "midi": 81,
          "time": 143.51538850000176,
          "velocity": 0.49606299212598426,
          "duration": 0.08532425000001354
        },
        {
          "name": "G#5",
          "midi": 80,
          "time": 143.60071275000178,
          "velocity": 0.49606299212598426,
          "duration": 0.08532425000001354
        },
        {
          "name": "F#5",
          "midi": 78,
          "time": 143.6860370000018,
          "velocity": 0.47244094488188976,
          "duration": 0.08532425000001354
        },
        {
          "name": "A5",
          "midi": 81,
          "time": 143.7713612500018,
          "velocity": 0.4566929133858268,
          "duration": 0.08532425000001354
        },
        {
          "name": "E5",
          "midi": 76,
          "time": 143.85668550000182,
          "velocity": 0.4251968503937008,
          "duration": 0.08532425000001354
        },
        {
          "name": "D#5",
          "midi": 75,
          "time": 143.94200975000183,
          "velocity": 0.4251968503937008,
          "duration": 0.08532425000001354
        },
        {
          "name": "F#5",
          "midi": 78,
          "time": 144.02733400000184,
          "velocity": 0.41732283464566927,
          "duration": 0.08532425000001354
        },
        {
          "name": "C#5",
          "midi": 73,
          "time": 144.11265825000186,
          "velocity": 0.3779527559055118,
          "duration": 0.08532425000001354
        },
        {
          "name": "C5",
          "midi": 72,
          "time": 144.19798250000187,
          "velocity": 0.3779527559055118,
          "duration": 0.08532425000001354
        },
        {
          "name": "D#5",
          "midi": 75,
          "time": 144.28330675000188,
          "velocity": 0.3700787401574803,
          "duration": 0.08532425000001354
        },
        {
          "name": "A4",
          "midi": 69,
          "time": 144.3686310000019,
          "velocity": 0.3543307086614173,
          "duration": 0.08532425000001354
        },
        {
          "name": "G#4",
          "midi": 68,
          "time": 144.4539552500019,
          "velocity": 0.33070866141732286,
          "duration": 0.08532425000001354
        },
        {
          "name": "B4",
          "midi": 71,
          "time": 144.53927950000192,
          "velocity": 0.33070866141732286,
          "duration": 0.08532425000001354
        },
        {
          "name": "A4",
          "midi": 69,
          "time": 144.62460375000194,
          "velocity": 0.3228346456692913,
          "duration": 0.17064849999999865
        },
        {
          "name": "G#4",
          "midi": 68,
          "time": 144.79525225000194,
          "velocity": 0.29133858267716534,
          "duration": 0.08532425000001354
        },
        {
          "name": "A4",
          "midi": 69,
          "time": 144.88057650000195,
          "velocity": 0.3228346456692913,
          "duration": 0.08532425000001354
        },
        {
          "name": "G#4",
          "midi": 68,
          "time": 144.96590075000196,
          "velocity": 0.2992125984251969,
          "duration": 0.08532425000001354
        },
        {
          "name": "G4",
          "midi": 67,
          "time": 145.05122500000198,
          "velocity": 0.30708661417322836,
          "duration": 0.08532425000001354
        },
        {
          "name": "G#4",
          "midi": 68,
          "time": 145.136549250002,
          "velocity": 0.31496062992125984,
          "duration": 0.08532425000001354
        },
        {
          "name": "C#5",
          "midi": 73,
          "time": 145.221873500002,
          "velocity": 0.33070866141732286,
          "duration": 0.08532425000001354
        },
        {
          "name": "E5",
          "midi": 76,
          "time": 145.30719775000202,
          "velocity": 0.33858267716535434,
          "duration": 0.08532425000001354
        },
        {
          "name": "D#5",
          "midi": 75,
          "time": 145.39252200000203,
          "velocity": 0.3543307086614173,
          "duration": 0.08532425000001354
        },
        {
          "name": "C#5",
          "midi": 73,
          "time": 145.47784625000205,
          "velocity": 0.33858267716535434,
          "duration": 0.08532425000001354
        },
        {
          "name": "D#5",
          "midi": 75,
          "time": 145.56317050000206,
          "velocity": 0.3543307086614173,
          "duration": 0.08532425000001354
        },
        {
          "name": "C#5",
          "midi": 73,
          "time": 145.64849475000207,
          "velocity": 0.33858267716535434,
          "duration": 0.08532425000001354
        },
        {
          "name": "C5",
          "midi": 72,
          "time": 145.7338190000021,
          "velocity": 0.3464566929133858,
          "duration": 0.08532425000001354
        },
        {
          "name": "C#5",
          "midi": 73,
          "time": 145.8191432500021,
          "velocity": 0.36220472440944884,
          "duration": 0.08532425000001354
        },
        {
          "name": "E5",
          "midi": 76,
          "time": 145.9044675000021,
          "velocity": 0.3937007874015748,
          "duration": 0.08532425000001354
        },
        {
          "name": "G#5",
          "midi": 80,
          "time": 145.98979175000213,
          "velocity": 0.3779527559055118,
          "duration": 0.08532425000001354
        },
        {
          "name": "E5",
          "midi": 76,
          "time": 146.07511600000214,
          "velocity": 0.36220472440944884,
          "duration": 0.08532425000001354
        },
        {
          "name": "D#5",
          "midi": 75,
          "time": 146.16044025000215,
          "velocity": 0.33858267716535434,
          "duration": 0.08532425000001354
        },
        {
          "name": "E5",
          "midi": 76,
          "time": 146.24576450000217,
          "velocity": 0.3700787401574803,
          "duration": 0.08532425000001354
        },
        {
          "name": "D#5",
          "midi": 75,
          "time": 146.33108875000218,
          "velocity": 0.33858267716535434,
          "duration": 0.08532425000001354
        },
        {
          "name": "D5",
          "midi": 74,
          "time": 146.4164130000022,
          "velocity": 0.3543307086614173,
          "duration": 0.08532425000001354
        },
        {
          "name": "D#5",
          "midi": 75,
          "time": 146.5017372500022,
          "velocity": 0.36220472440944884,
          "duration": 0.08532425000001354
        },
        {
          "name": "F#5",
          "midi": 78,
          "time": 146.58706150000222,
          "velocity": 0.3858267716535433,
          "duration": 0.08532425000001354
        },
        {
          "name": "A5",
          "midi": 81,
          "time": 146.67238575000223,
          "velocity": 0.3937007874015748,
          "duration": 0.08532425000001354
        },
        {
          "name": "F#5",
          "midi": 78,
          "time": 146.75771000000225,
          "velocity": 0.41732283464566927,
          "duration": 0.08532425000001354
        },
        {
          "name": "F5",
          "midi": 77,
          "time": 146.84303425000226,
          "velocity": 0.4015748031496063,
          "duration": 0.08532425000001354
        },
        {
          "name": "F#5",
          "midi": 78,
          "time": 146.92835850000228,
          "velocity": 0.41732283464566927,
          "duration": 0.08532425000001354
        },
        {
          "name": "F5",
          "midi": 77,
          "time": 147.0136827500023,
          "velocity": 0.4015748031496063,
          "duration": 0.08532425000001354
        },
        {
          "name": "E5",
          "midi": 76,
          "time": 147.0990070000023,
          "velocity": 0.4094488188976378,
          "duration": 0.08532425000001354
        },
        {
          "name": "F5",
          "midi": 77,
          "time": 147.18433125000232,
          "velocity": 0.4251968503937008,
          "duration": 0.08532425000001354
        },
        {
          "name": "G#5",
          "midi": 80,
          "time": 147.26965550000233,
          "velocity": 0.44881889763779526,
          "duration": 0.08532425000001354
        },
        {
          "name": "C#6",
          "midi": 85,
          "time": 147.35497975000234,
          "velocity": 0.4409448818897638,
          "duration": 0.08532425000001354
        },
        {
          "name": "C#5",
          "midi": 73,
          "time": 147.52562825000237,
          "velocity": 0.3937007874015748,
          "duration": 0.08532425000001354
        },
        {
          "name": "D5",
          "midi": 74,
          "time": 147.61095250000238,
          "velocity": 0.4330708661417323,
          "duration": 0.08532425000001354
        },
        {
          "name": "C#5",
          "midi": 73,
          "time": 147.6962767500024,
          "velocity": 0.4015748031496063,
          "duration": 0.08532425000001354
        },
        {
          "name": "C5",
          "midi": 72,
          "time": 147.7816010000024,
          "velocity": 0.4094488188976378,
          "duration": 0.08532425000001354
        },
        {
          "name": "C#5",
          "midi": 73,
          "time": 147.86692525000242,
          "velocity": 0.41732283464566927,
          "duration": 0.08532425000001354
        },
        {
          "name": "F#5",
          "midi": 78,
          "time": 147.95224950000244,
          "velocity": 0.4409448818897638,
          "duration": 0.08532425000001354
        },
        {
          "name": "A5",
          "midi": 81,
          "time": 148.03757375000245,
          "velocity": 0.44881889763779526,
          "duration": 0.08532425000001354
        },
        {
          "name": "F#5",
          "midi": 78,
          "time": 148.12289800000246,
          "velocity": 0.4645669291338583,
          "duration": 0.08532425000001354
        },
        {
          "name": "F5",
          "midi": 77,
          "time": 148.20822225000248,
          "velocity": 0.4409448818897638,
          "duration": 0.08532425000001354
        },
        {
          "name": "F#5",
          "midi": 78,
          "time": 148.2935465000025,
          "velocity": 0.4645669291338583,
          "duration": 0.08532425000001354
        },
        {
          "name": "F5",
          "midi": 77,
          "time": 148.3788707500025,
          "velocity": 0.44881889763779526,
          "duration": 0.08532425000001354
        },
        {
          "name": "E5",
          "midi": 76,
          "time": 148.46419500000252,
          "velocity": 0.44881889763779526,
          "duration": 0.08532425000001354
        },
        {
          "name": "F5",
          "midi": 77,
          "time": 148.54951925000253,
          "velocity": 0.4645669291338583,
          "duration": 0.08532425000001354
        },
        {
          "name": "G#5",
          "midi": 80,
          "time": 148.63484350000255,
          "velocity": 0.49606299212598426,
          "duration": 0.08532425000001354
        },
        {
          "name": "C#6",
          "midi": 85,
          "time": 148.72016775000256,
          "velocity": 0.4645669291338583,
          "duration": 0.08532425000001354
        },
        {
          "name": "G#5",
          "midi": 80,
          "time": 148.80549200000257,
          "velocity": 0.4566929133858268,
          "duration": 0.08532425000001354
        },
        {
          "name": "F#5",
          "midi": 78,
          "time": 148.8908162500026,
          "velocity": 0.41732283464566927,
          "duration": 0.08532425000001354
        },
        {
          "name": "G#5",
          "midi": 80,
          "time": 148.9761405000026,
          "velocity": 0.4566929133858268,
          "duration": 0.08532425000001354
        },
        {
          "name": "F#5",
          "midi": 78,
          "time": 149.0614647500026,
          "velocity": 0.4251968503937008,
          "duration": 0.08532425000001354
        },
        {
          "name": "F5",
          "midi": 77,
          "time": 149.14678900000263,
          "velocity": 0.4330708661417323,
          "duration": 0.08532425000001354
        },
        {
          "name": "F#5",
          "midi": 78,
          "time": 149.23211325000264,
          "velocity": 0.4409448818897638,
          "duration": 0.08532425000001354
        },
        {
          "name": "A5",
          "midi": 81,
          "time": 149.31743750000265,
          "velocity": 0.4645669291338583,
          "duration": 0.08532425000001354
        },
        {
          "name": "C#6",
          "midi": 85,
          "time": 149.40276175000267,
          "velocity": 0.47244094488188976,
          "duration": 0.08532425000001354
        },
        {
          "name": "A5",
          "midi": 81,
          "time": 149.48808600000268,
          "velocity": 0.49606299212598426,
          "duration": 0.08532425000001354
        },
        {
          "name": "G#5",
          "midi": 80,
          "time": 149.5734102500027,
          "velocity": 0.4645669291338583,
          "duration": 0.08532425000001354
        },
        {
          "name": "A5",
          "midi": 81,
          "time": 149.6587345000027,
          "velocity": 0.4881889763779528,
          "duration": 0.08532425000001354
        },
        {
          "name": "G#5",
          "midi": 80,
          "time": 149.74405875000272,
          "velocity": 0.47244094488188976,
          "duration": 0.08532425000001354
        },
        {
          "name": "G5",
          "midi": 79,
          "time": 149.82938300000274,
          "velocity": 0.47244094488188976,
          "duration": 0.08532425000001354
        },
        {
          "name": "G#5",
          "midi": 80,
          "time": 149.91470725000275,
          "velocity": 0.4881889763779528,
          "duration": 0.08532425000001354
        },
        {
          "name": "C6",
          "midi": 84,
          "time": 150.00003150000276,
          "velocity": 0.5196850393700787,
          "duration": 0.08532425000001354
        },
        {
          "name": "D#6",
          "midi": 87,
          "time": 150.08535575000278,
          "velocity": 0.49606299212598426,
          "duration": 0.08532425000001354
        },
        {
          "name": "G#5",
          "midi": 80,
          "time": 150.1706800000028,
          "velocity": 0.5433070866141733,
          "duration": 0.08532425000001354
        },
        {
          "name": "A5",
          "midi": 81,
          "time": 150.2560042500028,
          "velocity": 0.5039370078740157,
          "duration": 0.08532425000001354
        },
        {
          "name": "G#5",
          "midi": 80,
          "time": 150.34132850000282,
          "velocity": 0.5275590551181102,
          "duration": 0.08532425000001354
        },
        {
          "name": "G5",
          "midi": 79,
          "time": 150.42665275000283,
          "velocity": 0.4566929133858268,
          "duration": 0.08532425000001354
        },
        {
          "name": "G#5",
          "midi": 80,
          "time": 150.51197700000284,
          "velocity": 0.4881889763779528,
          "duration": 0.08532425000001354
        },
        {
          "name": "E6",
          "midi": 88,
          "time": 150.59730125000286,
          "velocity": 0.5590551181102362,
          "duration": 0.08532425000001354
        },
        {
          "name": "D#6",
          "midi": 87,
          "time": 150.68262550000287,
          "velocity": 0.5590551181102362,
          "duration": 0.08532425000001354
        },
        {
          "name": "D6",
          "midi": 86,
          "time": 150.76794975000288,
          "velocity": 0.5511811023622047,
          "duration": 0.08532425000001354
        },
        {
          "name": "C#6",
          "midi": 85,
          "time": 150.8532740000029,
          "velocity": 0.5433070866141733,
          "duration": 0.08532425000001354
        },
        {
          "name": "C6",
          "midi": 84,
          "time": 150.9385982500029,
          "velocity": 0.5433070866141733,
          "duration": 0.08532425000001354
        },
        {
          "name": "B5",
          "midi": 83,
          "time": 151.02392250000293,
          "velocity": 0.5354330708661418,
          "duration": 0.08532425000001354
        },
        {
          "name": "A#5",
          "midi": 82,
          "time": 151.10924675000294,
          "velocity": 0.5275590551181102,
          "duration": 0.08532425000001354
        },
        {
          "name": "A5",
          "midi": 81,
          "time": 151.19457100000295,
          "velocity": 0.5275590551181102,
          "duration": 0.08532425000001354
        },
        {
          "name": "G#5",
          "midi": 80,
          "time": 151.27989525000297,
          "velocity": 0.5196850393700787,
          "duration": 0.08532425000001354
        },
        {
          "name": "G5",
          "midi": 79,
          "time": 151.36521950000298,
          "velocity": 0.5118110236220472,
          "duration": 0.08532425000001354
        },
        {
          "name": "F#5",
          "midi": 78,
          "time": 151.450543750003,
          "velocity": 0.5039370078740157,
          "duration": 0.08532425000001354
        },
        {
          "name": "E5",
          "midi": 76,
          "time": 151.535868000003,
          "velocity": 0.5433070866141733,
          "duration": 0.08532425000001354
        },
        {
          "name": "F#5",
          "midi": 78,
          "time": 151.62119225000302,
          "velocity": 0.5039370078740157,
          "duration": 0.08532425000001354
        },
        {
          "name": "E5",
          "midi": 76,
          "time": 151.70651650000303,
          "velocity": 0.5275590551181102,
          "duration": 0.08532425000001354
        },
        {
          "name": "D#5",
          "midi": 75,
          "time": 151.79184075000305,
          "velocity": 0.4566929133858268,
          "duration": 0.08532425000001354
        },
        {
          "name": "E5",
          "midi": 76,
          "time": 151.87716500000306,
          "velocity": 0.4881889763779528,
          "duration": 0.08532425000001354
        },
        {
          "name": "E6",
          "midi": 88,
          "time": 151.96248925000307,
          "velocity": 0.5590551181102362,
          "duration": 0.08532425000001354
        },
        {
          "name": "D#6",
          "midi": 87,
          "time": 152.0478135000031,
          "velocity": 0.5590551181102362,
          "duration": 0.08532425000001354
        },
        {
          "name": "D6",
          "midi": 86,
          "time": 152.1331377500031,
          "velocity": 0.5511811023622047,
          "duration": 0.08532425000001354
        },
        {
          "name": "C#6",
          "midi": 85,
          "time": 152.21846200000311,
          "velocity": 0.5511811023622047,
          "duration": 0.08532425000001354
        },
        {
          "name": "C6",
          "midi": 84,
          "time": 152.30378625000313,
          "velocity": 0.5590551181102362,
          "duration": 0.08532425000001354
        },
        {
          "name": "B5",
          "midi": 83,
          "time": 152.38911050000314,
          "velocity": 0.5590551181102362,
          "duration": 0.08532425000001354
        },
        {
          "name": "A#5",
          "midi": 82,
          "time": 152.47443475000316,
          "velocity": 0.5669291338582677,
          "duration": 0.08532425000001354
        },
        {
          "name": "A5",
          "midi": 81,
          "time": 152.55975900000317,
          "velocity": 0.5748031496062992,
          "duration": 0.08532425000001354
        },
        {
          "name": "G#5",
          "midi": 80,
          "time": 152.64508325000318,
          "velocity": 0.5826771653543307,
          "duration": 0.08532425000001354
        },
        {
          "name": "G5",
          "midi": 79,
          "time": 152.7304075000032,
          "velocity": 0.5905511811023622,
          "duration": 0.08532425000001354
        },
        {
          "name": "F#5",
          "midi": 78,
          "time": 152.8157317500032,
          "velocity": 0.5984251968503937,
          "duration": 0.08532425000001354
        },
        {
          "name": "G#5",
          "midi": 80,
          "time": 152.90105600000322,
          "velocity": 0.5984251968503937,
          "duration": 0.04266212499999256
        },
        {
          "name": "G#6",
          "midi": 92,
          "time": 153.07170450000322,
          "velocity": 0.6692913385826772,
          "duration": 0.08532425000001354
        },
        {
          "name": "G6",
          "midi": 91,
          "time": 153.15702875000324,
          "velocity": 0.6692913385826772,
          "duration": 0.08532425000001354
        },
        {
          "name": "F#6",
          "midi": 90,
          "time": 153.24235300000325,
          "velocity": 0.6614173228346457,
          "duration": 0.08532425000001354
        },
        {
          "name": "F6",
          "midi": 89,
          "time": 153.32767725000326,
          "velocity": 0.6614173228346457,
          "duration": 0.08532425000001354
        },
        {
          "name": "E6",
          "midi": 88,
          "time": 153.41300150000328,
          "velocity": 0.6535433070866141,
          "duration": 0.08532425000001354
        },
        {
          "name": "D#6",
          "midi": 87,
          "time": 153.4983257500033,
          "velocity": 0.6535433070866141,
          "duration": 0.08532425000001354
        },
        {
          "name": "D6",
          "midi": 86,
          "time": 153.5836500000033,
          "velocity": 0.6456692913385826,
          "duration": 0.08532425000001354
        },
        {
          "name": "C#6",
          "midi": 85,
          "time": 153.66897425000332,
          "velocity": 0.6377952755905512,
          "duration": 0.08532425000001354
        },
        {
          "name": "C6",
          "midi": 84,
          "time": 153.75429850000333,
          "velocity": 0.6377952755905512,
          "duration": 0.08532425000001354
        },
        {
          "name": "B5",
          "midi": 83,
          "time": 153.83962275000334,
          "velocity": 0.6299212598425197,
          "duration": 0.08532425000001354
        },
        {
          "name": "A#5",
          "midi": 82,
          "time": 153.92494700000336,
          "velocity": 0.6299212598425197,
          "duration": 0.08532425000001354
        },
        {
          "name": "A5",
          "midi": 81,
          "time": 154.01027125000337,
          "velocity": 0.6220472440944882,
          "duration": 0.08532425000001354
        },
        {
          "name": "G#5",
          "midi": 80,
          "time": 154.09559550000338,
          "velocity": 0.6220472440944882,
          "duration": 0.08532425000001354
        },
        {
          "name": "G5",
          "midi": 79,
          "time": 154.1809197500034,
          "velocity": 0.6141732283464567,
          "duration": 0.08532425000001354
        },
        {
          "name": "F#5",
          "midi": 78,
          "time": 154.2662440000034,
          "velocity": 0.6062992125984252,
          "duration": 0.08532425000001354
        },
        {
          "name": "F5",
          "midi": 77,
          "time": 154.35156825000342,
          "velocity": 0.6062992125984252,
          "duration": 0.08532425000001354
        },
        {
          "name": "E5",
          "midi": 76,
          "time": 154.43689250000344,
          "velocity": 0.6062992125984252,
          "duration": 0.08532425000001354
        },
        {
          "name": "D#5",
          "midi": 75,
          "time": 154.52221675000345,
          "velocity": 0.6062992125984252,
          "duration": 0.08532425000001354
        },
        {
          "name": "D5",
          "midi": 74,
          "time": 154.60754100000347,
          "velocity": 0.6062992125984252,
          "duration": 0.08532425000001354
        },
        {
          "name": "C#5",
          "midi": 73,
          "time": 154.69286525000348,
          "velocity": 0.6062992125984252,
          "duration": 0.08532425000001354
        },
        {
          "name": "C5",
          "midi": 72,
          "time": 154.7781895000035,
          "velocity": 0.6062992125984252,
          "duration": 0.08532425000001354
        },
        {
          "name": "B4",
          "midi": 71,
          "time": 154.8635137500035,
          "velocity": 0.6062992125984252,
          "duration": 0.08532425000001354
        },
        {
          "name": "A#4",
          "midi": 70,
          "time": 154.94883800000352,
          "velocity": 0.6062992125984252,
          "duration": 0.08532425000001354
        },
        {
          "name": "A4",
          "midi": 69,
          "time": 155.03416225000353,
          "velocity": 0.6299212598425197,
          "duration": 0.08532425000001354
        },
        {
          "name": "G#4",
          "midi": 68,
          "time": 155.11948650000355,
          "velocity": 0.6535433070866141,
          "duration": 0.08532425000001354
        },
        {
          "name": "G4",
          "midi": 67,
          "time": 155.20481075000356,
          "velocity": 0.6692913385826772,
          "duration": 0.08532425000001354
        },
        {
          "name": "F#4",
          "midi": 66,
          "time": 155.29013500000357,
          "velocity": 0.6850393700787402,
          "duration": 0.08532425000001354
        },
        {
          "name": "E4",
          "midi": 64,
          "time": 155.3754592500036,
          "velocity": 0.7007874015748031,
          "duration": 0.08532425000001354
        },
        {
          "name": "D#4",
          "midi": 63,
          "time": 155.4607835000036,
          "velocity": 0.7244094488188977,
          "duration": 0.08532425000001354
        },
        {
          "name": "C#4",
          "midi": 61,
          "time": 155.5461077500036,
          "velocity": 0.7401574803149606,
          "duration": 0.08532425000001354
        },
        {
          "name": "G#3",
          "midi": 56,
          "time": 155.63143200000363,
          "velocity": 0.7559055118110236,
          "duration": 0.08532425000001354
        },
        {
          "name": "A6",
          "midi": 93,
          "time": 155.97272900000365,
          "velocity": 0.7086614173228346,
          "duration": 0.08532425000001354
        },
        {
          "name": "G#6",
          "midi": 92,
          "time": 156.05805325000367,
          "velocity": 0.6377952755905512,
          "duration": 0.08532425000001354
        },
        {
          "name": "E7",
          "midi": 100,
          "time": 156.14337750000368,
          "velocity": 0.6062992125984252,
          "duration": 0.08532425000001354
        },
        {
          "name": "E6",
          "midi": 88,
          "time": 156.2287017500037,
          "velocity": 0.6062992125984252,
          "duration": 0.08532425000001354
        },
        {
          "name": "F#6",
          "midi": 90,
          "time": 156.3140260000037,
          "velocity": 0.7086614173228346,
          "duration": 0.08532425000001354
        },
        {
          "name": "E6",
          "midi": 88,
          "time": 156.39935025000372,
          "velocity": 0.6062992125984252,
          "duration": 0.08532425000001354
        },
        {
          "name": "C#7",
          "midi": 97,
          "time": 156.48467450000373,
          "velocity": 0.6062992125984252,
          "duration": 0.08532425000001354
        },
        {
          "name": "C#6",
          "midi": 85,
          "time": 156.56999875000375,
          "velocity": 0.6062992125984252,
          "duration": 0.08532425000001354
        },
        {
          "name": "D#6",
          "midi": 87,
          "time": 156.65532300000376,
          "velocity": 0.7007874015748031,
          "duration": 0.08532425000001354
        },
        {
          "name": "C#6",
          "midi": 85,
          "time": 156.74064725000378,
          "velocity": 0.6062992125984252,
          "duration": 0.08532425000001354
        },
        {
          "name": "G#6",
          "midi": 92,
          "time": 156.8259715000038,
          "velocity": 0.6062992125984252,
          "duration": 0.08532425000001354
        },
        {
          "name": "G#5",
          "midi": 80,
          "time": 156.9112957500038,
          "velocity": 0.6062992125984252,
          "duration": 0.08532425000001354
        },
        {
          "name": "A5",
          "midi": 81,
          "time": 156.99662000000382,
          "velocity": 0.7007874015748031,
          "duration": 0.08532425000001354
        },
        {
          "name": "G#5",
          "midi": 80,
          "time": 157.08194425000383,
          "velocity": 0.6062992125984252,
          "duration": 0.08532425000001354
        },
        {
          "name": "E6",
          "midi": 88,
          "time": 157.16726850000384,
          "velocity": 0.6062992125984252,
          "duration": 0.08532425000001354
        },
        {
          "name": "E5",
          "midi": 76,
          "time": 157.25259275000386,
          "velocity": 0.6062992125984252,
          "duration": 0.08532425000001354
        },
        {
          "name": "F#5",
          "midi": 78,
          "time": 157.33791700000387,
          "velocity": 0.6929133858267716,
          "duration": 0.08532425000001354
        },
        {
          "name": "E5",
          "midi": 76,
          "time": 157.42324125000388,
          "velocity": 0.6062992125984252,
          "duration": 0.08532425000001354
        },
        {
          "name": "C#6",
          "midi": 85,
          "time": 157.5085655000039,
          "velocity": 0.6062992125984252,
          "duration": 0.08532425000001354
        },
        {
          "name": "C#5",
          "midi": 73,
          "time": 157.5938897500039,
          "velocity": 0.6062992125984252,
          "duration": 0.08532425000001354
        },
        {
          "name": "D#5",
          "midi": 75,
          "time": 157.67921400000392,
          "velocity": 0.7007874015748031,
          "duration": 0.08532425000001354
        },
        {
          "name": "C#5",
          "midi": 73,
          "time": 157.76453825000394,
          "velocity": 0.6062992125984252,
          "duration": 0.08532425000001354
        },
        {
          "name": "G#5",
          "midi": 80,
          "time": 157.84986250000395,
          "velocity": 0.6062992125984252,
          "duration": 0.08532425000001354
        },
        {
          "name": "G#4",
          "midi": 68,
          "time": 157.93518675000396,
          "velocity": 0.6062992125984252,
          "duration": 0.08532425000001354
        },
        {
          "name": "A4",
          "midi": 69,
          "time": 158.02051100000398,
          "velocity": 0.7086614173228346,
          "duration": 0.08532425000001354
        },
        {
          "name": "G#4",
          "midi": 68,
          "time": 158.105835250004,
          "velocity": 0.6062992125984252,
          "duration": 0.08532425000001354
        },
        {
          "name": "E5",
          "midi": 76,
          "time": 158.191159500004,
          "velocity": 0.6062992125984252,
          "duration": 0.08532425000001354
        },
        {
          "name": "E4",
          "midi": 64,
          "time": 158.27648375000402,
          "velocity": 0.6062992125984252,
          "duration": 0.08532425000001354
        },
        {
          "name": "F#4",
          "midi": 66,
          "time": 158.36180800000403,
          "velocity": 0.6929133858267716,
          "duration": 0.08532425000001354
        },
        {
          "name": "E4",
          "midi": 64,
          "time": 158.44713225000405,
          "velocity": 0.6062992125984252,
          "duration": 0.08532425000001354
        },
        {
          "name": "C#5",
          "midi": 73,
          "time": 158.53245650000406,
          "velocity": 0.6062992125984252,
          "duration": 0.08532425000001354
        },
        {
          "name": "C#4",
          "midi": 61,
          "time": 158.61778075000407,
          "velocity": 0.6062992125984252,
          "duration": 0.08532425000001354
        },
        {
          "name": "D#4",
          "midi": 63,
          "time": 158.7031050000041,
          "velocity": 0.7007874015748031,
          "duration": 0.08532425000001354
        },
        {
          "name": "C#4",
          "midi": 61,
          "time": 158.7884292500041,
          "velocity": 0.6062992125984252,
          "duration": 0.08532425000001354
        },
        {
          "name": "G#4",
          "midi": 68,
          "time": 158.8737535000041,
          "velocity": 0.6062992125984252,
          "duration": 0.08532425000001354
        },
        {
          "name": "G#3",
          "midi": 56,
          "time": 158.95907775000413,
          "velocity": 0.6062992125984252,
          "duration": 0.08532425000001354
        },
        {
          "name": "D#4",
          "midi": 63,
          "time": 159.04440200000414,
          "velocity": 0.7007874015748031,
          "duration": 0.08532425000001354
        },
        {
          "name": "C#4",
          "midi": 61,
          "time": 159.12972625000415,
          "velocity": 0.6062992125984252,
          "duration": 0.08532425000001354
        },
        {
          "name": "G#4",
          "midi": 68,
          "time": 159.21505050000417,
          "velocity": 0.6062992125984252,
          "duration": 0.08532425000001354
        },
        {
          "name": "G#3",
          "midi": 56,
          "time": 159.30037475000418,
          "velocity": 0.6062992125984252,
          "duration": 0.08532425000001354
        },
        {
          "name": "D#4",
          "midi": 63,
          "time": 159.3856990000042,
          "velocity": 0.7007874015748031,
          "duration": 0.08532425000001354
        },
        {
          "name": "C#4",
          "midi": 61,
          "time": 159.4710232500042,
          "velocity": 0.6062992125984252,
          "duration": 0.08532425000001354
        },
        {
          "name": "A4",
          "midi": 69,
          "time": 159.55634750000422,
          "velocity": 0.6062992125984252,
          "duration": 0.08532425000001354
        },
        {
          "name": "A3",
          "midi": 57,
          "time": 159.64167175000424,
          "velocity": 0.6062992125984252,
          "duration": 0.08532425000001354
        },
        {
          "name": "D#4",
          "midi": 63,
          "time": 159.72699600000425,
          "velocity": 0.7007874015748031,
          "duration": 0.08532425000001354
        },
        {
          "name": "C#4",
          "midi": 61,
          "time": 159.81232025000426,
          "velocity": 0.5905511811023622,
          "duration": 0.08532425000001354
        },
        {
          "name": "G#4",
          "midi": 68,
          "time": 159.89764450000428,
          "velocity": 0.5826771653543307,
          "duration": 0.08532425000001354
        },
        {
          "name": "G#3",
          "midi": 56,
          "time": 159.9829687500043,
          "velocity": 0.5748031496062992,
          "duration": 0.08532425000001354
        },
        {
          "name": "D#4",
          "midi": 63,
          "time": 160.0682930000043,
          "velocity": 0.6535433070866141,
          "duration": 0.08532425000001354
        },
        {
          "name": "C#4",
          "midi": 61,
          "time": 160.15361725000432,
          "velocity": 0.5590551181102362,
          "duration": 0.08532425000001354
        },
        {
          "name": "G4",
          "midi": 67,
          "time": 160.23894150000433,
          "velocity": 0.5590551181102362,
          "duration": 0.08532425000001354
        },
        {
          "name": "G3",
          "midi": 55,
          "time": 160.32426575000434,
          "velocity": 0.5511811023622047,
          "duration": 0.08532425000001354
        },
        {
          "name": "D#4",
          "midi": 63,
          "time": 160.40959000000436,
          "velocity": 0.6220472440944882,
          "duration": 0.08532425000001354
        },
        {
          "name": "C#4",
          "midi": 61,
          "time": 160.49491425000437,
          "velocity": 0.5354330708661418,
          "duration": 0.08532425000001354
        },
        {
          "name": "G#4",
          "midi": 68,
          "time": 160.58023850000438,
          "velocity": 0.5275590551181102,
          "duration": 0.08532425000001354
        },
        {
          "name": "G#3",
          "midi": 56,
          "time": 160.6655627500044,
          "velocity": 0.5196850393700787,
          "duration": 0.08532425000001354
        },
        {
          "name": "D#4",
          "midi": 63,
          "time": 160.7508870000044,
          "velocity": 0.5905511811023622,
          "duration": 0.08532425000001354
        },
        {
          "name": "C4",
          "midi": 60,
          "time": 160.83621125000442,
          "velocity": 0.49606299212598426,
          "duration": 0.08532425000001354
        },
        {
          "name": "G#4",
          "midi": 68,
          "time": 160.92153550000444,
          "velocity": 0.49606299212598426,
          "duration": 0.08532425000001354
        },
        {
          "name": "G#3",
          "midi": 56,
          "time": 161.00685975000445,
          "velocity": 0.4881889763779528,
          "duration": 0.08532425000001354
        },
        {
          "name": "D#4",
          "midi": 63,
          "time": 161.09218400000447,
          "velocity": 0.5748031496062992,
          "duration": 0.08532425000001354
        },
        {
          "name": "C#4",
          "midi": 61,
          "time": 161.17750825000448,
          "velocity": 0.5118110236220472,
          "duration": 0.08532425000001354
        },
        {
          "name": "G#4",
          "midi": 68,
          "time": 161.2628325000045,
          "velocity": 0.5118110236220472,
          "duration": 0.08532425000001354
        },
        {
          "name": "G#3",
          "midi": 56,
          "time": 161.3481567500045,
          "velocity": 0.5118110236220472,
          "duration": 0.08532425000001354
        },
        {
          "name": "A4",
          "midi": 69,
          "time": 161.43348100000452,
          "velocity": 0.5433070866141733,
          "duration": 0.08532425000001354
        },
        {
          "name": "G#4",
          "midi": 68,
          "time": 161.51880525000453,
          "velocity": 0.5118110236220472,
          "duration": 0.08532425000001354
        },
        {
          "name": "E5",
          "midi": 76,
          "time": 161.60412950000455,
          "velocity": 0.6535433070866141,
          "duration": 0.08532425000001354
        },
        {
          "name": "E4",
          "midi": 64,
          "time": 161.68945375000456,
          "velocity": 0.5039370078740157,
          "duration": 0.08532425000001354
        },
        {
          "name": "A4",
          "midi": 69,
          "time": 161.77477800000457,
          "velocity": 0.5511811023622047,
          "duration": 0.08532425000001354
        },
        {
          "name": "G#4",
          "midi": 68,
          "time": 161.8601022500046,
          "velocity": 0.5196850393700787,
          "duration": 0.08532425000001354
        },
        {
          "name": "E5",
          "midi": 76,
          "time": 161.9454265000046,
          "velocity": 0.6535433070866141,
          "duration": 0.08532425000001354
        },
        {
          "name": "E4",
          "midi": 64,
          "time": 162.03075075000461,
          "velocity": 0.47244094488188976,
          "duration": 0.08532425000001354
        },
        {
          "name": "A4",
          "midi": 69,
          "time": 162.11607500000463,
          "velocity": 0.5354330708661418,
          "duration": 0.08532425000001354
        },
        {
          "name": "G#4",
          "midi": 68,
          "time": 162.20139925000464,
          "velocity": 0.4881889763779528,
          "duration": 0.08532425000001354
        },
        {
          "name": "D#5",
          "midi": 75,
          "time": 162.28672350000465,
          "velocity": 0.6220472440944882,
          "duration": 0.08532425000001354
        },
        {
          "name": "D#4",
          "midi": 63,
          "time": 162.37204775000467,
          "velocity": 0.5590551181102362,
          "duration": 0.08532425000001354
        },
        {
          "name": "A4",
          "midi": 69,
          "time": 162.45737200000468,
          "velocity": 0.5354330708661418,
          "duration": 0.08532425000001354
        },
        {
          "name": "G#4",
          "midi": 68,
          "time": 162.5426962500047,
          "velocity": 0.5196850393700787,
          "duration": 0.08532425000001354
        },
        {
          "name": "D#5",
          "midi": 75,
          "time": 162.6280205000047,
          "velocity": 0.6535433070866141,
          "duration": 0.08532425000001354
        },
        {
          "name": "E4",
          "midi": 64,
          "time": 162.71334475000472,
          "velocity": 0.47244094488188976,
          "duration": 0.08532425000001354
        },
        {
          "name": "A4",
          "midi": 69,
          "time": 162.79866900000474,
          "velocity": 0.5354330708661418,
          "duration": 0.08532425000001354
        },
        {
          "name": "G#4",
          "midi": 68,
          "time": 162.88399325000475,
          "velocity": 0.4881889763779528,
          "duration": 0.08532425000001354
        },
        {
          "name": "C#5",
          "midi": 73,
          "time": 162.96931750000476,
          "velocity": 0.6220472440944882,
          "duration": 0.08532425000001354
        },
        {
          "name": "C#4",
          "midi": 61,
          "time": 163.05464175000478,
          "velocity": 0.5590551181102362,
          "duration": 0.08532425000001354
        },
        {
          "name": "E4",
          "midi": 64,
          "time": 163.1399660000048,
          "velocity": 0.4251968503937008,
          "duration": 0.08532425000001354
        },
        {
          "name": "D#4",
          "midi": 63,
          "time": 163.2252902500048,
          "velocity": 0.3858267716535433,
          "duration": 0.08532425000001354
        },
        {
          "name": "G#4",
          "midi": 68,
          "time": 163.31061450000482,
          "velocity": 0.4881889763779528,
          "duration": 0.08532425000001354
        },
        {
          "name": "G#3",
          "midi": 56,
          "time": 163.39593875000483,
          "velocity": 0.3543307086614173,
          "duration": 0.08532425000001354
        },
        {
          "name": "E4",
          "midi": 64,
          "time": 163.48126300000484,
          "velocity": 0.4015748031496063,
          "duration": 0.08532425000001354
        },
        {
          "name": "D#4",
          "midi": 63,
          "time": 163.56658725000486,
          "velocity": 0.36220472440944884,
          "duration": 0.08532425000001354
        },
        {
          "name": "G#4",
          "midi": 68,
          "time": 163.65191150000487,
          "velocity": 0.4645669291338583,
          "duration": 0.08532425000001354
        },
        {
          "name": "G#3",
          "midi": 56,
          "time": 163.73723575000488,
          "velocity": 0.41732283464566927,
          "duration": 0.08532425000001354
        },
        {
          "name": "D#4",
          "midi": 63,
          "time": 163.8225600000049,
          "velocity": 0.4251968503937008,
          "duration": 0.08532425000001354
        },
        {
          "name": "C#4",
          "midi": 61,
          "time": 163.9078842500049,
          "velocity": 0.3858267716535433,
          "duration": 0.08532425000001354
        },
        {
          "name": "G#4",
          "midi": 68,
          "time": 163.99320850000493,
          "velocity": 0.4881889763779528,
          "duration": 0.08532425000001354
        },
        {
          "name": "G#3",
          "midi": 56,
          "time": 164.07853275000494,
          "velocity": 0.3543307086614173,
          "duration": 0.08532425000001354
        },
        {
          "name": "A4",
          "midi": 69,
          "time": 164.16385700000495,
          "velocity": 0.5275590551181102,
          "duration": 0.08532425000001354
        },
        {
          "name": "G#4",
          "midi": 68,
          "time": 164.24918125000497,
          "velocity": 0.5118110236220472,
          "duration": 0.08532425000001354
        },
        {
          "name": "E5",
          "midi": 76,
          "time": 164.33450550000498,
          "velocity": 0.6535433070866141,
          "duration": 0.08532425000001354
        },
        {
          "name": "E4",
          "midi": 64,
          "time": 164.419829750005,
          "velocity": 0.5039370078740157,
          "duration": 0.08532425000001354
        },
        {
          "name": "A4",
          "midi": 69,
          "time": 164.505154000005,
          "velocity": 0.5354330708661418,
          "duration": 0.08532425000001354
        },
        {
          "name": "G#4",
          "midi": 68,
          "time": 164.59047825000502,
          "velocity": 0.5196850393700787,
          "duration": 0.08532425000001354
        },
        {
          "name": "E5",
          "midi": 76,
          "time": 164.67580250000503,
          "velocity": 0.6535433070866141,
          "duration": 0.08532425000001354
        },
        {
          "name": "E4",
          "midi": 64,
          "time": 164.76112675000505,
          "velocity": 0.47244094488188976,
          "duration": 0.08532425000001354
        },
        {
          "name": "A4",
          "midi": 69,
          "time": 164.84645100000506,
          "velocity": 0.5118110236220472,
          "duration": 0.08532425000001354
        },
        {
          "name": "G#4",
          "midi": 68,
          "time": 164.93177525000507,
          "velocity": 0.4881889763779528,
          "duration": 0.08532425000001354
        },
        {
          "name": "D#5",
          "midi": 75,
          "time": 165.0170995000051,
          "velocity": 0.6220472440944882,
          "duration": 0.08532425000001354
        },
        {
          "name": "D#4",
          "midi": 63,
          "time": 165.1024237500051,
          "velocity": 0.5196850393700787,
          "duration": 0.08532425000001354
        },
        {
          "name": "A4",
          "midi": 69,
          "time": 165.18774800000512,
          "velocity": 0.5196850393700787,
          "duration": 0.08532425000001354
        },
        {
          "name": "G#4",
          "midi": 68,
          "time": 165.27307225000513,
          "velocity": 0.5196850393700787,
          "duration": 0.08532425000001354
        },
        {
          "name": "D#5",
          "midi": 75,
          "time": 165.35839650000514,
          "velocity": 0.6535433070866141,
          "duration": 0.08532425000001354
        },
        {
          "name": "E4",
          "midi": 64,
          "time": 165.44372075000516,
          "velocity": 0.47244094488188976,
          "duration": 0.08532425000001354
        },
        {
          "name": "A4",
          "midi": 69,
          "time": 165.52904500000517,
          "velocity": 0.5275590551181102,
          "duration": 0.08532425000001354
        },
        {
          "name": "G#4",
          "midi": 68,
          "time": 165.61436925000518,
          "velocity": 0.4881889763779528,
          "duration": 0.08532425000001354
        },
        {
          "name": "C#5",
          "midi": 73,
          "time": 165.6996935000052,
          "velocity": 0.6220472440944882,
          "duration": 0.08532425000001354
        },
        {
          "name": "C#4",
          "midi": 61,
          "time": 165.7850177500052,
          "velocity": 0.5590551181102362,
          "duration": 0.08532425000001354
        },
        {
          "name": "E4",
          "midi": 64,
          "time": 165.87034200000522,
          "velocity": 0.4251968503937008,
          "duration": 0.08532425000001354
        },
        {
          "name": "D#4",
          "midi": 63,
          "time": 165.95566625000524,
          "velocity": 0.3858267716535433,
          "duration": 0.08532425000001354
        },
        {
          "name": "G#4",
          "midi": 68,
          "time": 166.04099050000525,
          "velocity": 0.4881889763779528,
          "duration": 0.08532425000001354
        },
        {
          "name": "G#3",
          "midi": 56,
          "time": 166.12631475000526,
          "velocity": 0.3543307086614173,
          "duration": 0.08532425000001354
        },
        {
          "name": "E4",
          "midi": 64,
          "time": 166.21163900000528,
          "velocity": 0.4015748031496063,
          "duration": 0.08532425000001354
        },
        {
          "name": "D#4",
          "midi": 63,
          "time": 166.2969632500053,
          "velocity": 0.36220472440944884,
          "duration": 0.08532425000001354
        },
        {
          "name": "G#4",
          "midi": 68,
          "time": 166.3822875000053,
          "velocity": 0.4645669291338583,
          "duration": 0.08532425000001354
        },
        {
          "name": "G#3",
          "midi": 56,
          "time": 166.46761175000532,
          "velocity": 0.41732283464566927,
          "duration": 0.08532425000001354
        },
        {
          "name": "D#4",
          "midi": 63,
          "time": 166.55293600000533,
          "velocity": 0.4251968503937008,
          "duration": 0.08532425000001354
        },
        {
          "name": "C#4",
          "midi": 61,
          "time": 166.63826025000535,
          "velocity": 0.3858267716535433,
          "duration": 0.08532425000001354
        },
        {
          "name": "G#4",
          "midi": 68,
          "time": 166.72358450000536,
          "velocity": 0.4881889763779528,
          "duration": 0.08532425000001354
        },
        {
          "name": "G#3",
          "midi": 56,
          "time": 166.80890875000537,
          "velocity": 0.3543307086614173,
          "duration": 0.08532425000001354
        },
        {
          "name": "A4",
          "midi": 69,
          "time": 166.89423300000539,
          "velocity": 0.4330708661417323,
          "duration": 0.08532425000001354
        },
        {
          "name": "G#4",
          "midi": 68,
          "time": 166.9795572500054,
          "velocity": 0.3779527559055118,
          "duration": 0.08532425000001354
        },
        {
          "name": "E5",
          "midi": 76,
          "time": 167.0648815000054,
          "velocity": 0.4881889763779528,
          "duration": 0.08532425000001354
        },
        {
          "name": "E4",
          "midi": 64,
          "time": 167.15020575000543,
          "velocity": 0.3779527559055118,
          "duration": 0.08532425000001354
        },
        {
          "name": "F#4",
          "midi": 66,
          "time": 167.23553000000544,
          "velocity": 0.4251968503937008,
          "duration": 0.08532425000001354
        },
        {
          "name": "E4",
          "midi": 64,
          "time": 167.32085425000545,
          "velocity": 0.3858267716535433,
          "duration": 0.08532425000001354
        },
        {
          "name": "C#5",
          "midi": 73,
          "time": 167.40617850000547,
          "velocity": 0.4881889763779528,
          "duration": 0.08532425000001354
        },
        {
          "name": "C#4",
          "midi": 61,
          "time": 167.49150275000548,
          "velocity": 0.3543307086614173,
          "duration": 0.08532425000001354
        },
        {
          "name": "A4",
          "midi": 69,
          "time": 167.5768270000055,
          "velocity": 0.4015748031496063,
          "duration": 0.08532425000001354
        },
        {
          "name": "G#4",
          "midi": 68,
          "time": 167.6621512500055,
          "velocity": 0.36220472440944884,
          "duration": 0.08532425000001354
        },
        {
          "name": "E5",
          "midi": 76,
          "time": 167.74747550000552,
          "velocity": 0.4645669291338583,
          "duration": 0.08532425000001354
        },
        {
          "name": "E4",
          "midi": 64,
          "time": 167.83279975000553,
          "velocity": 0.41732283464566927,
          "duration": 0.08532425000001354
        },
        {
          "name": "D#4",
          "midi": 63,
          "time": 167.91812400000555,
          "velocity": 0.4251968503937008,
          "duration": 0.08532425000001354
        },
        {
          "name": "C#4",
          "midi": 61,
          "time": 168.00344825000556,
          "velocity": 0.3858267716535433,
          "duration": 0.08532425000001354
        },
        {
          "name": "G#4",
          "midi": 68,
          "time": 168.08877250000558,
          "velocity": 0.4881889763779528,
          "duration": 0.08532425000001354
        },
        {
          "name": "G#3",
          "midi": 56,
          "time": 168.1740967500056,
          "velocity": 0.3543307086614173,
          "duration": 0.08532425000001354
        },
        {
          "name": "A4",
          "midi": 69,
          "time": 168.2594210000056,
          "velocity": 0.4330708661417323,
          "duration": 0.08532425000001354
        },
        {
          "name": "G#4",
          "midi": 68,
          "time": 168.34474525000562,
          "velocity": 0.3779527559055118,
          "duration": 0.08532425000001354
        },
        {
          "name": "E5",
          "midi": 76,
          "time": 168.43006950000563,
          "velocity": 0.4881889763779528,
          "duration": 0.08532425000001354
        },
        {
          "name": "E4",
          "midi": 64,
          "time": 168.51539375000564,
          "velocity": 0.3779527559055118,
          "duration": 0.08532425000001354
        },
        {
          "name": "F#4",
          "midi": 66,
          "time": 168.60071800000566,
          "velocity": 0.4251968503937008,
          "duration": 0.08532425000001354
        },
        {
          "name": "E4",
          "midi": 64,
          "time": 168.68604225000567,
          "velocity": 0.3858267716535433,
          "duration": 0.08532425000001354
        },
        {
          "name": "C#5",
          "midi": 73,
          "time": 168.77136650000568,
          "velocity": 0.4881889763779528,
          "duration": 0.08532425000001354
        },
        {
          "name": "C#4",
          "midi": 61,
          "time": 168.8566907500057,
          "velocity": 0.3543307086614173,
          "duration": 0.08532425000001354
        },
        {
          "name": "A4",
          "midi": 69,
          "time": 168.9420150000057,
          "velocity": 0.4015748031496063,
          "duration": 0.08532425000001354
        },
        {
          "name": "G#4",
          "midi": 68,
          "time": 169.02733925000572,
          "velocity": 0.36220472440944884,
          "duration": 0.08532425000001354
        },
        {
          "name": "E5",
          "midi": 76,
          "time": 169.11266350000574,
          "velocity": 0.4645669291338583,
          "duration": 0.08532425000001354
        },
        {
          "name": "E4",
          "midi": 64,
          "time": 169.19798775000575,
          "velocity": 0.41732283464566927,
          "duration": 0.08532425000001354
        },
        {
          "name": "F#4",
          "midi": 66,
          "time": 169.28331200000576,
          "velocity": 0.4251968503937008,
          "duration": 0.08532425000001354
        },
        {
          "name": "E4",
          "midi": 64,
          "time": 169.36863625000578,
          "velocity": 0.3858267716535433,
          "duration": 0.08532425000001354
        },
        {
          "name": "C#5",
          "midi": 73,
          "time": 169.4539605000058,
          "velocity": 0.48031496062992124,
          "duration": 0.08532425000001354
        },
        {
          "name": "C#4",
          "midi": 61,
          "time": 169.5392847500058,
          "velocity": 0.3464566929133858,
          "duration": 0.08532425000001354
        },
        {
          "name": "A4",
          "midi": 69,
          "time": 169.62460900000582,
          "velocity": 0.41732283464566927,
          "duration": 0.08532425000001354
        },
        {
          "name": "G#4",
          "midi": 68,
          "time": 169.70993325000583,
          "velocity": 0.36220472440944884,
          "duration": 0.08532425000001354
        },
        {
          "name": "C#5",
          "midi": 73,
          "time": 169.79525750000585,
          "velocity": 0.47244094488188976,
          "duration": 0.08532425000001354
        },
        {
          "name": "C#4",
          "midi": 61,
          "time": 169.88058175000586,
          "velocity": 0.36220472440944884,
          "duration": 0.08532425000001354
        },
        {
          "name": "F#4",
          "midi": 66,
          "time": 169.96590600000587,
          "velocity": 0.4015748031496063,
          "duration": 0.08532425000001354
        },
        {
          "name": "E4",
          "midi": 64,
          "time": 170.0512302500059,
          "velocity": 0.36220472440944884,
          "duration": 0.08532425000001354
        },
        {
          "name": "C#5",
          "midi": 73,
          "time": 170.1365545000059,
          "velocity": 0.4566929133858268,
          "duration": 0.08532425000001354
        },
        {
          "name": "C#4",
          "midi": 61,
          "time": 170.2218787500059,
          "velocity": 0.33070866141732286,
          "duration": 0.08532425000001354
        },
        {
          "name": "A4",
          "midi": 69,
          "time": 170.30720300000593,
          "velocity": 0.3700787401574803,
          "duration": 0.08532425000001354
        },
        {
          "name": "G#4",
          "midi": 68,
          "time": 170.39252725000594,
          "velocity": 0.33070866141732286,
          "duration": 0.08532425000001354
        },
        {
          "name": "C#5",
          "midi": 73,
          "time": 170.47785150000595,
          "velocity": 0.4251968503937008,
          "duration": 0.08532425000001354
        },
        {
          "name": "C#4",
          "midi": 61,
          "time": 170.56317575000597,
          "velocity": 0.3779527559055118,
          "duration": 0.08532425000001354
        },
        {
          "name": "F#4",
          "midi": 66,
          "time": 170.64850000000598,
          "velocity": 0.3779527559055118,
          "duration": 0.08532425000001354
        },
        {
          "name": "E4",
          "midi": 64,
          "time": 170.733824250006,
          "velocity": 0.3464566929133858,
          "duration": 0.08532425000001354
        },
        {
          "name": "C#5",
          "midi": 73,
          "time": 170.819148500006,
          "velocity": 0.4330708661417323,
          "duration": 0.08532425000001354
        },
        {
          "name": "C#4",
          "midi": 61,
          "time": 170.90447275000602,
          "velocity": 0.31496062992125984,
          "duration": 0.08532425000001354
        },
        {
          "name": "A4",
          "midi": 69,
          "time": 170.98979700000604,
          "velocity": 0.3779527559055118,
          "duration": 0.08532425000001354
        },
        {
          "name": "G#4",
          "midi": 68,
          "time": 171.07512125000605,
          "velocity": 0.3228346456692913,
          "duration": 0.08532425000001354
        },
        {
          "name": "C#5",
          "midi": 73,
          "time": 171.16044550000606,
          "velocity": 0.41732283464566927,
          "duration": 0.08532425000001354
        },
        {
          "name": "C#4",
          "midi": 61,
          "time": 171.24576975000608,
          "velocity": 0.3228346456692913,
          "duration": 0.08532425000001354
        },
        {
          "name": "F#4",
          "midi": 66,
          "time": 171.3310940000061,
          "velocity": 0.3543307086614173,
          "duration": 0.08532425000001354
        },
        {
          "name": "E4",
          "midi": 64,
          "time": 171.4164182500061,
          "velocity": 0.3228346456692913,
          "duration": 0.08532425000001354
        },
        {
          "name": "C#5",
          "midi": 73,
          "time": 171.50174250000612,
          "velocity": 0.4094488188976378,
          "duration": 0.08532425000001354
        },
        {
          "name": "C#4",
          "midi": 61,
          "time": 171.58706675000613,
          "velocity": 0.29133858267716534,
          "duration": 0.08532425000001354
        },
        {
          "name": "A4",
          "midi": 69,
          "time": 171.67239100000614,
          "velocity": 0.33070866141732286,
          "duration": 0.08532425000001354
        },
        {
          "name": "G#4",
          "midi": 68,
          "time": 171.75771525000616,
          "velocity": 0.29133858267716534,
          "duration": 0.08532425000001354
        },
        {
          "name": "C#5",
          "midi": 73,
          "time": 171.84303950000617,
          "velocity": 0.3779527559055118,
          "duration": 0.08532425000001354
        },
        {
          "name": "C#4",
          "midi": 61,
          "time": 171.92836375000618,
          "velocity": 0.33070866141732286,
          "duration": 0.08532425000001354
        },
        {
          "name": "D#4",
          "midi": 63,
          "time": 172.0136880000062,
          "velocity": 0.33858267716535434,
          "duration": 0.08532425000001354
        },
        {
          "name": "C#4",
          "midi": 61,
          "time": 172.0990122500062,
          "velocity": 0.30708661417322836,
          "duration": 0.08532425000001354
        },
        {
          "name": "G#4",
          "midi": 68,
          "time": 172.18433650000622,
          "velocity": 0.3858267716535433,
          "duration": 0.08532425000001354
        },
        {
          "name": "G#3",
          "midi": 56,
          "time": 172.26966075000624,
          "velocity": 0.28346456692913385,
          "duration": 0.08532425000001354
        },
        {
          "name": "D#4",
          "midi": 63,
          "time": 172.35498500000625,
          "velocity": 0.3464566929133858,
          "duration": 0.08532425000001354
        },
        {
          "name": "C#4",
          "midi": 61,
          "time": 172.44030925000627,
          "velocity": 0.2992125984251969,
          "duration": 0.08532425000001354
        },
        {
          "name": "G#4",
          "midi": 68,
          "time": 172.52563350000628,
          "velocity": 0.3858267716535433,
          "duration": 0.08532425000001354
        },
        {
          "name": "G#3",
          "midi": 56,
          "time": 172.6109577500063,
          "velocity": 0.2992125984251969,
          "duration": 0.08532425000001354
        },
        {
          "name": "D#4",
          "midi": 63,
          "time": 172.6962820000063,
          "velocity": 0.33858267716535434,
          "duration": 0.08532425000001354
        },
        {
          "name": "C#4",
          "midi": 61,
          "time": 172.78160625000632,
          "velocity": 0.30708661417322836,
          "duration": 0.08532425000001354
        },
        {
          "name": "G#4",
          "midi": 68,
          "time": 172.86693050000633,
          "velocity": 0.3858267716535433,
          "duration": 0.08532425000001354
        },
        {
          "name": "G#3",
          "midi": 56,
          "time": 172.95225475000635,
          "velocity": 0.28346456692913385,
          "duration": 0.08532425000001354
        },
        {
          "name": "D#4",
          "midi": 63,
          "time": 173.03757900000636,
          "velocity": 0.31496062992125984,
          "duration": 0.08532425000001354
        },
        {
          "name": "C#4",
          "midi": 61,
          "time": 173.12290325000637,
          "velocity": 0.28346456692913385,
          "duration": 0.08532425000001354
        },
        {
          "name": "G#4",
          "midi": 68,
          "time": 173.2082275000064,
          "velocity": 0.3700787401574803,
          "duration": 0.08532425000001354
        },
        {
          "name": "G#3",
          "midi": 56,
          "time": 173.2935517500064,
          "velocity": 0.33070866141732286,
          "duration": 0.08532425000001354
        },
        {
          "name": "D#4",
          "midi": 63,
          "time": 173.37887600000641,
          "velocity": 0.33858267716535434,
          "duration": 0.08532425000001354
        },
        {
          "name": "C#4",
          "midi": 61,
          "time": 173.46420025000643,
          "velocity": 0.30708661417322836,
          "duration": 0.08532425000001354
        },
        {
          "name": "G#4",
          "midi": 68,
          "time": 173.54952450000644,
          "velocity": 0.3779527559055118,
          "duration": 0.08532425000001354
        },
        {
          "name": "G#3",
          "midi": 56,
          "time": 173.63484875000646,
          "velocity": 0.2755905511811024,
          "duration": 0.08532425000001354
        },
        {
          "name": "D#4",
          "midi": 63,
          "time": 173.72017300000647,
          "velocity": 0.33070866141732286,
          "duration": 0.08532425000001354
        },
        {
          "name": "C#4",
          "midi": 61,
          "time": 173.80549725000648,
          "velocity": 0.28346456692913385,
          "duration": 0.08532425000001354
        },
        {
          "name": "G#4",
          "midi": 68,
          "time": 173.8908215000065,
          "velocity": 0.36220472440944884,
          "duration": 0.08532425000001354
        },
        {
          "name": "G#3",
          "midi": 56,
          "time": 173.9761457500065,
          "velocity": 0.2755905511811024,
          "duration": 0.08532425000001354
        },
        {
          "name": "D#4",
          "midi": 63,
          "time": 174.06147000000652,
          "velocity": 0.30708661417322836,
          "duration": 0.08532425000001354
        },
        {
          "name": "C#4",
          "midi": 61,
          "time": 174.14679425000654,
          "velocity": 0.2755905511811024,
          "duration": 0.08532425000001354
        },
        {
          "name": "G#4",
          "midi": 68,
          "time": 174.23211850000655,
          "velocity": 0.3464566929133858,
          "duration": 0.08532425000001354
        },
        {
          "name": "G#3",
          "midi": 56,
          "time": 174.31744275000656,
          "velocity": 0.25196850393700787,
          "duration": 0.08532425000001354
        },
        {
          "name": "D#4",
          "midi": 63,
          "time": 174.40276700000658,
          "velocity": 0.2755905511811024,
          "duration": 0.08532425000001354
        },
        {
          "name": "C#4",
          "midi": 61,
          "time": 174.4880912500066,
          "velocity": 0.2440944881889764,
          "duration": 0.08532425000001354
        },
        {
          "name": "G#4",
          "midi": 68,
          "time": 174.5734155000066,
          "velocity": 0.31496062992125984,
          "duration": 0.08532425000001354
        },
        {
          "name": "G#3",
          "midi": 56,
          "time": 174.65873975000662,
          "velocity": 0.28346456692913385,
          "duration": 0.08532425000001354
        },
        {
          "name": "D#4",
          "midi": 63,
          "time": 174.74406400000663,
          "velocity": 0.28346456692913385,
          "duration": 0.08532425000001354
        },
        {
          "name": "C#4",
          "midi": 61,
          "time": 174.82938825000664,
          "velocity": 0.25984251968503935,
          "duration": 0.08532425000001354
        },
        {
          "name": "G#4",
          "midi": 68,
          "time": 174.91471250000666,
          "velocity": 0.3228346456692913,
          "duration": 0.08532425000001354
        },
        {
          "name": "G#3",
          "midi": 56,
          "time": 175.00003675000667,
          "velocity": 0.23622047244094488,
          "duration": 0.08532425000001354
        },
        {
          "name": "D#4",
          "midi": 63,
          "time": 175.08536100000669,
          "velocity": 0.29133858267716534,
          "duration": 0.08532425000001354
        },
        {
          "name": "C#4",
          "midi": 61,
          "time": 175.1706852500067,
          "velocity": 0.25196850393700787,
          "duration": 0.08532425000001354
        },
        {
          "name": "G#4",
          "midi": 68,
          "time": 175.2560095000067,
          "velocity": 0.3228346456692913,
          "duration": 0.08532425000001354
        },
        {
          "name": "G#3",
          "midi": 56,
          "time": 175.34133375000673,
          "velocity": 0.25196850393700787,
          "duration": 0.08532425000001354
        },
        {
          "name": "D#4",
          "midi": 63,
          "time": 175.42665800000674,
          "velocity": 0.28346456692913385,
          "duration": 0.08532425000001354
        },
        {
          "name": "C#4",
          "midi": 61,
          "time": 175.51198225000675,
          "velocity": 0.25984251968503935,
          "duration": 0.08532425000001354
        },
        {
          "name": "G#4",
          "midi": 68,
          "time": 175.59730650000677,
          "velocity": 0.3228346456692913,
          "duration": 0.08532425000001354
        },
        {
          "name": "G#3",
          "midi": 56,
          "time": 175.68263075000678,
          "velocity": 0.23622047244094488,
          "duration": 0.08532425000001354
        },
        {
          "name": "D#4",
          "midi": 63,
          "time": 175.7679550000068,
          "velocity": 0.2677165354330709,
          "duration": 0.08532425000001354
        },
        {
          "name": "C#4",
          "midi": 61,
          "time": 175.8532792500068,
          "velocity": 0.23622047244094488,
          "duration": 0.08532425000001354
        },
        {
          "name": "G#4",
          "midi": 68,
          "time": 175.93860350000682,
          "velocity": 0.30708661417322836,
          "duration": 0.08532425000001354
        },
        {
          "name": "G#3",
          "midi": 56,
          "time": 176.02392775000683,
          "velocity": 0.2755905511811024,
          "duration": 0.08532425000001354
        },
        {
          "name": "D#4",
          "midi": 63,
          "time": 176.10925200000685,
          "velocity": 0.28346456692913385,
          "duration": 0.08532425000001354
        },
        {
          "name": "C#4",
          "midi": 61,
          "time": 176.19457625000686,
          "velocity": 0.25984251968503935,
          "duration": 0.08532425000001354
        },
        {
          "name": "G#4",
          "midi": 68,
          "time": 176.27990050000687,
          "velocity": 0.3228346456692913,
          "duration": 0.08532425000001354
        },
        {
          "name": "G#3",
          "midi": 56,
          "time": 176.3652247500069,
          "velocity": 0.23622047244094488,
          "duration": 0.08532425000001354
        },
        {
          "name": "D#4",
          "midi": 63,
          "time": 176.4505490000069,
          "velocity": 0.29133858267716534,
          "duration": 0.08532425000001354
        },
        {
          "name": "C#4",
          "midi": 61,
          "time": 176.53587325000692,
          "velocity": 0.25196850393700787,
          "duration": 0.08532425000001354
        },
        {
          "name": "G#4",
          "midi": 68,
          "time": 176.62119750000693,
          "velocity": 0.3228346456692913,
          "duration": 0.08532425000001354
        },
        {
          "name": "G#3",
          "midi": 56,
          "time": 176.70652175000694,
          "velocity": 0.25196850393700787,
          "duration": 0.08532425000001354
        },
        {
          "name": "D#4",
          "midi": 63,
          "time": 176.79184600000696,
          "velocity": 0.28346456692913385,
          "duration": 0.08532425000001354
        },
        {
          "name": "C#4",
          "midi": 61,
          "time": 176.87717025000697,
          "velocity": 0.25984251968503935,
          "duration": 0.08532425000001354
        },
        {
          "name": "G#4",
          "midi": 68,
          "time": 176.96249450000698,
          "velocity": 0.3228346456692913,
          "duration": 0.08532425000001354
        },
        {
          "name": "G#3",
          "midi": 56,
          "time": 177.047818750007,
          "velocity": 0.23622047244094488,
          "duration": 0.08532425000001354
        },
        {
          "name": "D#4",
          "midi": 63,
          "time": 177.133143000007,
          "velocity": 0.2677165354330709,
          "duration": 0.08532425000001354
        },
        {
          "name": "C#4",
          "midi": 61,
          "time": 177.21846725000702,
          "velocity": 0.23622047244094488,
          "duration": 0.08532425000001354
        },
        {
          "name": "G#4",
          "midi": 68,
          "time": 177.30379150000704,
          "velocity": 0.30708661417322836,
          "duration": 0.08532425000001354
        },
        {
          "name": "G#3",
          "midi": 56,
          "time": 177.38911575000705,
          "velocity": 0.2755905511811024,
          "duration": 0.08532425000001354
        },
        {
          "name": "D#4",
          "midi": 63,
          "time": 177.47444000000706,
          "velocity": 0.28346456692913385,
          "duration": 0.08532425000001354
        },
        {
          "name": "C#4",
          "midi": 61,
          "time": 177.55976425000708,
          "velocity": 0.25984251968503935,
          "duration": 0.08532425000001354
        },
        {
          "name": "G#4",
          "midi": 68,
          "time": 177.6450885000071,
          "velocity": 0.3228346456692913,
          "duration": 0.08532425000001354
        },
        {
          "name": "G#3",
          "midi": 56,
          "time": 177.7304127500071,
          "velocity": 0.23622047244094488,
          "duration": 0.08532425000001354
        },
        {
          "name": "D#4",
          "midi": 63,
          "time": 177.81573700000712,
          "velocity": 0.29133858267716534,
          "duration": 0.08532425000001354
        },
        {
          "name": "C#4",
          "midi": 61,
          "time": 177.90106125000713,
          "velocity": 0.25196850393700787,
          "duration": 0.08532425000001354
        },
        {
          "name": "G#4",
          "midi": 68,
          "time": 177.98638550000715,
          "velocity": 0.3228346456692913,
          "duration": 0.08532425000001354
        },
        {
          "name": "G#3",
          "midi": 56,
          "time": 178.07170975000716,
          "velocity": 0.25196850393700787,
          "duration": 0.08532425000001354
        },
        {
          "name": "D#4",
          "midi": 63,
          "time": 178.15703400000717,
          "velocity": 0.28346456692913385,
          "duration": 0.08532425000001354
        },
        {
          "name": "C#4",
          "midi": 61,
          "time": 178.2423582500072,
          "velocity": 0.25984251968503935,
          "duration": 0.08532425000001354
        },
        {
          "name": "G#4",
          "midi": 68,
          "time": 178.3276825000072,
          "velocity": 0.3228346456692913,
          "duration": 0.08532425000001354
        },
        {
          "name": "G#3",
          "midi": 56,
          "time": 178.4130067500072,
          "velocity": 0.23622047244094488,
          "duration": 0.08532425000001354
        },
        {
          "name": "D#4",
          "midi": 63,
          "time": 178.49833100000723,
          "velocity": 0.2677165354330709,
          "duration": 0.08532425000001354
        },
        {
          "name": "C#4",
          "midi": 61,
          "time": 178.58365525000724,
          "velocity": 0.23622047244094488,
          "duration": 0.08532425000001354
        },
        {
          "name": "G#4",
          "midi": 68,
          "time": 178.66897950000725,
          "velocity": 0.30708661417322836,
          "duration": 0.08532425000001354
        },
        {
          "name": "G#3",
          "midi": 56,
          "time": 178.75430375000727,
          "velocity": 0.2755905511811024,
          "duration": 0.08532425000001354
        },
        {
          "name": "D#4",
          "midi": 63,
          "time": 178.83962800000728,
          "velocity": 0.28346456692913385,
          "duration": 0.08532425000001354
        },
        {
          "name": "C#4",
          "midi": 61,
          "time": 178.9249522500073,
          "velocity": 0.25984251968503935,
          "duration": 0.08532425000001354
        },
        {
          "name": "G#4",
          "midi": 68,
          "time": 179.0102765000073,
          "velocity": 0.3228346456692913,
          "duration": 0.08532425000001354
        },
        {
          "name": "G#3",
          "midi": 56,
          "time": 179.09560075000732,
          "velocity": 0.23622047244094488,
          "duration": 0.08532425000001354
        },
        {
          "name": "D#4",
          "midi": 63,
          "time": 179.18092500000733,
          "velocity": 0.29133858267716534,
          "duration": 0.08532425000001354
        },
        {
          "name": "C#4",
          "midi": 61,
          "time": 179.26624925000735,
          "velocity": 0.25196850393700787,
          "duration": 0.08532425000001354
        },
        {
          "name": "G#4",
          "midi": 68,
          "time": 179.35157350000736,
          "velocity": 0.3228346456692913,
          "duration": 0.08532425000001354
        },
        {
          "name": "G#3",
          "midi": 56,
          "time": 179.43689775000738,
          "velocity": 0.25196850393700787,
          "duration": 0.08532425000001354
        },
        {
          "name": "D#4",
          "midi": 63,
          "time": 179.5222220000074,
          "velocity": 0.28346456692913385,
          "duration": 0.08532425000001354
        },
        {
          "name": "C#4",
          "midi": 61,
          "time": 179.6075462500074,
          "velocity": 0.25984251968503935,
          "duration": 0.08532425000001354
        },
        {
          "name": "G#4",
          "midi": 68,
          "time": 179.69287050000742,
          "velocity": 0.3228346456692913,
          "duration": 0.08532425000001354
        },
        {
          "name": "G#3",
          "midi": 56,
          "time": 179.77819475000743,
          "velocity": 0.23622047244094488,
          "duration": 0.08532425000001354
        },
        {
          "name": "D#4",
          "midi": 63,
          "time": 179.86351900000744,
          "velocity": 0.2677165354330709,
          "duration": 0.08532425000001354
        },
        {
          "name": "C#4",
          "midi": 61,
          "time": 179.94884325000746,
          "velocity": 0.23622047244094488,
          "duration": 0.08532425000001354
        },
        {
          "name": "G#4",
          "midi": 68,
          "time": 180.03416750000747,
          "velocity": 0.30708661417322836,
          "duration": 0.08532425000001354
        },
        {
          "name": "G#3",
          "midi": 56,
          "time": 180.11949175000748,
          "velocity": 0.2755905511811024,
          "duration": 0.08532425000001354
        },
        {
          "name": "D#4",
          "midi": 63,
          "time": 180.2048160000075,
          "velocity": 0.28346456692913385,
          "duration": 0.08532425000001354
        },
        {
          "name": "C#4",
          "midi": 61,
          "time": 180.2901402500075,
          "velocity": 0.25984251968503935,
          "duration": 0.08532425000001354
        },
        {
          "name": "G#4",
          "midi": 68,
          "time": 180.37546450000752,
          "velocity": 0.3228346456692913,
          "duration": 0.08532425000001354
        },
        {
          "name": "G#3",
          "midi": 56,
          "time": 180.46078875000754,
          "velocity": 0.23622047244094488,
          "duration": 0.08532425000001354
        },
        {
          "name": "D#4",
          "midi": 63,
          "time": 180.54611300000755,
          "velocity": 0.29133858267716534,
          "duration": 0.08532425000001354
        },
        {
          "name": "C#4",
          "midi": 61,
          "time": 180.63143725000756,
          "velocity": 0.25196850393700787,
          "duration": 0.08532425000001354
        },
        {
          "name": "G#4",
          "midi": 68,
          "time": 180.71676150000758,
          "velocity": 0.3228346456692913,
          "duration": 0.08532425000001354
        },
        {
          "name": "G#3",
          "midi": 56,
          "time": 180.8020857500076,
          "velocity": 0.25196850393700787,
          "duration": 0.08532425000001354
        },
        {
          "name": "D#4",
          "midi": 63,
          "time": 180.8874100000076,
          "velocity": 0.28346456692913385,
          "duration": 0.08532425000001354
        },
        {
          "name": "C#4",
          "midi": 61,
          "time": 180.97273425000762,
          "velocity": 0.25984251968503935,
          "duration": 0.08532425000001354
        },
        {
          "name": "G#4",
          "midi": 68,
          "time": 181.05805850000763,
          "velocity": 0.3228346456692913,
          "duration": 0.08532425000001354
        },
        {
          "name": "G#3",
          "midi": 56,
          "time": 181.14338275000765,
          "velocity": 0.23622047244094488,
          "duration": 0.08532425000001354
        },
        {
          "name": "D#4",
          "midi": 63,
          "time": 181.22870700000766,
          "velocity": 0.2677165354330709,
          "duration": 0.08532425000001354
        },
        {
          "name": "C#4",
          "midi": 61,
          "time": 181.31403125000767,
          "velocity": 0.23622047244094488,
          "duration": 0.08532425000001354
        },
        {
          "name": "G#4",
          "midi": 68,
          "time": 181.3993555000077,
          "velocity": 0.30708661417322836,
          "duration": 0.08532425000001354
        },
        {
          "name": "G#3",
          "midi": 56,
          "time": 181.4846797500077,
          "velocity": 0.2755905511811024,
          "duration": 0.08532425000001354
        },
        {
          "name": "D#4",
          "midi": 63,
          "time": 181.5700040000077,
          "velocity": 0.28346456692913385,
          "duration": 0.08532425000001354
        },
        {
          "name": "C#4",
          "midi": 61,
          "time": 181.65532825000773,
          "velocity": 0.25984251968503935,
          "duration": 0.08532425000001354
        },
        {
          "name": "G#4",
          "midi": 68,
          "time": 181.74065250000774,
          "velocity": 0.3228346456692913,
          "duration": 0.08532425000001354
        },
        {
          "name": "G#3",
          "midi": 56,
          "time": 181.82597675000775,
          "velocity": 0.23622047244094488,
          "duration": 0.08532425000001354
        },
        {
          "name": "D#4",
          "midi": 63,
          "time": 181.91130100000777,
          "velocity": 0.29133858267716534,
          "duration": 0.08532425000001354
        },
        {
          "name": "C#4",
          "midi": 61,
          "time": 181.99662525000778,
          "velocity": 0.25196850393700787,
          "duration": 0.08532425000001354
        },
        {
          "name": "G#4",
          "midi": 68,
          "time": 182.0819495000078,
          "velocity": 0.3228346456692913,
          "duration": 0.08532425000001354
        },
        {
          "name": "G#3",
          "midi": 56,
          "time": 182.1672737500078,
          "velocity": 0.25196850393700787,
          "duration": 0.08532425000001354
        },
        {
          "name": "D#4",
          "midi": 63,
          "time": 182.25259800000782,
          "velocity": 0.28346456692913385,
          "duration": 0.08532425000001354
        },
        {
          "name": "C#4",
          "midi": 61,
          "time": 182.33792225000784,
          "velocity": 0.25984251968503935,
          "duration": 0.08532425000001354
        },
        {
          "name": "G#4",
          "midi": 68,
          "time": 182.42324650000785,
          "velocity": 0.3228346456692913,
          "duration": 0.08532425000001354
        },
        {
          "name": "G#3",
          "midi": 56,
          "time": 182.50857075000786,
          "velocity": 0.23622047244094488,
          "duration": 0.08532425000001354
        },
        {
          "name": "D#4",
          "midi": 63,
          "time": 182.59389500000788,
          "velocity": 0.2677165354330709,
          "duration": 0.08532425000001354
        },
        {
          "name": "C#4",
          "midi": 61,
          "time": 182.6792192500079,
          "velocity": 0.23622047244094488,
          "duration": 0.08532425000001354
        },
        {
          "name": "G#4",
          "midi": 68,
          "time": 182.7645435000079,
          "velocity": 0.30708661417322836,
          "duration": 0.08532425000001354
        },
        {
          "name": "G#3",
          "midi": 56,
          "time": 182.84986775000792,
          "velocity": 0.2755905511811024,
          "duration": 0.08532425000001354
        },
        {
          "name": "D#4",
          "midi": 63,
          "time": 182.93519200000793,
          "velocity": 0.28346456692913385,
          "duration": 0.08532425000001354
        },
        {
          "name": "C#4",
          "midi": 61,
          "time": 183.02051625000794,
          "velocity": 0.2283464566929134,
          "duration": 0.08532425000001354
        },
        {
          "name": "G#4",
          "midi": 68,
          "time": 183.10584050000796,
          "velocity": 0.2755905511811024,
          "duration": 0.08532425000001354
        },
        {
          "name": "F3",
          "midi": 53,
          "time": 183.19116475000797,
          "velocity": 0.29133858267716534,
          "duration": 0.08532425000001354
        },
        {
          "name": "D#4",
          "midi": 63,
          "time": 183.27648900000798,
          "velocity": 0.3464566929133858,
          "duration": 0.08532425000001354
        },
        {
          "name": "C#4",
          "midi": 61,
          "time": 183.361813250008,
          "velocity": 0.2204724409448819,
          "duration": 0.08532425000001354
        },
        {
          "name": "G#4",
          "midi": 68,
          "time": 183.447137500008,
          "velocity": 0.28346456692913385,
          "duration": 0.08532425000001354
        },
        {
          "name": "F3",
          "midi": 53,
          "time": 183.53246175000803,
          "velocity": 0.29133858267716534,
          "duration": 0.08532425000001354
        },
        {
          "name": "D#4",
          "midi": 63,
          "time": 183.61778600000804,
          "velocity": 0.33858267716535434,
          "duration": 0.08532425000001354
        },
        {
          "name": "C#4",
          "midi": 61,
          "time": 183.70311025000805,
          "velocity": 0.2283464566929134,
          "duration": 0.08532425000001354
        },
        {
          "name": "G#4",
          "midi": 68,
          "time": 183.78843450000807,
          "velocity": 0.29133858267716534,
          "duration": 0.08532425000001354
        },
        {
          "name": "F3",
          "midi": 53,
          "time": 183.87375875000808,
          "velocity": 0.29133858267716534,
          "duration": 0.08532425000001354
        },
        {
          "name": "D#4",
          "midi": 63,
          "time": 183.9590830000081,
          "velocity": 0.3543307086614173,
          "duration": 0.08532425000001354
        },
        {
          "name": "C#4",
          "midi": 61,
          "time": 184.0444072500081,
          "velocity": 0.2125984251968504,
          "duration": 0.08532425000001354
        },
        {
          "name": "G#4",
          "midi": 68,
          "time": 184.12973150000812,
          "velocity": 0.28346456692913385,
          "duration": 0.08532425000001354
        },
        {
          "name": "F3",
          "midi": 53,
          "time": 184.21505575000813,
          "velocity": 0.2440944881889764,
          "duration": 0.08532425000001354
        },
        {
          "name": "F4",
          "midi": 65,
          "time": 184.30038000000815,
          "velocity": 0.25196850393700787,
          "duration": 0.08532425000001354
        },
        {
          "name": "D#4",
          "midi": 63,
          "time": 184.38997046250816,
          "velocity": 0.2283464566929134,
          "duration": 0.08532424999998511
        },
        {
          "name": "G#4",
          "midi": 68,
          "time": 184.47102850000815,
          "velocity": 0.2755905511811024,
          "duration": 0.08532424999998511
        },
        {
          "name": "F#3",
          "midi": 54,
          "time": 184.55635275000813,
          "velocity": 0.2992125984251969,
          "duration": 0.08532425000001354
        },
        {
          "name": "F4",
          "midi": 65,
          "time": 184.64167700000814,
          "velocity": 0.3464566929133858,
          "duration": 0.08532425000001354
        },
        {
          "name": "D#4",
          "midi": 63,
          "time": 184.72700125000816,
          "velocity": 0.2204724409448819,
          "duration": 0.08532425000001354
        },
        {
          "name": "G#4",
          "midi": 68,
          "time": 184.81232550000817,
          "velocity": 0.2755905511811024,
          "duration": 0.08532425000001354
        },
        {
          "name": "F#3",
          "midi": 54,
          "time": 184.89764975000818,
          "velocity": 0.2992125984251969,
          "duration": 0.08532425000001354
        },
        {
          "name": "F4",
          "midi": 65,
          "time": 184.9872402125082,
          "velocity": 0.33070866141732286,
          "duration": 0.08532425000001354
        },
        {
          "name": "D#4",
          "midi": 63,
          "time": 185.0725644625082,
          "velocity": 0.2283464566929134,
          "duration": 0.08532424999998511
        },
        {
          "name": "G#4",
          "midi": 68,
          "time": 185.1536225000082,
          "velocity": 0.29133858267716534,
          "duration": 0.08532424999998511
        },
        {
          "name": "F#3",
          "midi": 54,
          "time": 185.23894675000818,
          "velocity": 0.29133858267716534,
          "duration": 0.08532425000001354
        },
        {
          "name": "F4",
          "midi": 65,
          "time": 185.3242710000082,
          "velocity": 0.31496062992125984,
          "duration": 0.08532425000001354
        },
        {
          "name": "D#4",
          "midi": 63,
          "time": 185.4095952500082,
          "velocity": 0.2125984251968504,
          "duration": 0.08532425000001354
        },
        {
          "name": "G#4",
          "midi": 68,
          "time": 185.49491950000822,
          "velocity": 0.2755905511811024,
          "duration": 0.08532425000001354
        },
        {
          "name": "F#3",
          "midi": 54,
          "time": 185.58024375000824,
          "velocity": 0.2992125984251969,
          "duration": 0.08532425000001354
        },
        {
          "name": "F#3",
          "midi": 54,
          "time": 185.75089225000826,
          "velocity": 0.2992125984251969,
          "duration": 1.279863750000004
        },
        {
          "name": "G#3",
          "midi": 56,
          "time": 185.79355437500826,
          "velocity": 0.31496062992125984,
          "duration": 2.602389625000029
        },
        {
          "name": "C4",
          "midi": 60,
          "time": 185.83621650000825,
          "velocity": 0.33858267716535434,
          "duration": 1.194539500000019
        },
        {
          "name": "D#4",
          "midi": 63,
          "time": 185.92154075000826,
          "velocity": 0.3779527559055118,
          "duration": 1.1092152500000054
        },
        {
          "name": "F3",
          "midi": 53,
          "time": 187.11608025000828,
          "velocity": 0.2755905511811024,
          "duration": 1.279863750000004
        },
        {
          "name": "C#4",
          "midi": 61,
          "time": 187.15874237500827,
          "velocity": 0.33070866141732286,
          "duration": 1.2372016250000115
        }
      ],
      "controlChanges": {
        "7": [
          {
            "number": 7,
            "time": 0,
            "value": 0.7874015748031497
          }
        ],
        "91": [
          {
            "number": 91,
            "time": 0,
            "value": 1
          }
        ]
      }
    },
    {
      "startTime": 0,
      "duration": 188.39594399999933,
      "length": 1408,
      "id": 2,
      "name": "Piano left",
      "instrumentNumber": 1,
      "instrument": "bright acoustic piano",
      "instrumentFamily": "piano",
      "channelNumber": 0,
      "isPercussion": false,
      "notes": [
        {
          "name": "G#2",
          "midi": 44,
          "time": 0,
          "velocity": 0.6220472440944882,
          "duration": 2.7303759999999997
        },
        {
          "name": "G#3",
          "midi": 56,
          "time": 0,
          "velocity": 0.6220472440944882,
          "duration": 2.7303759999999997
        },
        {
          "name": "C#2",
          "midi": 37,
          "time": 2.7303759999999997,
          "velocity": 0.5905511811023622,
          "duration": 0.11376566666666665
        },
        {
          "name": "C#3",
          "midi": 49,
          "time": 2.7303759999999997,
          "velocity": 0.5905511811023622,
          "duration": 0.11376566666666665
        },
        {
          "name": "G#3",
          "midi": 56,
          "time": 2.8441416666666663,
          "velocity": 0.47244094488188976,
          "duration": 0.11376566666666665
        },
        {
          "name": "C#4",
          "midi": 61,
          "time": 2.957907333333333,
          "velocity": 0.5039370078740157,
          "duration": 0.11376566666666665
        },
        {
          "name": "E4",
          "midi": 64,
          "time": 3.0716729999999997,
          "velocity": 0.5118110236220472,
          "duration": 0.11376566666666665
        },
        {
          "name": "C#4",
          "midi": 61,
          "time": 3.1854386666666663,
          "velocity": 0.4881889763779528,
          "duration": 0.11376566666666665
        },
        {
          "name": "G#3",
          "midi": 56,
          "time": 3.299204333333333,
          "velocity": 0.48031496062992124,
          "duration": 0.11376566666666665
        },
        {
          "name": "C#3",
          "midi": 49,
          "time": 3.4129699999999996,
          "velocity": 0.44881889763779526,
          "duration": 0.11376566666666665
        },
        {
          "name": "G#3",
          "midi": 56,
          "time": 3.5267356666666663,
          "velocity": 0.4566929133858268,
          "duration": 0.11376566666666665
        },
        {
          "name": "C#4",
          "midi": 61,
          "time": 3.640501333333333,
          "velocity": 0.47244094488188976,
          "duration": 0.11376566666666665
        },
        {
          "name": "E4",
          "midi": 64,
          "time": 3.7542669999999996,
          "velocity": 0.47244094488188976,
          "duration": 0.11376566666666665
        },
        {
          "name": "C#4",
          "midi": 61,
          "time": 3.8680326666666662,
          "velocity": 0.4566929133858268,
          "duration": 0.11376566666666665
        },
        {
          "name": "G#3",
          "midi": 56,
          "time": 3.981798333333333,
          "velocity": 0.44881889763779526,
          "duration": 0.11376566666666665
        },
        {
          "name": "C#3",
          "midi": 49,
          "time": 4.0955639999999995,
          "velocity": 0.41732283464566927,
          "duration": 0.11376566666666665
        },
        {
          "name": "G#3",
          "midi": 56,
          "time": 4.209329666666666,
          "velocity": 0.4251968503937008,
          "duration": 0.11376566666666665
        },
        {
          "name": "C#4",
          "midi": 61,
          "time": 4.323095333333333,
          "velocity": 0.4330708661417323,
          "duration": 0.11376566666666665
        },
        {
          "name": "E4",
          "midi": 64,
          "time": 4.4368609999999995,
          "velocity": 0.4251968503937008,
          "duration": 0.11376566666666665
        },
        {
          "name": "C#4",
          "midi": 61,
          "time": 4.550626666666666,
          "velocity": 0.4094488188976378,
          "duration": 0.11376566666666665
        },
        {
          "name": "G#3",
          "midi": 56,
          "time": 4.664392333333333,
          "velocity": 0.3937007874015748,
          "duration": 0.11376566666666665
        },
        {
          "name": "C#3",
          "midi": 49,
          "time": 4.7781579999999995,
          "velocity": 0.3543307086614173,
          "duration": 0.11376566666666665
        },
        {
          "name": "G#3",
          "midi": 56,
          "time": 4.891923666666666,
          "velocity": 0.3700787401574803,
          "duration": 0.11376566666666665
        },
        {
          "name": "C#4",
          "midi": 61,
          "time": 5.005689333333333,
          "velocity": 0.3858267716535433,
          "duration": 0.11376566666666665
        },
        {
          "name": "E4",
          "midi": 64,
          "time": 5.119454999999999,
          "velocity": 0.36220472440944884,
          "duration": 0.11376566666666665
        },
        {
          "name": "C#4",
          "midi": 61,
          "time": 5.233220666666666,
          "velocity": 0.33858267716535434,
          "duration": 0.11376566666666665
        },
        {
          "name": "G#3",
          "midi": 56,
          "time": 5.346986333333333,
          "velocity": 0.2992125984251969,
          "duration": 0.11376566666666665
        },
        {
          "name": "C#3",
          "midi": 49,
          "time": 5.460751999999999,
          "velocity": 0.2125984251968504,
          "duration": 0.11376566666666665
        },
        {
          "name": "G#3",
          "midi": 56,
          "time": 5.574517666666666,
          "velocity": 0.23622047244094488,
          "duration": 0.11376566666666665
        },
        {
          "name": "C#4",
          "midi": 61,
          "time": 5.688283333333333,
          "velocity": 0.25984251968503935,
          "duration": 0.11376566666666665
        },
        {
          "name": "E4",
          "midi": 64,
          "time": 5.802048999999999,
          "velocity": 0.28346456692913385,
          "duration": 0.11376566666666665
        },
        {
          "name": "C#4",
          "midi": 61,
          "time": 5.915814666666666,
          "velocity": 0.2677165354330709,
          "duration": 0.11376566666666665
        },
        {
          "name": "G#3",
          "midi": 56,
          "time": 6.029580333333333,
          "velocity": 0.25196850393700787,
          "duration": 0.11376566666666665
        },
        {
          "name": "E3",
          "midi": 52,
          "time": 6.143345999999999,
          "velocity": 0.2440944881889764,
          "duration": 0.11376566666666665
        },
        {
          "name": "G#3",
          "midi": 56,
          "time": 6.257111666666666,
          "velocity": 0.25984251968503935,
          "duration": 0.11376566666666665
        },
        {
          "name": "C#4",
          "midi": 61,
          "time": 6.370877333333333,
          "velocity": 0.28346456692913385,
          "duration": 0.11376566666666665
        },
        {
          "name": "E4",
          "midi": 64,
          "time": 6.484642999999999,
          "velocity": 0.29133858267716534,
          "duration": 0.11376566666666665
        },
        {
          "name": "C#4",
          "midi": 61,
          "time": 6.598408666666666,
          "velocity": 0.2677165354330709,
          "duration": 0.11376566666666665
        },
        {
          "name": "G#3",
          "midi": 56,
          "time": 6.712174333333333,
          "velocity": 0.25196850393700787,
          "duration": 0.11376566666666665
        },
        {
          "name": "C#3",
          "midi": 49,
          "time": 6.825939999999999,
          "velocity": 0.25196850393700787,
          "duration": 0.11376566666666665
        },
        {
          "name": "G#3",
          "midi": 56,
          "time": 6.939705666666666,
          "velocity": 0.28346456692913385,
          "duration": 0.11376566666666665
        },
        {
          "name": "C#4",
          "midi": 61,
          "time": 7.0534713333333325,
          "velocity": 0.31496062992125984,
          "duration": 0.11376566666666665
        },
        {
          "name": "E4",
          "midi": 64,
          "time": 7.167236999999999,
          "velocity": 0.33858267716535434,
          "duration": 0.11376566666666665
        },
        {
          "name": "C#4",
          "midi": 61,
          "time": 7.281002666666666,
          "velocity": 0.3228346456692913,
          "duration": 0.11376566666666665
        },
        {
          "name": "G#3",
          "midi": 56,
          "time": 7.3947683333333325,
          "velocity": 0.30708661417322836,
          "duration": 0.11376566666666665
        },
        {
          "name": "E3",
          "midi": 52,
          "time": 7.508533999999999,
          "velocity": 0.29133858267716534,
          "duration": 0.11376566666666665
        },
        {
          "name": "G#3",
          "midi": 56,
          "time": 7.622299666666666,
          "velocity": 0.30708661417322836,
          "duration": 0.11376566666666665
        },
        {
          "name": "C#4",
          "midi": 61,
          "time": 7.7360653333333325,
          "velocity": 0.33858267716535434,
          "duration": 0.11376566666666665
        },
        {
          "name": "E4",
          "midi": 64,
          "time": 7.849830999999999,
          "velocity": 0.3464566929133858,
          "duration": 0.11376566666666665
        },
        {
          "name": "C#4",
          "midi": 61,
          "time": 7.963596666666666,
          "velocity": 0.3228346456692913,
          "duration": 0.11376566666666754
        },
        {
          "name": "G#3",
          "midi": 56,
          "time": 8.077362333333333,
          "velocity": 0.2992125984251969,
          "duration": 0.11376566666666577
        },
        {
          "name": "D#3",
          "midi": 51,
          "time": 8.191127999999999,
          "velocity": 0.29133858267716534,
          "duration": 0.11376566666666577
        },
        {
          "name": "A3",
          "midi": 57,
          "time": 8.304893666666665,
          "velocity": 0.33070866141732286,
          "duration": 0.11376566666666577
        },
        {
          "name": "C#4",
          "midi": 61,
          "time": 8.41865933333333,
          "velocity": 0.3700787401574803,
          "duration": 0.11376566666666577
        },
        {
          "name": "F#4",
          "midi": 66,
          "time": 8.532424999999996,
          "velocity": 0.41732283464566927,
          "duration": 0.11376566666666577
        },
        {
          "name": "C#4",
          "midi": 61,
          "time": 8.646190666666662,
          "velocity": 0.3700787401574803,
          "duration": 0.11376566666666577
        },
        {
          "name": "A3",
          "midi": 57,
          "time": 8.759956333333328,
          "velocity": 0.3464566929133858,
          "duration": 0.11376566666666577
        },
        {
          "name": "F#3",
          "midi": 54,
          "time": 8.873721999999994,
          "velocity": 0.3464566929133858,
          "duration": 0.11376566666666577
        },
        {
          "name": "C#4",
          "midi": 61,
          "time": 8.98748766666666,
          "velocity": 0.3779527559055118,
          "duration": 0.11376566666666577
        },
        {
          "name": "D#4",
          "midi": 63,
          "time": 9.101253333333325,
          "velocity": 0.4094488188976378,
          "duration": 0.11376566666666577
        },
        {
          "name": "A4",
          "midi": 69,
          "time": 9.215018999999991,
          "velocity": 0.4330708661417323,
          "duration": 0.11376566666666577
        },
        {
          "name": "D#4",
          "midi": 63,
          "time": 9.328784666666657,
          "velocity": 0.4094488188976378,
          "duration": 0.11376566666666577
        },
        {
          "name": "C#4",
          "midi": 61,
          "time": 9.442550333333322,
          "velocity": 0.3858267716535433,
          "duration": 0.11376566666666577
        },
        {
          "name": "G#2",
          "midi": 44,
          "time": 9.556315999999988,
          "velocity": 0.30708661417322836,
          "duration": 0.11376566666666577
        },
        {
          "name": "D#3",
          "midi": 51,
          "time": 9.670081666666654,
          "velocity": 0.33070866141732286,
          "duration": 0.11376566666666577
        },
        {
          "name": "F#3",
          "midi": 54,
          "time": 9.78384733333332,
          "velocity": 0.3543307086614173,
          "duration": 0.11376566666666577
        },
        {
          "name": "C4",
          "midi": 60,
          "time": 9.897612999999986,
          "velocity": 0.36220472440944884,
          "duration": 0.11376566666666577
        },
        {
          "name": "F#3",
          "midi": 54,
          "time": 10.011378666666651,
          "velocity": 0.33858267716535434,
          "duration": 0.11376566666666577
        },
        {
          "name": "D#3",
          "midi": 51,
          "time": 10.125144333333317,
          "velocity": 0.31496062992125984,
          "duration": 0.11376566666666577
        },
        {
          "name": "G#2",
          "midi": 44,
          "time": 10.238909999999983,
          "velocity": 0.2755905511811024,
          "duration": 0.11376566666666577
        },
        {
          "name": "D#3",
          "midi": 51,
          "time": 10.352675666666649,
          "velocity": 0.29133858267716534,
          "duration": 0.11376566666666577
        },
        {
          "name": "F#3",
          "midi": 54,
          "time": 10.466441333333314,
          "velocity": 0.30708661417322836,
          "duration": 0.11376566666666577
        },
        {
          "name": "C4",
          "midi": 60,
          "time": 10.58020699999998,
          "velocity": 0.30708661417322836,
          "duration": 0.11376566666666577
        },
        {
          "name": "F#3",
          "midi": 54,
          "time": 10.693972666666646,
          "velocity": 0.2755905511811024,
          "duration": 0.11376566666666577
        },
        {
          "name": "D#3",
          "midi": 51,
          "time": 10.807738333333312,
          "velocity": 0.2440944881889764,
          "duration": 0.11376566666666577
        },
        {
          "name": "C#3",
          "midi": 49,
          "time": 10.921503999999977,
          "velocity": 0.2125984251968504,
          "duration": 0.11376566666666577
        },
        {
          "name": "G#3",
          "midi": 56,
          "time": 11.035269666666643,
          "velocity": 0.23622047244094488,
          "duration": 0.11376566666666577
        },
        {
          "name": "C#4",
          "midi": 61,
          "time": 11.149035333333309,
          "velocity": 0.25984251968503935,
          "duration": 0.11376566666666577
        },
        {
          "name": "E4",
          "midi": 64,
          "time": 11.262800999999975,
          "velocity": 0.28346456692913385,
          "duration": 0.11376566666666577
        },
        {
          "name": "C#4",
          "midi": 61,
          "time": 11.37656666666664,
          "velocity": 0.2677165354330709,
          "duration": 0.11376566666666577
        },
        {
          "name": "G#3",
          "midi": 56,
          "time": 11.490332333333306,
          "velocity": 0.25196850393700787,
          "duration": 0.11376566666666577
        },
        {
          "name": "E3",
          "midi": 52,
          "time": 11.604097999999972,
          "velocity": 0.2440944881889764,
          "duration": 0.11376566666666754
        },
        {
          "name": "G#3",
          "midi": 56,
          "time": 11.71786366666664,
          "velocity": 0.25984251968503935,
          "duration": 0.11376566666666754
        },
        {
          "name": "C#4",
          "midi": 61,
          "time": 11.831629333333307,
          "velocity": 0.28346456692913385,
          "duration": 0.11376566666666577
        },
        {
          "name": "E4",
          "midi": 64,
          "time": 11.945394999999973,
          "velocity": 0.29133858267716534,
          "duration": 0.11376566666666577
        },
        {
          "name": "C#4",
          "midi": 61,
          "time": 12.059160666666639,
          "velocity": 0.2677165354330709,
          "duration": 0.11376566666666577
        },
        {
          "name": "G#3",
          "midi": 56,
          "time": 12.172926333333304,
          "velocity": 0.25196850393700787,
          "duration": 0.11376566666666577
        },
        {
          "name": "C#3",
          "midi": 49,
          "time": 12.28669199999997,
          "velocity": 0.25196850393700787,
          "duration": 0.11376566666666577
        },
        {
          "name": "G#3",
          "midi": 56,
          "time": 12.400457666666636,
          "velocity": 0.28346456692913385,
          "duration": 0.11376566666666577
        },
        {
          "name": "A#3",
          "midi": 58,
          "time": 12.514223333333302,
          "velocity": 0.31496062992125984,
          "duration": 0.11376566666666577
        },
        {
          "name": "E4",
          "midi": 64,
          "time": 12.627988999999967,
          "velocity": 0.33858267716535434,
          "duration": 0.11376566666666577
        },
        {
          "name": "A#3",
          "midi": 58,
          "time": 12.741754666666633,
          "velocity": 0.3228346456692913,
          "duration": 0.11376566666666577
        },
        {
          "name": "G#3",
          "midi": 56,
          "time": 12.855520333333299,
          "velocity": 0.30708661417322836,
          "duration": 0.11376566666666577
        },
        {
          "name": "E3",
          "midi": 52,
          "time": 12.969285999999965,
          "velocity": 0.29133858267716534,
          "duration": 0.11376566666666754
        },
        {
          "name": "G#3",
          "midi": 56,
          "time": 13.083051666666632,
          "velocity": 0.30708661417322836,
          "duration": 0.11376566666666754
        },
        {
          "name": "A#3",
          "midi": 58,
          "time": 13.1968173333333,
          "velocity": 0.33858267716535434,
          "duration": 0.11376566666666577
        },
        {
          "name": "C#4",
          "midi": 61,
          "time": 13.310582999999966,
          "velocity": 0.3464566929133858,
          "duration": 0.11376566666666577
        },
        {
          "name": "A#3",
          "midi": 58,
          "time": 13.424348666666631,
          "velocity": 0.3228346456692913,
          "duration": 0.11376566666666577
        },
        {
          "name": "G#3",
          "midi": 56,
          "time": 13.538114333333297,
          "velocity": 0.2992125984251969,
          "duration": 0.11376566666666577
        },
        {
          "name": "D#3",
          "midi": 51,
          "time": 13.651879999999963,
          "velocity": 0.28346456692913385,
          "duration": 0.11376566666666577
        },
        {
          "name": "G#3",
          "midi": 56,
          "time": 13.765645666666629,
          "velocity": 0.31496062992125984,
          "duration": 0.11376566666666577
        },
        {
          "name": "B3",
          "midi": 59,
          "time": 13.879411333333294,
          "velocity": 0.3464566929133858,
          "duration": 0.11376566666666577
        },
        {
          "name": "D#4",
          "midi": 63,
          "time": 13.99317699999996,
          "velocity": 0.3700787401574803,
          "duration": 0.11376566666666577
        },
        {
          "name": "B3",
          "midi": 59,
          "time": 14.106942666666626,
          "velocity": 0.3543307086614173,
          "duration": 0.11376566666666577
        },
        {
          "name": "G#3",
          "midi": 56,
          "time": 14.220708333333292,
          "velocity": 0.33070866141732286,
          "duration": 0.11376566666666577
        },
        {
          "name": "D#3",
          "midi": 51,
          "time": 14.334473999999958,
          "velocity": 0.3543307086614173,
          "duration": 0.11376566666666577
        },
        {
          "name": "A#3",
          "midi": 58,
          "time": 14.448239666666623,
          "velocity": 0.3858267716535433,
          "duration": 0.11376566666666577
        },
        {
          "name": "C#4",
          "midi": 61,
          "time": 14.562005333333289,
          "velocity": 0.41732283464566927,
          "duration": 0.11376566666666577
        },
        {
          "name": "G4",
          "midi": 67,
          "time": 14.675770999999955,
          "velocity": 0.4330708661417323,
          "duration": 0.11376566666666577
        },
        {
          "name": "C#4",
          "midi": 61,
          "time": 14.78953666666662,
          "velocity": 0.4094488188976378,
          "duration": 0.11376566666666577
        },
        {
          "name": "A#3",
          "midi": 58,
          "time": 14.903302333333286,
          "velocity": 0.3858267716535433,
          "duration": 0.11376566666666577
        },
        {
          "name": "G#2",
          "midi": 44,
          "time": 15.017067999999952,
          "velocity": 0.30708661417322836,
          "duration": 0.11376566666666577
        },
        {
          "name": "D#3",
          "midi": 51,
          "time": 15.130833666666618,
          "velocity": 0.33070866141732286,
          "duration": 0.11376566666666577
        },
        {
          "name": "G#3",
          "midi": 56,
          "time": 15.244599333333284,
          "velocity": 0.3464566929133858,
          "duration": 0.11376566666666577
        },
        {
          "name": "B3",
          "midi": 59,
          "time": 15.35836499999995,
          "velocity": 0.3700787401574803,
          "duration": 0.11376566666666577
        },
        {
          "name": "G#3",
          "midi": 56,
          "time": 15.472130666666615,
          "velocity": 0.36220472440944884,
          "duration": 0.11376566666666577
        },
        {
          "name": "D#3",
          "midi": 51,
          "time": 15.585896333333281,
          "velocity": 0.3464566929133858,
          "duration": 0.11376566666666577
        },
        {
          "name": "G#2",
          "midi": 44,
          "time": 15.699661999999947,
          "velocity": 0.30708661417322836,
          "duration": 0.11376566666666577
        },
        {
          "name": "D#3",
          "midi": 51,
          "time": 15.813427666666612,
          "velocity": 0.33070866141732286,
          "duration": 0.11376566666666577
        },
        {
          "name": "G#3",
          "midi": 56,
          "time": 15.927193333333278,
          "velocity": 0.3543307086614173,
          "duration": 0.11376566666666577
        },
        {
          "name": "B3",
          "midi": 59,
          "time": 16.040958999999944,
          "velocity": 0.36220472440944884,
          "duration": 0.11376566666666577
        },
        {
          "name": "G#3",
          "midi": 56,
          "time": 16.15472466666661,
          "velocity": 0.33070866141732286,
          "duration": 0.11376566666666577
        },
        {
          "name": "D#3",
          "midi": 51,
          "time": 16.268490333333276,
          "velocity": 0.30708661417322836,
          "duration": 0.11376566666666577
        },
        {
          "name": "A2",
          "midi": 45,
          "time": 16.38225599999994,
          "velocity": 0.36220472440944884,
          "duration": 0.11376566666666577
        },
        {
          "name": "C#3",
          "midi": 49,
          "time": 16.496021666666607,
          "velocity": 0.3858267716535433,
          "duration": 0.11376566666666577
        },
        {
          "name": "F#3",
          "midi": 54,
          "time": 16.609787333333273,
          "velocity": 0.4015748031496063,
          "duration": 0.11376566666666577
        },
        {
          "name": "A3",
          "midi": 57,
          "time": 16.72355299999994,
          "velocity": 0.41732283464566927,
          "duration": 0.11376566666666577
        },
        {
          "name": "F#3",
          "midi": 54,
          "time": 16.837318666666604,
          "velocity": 0.4094488188976378,
          "duration": 0.11376566666666577
        },
        {
          "name": "C#3",
          "midi": 49,
          "time": 16.95108433333327,
          "velocity": 0.3937007874015748,
          "duration": 0.11376566666666577
        },
        {
          "name": "A2",
          "midi": 45,
          "time": 17.064849999999936,
          "velocity": 0.3937007874015748,
          "duration": 0.11376566666666577
        },
        {
          "name": "C#3",
          "midi": 49,
          "time": 17.1786156666666,
          "velocity": 0.4094488188976378,
          "duration": 0.11376566666666577
        },
        {
          "name": "F#3",
          "midi": 54,
          "time": 17.292381333333267,
          "velocity": 0.4251968503937008,
          "duration": 0.11376566666666577
        },
        {
          "name": "A3",
          "midi": 57,
          "time": 17.406146999999933,
          "velocity": 0.4251968503937008,
          "duration": 0.11376566666666577
        },
        {
          "name": "F#3",
          "midi": 54,
          "time": 17.5199126666666,
          "velocity": 0.41732283464566927,
          "duration": 0.11376566666666577
        },
        {
          "name": "C#3",
          "midi": 49,
          "time": 17.633678333333265,
          "velocity": 0.4094488188976378,
          "duration": 0.11376566666666577
        },
        {
          "name": "B2",
          "midi": 47,
          "time": 17.74744399999993,
          "velocity": 0.4094488188976378,
          "duration": 0.11376566666666577
        },
        {
          "name": "F#3",
          "midi": 54,
          "time": 17.861209666666596,
          "velocity": 0.4330708661417323,
          "duration": 0.11376566666666577
        },
        {
          "name": "A3",
          "midi": 57,
          "time": 17.974975333333262,
          "velocity": 0.44881889763779526,
          "duration": 0.11376566666666577
        },
        {
          "name": "B3",
          "midi": 59,
          "time": 18.088740999999928,
          "velocity": 0.4566929133858268,
          "duration": 0.11376566666666577
        },
        {
          "name": "A3",
          "midi": 57,
          "time": 18.202506666666594,
          "velocity": 0.4409448818897638,
          "duration": 0.11376566666666577
        },
        {
          "name": "F#3",
          "midi": 54,
          "time": 18.31627233333326,
          "velocity": 0.4251968503937008,
          "duration": 0.11376566666666577
        },
        {
          "name": "E2",
          "midi": 40,
          "time": 18.430037999999925,
          "velocity": 0.41732283464566927,
          "duration": 0.11376566666666932
        },
        {
          "name": "B2",
          "midi": 47,
          "time": 18.543803666666594,
          "velocity": 0.4330708661417323,
          "duration": 0.11376566666666577
        },
        {
          "name": "E3",
          "midi": 52,
          "time": 18.65756933333326,
          "velocity": 0.44881889763779526,
          "duration": 0.11376566666666577
        },
        {
          "name": "G#3",
          "midi": 56,
          "time": 18.771334999999926,
          "velocity": 0.4409448818897638,
          "duration": 0.11376566666666577
        },
        {
          "name": "E3",
          "midi": 52,
          "time": 18.88510066666659,
          "velocity": 0.4330708661417323,
          "duration": 0.11376566666666577
        },
        {
          "name": "B2",
          "midi": 47,
          "time": 18.998866333333257,
          "velocity": 0.41732283464566927,
          "duration": 0.11376566666666577
        },
        {
          "name": "A2",
          "midi": 45,
          "time": 19.112631999999923,
          "velocity": 0.4094488188976378,
          "duration": 0.11376566666666577
        },
        {
          "name": "C#3",
          "midi": 49,
          "time": 19.22639766666659,
          "velocity": 0.4330708661417323,
          "duration": 0.11376566666666577
        },
        {
          "name": "F#3",
          "midi": 54,
          "time": 19.340163333333255,
          "velocity": 0.44881889763779526,
          "duration": 0.11376566666666577
        },
        {
          "name": "A3",
          "midi": 57,
          "time": 19.45392899999992,
          "velocity": 0.4566929133858268,
          "duration": 0.11376566666666577
        },
        {
          "name": "F#3",
          "midi": 54,
          "time": 19.567694666666586,
          "velocity": 0.4409448818897638,
          "duration": 0.11376566666666577
        },
        {
          "name": "C#3",
          "midi": 49,
          "time": 19.681460333333252,
          "velocity": 0.4251968503937008,
          "duration": 0.11376566666666577
        },
        {
          "name": "A2",
          "midi": 45,
          "time": 19.795225999999918,
          "velocity": 0.41732283464566927,
          "duration": 0.11376566666666577
        },
        {
          "name": "C#3",
          "midi": 49,
          "time": 19.908991666666584,
          "velocity": 0.4330708661417323,
          "duration": 0.11376566666666577
        },
        {
          "name": "F#3",
          "midi": 54,
          "time": 20.02275733333325,
          "velocity": 0.44881889763779526,
          "duration": 0.11376566666666577
        },
        {
          "name": "A3",
          "midi": 57,
          "time": 20.136522999999915,
          "velocity": 0.4409448818897638,
          "duration": 0.11376566666666577
        },
        {
          "name": "F#3",
          "midi": 54,
          "time": 20.25028866666658,
          "velocity": 0.4330708661417323,
          "duration": 0.11376566666666577
        },
        {
          "name": "C#3",
          "midi": 49,
          "time": 20.364054333333247,
          "velocity": 0.41732283464566927,
          "duration": 0.11376566666666577
        },
        {
          "name": "B2",
          "midi": 47,
          "time": 20.477819999999912,
          "velocity": 0.4094488188976378,
          "duration": 0.11376566666666577
        },
        {
          "name": "D#3",
          "midi": 51,
          "time": 20.591585666666578,
          "velocity": 0.4330708661417323,
          "duration": 0.11376566666666577
        },
        {
          "name": "A3",
          "midi": 57,
          "time": 20.705351333333244,
          "velocity": 0.44881889763779526,
          "duration": 0.11376566666666577
        },
        {
          "name": "B3",
          "midi": 59,
          "time": 20.81911699999991,
          "velocity": 0.4566929133858268,
          "duration": 0.11376566666666577
        },
        {
          "name": "A3",
          "midi": 57,
          "time": 20.932882666666575,
          "velocity": 0.4409448818897638,
          "duration": 0.11376566666666577
        },
        {
          "name": "D#3",
          "midi": 51,
          "time": 21.04664833333324,
          "velocity": 0.4251968503937008,
          "duration": 0.11376566666666577
        },
        {
          "name": "E2",
          "midi": 40,
          "time": 21.160413999999907,
          "velocity": 0.41732283464566927,
          "duration": 0.11376566666666577
        },
        {
          "name": "B2",
          "midi": 47,
          "time": 21.274179666666573,
          "velocity": 0.4330708661417323,
          "duration": 0.11376566666666577
        },
        {
          "name": "E3",
          "midi": 52,
          "time": 21.38794533333324,
          "velocity": 0.44881889763779526,
          "duration": 0.11376566666666577
        },
        {
          "name": "G#3",
          "midi": 56,
          "time": 21.501710999999904,
          "velocity": 0.4409448818897638,
          "duration": 0.11376566666666577
        },
        {
          "name": "E3",
          "midi": 52,
          "time": 21.61547666666657,
          "velocity": 0.4330708661417323,
          "duration": 0.11376566666666577
        },
        {
          "name": "B2",
          "midi": 47,
          "time": 21.729242333333236,
          "velocity": 0.41732283464566927,
          "duration": 0.11376566666666577
        },
        {
          "name": "A2",
          "midi": 45,
          "time": 21.8430079999999,
          "velocity": 0.28346456692913385,
          "duration": 0.11376566666666577
        },
        {
          "name": "C#3",
          "midi": 49,
          "time": 21.956773666666567,
          "velocity": 0.30708661417322836,
          "duration": 0.11376566666666577
        },
        {
          "name": "F#3",
          "midi": 54,
          "time": 22.070539333333233,
          "velocity": 0.31496062992125984,
          "duration": 0.11376566666666577
        },
        {
          "name": "A3",
          "midi": 57,
          "time": 22.1843049999999,
          "velocity": 0.33070866141732286,
          "duration": 0.11376566666666577
        },
        {
          "name": "F#3",
          "midi": 54,
          "time": 22.298070666666565,
          "velocity": 0.3228346456692913,
          "duration": 0.11376566666666577
        },
        {
          "name": "C#3",
          "midi": 49,
          "time": 22.41183633333323,
          "velocity": 0.31496062992125984,
          "duration": 0.11376566666666577
        },
        {
          "name": "A2",
          "midi": 45,
          "time": 22.525601999999896,
          "velocity": 0.31496062992125984,
          "duration": 0.11376566666666577
        },
        {
          "name": "C#3",
          "midi": 49,
          "time": 22.639367666666562,
          "velocity": 0.3228346456692913,
          "duration": 0.11376566666666577
        },
        {
          "name": "F#3",
          "midi": 54,
          "time": 22.753133333333228,
          "velocity": 0.33858267716535434,
          "duration": 0.11376566666666577
        },
        {
          "name": "A3",
          "midi": 57,
          "time": 22.866898999999894,
          "velocity": 0.33858267716535434,
          "duration": 0.11376566666666577
        },
        {
          "name": "F#3",
          "midi": 54,
          "time": 22.98066466666656,
          "velocity": 0.33070866141732286,
          "duration": 0.11376566666666577
        },
        {
          "name": "C#3",
          "midi": 49,
          "time": 23.094430333333225,
          "velocity": 0.3228346456692913,
          "duration": 0.11376566666666577
        },
        {
          "name": "B2",
          "midi": 47,
          "time": 23.20819599999989,
          "velocity": 0.3228346456692913,
          "duration": 0.11376566666666577
        },
        {
          "name": "F#3",
          "midi": 54,
          "time": 23.321961666666557,
          "velocity": 0.3464566929133858,
          "duration": 0.11376566666666577
        },
        {
          "name": "A3",
          "midi": 57,
          "time": 23.435727333333222,
          "velocity": 0.3543307086614173,
          "duration": 0.11376566666666577
        },
        {
          "name": "B3",
          "midi": 59,
          "time": 23.549492999999888,
          "velocity": 0.3700787401574803,
          "duration": 0.11376566666666577
        },
        {
          "name": "A3",
          "midi": 57,
          "time": 23.663258666666554,
          "velocity": 0.3543307086614173,
          "duration": 0.11376566666666577
        },
        {
          "name": "F#3",
          "midi": 54,
          "time": 23.77702433333322,
          "velocity": 0.3543307086614173,
          "duration": 0.11376566666666577
        },
        {
          "name": "E2",
          "midi": 40,
          "time": 23.890789999999885,
          "velocity": 0.3464566929133858,
          "duration": 0.11376566666666932
        },
        {
          "name": "B2",
          "midi": 47,
          "time": 24.004555666666555,
          "velocity": 0.3700787401574803,
          "duration": 0.11376566666666577
        },
        {
          "name": "E3",
          "midi": 52,
          "time": 24.11832133333322,
          "velocity": 0.3779527559055118,
          "duration": 0.11376566666666577
        },
        {
          "name": "G#3",
          "midi": 56,
          "time": 24.232086999999886,
          "velocity": 0.3779527559055118,
          "duration": 0.11376566666666577
        },
        {
          "name": "E3",
          "midi": 52,
          "time": 24.345852666666552,
          "velocity": 0.3779527559055118,
          "duration": 0.11376566666666577
        },
        {
          "name": "B2",
          "midi": 47,
          "time": 24.459618333333218,
          "velocity": 0.3700787401574803,
          "duration": 0.11376566666666577
        },
        {
          "name": "A2",
          "midi": 45,
          "time": 24.573383999999884,
          "velocity": 0.36220472440944884,
          "duration": 0.11376566666666577
        },
        {
          "name": "C#3",
          "midi": 49,
          "time": 24.68714966666655,
          "velocity": 0.3937007874015748,
          "duration": 0.11376566666666577
        },
        {
          "name": "F#3",
          "midi": 54,
          "time": 24.800915333333215,
          "velocity": 0.4015748031496063,
          "duration": 0.11376566666666577
        },
        {
          "name": "A3",
          "midi": 57,
          "time": 24.91468099999988,
          "velocity": 0.41732283464566927,
          "duration": 0.11376566666666577
        },
        {
          "name": "F#3",
          "midi": 54,
          "time": 25.028446666666547,
          "velocity": 0.4015748031496063,
          "duration": 0.11376566666666577
        },
        {
          "name": "C#3",
          "midi": 49,
          "time": 25.142212333333212,
          "velocity": 0.3937007874015748,
          "duration": 0.11376566666666577
        },
        {
          "name": "A2",
          "midi": 45,
          "time": 25.255977999999878,
          "velocity": 0.3937007874015748,
          "duration": 0.11376566666666932
        },
        {
          "name": "D#3",
          "midi": 51,
          "time": 25.369743666666547,
          "velocity": 0.4094488188976378,
          "duration": 0.11376566666666577
        },
        {
          "name": "F#3",
          "midi": 54,
          "time": 25.483509333333213,
          "velocity": 0.4251968503937008,
          "duration": 0.11376566666666577
        },
        {
          "name": "A3",
          "midi": 57,
          "time": 25.59727499999988,
          "velocity": 0.4094488188976378,
          "duration": 0.11376566666666577
        },
        {
          "name": "F#3",
          "midi": 54,
          "time": 25.711040666666545,
          "velocity": 0.4094488188976378,
          "duration": 0.11376566666666577
        },
        {
          "name": "D#3",
          "midi": 51,
          "time": 25.82480633333321,
          "velocity": 0.3937007874015748,
          "duration": 0.11376566666666577
        },
        {
          "name": "G#2",
          "midi": 44,
          "time": 25.938571999999876,
          "velocity": 0.3937007874015748,
          "duration": 0.11376566666666932
        },
        {
          "name": "D#3",
          "midi": 51,
          "time": 26.052337666666546,
          "velocity": 0.4094488188976378,
          "duration": 0.11376566666666577
        },
        {
          "name": "F#3",
          "midi": 54,
          "time": 26.16610333333321,
          "velocity": 0.41732283464566927,
          "duration": 0.11376566666666577
        },
        {
          "name": "C4",
          "midi": 60,
          "time": 26.279868999999877,
          "velocity": 0.3937007874015748,
          "duration": 0.11376566666666577
        },
        {
          "name": "F#3",
          "midi": 54,
          "time": 26.393634666666543,
          "velocity": 0.3937007874015748,
          "duration": 0.11376566666666577
        },
        {
          "name": "D#3",
          "midi": 51,
          "time": 26.50740033333321,
          "velocity": 0.3779527559055118,
          "duration": 0.11376566666666577
        },
        {
          "name": "G#2",
          "midi": 44,
          "time": 26.621165999999874,
          "velocity": 0.3700787401574803,
          "duration": 0.11376566666666577
        },
        {
          "name": "D#3",
          "midi": 51,
          "time": 26.73493166666654,
          "velocity": 0.3858267716535433,
          "duration": 0.11376566666666577
        },
        {
          "name": "F#3",
          "midi": 54,
          "time": 26.848697333333206,
          "velocity": 0.3937007874015748,
          "duration": 0.11376566666666577
        },
        {
          "name": "C4",
          "midi": 60,
          "time": 26.96246299999987,
          "velocity": 0.3779527559055118,
          "duration": 0.11376566666666577
        },
        {
          "name": "F#3",
          "midi": 54,
          "time": 27.076228666666537,
          "velocity": 0.3700787401574803,
          "duration": 0.11376566666666577
        },
        {
          "name": "D#3",
          "midi": 51,
          "time": 27.189994333333203,
          "velocity": 0.3543307086614173,
          "duration": 0.11376566666666577
        },
        {
          "name": "A2",
          "midi": 45,
          "time": 27.30375999999987,
          "velocity": 0.3543307086614173,
          "duration": 0.11376566666666932
        },
        {
          "name": "D#3",
          "midi": 51,
          "time": 27.41752566666654,
          "velocity": 0.36220472440944884,
          "duration": 0.11376566666666577
        },
        {
          "name": "F#3",
          "midi": 54,
          "time": 27.531291333333204,
          "velocity": 0.3779527559055118,
          "duration": 0.11376566666666577
        },
        {
          "name": "B3",
          "midi": 59,
          "time": 27.64505699999987,
          "velocity": 0.3543307086614173,
          "duration": 0.11376566666666577
        },
        {
          "name": "F#3",
          "midi": 54,
          "time": 27.758822666666536,
          "velocity": 0.3543307086614173,
          "duration": 0.11376566666666577
        },
        {
          "name": "D#3",
          "midi": 51,
          "time": 27.8725883333332,
          "velocity": 0.33858267716535434,
          "duration": 0.11376566666666577
        },
        {
          "name": "A#2",
          "midi": 46,
          "time": 27.986353999999867,
          "velocity": 0.33070866141732286,
          "duration": 0.11376566666666577
        },
        {
          "name": "D#3",
          "midi": 51,
          "time": 28.100119666666533,
          "velocity": 0.3464566929133858,
          "duration": 0.11376566666666577
        },
        {
          "name": "F#3",
          "midi": 54,
          "time": 28.2138853333332,
          "velocity": 0.3543307086614173,
          "duration": 0.11376566666666577
        },
        {
          "name": "A#3",
          "midi": 58,
          "time": 28.327650999999864,
          "velocity": 0.33858267716535434,
          "duration": 0.11376566666666577
        },
        {
          "name": "F#3",
          "midi": 54,
          "time": 28.44141666666653,
          "velocity": 0.33070866141732286,
          "duration": 0.11376566666666577
        },
        {
          "name": "D#3",
          "midi": 51,
          "time": 28.555182333333196,
          "velocity": 0.31496062992125984,
          "duration": 0.11376566666666577
        },
        {
          "name": "C3",
          "midi": 48,
          "time": 28.66894799999986,
          "velocity": 0.31496062992125984,
          "duration": 0.11376566666666932
        },
        {
          "name": "D#3",
          "midi": 51,
          "time": 28.78271366666653,
          "velocity": 0.3228346456692913,
          "duration": 0.11376566666666577
        },
        {
          "name": "F#3",
          "midi": 54,
          "time": 28.896479333333197,
          "velocity": 0.33070866141732286,
          "duration": 0.11376566666666577
        },
        {
          "name": "A3",
          "midi": 57,
          "time": 29.010244999999863,
          "velocity": 0.31496062992125984,
          "duration": 0.11376566666666577
        },
        {
          "name": "F#3",
          "midi": 54,
          "time": 29.12401066666653,
          "velocity": 0.31496062992125984,
          "duration": 0.11376566666666577
        },
        {
          "name": "D#3",
          "midi": 51,
          "time": 29.237776333333194,
          "velocity": 0.2992125984251969,
          "duration": 0.11376566666666577
        },
        {
          "name": "C3",
          "midi": 48,
          "time": 29.35154199999986,
          "velocity": 0.29133858267716534,
          "duration": 0.11376566666666577
        },
        {
          "name": "D#3",
          "midi": 51,
          "time": 29.465307666666526,
          "velocity": 0.30708661417322836,
          "duration": 0.11376566666666577
        },
        {
          "name": "F#3",
          "midi": 54,
          "time": 29.57907333333319,
          "velocity": 0.30708661417322836,
          "duration": 0.11376566666666577
        },
        {
          "name": "A3",
          "midi": 57,
          "time": 29.692838999999857,
          "velocity": 0.29133858267716534,
          "duration": 0.11376566666666577
        },
        {
          "name": "F#3",
          "midi": 54,
          "time": 29.806604666666523,
          "velocity": 0.29133858267716534,
          "duration": 0.11376566666666577
        },
        {
          "name": "D#3",
          "midi": 51,
          "time": 29.92037033333319,
          "velocity": 0.2755905511811024,
          "duration": 0.11376566666666577
        },
        {
          "name": "A2",
          "midi": 45,
          "time": 30.034135999999855,
          "velocity": 0.25984251968503935,
          "duration": 0.11376566666666932
        },
        {
          "name": "D#3",
          "midi": 51,
          "time": 30.147901666666524,
          "velocity": 0.2755905511811024,
          "duration": 0.11376566666666577
        },
        {
          "name": "F#3",
          "midi": 54,
          "time": 30.26166733333319,
          "velocity": 0.2755905511811024,
          "duration": 0.11376566666666577
        },
        {
          "name": "B3",
          "midi": 59,
          "time": 30.375432999999855,
          "velocity": 0.29133858267716534,
          "duration": 0.11376566666666577
        },
        {
          "name": "F#3",
          "midi": 54,
          "time": 30.48919866666652,
          "velocity": 0.2755905511811024,
          "duration": 0.11376566666666577
        },
        {
          "name": "D#3",
          "midi": 51,
          "time": 30.602964333333187,
          "velocity": 0.25984251968503935,
          "duration": 0.11376566666666577
        },
        {
          "name": "A#2",
          "midi": 46,
          "time": 30.716729999999853,
          "velocity": 0.23622047244094488,
          "duration": 0.11376566666666577
        },
        {
          "name": "D#3",
          "midi": 51,
          "time": 30.83049566666652,
          "velocity": 0.2440944881889764,
          "duration": 0.11376566666666577
        },
        {
          "name": "F#3",
          "midi": 54,
          "time": 30.944261333333184,
          "velocity": 0.25196850393700787,
          "duration": 0.11376566666666577
        },
        {
          "name": "A#3",
          "midi": 58,
          "time": 31.05802699999985,
          "velocity": 0.25984251968503935,
          "duration": 0.11376566666666577
        },
        {
          "name": "F#3",
          "midi": 54,
          "time": 31.171792666666516,
          "velocity": 0.25196850393700787,
          "duration": 0.11376566666666577
        },
        {
          "name": "D#3",
          "midi": 51,
          "time": 31.28555833333318,
          "velocity": 0.23622047244094488,
          "duration": 0.11376566666666577
        },
        {
          "name": "B2",
          "midi": 47,
          "time": 31.399323999999847,
          "velocity": 0.2283464566929134,
          "duration": 0.11376566666666932
        },
        {
          "name": "D#3",
          "midi": 51,
          "time": 31.513089666666517,
          "velocity": 0.2440944881889764,
          "duration": 0.11376566666666577
        },
        {
          "name": "F#3",
          "midi": 54,
          "time": 31.626855333333182,
          "velocity": 0.25196850393700787,
          "duration": 0.11376566666666577
        },
        {
          "name": "A3",
          "midi": 57,
          "time": 31.740620999999848,
          "velocity": 0.25984251968503935,
          "duration": 0.11376566666666577
        },
        {
          "name": "F#3",
          "midi": 54,
          "time": 31.854386666666514,
          "velocity": 0.25196850393700787,
          "duration": 0.11376566666666577
        },
        {
          "name": "D#3",
          "midi": 51,
          "time": 31.96815233333318,
          "velocity": 0.23622047244094488,
          "duration": 0.11376566666666577
        },
        {
          "name": "C3",
          "midi": 48,
          "time": 32.081917999999845,
          "velocity": 0.2125984251968504,
          "duration": 0.11376566666666577
        },
        {
          "name": "D#3",
          "midi": 51,
          "time": 32.19568366666651,
          "velocity": 0.2204724409448819,
          "duration": 0.11376566666666577
        },
        {
          "name": "F#3",
          "midi": 54,
          "time": 32.30944933333318,
          "velocity": 0.2283464566929134,
          "duration": 0.11376566666666577
        },
        {
          "name": "G#3",
          "midi": 56,
          "time": 32.42321499999984,
          "velocity": 0.2283464566929134,
          "duration": 0.11376566666666577
        },
        {
          "name": "F#3",
          "midi": 54,
          "time": 32.53698066666651,
          "velocity": 0.2204724409448819,
          "duration": 0.11376566666666577
        },
        {
          "name": "D#3",
          "midi": 51,
          "time": 32.650746333333174,
          "velocity": 0.2047244094488189,
          "duration": 0.11376566666666577
        },
        {
          "name": "C#3",
          "midi": 49,
          "time": 32.76451199999984,
          "velocity": 0.2125984251968504,
          "duration": 0.11376566666666577
        },
        {
          "name": "G#3",
          "midi": 56,
          "time": 32.878277666666506,
          "velocity": 0.23622047244094488,
          "duration": 0.11376566666666577
        },
        {
          "name": "C#4",
          "midi": 61,
          "time": 32.99204333333317,
          "velocity": 0.25984251968503935,
          "duration": 0.11376566666666577
        },
        {
          "name": "E4",
          "midi": 64,
          "time": 33.10580899999984,
          "velocity": 0.28346456692913385,
          "duration": 0.11376566666666577
        },
        {
          "name": "C#4",
          "midi": 61,
          "time": 33.2195746666665,
          "velocity": 0.2677165354330709,
          "duration": 0.11376566666666577
        },
        {
          "name": "G#3",
          "midi": 56,
          "time": 33.33334033333317,
          "velocity": 0.25196850393700787,
          "duration": 0.11376566666666577
        },
        {
          "name": "E3",
          "midi": 52,
          "time": 33.447105999999835,
          "velocity": 0.2440944881889764,
          "duration": 0.11376566666666577
        },
        {
          "name": "G#3",
          "midi": 56,
          "time": 33.5608716666665,
          "velocity": 0.25984251968503935,
          "duration": 0.11376566666666577
        },
        {
          "name": "C#4",
          "midi": 61,
          "time": 33.674637333333166,
          "velocity": 0.28346456692913385,
          "duration": 0.11376566666666577
        },
        {
          "name": "E4",
          "midi": 64,
          "time": 33.78840299999983,
          "velocity": 0.29133858267716534,
          "duration": 0.11376566666666577
        },
        {
          "name": "C#4",
          "midi": 61,
          "time": 33.9021686666665,
          "velocity": 0.2677165354330709,
          "duration": 0.11376566666666577
        },
        {
          "name": "G#3",
          "midi": 56,
          "time": 34.01593433333316,
          "velocity": 0.25196850393700787,
          "duration": 0.11376566666666577
        },
        {
          "name": "C#3",
          "midi": 49,
          "time": 34.12969999999983,
          "velocity": 0.25196850393700787,
          "duration": 0.11376566666666577
        },
        {
          "name": "G#3",
          "midi": 56,
          "time": 34.243465666666495,
          "velocity": 0.28346456692913385,
          "duration": 0.11376566666666577
        },
        {
          "name": "C#4",
          "midi": 61,
          "time": 34.35723133333316,
          "velocity": 0.31496062992125984,
          "duration": 0.11376566666666577
        },
        {
          "name": "E4",
          "midi": 64,
          "time": 34.47099699999983,
          "velocity": 0.33858267716535434,
          "duration": 0.11376566666666577
        },
        {
          "name": "C#4",
          "midi": 61,
          "time": 34.58476266666649,
          "velocity": 0.3228346456692913,
          "duration": 0.11376566666666577
        },
        {
          "name": "G#3",
          "midi": 56,
          "time": 34.69852833333316,
          "velocity": 0.30708661417322836,
          "duration": 0.11376566666666577
        },
        {
          "name": "E3",
          "midi": 52,
          "time": 34.812293999999824,
          "velocity": 0.29133858267716534,
          "duration": 0.11376566666666577
        },
        {
          "name": "G#3",
          "midi": 56,
          "time": 34.92605966666649,
          "velocity": 0.30708661417322836,
          "duration": 0.11376566666666577
        },
        {
          "name": "C#4",
          "midi": 61,
          "time": 35.039825333333155,
          "velocity": 0.33858267716535434,
          "duration": 0.11376566666666577
        },
        {
          "name": "E4",
          "midi": 64,
          "time": 35.15359099999982,
          "velocity": 0.3464566929133858,
          "duration": 0.11376566666666577
        },
        {
          "name": "C#4",
          "midi": 61,
          "time": 35.26735666666649,
          "velocity": 0.3228346456692913,
          "duration": 0.11376566666666577
        },
        {
          "name": "G#3",
          "midi": 56,
          "time": 35.38112233333315,
          "velocity": 0.2992125984251969,
          "duration": 0.11376566666666577
        },
        {
          "name": "D#3",
          "midi": 51,
          "time": 35.49488799999982,
          "velocity": 0.29133858267716534,
          "duration": 0.11376566666666577
        },
        {
          "name": "A3",
          "midi": 57,
          "time": 35.608653666666484,
          "velocity": 0.33070866141732286,
          "duration": 0.11376566666666577
        },
        {
          "name": "C#4",
          "midi": 61,
          "time": 35.72241933333315,
          "velocity": 0.3700787401574803,
          "duration": 0.11376566666666577
        },
        {
          "name": "F#4",
          "midi": 66,
          "time": 35.836184999999816,
          "velocity": 0.41732283464566927,
          "duration": 0.11376566666666577
        },
        {
          "name": "C#4",
          "midi": 61,
          "time": 35.94995066666648,
          "velocity": 0.3700787401574803,
          "duration": 0.11376566666666577
        },
        {
          "name": "A3",
          "midi": 57,
          "time": 36.06371633333315,
          "velocity": 0.3464566929133858,
          "duration": 0.11376566666666577
        },
        {
          "name": "F#3",
          "midi": 54,
          "time": 36.17748199999981,
          "velocity": 0.3464566929133858,
          "duration": 0.11376566666666577
        },
        {
          "name": "C#4",
          "midi": 61,
          "time": 36.29124766666648,
          "velocity": 0.3779527559055118,
          "duration": 0.11376566666666577
        },
        {
          "name": "D#4",
          "midi": 63,
          "time": 36.405013333333144,
          "velocity": 0.4094488188976378,
          "duration": 0.11376566666666577
        },
        {
          "name": "A4",
          "midi": 69,
          "time": 36.51877899999981,
          "velocity": 0.4330708661417323,
          "duration": 0.11376566666666577
        },
        {
          "name": "D#4",
          "midi": 63,
          "time": 36.632544666666476,
          "velocity": 0.4094488188976378,
          "duration": 0.11376566666666577
        },
        {
          "name": "C#4",
          "midi": 61,
          "time": 36.74631033333314,
          "velocity": 0.3858267716535433,
          "duration": 0.11376566666666577
        },
        {
          "name": "G#2",
          "midi": 44,
          "time": 36.86007599999981,
          "velocity": 0.30708661417322836,
          "duration": 0.11376566666666577
        },
        {
          "name": "D#3",
          "midi": 51,
          "time": 36.97384166666647,
          "velocity": 0.33858267716535434,
          "duration": 0.11376566666666577
        },
        {
          "name": "F#3",
          "midi": 54,
          "time": 37.08760733333314,
          "velocity": 0.3700787401574803,
          "duration": 0.11376566666666577
        },
        {
          "name": "C4",
          "midi": 60,
          "time": 37.201372999999805,
          "velocity": 0.3858267716535433,
          "duration": 0.11376566666666577
        },
        {
          "name": "F#3",
          "midi": 54,
          "time": 37.31513866666647,
          "velocity": 0.36220472440944884,
          "duration": 0.11376566666666577
        },
        {
          "name": "D#3",
          "midi": 51,
          "time": 37.428904333333136,
          "velocity": 0.3464566929133858,
          "duration": 0.11376566666666577
        },
        {
          "name": "G#2",
          "midi": 44,
          "time": 37.5426699999998,
          "velocity": 0.30708661417322836,
          "duration": 0.11376566666666577
        },
        {
          "name": "D#3",
          "midi": 51,
          "time": 37.65643566666647,
          "velocity": 0.33070866141732286,
          "duration": 0.11376566666666577
        },
        {
          "name": "F#3",
          "midi": 54,
          "time": 37.770201333333134,
          "velocity": 0.3543307086614173,
          "duration": 0.11376566666666577
        },
        {
          "name": "C4",
          "midi": 60,
          "time": 37.8839669999998,
          "velocity": 0.36220472440944884,
          "duration": 0.11376566666666577
        },
        {
          "name": "F#3",
          "midi": 54,
          "time": 37.997732666666465,
          "velocity": 0.33070866141732286,
          "duration": 0.11376566666666577
        },
        {
          "name": "D#3",
          "midi": 51,
          "time": 38.11149833333313,
          "velocity": 0.30708661417322836,
          "duration": 0.11376566666666577
        },
        {
          "name": "C#3",
          "midi": 49,
          "time": 38.2252639999998,
          "velocity": 0.2677165354330709,
          "duration": 0.11376566666666577
        },
        {
          "name": "G#3",
          "midi": 56,
          "time": 38.33902966666646,
          "velocity": 0.2992125984251969,
          "duration": 0.11376566666666577
        },
        {
          "name": "C#4",
          "midi": 61,
          "time": 38.45279533333313,
          "velocity": 0.3228346456692913,
          "duration": 0.11376566666666577
        },
        {
          "name": "E4",
          "midi": 64,
          "time": 38.566560999999794,
          "velocity": 0.3464566929133858,
          "duration": 0.11376566666666577
        },
        {
          "name": "C#4",
          "midi": 61,
          "time": 38.68032666666646,
          "velocity": 0.33070866141732286,
          "duration": 0.11376566666666577
        },
        {
          "name": "G#3",
          "midi": 56,
          "time": 38.794092333333126,
          "velocity": 0.30708661417322836,
          "duration": 0.11376566666666577
        },
        {
          "name": "E3",
          "midi": 52,
          "time": 38.90785799999979,
          "velocity": 0.29133858267716534,
          "duration": 0.11376566666666577
        },
        {
          "name": "G#3",
          "midi": 56,
          "time": 39.02162366666646,
          "velocity": 0.30708661417322836,
          "duration": 0.11376566666666577
        },
        {
          "name": "C#4",
          "midi": 61,
          "time": 39.13538933333312,
          "velocity": 0.33070866141732286,
          "duration": 0.11376566666666577
        },
        {
          "name": "E4",
          "midi": 64,
          "time": 39.24915499999979,
          "velocity": 0.33858267716535434,
          "duration": 0.11376566666666577
        },
        {
          "name": "C#4",
          "midi": 61,
          "time": 39.362920666666454,
          "velocity": 0.30708661417322836,
          "duration": 0.11376566666666577
        },
        {
          "name": "G#3",
          "midi": 56,
          "time": 39.47668633333312,
          "velocity": 0.29133858267716534,
          "duration": 0.11376566666666577
        },
        {
          "name": "F#3",
          "midi": 54,
          "time": 39.590451999999786,
          "velocity": 0.2677165354330709,
          "duration": 0.11376566666666577
        },
        {
          "name": "C#4",
          "midi": 61,
          "time": 39.70421766666645,
          "velocity": 0.30708661417322836,
          "duration": 0.11376566666666577
        },
        {
          "name": "D#4",
          "midi": 63,
          "time": 39.81798333333312,
          "velocity": 0.33070866141732286,
          "duration": 0.11376566666666577
        },
        {
          "name": "A4",
          "midi": 69,
          "time": 39.93174899999978,
          "velocity": 0.3543307086614173,
          "duration": 0.11376566666666577
        },
        {
          "name": "D#4",
          "midi": 63,
          "time": 40.04551466666645,
          "velocity": 0.33858267716535434,
          "duration": 0.11376566666666577
        },
        {
          "name": "C#4",
          "midi": 61,
          "time": 40.159280333333115,
          "velocity": 0.31496062992125984,
          "duration": 0.11376566666666577
        },
        {
          "name": "G#3",
          "midi": 56,
          "time": 40.27304599999978,
          "velocity": 0.2992125984251969,
          "duration": 0.11376566666666577
        },
        {
          "name": "C#4",
          "midi": 61,
          "time": 40.386811666666446,
          "velocity": 0.3228346456692913,
          "duration": 0.11376566666666577
        },
        {
          "name": "F4",
          "midi": 65,
          "time": 40.50057733333311,
          "velocity": 0.3464566929133858,
          "duration": 0.11376566666666577
        },
        {
          "name": "B4",
          "midi": 71,
          "time": 40.61434299999978,
          "velocity": 0.36220472440944884,
          "duration": 0.11376566666666577
        },
        {
          "name": "F4",
          "midi": 65,
          "time": 40.728108666666444,
          "velocity": 0.3228346456692913,
          "duration": 0.11376566666666577
        },
        {
          "name": "C#4",
          "midi": 61,
          "time": 40.84187433333311,
          "velocity": 0.30708661417322836,
          "duration": 0.11376566666666577
        },
        {
          "name": "A3",
          "midi": 57,
          "time": 40.955639999999775,
          "velocity": 0.28346456692913385,
          "duration": 0.11376566666666577
        },
        {
          "name": "C#4",
          "midi": 61,
          "time": 41.06940566666644,
          "velocity": 0.3228346456692913,
          "duration": 0.11376566666666577
        },
        {
          "name": "F#4",
          "midi": 66,
          "time": 41.18317133333311,
          "velocity": 0.3464566929133858,
          "duration": 0.11376566666666577
        },
        {
          "name": "A4",
          "midi": 69,
          "time": 41.29693699999977,
          "velocity": 0.3779527559055118,
          "duration": 0.11376566666666577
        },
        {
          "name": "F#4",
          "midi": 66,
          "time": 41.41070266666644,
          "velocity": 0.36220472440944884,
          "duration": 0.11376566666666577
        },
        {
          "name": "C#4",
          "midi": 61,
          "time": 41.524468333333104,
          "velocity": 0.33070866141732286,
          "duration": 0.11376566666666577
        },
        {
          "name": "G#3",
          "midi": 56,
          "time": 41.63823399999977,
          "velocity": 0.3228346456692913,
          "duration": 0.11376566666666577
        },
        {
          "name": "C#4",
          "midi": 61,
          "time": 41.751999666666435,
          "velocity": 0.33858267716535434,
          "duration": 0.11376566666666577
        },
        {
          "name": "F4",
          "midi": 65,
          "time": 41.8657653333331,
          "velocity": 0.3700787401574803,
          "duration": 0.11376566666666577
        },
        {
          "name": "B4",
          "midi": 71,
          "time": 41.97953099999977,
          "velocity": 0.3779527559055118,
          "duration": 0.11376566666666577
        },
        {
          "name": "F4",
          "midi": 65,
          "time": 42.09329666666643,
          "velocity": 0.3464566929133858,
          "duration": 0.11376566666666577
        },
        {
          "name": "C#4",
          "midi": 61,
          "time": 42.2070623333331,
          "velocity": 0.3228346456692913,
          "duration": 0.11376566666666577
        },
        {
          "name": "A3",
          "midi": 57,
          "time": 42.320827999999764,
          "velocity": 0.2992125984251969,
          "duration": 0.11376566666666577
        },
        {
          "name": "C#4",
          "midi": 61,
          "time": 42.43459366666643,
          "velocity": 0.33858267716535434,
          "duration": 0.11376566666666577
        },
        {
          "name": "F#4",
          "midi": 66,
          "time": 42.548359333333096,
          "velocity": 0.3700787401574803,
          "duration": 0.11376566666666577
        },
        {
          "name": "A4",
          "midi": 69,
          "time": 42.66212499999976,
          "velocity": 0.3937007874015748,
          "duration": 0.11376566666666577
        },
        {
          "name": "F#4",
          "midi": 66,
          "time": 42.77589066666643,
          "velocity": 0.3779527559055118,
          "duration": 0.11376566666666577
        },
        {
          "name": "C#4",
          "midi": 61,
          "time": 42.88965633333309,
          "velocity": 0.3543307086614173,
          "duration": 0.11376566666666577
        },
        {
          "name": "C3",
          "midi": 48,
          "time": 43.00342199999976,
          "velocity": 0.33858267716535434,
          "duration": 0.11376566666666577
        },
        {
          "name": "F#3",
          "midi": 54,
          "time": 43.117187666666425,
          "velocity": 0.3543307086614173,
          "duration": 0.11376566666666577
        },
        {
          "name": "G#3",
          "midi": 56,
          "time": 43.23095333333309,
          "velocity": 0.3858267716535433,
          "duration": 0.11376566666666577
        },
        {
          "name": "D#4",
          "midi": 63,
          "time": 43.344718999999756,
          "velocity": 0.3937007874015748,
          "duration": 0.11376566666666577
        },
        {
          "name": "G#3",
          "midi": 56,
          "time": 43.45848466666642,
          "velocity": 0.36220472440944884,
          "duration": 0.11376566666666577
        },
        {
          "name": "F#3",
          "midi": 54,
          "time": 43.57225033333309,
          "velocity": 0.3464566929133858,
          "duration": 0.11376566666666577
        },
        {
          "name": "C#3",
          "midi": 49,
          "time": 43.68601599999975,
          "velocity": 0.33070866141732286,
          "duration": 0.11376566666666577
        },
        {
          "name": "G#3",
          "midi": 56,
          "time": 43.79978166666642,
          "velocity": 0.36220472440944884,
          "duration": 0.11376566666666577
        },
        {
          "name": "C#4",
          "midi": 61,
          "time": 43.913547333333085,
          "velocity": 0.4015748031496063,
          "duration": 0.11376566666666577
        },
        {
          "name": "E4",
          "midi": 64,
          "time": 44.02731299999975,
          "velocity": 0.4251968503937008,
          "duration": 0.11376566666666577
        },
        {
          "name": "C#4",
          "midi": 61,
          "time": 44.14107866666642,
          "velocity": 0.4094488188976378,
          "duration": 0.11376566666666577
        },
        {
          "name": "G#3",
          "midi": 56,
          "time": 44.25484433333308,
          "velocity": 0.3937007874015748,
          "duration": 0.11376566666666577
        },
        {
          "name": "D#3",
          "midi": 51,
          "time": 44.36860999999975,
          "velocity": 0.4094488188976378,
          "duration": 0.11376566666666577
        },
        {
          "name": "G#3",
          "midi": 56,
          "time": 44.482375666666414,
          "velocity": 0.3858267716535433,
          "duration": 0.11376566666666577
        },
        {
          "name": "C4",
          "midi": 60,
          "time": 44.59614133333308,
          "velocity": 0.41732283464566927,
          "duration": 0.11376566666666577
        },
        {
          "name": "F#4",
          "midi": 66,
          "time": 44.709906999999745,
          "velocity": 0.4330708661417323,
          "duration": 0.11376566666666577
        },
        {
          "name": "C4",
          "midi": 60,
          "time": 44.82367266666641,
          "velocity": 0.4094488188976378,
          "duration": 0.11376566666666577
        },
        {
          "name": "G#3",
          "midi": 56,
          "time": 44.93743833333308,
          "velocity": 0.3858267716535433,
          "duration": 0.11376566666666577
        },
        {
          "name": "E3",
          "midi": 52,
          "time": 45.05120399999974,
          "velocity": 0.33070866141732286,
          "duration": 0.11376566666666577
        },
        {
          "name": "G#3",
          "midi": 56,
          "time": 45.16496966666641,
          "velocity": 0.36220472440944884,
          "duration": 0.11376566666666577
        },
        {
          "name": "C#4",
          "midi": 61,
          "time": 45.278735333333074,
          "velocity": 0.4015748031496063,
          "duration": 0.11376566666666577
        },
        {
          "name": "E4",
          "midi": 64,
          "time": 45.39250099999974,
          "velocity": 0.4251968503937008,
          "duration": 0.11376566666666577
        },
        {
          "name": "C#4",
          "midi": 61,
          "time": 45.506266666666406,
          "velocity": 0.4094488188976378,
          "duration": 0.11376566666666577
        },
        {
          "name": "G#3",
          "midi": 56,
          "time": 45.62003233333307,
          "velocity": 0.3937007874015748,
          "duration": 0.11376566666666577
        },
        {
          "name": "F#3",
          "midi": 54,
          "time": 45.73379799999974,
          "velocity": 0.4094488188976378,
          "duration": 0.11376566666666577
        },
        {
          "name": "C#4",
          "midi": 61,
          "time": 45.8475636666664,
          "velocity": 0.3858267716535433,
          "duration": 0.11376566666666577
        },
        {
          "name": "D#4",
          "midi": 63,
          "time": 45.96132933333307,
          "velocity": 0.41732283464566927,
          "duration": 0.11376566666666577
        },
        {
          "name": "A4",
          "midi": 69,
          "time": 46.075094999999735,
          "velocity": 0.4330708661417323,
          "duration": 0.11376566666666577
        },
        {
          "name": "D#4",
          "midi": 63,
          "time": 46.1888606666664,
          "velocity": 0.44881889763779526,
          "duration": 0.11376566666666577
        },
        {
          "name": "C#4",
          "midi": 61,
          "time": 46.302626333333066,
          "velocity": 0.47244094488188976,
          "duration": 0.11376566666666577
        },
        {
          "name": "G#4",
          "midi": 68,
          "time": 46.41639199999973,
          "velocity": 0.5590551181102362,
          "duration": 0.17064849999999865
        },
        {
          "name": "E4",
          "midi": 64,
          "time": 46.41639199999973,
          "velocity": 0.5590551181102362,
          "duration": 0.17064849999999865
        },
        {
          "name": "C#4",
          "midi": 61,
          "time": 46.41639199999973,
          "velocity": 0.5590551181102362,
          "duration": 0.17064849999999865
        },
        {
          "name": "G#3",
          "midi": 56,
          "time": 46.41639199999973,
          "velocity": 0.5590551181102362,
          "duration": 0.17064849999999865
        },
        {
          "name": "A4",
          "midi": 69,
          "time": 47.098985999999734,
          "velocity": 0.5590551181102362,
          "duration": 0.3412970000000044
        },
        {
          "name": "E4",
          "midi": 64,
          "time": 47.098985999999734,
          "velocity": 0.5590551181102362,
          "duration": 0.3412970000000044
        },
        {
          "name": "C#4",
          "midi": 61,
          "time": 47.098985999999734,
          "velocity": 0.5590551181102362,
          "duration": 0.3412970000000044
        },
        {
          "name": "G3",
          "midi": 55,
          "time": 47.098985999999734,
          "velocity": 0.5590551181102362,
          "duration": 0.3412970000000044
        },
        {
          "name": "G#1",
          "midi": 32,
          "time": 49.14676799999974,
          "velocity": 0.6141732283464567,
          "duration": 0.08532424999999932
        },
        {
          "name": "G#2",
          "midi": 44,
          "time": 49.14676799999974,
          "velocity": 0.6141732283464567,
          "duration": 0.08532424999999932
        },
        {
          "name": "E5",
          "midi": 76,
          "time": 49.488064999999736,
          "velocity": 0.5905511811023622,
          "duration": 0.3412969999999973
        },
        {
          "name": "E4",
          "midi": 64,
          "time": 49.488064999999736,
          "velocity": 0.5905511811023622,
          "duration": 0.3412969999999973
        },
        {
          "name": "C#4",
          "midi": 61,
          "time": 49.82936199999973,
          "velocity": 0.6141732283464567,
          "duration": 0.3412969999999973
        },
        {
          "name": "C#5",
          "midi": 73,
          "time": 49.82936199999973,
          "velocity": 0.6141732283464567,
          "duration": 0.3412969999999973
        },
        {
          "name": "G#3",
          "midi": 56,
          "time": 50.17065899999973,
          "velocity": 0.6141732283464567,
          "duration": 0.3412969999999973
        },
        {
          "name": "G#4",
          "midi": 68,
          "time": 50.17065899999973,
          "velocity": 0.6141732283464567,
          "duration": 0.3412969999999973
        },
        {
          "name": "E3",
          "midi": 52,
          "time": 50.51195599999973,
          "velocity": 0.6141732283464567,
          "duration": 0.3412969999999973
        },
        {
          "name": "E4",
          "midi": 64,
          "time": 50.51195599999973,
          "velocity": 0.6141732283464567,
          "duration": 0.3412969999999973
        },
        {
          "name": "C#3",
          "midi": 49,
          "time": 50.853252999999725,
          "velocity": 0.5826771653543307,
          "duration": 0.3412969999999973
        },
        {
          "name": "C#4",
          "midi": 61,
          "time": 50.853252999999725,
          "velocity": 0.5826771653543307,
          "duration": 0.3412969999999973
        },
        {
          "name": "G#2",
          "midi": 44,
          "time": 51.19454999999972,
          "velocity": 0.6141732283464567,
          "duration": 0.3412969999999973
        },
        {
          "name": "G#3",
          "midi": 56,
          "time": 51.19454999999972,
          "velocity": 0.6141732283464567,
          "duration": 0.3412969999999973
        },
        {
          "name": "E2",
          "midi": 40,
          "time": 51.53584699999972,
          "velocity": 0.5826771653543307,
          "duration": 0.3412969999999973
        },
        {
          "name": "E3",
          "midi": 52,
          "time": 51.53584699999972,
          "velocity": 0.5826771653543307,
          "duration": 0.3412969999999973
        },
        {
          "name": "C#2",
          "midi": 37,
          "time": 51.87714399999972,
          "velocity": 0.6141732283464567,
          "duration": 0.3412969999999973
        },
        {
          "name": "C#3",
          "midi": 49,
          "time": 51.87714399999972,
          "velocity": 0.6141732283464567,
          "duration": 0.3412969999999973
        },
        {
          "name": "G#1",
          "midi": 32,
          "time": 52.218440999999714,
          "velocity": 0.5748031496062992,
          "duration": 0.3412969999999973
        },
        {
          "name": "G#2",
          "midi": 44,
          "time": 52.218440999999714,
          "velocity": 0.5748031496062992,
          "duration": 0.3412969999999973
        },
        {
          "name": "G#1",
          "midi": 32,
          "time": 52.55973799999971,
          "velocity": 0.6141732283464567,
          "duration": 0.3412969999999973
        },
        {
          "name": "G#2",
          "midi": 44,
          "time": 52.55973799999971,
          "velocity": 0.6141732283464567,
          "duration": 0.3412969999999973
        },
        {
          "name": "A1",
          "midi": 33,
          "time": 52.90103499999971,
          "velocity": 0.5826771653543307,
          "duration": 0.3412970000000044
        },
        {
          "name": "A2",
          "midi": 45,
          "time": 52.90103499999971,
          "velocity": 0.5826771653543307,
          "duration": 0.3412970000000044
        },
        {
          "name": "G#1",
          "midi": 32,
          "time": 53.24233199999971,
          "velocity": 0.6141732283464567,
          "duration": 0.3412969999999973
        },
        {
          "name": "G#2",
          "midi": 44,
          "time": 53.24233199999971,
          "velocity": 0.6141732283464567,
          "duration": 0.3412969999999973
        },
        {
          "name": "G1",
          "midi": 31,
          "time": 53.58362899999971,
          "velocity": 0.5669291338582677,
          "duration": 0.3412969999999973
        },
        {
          "name": "G2",
          "midi": 43,
          "time": 53.58362899999971,
          "velocity": 0.5669291338582677,
          "duration": 0.3412969999999973
        },
        {
          "name": "G#1",
          "midi": 32,
          "time": 53.92492599999971,
          "velocity": 0.5433070866141733,
          "duration": 0.6825939999999946
        },
        {
          "name": "G#2",
          "midi": 44,
          "time": 53.92492599999971,
          "velocity": 0.5433070866141733,
          "duration": 0.6825939999999946
        },
        {
          "name": "C#2",
          "midi": 37,
          "time": 54.6075199999997,
          "velocity": 0.7480314960629921,
          "duration": 0.11376566666666577
        },
        {
          "name": "G#2",
          "midi": 44,
          "time": 54.72128566666637,
          "velocity": 0.4330708661417323,
          "duration": 0.11376566666666577
        },
        {
          "name": "C#3",
          "midi": 49,
          "time": 54.835051333333034,
          "velocity": 0.4409448818897638,
          "duration": 0.11376566666666577
        },
        {
          "name": "F3",
          "midi": 53,
          "time": 54.9488169999997,
          "velocity": 0.4409448818897638,
          "duration": 0.11376566666666577
        },
        {
          "name": "G#3",
          "midi": 56,
          "time": 55.062582666666366,
          "velocity": 0.4566929133858268,
          "duration": 0.11376566666666577
        },
        {
          "name": "C#4",
          "midi": 61,
          "time": 55.17634833333303,
          "velocity": 0.4645669291338583,
          "duration": 0.11376566666666577
        },
        {
          "name": "F4",
          "midi": 65,
          "time": 55.2901139999997,
          "velocity": 0.4645669291338583,
          "duration": 0.11376566666666577
        },
        {
          "name": "C#4",
          "midi": 61,
          "time": 55.40387966666636,
          "velocity": 0.44881889763779526,
          "duration": 0.11376566666666577
        },
        {
          "name": "G#3",
          "midi": 56,
          "time": 55.51764533333303,
          "velocity": 0.4094488188976378,
          "duration": 0.11376566666666577
        },
        {
          "name": "F3",
          "midi": 53,
          "time": 55.631410999999694,
          "velocity": 0.3858267716535433,
          "duration": 0.11376566666666577
        },
        {
          "name": "C#3",
          "midi": 49,
          "time": 55.74517666666636,
          "velocity": 0.36220472440944884,
          "duration": 0.11376566666666577
        },
        {
          "name": "G#2",
          "midi": 44,
          "time": 55.858942333333026,
          "velocity": 0.3228346456692913,
          "duration": 0.11376566666666577
        },
        {
          "name": "C#2",
          "midi": 37,
          "time": 55.97270799999969,
          "velocity": 0.31496062992125984,
          "duration": 0.11376566666666577
        },
        {
          "name": "G#2",
          "midi": 44,
          "time": 56.08647366666636,
          "velocity": 0.3228346456692913,
          "duration": 0.11376566666666577
        },
        {
          "name": "C#3",
          "midi": 49,
          "time": 56.20023933333302,
          "velocity": 0.33070866141732286,
          "duration": 0.11376566666666577
        },
        {
          "name": "F3",
          "midi": 53,
          "time": 56.31400499999969,
          "velocity": 0.33858267716535434,
          "duration": 0.11376566666666577
        },
        {
          "name": "G#3",
          "midi": 56,
          "time": 56.427770666666355,
          "velocity": 0.3464566929133858,
          "duration": 0.11376566666666577
        },
        {
          "name": "C#4",
          "midi": 61,
          "time": 56.54153633333302,
          "velocity": 0.3543307086614173,
          "duration": 0.11376566666666577
        },
        {
          "name": "F4",
          "midi": 65,
          "time": 56.655301999999686,
          "velocity": 0.3543307086614173,
          "duration": 0.11376566666666577
        },
        {
          "name": "C#4",
          "midi": 61,
          "time": 56.76906766666635,
          "velocity": 0.3543307086614173,
          "duration": 0.11376566666666577
        },
        {
          "name": "G#3",
          "midi": 56,
          "time": 56.88283333333302,
          "velocity": 0.3464566929133858,
          "duration": 0.11376566666666577
        },
        {
          "name": "F3",
          "midi": 53,
          "time": 56.996598999999684,
          "velocity": 0.33858267716535434,
          "duration": 0.11376566666666577
        },
        {
          "name": "C#3",
          "midi": 49,
          "time": 57.11036466666635,
          "velocity": 0.33070866141732286,
          "duration": 0.11376566666666577
        },
        {
          "name": "G#2",
          "midi": 44,
          "time": 57.224130333333015,
          "velocity": 0.3228346456692913,
          "duration": 0.22753133333333153
        },
        {
          "name": "C#2",
          "midi": 37,
          "time": 57.33789599999968,
          "velocity": 0.23622047244094488,
          "duration": 0.11376566666666577
        },
        {
          "name": "G#3",
          "midi": 56,
          "time": 57.45166166666635,
          "velocity": 0.2440944881889764,
          "duration": 0.11376566666666577
        },
        {
          "name": "C4",
          "midi": 60,
          "time": 57.56542733333301,
          "velocity": 0.25196850393700787,
          "duration": 0.11376566666666577
        },
        {
          "name": "D#4",
          "midi": 63,
          "time": 57.67919299999968,
          "velocity": 0.2677165354330709,
          "duration": 0.11376566666666577
        },
        {
          "name": "C4",
          "midi": 60,
          "time": 57.792958666666344,
          "velocity": 0.25984251968503935,
          "duration": 0.11376566666666577
        },
        {
          "name": "G#3",
          "midi": 56,
          "time": 57.90672433333301,
          "velocity": 0.25196850393700787,
          "duration": 0.11376566666666577
        },
        {
          "name": "C#3",
          "midi": 49,
          "time": 58.020489999999675,
          "velocity": 0.25196850393700787,
          "duration": 0.11376566666666577
        },
        {
          "name": "G#3",
          "midi": 56,
          "time": 58.13425566666634,
          "velocity": 0.25196850393700787,
          "duration": 0.11376566666666577
        },
        {
          "name": "C4",
          "midi": 60,
          "time": 58.24802133333301,
          "velocity": 0.2677165354330709,
          "duration": 0.11376566666666577
        },
        {
          "name": "F#4",
          "midi": 66,
          "time": 58.36178699999967,
          "velocity": 0.25984251968503935,
          "duration": 0.11376566666666577
        },
        {
          "name": "C4",
          "midi": 60,
          "time": 58.47555266666634,
          "velocity": 0.25196850393700787,
          "duration": 0.11376566666666577
        },
        {
          "name": "G#3",
          "midi": 56,
          "time": 58.589318333333004,
          "velocity": 0.2440944881889764,
          "duration": 0.11376566666666577
        },
        {
          "name": "C#3",
          "midi": 49,
          "time": 58.70308399999967,
          "velocity": 0.25196850393700787,
          "duration": 0.11376566666667287
        },
        {
          "name": "G#3",
          "midi": 56,
          "time": 58.81684966666634,
          "velocity": 0.25984251968503935,
          "duration": 0.11376566666666577
        },
        {
          "name": "C#4",
          "midi": 61,
          "time": 58.93061533333301,
          "velocity": 0.2677165354330709,
          "duration": 0.11376566666666577
        },
        {
          "name": "F4",
          "midi": 65,
          "time": 59.044380999999674,
          "velocity": 0.2755905511811024,
          "duration": 0.11376566666666577
        },
        {
          "name": "C#4",
          "midi": 61,
          "time": 59.15814666666634,
          "velocity": 0.28346456692913385,
          "duration": 0.11376566666666577
        },
        {
          "name": "G#3",
          "midi": 56,
          "time": 59.271912333333006,
          "velocity": 0.2677165354330709,
          "duration": 0.11376566666666577
        },
        {
          "name": "C#3",
          "midi": 49,
          "time": 59.38567799999967,
          "velocity": 0.25196850393700787,
          "duration": 0.11376566666666577
        },
        {
          "name": "G#3",
          "midi": 56,
          "time": 59.49944366666634,
          "velocity": 0.25984251968503935,
          "duration": 0.11376566666666577
        },
        {
          "name": "F4",
          "midi": 65,
          "time": 59.613209333333,
          "velocity": 0.2755905511811024,
          "duration": 0.11376566666666577
        },
        {
          "name": "F4",
          "midi": 65,
          "time": 59.840740666666335,
          "velocity": 0.28346456692913385,
          "duration": 0.11376566666666577
        },
        {
          "name": "G#3",
          "midi": 56,
          "time": 59.954506333333,
          "velocity": 0.2755905511811024,
          "duration": 0.11376566666666577
        },
        {
          "name": "F#4",
          "midi": 66,
          "time": 60.068271999999666,
          "velocity": 0.28346456692913385,
          "duration": 0.11376566666666577
        },
        {
          "name": "D#4",
          "midi": 63,
          "time": 60.18203766666633,
          "velocity": 0.2440944881889764,
          "duration": 0.11376566666666577
        },
        {
          "name": "G#3",
          "midi": 56,
          "time": 60.295803333333,
          "velocity": 0.2440944881889764,
          "duration": 0.11376566666666577
        },
        {
          "name": "F4",
          "midi": 65,
          "time": 60.409568999999664,
          "velocity": 0.28346456692913385,
          "duration": 0.11376566666665866
        },
        {
          "name": "C#4",
          "midi": 61,
          "time": 60.52333466666632,
          "velocity": 0.2440944881889764,
          "duration": 0.11376566666666577
        },
        {
          "name": "G#3",
          "midi": 56,
          "time": 60.63710033333299,
          "velocity": 0.2440944881889764,
          "duration": 0.11376566666666577
        },
        {
          "name": "D#4",
          "midi": 63,
          "time": 60.750865999999654,
          "velocity": 0.28346456692913385,
          "duration": 0.11376566666665866
        },
        {
          "name": "C4",
          "midi": 60,
          "time": 60.86463166666631,
          "velocity": 0.2204724409448819,
          "duration": 0.11376566666666577
        },
        {
          "name": "G#3",
          "midi": 56,
          "time": 60.97839733333298,
          "velocity": 0.2204724409448819,
          "duration": 0.11376566666666577
        },
        {
          "name": "C#4",
          "midi": 61,
          "time": 61.092162999999644,
          "velocity": 0.2755905511811024,
          "duration": 0.11376566666665866
        },
        {
          "name": "G#3",
          "midi": 56,
          "time": 61.2059286666663,
          "velocity": 0.2283464566929134,
          "duration": 0.11376566666666577
        },
        {
          "name": "F3",
          "midi": 53,
          "time": 61.31969433333297,
          "velocity": 0.2283464566929134,
          "duration": 0.11376566666666577
        },
        {
          "name": "G#2",
          "midi": 44,
          "time": 61.433459999999634,
          "velocity": 0.2440944881889764,
          "duration": 0.11376566666666577
        },
        {
          "name": "D#3",
          "midi": 51,
          "time": 61.5472256666663,
          "velocity": 0.25196850393700787,
          "duration": 0.11376566666666577
        },
        {
          "name": "G#3",
          "midi": 56,
          "time": 61.660991333332966,
          "velocity": 0.25196850393700787,
          "duration": 0.11376566666666577
        },
        {
          "name": "C4",
          "midi": 60,
          "time": 61.77475699999963,
          "velocity": 0.25984251968503935,
          "duration": 0.11376566666666577
        },
        {
          "name": "G#3",
          "midi": 56,
          "time": 61.8885226666663,
          "velocity": 0.25196850393700787,
          "duration": 0.11376566666666577
        },
        {
          "name": "D#3",
          "midi": 51,
          "time": 62.00228833333296,
          "velocity": 0.25196850393700787,
          "duration": 0.11376566666666577
        },
        {
          "name": "F#2",
          "midi": 42,
          "time": 62.11605399999963,
          "velocity": 0.25196850393700787,
          "duration": 0.11376566666666577
        },
        {
          "name": "F#3",
          "midi": 54,
          "time": 62.229819666666295,
          "velocity": 0.25196850393700787,
          "duration": 0.11376566666666577
        },
        {
          "name": "A#3",
          "midi": 58,
          "time": 62.34358533333296,
          "velocity": 0.2677165354330709,
          "duration": 0.11376566666666577
        },
        {
          "name": "C#4",
          "midi": 61,
          "time": 62.457350999999626,
          "velocity": 0.2755905511811024,
          "duration": 0.11376566666666577
        },
        {
          "name": "A#3",
          "midi": 58,
          "time": 62.57111666666629,
          "velocity": 0.2677165354330709,
          "duration": 0.11376566666666577
        },
        {
          "name": "F3",
          "midi": 53,
          "time": 62.68488233333296,
          "velocity": 0.25984251968503935,
          "duration": 0.11376566666666577
        },
        {
          "name": "A#2",
          "midi": 46,
          "time": 62.79864799999962,
          "velocity": 0.25196850393700787,
          "duration": 0.11376566666666577
        },
        {
          "name": "F3",
          "midi": 53,
          "time": 62.91241366666629,
          "velocity": 0.25196850393700787,
          "duration": 0.11376566666666577
        },
        {
          "name": "A#3",
          "midi": 58,
          "time": 63.026179333332955,
          "velocity": 0.2677165354330709,
          "duration": 0.11376566666666577
        },
        {
          "name": "D4",
          "midi": 62,
          "time": 63.13994499999962,
          "velocity": 0.2677165354330709,
          "duration": 0.11376566666666577
        },
        {
          "name": "A#3",
          "midi": 58,
          "time": 63.25371066666629,
          "velocity": 0.25984251968503935,
          "duration": 0.11376566666666577
        },
        {
          "name": "F3",
          "midi": 53,
          "time": 63.36747633333295,
          "velocity": 0.25196850393700787,
          "duration": 0.11376566666666577
        },
        {
          "name": "A#2",
          "midi": 46,
          "time": 63.48124199999962,
          "velocity": 0.25984251968503935,
          "duration": 0.11376566666666577
        },
        {
          "name": "A#3",
          "midi": 58,
          "time": 63.595007666666284,
          "velocity": 0.2755905511811024,
          "duration": 0.11376566666666577
        },
        {
          "name": "D4",
          "midi": 62,
          "time": 63.70877333333295,
          "velocity": 0.28346456692913385,
          "duration": 0.11376566666666577
        },
        {
          "name": "G#4",
          "midi": 68,
          "time": 63.822538999999615,
          "velocity": 0.30708661417322836,
          "duration": 0.11376566666666577
        },
        {
          "name": "D4",
          "midi": 62,
          "time": 63.93630466666628,
          "velocity": 0.29133858267716534,
          "duration": 0.11376566666667287
        },
        {
          "name": "A#3",
          "midi": 58,
          "time": 64.05007033333295,
          "velocity": 0.2755905511811024,
          "duration": 0.11376566666666577
        },
        {
          "name": "D#3",
          "midi": 51,
          "time": 64.16383599999962,
          "velocity": 0.31496062992125984,
          "duration": 0.11376566666666577
        },
        {
          "name": "F#4",
          "midi": 66,
          "time": 64.27760166666629,
          "velocity": 0.29133858267716534,
          "duration": 0.11376566666666577
        },
        {
          "name": "A#3",
          "midi": 58,
          "time": 64.39136733333295,
          "velocity": 0.2677165354330709,
          "duration": 0.11376566666666577
        },
        {
          "name": "F3",
          "midi": 53,
          "time": 64.50513299999962,
          "velocity": 0.2992125984251969,
          "duration": 0.11376566666666577
        },
        {
          "name": "F4",
          "midi": 65,
          "time": 64.61889866666628,
          "velocity": 0.28346456692913385,
          "duration": 0.11376566666666577
        },
        {
          "name": "A3",
          "midi": 57,
          "time": 64.73266433333295,
          "velocity": 0.2677165354330709,
          "duration": 0.11376566666666577
        },
        {
          "name": "F#3",
          "midi": 54,
          "time": 64.84642999999961,
          "velocity": 0.29133858267716534,
          "duration": 0.11376566666666577
        },
        {
          "name": "D#4",
          "midi": 63,
          "time": 64.96019566666628,
          "velocity": 0.25984251968503935,
          "duration": 0.11376566666666577
        },
        {
          "name": "A#3",
          "midi": 58,
          "time": 65.07396133333295,
          "velocity": 0.2755905511811024,
          "duration": 0.11376566666666577
        },
        {
          "name": "G#3",
          "midi": 56,
          "time": 65.18772699999961,
          "velocity": 0.28346456692913385,
          "duration": 0.11376566666667998
        },
        {
          "name": "F#4",
          "midi": 66,
          "time": 65.30149266666629,
          "velocity": 0.25196850393700787,
          "duration": 0.11376566666666577
        },
        {
          "name": "C4",
          "midi": 60,
          "time": 65.41525833333296,
          "velocity": 0.25196850393700787,
          "duration": 0.11376566666666577
        },
        {
          "name": "C#3",
          "midi": 49,
          "time": 65.52902399999962,
          "velocity": 0.23622047244094488,
          "duration": 0.11376566666666577
        },
        {
          "name": "G#3",
          "midi": 56,
          "time": 65.64278966666629,
          "velocity": 0.25196850393700787,
          "duration": 0.11376566666666577
        },
        {
          "name": "C#4",
          "midi": 61,
          "time": 65.75655533333295,
          "velocity": 0.2755905511811024,
          "duration": 0.11376566666666577
        },
        {
          "name": "F4",
          "midi": 65,
          "time": 65.87032099999962,
          "velocity": 0.28346456692913385,
          "duration": 0.11376566666666577
        },
        {
          "name": "C#4",
          "midi": 61,
          "time": 65.98408666666629,
          "velocity": 0.2755905511811024,
          "duration": 0.11376566666666577
        },
        {
          "name": "G#3",
          "midi": 56,
          "time": 66.09785233333295,
          "velocity": 0.25196850393700787,
          "duration": 0.11376566666666577
        },
        {
          "name": "D#3",
          "midi": 51,
          "time": 66.21161799999962,
          "velocity": 0.25196850393700787,
          "duration": 0.11376566666667998
        },
        {
          "name": "G3",
          "midi": 55,
          "time": 66.3253836666663,
          "velocity": 0.25984251968503935,
          "duration": 0.11376566666666577
        },
        {
          "name": "C#4",
          "midi": 61,
          "time": 66.43914933333296,
          "velocity": 0.2755905511811024,
          "duration": 0.11376566666666577
        },
        {
          "name": "D#4",
          "midi": 63,
          "time": 66.55291499999963,
          "velocity": 0.28346456692913385,
          "duration": 0.11376566666666577
        },
        {
          "name": "C#4",
          "midi": 61,
          "time": 66.6666806666663,
          "velocity": 0.2755905511811024,
          "duration": 0.11376566666666577
        },
        {
          "name": "G3",
          "midi": 55,
          "time": 66.78044633333296,
          "velocity": 0.25196850393700787,
          "duration": 0.11376566666666577
        },
        {
          "name": "G#2",
          "midi": 44,
          "time": 66.89421199999963,
          "velocity": 0.2204724409448819,
          "duration": 0.11376566666665155
        },
        {
          "name": "D#3",
          "midi": 51,
          "time": 67.00797766666628,
          "velocity": 0.23622047244094488,
          "duration": 0.11376566666666577
        },
        {
          "name": "G#3",
          "midi": 56,
          "time": 67.12174333333294,
          "velocity": 0.25196850393700787,
          "duration": 0.11376566666666577
        },
        {
          "name": "C4",
          "midi": 60,
          "time": 67.23550899999961,
          "velocity": 0.2677165354330709,
          "duration": 0.11376566666666577
        },
        {
          "name": "G#3",
          "midi": 56,
          "time": 67.34927466666628,
          "velocity": 0.25196850393700787,
          "duration": 0.11376566666666577
        },
        {
          "name": "D#3",
          "midi": 51,
          "time": 67.46304033333294,
          "velocity": 0.25196850393700787,
          "duration": 0.11376566666666577
        },
        {
          "name": "G#2",
          "midi": 44,
          "time": 67.5768059999996,
          "velocity": 0.23622047244094488,
          "duration": 0.11376566666666577
        },
        {
          "name": "D#3",
          "midi": 51,
          "time": 67.69057166666627,
          "velocity": 0.23622047244094488,
          "duration": 0.11376566666666577
        },
        {
          "name": "F#3",
          "midi": 54,
          "time": 67.80433733333294,
          "velocity": 0.25196850393700787,
          "duration": 0.11376566666666577
        },
        {
          "name": "A#3",
          "midi": 58,
          "time": 67.9181029999996,
          "velocity": 0.25984251968503935,
          "duration": 0.11376566666666577
        },
        {
          "name": "F#3",
          "midi": 54,
          "time": 68.03186866666627,
          "velocity": 0.2440944881889764,
          "duration": 0.11376566666666577
        },
        {
          "name": "D#3",
          "midi": 51,
          "time": 68.14563433333294,
          "velocity": 0.23622047244094488,
          "duration": 0.11376566666666577
        },
        {
          "name": "G#2",
          "midi": 44,
          "time": 68.2593999999996,
          "velocity": 0.2283464566929134,
          "duration": 0.11376566666666577
        },
        {
          "name": "D#3",
          "midi": 51,
          "time": 68.37316566666627,
          "velocity": 0.2440944881889764,
          "duration": 0.11376566666666577
        },
        {
          "name": "G#3",
          "midi": 56,
          "time": 68.48693133333293,
          "velocity": 0.25196850393700787,
          "duration": 0.11376566666666577
        },
        {
          "name": "C4",
          "midi": 60,
          "time": 68.6006969999996,
          "velocity": 0.2677165354330709,
          "duration": 0.11376566666666577
        },
        {
          "name": "G#3",
          "midi": 56,
          "time": 68.71446266666626,
          "velocity": 0.25984251968503935,
          "duration": 0.11376566666666577
        },
        {
          "name": "D#3",
          "midi": 51,
          "time": 68.82822833333293,
          "velocity": 0.25196850393700787,
          "duration": 0.11376566666666577
        },
        {
          "name": "G#2",
          "midi": 44,
          "time": 68.9419939999996,
          "velocity": 0.25196850393700787,
          "duration": 0.11376566666666577
        },
        {
          "name": "G#3",
          "midi": 56,
          "time": 69.05575966666626,
          "velocity": 0.25196850393700787,
          "duration": 0.11376566666666577
        },
        {
          "name": "C4",
          "midi": 60,
          "time": 69.16952533333293,
          "velocity": 0.2677165354330709,
          "duration": 0.11376566666666577
        },
        {
          "name": "F#4",
          "midi": 66,
          "time": 69.2832909999996,
          "velocity": 0.25984251968503935,
          "duration": 0.11376566666666577
        },
        {
          "name": "C4",
          "midi": 60,
          "time": 69.39705666666626,
          "velocity": 0.25196850393700787,
          "duration": 0.11376566666666577
        },
        {
          "name": "A#3",
          "midi": 58,
          "time": 69.51082233333292,
          "velocity": 0.2440944881889764,
          "duration": 0.11376566666666577
        },
        {
          "name": "C#3",
          "midi": 49,
          "time": 69.62458799999959,
          "velocity": 0.25196850393700787,
          "duration": 0.11376566666666577
        },
        {
          "name": "G#3",
          "midi": 56,
          "time": 69.73835366666626,
          "velocity": 0.25984251968503935,
          "duration": 0.11376566666666577
        },
        {
          "name": "C#4",
          "midi": 61,
          "time": 69.85211933333292,
          "velocity": 0.2677165354330709,
          "duration": 0.11376566666666577
        },
        {
          "name": "F4",
          "midi": 65,
          "time": 69.96588499999959,
          "velocity": 0.2755905511811024,
          "duration": 0.11376566666666577
        },
        {
          "name": "C#4",
          "midi": 61,
          "time": 70.07965066666625,
          "velocity": 0.28346456692913385,
          "duration": 0.11376566666666577
        },
        {
          "name": "G#3",
          "midi": 56,
          "time": 70.19341633333292,
          "velocity": 0.2677165354330709,
          "duration": 0.11376566666666577
        },
        {
          "name": "C#3",
          "midi": 49,
          "time": 70.30718199999959,
          "velocity": 0.25196850393700787,
          "duration": 0.11376566666666577
        },
        {
          "name": "G#3",
          "midi": 56,
          "time": 70.42094766666625,
          "velocity": 0.25984251968503935,
          "duration": 0.11376566666666577
        },
        {
          "name": "F4",
          "midi": 65,
          "time": 70.53471333333292,
          "velocity": 0.2755905511811024,
          "duration": 0.11376566666666577
        },
        {
          "name": "F4",
          "midi": 65,
          "time": 70.76224466666625,
          "velocity": 0.28346456692913385,
          "duration": 0.11376566666666577
        },
        {
          "name": "G#3",
          "midi": 56,
          "time": 70.87601033333291,
          "velocity": 0.2755905511811024,
          "duration": 0.11376566666666577
        },
        {
          "name": "F#4",
          "midi": 66,
          "time": 70.98977599999958,
          "velocity": 0.28346456692913385,
          "duration": 0.11376566666667998
        },
        {
          "name": "D#4",
          "midi": 63,
          "time": 71.10354166666626,
          "velocity": 0.2440944881889764,
          "duration": 0.11376566666666577
        },
        {
          "name": "G#3",
          "midi": 56,
          "time": 71.21730733333293,
          "velocity": 0.2440944881889764,
          "duration": 0.11376566666666577
        },
        {
          "name": "F4",
          "midi": 65,
          "time": 71.33107299999959,
          "velocity": 0.28346456692913385,
          "duration": 0.11376566666666577
        },
        {
          "name": "C#4",
          "midi": 61,
          "time": 71.44483866666626,
          "velocity": 0.2440944881889764,
          "duration": 0.11376566666666577
        },
        {
          "name": "G#3",
          "midi": 56,
          "time": 71.55860433333292,
          "velocity": 0.2440944881889764,
          "duration": 0.11376566666666577
        },
        {
          "name": "D#4",
          "midi": 63,
          "time": 71.67236999999959,
          "velocity": 0.28346456692913385,
          "duration": 0.11376566666666577
        },
        {
          "name": "C4",
          "midi": 60,
          "time": 71.78613566666625,
          "velocity": 0.2204724409448819,
          "duration": 0.11376566666666577
        },
        {
          "name": "G#3",
          "midi": 56,
          "time": 71.89990133333292,
          "velocity": 0.2204724409448819,
          "duration": 0.11376566666666577
        },
        {
          "name": "C#4",
          "midi": 61,
          "time": 72.01366699999959,
          "velocity": 0.2755905511811024,
          "duration": 0.11376566666666577
        },
        {
          "name": "G#3",
          "midi": 56,
          "time": 72.12743266666625,
          "velocity": 0.2283464566929134,
          "duration": 0.11376566666666577
        },
        {
          "name": "F3",
          "midi": 53,
          "time": 72.24119833333292,
          "velocity": 0.2283464566929134,
          "duration": 0.11376566666666577
        },
        {
          "name": "G#2",
          "midi": 44,
          "time": 72.35496399999958,
          "velocity": 0.2440944881889764,
          "duration": 0.11376566666666577
        },
        {
          "name": "D#3",
          "midi": 51,
          "time": 72.46872966666625,
          "velocity": 0.25196850393700787,
          "duration": 0.11376566666666577
        },
        {
          "name": "G#3",
          "midi": 56,
          "time": 72.58249533333291,
          "velocity": 0.25196850393700787,
          "duration": 0.11376566666666577
        },
        {
          "name": "C4",
          "midi": 60,
          "time": 72.69626099999958,
          "velocity": 0.25984251968503935,
          "duration": 0.11376566666666577
        },
        {
          "name": "G#3",
          "midi": 56,
          "time": 72.81002666666625,
          "velocity": 0.25196850393700787,
          "duration": 0.11376566666666577
        },
        {
          "name": "D#3",
          "midi": 51,
          "time": 72.92379233333291,
          "velocity": 0.25196850393700787,
          "duration": 0.11376566666666577
        },
        {
          "name": "F#2",
          "midi": 42,
          "time": 73.03755799999958,
          "velocity": 0.25196850393700787,
          "duration": 0.11376566666666577
        },
        {
          "name": "F#3",
          "midi": 54,
          "time": 73.15132366666624,
          "velocity": 0.25196850393700787,
          "duration": 0.11376566666666577
        },
        {
          "name": "A#3",
          "midi": 58,
          "time": 73.26508933333291,
          "velocity": 0.2677165354330709,
          "duration": 0.11376566666666577
        },
        {
          "name": "C#4",
          "midi": 61,
          "time": 73.37885499999958,
          "velocity": 0.2755905511811024,
          "duration": 0.11376566666666577
        },
        {
          "name": "A#3",
          "midi": 58,
          "time": 73.49262066666624,
          "velocity": 0.2677165354330709,
          "duration": 0.11376566666666577
        },
        {
          "name": "F#3",
          "midi": 54,
          "time": 73.6063863333329,
          "velocity": 0.25984251968503935,
          "duration": 0.11376566666666577
        },
        {
          "name": "A#2",
          "midi": 46,
          "time": 73.72015199999957,
          "velocity": 0.25196850393700787,
          "duration": 0.11376566666667998
        },
        {
          "name": "F3",
          "midi": 53,
          "time": 73.83391766666625,
          "velocity": 0.25196850393700787,
          "duration": 0.11376566666666577
        },
        {
          "name": "A#3",
          "midi": 58,
          "time": 73.94768333333292,
          "velocity": 0.2677165354330709,
          "duration": 0.11376566666666577
        },
        {
          "name": "D4",
          "midi": 62,
          "time": 74.06144899999958,
          "velocity": 0.2677165354330709,
          "duration": 0.11376566666666577
        },
        {
          "name": "A#3",
          "midi": 58,
          "time": 74.17521466666625,
          "velocity": 0.25984251968503935,
          "duration": 0.11376566666666577
        },
        {
          "name": "F3",
          "midi": 53,
          "time": 74.28898033333292,
          "velocity": 0.25196850393700787,
          "duration": 0.11376566666666577
        },
        {
          "name": "A#2",
          "midi": 46,
          "time": 74.40274599999958,
          "velocity": 0.25984251968503935,
          "duration": 0.11376566666666577
        },
        {
          "name": "A#3",
          "midi": 58,
          "time": 74.51651166666625,
          "velocity": 0.2755905511811024,
          "duration": 0.11376566666666577
        },
        {
          "name": "D4",
          "midi": 62,
          "time": 74.63027733333291,
          "velocity": 0.28346456692913385,
          "duration": 0.11376566666666577
        },
        {
          "name": "G#4",
          "midi": 68,
          "time": 74.74404299999958,
          "velocity": 0.30708661417322836,
          "duration": 0.11376566666666577
        },
        {
          "name": "D4",
          "midi": 62,
          "time": 74.85780866666624,
          "velocity": 0.29133858267716534,
          "duration": 0.11376566666666577
        },
        {
          "name": "A#3",
          "midi": 58,
          "time": 74.97157433333291,
          "velocity": 0.2755905511811024,
          "duration": 0.11376566666666577
        },
        {
          "name": "D#3",
          "midi": 51,
          "time": 75.08533999999958,
          "velocity": 0.31496062992125984,
          "duration": 0.11376566666666577
        },
        {
          "name": "F#4",
          "midi": 66,
          "time": 75.19910566666624,
          "velocity": 0.29133858267716534,
          "duration": 0.11376566666666577
        },
        {
          "name": "A#3",
          "midi": 58,
          "time": 75.31287133333291,
          "velocity": 0.2677165354330709,
          "duration": 0.11376566666666577
        },
        {
          "name": "F3",
          "midi": 53,
          "time": 75.42663699999957,
          "velocity": 0.2992125984251969,
          "duration": 0.11376566666666577
        },
        {
          "name": "F4",
          "midi": 65,
          "time": 75.54040266666624,
          "velocity": 0.28346456692913385,
          "duration": 0.11376566666666577
        },
        {
          "name": "A3",
          "midi": 57,
          "time": 75.6541683333329,
          "velocity": 0.2677165354330709,
          "duration": 0.11376566666666577
        },
        {
          "name": "F#3",
          "midi": 54,
          "time": 75.76793399999957,
          "velocity": 0.29133858267716534,
          "duration": 0.11376566666666577
        },
        {
          "name": "D#4",
          "midi": 63,
          "time": 75.88169966666624,
          "velocity": 0.25984251968503935,
          "duration": 0.11376566666666577
        },
        {
          "name": "A#3",
          "midi": 58,
          "time": 75.9954653333329,
          "velocity": 0.2755905511811024,
          "duration": 0.11376566666666577
        },
        {
          "name": "G#3",
          "midi": 56,
          "time": 76.10923099999957,
          "velocity": 0.28346456692913385,
          "duration": 0.11376566666667998
        },
        {
          "name": "F#4",
          "midi": 66,
          "time": 76.22299666666625,
          "velocity": 0.25196850393700787,
          "duration": 0.11376566666666577
        },
        {
          "name": "C4",
          "midi": 60,
          "time": 76.33676233333291,
          "velocity": 0.25196850393700787,
          "duration": 0.11376566666666577
        },
        {
          "name": "C#3",
          "midi": 49,
          "time": 76.45052799999958,
          "velocity": 0.23622047244094488,
          "duration": 0.11376566666666577
        },
        {
          "name": "G#3",
          "midi": 56,
          "time": 76.56429366666625,
          "velocity": 0.25196850393700787,
          "duration": 0.11376566666666577
        },
        {
          "name": "C#4",
          "midi": 61,
          "time": 76.67805933333291,
          "velocity": 0.2755905511811024,
          "duration": 0.11376566666666577
        },
        {
          "name": "F4",
          "midi": 65,
          "time": 76.79182499999958,
          "velocity": 0.28346456692913385,
          "duration": 0.11376566666666577
        },
        {
          "name": "C#4",
          "midi": 61,
          "time": 76.90559066666624,
          "velocity": 0.2755905511811024,
          "duration": 0.11376566666666577
        },
        {
          "name": "G#3",
          "midi": 56,
          "time": 77.01935633333291,
          "velocity": 0.25196850393700787,
          "duration": 0.11376566666666577
        },
        {
          "name": "C#3",
          "midi": 49,
          "time": 77.13312199999957,
          "velocity": 0.25196850393700787,
          "duration": 0.11376566666667998
        },
        {
          "name": "G#3",
          "midi": 56,
          "time": 77.24688766666625,
          "velocity": 0.25984251968503935,
          "duration": 0.11376566666666577
        },
        {
          "name": "C4",
          "midi": 60,
          "time": 77.36065333333292,
          "velocity": 0.2755905511811024,
          "duration": 0.11376566666666577
        },
        {
          "name": "F#4",
          "midi": 66,
          "time": 77.47441899999959,
          "velocity": 0.28346456692913385,
          "duration": 0.11376566666666577
        },
        {
          "name": "C4",
          "midi": 60,
          "time": 77.58818466666625,
          "velocity": 0.2755905511811024,
          "duration": 0.11376566666666577
        },
        {
          "name": "G#3",
          "midi": 56,
          "time": 77.70195033333292,
          "velocity": 0.25196850393700787,
          "duration": 0.11376566666666577
        },
        {
          "name": "C#3",
          "midi": 49,
          "time": 77.81571599999958,
          "velocity": 0.25196850393700787,
          "duration": 0.11376566666665155
        },
        {
          "name": "G#3",
          "midi": 56,
          "time": 77.92948166666623,
          "velocity": 0.25984251968503935,
          "duration": 0.11376566666666577
        },
        {
          "name": "C4",
          "midi": 60,
          "time": 78.0432473333329,
          "velocity": 0.28346456692913385,
          "duration": 0.11376566666666577
        },
        {
          "name": "F#4",
          "midi": 66,
          "time": 78.15701299999957,
          "velocity": 0.29133858267716534,
          "duration": 0.11376566666666577
        },
        {
          "name": "C4",
          "midi": 60,
          "time": 78.27077866666623,
          "velocity": 0.28346456692913385,
          "duration": 0.11376566666666577
        },
        {
          "name": "G#3",
          "midi": 56,
          "time": 78.3845443333329,
          "velocity": 0.2677165354330709,
          "duration": 0.11376566666666577
        },
        {
          "name": "C#3",
          "midi": 49,
          "time": 78.49830999999956,
          "velocity": 0.25196850393700787,
          "duration": 0.11376566666666577
        },
        {
          "name": "G#3",
          "midi": 56,
          "time": 78.61207566666623,
          "velocity": 0.25196850393700787,
          "duration": 0.11376566666666577
        },
        {
          "name": "C#4",
          "midi": 61,
          "time": 78.7258413333329,
          "velocity": 0.2677165354330709,
          "duration": 0.11376566666666577
        },
        {
          "name": "F4",
          "midi": 65,
          "time": 78.83960699999956,
          "velocity": 0.28346456692913385,
          "duration": 0.11376566666666577
        },
        {
          "name": "C#4",
          "midi": 61,
          "time": 78.95337266666623,
          "velocity": 0.25984251968503935,
          "duration": 0.11376566666666577
        },
        {
          "name": "G#3",
          "midi": 56,
          "time": 79.06713833333289,
          "velocity": 0.25196850393700787,
          "duration": 0.11376566666666577
        },
        {
          "name": "G#2",
          "midi": 44,
          "time": 79.18090399999956,
          "velocity": 0.3228346456692913,
          "duration": 0.11376566666667998
        },
        {
          "name": "D#3",
          "midi": 51,
          "time": 79.29466966666624,
          "velocity": 0.30708661417322836,
          "duration": 0.11376566666666577
        },
        {
          "name": "G#3",
          "midi": 56,
          "time": 79.4084353333329,
          "velocity": 0.31496062992125984,
          "duration": 0.11376566666666577
        },
        {
          "name": "C4",
          "midi": 60,
          "time": 79.52220099999957,
          "velocity": 0.31496062992125984,
          "duration": 0.11376566666666577
        },
        {
          "name": "G#3",
          "midi": 56,
          "time": 79.63596666666623,
          "velocity": 0.30708661417322836,
          "duration": 0.11376566666666577
        },
        {
          "name": "D#3",
          "midi": 51,
          "time": 79.7497323333329,
          "velocity": 0.2992125984251969,
          "duration": 0.11376566666666577
        },
        {
          "name": "G#2",
          "midi": 44,
          "time": 79.86349799999957,
          "velocity": 0.29133858267716534,
          "duration": 0.11376566666666577
        },
        {
          "name": "D#3",
          "midi": 51,
          "time": 79.97726366666623,
          "velocity": 0.30708661417322836,
          "duration": 0.11376566666666577
        },
        {
          "name": "G3",
          "midi": 55,
          "time": 80.0910293333329,
          "velocity": 0.31496062992125984,
          "duration": 0.11376566666666577
        },
        {
          "name": "C#4",
          "midi": 61,
          "time": 80.20479499999956,
          "velocity": 0.31496062992125984,
          "duration": 0.11376566666666577
        },
        {
          "name": "G3",
          "midi": 55,
          "time": 80.31856066666623,
          "velocity": 0.30708661417322836,
          "duration": 0.11376566666666577
        },
        {
          "name": "D#3",
          "midi": 51,
          "time": 80.4323263333329,
          "velocity": 0.28346456692913385,
          "duration": 0.11376566666666577
        },
        {
          "name": "G#2",
          "midi": 44,
          "time": 80.54609199999956,
          "velocity": 0.33858267716535434,
          "duration": 0.11376566666667998
        },
        {
          "name": "D#3",
          "midi": 51,
          "time": 80.65985766666624,
          "velocity": 0.28346456692913385,
          "duration": 0.11376566666666577
        },
        {
          "name": "G#3",
          "midi": 56,
          "time": 80.7736233333329,
          "velocity": 0.2992125984251969,
          "duration": 0.11376566666666577
        },
        {
          "name": "C4",
          "midi": 60,
          "time": 80.88738899999957,
          "velocity": 0.30708661417322836,
          "duration": 0.11376566666666577
        },
        {
          "name": "G#3",
          "midi": 56,
          "time": 81.00115466666624,
          "velocity": 0.2992125984251969,
          "duration": 0.11376566666666577
        },
        {
          "name": "D#3",
          "midi": 51,
          "time": 81.1149203333329,
          "velocity": 0.28346456692913385,
          "duration": 0.11376566666666577
        },
        {
          "name": "C#3",
          "midi": 49,
          "time": 81.22868599999957,
          "velocity": 0.25196850393700787,
          "duration": 0.11376566666666577
        },
        {
          "name": "G#3",
          "midi": 56,
          "time": 81.34245166666624,
          "velocity": 0.2755905511811024,
          "duration": 0.11376566666666577
        },
        {
          "name": "C#4",
          "midi": 61,
          "time": 81.4562173333329,
          "velocity": 0.28346456692913385,
          "duration": 0.11376566666666577
        },
        {
          "name": "E4",
          "midi": 64,
          "time": 81.56998299999957,
          "velocity": 0.29133858267716534,
          "duration": 0.11376566666666577
        },
        {
          "name": "C#4",
          "midi": 61,
          "time": 81.68374866666623,
          "velocity": 0.28346456692913385,
          "duration": 0.11376566666666577
        },
        {
          "name": "G#3",
          "midi": 56,
          "time": 81.7975143333329,
          "velocity": 0.2755905511811024,
          "duration": 0.11376566666666577
        },
        {
          "name": "D#2",
          "midi": 39,
          "time": 81.91127999999956,
          "velocity": 0.3228346456692913,
          "duration": 0.11376566666667998
        },
        {
          "name": "D#3",
          "midi": 51,
          "time": 82.02504566666624,
          "velocity": 0.30708661417322836,
          "duration": 0.11376566666666577
        },
        {
          "name": "G#3",
          "midi": 56,
          "time": 82.13881133333291,
          "velocity": 0.31496062992125984,
          "duration": 0.11376566666666577
        },
        {
          "name": "C4",
          "midi": 60,
          "time": 82.25257699999958,
          "velocity": 0.31496062992125984,
          "duration": 0.11376566666666577
        },
        {
          "name": "G#3",
          "midi": 56,
          "time": 82.36634266666624,
          "velocity": 0.30708661417322836,
          "duration": 0.11376566666666577
        },
        {
          "name": "D#3",
          "midi": 51,
          "time": 82.48010833333291,
          "velocity": 0.2992125984251969,
          "duration": 0.11376566666666577
        },
        {
          "name": "D#2",
          "midi": 39,
          "time": 82.59387399999957,
          "velocity": 0.29133858267716534,
          "duration": 0.11376566666666577
        },
        {
          "name": "D#3",
          "midi": 51,
          "time": 82.70763966666624,
          "velocity": 0.30708661417322836,
          "duration": 0.11376566666666577
        },
        {
          "name": "G3",
          "midi": 55,
          "time": 82.8214053333329,
          "velocity": 0.31496062992125984,
          "duration": 0.11376566666666577
        },
        {
          "name": "C#4",
          "midi": 61,
          "time": 82.93517099999957,
          "velocity": 0.31496062992125984,
          "duration": 0.11376566666666577
        },
        {
          "name": "G3",
          "midi": 55,
          "time": 83.04893666666624,
          "velocity": 0.30708661417322836,
          "duration": 0.11376566666666577
        },
        {
          "name": "D#3",
          "midi": 51,
          "time": 83.1627023333329,
          "velocity": 0.28346456692913385,
          "duration": 0.11376566666666577
        },
        {
          "name": "G#2",
          "midi": 44,
          "time": 83.27646799999957,
          "velocity": 0.3228346456692913,
          "duration": 0.11376566666667998
        },
        {
          "name": "D#3",
          "midi": 51,
          "time": 83.39023366666625,
          "velocity": 0.28346456692913385,
          "duration": 0.11376566666666577
        },
        {
          "name": "G#3",
          "midi": 56,
          "time": 83.50399933333291,
          "velocity": 0.2992125984251969,
          "duration": 0.11376566666666577
        },
        {
          "name": "C4",
          "midi": 60,
          "time": 83.61776499999958,
          "velocity": 0.30708661417322836,
          "duration": 0.11376566666666577
        },
        {
          "name": "G#3",
          "midi": 56,
          "time": 83.73153066666625,
          "velocity": 0.2992125984251969,
          "duration": 0.11376566666666577
        },
        {
          "name": "D#3",
          "midi": 51,
          "time": 83.84529633333291,
          "velocity": 0.28346456692913385,
          "duration": 0.11376566666666577
        },
        {
          "name": "F#2",
          "midi": 42,
          "time": 83.95906199999958,
          "velocity": 0.18110236220472442,
          "duration": 0.11376566666666577
        },
        {
          "name": "F#3",
          "midi": 54,
          "time": 84.07282766666624,
          "velocity": 0.1889763779527559,
          "duration": 0.11376566666666577
        },
        {
          "name": "A#3",
          "midi": 58,
          "time": 84.18659333333291,
          "velocity": 0.2047244094488189,
          "duration": 0.11376566666666577
        },
        {
          "name": "C#4",
          "midi": 61,
          "time": 84.30035899999957,
          "velocity": 0.2125984251968504,
          "duration": 0.11376566666666577
        },
        {
          "name": "A#3",
          "midi": 58,
          "time": 84.41412466666624,
          "velocity": 0.1889763779527559,
          "duration": 0.11376566666666577
        },
        {
          "name": "F#3",
          "midi": 54,
          "time": 84.5278903333329,
          "velocity": 0.1889763779527559,
          "duration": 0.11376566666666577
        },
        {
          "name": "G#2",
          "midi": 44,
          "time": 84.64165599999957,
          "velocity": 0.1968503937007874,
          "duration": 0.11376566666666577
        },
        {
          "name": "G#3",
          "midi": 56,
          "time": 84.75542166666624,
          "velocity": 0.2047244094488189,
          "duration": 0.11376566666666577
        },
        {
          "name": "C4",
          "midi": 60,
          "time": 84.8691873333329,
          "velocity": 0.2125984251968504,
          "duration": 0.11376566666666577
        },
        {
          "name": "D#4",
          "midi": 63,
          "time": 84.98295299999957,
          "velocity": 0.2204724409448819,
          "duration": 0.11376566666666577
        },
        {
          "name": "C4",
          "midi": 60,
          "time": 85.09671866666623,
          "velocity": 0.2204724409448819,
          "duration": 0.11376566666666577
        },
        {
          "name": "G#3",
          "midi": 56,
          "time": 85.2104843333329,
          "velocity": 0.2125984251968504,
          "duration": 0.11376566666666577
        },
        {
          "name": "C#3",
          "midi": 49,
          "time": 85.32424999999957,
          "velocity": 0.2125984251968504,
          "duration": 0.11376566666666577
        },
        {
          "name": "G#3",
          "midi": 56,
          "time": 85.43801566666623,
          "velocity": 0.2204724409448819,
          "duration": 0.11376566666666577
        },
        {
          "name": "C4",
          "midi": 60,
          "time": 85.5517813333329,
          "velocity": 0.23622047244094488,
          "duration": 0.11376566666666577
        },
        {
          "name": "F#4",
          "midi": 66,
          "time": 85.66554699999956,
          "velocity": 0.25196850393700787,
          "duration": 0.11376566666666577
        },
        {
          "name": "C4",
          "midi": 60,
          "time": 85.77931266666623,
          "velocity": 0.2440944881889764,
          "duration": 0.11376566666666577
        },
        {
          "name": "G#3",
          "midi": 56,
          "time": 85.8930783333329,
          "velocity": 0.23622047244094488,
          "duration": 0.11376566666666577
        },
        {
          "name": "C#3",
          "midi": 49,
          "time": 86.00684399999956,
          "velocity": 0.25196850393700787,
          "duration": 0.11376566666666577
        },
        {
          "name": "G#3",
          "midi": 56,
          "time": 86.12060966666623,
          "velocity": 0.25984251968503935,
          "duration": 0.11376566666666577
        },
        {
          "name": "C#4",
          "midi": 61,
          "time": 86.23437533333289,
          "velocity": 0.2677165354330709,
          "duration": 0.11376566666666577
        },
        {
          "name": "F4",
          "midi": 65,
          "time": 86.34814099999956,
          "velocity": 0.2755905511811024,
          "duration": 0.11376566666666577
        },
        {
          "name": "C#4",
          "midi": 61,
          "time": 86.46190666666622,
          "velocity": 0.28346456692913385,
          "duration": 0.11376566666666577
        },
        {
          "name": "G#3",
          "midi": 56,
          "time": 86.57567233333289,
          "velocity": 0.2677165354330709,
          "duration": 0.11376566666666577
        },
        {
          "name": "C#3",
          "midi": 49,
          "time": 86.68943799999956,
          "velocity": 0.25196850393700787,
          "duration": 0.11376566666666577
        },
        {
          "name": "G#3",
          "midi": 56,
          "time": 86.80320366666622,
          "velocity": 0.25984251968503935,
          "duration": 0.11376566666666577
        },
        {
          "name": "F4",
          "midi": 65,
          "time": 86.91696933333289,
          "velocity": 0.2755905511811024,
          "duration": 0.11376566666666577
        },
        {
          "name": "F4",
          "midi": 65,
          "time": 87.14450066666622,
          "velocity": 0.28346456692913385,
          "duration": 0.11376566666666577
        },
        {
          "name": "G#3",
          "midi": 56,
          "time": 87.25826633333288,
          "velocity": 0.2755905511811024,
          "duration": 0.11376566666666577
        },
        {
          "name": "F#4",
          "midi": 66,
          "time": 87.37203199999955,
          "velocity": 0.28346456692913385,
          "duration": 0.11376566666667998
        },
        {
          "name": "D#4",
          "midi": 63,
          "time": 87.48579766666623,
          "velocity": 0.2440944881889764,
          "duration": 0.11376566666666577
        },
        {
          "name": "G#3",
          "midi": 56,
          "time": 87.5995633333329,
          "velocity": 0.2440944881889764,
          "duration": 0.11376566666666577
        },
        {
          "name": "F4",
          "midi": 65,
          "time": 87.71332899999956,
          "velocity": 0.28346456692913385,
          "duration": 0.11376566666666577
        },
        {
          "name": "C#4",
          "midi": 61,
          "time": 87.82709466666623,
          "velocity": 0.2440944881889764,
          "duration": 0.11376566666666577
        },
        {
          "name": "G#3",
          "midi": 56,
          "time": 87.94086033333289,
          "velocity": 0.2440944881889764,
          "duration": 0.11376566666666577
        },
        {
          "name": "D#4",
          "midi": 63,
          "time": 88.05462599999956,
          "velocity": 0.28346456692913385,
          "duration": 0.11376566666666577
        },
        {
          "name": "C4",
          "midi": 60,
          "time": 88.16839166666622,
          "velocity": 0.2204724409448819,
          "duration": 0.11376566666666577
        },
        {
          "name": "G#3",
          "midi": 56,
          "time": 88.28215733333289,
          "velocity": 0.2204724409448819,
          "duration": 0.11376566666666577
        },
        {
          "name": "C#4",
          "midi": 61,
          "time": 88.39592299999956,
          "velocity": 0.2755905511811024,
          "duration": 0.11376566666666577
        },
        {
          "name": "G#3",
          "midi": 56,
          "time": 88.50968866666622,
          "velocity": 0.2283464566929134,
          "duration": 0.11376566666666577
        },
        {
          "name": "F3",
          "midi": 53,
          "time": 88.62345433333289,
          "velocity": 0.2283464566929134,
          "duration": 0.11376566666666577
        },
        {
          "name": "G#2",
          "midi": 44,
          "time": 88.73721999999955,
          "velocity": 0.2440944881889764,
          "duration": 0.11376566666666577
        },
        {
          "name": "D#3",
          "midi": 51,
          "time": 88.85098566666622,
          "velocity": 0.25196850393700787,
          "duration": 0.11376566666666577
        },
        {
          "name": "G#3",
          "midi": 56,
          "time": 88.96475133333288,
          "velocity": 0.25196850393700787,
          "duration": 0.11376566666666577
        },
        {
          "name": "C4",
          "midi": 60,
          "time": 89.07851699999955,
          "velocity": 0.25984251968503935,
          "duration": 0.11376566666666577
        },
        {
          "name": "G#3",
          "midi": 56,
          "time": 89.19228266666622,
          "velocity": 0.25196850393700787,
          "duration": 0.11376566666666577
        },
        {
          "name": "D#3",
          "midi": 51,
          "time": 89.30604833333288,
          "velocity": 0.25196850393700787,
          "duration": 0.11376566666666577
        },
        {
          "name": "F#2",
          "midi": 42,
          "time": 89.41981399999955,
          "velocity": 0.25196850393700787,
          "duration": 0.11376566666666577
        },
        {
          "name": "F#3",
          "midi": 54,
          "time": 89.53357966666621,
          "velocity": 0.25196850393700787,
          "duration": 0.11376566666666577
        },
        {
          "name": "A#3",
          "midi": 58,
          "time": 89.64734533333288,
          "velocity": 0.2677165354330709,
          "duration": 0.11376566666666577
        },
        {
          "name": "C#4",
          "midi": 61,
          "time": 89.76111099999954,
          "velocity": 0.2755905511811024,
          "duration": 0.11376566666666577
        },
        {
          "name": "A#3",
          "midi": 58,
          "time": 89.87487666666621,
          "velocity": 0.2677165354330709,
          "duration": 0.11376566666666577
        },
        {
          "name": "F#3",
          "midi": 54,
          "time": 89.98864233333288,
          "velocity": 0.25984251968503935,
          "duration": 0.11376566666666577
        },
        {
          "name": "A#2",
          "midi": 46,
          "time": 90.10240799999954,
          "velocity": 0.25196850393700787,
          "duration": 0.11376566666667998
        },
        {
          "name": "F3",
          "midi": 53,
          "time": 90.21617366666622,
          "velocity": 0.25196850393700787,
          "duration": 0.11376566666666577
        },
        {
          "name": "A#3",
          "midi": 58,
          "time": 90.32993933333289,
          "velocity": 0.2677165354330709,
          "duration": 0.11376566666666577
        },
        {
          "name": "D4",
          "midi": 62,
          "time": 90.44370499999955,
          "velocity": 0.2677165354330709,
          "duration": 0.11376566666666577
        },
        {
          "name": "A#3",
          "midi": 58,
          "time": 90.55747066666622,
          "velocity": 0.25984251968503935,
          "duration": 0.11376566666666577
        },
        {
          "name": "F3",
          "midi": 53,
          "time": 90.67123633333289,
          "velocity": 0.25196850393700787,
          "duration": 0.11376566666666577
        },
        {
          "name": "A#2",
          "midi": 46,
          "time": 90.78500199999955,
          "velocity": 0.25984251968503935,
          "duration": 0.11376566666666577
        },
        {
          "name": "A#3",
          "midi": 58,
          "time": 90.89876766666622,
          "velocity": 0.2755905511811024,
          "duration": 0.11376566666666577
        },
        {
          "name": "D4",
          "midi": 62,
          "time": 91.01253333333288,
          "velocity": 0.28346456692913385,
          "duration": 0.11376566666666577
        },
        {
          "name": "G#4",
          "midi": 68,
          "time": 91.12629899999955,
          "velocity": 0.30708661417322836,
          "duration": 0.11376566666666577
        },
        {
          "name": "D4",
          "midi": 62,
          "time": 91.24006466666621,
          "velocity": 0.29133858267716534,
          "duration": 0.11376566666666577
        },
        {
          "name": "A#3",
          "midi": 58,
          "time": 91.35383033333288,
          "velocity": 0.2755905511811024,
          "duration": 0.11376566666666577
        },
        {
          "name": "D#3",
          "midi": 51,
          "time": 91.46759599999955,
          "velocity": 0.31496062992125984,
          "duration": 0.11376566666666577
        },
        {
          "name": "F#4",
          "midi": 66,
          "time": 91.58136166666621,
          "velocity": 0.29133858267716534,
          "duration": 0.11376566666666577
        },
        {
          "name": "A#3",
          "midi": 58,
          "time": 91.69512733333288,
          "velocity": 0.2677165354330709,
          "duration": 0.11376566666666577
        },
        {
          "name": "F3",
          "midi": 53,
          "time": 91.80889299999954,
          "velocity": 0.2992125984251969,
          "duration": 0.11376566666666577
        },
        {
          "name": "F4",
          "midi": 65,
          "time": 91.92265866666621,
          "velocity": 0.28346456692913385,
          "duration": 0.11376566666666577
        },
        {
          "name": "A3",
          "midi": 57,
          "time": 92.03642433333287,
          "velocity": 0.2677165354330709,
          "duration": 0.11376566666666577
        },
        {
          "name": "F#3",
          "midi": 54,
          "time": 92.15018999999954,
          "velocity": 0.29133858267716534,
          "duration": 0.11376566666666577
        },
        {
          "name": "D#4",
          "midi": 63,
          "time": 92.2639556666662,
          "velocity": 0.25984251968503935,
          "duration": 0.11376566666666577
        },
        {
          "name": "A#3",
          "midi": 58,
          "time": 92.37772133333287,
          "velocity": 0.2755905511811024,
          "duration": 0.11376566666666577
        },
        {
          "name": "G#3",
          "midi": 56,
          "time": 92.49148699999954,
          "velocity": 0.28346456692913385,
          "duration": 0.11376566666667998
        },
        {
          "name": "F#4",
          "midi": 66,
          "time": 92.60525266666622,
          "velocity": 0.25196850393700787,
          "duration": 0.11376566666666577
        },
        {
          "name": "C4",
          "midi": 60,
          "time": 92.71901833333288,
          "velocity": 0.25196850393700787,
          "duration": 0.11376566666666577
        },
        {
          "name": "C#3",
          "midi": 49,
          "time": 92.83278399999955,
          "velocity": 0.23622047244094488,
          "duration": 0.11376566666666577
        },
        {
          "name": "G#3",
          "midi": 56,
          "time": 92.94654966666621,
          "velocity": 0.25196850393700787,
          "duration": 0.11376566666666577
        },
        {
          "name": "C#4",
          "midi": 61,
          "time": 93.06031533333288,
          "velocity": 0.2755905511811024,
          "duration": 0.11376566666666577
        },
        {
          "name": "F4",
          "midi": 65,
          "time": 93.17408099999955,
          "velocity": 0.28346456692913385,
          "duration": 0.11376566666666577
        },
        {
          "name": "C#4",
          "midi": 61,
          "time": 93.28784666666621,
          "velocity": 0.2755905511811024,
          "duration": 0.11376566666666577
        },
        {
          "name": "G#3",
          "midi": 56,
          "time": 93.40161233333288,
          "velocity": 0.25196850393700787,
          "duration": 0.11376566666666577
        },
        {
          "name": "C#3",
          "midi": 49,
          "time": 93.51537799999954,
          "velocity": 0.25196850393700787,
          "duration": 0.11376566666667998
        },
        {
          "name": "G#3",
          "midi": 56,
          "time": 93.62914366666622,
          "velocity": 0.25984251968503935,
          "duration": 0.11376566666666577
        },
        {
          "name": "C4",
          "midi": 60,
          "time": 93.74290933333289,
          "velocity": 0.2755905511811024,
          "duration": 0.11376566666666577
        },
        {
          "name": "F#4",
          "midi": 66,
          "time": 93.85667499999956,
          "velocity": 0.28346456692913385,
          "duration": 0.11376566666666577
        },
        {
          "name": "C4",
          "midi": 60,
          "time": 93.97044066666622,
          "velocity": 0.2755905511811024,
          "duration": 0.11376566666666577
        },
        {
          "name": "G#3",
          "midi": 56,
          "time": 94.08420633333289,
          "velocity": 0.25196850393700787,
          "duration": 0.11376566666666577
        },
        {
          "name": "C#3",
          "midi": 49,
          "time": 94.19797199999955,
          "velocity": 0.25196850393700787,
          "duration": 0.11376566666665155
        },
        {
          "name": "G#3",
          "midi": 56,
          "time": 94.3117376666662,
          "velocity": 0.25984251968503935,
          "duration": 0.11376566666666577
        },
        {
          "name": "C4",
          "midi": 60,
          "time": 94.42550333333287,
          "velocity": 0.28346456692913385,
          "duration": 0.11376566666666577
        },
        {
          "name": "F#4",
          "midi": 66,
          "time": 94.53926899999954,
          "velocity": 0.29133858267716534,
          "duration": 0.11376566666666577
        },
        {
          "name": "C4",
          "midi": 60,
          "time": 94.6530346666662,
          "velocity": 0.28346456692913385,
          "duration": 0.11376566666666577
        },
        {
          "name": "G#3",
          "midi": 56,
          "time": 94.76680033333287,
          "velocity": 0.2677165354330709,
          "duration": 0.11376566666666577
        },
        {
          "name": "C#3",
          "midi": 49,
          "time": 94.88056599999953,
          "velocity": 0.25196850393700787,
          "duration": 0.11376566666666577
        },
        {
          "name": "G#3",
          "midi": 56,
          "time": 94.9943316666662,
          "velocity": 0.25196850393700787,
          "duration": 0.11376566666666577
        },
        {
          "name": "C#4",
          "midi": 61,
          "time": 95.10809733333286,
          "velocity": 0.2677165354330709,
          "duration": 0.11376566666666577
        },
        {
          "name": "F4",
          "midi": 65,
          "time": 95.22186299999953,
          "velocity": 0.28346456692913385,
          "duration": 0.11376566666666577
        },
        {
          "name": "C#4",
          "midi": 61,
          "time": 95.3356286666662,
          "velocity": 0.25984251968503935,
          "duration": 0.11376566666666577
        },
        {
          "name": "G#3",
          "midi": 56,
          "time": 95.44939433333286,
          "velocity": 0.25196850393700787,
          "duration": 0.11376566666666577
        },
        {
          "name": "G#2",
          "midi": 44,
          "time": 95.56315999999953,
          "velocity": 0.3228346456692913,
          "duration": 0.11376566666667998
        },
        {
          "name": "D#3",
          "midi": 51,
          "time": 95.67692566666621,
          "velocity": 0.30708661417322836,
          "duration": 0.11376566666666577
        },
        {
          "name": "G#3",
          "midi": 56,
          "time": 95.79069133333287,
          "velocity": 0.31496062992125984,
          "duration": 0.11376566666666577
        },
        {
          "name": "C4",
          "midi": 60,
          "time": 95.90445699999954,
          "velocity": 0.31496062992125984,
          "duration": 0.11376566666666577
        },
        {
          "name": "G#3",
          "midi": 56,
          "time": 96.0182226666662,
          "velocity": 0.30708661417322836,
          "duration": 0.11376566666666577
        },
        {
          "name": "D#3",
          "midi": 51,
          "time": 96.13198833333287,
          "velocity": 0.2992125984251969,
          "duration": 0.11376566666666577
        },
        {
          "name": "G#2",
          "midi": 44,
          "time": 96.24575399999954,
          "velocity": 0.29133858267716534,
          "duration": 0.11376566666666577
        },
        {
          "name": "D#3",
          "midi": 51,
          "time": 96.3595196666662,
          "velocity": 0.30708661417322836,
          "duration": 0.11376566666666577
        },
        {
          "name": "G3",
          "midi": 55,
          "time": 96.47328533333287,
          "velocity": 0.31496062992125984,
          "duration": 0.11376566666666577
        },
        {
          "name": "C#4",
          "midi": 61,
          "time": 96.58705099999953,
          "velocity": 0.31496062992125984,
          "duration": 0.11376566666666577
        },
        {
          "name": "G3",
          "midi": 55,
          "time": 96.7008166666662,
          "velocity": 0.30708661417322836,
          "duration": 0.11376566666666577
        },
        {
          "name": "D#3",
          "midi": 51,
          "time": 96.81458233333287,
          "velocity": 0.28346456692913385,
          "duration": 0.11376566666666577
        },
        {
          "name": "G#2",
          "midi": 44,
          "time": 96.92834799999953,
          "velocity": 0.33858267716535434,
          "duration": 0.11376566666667998
        },
        {
          "name": "D#3",
          "midi": 51,
          "time": 97.04211366666621,
          "velocity": 0.28346456692913385,
          "duration": 0.11376566666666577
        },
        {
          "name": "G#3",
          "midi": 56,
          "time": 97.15587933333288,
          "velocity": 0.2992125984251969,
          "duration": 0.11376566666666577
        },
        {
          "name": "C4",
          "midi": 60,
          "time": 97.26964499999954,
          "velocity": 0.30708661417322836,
          "duration": 0.11376566666666577
        },
        {
          "name": "G#3",
          "midi": 56,
          "time": 97.38341066666621,
          "velocity": 0.2992125984251969,
          "duration": 0.11376566666666577
        },
        {
          "name": "D#3",
          "midi": 51,
          "time": 97.49717633333287,
          "velocity": 0.28346456692913385,
          "duration": 0.11376566666666577
        },
        {
          "name": "C#3",
          "midi": 49,
          "time": 97.61094199999954,
          "velocity": 0.25196850393700787,
          "duration": 0.11376566666666577
        },
        {
          "name": "G#3",
          "midi": 56,
          "time": 97.7247076666662,
          "velocity": 0.2755905511811024,
          "duration": 0.11376566666666577
        },
        {
          "name": "C#4",
          "midi": 61,
          "time": 97.83847333333287,
          "velocity": 0.28346456692913385,
          "duration": 0.11376566666666577
        },
        {
          "name": "E4",
          "midi": 64,
          "time": 97.95223899999954,
          "velocity": 0.29133858267716534,
          "duration": 0.11376566666666577
        },
        {
          "name": "C#4",
          "midi": 61,
          "time": 98.0660046666662,
          "velocity": 0.28346456692913385,
          "duration": 0.11376566666666577
        },
        {
          "name": "G#3",
          "midi": 56,
          "time": 98.17977033333287,
          "velocity": 0.2755905511811024,
          "duration": 0.11376566666666577
        },
        {
          "name": "D#2",
          "midi": 39,
          "time": 98.29353599999953,
          "velocity": 0.3228346456692913,
          "duration": 0.11376566666667998
        },
        {
          "name": "D#3",
          "midi": 51,
          "time": 98.40730166666621,
          "velocity": 0.30708661417322836,
          "duration": 0.11376566666666577
        },
        {
          "name": "G#3",
          "midi": 56,
          "time": 98.52106733333288,
          "velocity": 0.31496062992125984,
          "duration": 0.11376566666666577
        },
        {
          "name": "C4",
          "midi": 60,
          "time": 98.63483299999955,
          "velocity": 0.31496062992125984,
          "duration": 0.11376566666666577
        },
        {
          "name": "G#3",
          "midi": 56,
          "time": 98.74859866666621,
          "velocity": 0.30708661417322836,
          "duration": 0.11376566666666577
        },
        {
          "name": "D#3",
          "midi": 51,
          "time": 98.86236433333288,
          "velocity": 0.2992125984251969,
          "duration": 0.11376566666666577
        },
        {
          "name": "D#2",
          "midi": 39,
          "time": 98.97612999999954,
          "velocity": 0.29133858267716534,
          "duration": 0.11376566666666577
        },
        {
          "name": "D#3",
          "midi": 51,
          "time": 99.08989566666621,
          "velocity": 0.30708661417322836,
          "duration": 0.11376566666666577
        },
        {
          "name": "G3",
          "midi": 55,
          "time": 99.20366133333287,
          "velocity": 0.31496062992125984,
          "duration": 0.11376566666666577
        },
        {
          "name": "C#4",
          "midi": 61,
          "time": 99.31742699999954,
          "velocity": 0.31496062992125984,
          "duration": 0.11376566666666577
        },
        {
          "name": "G3",
          "midi": 55,
          "time": 99.4311926666662,
          "velocity": 0.30708661417322836,
          "duration": 0.11376566666666577
        },
        {
          "name": "D#3",
          "midi": 51,
          "time": 99.54495833333287,
          "velocity": 0.28346456692913385,
          "duration": 0.11376566666666577
        },
        {
          "name": "G#2",
          "midi": 44,
          "time": 99.65872399999954,
          "velocity": 0.3228346456692913,
          "duration": 0.11376566666667998
        },
        {
          "name": "D#3",
          "midi": 51,
          "time": 99.77248966666622,
          "velocity": 0.28346456692913385,
          "duration": 0.11376566666666577
        },
        {
          "name": "G#3",
          "midi": 56,
          "time": 99.88625533333288,
          "velocity": 0.2992125984251969,
          "duration": 0.11376566666666577
        },
        {
          "name": "C4",
          "midi": 60,
          "time": 100.00002099999955,
          "velocity": 0.30708661417322836,
          "duration": 0.11376566666666577
        },
        {
          "name": "G#3",
          "midi": 56,
          "time": 100.11378666666621,
          "velocity": 0.2992125984251969,
          "duration": 0.11376566666666577
        },
        {
          "name": "D#3",
          "midi": 51,
          "time": 100.22755233333288,
          "velocity": 0.28346456692913385,
          "duration": 0.11376566666666577
        },
        {
          "name": "F#2",
          "midi": 42,
          "time": 100.34131799999955,
          "velocity": 0.18110236220472442,
          "duration": 0.11376566666666577
        },
        {
          "name": "F#3",
          "midi": 54,
          "time": 100.45508366666621,
          "velocity": 0.1889763779527559,
          "duration": 0.11376566666666577
        },
        {
          "name": "A#3",
          "midi": 58,
          "time": 100.56884933333288,
          "velocity": 0.2047244094488189,
          "duration": 0.11376566666666577
        },
        {
          "name": "C#4",
          "midi": 61,
          "time": 100.68261499999954,
          "velocity": 0.2125984251968504,
          "duration": 0.11376566666666577
        },
        {
          "name": "A#3",
          "midi": 58,
          "time": 100.79638066666621,
          "velocity": 0.1889763779527559,
          "duration": 0.11376566666666577
        },
        {
          "name": "F#3",
          "midi": 54,
          "time": 100.91014633333288,
          "velocity": 0.1889763779527559,
          "duration": 0.11376566666666577
        },
        {
          "name": "G#2",
          "midi": 44,
          "time": 101.02391199999954,
          "velocity": 0.1968503937007874,
          "duration": 0.11376566666666577
        },
        {
          "name": "D#3",
          "midi": 51,
          "time": 101.1376776666662,
          "velocity": 0.2047244094488189,
          "duration": 0.11376566666666577
        },
        {
          "name": "G#3",
          "midi": 56,
          "time": 101.25144333333287,
          "velocity": 0.2125984251968504,
          "duration": 0.11376566666666577
        },
        {
          "name": "C4",
          "midi": 60,
          "time": 101.36520899999954,
          "velocity": 0.2204724409448819,
          "duration": 0.11376566666666577
        },
        {
          "name": "G#3",
          "midi": 56,
          "time": 101.4789746666662,
          "velocity": 0.2204724409448819,
          "duration": 0.11376566666666577
        },
        {
          "name": "D#3",
          "midi": 51,
          "time": 101.59274033333287,
          "velocity": 0.2125984251968504,
          "duration": 0.11376566666666577
        },
        {
          "name": "G#2",
          "midi": 44,
          "time": 101.70650599999954,
          "velocity": 0.2125984251968504,
          "duration": 0.11376566666666577
        },
        {
          "name": "G#3",
          "midi": 56,
          "time": 101.8202716666662,
          "velocity": 0.2204724409448819,
          "duration": 0.11376566666666577
        },
        {
          "name": "C4",
          "midi": 60,
          "time": 101.93403733333287,
          "velocity": 0.23622047244094488,
          "duration": 0.11376566666666577
        },
        {
          "name": "F#4",
          "midi": 66,
          "time": 102.04780299999953,
          "velocity": 0.25196850393700787,
          "duration": 0.11376566666666577
        },
        {
          "name": "C4",
          "midi": 60,
          "time": 102.1615686666662,
          "velocity": 0.2440944881889764,
          "duration": 0.11376566666666577
        },
        {
          "name": "A#3",
          "midi": 58,
          "time": 102.27533433333286,
          "velocity": 0.23622047244094488,
          "duration": 0.11376566666666577
        },
        {
          "name": "C#3",
          "midi": 49,
          "time": 102.38909999999953,
          "velocity": 0.25196850393700787,
          "duration": 0.11376566666666577
        },
        {
          "name": "G#3",
          "midi": 56,
          "time": 102.5028656666662,
          "velocity": 0.25984251968503935,
          "duration": 0.11376566666666577
        },
        {
          "name": "C#4",
          "midi": 61,
          "time": 102.61663133333286,
          "velocity": 0.2677165354330709,
          "duration": 0.11376566666666577
        },
        {
          "name": "F4",
          "midi": 65,
          "time": 102.73039699999953,
          "velocity": 0.2755905511811024,
          "duration": 0.11376566666666577
        },
        {
          "name": "C#4",
          "midi": 61,
          "time": 102.8441626666662,
          "velocity": 0.28346456692913385,
          "duration": 0.11376566666666577
        },
        {
          "name": "G#3",
          "midi": 56,
          "time": 102.95792833333286,
          "velocity": 0.2677165354330709,
          "duration": 0.11376566666666577
        },
        {
          "name": "C#3",
          "midi": 49,
          "time": 103.07169399999952,
          "velocity": 0.25196850393700787,
          "duration": 0.11376566666666577
        },
        {
          "name": "G#3",
          "midi": 56,
          "time": 103.18545966666619,
          "velocity": 0.25984251968503935,
          "duration": 0.11376566666666577
        },
        {
          "name": "F4",
          "midi": 65,
          "time": 103.29922533333286,
          "velocity": 0.2755905511811024,
          "duration": 0.11376566666666577
        },
        {
          "name": "F4",
          "midi": 65,
          "time": 103.52675666666619,
          "velocity": 0.28346456692913385,
          "duration": 0.11376566666666577
        },
        {
          "name": "G#3",
          "midi": 56,
          "time": 103.64052233333285,
          "velocity": 0.2755905511811024,
          "duration": 0.11376566666666577
        },
        {
          "name": "F#4",
          "midi": 66,
          "time": 103.75428799999952,
          "velocity": 0.28346456692913385,
          "duration": 0.11376566666667998
        },
        {
          "name": "D#4",
          "midi": 63,
          "time": 103.8680536666662,
          "velocity": 0.2440944881889764,
          "duration": 0.11376566666666577
        },
        {
          "name": "G#3",
          "midi": 56,
          "time": 103.98181933333287,
          "velocity": 0.2440944881889764,
          "duration": 0.11376566666666577
        },
        {
          "name": "F4",
          "midi": 65,
          "time": 104.09558499999953,
          "velocity": 0.28346456692913385,
          "duration": 0.11376566666666577
        },
        {
          "name": "C#4",
          "midi": 61,
          "time": 104.2093506666662,
          "velocity": 0.2440944881889764,
          "duration": 0.11376566666666577
        },
        {
          "name": "G#3",
          "midi": 56,
          "time": 104.32311633333286,
          "velocity": 0.2440944881889764,
          "duration": 0.11376566666666577
        },
        {
          "name": "D#4",
          "midi": 63,
          "time": 104.43688199999953,
          "velocity": 0.28346456692913385,
          "duration": 0.11376566666666577
        },
        {
          "name": "C4",
          "midi": 60,
          "time": 104.5506476666662,
          "velocity": 0.2204724409448819,
          "duration": 0.11376566666666577
        },
        {
          "name": "G#3",
          "midi": 56,
          "time": 104.66441333333286,
          "velocity": 0.2204724409448819,
          "duration": 0.11376566666666577
        },
        {
          "name": "C#4",
          "midi": 61,
          "time": 104.77817899999953,
          "velocity": 0.2755905511811024,
          "duration": 0.11376566666666577
        },
        {
          "name": "G#3",
          "midi": 56,
          "time": 104.89194466666619,
          "velocity": 0.2283464566929134,
          "duration": 0.11376566666666577
        },
        {
          "name": "F3",
          "midi": 53,
          "time": 105.00571033333286,
          "velocity": 0.2283464566929134,
          "duration": 0.11376566666666577
        },
        {
          "name": "G#2",
          "midi": 44,
          "time": 105.11947599999952,
          "velocity": 0.2440944881889764,
          "duration": 0.11376566666666577
        },
        {
          "name": "D#3",
          "midi": 51,
          "time": 105.23324166666619,
          "velocity": 0.25196850393700787,
          "duration": 0.11376566666666577
        },
        {
          "name": "G#3",
          "midi": 56,
          "time": 105.34700733333285,
          "velocity": 0.25196850393700787,
          "duration": 0.11376566666666577
        },
        {
          "name": "C4",
          "midi": 60,
          "time": 105.46077299999952,
          "velocity": 0.25984251968503935,
          "duration": 0.11376566666666577
        },
        {
          "name": "G#3",
          "midi": 56,
          "time": 105.57453866666619,
          "velocity": 0.25196850393700787,
          "duration": 0.11376566666666577
        },
        {
          "name": "D#3",
          "midi": 51,
          "time": 105.68830433333285,
          "velocity": 0.25196850393700787,
          "duration": 0.11376566666666577
        },
        {
          "name": "F#2",
          "midi": 42,
          "time": 105.80206999999952,
          "velocity": 0.25196850393700787,
          "duration": 0.11376566666666577
        },
        {
          "name": "F#3",
          "midi": 54,
          "time": 105.91583566666618,
          "velocity": 0.25196850393700787,
          "duration": 0.11376566666666577
        },
        {
          "name": "A#3",
          "midi": 58,
          "time": 106.02960133333285,
          "velocity": 0.2677165354330709,
          "duration": 0.11376566666666577
        },
        {
          "name": "C#4",
          "midi": 61,
          "time": 106.14336699999951,
          "velocity": 0.2755905511811024,
          "duration": 0.11376566666666577
        },
        {
          "name": "A#3",
          "midi": 58,
          "time": 106.25713266666618,
          "velocity": 0.2677165354330709,
          "duration": 0.11376566666666577
        },
        {
          "name": "F#3",
          "midi": 54,
          "time": 106.37089833333285,
          "velocity": 0.25984251968503935,
          "duration": 0.11376566666666577
        },
        {
          "name": "A#2",
          "midi": 46,
          "time": 106.48466399999951,
          "velocity": 0.25196850393700787,
          "duration": 0.11376566666667998
        },
        {
          "name": "F3",
          "midi": 53,
          "time": 106.59842966666619,
          "velocity": 0.25196850393700787,
          "duration": 0.11376566666666577
        },
        {
          "name": "A#3",
          "midi": 58,
          "time": 106.71219533333286,
          "velocity": 0.2677165354330709,
          "duration": 0.11376566666666577
        },
        {
          "name": "D4",
          "midi": 62,
          "time": 106.82596099999952,
          "velocity": 0.2677165354330709,
          "duration": 0.11376566666666577
        },
        {
          "name": "A#3",
          "midi": 58,
          "time": 106.93972666666619,
          "velocity": 0.25984251968503935,
          "duration": 0.11376566666666577
        },
        {
          "name": "F3",
          "midi": 53,
          "time": 107.05349233333285,
          "velocity": 0.25196850393700787,
          "duration": 0.11376566666666577
        },
        {
          "name": "A#2",
          "midi": 46,
          "time": 107.16725799999952,
          "velocity": 0.25984251968503935,
          "duration": 0.11376566666666577
        },
        {
          "name": "A#3",
          "midi": 58,
          "time": 107.28102366666619,
          "velocity": 0.2755905511811024,
          "duration": 0.11376566666666577
        },
        {
          "name": "D4",
          "midi": 62,
          "time": 107.39478933333285,
          "velocity": 0.28346456692913385,
          "duration": 0.11376566666666577
        },
        {
          "name": "G#4",
          "midi": 68,
          "time": 107.50855499999952,
          "velocity": 0.30708661417322836,
          "duration": 0.11376566666666577
        },
        {
          "name": "D4",
          "midi": 62,
          "time": 107.62232066666618,
          "velocity": 0.29133858267716534,
          "duration": 0.11376566666666577
        },
        {
          "name": "A#3",
          "midi": 58,
          "time": 107.73608633333285,
          "velocity": 0.2755905511811024,
          "duration": 0.11376566666666577
        },
        {
          "name": "D#3",
          "midi": 51,
          "time": 107.84985199999952,
          "velocity": 0.31496062992125984,
          "duration": 0.11376566666666577
        },
        {
          "name": "F#4",
          "midi": 66,
          "time": 107.96361766666618,
          "velocity": 0.29133858267716534,
          "duration": 0.11376566666666577
        },
        {
          "name": "A#3",
          "midi": 58,
          "time": 108.07738333333285,
          "velocity": 0.2677165354330709,
          "duration": 0.11376566666666577
        },
        {
          "name": "F3",
          "midi": 53,
          "time": 108.19114899999951,
          "velocity": 0.29133858267716534,
          "duration": 0.11376566666666577
        },
        {
          "name": "F4",
          "midi": 65,
          "time": 108.30491466666618,
          "velocity": 0.25984251968503935,
          "duration": 0.11376566666666577
        },
        {
          "name": "A3",
          "midi": 57,
          "time": 108.41868033333284,
          "velocity": 0.2677165354330709,
          "duration": 0.11376566666666577
        },
        {
          "name": "F#3",
          "midi": 54,
          "time": 108.53244599999951,
          "velocity": 0.28346456692913385,
          "duration": 0.11376566666666577
        },
        {
          "name": "D#4",
          "midi": 63,
          "time": 108.64621166666618,
          "velocity": 0.23622047244094488,
          "duration": 0.11376566666666577
        },
        {
          "name": "A#3",
          "midi": 58,
          "time": 108.75997733333284,
          "velocity": 0.23622047244094488,
          "duration": 0.11376566666666577
        },
        {
          "name": "G#3",
          "midi": 56,
          "time": 108.87374299999951,
          "velocity": 0.28346456692913385,
          "duration": 0.11376566666667998
        },
        {
          "name": "F#4",
          "midi": 66,
          "time": 108.98750866666619,
          "velocity": 0.25196850393700787,
          "duration": 0.11376566666666577
        },
        {
          "name": "C4",
          "midi": 60,
          "time": 109.10127433333285,
          "velocity": 0.25196850393700787,
          "duration": 0.11376566666666577
        },
        {
          "name": "C#3",
          "midi": 49,
          "time": 109.21503999999952,
          "velocity": 0.2125984251968504,
          "duration": 0.11376566666666577
        },
        {
          "name": "G#3",
          "midi": 56,
          "time": 109.32880566666618,
          "velocity": 0.2204724409448819,
          "duration": 0.11376566666666577
        },
        {
          "name": "C#4",
          "midi": 61,
          "time": 109.44257133333285,
          "velocity": 0.2440944881889764,
          "duration": 0.11376566666666577
        },
        {
          "name": "F4",
          "midi": 65,
          "time": 109.55633699999952,
          "velocity": 0.25196850393700787,
          "duration": 0.11376566666666577
        },
        {
          "name": "C#4",
          "midi": 61,
          "time": 109.67010266666618,
          "velocity": 0.2440944881889764,
          "duration": 0.11376566666666577
        },
        {
          "name": "G#3",
          "midi": 56,
          "time": 109.78386833333285,
          "velocity": 0.2204724409448819,
          "duration": 0.11376566666666577
        },
        {
          "name": "C#3",
          "midi": 49,
          "time": 109.89763399999951,
          "velocity": 0.2204724409448819,
          "duration": 0.11376566666667998
        },
        {
          "name": "G#3",
          "midi": 56,
          "time": 110.0113996666662,
          "velocity": 0.2283464566929134,
          "duration": 0.11376566666666577
        },
        {
          "name": "C4",
          "midi": 60,
          "time": 110.12516533333286,
          "velocity": 0.2440944881889764,
          "duration": 0.11376566666666577
        },
        {
          "name": "F#4",
          "midi": 66,
          "time": 110.23893099999952,
          "velocity": 0.25196850393700787,
          "duration": 0.11376566666666577
        },
        {
          "name": "C4",
          "midi": 60,
          "time": 110.35269666666619,
          "velocity": 0.2440944881889764,
          "duration": 0.11376566666666577
        },
        {
          "name": "G#3",
          "midi": 56,
          "time": 110.46646233333286,
          "velocity": 0.2204724409448819,
          "duration": 0.11376566666666577
        },
        {
          "name": "C#3",
          "midi": 49,
          "time": 110.58022799999952,
          "velocity": 0.1889763779527559,
          "duration": 0.11376566666665155
        },
        {
          "name": "G#3",
          "midi": 56,
          "time": 110.69399366666617,
          "velocity": 0.1968503937007874,
          "duration": 0.11376566666666577
        },
        {
          "name": "C4",
          "midi": 60,
          "time": 110.80775933333284,
          "velocity": 0.2125984251968504,
          "duration": 0.11376566666666577
        },
        {
          "name": "F#4",
          "midi": 66,
          "time": 110.9215249999995,
          "velocity": 0.2283464566929134,
          "duration": 0.11376566666666577
        },
        {
          "name": "C4",
          "midi": 60,
          "time": 111.03529066666617,
          "velocity": 0.2125984251968504,
          "duration": 0.11376566666666577
        },
        {
          "name": "G#3",
          "midi": 56,
          "time": 111.14905633333284,
          "velocity": 0.2047244094488189,
          "duration": 0.11376566666666577
        },
        {
          "name": "C#3",
          "midi": 49,
          "time": 111.2628219999995,
          "velocity": 0.1889763779527559,
          "duration": 0.11376566666666577
        },
        {
          "name": "G#3",
          "midi": 56,
          "time": 111.37658766666617,
          "velocity": 0.1968503937007874,
          "duration": 0.11376566666666577
        },
        {
          "name": "C4",
          "midi": 60,
          "time": 111.49035333333283,
          "velocity": 0.2125984251968504,
          "duration": 0.11376566666666577
        },
        {
          "name": "F#4",
          "midi": 66,
          "time": 111.6041189999995,
          "velocity": 0.2125984251968504,
          "duration": 0.11376566666666577
        },
        {
          "name": "C4",
          "midi": 60,
          "time": 111.71788466666617,
          "velocity": 0.2125984251968504,
          "duration": 0.11376566666666577
        },
        {
          "name": "G#3",
          "midi": 56,
          "time": 111.83165033333283,
          "velocity": 0.1968503937007874,
          "duration": 0.11376566666666577
        },
        {
          "name": "C#3",
          "midi": 49,
          "time": 111.9454159999995,
          "velocity": 0.2125984251968504,
          "duration": 0.11376566666667998
        },
        {
          "name": "G#3",
          "midi": 56,
          "time": 112.05918166666618,
          "velocity": 0.23622047244094488,
          "duration": 0.11376566666666577
        },
        {
          "name": "C#4",
          "midi": 61,
          "time": 112.17294733333284,
          "velocity": 0.25984251968503935,
          "duration": 0.11376566666666577
        },
        {
          "name": "E4",
          "midi": 64,
          "time": 112.28671299999951,
          "velocity": 0.28346456692913385,
          "duration": 0.11376566666666577
        },
        {
          "name": "C#4",
          "midi": 61,
          "time": 112.40047866666617,
          "velocity": 0.2677165354330709,
          "duration": 0.11376566666666577
        },
        {
          "name": "G#3",
          "midi": 56,
          "time": 112.51424433333284,
          "velocity": 0.25196850393700787,
          "duration": 0.11376566666666577
        },
        {
          "name": "E3",
          "midi": 52,
          "time": 112.6280099999995,
          "velocity": 0.2440944881889764,
          "duration": 0.11376566666666577
        },
        {
          "name": "G#3",
          "midi": 56,
          "time": 112.74177566666617,
          "velocity": 0.25984251968503935,
          "duration": 0.11376566666666577
        },
        {
          "name": "C#4",
          "midi": 61,
          "time": 112.85554133333284,
          "velocity": 0.28346456692913385,
          "duration": 0.11376566666666577
        },
        {
          "name": "E4",
          "midi": 64,
          "time": 112.9693069999995,
          "velocity": 0.29133858267716534,
          "duration": 0.11376566666666577
        },
        {
          "name": "C#4",
          "midi": 61,
          "time": 113.08307266666617,
          "velocity": 0.2677165354330709,
          "duration": 0.11376566666666577
        },
        {
          "name": "G#3",
          "midi": 56,
          "time": 113.19683833333283,
          "velocity": 0.25196850393700787,
          "duration": 0.11376566666666577
        },
        {
          "name": "C#3",
          "midi": 49,
          "time": 113.3106039999995,
          "velocity": 0.25196850393700787,
          "duration": 0.11376566666667998
        },
        {
          "name": "G#3",
          "midi": 56,
          "time": 113.42436966666618,
          "velocity": 0.28346456692913385,
          "duration": 0.11376566666666577
        },
        {
          "name": "C#4",
          "midi": 61,
          "time": 113.53813533333285,
          "velocity": 0.31496062992125984,
          "duration": 0.11376566666666577
        },
        {
          "name": "E4",
          "midi": 64,
          "time": 113.65190099999951,
          "velocity": 0.33858267716535434,
          "duration": 0.11376566666666577
        },
        {
          "name": "C#4",
          "midi": 61,
          "time": 113.76566666666618,
          "velocity": 0.3228346456692913,
          "duration": 0.11376566666666577
        },
        {
          "name": "G#3",
          "midi": 56,
          "time": 113.87943233333284,
          "velocity": 0.30708661417322836,
          "duration": 0.11376566666666577
        },
        {
          "name": "E3",
          "midi": 52,
          "time": 113.99319799999951,
          "velocity": 0.29133858267716534,
          "duration": 0.11376566666666577
        },
        {
          "name": "G#3",
          "midi": 56,
          "time": 114.10696366666618,
          "velocity": 0.30708661417322836,
          "duration": 0.11376566666666577
        },
        {
          "name": "C#4",
          "midi": 61,
          "time": 114.22072933333284,
          "velocity": 0.33858267716535434,
          "duration": 0.11376566666666577
        },
        {
          "name": "E4",
          "midi": 64,
          "time": 114.3344949999995,
          "velocity": 0.3464566929133858,
          "duration": 0.11376566666666577
        },
        {
          "name": "C#4",
          "midi": 61,
          "time": 114.44826066666617,
          "velocity": 0.3228346456692913,
          "duration": 0.11376566666666577
        },
        {
          "name": "G#3",
          "midi": 56,
          "time": 114.56202633333284,
          "velocity": 0.2992125984251969,
          "duration": 0.11376566666666577
        },
        {
          "name": "D#3",
          "midi": 51,
          "time": 114.6757919999995,
          "velocity": 0.29133858267716534,
          "duration": 0.11376566666667998
        },
        {
          "name": "A3",
          "midi": 57,
          "time": 114.78955766666618,
          "velocity": 0.33070866141732286,
          "duration": 0.11376566666666577
        },
        {
          "name": "C#4",
          "midi": 61,
          "time": 114.90332333333285,
          "velocity": 0.3700787401574803,
          "duration": 0.11376566666666577
        },
        {
          "name": "F#4",
          "midi": 66,
          "time": 115.01708899999952,
          "velocity": 0.41732283464566927,
          "duration": 0.11376566666666577
        },
        {
          "name": "C#4",
          "midi": 61,
          "time": 115.13085466666618,
          "velocity": 0.3700787401574803,
          "duration": 0.11376566666666577
        },
        {
          "name": "A3",
          "midi": 57,
          "time": 115.24462033333285,
          "velocity": 0.3464566929133858,
          "duration": 0.11376566666666577
        },
        {
          "name": "F#3",
          "midi": 54,
          "time": 115.35838599999951,
          "velocity": 0.3464566929133858,
          "duration": 0.11376566666666577
        },
        {
          "name": "C#4",
          "midi": 61,
          "time": 115.47215166666618,
          "velocity": 0.3779527559055118,
          "duration": 0.11376566666666577
        },
        {
          "name": "D#4",
          "midi": 63,
          "time": 115.58591733333284,
          "velocity": 0.4094488188976378,
          "duration": 0.11376566666666577
        },
        {
          "name": "A4",
          "midi": 69,
          "time": 115.69968299999951,
          "velocity": 0.4330708661417323,
          "duration": 0.11376566666666577
        },
        {
          "name": "D#4",
          "midi": 63,
          "time": 115.81344866666618,
          "velocity": 0.4094488188976378,
          "duration": 0.11376566666666577
        },
        {
          "name": "C#4",
          "midi": 61,
          "time": 115.92721433333284,
          "velocity": 0.3858267716535433,
          "duration": 0.11376566666666577
        },
        {
          "name": "G#2",
          "midi": 44,
          "time": 116.04097999999951,
          "velocity": 0.30708661417322836,
          "duration": 0.11376566666667998
        },
        {
          "name": "D#3",
          "midi": 51,
          "time": 116.15474566666619,
          "velocity": 0.33070866141732286,
          "duration": 0.11376566666666577
        },
        {
          "name": "F#3",
          "midi": 54,
          "time": 116.26851133333285,
          "velocity": 0.3543307086614173,
          "duration": 0.11376566666666577
        },
        {
          "name": "C4",
          "midi": 60,
          "time": 116.38227699999952,
          "velocity": 0.36220472440944884,
          "duration": 0.11376566666666577
        },
        {
          "name": "F#3",
          "midi": 54,
          "time": 116.49604266666618,
          "velocity": 0.33858267716535434,
          "duration": 0.11376566666666577
        },
        {
          "name": "D#3",
          "midi": 51,
          "time": 116.60980833333285,
          "velocity": 0.31496062992125984,
          "duration": 0.11376566666666577
        },
        {
          "name": "G#2",
          "midi": 44,
          "time": 116.72357399999952,
          "velocity": 0.2755905511811024,
          "duration": 0.11376566666666577
        },
        {
          "name": "D#3",
          "midi": 51,
          "time": 116.83733966666618,
          "velocity": 0.29133858267716534,
          "duration": 0.11376566666666577
        },
        {
          "name": "F#3",
          "midi": 54,
          "time": 116.95110533333285,
          "velocity": 0.30708661417322836,
          "duration": 0.11376566666666577
        },
        {
          "name": "C4",
          "midi": 60,
          "time": 117.06487099999951,
          "velocity": 0.30708661417322836,
          "duration": 0.11376566666666577
        },
        {
          "name": "F#3",
          "midi": 54,
          "time": 117.17863666666618,
          "velocity": 0.2755905511811024,
          "duration": 0.11376566666666577
        },
        {
          "name": "D#3",
          "midi": 51,
          "time": 117.29240233333284,
          "velocity": 0.2440944881889764,
          "duration": 0.11376566666666577
        },
        {
          "name": "C#3",
          "midi": 49,
          "time": 117.40616799999951,
          "velocity": 0.2125984251968504,
          "duration": 0.11376566666667998
        },
        {
          "name": "G#3",
          "midi": 56,
          "time": 117.51993366666619,
          "velocity": 0.23622047244094488,
          "duration": 0.11376566666666577
        },
        {
          "name": "C#4",
          "midi": 61,
          "time": 117.63369933333286,
          "velocity": 0.25984251968503935,
          "duration": 0.11376566666666577
        },
        {
          "name": "E4",
          "midi": 64,
          "time": 117.74746499999952,
          "velocity": 0.28346456692913385,
          "duration": 0.11376566666666577
        },
        {
          "name": "C#4",
          "midi": 61,
          "time": 117.86123066666619,
          "velocity": 0.2677165354330709,
          "duration": 0.11376566666666577
        },
        {
          "name": "G#3",
          "midi": 56,
          "time": 117.97499633333285,
          "velocity": 0.25196850393700787,
          "duration": 0.11376566666666577
        },
        {
          "name": "E3",
          "midi": 52,
          "time": 118.08876199999952,
          "velocity": 0.2440944881889764,
          "duration": 0.11376566666666577
        },
        {
          "name": "G#3",
          "midi": 56,
          "time": 118.20252766666619,
          "velocity": 0.25984251968503935,
          "duration": 0.11376566666666577
        },
        {
          "name": "C#4",
          "midi": 61,
          "time": 118.31629333333285,
          "velocity": 0.28346456692913385,
          "duration": 0.11376566666666577
        },
        {
          "name": "E4",
          "midi": 64,
          "time": 118.43005899999952,
          "velocity": 0.29133858267716534,
          "duration": 0.11376566666666577
        },
        {
          "name": "C#4",
          "midi": 61,
          "time": 118.54382466666618,
          "velocity": 0.2677165354330709,
          "duration": 0.11376566666666577
        },
        {
          "name": "G#3",
          "midi": 56,
          "time": 118.65759033333285,
          "velocity": 0.25196850393700787,
          "duration": 0.11376566666666577
        },
        {
          "name": "C#3",
          "midi": 49,
          "time": 118.77135599999951,
          "velocity": 0.25196850393700787,
          "duration": 0.11376566666667998
        },
        {
          "name": "G#3",
          "midi": 56,
          "time": 118.8851216666662,
          "velocity": 0.28346456692913385,
          "duration": 0.11376566666666577
        },
        {
          "name": "A#3",
          "midi": 58,
          "time": 118.99888733333286,
          "velocity": 0.31496062992125984,
          "duration": 0.11376566666666577
        },
        {
          "name": "E4",
          "midi": 64,
          "time": 119.11265299999953,
          "velocity": 0.33858267716535434,
          "duration": 0.11376566666666577
        },
        {
          "name": "A#3",
          "midi": 58,
          "time": 119.22641866666619,
          "velocity": 0.3228346456692913,
          "duration": 0.11376566666666577
        },
        {
          "name": "G#3",
          "midi": 56,
          "time": 119.34018433333286,
          "velocity": 0.30708661417322836,
          "duration": 0.11376566666666577
        },
        {
          "name": "E3",
          "midi": 52,
          "time": 119.45394999999952,
          "velocity": 0.29133858267716534,
          "duration": 0.11376566666666577
        },
        {
          "name": "G#3",
          "midi": 56,
          "time": 119.56771566666619,
          "velocity": 0.30708661417322836,
          "duration": 0.11376566666666577
        },
        {
          "name": "A#3",
          "midi": 58,
          "time": 119.68148133333285,
          "velocity": 0.33858267716535434,
          "duration": 0.11376566666666577
        },
        {
          "name": "C#4",
          "midi": 61,
          "time": 119.79524699999952,
          "velocity": 0.3464566929133858,
          "duration": 0.11376566666666577
        },
        {
          "name": "A#3",
          "midi": 58,
          "time": 119.90901266666619,
          "velocity": 0.3228346456692913,
          "duration": 0.11376566666666577
        },
        {
          "name": "G#3",
          "midi": 56,
          "time": 120.02277833333285,
          "velocity": 0.2992125984251969,
          "duration": 0.11376566666666577
        },
        {
          "name": "D#3",
          "midi": 51,
          "time": 120.13654399999952,
          "velocity": 0.28346456692913385,
          "duration": 0.11376566666667998
        },
        {
          "name": "G#3",
          "midi": 56,
          "time": 120.2503096666662,
          "velocity": 0.31496062992125984,
          "duration": 0.11376566666666577
        },
        {
          "name": "B3",
          "midi": 59,
          "time": 120.36407533333286,
          "velocity": 0.3464566929133858,
          "duration": 0.11376566666666577
        },
        {
          "name": "D#4",
          "midi": 63,
          "time": 120.47784099999953,
          "velocity": 0.3700787401574803,
          "duration": 0.11376566666666577
        },
        {
          "name": "B3",
          "midi": 59,
          "time": 120.5916066666662,
          "velocity": 0.3543307086614173,
          "duration": 0.11376566666666577
        },
        {
          "name": "G#3",
          "midi": 56,
          "time": 120.70537233333286,
          "velocity": 0.33070866141732286,
          "duration": 0.11376566666666577
        },
        {
          "name": "D#3",
          "midi": 51,
          "time": 120.81913799999953,
          "velocity": 0.3543307086614173,
          "duration": 0.11376566666666577
        },
        {
          "name": "A#3",
          "midi": 58,
          "time": 120.93290366666619,
          "velocity": 0.3858267716535433,
          "duration": 0.11376566666666577
        },
        {
          "name": "C#4",
          "midi": 61,
          "time": 121.04666933333286,
          "velocity": 0.41732283464566927,
          "duration": 0.11376566666666577
        },
        {
          "name": "G4",
          "midi": 67,
          "time": 121.16043499999952,
          "velocity": 0.4330708661417323,
          "duration": 0.11376566666666577
        },
        {
          "name": "C#4",
          "midi": 61,
          "time": 121.27420066666619,
          "velocity": 0.4094488188976378,
          "duration": 0.11376566666666577
        },
        {
          "name": "A#3",
          "midi": 58,
          "time": 121.38796633333286,
          "velocity": 0.3858267716535433,
          "duration": 0.11376566666666577
        },
        {
          "name": "G#2",
          "midi": 44,
          "time": 121.50173199999952,
          "velocity": 0.30708661417322836,
          "duration": 0.11376566666667998
        },
        {
          "name": "D#3",
          "midi": 51,
          "time": 121.6154976666662,
          "velocity": 0.33070866141732286,
          "duration": 0.11376566666666577
        },
        {
          "name": "G#3",
          "midi": 56,
          "time": 121.72926333333287,
          "velocity": 0.3464566929133858,
          "duration": 0.11376566666666577
        },
        {
          "name": "B3",
          "midi": 59,
          "time": 121.84302899999953,
          "velocity": 0.3700787401574803,
          "duration": 0.11376566666666577
        },
        {
          "name": "G#3",
          "midi": 56,
          "time": 121.9567946666662,
          "velocity": 0.36220472440944884,
          "duration": 0.11376566666666577
        },
        {
          "name": "D#3",
          "midi": 51,
          "time": 122.07056033333286,
          "velocity": 0.3464566929133858,
          "duration": 0.11376566666666577
        },
        {
          "name": "G#2",
          "midi": 44,
          "time": 122.18432599999953,
          "velocity": 0.30708661417322836,
          "duration": 0.11376566666666577
        },
        {
          "name": "D#3",
          "midi": 51,
          "time": 122.2980916666662,
          "velocity": 0.33070866141732286,
          "duration": 0.11376566666666577
        },
        {
          "name": "G#3",
          "midi": 56,
          "time": 122.41185733333286,
          "velocity": 0.3543307086614173,
          "duration": 0.11376566666666577
        },
        {
          "name": "B3",
          "midi": 59,
          "time": 122.52562299999953,
          "velocity": 0.36220472440944884,
          "duration": 0.11376566666666577
        },
        {
          "name": "G#3",
          "midi": 56,
          "time": 122.63938866666619,
          "velocity": 0.33070866141732286,
          "duration": 0.11376566666666577
        },
        {
          "name": "D#3",
          "midi": 51,
          "time": 122.75315433333286,
          "velocity": 0.30708661417322836,
          "duration": 0.11376566666666577
        },
        {
          "name": "A2",
          "midi": 45,
          "time": 122.86691999999952,
          "velocity": 0.36220472440944884,
          "duration": 0.11376566666666577
        },
        {
          "name": "C#3",
          "midi": 49,
          "time": 122.98068566666619,
          "velocity": 0.3858267716535433,
          "duration": 0.11376566666666577
        },
        {
          "name": "F#3",
          "midi": 54,
          "time": 123.09445133333286,
          "velocity": 0.4015748031496063,
          "duration": 0.11376566666666577
        },
        {
          "name": "A3",
          "midi": 57,
          "time": 123.20821699999952,
          "velocity": 0.41732283464566927,
          "duration": 0.11376566666666577
        },
        {
          "name": "F#3",
          "midi": 54,
          "time": 123.32198266666619,
          "velocity": 0.4094488188976378,
          "duration": 0.11376566666666577
        },
        {
          "name": "C#3",
          "midi": 49,
          "time": 123.43574833333285,
          "velocity": 0.3937007874015748,
          "duration": 0.11376566666666577
        },
        {
          "name": "A2",
          "midi": 45,
          "time": 123.54951399999952,
          "velocity": 0.3937007874015748,
          "duration": 0.11376566666666577
        },
        {
          "name": "C#3",
          "midi": 49,
          "time": 123.66327966666618,
          "velocity": 0.4094488188976378,
          "duration": 0.11376566666666577
        },
        {
          "name": "F#3",
          "midi": 54,
          "time": 123.77704533333285,
          "velocity": 0.4251968503937008,
          "duration": 0.11376566666666577
        },
        {
          "name": "A3",
          "midi": 57,
          "time": 123.89081099999952,
          "velocity": 0.4251968503937008,
          "duration": 0.11376566666666577
        },
        {
          "name": "F#3",
          "midi": 54,
          "time": 124.00457666666618,
          "velocity": 0.41732283464566927,
          "duration": 0.11376566666666577
        },
        {
          "name": "C#3",
          "midi": 49,
          "time": 124.11834233333285,
          "velocity": 0.4094488188976378,
          "duration": 0.11376566666666577
        },
        {
          "name": "D#3",
          "midi": 51,
          "time": 124.23210799999951,
          "velocity": 0.4094488188976378,
          "duration": 0.11376566666666577
        },
        {
          "name": "F#3",
          "midi": 54,
          "time": 124.34587366666618,
          "velocity": 0.4330708661417323,
          "duration": 0.11376566666666577
        },
        {
          "name": "A3",
          "midi": 57,
          "time": 124.45963933333285,
          "velocity": 0.44881889763779526,
          "duration": 0.11376566666666577
        },
        {
          "name": "B3",
          "midi": 59,
          "time": 124.57340499999951,
          "velocity": 0.4566929133858268,
          "duration": 0.11376566666666577
        },
        {
          "name": "A3",
          "midi": 57,
          "time": 124.68717066666618,
          "velocity": 0.4409448818897638,
          "duration": 0.11376566666666577
        },
        {
          "name": "F#3",
          "midi": 54,
          "time": 124.80093633333284,
          "velocity": 0.4251968503937008,
          "duration": 0.11376566666666577
        },
        {
          "name": "E2",
          "midi": 40,
          "time": 124.91470199999951,
          "velocity": 0.41732283464566927,
          "duration": 0.11376566666666577
        },
        {
          "name": "B2",
          "midi": 47,
          "time": 125.02846766666617,
          "velocity": 0.4330708661417323,
          "duration": 0.11376566666666577
        },
        {
          "name": "E3",
          "midi": 52,
          "time": 125.14223333333284,
          "velocity": 0.44881889763779526,
          "duration": 0.11376566666666577
        },
        {
          "name": "G#3",
          "midi": 56,
          "time": 125.2559989999995,
          "velocity": 0.4409448818897638,
          "duration": 0.11376566666666577
        },
        {
          "name": "E3",
          "midi": 52,
          "time": 125.36976466666617,
          "velocity": 0.4330708661417323,
          "duration": 0.11376566666666577
        },
        {
          "name": "B2",
          "midi": 47,
          "time": 125.48353033333284,
          "velocity": 0.41732283464566927,
          "duration": 0.11376566666666577
        },
        {
          "name": "A2",
          "midi": 45,
          "time": 125.5972959999995,
          "velocity": 0.4094488188976378,
          "duration": 0.11376566666666577
        },
        {
          "name": "C#3",
          "midi": 49,
          "time": 125.71106166666617,
          "velocity": 0.4330708661417323,
          "duration": 0.11376566666666577
        },
        {
          "name": "F#3",
          "midi": 54,
          "time": 125.82482733333283,
          "velocity": 0.44881889763779526,
          "duration": 0.11376566666666577
        },
        {
          "name": "A3",
          "midi": 57,
          "time": 125.9385929999995,
          "velocity": 0.4566929133858268,
          "duration": 0.11376566666666577
        },
        {
          "name": "F#3",
          "midi": 54,
          "time": 126.05235866666617,
          "velocity": 0.4409448818897638,
          "duration": 0.11376566666666577
        },
        {
          "name": "C#3",
          "midi": 49,
          "time": 126.16612433333283,
          "velocity": 0.4251968503937008,
          "duration": 0.11376566666666577
        },
        {
          "name": "A2",
          "midi": 45,
          "time": 126.2798899999995,
          "velocity": 0.41732283464566927,
          "duration": 0.11376566666666577
        },
        {
          "name": "C#3",
          "midi": 49,
          "time": 126.39365566666616,
          "velocity": 0.4330708661417323,
          "duration": 0.11376566666666577
        },
        {
          "name": "F#3",
          "midi": 54,
          "time": 126.50742133333283,
          "velocity": 0.44881889763779526,
          "duration": 0.11376566666666577
        },
        {
          "name": "A3",
          "midi": 57,
          "time": 126.6211869999995,
          "velocity": 0.4409448818897638,
          "duration": 0.11376566666666577
        },
        {
          "name": "F#3",
          "midi": 54,
          "time": 126.73495266666616,
          "velocity": 0.4330708661417323,
          "duration": 0.11376566666666577
        },
        {
          "name": "C#3",
          "midi": 49,
          "time": 126.84871833333283,
          "velocity": 0.41732283464566927,
          "duration": 0.11376566666666577
        },
        {
          "name": "B2",
          "midi": 47,
          "time": 126.96248399999949,
          "velocity": 0.4094488188976378,
          "duration": 0.11376566666666577
        },
        {
          "name": "D#3",
          "midi": 51,
          "time": 127.07624966666616,
          "velocity": 0.4330708661417323,
          "duration": 0.11376566666666577
        },
        {
          "name": "A3",
          "midi": 57,
          "time": 127.19001533333282,
          "velocity": 0.44881889763779526,
          "duration": 0.11376566666666577
        },
        {
          "name": "B3",
          "midi": 59,
          "time": 127.30378099999949,
          "velocity": 0.4566929133858268,
          "duration": 0.11376566666666577
        },
        {
          "name": "A3",
          "midi": 57,
          "time": 127.41754666666615,
          "velocity": 0.4409448818897638,
          "duration": 0.11376566666666577
        },
        {
          "name": "D#3",
          "midi": 51,
          "time": 127.53131233333282,
          "velocity": 0.4251968503937008,
          "duration": 0.11376566666666577
        },
        {
          "name": "E2",
          "midi": 40,
          "time": 127.64507799999949,
          "velocity": 0.41732283464566927,
          "duration": 0.11376566666666577
        },
        {
          "name": "B2",
          "midi": 47,
          "time": 127.75884366666615,
          "velocity": 0.4330708661417323,
          "duration": 0.11376566666666577
        },
        {
          "name": "E3",
          "midi": 52,
          "time": 127.87260933333282,
          "velocity": 0.44881889763779526,
          "duration": 0.11376566666666577
        },
        {
          "name": "G#3",
          "midi": 56,
          "time": 127.98637499999948,
          "velocity": 0.4409448818897638,
          "duration": 0.11376566666667998
        },
        {
          "name": "E3",
          "midi": 52,
          "time": 128.10014066666616,
          "velocity": 0.4330708661417323,
          "duration": 0.11376566666666577
        },
        {
          "name": "B2",
          "midi": 47,
          "time": 128.21390633333283,
          "velocity": 0.41732283464566927,
          "duration": 0.11376566666666577
        },
        {
          "name": "A2",
          "midi": 45,
          "time": 128.3276719999995,
          "velocity": 0.28346456692913385,
          "duration": 0.11376566666666577
        },
        {
          "name": "C#3",
          "midi": 49,
          "time": 128.44143766666616,
          "velocity": 0.30708661417322836,
          "duration": 0.11376566666666577
        },
        {
          "name": "F#3",
          "midi": 54,
          "time": 128.55520333333283,
          "velocity": 0.31496062992125984,
          "duration": 0.11376566666666577
        },
        {
          "name": "A3",
          "midi": 57,
          "time": 128.6689689999995,
          "velocity": 0.33070866141732286,
          "duration": 0.11376566666666577
        },
        {
          "name": "F#3",
          "midi": 54,
          "time": 128.78273466666616,
          "velocity": 0.3228346456692913,
          "duration": 0.11376566666666577
        },
        {
          "name": "C#3",
          "midi": 49,
          "time": 128.89650033333282,
          "velocity": 0.31496062992125984,
          "duration": 0.11376566666666577
        },
        {
          "name": "A2",
          "midi": 45,
          "time": 129.0102659999995,
          "velocity": 0.31496062992125984,
          "duration": 0.11376566666666577
        },
        {
          "name": "C#3",
          "midi": 49,
          "time": 129.12403166666616,
          "velocity": 0.3228346456692913,
          "duration": 0.11376566666666577
        },
        {
          "name": "F#3",
          "midi": 54,
          "time": 129.23779733333282,
          "velocity": 0.33858267716535434,
          "duration": 0.11376566666666577
        },
        {
          "name": "A3",
          "midi": 57,
          "time": 129.3515629999995,
          "velocity": 0.33858267716535434,
          "duration": 0.11376566666666577
        },
        {
          "name": "F#3",
          "midi": 54,
          "time": 129.46532866666615,
          "velocity": 0.33070866141732286,
          "duration": 0.11376566666666577
        },
        {
          "name": "C#3",
          "midi": 49,
          "time": 129.57909433333282,
          "velocity": 0.3228346456692913,
          "duration": 0.11376566666666577
        },
        {
          "name": "B2",
          "midi": 47,
          "time": 129.69285999999948,
          "velocity": 0.3228346456692913,
          "duration": 0.11376566666666577
        },
        {
          "name": "F#3",
          "midi": 54,
          "time": 129.80662566666615,
          "velocity": 0.3464566929133858,
          "duration": 0.11376566666666577
        },
        {
          "name": "A3",
          "midi": 57,
          "time": 129.92039133333282,
          "velocity": 0.3543307086614173,
          "duration": 0.11376566666666577
        },
        {
          "name": "B3",
          "midi": 59,
          "time": 130.03415699999948,
          "velocity": 0.3700787401574803,
          "duration": 0.11376566666666577
        },
        {
          "name": "A3",
          "midi": 57,
          "time": 130.14792266666615,
          "velocity": 0.3543307086614173,
          "duration": 0.11376566666666577
        },
        {
          "name": "F#3",
          "midi": 54,
          "time": 130.2616883333328,
          "velocity": 0.3543307086614173,
          "duration": 0.11376566666666577
        },
        {
          "name": "E2",
          "midi": 40,
          "time": 130.37545399999948,
          "velocity": 0.3464566929133858,
          "duration": 0.11376566666666577
        },
        {
          "name": "B2",
          "midi": 47,
          "time": 130.48921966666614,
          "velocity": 0.3700787401574803,
          "duration": 0.11376566666666577
        },
        {
          "name": "E3",
          "midi": 52,
          "time": 130.6029853333328,
          "velocity": 0.3779527559055118,
          "duration": 0.11376566666666577
        },
        {
          "name": "G#3",
          "midi": 56,
          "time": 130.71675099999948,
          "velocity": 0.3779527559055118,
          "duration": 0.11376566666666577
        },
        {
          "name": "E3",
          "midi": 52,
          "time": 130.83051666666614,
          "velocity": 0.3779527559055118,
          "duration": 0.11376566666666577
        },
        {
          "name": "B2",
          "midi": 47,
          "time": 130.9442823333328,
          "velocity": 0.3700787401574803,
          "duration": 0.11376566666666577
        },
        {
          "name": "A2",
          "midi": 45,
          "time": 131.05804799999947,
          "velocity": 0.36220472440944884,
          "duration": 0.11376566666666577
        },
        {
          "name": "C#3",
          "midi": 49,
          "time": 131.17181366666614,
          "velocity": 0.3937007874015748,
          "duration": 0.11376566666666577
        },
        {
          "name": "F#3",
          "midi": 54,
          "time": 131.2855793333328,
          "velocity": 0.4015748031496063,
          "duration": 0.11376566666666577
        },
        {
          "name": "A3",
          "midi": 57,
          "time": 131.39934499999947,
          "velocity": 0.41732283464566927,
          "duration": 0.11376566666666577
        },
        {
          "name": "F#3",
          "midi": 54,
          "time": 131.51311066666614,
          "velocity": 0.4015748031496063,
          "duration": 0.11376566666666577
        },
        {
          "name": "C#3",
          "midi": 49,
          "time": 131.6268763333328,
          "velocity": 0.3937007874015748,
          "duration": 0.11376566666666577
        },
        {
          "name": "A2",
          "midi": 45,
          "time": 131.74064199999947,
          "velocity": 0.3937007874015748,
          "duration": 0.11376566666666577
        },
        {
          "name": "D#3",
          "midi": 51,
          "time": 131.85440766666613,
          "velocity": 0.4094488188976378,
          "duration": 0.11376566666666577
        },
        {
          "name": "F#3",
          "midi": 54,
          "time": 131.9681733333328,
          "velocity": 0.4251968503937008,
          "duration": 0.11376566666666577
        },
        {
          "name": "A3",
          "midi": 57,
          "time": 132.08193899999947,
          "velocity": 0.4094488188976378,
          "duration": 0.11376566666666577
        },
        {
          "name": "F#3",
          "midi": 54,
          "time": 132.19570466666613,
          "velocity": 0.4094488188976378,
          "duration": 0.11376566666666577
        },
        {
          "name": "D#3",
          "midi": 51,
          "time": 132.3094703333328,
          "velocity": 0.3937007874015748,
          "duration": 0.11376566666666577
        },
        {
          "name": "G#2",
          "midi": 44,
          "time": 132.42323599999946,
          "velocity": 0.3937007874015748,
          "duration": 0.11376566666666577
        },
        {
          "name": "D#3",
          "midi": 51,
          "time": 132.53700166666613,
          "velocity": 0.4094488188976378,
          "duration": 0.11376566666666577
        },
        {
          "name": "F#3",
          "midi": 54,
          "time": 132.6507673333328,
          "velocity": 0.41732283464566927,
          "duration": 0.11376566666666577
        },
        {
          "name": "C4",
          "midi": 60,
          "time": 132.76453299999946,
          "velocity": 0.3937007874015748,
          "duration": 0.11376566666666577
        },
        {
          "name": "F#3",
          "midi": 54,
          "time": 132.87829866666613,
          "velocity": 0.3937007874015748,
          "duration": 0.11376566666666577
        },
        {
          "name": "D#3",
          "midi": 51,
          "time": 132.9920643333328,
          "velocity": 0.3779527559055118,
          "duration": 0.11376566666666577
        },
        {
          "name": "G#2",
          "midi": 44,
          "time": 133.10582999999946,
          "velocity": 0.3700787401574803,
          "duration": 0.11376566666666577
        },
        {
          "name": "D#3",
          "midi": 51,
          "time": 133.21959566666612,
          "velocity": 0.3858267716535433,
          "duration": 0.11376566666666577
        },
        {
          "name": "F#3",
          "midi": 54,
          "time": 133.3333613333328,
          "velocity": 0.3937007874015748,
          "duration": 0.11376566666666577
        },
        {
          "name": "C4",
          "midi": 60,
          "time": 133.44712699999945,
          "velocity": 0.3779527559055118,
          "duration": 0.11376566666666577
        },
        {
          "name": "F#3",
          "midi": 54,
          "time": 133.56089266666612,
          "velocity": 0.3700787401574803,
          "duration": 0.11376566666666577
        },
        {
          "name": "D#3",
          "midi": 51,
          "time": 133.6746583333328,
          "velocity": 0.3543307086614173,
          "duration": 0.11376566666666577
        },
        {
          "name": "A2",
          "midi": 45,
          "time": 133.78842399999945,
          "velocity": 0.3543307086614173,
          "duration": 0.11376566666666577
        },
        {
          "name": "D#3",
          "midi": 51,
          "time": 133.90218966666612,
          "velocity": 0.36220472440944884,
          "duration": 0.11376566666666577
        },
        {
          "name": "F#3",
          "midi": 54,
          "time": 134.01595533333278,
          "velocity": 0.3779527559055118,
          "duration": 0.11376566666666577
        },
        {
          "name": "B3",
          "midi": 59,
          "time": 134.12972099999945,
          "velocity": 0.3543307086614173,
          "duration": 0.11376566666666577
        },
        {
          "name": "F#3",
          "midi": 54,
          "time": 134.24348666666612,
          "velocity": 0.3543307086614173,
          "duration": 0.11376566666666577
        },
        {
          "name": "D#3",
          "midi": 51,
          "time": 134.35725233333278,
          "velocity": 0.33858267716535434,
          "duration": 0.11376566666666577
        },
        {
          "name": "A#2",
          "midi": 46,
          "time": 134.47101799999945,
          "velocity": 0.33070866141732286,
          "duration": 0.11376566666669419
        },
        {
          "name": "D#3",
          "midi": 51,
          "time": 134.58478366666614,
          "velocity": 0.3464566929133858,
          "duration": 0.11376566666666577
        },
        {
          "name": "F#3",
          "midi": 54,
          "time": 134.6985493333328,
          "velocity": 0.3543307086614173,
          "duration": 0.11376566666666577
        },
        {
          "name": "A#3",
          "midi": 58,
          "time": 134.81231499999947,
          "velocity": 0.33858267716535434,
          "duration": 0.11376566666666577
        },
        {
          "name": "F#3",
          "midi": 54,
          "time": 134.92608066666614,
          "velocity": 0.33070866141732286,
          "duration": 0.11376566666666577
        },
        {
          "name": "D#3",
          "midi": 51,
          "time": 135.0398463333328,
          "velocity": 0.31496062992125984,
          "duration": 0.11376566666666577
        },
        {
          "name": "C3",
          "midi": 48,
          "time": 135.15361199999947,
          "velocity": 0.31496062992125984,
          "duration": 0.11376566666666577
        },
        {
          "name": "D#3",
          "midi": 51,
          "time": 135.26737766666614,
          "velocity": 0.3228346456692913,
          "duration": 0.11376566666666577
        },
        {
          "name": "F#3",
          "midi": 54,
          "time": 135.3811433333328,
          "velocity": 0.33070866141732286,
          "duration": 0.11376566666666577
        },
        {
          "name": "A3",
          "midi": 57,
          "time": 135.49490899999947,
          "velocity": 0.31496062992125984,
          "duration": 0.11376566666666577
        },
        {
          "name": "F#3",
          "midi": 54,
          "time": 135.60867466666613,
          "velocity": 0.31496062992125984,
          "duration": 0.11376566666666577
        },
        {
          "name": "D#3",
          "midi": 51,
          "time": 135.7224403333328,
          "velocity": 0.2992125984251969,
          "duration": 0.11376566666666577
        },
        {
          "name": "C3",
          "midi": 48,
          "time": 135.83620599999946,
          "velocity": 0.29133858267716534,
          "duration": 0.11376566666666577
        },
        {
          "name": "D#3",
          "midi": 51,
          "time": 135.94997166666613,
          "velocity": 0.30708661417322836,
          "duration": 0.11376566666666577
        },
        {
          "name": "F#3",
          "midi": 54,
          "time": 136.0637373333328,
          "velocity": 0.30708661417322836,
          "duration": 0.11376566666666577
        },
        {
          "name": "A3",
          "midi": 57,
          "time": 136.17750299999946,
          "velocity": 0.29133858267716534,
          "duration": 0.11376566666666577
        },
        {
          "name": "F#3",
          "midi": 54,
          "time": 136.29126866666613,
          "velocity": 0.29133858267716534,
          "duration": 0.11376566666666577
        },
        {
          "name": "D#3",
          "midi": 51,
          "time": 136.4050343333328,
          "velocity": 0.2755905511811024,
          "duration": 0.11376566666666577
        },
        {
          "name": "A2",
          "midi": 45,
          "time": 136.51879999999946,
          "velocity": 0.25984251968503935,
          "duration": 0.11376566666666577
        },
        {
          "name": "D#3",
          "midi": 51,
          "time": 136.63256566666612,
          "velocity": 0.2755905511811024,
          "duration": 0.11376566666666577
        },
        {
          "name": "F#3",
          "midi": 54,
          "time": 136.7463313333328,
          "velocity": 0.28346456692913385,
          "duration": 0.11376566666666577
        },
        {
          "name": "B3",
          "midi": 59,
          "time": 136.86009699999946,
          "velocity": 0.2992125984251969,
          "duration": 0.11376566666666577
        },
        {
          "name": "F#3",
          "midi": 54,
          "time": 136.97386266666612,
          "velocity": 0.29133858267716534,
          "duration": 0.11376566666666577
        },
        {
          "name": "D#3",
          "midi": 51,
          "time": 137.0876283333328,
          "velocity": 0.2755905511811024,
          "duration": 0.11376566666666577
        },
        {
          "name": "A#2",
          "midi": 46,
          "time": 137.20139399999945,
          "velocity": 0.25196850393700787,
          "duration": 0.11376566666669419
        },
        {
          "name": "D#3",
          "midi": 51,
          "time": 137.31515966666615,
          "velocity": 0.25984251968503935,
          "duration": 0.11376566666666577
        },
        {
          "name": "F#3",
          "midi": 54,
          "time": 137.4289253333328,
          "velocity": 0.2755905511811024,
          "duration": 0.11376566666666577
        },
        {
          "name": "A#3",
          "midi": 58,
          "time": 137.54269099999948,
          "velocity": 0.28346456692913385,
          "duration": 0.11376566666666577
        },
        {
          "name": "F#3",
          "midi": 54,
          "time": 137.65645666666614,
          "velocity": 0.2755905511811024,
          "duration": 0.11376566666666577
        },
        {
          "name": "D#3",
          "midi": 51,
          "time": 137.7702223333328,
          "velocity": 0.25984251968503935,
          "duration": 0.11376566666666577
        },
        {
          "name": "B2",
          "midi": 47,
          "time": 137.88398799999948,
          "velocity": 0.25984251968503935,
          "duration": 0.11376566666666577
        },
        {
          "name": "D#3",
          "midi": 51,
          "time": 137.99775366666614,
          "velocity": 0.2677165354330709,
          "duration": 0.11376566666666577
        },
        {
          "name": "F#3",
          "midi": 54,
          "time": 138.1115193333328,
          "velocity": 0.2677165354330709,
          "duration": 0.11376566666666577
        },
        {
          "name": "A3",
          "midi": 57,
          "time": 138.22528499999947,
          "velocity": 0.28346456692913385,
          "duration": 0.11376566666666577
        },
        {
          "name": "F#3",
          "midi": 54,
          "time": 138.33905066666614,
          "velocity": 0.2677165354330709,
          "duration": 0.11376566666666577
        },
        {
          "name": "D#3",
          "midi": 51,
          "time": 138.4528163333328,
          "velocity": 0.25196850393700787,
          "duration": 0.11376566666666577
        },
        {
          "name": "C3",
          "midi": 48,
          "time": 138.56658199999947,
          "velocity": 0.2204724409448819,
          "duration": 0.11376566666669419
        },
        {
          "name": "D#3",
          "midi": 51,
          "time": 138.68034766666617,
          "velocity": 0.2283464566929134,
          "duration": 0.11376566666666577
        },
        {
          "name": "F#3",
          "midi": 54,
          "time": 138.79411333333283,
          "velocity": 0.23622047244094488,
          "duration": 0.11376566666666577
        },
        {
          "name": "G#3",
          "midi": 56,
          "time": 138.9078789999995,
          "velocity": 0.23622047244094488,
          "duration": 0.11376566666666577
        },
        {
          "name": "F#3",
          "midi": 54,
          "time": 139.02164466666616,
          "velocity": 0.2283464566929134,
          "duration": 0.11376566666666577
        },
        {
          "name": "D#3",
          "midi": 51,
          "time": 139.13541033333283,
          "velocity": 0.2125984251968504,
          "duration": 0.11376566666666577
        },
        {
          "name": "C#3",
          "midi": 49,
          "time": 139.2491759999995,
          "velocity": 0.2125984251968504,
          "duration": 0.11376566666666577
        },
        {
          "name": "G#3",
          "midi": 56,
          "time": 139.36294166666616,
          "velocity": 0.23622047244094488,
          "duration": 0.11376566666666577
        },
        {
          "name": "C#4",
          "midi": 61,
          "time": 139.47670733333283,
          "velocity": 0.25984251968503935,
          "duration": 0.11376566666666577
        },
        {
          "name": "E4",
          "midi": 64,
          "time": 139.5904729999995,
          "velocity": 0.28346456692913385,
          "duration": 0.11376566666666577
        },
        {
          "name": "C#4",
          "midi": 61,
          "time": 139.70423866666616,
          "velocity": 0.2677165354330709,
          "duration": 0.11376566666666577
        },
        {
          "name": "G#3",
          "midi": 56,
          "time": 139.81800433333282,
          "velocity": 0.25196850393700787,
          "duration": 0.11376566666666577
        },
        {
          "name": "E3",
          "midi": 52,
          "time": 139.9317699999995,
          "velocity": 0.2440944881889764,
          "duration": 0.11376566666666577
        },
        {
          "name": "G#3",
          "midi": 56,
          "time": 140.04553566666615,
          "velocity": 0.25984251968503935,
          "duration": 0.11376566666666577
        },
        {
          "name": "C#4",
          "midi": 61,
          "time": 140.15930133333282,
          "velocity": 0.28346456692913385,
          "duration": 0.11376566666666577
        },
        {
          "name": "E4",
          "midi": 64,
          "time": 140.2730669999995,
          "velocity": 0.29133858267716534,
          "duration": 0.11376566666666577
        },
        {
          "name": "C#4",
          "midi": 61,
          "time": 140.38683266666615,
          "velocity": 0.2677165354330709,
          "duration": 0.11376566666666577
        },
        {
          "name": "G#3",
          "midi": 56,
          "time": 140.50059833333282,
          "velocity": 0.25196850393700787,
          "duration": 0.11376566666666577
        },
        {
          "name": "C#3",
          "midi": 49,
          "time": 140.61436399999948,
          "velocity": 0.25196850393700787,
          "duration": 0.11376566666666577
        },
        {
          "name": "G#3",
          "midi": 56,
          "time": 140.72812966666615,
          "velocity": 0.28346456692913385,
          "duration": 0.11376566666666577
        },
        {
          "name": "C#4",
          "midi": 61,
          "time": 140.84189533333281,
          "velocity": 0.31496062992125984,
          "duration": 0.11376566666666577
        },
        {
          "name": "E4",
          "midi": 64,
          "time": 140.95566099999948,
          "velocity": 0.33858267716535434,
          "duration": 0.11376566666666577
        },
        {
          "name": "C#4",
          "midi": 61,
          "time": 141.06942666666615,
          "velocity": 0.3228346456692913,
          "duration": 0.11376566666666577
        },
        {
          "name": "G#3",
          "midi": 56,
          "time": 141.1831923333328,
          "velocity": 0.30708661417322836,
          "duration": 0.11376566666666577
        },
        {
          "name": "E3",
          "midi": 52,
          "time": 141.29695799999948,
          "velocity": 0.29133858267716534,
          "duration": 0.11376566666666577
        },
        {
          "name": "G#3",
          "midi": 56,
          "time": 141.41072366666614,
          "velocity": 0.30708661417322836,
          "duration": 0.11376566666666577
        },
        {
          "name": "C#4",
          "midi": 61,
          "time": 141.5244893333328,
          "velocity": 0.33858267716535434,
          "duration": 0.11376566666666577
        },
        {
          "name": "E4",
          "midi": 64,
          "time": 141.63825499999948,
          "velocity": 0.3464566929133858,
          "duration": 0.11376566666666577
        },
        {
          "name": "C#4",
          "midi": 61,
          "time": 141.75202066666614,
          "velocity": 0.3228346456692913,
          "duration": 0.11376566666666577
        },
        {
          "name": "G#3",
          "midi": 56,
          "time": 141.8657863333328,
          "velocity": 0.2992125984251969,
          "duration": 0.11376566666666577
        },
        {
          "name": "D#3",
          "midi": 51,
          "time": 141.97955199999947,
          "velocity": 0.29133858267716534,
          "duration": 0.11376566666666577
        },
        {
          "name": "A3",
          "midi": 57,
          "time": 142.09331766666614,
          "velocity": 0.33070866141732286,
          "duration": 0.11376566666666577
        },
        {
          "name": "C#4",
          "midi": 61,
          "time": 142.2070833333328,
          "velocity": 0.3700787401574803,
          "duration": 0.11376566666666577
        },
        {
          "name": "F#4",
          "midi": 66,
          "time": 142.32084899999947,
          "velocity": 0.41732283464566927,
          "duration": 0.11376566666666577
        },
        {
          "name": "C#4",
          "midi": 61,
          "time": 142.43461466666614,
          "velocity": 0.3700787401574803,
          "duration": 0.11376566666666577
        },
        {
          "name": "A3",
          "midi": 57,
          "time": 142.5483803333328,
          "velocity": 0.3464566929133858,
          "duration": 0.11376566666666577
        },
        {
          "name": "F#3",
          "midi": 54,
          "time": 142.66214599999947,
          "velocity": 0.3464566929133858,
          "duration": 0.11376566666666577
        },
        {
          "name": "C#4",
          "midi": 61,
          "time": 142.77591166666613,
          "velocity": 0.3779527559055118,
          "duration": 0.11376566666666577
        },
        {
          "name": "D#4",
          "midi": 63,
          "time": 142.8896773333328,
          "velocity": 0.4094488188976378,
          "duration": 0.11376566666666577
        },
        {
          "name": "A4",
          "midi": 69,
          "time": 143.00344299999946,
          "velocity": 0.4330708661417323,
          "duration": 0.11376566666666577
        },
        {
          "name": "D#4",
          "midi": 63,
          "time": 143.11720866666613,
          "velocity": 0.4094488188976378,
          "duration": 0.11376566666666577
        },
        {
          "name": "C#4",
          "midi": 61,
          "time": 143.2309743333328,
          "velocity": 0.3858267716535433,
          "duration": 0.11376566666666577
        },
        {
          "name": "G#2",
          "midi": 44,
          "time": 143.34473999999946,
          "velocity": 0.30708661417322836,
          "duration": 0.11376566666666577
        },
        {
          "name": "D#3",
          "midi": 51,
          "time": 143.45850566666613,
          "velocity": 0.33070866141732286,
          "duration": 0.11376566666666577
        },
        {
          "name": "F#3",
          "midi": 54,
          "time": 143.5722713333328,
          "velocity": 0.3543307086614173,
          "duration": 0.11376566666666577
        },
        {
          "name": "C4",
          "midi": 60,
          "time": 143.68603699999946,
          "velocity": 0.36220472440944884,
          "duration": 0.11376566666666577
        },
        {
          "name": "F#3",
          "midi": 54,
          "time": 143.79980266666612,
          "velocity": 0.33858267716535434,
          "duration": 0.11376566666666577
        },
        {
          "name": "D#3",
          "midi": 51,
          "time": 143.9135683333328,
          "velocity": 0.31496062992125984,
          "duration": 0.11376566666666577
        },
        {
          "name": "G#2",
          "midi": 44,
          "time": 144.02733399999946,
          "velocity": 0.2755905511811024,
          "duration": 0.11376566666666577
        },
        {
          "name": "D#3",
          "midi": 51,
          "time": 144.14109966666612,
          "velocity": 0.29133858267716534,
          "duration": 0.11376566666666577
        },
        {
          "name": "F#3",
          "midi": 54,
          "time": 144.2548653333328,
          "velocity": 0.30708661417322836,
          "duration": 0.11376566666666577
        },
        {
          "name": "C4",
          "midi": 60,
          "time": 144.36863099999945,
          "velocity": 0.30708661417322836,
          "duration": 0.11376566666666577
        },
        {
          "name": "F#3",
          "midi": 54,
          "time": 144.48239666666612,
          "velocity": 0.2755905511811024,
          "duration": 0.11376566666666577
        },
        {
          "name": "D#3",
          "midi": 51,
          "time": 144.59616233333279,
          "velocity": 0.2440944881889764,
          "duration": 0.11376566666666577
        },
        {
          "name": "C#3",
          "midi": 49,
          "time": 144.70992799999945,
          "velocity": 0.2125984251968504,
          "duration": 0.11376566666666577
        },
        {
          "name": "G#3",
          "midi": 56,
          "time": 144.82369366666612,
          "velocity": 0.23622047244094488,
          "duration": 0.11376566666666577
        },
        {
          "name": "C#4",
          "midi": 61,
          "time": 144.93745933333278,
          "velocity": 0.25984251968503935,
          "duration": 0.11376566666666577
        },
        {
          "name": "E4",
          "midi": 64,
          "time": 145.05122499999945,
          "velocity": 0.28346456692913385,
          "duration": 0.11376566666666577
        },
        {
          "name": "C#4",
          "midi": 61,
          "time": 145.1649906666661,
          "velocity": 0.2677165354330709,
          "duration": 0.11376566666666577
        },
        {
          "name": "G#3",
          "midi": 56,
          "time": 145.27875633333278,
          "velocity": 0.25196850393700787,
          "duration": 0.11376566666666577
        },
        {
          "name": "E3",
          "midi": 52,
          "time": 145.39252199999945,
          "velocity": 0.2440944881889764,
          "duration": 0.11376566666666577
        },
        {
          "name": "G#3",
          "midi": 56,
          "time": 145.5062876666661,
          "velocity": 0.25984251968503935,
          "duration": 0.11376566666666577
        },
        {
          "name": "C#4",
          "midi": 61,
          "time": 145.62005333333278,
          "velocity": 0.28346456692913385,
          "duration": 0.11376566666666577
        },
        {
          "name": "E4",
          "midi": 64,
          "time": 145.73381899999944,
          "velocity": 0.29133858267716534,
          "duration": 0.11376566666666577
        },
        {
          "name": "C#4",
          "midi": 61,
          "time": 145.8475846666661,
          "velocity": 0.2677165354330709,
          "duration": 0.11376566666666577
        },
        {
          "name": "G#3",
          "midi": 56,
          "time": 145.96135033333277,
          "velocity": 0.25196850393700787,
          "duration": 0.11376566666666577
        },
        {
          "name": "F#3",
          "midi": 54,
          "time": 146.07511599999944,
          "velocity": 0.23622047244094488,
          "duration": 0.11376566666666577
        },
        {
          "name": "C#4",
          "midi": 61,
          "time": 146.1888816666661,
          "velocity": 0.2755905511811024,
          "duration": 0.11376566666666577
        },
        {
          "name": "D#4",
          "midi": 63,
          "time": 146.30264733333277,
          "velocity": 0.2992125984251969,
          "duration": 0.11376566666666577
        },
        {
          "name": "A4",
          "midi": 69,
          "time": 146.41641299999944,
          "velocity": 0.3228346456692913,
          "duration": 0.11376566666666577
        },
        {
          "name": "D#4",
          "midi": 63,
          "time": 146.5301786666661,
          "velocity": 0.30708661417322836,
          "duration": 0.11376566666666577
        },
        {
          "name": "C#4",
          "midi": 61,
          "time": 146.64394433333277,
          "velocity": 0.29133858267716534,
          "duration": 0.11376566666666577
        },
        {
          "name": "G#3",
          "midi": 56,
          "time": 146.75770999999943,
          "velocity": 0.28346456692913385,
          "duration": 0.11376566666666577
        },
        {
          "name": "C#4",
          "midi": 61,
          "time": 146.8714756666661,
          "velocity": 0.2992125984251969,
          "duration": 0.11376566666666577
        },
        {
          "name": "F4",
          "midi": 65,
          "time": 146.98524133333277,
          "velocity": 0.33070866141732286,
          "duration": 0.11376566666666577
        },
        {
          "name": "B4",
          "midi": 71,
          "time": 147.09900699999943,
          "velocity": 0.3464566929133858,
          "duration": 0.11376566666666577
        },
        {
          "name": "F4",
          "midi": 65,
          "time": 147.2127726666661,
          "velocity": 0.31496062992125984,
          "duration": 0.11376566666666577
        },
        {
          "name": "C#4",
          "midi": 61,
          "time": 147.32653833333276,
          "velocity": 0.2992125984251969,
          "duration": 0.11376566666666577
        },
        {
          "name": "A3",
          "midi": 57,
          "time": 147.44030399999943,
          "velocity": 0.28346456692913385,
          "duration": 0.11376566666666577
        },
        {
          "name": "C#4",
          "midi": 61,
          "time": 147.5540696666661,
          "velocity": 0.3228346456692913,
          "duration": 0.11376566666666577
        },
        {
          "name": "F#4",
          "midi": 66,
          "time": 147.66783533333276,
          "velocity": 0.3464566929133858,
          "duration": 0.11376566666666577
        },
        {
          "name": "A4",
          "midi": 69,
          "time": 147.78160099999943,
          "velocity": 0.3779527559055118,
          "duration": 0.11376566666666577
        },
        {
          "name": "F#4",
          "midi": 66,
          "time": 147.8953666666661,
          "velocity": 0.36220472440944884,
          "duration": 0.11376566666666577
        },
        {
          "name": "C#4",
          "midi": 61,
          "time": 148.00913233333276,
          "velocity": 0.33070866141732286,
          "duration": 0.11376566666666577
        },
        {
          "name": "G#3",
          "midi": 56,
          "time": 148.12289799999942,
          "velocity": 0.3228346456692913,
          "duration": 0.11376566666666577
        },
        {
          "name": "C#4",
          "midi": 61,
          "time": 148.2366636666661,
          "velocity": 0.33858267716535434,
          "duration": 0.11376566666666577
        },
        {
          "name": "F4",
          "midi": 65,
          "time": 148.35042933333276,
          "velocity": 0.3700787401574803,
          "duration": 0.11376566666666577
        },
        {
          "name": "B4",
          "midi": 71,
          "time": 148.46419499999942,
          "velocity": 0.3779527559055118,
          "duration": 0.11376566666666577
        },
        {
          "name": "F4",
          "midi": 65,
          "time": 148.5779606666661,
          "velocity": 0.3464566929133858,
          "duration": 0.11376566666666577
        },
        {
          "name": "C#4",
          "midi": 61,
          "time": 148.69172633333275,
          "velocity": 0.3228346456692913,
          "duration": 0.11376566666666577
        },
        {
          "name": "A3",
          "midi": 57,
          "time": 148.80549199999942,
          "velocity": 0.2992125984251969,
          "duration": 0.11376566666666577
        },
        {
          "name": "C#4",
          "midi": 61,
          "time": 148.91925766666608,
          "velocity": 0.33858267716535434,
          "duration": 0.11376566666666577
        },
        {
          "name": "F#4",
          "midi": 66,
          "time": 149.03302333333275,
          "velocity": 0.3700787401574803,
          "duration": 0.11376566666666577
        },
        {
          "name": "A4",
          "midi": 69,
          "time": 149.14678899999942,
          "velocity": 0.3937007874015748,
          "duration": 0.11376566666666577
        },
        {
          "name": "F#4",
          "midi": 66,
          "time": 149.26055466666608,
          "velocity": 0.3779527559055118,
          "duration": 0.11376566666666577
        },
        {
          "name": "C#4",
          "midi": 61,
          "time": 149.37432033333275,
          "velocity": 0.3543307086614173,
          "duration": 0.11376566666666577
        },
        {
          "name": "C3",
          "midi": 48,
          "time": 149.4880859999994,
          "velocity": 0.33858267716535434,
          "duration": 0.11376566666666577
        },
        {
          "name": "F#3",
          "midi": 54,
          "time": 149.60185166666608,
          "velocity": 0.3543307086614173,
          "duration": 0.11376566666666577
        },
        {
          "name": "G#3",
          "midi": 56,
          "time": 149.71561733333274,
          "velocity": 0.3858267716535433,
          "duration": 0.11376566666666577
        },
        {
          "name": "D#4",
          "midi": 63,
          "time": 149.8293829999994,
          "velocity": 0.3937007874015748,
          "duration": 0.11376566666666577
        },
        {
          "name": "G#3",
          "midi": 56,
          "time": 149.94314866666608,
          "velocity": 0.36220472440944884,
          "duration": 0.11376566666666577
        },
        {
          "name": "F#3",
          "midi": 54,
          "time": 150.05691433333274,
          "velocity": 0.3464566929133858,
          "duration": 0.11376566666666577
        },
        {
          "name": "C#3",
          "midi": 49,
          "time": 150.1706799999994,
          "velocity": 0.33070866141732286,
          "duration": 0.11376566666666577
        },
        {
          "name": "G#3",
          "midi": 56,
          "time": 150.28444566666607,
          "velocity": 0.36220472440944884,
          "duration": 0.11376566666666577
        },
        {
          "name": "C#4",
          "midi": 61,
          "time": 150.39821133333274,
          "velocity": 0.4015748031496063,
          "duration": 0.11376566666666577
        },
        {
          "name": "E4",
          "midi": 64,
          "time": 150.5119769999994,
          "velocity": 0.4251968503937008,
          "duration": 0.11376566666666577
        },
        {
          "name": "C#4",
          "midi": 61,
          "time": 150.62574266666607,
          "velocity": 0.4094488188976378,
          "duration": 0.11376566666666577
        },
        {
          "name": "G#3",
          "midi": 56,
          "time": 150.73950833333274,
          "velocity": 0.3937007874015748,
          "duration": 0.11376566666666577
        },
        {
          "name": "D#3",
          "midi": 51,
          "time": 150.8532739999994,
          "velocity": 0.4094488188976378,
          "duration": 0.11376566666666577
        },
        {
          "name": "G#3",
          "midi": 56,
          "time": 150.96703966666607,
          "velocity": 0.3858267716535433,
          "duration": 0.11376566666666577
        },
        {
          "name": "C4",
          "midi": 60,
          "time": 151.08080533333273,
          "velocity": 0.41732283464566927,
          "duration": 0.11376566666666577
        },
        {
          "name": "F#4",
          "midi": 66,
          "time": 151.1945709999994,
          "velocity": 0.4330708661417323,
          "duration": 0.11376566666666577
        },
        {
          "name": "C4",
          "midi": 60,
          "time": 151.30833666666607,
          "velocity": 0.4094488188976378,
          "duration": 0.11376566666666577
        },
        {
          "name": "G#3",
          "midi": 56,
          "time": 151.42210233333273,
          "velocity": 0.3858267716535433,
          "duration": 0.11376566666666577
        },
        {
          "name": "E3",
          "midi": 52,
          "time": 151.5358679999994,
          "velocity": 0.33070866141732286,
          "duration": 0.11376566666666577
        },
        {
          "name": "G#3",
          "midi": 56,
          "time": 151.64963366666606,
          "velocity": 0.36220472440944884,
          "duration": 0.11376566666666577
        },
        {
          "name": "C#4",
          "midi": 61,
          "time": 151.76339933333273,
          "velocity": 0.4015748031496063,
          "duration": 0.11376566666666577
        },
        {
          "name": "E4",
          "midi": 64,
          "time": 151.8771649999994,
          "velocity": 0.4251968503937008,
          "duration": 0.11376566666666577
        },
        {
          "name": "C#4",
          "midi": 61,
          "time": 151.99093066666606,
          "velocity": 0.4094488188976378,
          "duration": 0.11376566666666577
        },
        {
          "name": "G#3",
          "midi": 56,
          "time": 152.10469633333273,
          "velocity": 0.3937007874015748,
          "duration": 0.11376566666666577
        },
        {
          "name": "F#3",
          "midi": 54,
          "time": 152.2184619999994,
          "velocity": 0.4094488188976378,
          "duration": 0.11376566666666577
        },
        {
          "name": "C#4",
          "midi": 61,
          "time": 152.33222766666606,
          "velocity": 0.3858267716535433,
          "duration": 0.11376566666666577
        },
        {
          "name": "D#4",
          "midi": 63,
          "time": 152.44599333333272,
          "velocity": 0.41732283464566927,
          "duration": 0.11376566666666577
        },
        {
          "name": "A4",
          "midi": 69,
          "time": 152.5597589999994,
          "velocity": 0.4330708661417323,
          "duration": 0.11376566666666577
        },
        {
          "name": "D#4",
          "midi": 63,
          "time": 152.67352466666605,
          "velocity": 0.44881889763779526,
          "duration": 0.11376566666666577
        },
        {
          "name": "C#4",
          "midi": 61,
          "time": 152.78729033333272,
          "velocity": 0.47244094488188976,
          "duration": 0.11376566666666577
        },
        {
          "name": "G#4",
          "midi": 68,
          "time": 152.9010559999994,
          "velocity": 0.5590551181102362,
          "duration": 0.17064849999999865
        },
        {
          "name": "E4",
          "midi": 64,
          "time": 152.9010559999994,
          "velocity": 0.5590551181102362,
          "duration": 0.17064849999999865
        },
        {
          "name": "C#4",
          "midi": 61,
          "time": 152.9010559999994,
          "velocity": 0.5590551181102362,
          "duration": 0.17064849999999865
        },
        {
          "name": "G#3",
          "midi": 56,
          "time": 152.9010559999994,
          "velocity": 0.5590551181102362,
          "duration": 0.17064849999999865
        },
        {
          "name": "A4",
          "midi": 69,
          "time": 153.58364999999938,
          "velocity": 0.5590551181102362,
          "duration": 0.3412969999999973
        },
        {
          "name": "E4",
          "midi": 64,
          "time": 153.58364999999938,
          "velocity": 0.5590551181102362,
          "duration": 0.3412969999999973
        },
        {
          "name": "C#4",
          "midi": 61,
          "time": 153.58364999999938,
          "velocity": 0.5590551181102362,
          "duration": 0.3412969999999973
        },
        {
          "name": "G3",
          "midi": 55,
          "time": 153.58364999999938,
          "velocity": 0.5590551181102362,
          "duration": 0.3412969999999973
        },
        {
          "name": "G#1",
          "midi": 32,
          "time": 155.63143199999936,
          "velocity": 0.6141732283464567,
          "duration": 0.08532425000001354
        },
        {
          "name": "G#2",
          "midi": 44,
          "time": 155.63143199999936,
          "velocity": 0.6141732283464567,
          "duration": 0.08532425000001354
        },
        {
          "name": "E5",
          "midi": 76,
          "time": 155.9727289999994,
          "velocity": 0.5905511811023622,
          "duration": 0.3412969999999973
        },
        {
          "name": "E4",
          "midi": 64,
          "time": 155.9727289999994,
          "velocity": 0.5905511811023622,
          "duration": 0.3412969999999973
        },
        {
          "name": "C#4",
          "midi": 61,
          "time": 156.3140259999994,
          "velocity": 0.6141732283464567,
          "duration": 0.3412969999999973
        },
        {
          "name": "C#5",
          "midi": 73,
          "time": 156.3140259999994,
          "velocity": 0.6141732283464567,
          "duration": 0.3412969999999973
        },
        {
          "name": "G#3",
          "midi": 56,
          "time": 156.65532299999938,
          "velocity": 0.6141732283464567,
          "duration": 0.3412969999999973
        },
        {
          "name": "G#4",
          "midi": 68,
          "time": 156.65532299999938,
          "velocity": 0.6141732283464567,
          "duration": 0.3412969999999973
        },
        {
          "name": "E3",
          "midi": 52,
          "time": 156.99661999999938,
          "velocity": 0.6141732283464567,
          "duration": 0.3412969999999973
        },
        {
          "name": "E4",
          "midi": 64,
          "time": 156.99661999999938,
          "velocity": 0.6141732283464567,
          "duration": 0.3412969999999973
        },
        {
          "name": "C#3",
          "midi": 49,
          "time": 157.33791699999938,
          "velocity": 0.5826771653543307,
          "duration": 0.3412969999999973
        },
        {
          "name": "C#4",
          "midi": 61,
          "time": 157.33791699999938,
          "velocity": 0.5826771653543307,
          "duration": 0.3412969999999973
        },
        {
          "name": "G#2",
          "midi": 44,
          "time": 157.67921399999938,
          "velocity": 0.6141732283464567,
          "duration": 0.3412969999999973
        },
        {
          "name": "G#3",
          "midi": 56,
          "time": 157.67921399999938,
          "velocity": 0.6141732283464567,
          "duration": 0.3412969999999973
        },
        {
          "name": "E2",
          "midi": 40,
          "time": 158.02051099999937,
          "velocity": 0.5826771653543307,
          "duration": 0.3412969999999973
        },
        {
          "name": "E3",
          "midi": 52,
          "time": 158.02051099999937,
          "velocity": 0.5826771653543307,
          "duration": 0.3412969999999973
        },
        {
          "name": "C#2",
          "midi": 37,
          "time": 158.36180799999937,
          "velocity": 0.6141732283464567,
          "duration": 0.3412969999999973
        },
        {
          "name": "C#3",
          "midi": 49,
          "time": 158.36180799999937,
          "velocity": 0.6141732283464567,
          "duration": 0.3412969999999973
        },
        {
          "name": "G#1",
          "midi": 32,
          "time": 158.70310499999937,
          "velocity": 0.5748031496062992,
          "duration": 0.3412969999999973
        },
        {
          "name": "G#2",
          "midi": 44,
          "time": 158.70310499999937,
          "velocity": 0.5748031496062992,
          "duration": 0.3412969999999973
        },
        {
          "name": "G#1",
          "midi": 32,
          "time": 159.04440199999937,
          "velocity": 0.6141732283464567,
          "duration": 0.3412969999999973
        },
        {
          "name": "G#2",
          "midi": 44,
          "time": 159.04440199999937,
          "velocity": 0.6141732283464567,
          "duration": 0.3412969999999973
        },
        {
          "name": "A1",
          "midi": 33,
          "time": 159.38569899999936,
          "velocity": 0.5826771653543307,
          "duration": 0.3412969999999973
        },
        {
          "name": "A2",
          "midi": 45,
          "time": 159.38569899999936,
          "velocity": 0.5826771653543307,
          "duration": 0.3412969999999973
        },
        {
          "name": "G#1",
          "midi": 32,
          "time": 159.72699599999936,
          "velocity": 0.6141732283464567,
          "duration": 0.3412969999999973
        },
        {
          "name": "G#2",
          "midi": 44,
          "time": 159.72699599999936,
          "velocity": 0.6141732283464567,
          "duration": 0.3412969999999973
        },
        {
          "name": "G1",
          "midi": 31,
          "time": 160.06829299999936,
          "velocity": 0.5669291338582677,
          "duration": 0.3412969999999973
        },
        {
          "name": "G2",
          "midi": 43,
          "time": 160.06829299999936,
          "velocity": 0.5669291338582677,
          "duration": 0.3412969999999973
        },
        {
          "name": "G#1",
          "midi": 32,
          "time": 160.40958999999935,
          "velocity": 0.5433070866141733,
          "duration": 0.682594000000023
        },
        {
          "name": "G#2",
          "midi": 44,
          "time": 160.40958999999935,
          "velocity": 0.5433070866141733,
          "duration": 0.682594000000023
        },
        {
          "name": "C#2",
          "midi": 37,
          "time": 161.09218399999938,
          "velocity": 0.7322834645669292,
          "duration": 0.17064849999999865
        },
        {
          "name": "E3",
          "midi": 52,
          "time": 161.26283249999938,
          "velocity": 0.4409448818897638,
          "duration": 0.17064849999999865
        },
        {
          "name": "C#3",
          "midi": 49,
          "time": 161.43348099999938,
          "velocity": 0.4566929133858268,
          "duration": 0.17064849999999865
        },
        {
          "name": "G#2",
          "midi": 44,
          "time": 161.60412949999937,
          "velocity": 0.4566929133858268,
          "duration": 0.17064849999999865
        },
        {
          "name": "C#2",
          "midi": 37,
          "time": 161.77477799999937,
          "velocity": 0.49606299212598426,
          "duration": 0.17064849999999865
        },
        {
          "name": "F#3",
          "midi": 54,
          "time": 161.94542649999937,
          "velocity": 0.4566929133858268,
          "duration": 0.17064849999999865
        },
        {
          "name": "C3",
          "midi": 48,
          "time": 162.11607499999937,
          "velocity": 0.4566929133858268,
          "duration": 0.17064849999999865
        },
        {
          "name": "G#2",
          "midi": 44,
          "time": 162.28672349999937,
          "velocity": 0.4566929133858268,
          "duration": 0.17064849999999865
        },
        {
          "name": "C#2",
          "midi": 37,
          "time": 162.45737199999937,
          "velocity": 0.49606299212598426,
          "duration": 0.17064849999999865
        },
        {
          "name": "E3",
          "midi": 52,
          "time": 162.62802049999937,
          "velocity": 0.4566929133858268,
          "duration": 0.17064849999999865
        },
        {
          "name": "C#3",
          "midi": 49,
          "time": 162.79866899999936,
          "velocity": 0.4566929133858268,
          "duration": 0.17064849999999865
        },
        {
          "name": "G#2",
          "midi": 44,
          "time": 162.96931749999936,
          "velocity": 0.4566929133858268,
          "duration": 0.17064849999999865
        },
        {
          "name": "C#2",
          "midi": 37,
          "time": 163.13996599999936,
          "velocity": 0.3700787401574803,
          "duration": 0.17064849999999865
        },
        {
          "name": "F#3",
          "midi": 54,
          "time": 163.31061449999936,
          "velocity": 0.33858267716535434,
          "duration": 0.17064849999999865
        },
        {
          "name": "C3",
          "midi": 48,
          "time": 163.48126299999936,
          "velocity": 0.33858267716535434,
          "duration": 0.17064849999999865
        },
        {
          "name": "G#2",
          "midi": 44,
          "time": 163.65191149999936,
          "velocity": 0.33858267716535434,
          "duration": 0.17064849999999865
        },
        {
          "name": "C#2",
          "midi": 37,
          "time": 163.82255999999936,
          "velocity": 0.3700787401574803,
          "duration": 0.17064849999999865
        },
        {
          "name": "E3",
          "midi": 52,
          "time": 163.99320849999935,
          "velocity": 0.33858267716535434,
          "duration": 0.17064849999999865
        },
        {
          "name": "C#3",
          "midi": 49,
          "time": 164.16385699999935,
          "velocity": 0.4566929133858268,
          "duration": 0.17064849999999865
        },
        {
          "name": "G#2",
          "midi": 44,
          "time": 164.33450549999935,
          "velocity": 0.4566929133858268,
          "duration": 0.17064849999999865
        },
        {
          "name": "C#2",
          "midi": 37,
          "time": 164.50515399999935,
          "velocity": 0.49606299212598426,
          "duration": 0.17064849999999865
        },
        {
          "name": "F#3",
          "midi": 54,
          "time": 164.67580249999935,
          "velocity": 0.4566929133858268,
          "duration": 0.17064850000002707
        },
        {
          "name": "C3",
          "midi": 48,
          "time": 164.84645099999938,
          "velocity": 0.4566929133858268,
          "duration": 0.17064849999999865
        },
        {
          "name": "G#2",
          "midi": 44,
          "time": 165.01709949999938,
          "velocity": 0.4566929133858268,
          "duration": 0.17064849999999865
        },
        {
          "name": "C#2",
          "midi": 37,
          "time": 165.18774799999937,
          "velocity": 0.49606299212598426,
          "duration": 0.17064849999999865
        },
        {
          "name": "E3",
          "midi": 52,
          "time": 165.35839649999937,
          "velocity": 0.4566929133858268,
          "duration": 0.17064849999999865
        },
        {
          "name": "C#3",
          "midi": 49,
          "time": 165.52904499999937,
          "velocity": 0.4566929133858268,
          "duration": 0.17064849999999865
        },
        {
          "name": "G#2",
          "midi": 44,
          "time": 165.69969349999937,
          "velocity": 0.4566929133858268,
          "duration": 0.17064849999999865
        },
        {
          "name": "C#2",
          "midi": 37,
          "time": 165.87034199999937,
          "velocity": 0.3700787401574803,
          "duration": 0.17064849999999865
        },
        {
          "name": "F#3",
          "midi": 54,
          "time": 166.04099049999937,
          "velocity": 0.33858267716535434,
          "duration": 0.17064849999999865
        },
        {
          "name": "C3",
          "midi": 48,
          "time": 166.21163899999937,
          "velocity": 0.33858267716535434,
          "duration": 0.17064849999999865
        },
        {
          "name": "G#2",
          "midi": 44,
          "time": 166.38228749999936,
          "velocity": 0.33858267716535434,
          "duration": 0.17064849999999865
        },
        {
          "name": "C#2",
          "midi": 37,
          "time": 166.55293599999936,
          "velocity": 0.3700787401574803,
          "duration": 0.17064849999999865
        },
        {
          "name": "E3",
          "midi": 52,
          "time": 166.72358449999936,
          "velocity": 0.33858267716535434,
          "duration": 0.17064849999999865
        },
        {
          "name": "C#3",
          "midi": 49,
          "time": 166.89423299999936,
          "velocity": 0.33858267716535434,
          "duration": 0.17064849999999865
        },
        {
          "name": "G#2",
          "midi": 44,
          "time": 167.06488149999936,
          "velocity": 0.33858267716535434,
          "duration": 0.17064849999999865
        },
        {
          "name": "C#2",
          "midi": 37,
          "time": 167.23552999999936,
          "velocity": 0.3700787401574803,
          "duration": 0.17064849999999865
        },
        {
          "name": "G#3",
          "midi": 56,
          "time": 167.40617849999936,
          "velocity": 0.33858267716535434,
          "duration": 0.17064850000002707
        },
        {
          "name": "C#3",
          "midi": 49,
          "time": 167.57682699999938,
          "velocity": 0.33858267716535434,
          "duration": 0.17064849999999865
        },
        {
          "name": "G#2",
          "midi": 44,
          "time": 167.74747549999938,
          "velocity": 0.33858267716535434,
          "duration": 0.17064849999999865
        },
        {
          "name": "C#2",
          "midi": 37,
          "time": 167.91812399999938,
          "velocity": 0.3700787401574803,
          "duration": 0.17064849999999865
        },
        {
          "name": "E3",
          "midi": 52,
          "time": 168.08877249999938,
          "velocity": 0.33858267716535434,
          "duration": 0.17064849999999865
        },
        {
          "name": "C#3",
          "midi": 49,
          "time": 168.25942099999938,
          "velocity": 0.33858267716535434,
          "duration": 0.17064849999999865
        },
        {
          "name": "G#2",
          "midi": 44,
          "time": 168.43006949999938,
          "velocity": 0.33858267716535434,
          "duration": 0.17064849999999865
        },
        {
          "name": "C#2",
          "midi": 37,
          "time": 168.60071799999938,
          "velocity": 0.3700787401574803,
          "duration": 0.17064849999999865
        },
        {
          "name": "G#3",
          "midi": 56,
          "time": 168.77136649999937,
          "velocity": 0.33858267716535434,
          "duration": 0.17064849999999865
        },
        {
          "name": "C#3",
          "midi": 49,
          "time": 168.94201499999937,
          "velocity": 0.33858267716535434,
          "duration": 0.17064849999999865
        },
        {
          "name": "G#2",
          "midi": 44,
          "time": 169.11266349999937,
          "velocity": 0.33858267716535434,
          "duration": 0.17064849999999865
        },
        {
          "name": "C#2",
          "midi": 37,
          "time": 169.28331199999937,
          "velocity": 0.3700787401574803,
          "duration": 0.17064849999999865
        },
        {
          "name": "E3",
          "midi": 52,
          "time": 169.45396049999937,
          "velocity": 0.33070866141732286,
          "duration": 0.17064849999999865
        },
        {
          "name": "C#3",
          "midi": 49,
          "time": 169.62460899999937,
          "velocity": 0.33070866141732286,
          "duration": 0.17064849999999865
        },
        {
          "name": "G#2",
          "midi": 44,
          "time": 169.79525749999937,
          "velocity": 0.3228346456692913,
          "duration": 0.17064849999999865
        },
        {
          "name": "C#2",
          "midi": 37,
          "time": 169.96590599999936,
          "velocity": 0.3543307086614173,
          "duration": 0.17064849999999865
        },
        {
          "name": "E3",
          "midi": 52,
          "time": 170.13655449999936,
          "velocity": 0.31496062992125984,
          "duration": 0.17064850000002707
        },
        {
          "name": "C#3",
          "midi": 49,
          "time": 170.3072029999994,
          "velocity": 0.30708661417322836,
          "duration": 0.17064849999999865
        },
        {
          "name": "G#2",
          "midi": 44,
          "time": 170.4778514999994,
          "velocity": 0.30708661417322836,
          "duration": 0.17064849999999865
        },
        {
          "name": "C#2",
          "midi": 37,
          "time": 170.6484999999994,
          "velocity": 0.33070866141732286,
          "duration": 0.17064849999999865
        },
        {
          "name": "E3",
          "midi": 52,
          "time": 170.8191484999994,
          "velocity": 0.29133858267716534,
          "duration": 0.17064849999999865
        },
        {
          "name": "C#3",
          "midi": 49,
          "time": 170.98979699999938,
          "velocity": 0.29133858267716534,
          "duration": 0.17064849999999865
        },
        {
          "name": "G#2",
          "midi": 44,
          "time": 171.16044549999938,
          "velocity": 0.28346456692913385,
          "duration": 0.17064849999999865
        },
        {
          "name": "C#2",
          "midi": 37,
          "time": 171.33109399999938,
          "velocity": 0.31496062992125984,
          "duration": 0.17064849999999865
        },
        {
          "name": "E3",
          "midi": 52,
          "time": 171.50174249999938,
          "velocity": 0.28346456692913385,
          "duration": 0.17064849999999865
        },
        {
          "name": "C#3",
          "midi": 49,
          "time": 171.67239099999938,
          "velocity": 0.2755905511811024,
          "duration": 0.17064849999999865
        },
        {
          "name": "G#2",
          "midi": 44,
          "time": 171.84303949999938,
          "velocity": 0.2755905511811024,
          "duration": 0.17064849999999865
        },
        {
          "name": "C#2",
          "midi": 37,
          "time": 172.01368799999938,
          "velocity": 0.29133858267716534,
          "duration": 0.3412969999999973
        },
        {
          "name": "C#2",
          "midi": 37,
          "time": 174.7440639999994,
          "velocity": 0.3700787401574803,
          "duration": 1.3651879999999892
        },
        {
          "name": "G#2",
          "midi": 44,
          "time": 174.7440639999994,
          "velocity": 0.44881889763779526,
          "duration": 1.3651879999999892
        },
        {
          "name": "A#2",
          "midi": 46,
          "time": 176.1092519999994,
          "velocity": 0.4409448818897638,
          "duration": 0.3412969999999973
        },
        {
          "name": "G#2",
          "midi": 44,
          "time": 176.4505489999994,
          "velocity": 0.4645669291338583,
          "duration": 0.3412969999999973
        },
        {
          "name": "C#3",
          "midi": 49,
          "time": 176.7918459999994,
          "velocity": 0.4881889763779528,
          "duration": 0.3412969999999973
        },
        {
          "name": "D#3",
          "midi": 51,
          "time": 177.1331429999994,
          "velocity": 0.5196850393700787,
          "duration": 0.3412969999999973
        },
        {
          "name": "F3",
          "midi": 53,
          "time": 177.4744399999994,
          "velocity": 0.5433070866141733,
          "duration": 1.3651879999999892
        },
        {
          "name": "G#3",
          "midi": 56,
          "time": 178.83962799999938,
          "velocity": 0.5590551181102362,
          "duration": 1.3651879999999892
        },
        {
          "name": "F#3",
          "midi": 54,
          "time": 180.20481599999937,
          "velocity": 0.5196850393700787,
          "duration": 0.682594000000023
        },
        {
          "name": "F3",
          "midi": 53,
          "time": 180.8874099999994,
          "velocity": 0.5275590551181102,
          "duration": 0.6825939999999946
        },
        {
          "name": "D#3",
          "midi": 51,
          "time": 181.5700039999994,
          "velocity": 0.5354330708661418,
          "duration": 0.6825939999999946
        },
        {
          "name": "F3",
          "midi": 53,
          "time": 182.25259799999938,
          "velocity": 0.5196850393700787,
          "duration": 0.3412969999999973
        },
        {
          "name": "C#3",
          "midi": 49,
          "time": 182.59389499999938,
          "velocity": 0.44881889763779526,
          "duration": 0.3412969999999973
        },
        {
          "name": "G#2",
          "midi": 44,
          "time": 182.93519199999938,
          "velocity": 0.49606299212598426,
          "duration": 1.3651879999999892
        },
        {
          "name": "G#1",
          "midi": 32,
          "time": 184.30037999999936,
          "velocity": 0.3937007874015748,
          "duration": 1.3651879999999892
        },
        {
          "name": "G#2",
          "midi": 44,
          "time": 184.30037999999936,
          "velocity": 0.3937007874015748,
          "duration": 1.3651879999999892
        },
        {
          "name": "C#2",
          "midi": 37,
          "time": 185.66556799999935,
          "velocity": 0.25984251968503935,
          "duration": 1.3651879999999892
        },
        {
          "name": "G#2",
          "midi": 44,
          "time": 185.70823012499935,
          "velocity": 0.28346456692913385,
          "duration": 1.3225258749999966
        },
        {
          "name": "C#2",
          "midi": 37,
          "time": 187.03075599999934,
          "velocity": 0.2440944881889764,
          "duration": 1.3651879999999892
        },
        {
          "name": "G#2",
          "midi": 44,
          "time": 187.07341812499934,
          "velocity": 0.29133858267716534,
          "duration": 1.3225258749999966
        }
      ],
      "controlChanges": {
        "7": [
          {
            "number": 7,
            "time": 0,
            "value": 0.7874015748031497
          }
        ],
        "64": [
          {
            "number": 64,
            "time": 0,
            "value": 0
          },
          {
            "number": 64,
            "time": 0.17064849999999998,
            "value": 1
          },
          {
            "number": 64,
            "time": 2.7652167354166663,
            "value": 0
          },
          {
            "number": 64,
            "time": 2.80076850625,
            "value": 1
          },
          {
            "number": 64,
            "time": 5.460751999999999,
            "value": 0
          },
          {
            "number": 64,
            "time": 5.50554723125,
            "value": 1
          },
          {
            "number": 64,
            "time": 6.155433602083333,
            "value": 0
          },
          {
            "number": 64,
            "time": 6.825939999999999,
            "value": 0
          },
          {
            "number": 64,
            "time": 6.870735231249999,
            "value": 1
          },
          {
            "number": 64,
            "time": 7.520621602083333,
            "value": 0
          },
          {
            "number": 64,
            "time": 8.191127999999999,
            "value": 0
          },
          {
            "number": 64,
            "time": 8.235923231249998,
            "value": 1
          },
          {
            "number": 64,
            "time": 9.556315999999988,
            "value": 0
          },
          {
            "number": 64,
            "time": 9.601111231249988,
            "value": 1
          },
          {
            "number": 64,
            "time": 10.921503999999977,
            "value": 0
          },
          {
            "number": 64,
            "time": 10.966299231249977,
            "value": 1
          },
          {
            "number": 64,
            "time": 11.616185602083306,
            "value": 0
          },
          {
            "number": 64,
            "time": 12.28669199999997,
            "value": 0
          },
          {
            "number": 64,
            "time": 12.33148723124997,
            "value": 1
          },
          {
            "number": 64,
            "time": 12.981373602083298,
            "value": 0
          },
          {
            "number": 64,
            "time": 13.651879999999963,
            "value": 0
          },
          {
            "number": 64,
            "time": 13.696675231249962,
            "value": 1
          },
          {
            "number": 64,
            "time": 15.017067999999952,
            "value": 0
          },
          {
            "number": 64,
            "time": 15.061863231249951,
            "value": 1
          },
          {
            "number": 64,
            "time": 16.38225599999994,
            "value": 0
          },
          {
            "number": 64,
            "time": 16.44696022291661,
            "value": 1
          },
          {
            "number": 64,
            "time": 17.74744399999993,
            "value": 0
          },
          {
            "number": 64,
            "time": 17.812148222916598,
            "value": 1
          },
          {
            "number": 64,
            "time": 18.475544266666592,
            "value": 0
          },
          {
            "number": 64,
            "time": 18.49545325833326,
            "value": 1
          },
          {
            "number": 64,
            "time": 19.112631999999923,
            "value": 0
          },
          {
            "number": 64,
            "time": 19.161693443749922,
            "value": 1
          },
          {
            "number": 64,
            "time": 20.477819999999912,
            "value": 0
          },
          {
            "number": 64,
            "time": 20.54252422291658,
            "value": 1
          },
          {
            "number": 64,
            "time": 21.8430079999999,
            "value": 0
          },
          {
            "number": 64,
            "time": 21.90771222291657,
            "value": 1
          },
          {
            "number": 64,
            "time": 23.20819599999989,
            "value": 0
          },
          {
            "number": 64,
            "time": 23.272900222916558,
            "value": 1
          },
          {
            "number": 64,
            "time": 23.936296266666552,
            "value": 0
          },
          {
            "number": 64,
            "time": 23.95620525833322,
            "value": 1
          },
          {
            "number": 64,
            "time": 24.573383999999884,
            "value": 0
          },
          {
            "number": 64,
            "time": 24.63808822291655,
            "value": 1
          },
          {
            "number": 64,
            "time": 25.301484266666545,
            "value": 0
          },
          {
            "number": 64,
            "time": 25.321393258333213,
            "value": 1
          },
          {
            "number": 64,
            "time": 25.984078266666543,
            "value": 0
          },
          {
            "number": 64,
            "time": 26.00398725833321,
            "value": 1
          },
          {
            "number": 64,
            "time": 26.275602787499878,
            "value": 0
          },
          {
            "number": 64,
            "time": 26.320398018749877,
            "value": 1
          },
          {
            "number": 64,
            "time": 27.349266266666536,
            "value": 0
          },
          {
            "number": 64,
            "time": 27.369175258333204,
            "value": 1
          },
          {
            "number": 64,
            "time": 27.64079078749987,
            "value": 0
          },
          {
            "number": 64,
            "time": 27.68558601874987,
            "value": 1
          },
          {
            "number": 64,
            "time": 28.014795416666534,
            "value": 0
          },
          {
            "number": 64,
            "time": 28.026883018749867,
            "value": 1
          },
          {
            "number": 64,
            "time": 28.344004814583197,
            "value": 0
          },
          {
            "number": 64,
            "time": 28.363913806249865,
            "value": 1
          },
          {
            "number": 64,
            "time": 28.71445426666653,
            "value": 0
          },
          {
            "number": 64,
            "time": 28.734363258333197,
            "value": 1
          },
          {
            "number": 64,
            "time": 29.005978787499863,
            "value": 0
          },
          {
            "number": 64,
            "time": 29.050774018749863,
            "value": 1
          },
          {
            "number": 64,
            "time": 30.07964226666652,
            "value": 0
          },
          {
            "number": 64,
            "time": 30.09955125833319,
            "value": 1
          },
          {
            "number": 64,
            "time": 30.371166787499856,
            "value": 0
          },
          {
            "number": 64,
            "time": 30.415962018749855,
            "value": 1
          },
          {
            "number": 64,
            "time": 30.74517141666652,
            "value": 0
          },
          {
            "number": 64,
            "time": 30.757259018749853,
            "value": 1
          },
          {
            "number": 64,
            "time": 31.074380814583183,
            "value": 0
          },
          {
            "number": 64,
            "time": 31.09428980624985,
            "value": 1
          },
          {
            "number": 64,
            "time": 31.444830266666514,
            "value": 0
          },
          {
            "number": 64,
            "time": 31.464739258333182,
            "value": 1
          },
          {
            "number": 64,
            "time": 31.73635478749985,
            "value": 0
          },
          {
            "number": 64,
            "time": 31.781150018749848,
            "value": 1
          },
          {
            "number": 64,
            "time": 32.11035941666651,
            "value": 0
          },
          {
            "number": 64,
            "time": 32.122447018749845,
            "value": 1
          },
          {
            "number": 64,
            "time": 32.439568814583176,
            "value": 0
          },
          {
            "number": 64,
            "time": 32.45947780624984,
            "value": 1
          },
          {
            "number": 64,
            "time": 32.76451199999984,
            "value": 0
          },
          {
            "number": 64,
            "time": 32.80930723124984,
            "value": 1
          },
          {
            "number": 64,
            "time": 33.45919360208317,
            "value": 0
          },
          {
            "number": 64,
            "time": 34.12969999999983,
            "value": 0
          },
          {
            "number": 64,
            "time": 34.17449523124983,
            "value": 1
          },
          {
            "number": 64,
            "time": 34.82438160208316,
            "value": 0
          },
          {
            "number": 64,
            "time": 35.49488799999982,
            "value": 0
          },
          {
            "number": 64,
            "time": 35.53968323124982,
            "value": 1
          },
          {
            "number": 64,
            "time": 36.86007599999981,
            "value": 0
          },
          {
            "number": 64,
            "time": 36.90487123124981,
            "value": 1
          },
          {
            "number": 64,
            "time": 38.2252639999998,
            "value": 0
          },
          {
            "number": 64,
            "time": 38.270059231249796,
            "value": 1
          },
          {
            "number": 64,
            "time": 38.919945602083125,
            "value": 0
          },
          {
            "number": 64,
            "time": 38.964740833333124,
            "value": 1
          },
          {
            "number": 64,
            "time": 39.590451999999786,
            "value": 0
          },
          {
            "number": 64,
            "time": 39.635247231249785,
            "value": 1
          },
          {
            "number": 64,
            "time": 40.285133602083114,
            "value": 0
          },
          {
            "number": 64,
            "time": 40.32992883333311,
            "value": 1
          },
          {
            "number": 64,
            "time": 40.955639999999775,
            "value": 0
          },
          {
            "number": 64,
            "time": 41.000435231249774,
            "value": 1
          },
          {
            "number": 64,
            "time": 41.6503216020831,
            "value": 0
          },
          {
            "number": 64,
            "time": 41.6951168333331,
            "value": 1
          },
          {
            "number": 64,
            "time": 42.320827999999764,
            "value": 0
          },
          {
            "number": 64,
            "time": 42.365623231249764,
            "value": 1
          },
          {
            "number": 64,
            "time": 43.01550960208309,
            "value": 0
          },
          {
            "number": 64,
            "time": 43.06030483333309,
            "value": 1
          },
          {
            "number": 64,
            "time": 43.68601599999975,
            "value": 0
          },
          {
            "number": 64,
            "time": 43.73081123124975,
            "value": 1
          },
          {
            "number": 64,
            "time": 45.05120399999974,
            "value": 0
          },
          {
            "number": 64,
            "time": 45.09599923124974,
            "value": 1
          },
          {
            "number": 64,
            "time": 46.41639199999973,
            "value": 0
          },
          {
            "number": 64,
            "time": 47.10680738958307,
            "value": 1
          },
          {
            "number": 64,
            "time": 47.460191991666406,
            "value": 0
          },
          {
            "number": 64,
            "time": 48.4563526104164,
            "value": 1
          },
          {
            "number": 64,
            "time": 49.138946610416404,
            "value": 0
          },
          {
            "number": 64,
            "time": 49.19725151458307,
            "value": 1
          },
          {
            "number": 64,
            "time": 51.87714399999972,
            "value": 0
          },
          {
            "number": 64,
            "time": 51.92762751458305,
            "value": 1
          },
          {
            "number": 64,
            "time": 52.92592123958304,
            "value": 0
          },
          {
            "number": 64,
            "time": 52.96147301041638,
            "value": 1
          },
          {
            "number": 64,
            "time": 53.25015338958305,
            "value": 0
          },
          {
            "number": 64,
            "time": 53.29494862083305,
            "value": 1
          },
          {
            "number": 64,
            "time": 53.61989180624971,
            "value": 0
          },
          {
            "number": 64,
            "time": 53.66895324999971,
            "value": 1
          },
          {
            "number": 64,
            "time": 53.93701360208304,
            "value": 0
          },
          {
            "number": 64,
            "time": 54.00598403749971,
            "value": 1
          },
          {
            "number": 64,
            "time": 54.29039820416637,
            "value": 0
          },
          {
            "number": 64,
            "time": 54.351547249999705,
            "value": 1
          },
          {
            "number": 64,
            "time": 54.6075199999997,
            "value": 0
          },
          {
            "number": 64,
            "time": 54.68288975416637,
            "value": 1
          },
          {
            "number": 64,
            "time": 57.33789599999968,
            "value": 0
          },
          {
            "number": 64,
            "time": 57.41824300208302,
            "value": 1
          },
          {
            "number": 64,
            "time": 58.70308399999967,
            "value": 0
          },
          {
            "number": 64,
            "time": 58.740768877083006,
            "value": 1
          },
          {
            "number": 64,
            "time": 59.39847663749967,
            "value": 0
          },
          {
            "number": 64,
            "time": 59.42834012499967,
            "value": 1
          },
          {
            "number": 64,
            "time": 60.110934124999666,
            "value": 0
          },
          {
            "number": 64,
            "time": 60.153596249999666,
            "value": 1
          },
          {
            "number": 64,
            "time": 60.42450074374966,
            "value": 0
          },
          {
            "number": 64,
            "time": 60.47996150624966,
            "value": 1
          },
          {
            "number": 64,
            "time": 60.76579774374965,
            "value": 0
          },
          {
            "number": 64,
            "time": 60.811304010416315,
            "value": 1
          },
          {
            "number": 64,
            "time": 61.09714024791631,
            "value": 0
          },
          {
            "number": 64,
            "time": 61.14264651458297,
            "value": 1
          },
          {
            "number": 64,
            "time": 61.433459999999634,
            "value": 0
          },
          {
            "number": 64,
            "time": 61.4789662666663,
            "value": 1
          },
          {
            "number": 64,
            "time": 62.11605399999963,
            "value": 0
          },
          {
            "number": 64,
            "time": 62.155871983332965,
            "value": 1
          },
          {
            "number": 64,
            "time": 62.79864799999962,
            "value": 0
          },
          {
            "number": 64,
            "time": 62.84344323124962,
            "value": 1
          },
          {
            "number": 64,
            "time": 63.50186202708295,
            "value": 0
          },
          {
            "number": 64,
            "time": 63.54239104583295,
            "value": 1
          },
          {
            "number": 64,
            "time": 64.16383599999962,
            "value": 0
          },
          {
            "number": 64,
            "time": 64.20152087708296,
            "value": 1
          },
          {
            "number": 64,
            "time": 64.53357441666628,
            "value": 0
          },
          {
            "number": 64,
            "time": 64.55419444374962,
            "value": 1
          },
          {
            "number": 64,
            "time": 64.85922863749961,
            "value": 0
          },
          {
            "number": 64,
            "time": 64.8890921249996,
            "value": 1
          },
          {
            "number": 64,
            "time": 65.21190220416628,
            "value": 0
          },
          {
            "number": 64,
            "time": 65.23252223124962,
            "value": 1
          },
          {
            "number": 64,
            "time": 65.52902399999962,
            "value": 0
          },
          {
            "number": 64,
            "time": 65.58946201041628,
            "value": 1
          },
          {
            "number": 64,
            "time": 66.22512767291629,
            "value": 0
          },
          {
            "number": 64,
            "time": 66.25428012499962,
            "value": 1
          },
          {
            "number": 64,
            "time": 66.90914374374962,
            "value": 0
          },
          {
            "number": 64,
            "time": 66.96958175416628,
            "value": 1
          },
          {
            "number": 64,
            "time": 67.59955913333295,
            "value": 0
          },
          {
            "number": 64,
            "time": 67.61164673541627,
            "value": 1
          },
          {
            "number": 64,
            "time": 68.2593999999996,
            "value": 0
          },
          {
            "number": 64,
            "time": 68.33974700208293,
            "value": 1
          },
          {
            "number": 64,
            "time": 69.62458799999959,
            "value": 0
          },
          {
            "number": 64,
            "time": 69.66227287708293,
            "value": 1
          },
          {
            "number": 64,
            "time": 70.31998063749958,
            "value": 0
          },
          {
            "number": 64,
            "time": 70.34984412499958,
            "value": 1
          },
          {
            "number": 64,
            "time": 71.03243812499959,
            "value": 0
          },
          {
            "number": 64,
            "time": 71.0751002499996,
            "value": 1
          },
          {
            "number": 64,
            "time": 71.34600474374959,
            "value": 0
          },
          {
            "number": 64,
            "time": 71.4014655062496,
            "value": 1
          },
          {
            "number": 64,
            "time": 71.68730174374959,
            "value": 0
          },
          {
            "number": 64,
            "time": 71.73280801041625,
            "value": 1
          },
          {
            "number": 64,
            "time": 72.01864424791626,
            "value": 0
          },
          {
            "number": 64,
            "time": 72.06415051458292,
            "value": 1
          },
          {
            "number": 64,
            "time": 72.35496399999958,
            "value": 0
          },
          {
            "number": 64,
            "time": 72.40047026666625,
            "value": 1
          },
          {
            "number": 64,
            "time": 73.03755799999958,
            "value": 0
          },
          {
            "number": 64,
            "time": 73.07737598333291,
            "value": 1
          },
          {
            "number": 64,
            "time": 73.72015199999957,
            "value": 0
          },
          {
            "number": 64,
            "time": 73.76494723124958,
            "value": 1
          },
          {
            "number": 64,
            "time": 74.42336602708292,
            "value": 0
          },
          {
            "number": 64,
            "time": 74.46389504583291,
            "value": 1
          },
          {
            "number": 64,
            "time": 75.08533999999958,
            "value": 0
          },
          {
            "number": 64,
            "time": 75.12302487708291,
            "value": 1
          },
          {
            "number": 64,
            "time": 75.45507841666624,
            "value": 0
          },
          {
            "number": 64,
            "time": 75.47569844374958,
            "value": 1
          },
          {
            "number": 64,
            "time": 75.78073263749957,
            "value": 0
          },
          {
            "number": 64,
            "time": 75.81059612499956,
            "value": 1
          },
          {
            "number": 64,
            "time": 76.13340620416623,
            "value": 0
          },
          {
            "number": 64,
            "time": 76.15402623124957,
            "value": 1
          },
          {
            "number": 64,
            "time": 76.45052799999958,
            "value": 0
          },
          {
            "number": 64,
            "time": 76.51096601041624,
            "value": 1
          },
          {
            "number": 64,
            "time": 77.14663167291624,
            "value": 0
          },
          {
            "number": 64,
            "time": 77.17578412499958,
            "value": 1
          },
          {
            "number": 64,
            "time": 77.83064774374958,
            "value": 0
          },
          {
            "number": 64,
            "time": 77.89108575416624,
            "value": 1
          },
          {
            "number": 64,
            "time": 78.5210631333329,
            "value": 0
          },
          {
            "number": 64,
            "time": 78.53315073541623,
            "value": 1
          },
          {
            "number": 64,
            "time": 79.18588124791623,
            "value": 0
          },
          {
            "number": 64,
            "time": 79.22356612499956,
            "value": 1
          },
          {
            "number": 64,
            "time": 79.87842974374956,
            "value": 0
          },
          {
            "number": 64,
            "time": 79.90900426666623,
            "value": 1
          },
          {
            "number": 64,
            "time": 80.5603127083329,
            "value": 0
          },
          {
            "number": 64,
            "time": 80.57666652291624,
            "value": 1
          },
          {
            "number": 64,
            "time": 81.23508531874957,
            "value": 0
          },
          {
            "number": 64,
            "time": 81.25499431041624,
            "value": 1
          },
          {
            "number": 64,
            "time": 81.91625724791623,
            "value": 0
          },
          {
            "number": 64,
            "time": 81.95394212499957,
            "value": 1
          },
          {
            "number": 64,
            "time": 82.60880574374957,
            "value": 0
          },
          {
            "number": 64,
            "time": 82.63938026666624,
            "value": 1
          },
          {
            "number": 64,
            "time": 83.29068870833291,
            "value": 0
          },
          {
            "number": 64,
            "time": 83.30704252291625,
            "value": 1
          },
          {
            "number": 64,
            "time": 84.00456826666624,
            "value": 0
          },
          {
            "number": 64,
            "time": 84.03158761249958,
            "value": 1
          },
          {
            "number": 64,
            "time": 84.64165599999957,
            "value": 0
          },
          {
            "number": 64,
            "time": 84.7220030020829,
            "value": 1
          },
          {
            "number": 64,
            "time": 86.00684399999956,
            "value": 0
          },
          {
            "number": 64,
            "time": 86.0445288770829,
            "value": 1
          },
          {
            "number": 64,
            "time": 86.70223663749955,
            "value": 0
          },
          {
            "number": 64,
            "time": 86.73210012499955,
            "value": 1
          },
          {
            "number": 64,
            "time": 87.41469412499956,
            "value": 0
          },
          {
            "number": 64,
            "time": 87.45735624999956,
            "value": 1
          },
          {
            "number": 64,
            "time": 87.72826074374956,
            "value": 0
          },
          {
            "number": 64,
            "time": 87.78372150624956,
            "value": 1
          },
          {
            "number": 64,
            "time": 88.06955774374956,
            "value": 0
          },
          {
            "number": 64,
            "time": 88.11506401041622,
            "value": 1
          },
          {
            "number": 64,
            "time": 88.40090024791623,
            "value": 0
          },
          {
            "number": 64,
            "time": 88.44640651458289,
            "value": 1
          },
          {
            "number": 64,
            "time": 88.73721999999955,
            "value": 0
          },
          {
            "number": 64,
            "time": 88.78272626666622,
            "value": 1
          },
          {
            "number": 64,
            "time": 89.41981399999955,
            "value": 0
          },
          {
            "number": 64,
            "time": 89.45963198333288,
            "value": 1
          },
          {
            "number": 64,
            "time": 90.10240799999954,
            "value": 0
          },
          {
            "number": 64,
            "time": 90.14720323124955,
            "value": 1
          },
          {
            "number": 64,
            "time": 90.80562202708289,
            "value": 0
          },
          {
            "number": 64,
            "time": 90.84615104583288,
            "value": 1
          },
          {
            "number": 64,
            "time": 91.46759599999955,
            "value": 0
          },
          {
            "number": 64,
            "time": 91.50528087708288,
            "value": 1
          },
          {
            "number": 64,
            "time": 91.83733441666621,
            "value": 0
          },
          {
            "number": 64,
            "time": 91.85795444374955,
            "value": 1
          },
          {
            "number": 64,
            "time": 92.16298863749954,
            "value": 0
          },
          {
            "number": 64,
            "time": 92.19285212499953,
            "value": 1
          },
          {
            "number": 64,
            "time": 92.5156622041662,
            "value": 0
          },
          {
            "number": 64,
            "time": 92.53628223124954,
            "value": 1
          },
          {
            "number": 64,
            "time": 92.83278399999955,
            "value": 0
          },
          {
            "number": 64,
            "time": 92.89322201041621,
            "value": 1
          },
          {
            "number": 64,
            "time": 93.52888767291621,
            "value": 0
          },
          {
            "number": 64,
            "time": 93.55804012499955,
            "value": 1
          },
          {
            "number": 64,
            "time": 94.21290374374955,
            "value": 0
          },
          {
            "number": 64,
            "time": 94.27334175416621,
            "value": 1
          },
          {
            "number": 64,
            "time": 94.90331913333287,
            "value": 0
          },
          {
            "number": 64,
            "time": 94.9154067354162,
            "value": 1
          },
          {
            "number": 64,
            "time": 95.5681372479162,
            "value": 0
          },
          {
            "number": 64,
            "time": 95.60582212499953,
            "value": 1
          },
          {
            "number": 64,
            "time": 96.26068574374953,
            "value": 0
          },
          {
            "number": 64,
            "time": 96.2912602666662,
            "value": 1
          },
          {
            "number": 64,
            "time": 96.94256870833287,
            "value": 0
          },
          {
            "number": 64,
            "time": 96.95892252291621,
            "value": 1
          },
          {
            "number": 64,
            "time": 97.61734131874954,
            "value": 0
          },
          {
            "number": 64,
            "time": 97.6372503104162,
            "value": 1
          },
          {
            "number": 64,
            "time": 98.2985132479162,
            "value": 0
          },
          {
            "number": 64,
            "time": 98.33619812499954,
            "value": 1
          },
          {
            "number": 64,
            "time": 98.99106174374954,
            "value": 0
          },
          {
            "number": 64,
            "time": 99.0216362666662,
            "value": 1
          },
          {
            "number": 64,
            "time": 99.67294470833288,
            "value": 0
          },
          {
            "number": 64,
            "time": 99.68929852291622,
            "value": 1
          },
          {
            "number": 64,
            "time": 100.38682426666621,
            "value": 0
          },
          {
            "number": 64,
            "time": 100.41384361249955,
            "value": 1
          },
          {
            "number": 64,
            "time": 101.02391199999954,
            "value": 0
          },
          {
            "number": 64,
            "time": 101.10425900208287,
            "value": 1
          },
          {
            "number": 64,
            "time": 102.38909999999953,
            "value": 0
          },
          {
            "number": 64,
            "time": 102.42678487708287,
            "value": 1
          },
          {
            "number": 64,
            "time": 103.08449263749952,
            "value": 0
          },
          {
            "number": 64,
            "time": 103.11435612499952,
            "value": 1
          },
          {
            "number": 64,
            "time": 103.79695012499953,
            "value": 0
          },
          {
            "number": 64,
            "time": 103.83961224999953,
            "value": 1
          },
          {
            "number": 64,
            "time": 104.11051674374953,
            "value": 0
          },
          {
            "number": 64,
            "time": 104.16597750624953,
            "value": 1
          },
          {
            "number": 64,
            "time": 104.45181374374953,
            "value": 0
          },
          {
            "number": 64,
            "time": 104.49732001041619,
            "value": 1
          },
          {
            "number": 64,
            "time": 104.7831562479162,
            "value": 0
          },
          {
            "number": 64,
            "time": 104.82866251458286,
            "value": 1
          },
          {
            "number": 64,
            "time": 105.11947599999952,
            "value": 0
          },
          {
            "number": 64,
            "time": 105.16498226666619,
            "value": 1
          },
          {
            "number": 64,
            "time": 105.80206999999952,
            "value": 0
          },
          {
            "number": 64,
            "time": 105.84188798333285,
            "value": 1
          },
          {
            "number": 64,
            "time": 106.48466399999951,
            "value": 0
          },
          {
            "number": 64,
            "time": 106.52945923124952,
            "value": 1
          },
          {
            "number": 64,
            "time": 107.18787802708286,
            "value": 0
          },
          {
            "number": 64,
            "time": 107.22840704583285,
            "value": 1
          },
          {
            "number": 64,
            "time": 107.84985199999952,
            "value": 0
          },
          {
            "number": 64,
            "time": 107.88753687708285,
            "value": 1
          },
          {
            "number": 64,
            "time": 108.21959041666618,
            "value": 0
          },
          {
            "number": 64,
            "time": 108.24021044374952,
            "value": 1
          },
          {
            "number": 64,
            "time": 108.54524463749951,
            "value": 0
          },
          {
            "number": 64,
            "time": 108.5751081249995,
            "value": 1
          },
          {
            "number": 64,
            "time": 108.89791820416617,
            "value": 0
          },
          {
            "number": 64,
            "time": 108.91853823124951,
            "value": 1
          },
          {
            "number": 64,
            "time": 109.21503999999952,
            "value": 0
          },
          {
            "number": 64,
            "time": 109.27547801041618,
            "value": 1
          },
          {
            "number": 64,
            "time": 109.91114367291618,
            "value": 0
          },
          {
            "number": 64,
            "time": 109.94029612499952,
            "value": 1
          },
          {
            "number": 64,
            "time": 110.59515974374952,
            "value": 0
          },
          {
            "number": 64,
            "time": 110.65559775416618,
            "value": 1
          },
          {
            "number": 64,
            "time": 111.9454159999995,
            "value": 0
          },
          {
            "number": 64,
            "time": 111.9902112312495,
            "value": 1
          },
          {
            "number": 64,
            "time": 112.64009760208283,
            "value": 0
          },
          {
            "number": 64,
            "time": 113.3106039999995,
            "value": 0
          },
          {
            "number": 64,
            "time": 113.3553992312495,
            "value": 1
          },
          {
            "number": 64,
            "time": 114.00528560208284,
            "value": 0
          },
          {
            "number": 64,
            "time": 114.6757919999995,
            "value": 0
          },
          {
            "number": 64,
            "time": 114.72058723124951,
            "value": 1
          },
          {
            "number": 64,
            "time": 116.04097999999951,
            "value": 0
          },
          {
            "number": 64,
            "time": 116.08577523124951,
            "value": 1
          },
          {
            "number": 64,
            "time": 117.40616799999951,
            "value": 0
          },
          {
            "number": 64,
            "time": 117.45096323124952,
            "value": 1
          },
          {
            "number": 64,
            "time": 118.10084960208285,
            "value": 0
          },
          {
            "number": 64,
            "time": 118.77135599999951,
            "value": 0
          },
          {
            "number": 64,
            "time": 118.81615123124952,
            "value": 1
          },
          {
            "number": 64,
            "time": 119.46603760208285,
            "value": 0
          },
          {
            "number": 64,
            "time": 120.13654399999952,
            "value": 0
          },
          {
            "number": 64,
            "time": 120.18133923124952,
            "value": 1
          },
          {
            "number": 64,
            "time": 121.50173199999952,
            "value": 0
          },
          {
            "number": 64,
            "time": 121.54652723124953,
            "value": 1
          },
          {
            "number": 64,
            "time": 122.86691999999952,
            "value": 0
          },
          {
            "number": 64,
            "time": 122.93162422291618,
            "value": 1
          },
          {
            "number": 64,
            "time": 124.23210799999951,
            "value": 0
          },
          {
            "number": 64,
            "time": 124.29681222291617,
            "value": 1
          },
          {
            "number": 64,
            "time": 124.96020826666617,
            "value": 0
          },
          {
            "number": 64,
            "time": 124.98011725833284,
            "value": 1
          },
          {
            "number": 64,
            "time": 125.5972959999995,
            "value": 0
          },
          {
            "number": 64,
            "time": 125.64635744374951,
            "value": 1
          },
          {
            "number": 64,
            "time": 126.96248399999949,
            "value": 0
          },
          {
            "number": 64,
            "time": 127.02718822291615,
            "value": 1
          },
          {
            "number": 64,
            "time": 128.3276719999995,
            "value": 0
          },
          {
            "number": 64,
            "time": 128.39237622291617,
            "value": 1
          },
          {
            "number": 64,
            "time": 129.69285999999948,
            "value": 0
          },
          {
            "number": 64,
            "time": 129.75756422291616,
            "value": 1
          },
          {
            "number": 64,
            "time": 130.42096026666616,
            "value": 0
          },
          {
            "number": 64,
            "time": 130.4408692583328,
            "value": 1
          },
          {
            "number": 64,
            "time": 131.05804799999947,
            "value": 0
          },
          {
            "number": 64,
            "time": 131.12275222291615,
            "value": 1
          },
          {
            "number": 64,
            "time": 131.78614826666615,
            "value": 0
          },
          {
            "number": 64,
            "time": 131.8060572583328,
            "value": 1
          },
          {
            "number": 64,
            "time": 132.46874226666614,
            "value": 0
          },
          {
            "number": 64,
            "time": 132.4886512583328,
            "value": 1
          },
          {
            "number": 64,
            "time": 132.76026678749946,
            "value": 0
          },
          {
            "number": 64,
            "time": 132.80506201874945,
            "value": 1
          },
          {
            "number": 64,
            "time": 133.83393026666613,
            "value": 0
          },
          {
            "number": 64,
            "time": 133.85383925833278,
            "value": 1
          },
          {
            "number": 64,
            "time": 134.12545478749945,
            "value": 0
          },
          {
            "number": 64,
            "time": 134.17025001874944,
            "value": 1
          },
          {
            "number": 64,
            "time": 134.49945941666613,
            "value": 0
          },
          {
            "number": 64,
            "time": 134.51154701874947,
            "value": 1
          },
          {
            "number": 64,
            "time": 134.8286688145828,
            "value": 0
          },
          {
            "number": 64,
            "time": 134.84857780624947,
            "value": 1
          },
          {
            "number": 64,
            "time": 135.19911826666615,
            "value": 0
          },
          {
            "number": 64,
            "time": 135.2190272583328,
            "value": 1
          },
          {
            "number": 64,
            "time": 135.49064278749947,
            "value": 0
          },
          {
            "number": 64,
            "time": 135.53543801874946,
            "value": 1
          },
          {
            "number": 64,
            "time": 136.56430626666614,
            "value": 0
          },
          {
            "number": 64,
            "time": 136.5842152583328,
            "value": 1
          },
          {
            "number": 64,
            "time": 136.85583078749946,
            "value": 0
          },
          {
            "number": 64,
            "time": 136.90062601874945,
            "value": 1
          },
          {
            "number": 64,
            "time": 137.22983541666613,
            "value": 0
          },
          {
            "number": 64,
            "time": 137.24192301874947,
            "value": 1
          },
          {
            "number": 64,
            "time": 137.55904481458282,
            "value": 0
          },
          {
            "number": 64,
            "time": 137.57895380624947,
            "value": 1
          },
          {
            "number": 64,
            "time": 137.92949426666615,
            "value": 0
          },
          {
            "number": 64,
            "time": 137.9494032583328,
            "value": 1
          },
          {
            "number": 64,
            "time": 138.22101878749947,
            "value": 0
          },
          {
            "number": 64,
            "time": 138.26581401874947,
            "value": 1
          },
          {
            "number": 64,
            "time": 138.59502341666615,
            "value": 0
          },
          {
            "number": 64,
            "time": 138.6071110187495,
            "value": 1
          },
          {
            "number": 64,
            "time": 138.92423281458284,
            "value": 0
          },
          {
            "number": 64,
            "time": 138.9441418062495,
            "value": 1
          },
          {
            "number": 64,
            "time": 139.2491759999995,
            "value": 0
          },
          {
            "number": 64,
            "time": 139.2939712312495,
            "value": 1
          },
          {
            "number": 64,
            "time": 139.94385760208283,
            "value": 0
          },
          {
            "number": 64,
            "time": 140.61436399999948,
            "value": 0
          },
          {
            "number": 64,
            "time": 140.65915923124948,
            "value": 1
          },
          {
            "number": 64,
            "time": 141.30904560208282,
            "value": 0
          },
          {
            "number": 64,
            "time": 141.97955199999947,
            "value": 0
          },
          {
            "number": 64,
            "time": 142.02434723124946,
            "value": 1
          },
          {
            "number": 64,
            "time": 143.34473999999946,
            "value": 0
          },
          {
            "number": 64,
            "time": 143.38953523124945,
            "value": 1
          },
          {
            "number": 64,
            "time": 144.70992799999945,
            "value": 0
          },
          {
            "number": 64,
            "time": 144.75472323124944,
            "value": 1
          },
          {
            "number": 64,
            "time": 145.4046096020828,
            "value": 0
          },
          {
            "number": 64,
            "time": 145.44940483333278,
            "value": 1
          },
          {
            "number": 64,
            "time": 146.07511599999944,
            "value": 0
          },
          {
            "number": 64,
            "time": 146.11991123124943,
            "value": 1
          },
          {
            "number": 64,
            "time": 146.76979760208278,
            "value": 0
          },
          {
            "number": 64,
            "time": 146.81459283333277,
            "value": 1
          },
          {
            "number": 64,
            "time": 147.44030399999943,
            "value": 0
          },
          {
            "number": 64,
            "time": 147.48509923124942,
            "value": 1
          },
          {
            "number": 64,
            "time": 148.13498560208276,
            "value": 0
          },
          {
            "number": 64,
            "time": 148.17978083333276,
            "value": 1
          },
          {
            "number": 64,
            "time": 148.80549199999942,
            "value": 0
          },
          {
            "number": 64,
            "time": 148.8502872312494,
            "value": 1
          },
          {
            "number": 64,
            "time": 149.50017360208275,
            "value": 0
          },
          {
            "number": 64,
            "time": 149.54496883333275,
            "value": 1
          },
          {
            "number": 64,
            "time": 150.1706799999994,
            "value": 0
          },
          {
            "number": 64,
            "time": 150.2154752312494,
            "value": 1
          },
          {
            "number": 64,
            "time": 151.5358679999994,
            "value": 0
          },
          {
            "number": 64,
            "time": 151.5806632312494,
            "value": 1
          },
          {
            "number": 64,
            "time": 152.9010559999994,
            "value": 0
          },
          {
            "number": 64,
            "time": 153.59147138958272,
            "value": 1
          },
          {
            "number": 64,
            "time": 153.94485599166603,
            "value": 0
          },
          {
            "number": 64,
            "time": 154.94101661041603,
            "value": 1
          },
          {
            "number": 64,
            "time": 155.62361061041602,
            "value": 0
          },
          {
            "number": 64,
            "time": 155.6819155145827,
            "value": 1
          },
          {
            "number": 64,
            "time": 158.36180799999937,
            "value": 0
          },
          {
            "number": 64,
            "time": 158.4122915145827,
            "value": 1
          },
          {
            "number": 64,
            "time": 159.41556248749936,
            "value": 0
          },
          {
            "number": 64,
            "time": 159.4511142583327,
            "value": 1
          },
          {
            "number": 64,
            "time": 159.7348173895827,
            "value": 0
          },
          {
            "number": 64,
            "time": 159.7796126208327,
            "value": 1
          },
          {
            "number": 64,
            "time": 160.10455580624935,
            "value": 0
          },
          {
            "number": 64,
            "time": 160.15361724999934,
            "value": 1
          },
          {
            "number": 64,
            "time": 160.4216776020827,
            "value": 0
          },
          {
            "number": 64,
            "time": 160.49064803749937,
            "value": 1
          },
          {
            "number": 64,
            "time": 160.77506220416603,
            "value": 0
          },
          {
            "number": 64,
            "time": 160.83621124999937,
            "value": 1
          },
          {
            "number": 64,
            "time": 161.10000538958272,
            "value": 0
          },
          {
            "number": 64,
            "time": 161.1448006208327,
            "value": 1
          },
          {
            "number": 64,
            "time": 161.9959100145827,
            "value": 0
          },
          {
            "number": 64,
            "time": 162.03572799791604,
            "value": 1
          },
          {
            "number": 64,
            "time": 162.6678384833327,
            "value": 0
          },
          {
            "number": 64,
            "time": 162.7083675020827,
            "value": 1
          },
          {
            "number": 64,
            "time": 163.34545523541604,
            "value": 0
          },
          {
            "number": 64,
            "time": 163.37105251041604,
            "value": 1
          },
          {
            "number": 64,
            "time": 164.013117491666,
            "value": 0
          },
          {
            "number": 64,
            "time": 164.04866926249935,
            "value": 1
          },
          {
            "number": 64,
            "time": 164.7006887395827,
            "value": 0
          },
          {
            "number": 64,
            "time": 164.76112674999936,
            "value": 1
          },
          {
            "number": 64,
            "time": 165.38825998749937,
            "value": 0
          },
          {
            "number": 64,
            "time": 165.41385726249936,
            "value": 1
          },
          {
            "number": 64,
            "time": 166.0210815083327,
            "value": 0
          },
          {
            "number": 64,
            "time": 166.05592224374936,
            "value": 1
          },
          {
            "number": 64,
            "time": 166.72358449999936,
            "value": 0
          },
          {
            "number": 64,
            "time": 166.77904526249935,
            "value": 1
          },
          {
            "number": 64,
            "time": 167.45168476666603,
            "value": 0
          },
          {
            "number": 64,
            "time": 167.49150274999937,
            "value": 1
          },
          {
            "number": 64,
            "time": 168.10370424374938,
            "value": 0
          },
          {
            "number": 64,
            "time": 168.12859048333272,
            "value": 1
          },
          {
            "number": 64,
            "time": 168.77136649999937,
            "value": 0
          },
          {
            "number": 64,
            "time": 168.8218500145827,
            "value": 1
          },
          {
            "number": 64,
            "time": 169.48382398749936,
            "value": 0
          },
          {
            "number": 64,
            "time": 169.51439851041604,
            "value": 1
          },
          {
            "number": 64,
            "time": 170.1763724833327,
            "value": 0
          },
          {
            "number": 64,
            "time": 170.20694700624938,
            "value": 1
          },
          {
            "number": 64,
            "time": 170.84901198749938,
            "value": 0
          },
          {
            "number": 64,
            "time": 170.86963201458272,
            "value": 1
          },
          {
            "number": 64,
            "time": 171.52662873958272,
            "value": 0
          },
          {
            "number": 64,
            "time": 171.5671577583327,
            "value": 1
          },
          {
            "number": 64,
            "time": 172.18433649999938,
            "value": 0
          },
          {
            "number": 64,
            "time": 172.23979726249937,
            "value": 1
          },
          {
            "number": 64,
            "time": 172.86693049999937,
            "value": 0
          },
          {
            "number": 64,
            "time": 172.9067484833327,
            "value": 1
          },
          {
            "number": 64,
            "time": 173.55450174791605,
            "value": 0
          },
          {
            "number": 64,
            "time": 173.60000801458273,
            "value": 1
          },
          {
            "number": 64,
            "time": 174.27762476666607,
            "value": 0
          },
          {
            "number": 64,
            "time": 174.31246550208274,
            "value": 1
          },
          {
            "number": 64,
            "time": 174.75188538958275,
            "value": 0
          },
          {
            "number": 64,
            "time": 174.7895702666661,
            "value": 1
          },
          {
            "number": 64,
            "time": 175.43447938958275,
            "value": 0
          },
          {
            "number": 64,
            "time": 175.46647598333274,
            "value": 1
          },
          {
            "number": 64,
            "time": 176.11707338958274,
            "value": 0
          },
          {
            "number": 64,
            "time": 176.15475826666608,
            "value": 1
          },
          {
            "number": 64,
            "time": 176.79966738958274,
            "value": 0
          },
          {
            "number": 64,
            "time": 176.83166398333273,
            "value": 1
          },
          {
            "number": 64,
            "time": 177.48226138958273,
            "value": 0
          },
          {
            "number": 64,
            "time": 177.51994626666607,
            "value": 1
          },
          {
            "number": 64,
            "time": 178.16485538958273,
            "value": 0
          },
          {
            "number": 64,
            "time": 178.19685198333272,
            "value": 1
          },
          {
            "number": 64,
            "time": 178.84744938958272,
            "value": 0
          },
          {
            "number": 64,
            "time": 178.88513426666606,
            "value": 1
          },
          {
            "number": 64,
            "time": 179.53004338958272,
            "value": 0
          },
          {
            "number": 64,
            "time": 179.5620399833327,
            "value": 1
          },
          {
            "number": 64,
            "time": 180.2126373895827,
            "value": 0
          },
          {
            "number": 64,
            "time": 180.25032226666605,
            "value": 1
          },
          {
            "number": 64,
            "time": 180.89523138958273,
            "value": 0
          },
          {
            "number": 64,
            "time": 180.92722798333273,
            "value": 1
          },
          {
            "number": 64,
            "time": 181.5700039999994,
            "value": 0
          },
          {
            "number": 64,
            "time": 181.6674158520827,
            "value": 1
          },
          {
            "number": 64,
            "time": 182.23624418541604,
            "value": 0
          },
          {
            "number": 64,
            "time": 182.30308151458271,
            "value": 1
          },
          {
            "number": 64,
            "time": 182.95936720416603,
            "value": 0
          },
          {
            "number": 64,
            "time": 182.9963410458327,
            "value": 1
          },
          {
            "number": 64,
            "time": 184.30037999999936,
            "value": 0
          },
          {
            "number": 64,
            "time": 184.43334362291603,
            "value": 1
          },
          {
            "number": 64,
            "time": 185.66556799999935,
            "value": 0
          },
          {
            "number": 64,
            "time": 185.7053859833327,
            "value": 1
          },
          {
            "number": 64,
            "time": 187.03075599999934,
            "value": 0
          },
          {
            "number": 64,
            "time": 187.07341812499934,
            "value": 1
          },
          {
            "number": 64,
            "time": 190.69045528958267,
            "value": 0
          }
        ]
      }
    },
    {
      "startTime": 0,
      "duration": 0,
      "length": 0,
      "id": 3,
      "name": "Chopin: Fantasie-Impormptu  C# minor Op. 66"
    },
    {
      "startTime": 0,
      "duration": 0,
      "length": 0,
      "id": 4,
      "name": "Copyright  2003 by Bernd Krueger"
    },
    {
      "startTime": 0,
      "duration": 0,
      "length": 0,
      "id": 5,
      "name": "email: bernd.krueger@piano-midi.de"
    },
    {
      "startTime": 0,
      "duration": 0,
      "length": 0,
      "id": 6,
      "name": "http://www.piano-midi.de"
    },
    {
      "startTime": 0,
      "duration": 0,
      "length": 0,
      "id": 7,
      "name": "Edition: 19.7.2003"
    },
    {
      "startTime": 0,
      "duration": 0,
      "length": 0,
      "id": 8
    }
  ]
}