{
  "header": {
    "PPQ": 48,
    "timeSignature": [
      9,
      8
    ],
    "bpm": 160
  },
  "startTime": 0,
  "duration": 164.0625,
  "tracks": [
    {
      "startTime": 0,
      "duration": 0,
      "length": 0,
      "id": 0
    },
    {
      "startTime": 3.1875,
      "duration": 163.859375,
      "length": 1962,
      "id": 1,
      "name": "Strings I",
      "instrumentNumber": 48,
      "instrument": "string ensemble 1",
      "instrumentFamily": "ensemble",
      "channelNumber": 0,
      "isPercussion": false,
      "notes": [
        {
          "name": "B4",
          "midi": 71,
          "time": 3.1875,
          "velocity": 0.5433070866141733,
          "duration": 0.015625
        },
        {
          "name": "C#5",
          "midi": 73,
          "time": 3.2265625,
          "velocity": 0.6456692913385826,
          "duration": 0.0078125
        },
        {
          "name": "D5",
          "midi": 74,
          "time": 3.2734375,
          "velocity": 0.6929133858267716,
          "duration": 0.03125
        },
        {
          "name": "E5",
          "midi": 76,
          "time": 3.3203125,
          "velocity": 0.6929133858267716,
          "duration": 0.03125
        },
        {
          "name": "F#5",
          "midi": 78,
          "time": 3.3671875,
          "velocity": 0.7165354330708661,
          "duration": 0.1171875
        },
        {
          "name": "B5",
          "midi": 83,
          "time": 4.8671875,
          "velocity": 0.5433070866141733,
          "duration": 0.0078125
        },
        {
          "name": "C#6",
          "midi": 85,
          "time": 4.9140625,
          "velocity": 0.6141732283464567,
          "duration": 0.0078125
        },
        {
          "name": "D6",
          "midi": 86,
          "time": 4.96875,
          "velocity": 0.6299212598425197,
          "duration": 0.03125
        },
        {
          "name": "E6",
          "midi": 88,
          "time": 5.0078125,
          "velocity": 0.6456692913385826,
          "duration": 0.03125
        },
        {
          "name": "F#6",
          "midi": 90,
          "time": 5.0546875,
          "velocity": 0.6456692913385826,
          "duration": 0.1171875
        },
        {
          "name": "B4",
          "midi": 71,
          "time": 6.5546875,
          "velocity": 0.5354330708661418,
          "duration": 0.0078125
        },
        {
          "name": "C#5",
          "midi": 73,
          "time": 6.609375,
          "velocity": 0.6456692913385826,
          "duration": 0.015625
        },
        {
          "name": "D5",
          "midi": 74,
          "time": 6.65625,
          "velocity": 0.7244094488188977,
          "duration": 0.015625
        },
        {
          "name": "E5",
          "midi": 76,
          "time": 6.6953125,
          "velocity": 0.6929133858267716,
          "duration": 0.0078125
        },
        {
          "name": "F#5",
          "midi": 78,
          "time": 6.7421875,
          "velocity": 0.7086614173228346,
          "duration": 0.125
        },
        {
          "name": "B4",
          "midi": 71,
          "time": 9.9375,
          "velocity": 0.5354330708661418,
          "duration": 0.03125
        },
        {
          "name": "C#5",
          "midi": 73,
          "time": 9.984375,
          "velocity": 0.6141732283464567,
          "duration": 0.03125
        },
        {
          "name": "D5",
          "midi": 74,
          "time": 10.03125,
          "velocity": 0.7007874015748031,
          "duration": 0.03125
        },
        {
          "name": "E5",
          "midi": 76,
          "time": 10.0703125,
          "velocity": 0.6929133858267716,
          "duration": 0.0234375
        },
        {
          "name": "F#5",
          "midi": 78,
          "time": 10.1171875,
          "velocity": 0.7165354330708661,
          "duration": 0.125
        },
        {
          "name": "B5",
          "midi": 83,
          "time": 11.6171875,
          "velocity": 0.5275590551181102,
          "duration": 0.0078125
        },
        {
          "name": "C#6",
          "midi": 85,
          "time": 11.671875,
          "velocity": 0.6220472440944882,
          "duration": 0.03125
        },
        {
          "name": "D6",
          "midi": 86,
          "time": 11.71875,
          "velocity": 0.7244094488188977,
          "duration": 0.0078125
        },
        {
          "name": "E6",
          "midi": 88,
          "time": 11.7578125,
          "velocity": 0.7322834645669292,
          "duration": 0.015625
        },
        {
          "name": "F#6",
          "midi": 90,
          "time": 11.8046875,
          "velocity": 0.7007874015748031,
          "duration": 0.1484375
        },
        {
          "name": "B4",
          "midi": 71,
          "time": 13.3125,
          "velocity": 0.5511811023622047,
          "duration": 0.0078125
        },
        {
          "name": "C#5",
          "midi": 73,
          "time": 13.3515625,
          "velocity": 0.6299212598425197,
          "duration": 0.03125
        },
        {
          "name": "D5",
          "midi": 74,
          "time": 13.3984375,
          "velocity": 0.7165354330708661,
          "duration": 0.015625
        },
        {
          "name": "E5",
          "midi": 76,
          "time": 13.4453125,
          "velocity": 0.7716535433070866,
          "duration": 0.015625
        },
        {
          "name": "F#5",
          "midi": 78,
          "time": 13.4921875,
          "velocity": 0.8818897637795275,
          "duration": 0.140625
        },
        {
          "name": "F#6",
          "midi": 90,
          "time": 15.1796875,
          "velocity": 0.47244094488188976,
          "duration": 0.0546875
        },
        {
          "name": "D6",
          "midi": 86,
          "time": 15.2578125,
          "velocity": 0.4330708661417323,
          "duration": 0.0546875
        },
        {
          "name": "B5",
          "midi": 83,
          "time": 15.328125,
          "velocity": 0.4015748031496063,
          "duration": 0.046875
        },
        {
          "name": "F#5",
          "midi": 78,
          "time": 15.3984375,
          "velocity": 0.3700787401574803,
          "duration": 0.0546875
        },
        {
          "name": "D5",
          "midi": 74,
          "time": 15.484375,
          "velocity": 0.31496062992125984,
          "duration": 0.0390625
        },
        {
          "name": "B4",
          "midi": 71,
          "time": 15.5625,
          "velocity": 0.7244094488188977,
          "duration": 0.03125
        },
        {
          "name": "C#5",
          "midi": 73,
          "time": 15.6015625,
          "velocity": 0.7637795275590551,
          "duration": 0.03125
        },
        {
          "name": "D5",
          "midi": 74,
          "time": 15.65625,
          "velocity": 0.8031496062992126,
          "duration": 0.0234375
        },
        {
          "name": "E5",
          "midi": 76,
          "time": 15.6953125,
          "velocity": 0.8031496062992126,
          "duration": 0.03125
        },
        {
          "name": "B5",
          "midi": 83,
          "time": 15.75,
          "velocity": 0.6062992125984252,
          "duration": 0.0390625
        },
        {
          "name": "F#5",
          "midi": 78,
          "time": 15.75,
          "velocity": 0.9212598425196851,
          "duration": 0.1328125
        },
        {
          "name": "G5",
          "midi": 79,
          "time": 15.828125,
          "velocity": 0.6771653543307087,
          "duration": 0.046875
        },
        {
          "name": "D5",
          "midi": 74,
          "time": 15.890625,
          "velocity": 0.6220472440944882,
          "duration": 0.046875
        },
        {
          "name": "B4",
          "midi": 71,
          "time": 15.96875,
          "velocity": 0.5669291338582677,
          "duration": 0.0390625
        },
        {
          "name": "B5",
          "midi": 83,
          "time": 16.125,
          "velocity": 0.44881889763779526,
          "duration": 0.0078125
        },
        {
          "name": "C#6",
          "midi": 85,
          "time": 16.171875,
          "velocity": 0.49606299212598426,
          "duration": 0.015625
        },
        {
          "name": "D6",
          "midi": 86,
          "time": 16.21875,
          "velocity": 0.5433070866141733,
          "duration": 0.03125
        },
        {
          "name": "E6",
          "midi": 88,
          "time": 16.265625,
          "velocity": 0.5433070866141733,
          "duration": 0.0234375
        },
        {
          "name": "F#6",
          "midi": 90,
          "time": 16.3046875,
          "velocity": 0.5590551181102362,
          "duration": 0.1328125
        },
        {
          "name": "F#5",
          "midi": 78,
          "time": 16.3046875,
          "velocity": 0.9606299212598425,
          "duration": 0.0546875
        },
        {
          "name": "D5",
          "midi": 74,
          "time": 16.3828125,
          "velocity": 0.8976377952755905,
          "duration": 0.046875
        },
        {
          "name": "B4",
          "midi": 71,
          "time": 16.4375,
          "velocity": 0.7401574803149606,
          "duration": 0.03125
        },
        {
          "name": "F#6",
          "midi": 90,
          "time": 16.875,
          "velocity": 0.44881889763779526,
          "duration": 0.0546875
        },
        {
          "name": "D6",
          "midi": 86,
          "time": 16.9375,
          "velocity": 0.44881889763779526,
          "duration": 0.0390625
        },
        {
          "name": "B5",
          "midi": 83,
          "time": 17.015625,
          "velocity": 0.3858267716535433,
          "duration": 0.03125
        },
        {
          "name": "F#5",
          "midi": 78,
          "time": 17.09375,
          "velocity": 0.36220472440944884,
          "duration": 0.0625
        },
        {
          "name": "D5",
          "midi": 74,
          "time": 17.171875,
          "velocity": 0.31496062992125984,
          "duration": 0.0390625
        },
        {
          "name": "B4",
          "midi": 71,
          "time": 17.2421875,
          "velocity": 0.6850393700787402,
          "duration": 0.0234375
        },
        {
          "name": "C#5",
          "midi": 73,
          "time": 17.296875,
          "velocity": 0.7322834645669292,
          "duration": 0.0078125
        },
        {
          "name": "D5",
          "midi": 74,
          "time": 17.34375,
          "velocity": 0.7952755905511811,
          "duration": 0.015625
        },
        {
          "name": "E5",
          "midi": 76,
          "time": 17.390625,
          "velocity": 0.84251968503937,
          "duration": 0.015625
        },
        {
          "name": "B5",
          "midi": 83,
          "time": 17.4296875,
          "velocity": 0.6299212598425197,
          "duration": 0.0625
        },
        {
          "name": "F#5",
          "midi": 78,
          "time": 17.4296875,
          "velocity": 0.8267716535433071,
          "duration": 0.1328125
        },
        {
          "name": "G5",
          "midi": 79,
          "time": 17.515625,
          "velocity": 0.6456692913385826,
          "duration": 0.0390625
        },
        {
          "name": "D5",
          "midi": 74,
          "time": 17.5703125,
          "velocity": 0.6220472440944882,
          "duration": 0.0625
        },
        {
          "name": "B4",
          "midi": 71,
          "time": 17.65625,
          "velocity": 0.5511811023622047,
          "duration": 0.0546875
        },
        {
          "name": "B5",
          "midi": 83,
          "time": 17.8125,
          "velocity": 0.47244094488188976,
          "duration": 0.0234375
        },
        {
          "name": "C#6",
          "midi": 85,
          "time": 17.8515625,
          "velocity": 0.47244094488188976,
          "duration": 0.015625
        },
        {
          "name": "D6",
          "midi": 86,
          "time": 17.90625,
          "velocity": 0.5354330708661418,
          "duration": 0.0078125
        },
        {
          "name": "E6",
          "midi": 88,
          "time": 17.953125,
          "velocity": 0.5433070866141733,
          "duration": 0.0078125
        },
        {
          "name": "F#5",
          "midi": 78,
          "time": 18,
          "velocity": 1,
          "duration": 0.046875
        },
        {
          "name": "F#6",
          "midi": 90,
          "time": 18,
          "velocity": 0.6220472440944882,
          "duration": 0.1484375
        },
        {
          "name": "D5",
          "midi": 74,
          "time": 18.0625,
          "velocity": 0.8818897637795275,
          "duration": 0.0625
        },
        {
          "name": "B4",
          "midi": 71,
          "time": 18.125,
          "velocity": 0.7559055118110236,
          "duration": 0.046875
        },
        {
          "name": "F#6",
          "midi": 90,
          "time": 18.5625,
          "velocity": 0.47244094488188976,
          "duration": 0.046875
        },
        {
          "name": "D6",
          "midi": 86,
          "time": 18.6328125,
          "velocity": 0.41732283464566927,
          "duration": 0.0625
        },
        {
          "name": "B5",
          "midi": 83,
          "time": 18.703125,
          "velocity": 0.4094488188976378,
          "duration": 0.0390625
        },
        {
          "name": "F#5",
          "midi": 78,
          "time": 18.7734375,
          "velocity": 0.36220472440944884,
          "duration": 0.0625
        },
        {
          "name": "D5",
          "midi": 74,
          "time": 18.8515625,
          "velocity": 0.3228346456692913,
          "duration": 0.0546875
        },
        {
          "name": "B4",
          "midi": 71,
          "time": 18.9375,
          "velocity": 0.7086614173228346,
          "duration": 0.03125
        },
        {
          "name": "C#5",
          "midi": 73,
          "time": 18.9765625,
          "velocity": 0.7322834645669292,
          "duration": 0.03125
        },
        {
          "name": "D5",
          "midi": 74,
          "time": 19.0234375,
          "velocity": 0.7637795275590551,
          "duration": 0.0078125
        },
        {
          "name": "E5",
          "midi": 76,
          "time": 19.0703125,
          "velocity": 0.8346456692913385,
          "duration": 0.0078125
        },
        {
          "name": "B5",
          "midi": 83,
          "time": 19.1171875,
          "velocity": 0.6377952755905512,
          "duration": 0.046875
        },
        {
          "name": "F#5",
          "midi": 78,
          "time": 19.125,
          "velocity": 0.889763779527559,
          "duration": 0.1328125
        },
        {
          "name": "G5",
          "midi": 79,
          "time": 19.203125,
          "velocity": 0.6692913385826772,
          "duration": 0.0546875
        },
        {
          "name": "D5",
          "midi": 74,
          "time": 19.2734375,
          "velocity": 0.6220472440944882,
          "duration": 0.046875
        },
        {
          "name": "B4",
          "midi": 71,
          "time": 19.34375,
          "velocity": 0.5511811023622047,
          "duration": 0.0390625
        },
        {
          "name": "B5",
          "midi": 83,
          "time": 19.4921875,
          "velocity": 0.4645669291338583,
          "duration": 0.015625
        },
        {
          "name": "C#6",
          "midi": 85,
          "time": 19.546875,
          "velocity": 0.4881889763779528,
          "duration": 0.015625
        },
        {
          "name": "D6",
          "midi": 86,
          "time": 19.59375,
          "velocity": 0.5039370078740157,
          "duration": 0.015625
        },
        {
          "name": "E6",
          "midi": 88,
          "time": 19.6328125,
          "velocity": 0.5433070866141733,
          "duration": 0.0234375
        },
        {
          "name": "F#6",
          "midi": 90,
          "time": 19.6875,
          "velocity": 0.6299212598425197,
          "duration": 0.1328125
        },
        {
          "name": "F#5",
          "midi": 78,
          "time": 19.6875,
          "velocity": 1,
          "duration": 0.0625
        },
        {
          "name": "D5",
          "midi": 74,
          "time": 19.75,
          "velocity": 0.905511811023622,
          "duration": 0.046875
        },
        {
          "name": "B4",
          "midi": 71,
          "time": 19.8203125,
          "velocity": 0.7244094488188977,
          "duration": 0.0390625
        },
        {
          "name": "F#6",
          "midi": 90,
          "time": 20.25,
          "velocity": 0.48031496062992124,
          "duration": 0.046875
        },
        {
          "name": "D6",
          "midi": 86,
          "time": 20.3125,
          "velocity": 0.4330708661417323,
          "duration": 0.0390625
        },
        {
          "name": "B5",
          "midi": 83,
          "time": 20.3984375,
          "velocity": 0.3700787401574803,
          "duration": 0.0390625
        },
        {
          "name": "F#5",
          "midi": 78,
          "time": 20.4609375,
          "velocity": 0.33070866141732286,
          "duration": 0.046875
        },
        {
          "name": "D5",
          "midi": 74,
          "time": 20.5390625,
          "velocity": 0.3228346456692913,
          "duration": 0.0625
        },
        {
          "name": "B4",
          "midi": 71,
          "time": 20.6171875,
          "velocity": 0.6929133858267716,
          "duration": 0.0078125
        },
        {
          "name": "C#5",
          "midi": 73,
          "time": 20.671875,
          "velocity": 0.7637795275590551,
          "duration": 0.0078125
        },
        {
          "name": "D5",
          "midi": 74,
          "time": 20.71875,
          "velocity": 0.8031496062992126,
          "duration": 0.03125
        },
        {
          "name": "E5",
          "midi": 76,
          "time": 20.765625,
          "velocity": 0.84251968503937,
          "duration": 0.0234375
        },
        {
          "name": "F#5",
          "midi": 78,
          "time": 20.8125,
          "velocity": 0.8818897637795275,
          "duration": 0.125
        },
        {
          "name": "B5",
          "midi": 83,
          "time": 20.8125,
          "velocity": 0.6850393700787402,
          "duration": 0.0625
        },
        {
          "name": "G5",
          "midi": 79,
          "time": 20.8828125,
          "velocity": 0.6692913385826772,
          "duration": 0.0546875
        },
        {
          "name": "D5",
          "midi": 74,
          "time": 20.953125,
          "velocity": 0.5984251968503937,
          "duration": 0.0703125
        },
        {
          "name": "B4",
          "midi": 71,
          "time": 21.03125,
          "velocity": 0.5354330708661418,
          "duration": 0.03125
        },
        {
          "name": "B5",
          "midi": 83,
          "time": 21.1875,
          "velocity": 0.4566929133858268,
          "duration": 0.0078125
        },
        {
          "name": "C#6",
          "midi": 85,
          "time": 21.2265625,
          "velocity": 0.4881889763779528,
          "duration": 0.0078125
        },
        {
          "name": "D6",
          "midi": 86,
          "time": 21.2734375,
          "velocity": 0.5118110236220472,
          "duration": 0.03125
        },
        {
          "name": "E6",
          "midi": 88,
          "time": 21.328125,
          "velocity": 0.5590551181102362,
          "duration": 0.0390625
        },
        {
          "name": "F#5",
          "midi": 78,
          "time": 21.3671875,
          "velocity": 0.9606299212598425,
          "duration": 0.0390625
        },
        {
          "name": "F#6",
          "midi": 90,
          "time": 21.3671875,
          "velocity": 0.5354330708661418,
          "duration": 0.1328125
        },
        {
          "name": "D5",
          "midi": 74,
          "time": 21.4375,
          "velocity": 0.905511811023622,
          "duration": 0.0390625
        },
        {
          "name": "B4",
          "midi": 71,
          "time": 21.5078125,
          "velocity": 0.7480314960629921,
          "duration": 0.0390625
        },
        {
          "name": "F#6",
          "midi": 90,
          "time": 21.9296875,
          "velocity": 0.4645669291338583,
          "duration": 0.0546875
        },
        {
          "name": "D6",
          "midi": 86,
          "time": 22.0078125,
          "velocity": 0.4094488188976378,
          "duration": 0.0390625
        },
        {
          "name": "B5",
          "midi": 83,
          "time": 22.0859375,
          "velocity": 0.4015748031496063,
          "duration": 0.046875
        },
        {
          "name": "F#5",
          "midi": 78,
          "time": 22.15625,
          "velocity": 0.33858267716535434,
          "duration": 0.0625
        },
        {
          "name": "D5",
          "midi": 74,
          "time": 22.2265625,
          "velocity": 0.29133858267716534,
          "duration": 0.0546875
        },
        {
          "name": "B4",
          "midi": 71,
          "time": 22.3125,
          "velocity": 0.6850393700787402,
          "duration": 0.015625
        },
        {
          "name": "C#5",
          "midi": 73,
          "time": 22.359375,
          "velocity": 0.7559055118110236,
          "duration": 0.03125
        },
        {
          "name": "D5",
          "midi": 74,
          "time": 22.40625,
          "velocity": 0.7952755905511811,
          "duration": 0.015625
        },
        {
          "name": "E5",
          "midi": 76,
          "time": 22.453125,
          "velocity": 0.8267716535433071,
          "duration": 0.0234375
        },
        {
          "name": "B5",
          "midi": 83,
          "time": 22.4921875,
          "velocity": 0.6456692913385826,
          "duration": 0.0546875
        },
        {
          "name": "F#5",
          "midi": 78,
          "time": 22.4921875,
          "velocity": 0.8346456692913385,
          "duration": 0.125
        },
        {
          "name": "G5",
          "midi": 79,
          "time": 22.5703125,
          "velocity": 0.6692913385826772,
          "duration": 0.03125
        },
        {
          "name": "D5",
          "midi": 74,
          "time": 22.6484375,
          "velocity": 0.5905511811023622,
          "duration": 0.0546875
        },
        {
          "name": "B4",
          "midi": 71,
          "time": 22.71875,
          "velocity": 0.5748031496062992,
          "duration": 0.0546875
        },
        {
          "name": "B5",
          "midi": 83,
          "time": 22.875,
          "velocity": 0.4409448818897638,
          "duration": 0.015625
        },
        {
          "name": "C#6",
          "midi": 85,
          "time": 22.9140625,
          "velocity": 0.47244094488188976,
          "duration": 0.0078125
        },
        {
          "name": "D6",
          "midi": 86,
          "time": 22.9609375,
          "velocity": 0.5354330708661418,
          "duration": 0.03125
        },
        {
          "name": "E6",
          "midi": 88,
          "time": 23.015625,
          "velocity": 0.5590551181102362,
          "duration": 0.0078125
        },
        {
          "name": "F#5",
          "midi": 78,
          "time": 23.0546875,
          "velocity": 0.9606299212598425,
          "duration": 0.0390625
        },
        {
          "name": "F#6",
          "midi": 90,
          "time": 23.0625,
          "velocity": 0.6456692913385826,
          "duration": 0.15625
        },
        {
          "name": "D5",
          "midi": 74,
          "time": 23.125,
          "velocity": 0.889763779527559,
          "duration": 0.0625
        },
        {
          "name": "B4",
          "midi": 71,
          "time": 23.1875,
          "velocity": 0.7637795275590551,
          "duration": 0.046875
        },
        {
          "name": "F#6",
          "midi": 90,
          "time": 23.625,
          "velocity": 0.48031496062992124,
          "duration": 0.0390625
        },
        {
          "name": "D6",
          "midi": 86,
          "time": 23.6953125,
          "velocity": 0.4094488188976378,
          "duration": 0.046875
        },
        {
          "name": "B5",
          "midi": 83,
          "time": 23.7734375,
          "velocity": 0.4094488188976378,
          "duration": 0.046875
        },
        {
          "name": "F#5",
          "midi": 78,
          "time": 23.84375,
          "velocity": 0.33858267716535434,
          "duration": 0.0625
        },
        {
          "name": "D5",
          "midi": 74,
          "time": 23.921875,
          "velocity": 0.29133858267716534,
          "duration": 0.0625
        },
        {
          "name": "B4",
          "midi": 71,
          "time": 24,
          "velocity": 0.7007874015748031,
          "duration": 0.015625
        },
        {
          "name": "C#5",
          "midi": 73,
          "time": 24.0390625,
          "velocity": 0.7401574803149606,
          "duration": 0.015625
        },
        {
          "name": "D5",
          "midi": 74,
          "time": 24.0859375,
          "velocity": 0.7716535433070866,
          "duration": 0.0078125
        },
        {
          "name": "E5",
          "midi": 76,
          "time": 24.140625,
          "velocity": 0.84251968503937,
          "duration": 0.0078125
        },
        {
          "name": "B5",
          "midi": 83,
          "time": 24.1875,
          "velocity": 0.6850393700787402,
          "duration": 0.0546875
        },
        {
          "name": "F#5",
          "midi": 78,
          "time": 24.1875,
          "velocity": 0.8976377952755905,
          "duration": 0.1171875
        },
        {
          "name": "G5",
          "midi": 79,
          "time": 24.2578125,
          "velocity": 0.6456692913385826,
          "duration": 0.046875
        },
        {
          "name": "D5",
          "midi": 74,
          "time": 24.328125,
          "velocity": 0.6141732283464567,
          "duration": 0.0625
        },
        {
          "name": "B4",
          "midi": 71,
          "time": 24.4140625,
          "velocity": 0.5669291338582677,
          "duration": 0.0390625
        },
        {
          "name": "B5",
          "midi": 83,
          "time": 24.5546875,
          "velocity": 0.47244094488188976,
          "duration": 0.0078125
        },
        {
          "name": "C#6",
          "midi": 85,
          "time": 24.6015625,
          "velocity": 0.4881889763779528,
          "duration": 0.015625
        },
        {
          "name": "D6",
          "midi": 86,
          "time": 24.6484375,
          "velocity": 0.5275590551181102,
          "duration": 0.015625
        },
        {
          "name": "E6",
          "midi": 88,
          "time": 24.703125,
          "velocity": 0.5511811023622047,
          "duration": 0.0078125
        },
        {
          "name": "F#6",
          "midi": 90,
          "time": 24.75,
          "velocity": 0.6141732283464567,
          "duration": 0.1484375
        },
        {
          "name": "F#5",
          "midi": 78,
          "time": 24.75,
          "velocity": 1,
          "duration": 0.046875
        },
        {
          "name": "D5",
          "midi": 74,
          "time": 24.8203125,
          "velocity": 0.9133858267716536,
          "duration": 0.0390625
        },
        {
          "name": "B4",
          "midi": 71,
          "time": 24.8828125,
          "velocity": 0.7559055118110236,
          "duration": 0.0546875
        },
        {
          "name": "A6",
          "midi": 93,
          "time": 25.3125,
          "velocity": 0.4566929133858268,
          "duration": 0.0546875
        },
        {
          "name": "G6",
          "midi": 91,
          "time": 25.3828125,
          "velocity": 0.4251968503937008,
          "duration": 0.0546875
        },
        {
          "name": "F#6",
          "midi": 90,
          "time": 25.4609375,
          "velocity": 0.3700787401574803,
          "duration": 0.0390625
        },
        {
          "name": "C#6",
          "midi": 85,
          "time": 25.5234375,
          "velocity": 0.33858267716535434,
          "duration": 0.0546875
        },
        {
          "name": "G5",
          "midi": 79,
          "time": 25.609375,
          "velocity": 0.29133858267716534,
          "duration": 0.0625
        },
        {
          "name": "D5",
          "midi": 74,
          "time": 25.6796875,
          "velocity": 0.7086614173228346,
          "duration": 0.03125
        },
        {
          "name": "C#5",
          "midi": 73,
          "time": 25.7421875,
          "velocity": 0.7559055118110236,
          "duration": 0.0390625
        },
        {
          "name": "B4",
          "midi": 71,
          "time": 25.8046875,
          "velocity": 0.7874015748031497,
          "duration": 0.0390625
        },
        {
          "name": "A4",
          "midi": 69,
          "time": 25.875,
          "velocity": 0.8818897637795275,
          "duration": 0.1171875
        },
        {
          "name": "D6",
          "midi": 86,
          "time": 25.875,
          "velocity": 0.7086614173228346,
          "duration": 0.0546875
        },
        {
          "name": "A5",
          "midi": 81,
          "time": 25.953125,
          "velocity": 0.6456692913385826,
          "duration": 0.0546875
        },
        {
          "name": "G5",
          "midi": 79,
          "time": 26.015625,
          "velocity": 0.6062992125984252,
          "duration": 0.046875
        },
        {
          "name": "D5",
          "midi": 74,
          "time": 26.09375,
          "velocity": 0.5748031496062992,
          "duration": 0.0390625
        },
        {
          "name": "A4",
          "midi": 69,
          "time": 26.1640625,
          "velocity": 0.5039370078740157,
          "duration": 0.0390625
        },
        {
          "name": "D6",
          "midi": 86,
          "time": 26.2421875,
          "velocity": 0.44881889763779526,
          "duration": 0.046875
        },
        {
          "name": "C#6",
          "midi": 85,
          "time": 26.3125,
          "velocity": 0.5039370078740157,
          "duration": 0.03125
        },
        {
          "name": "B5",
          "midi": 83,
          "time": 26.375,
          "velocity": 0.49606299212598426,
          "duration": 0.046875
        },
        {
          "name": "A5",
          "midi": 81,
          "time": 26.4296875,
          "velocity": 0.937007874015748,
          "duration": 0.046875
        },
        {
          "name": "E5",
          "midi": 76,
          "time": 26.4921875,
          "velocity": 0.889763779527559,
          "duration": 0.0546875
        },
        {
          "name": "C#5",
          "midi": 73,
          "time": 26.5546875,
          "velocity": 0.7401574803149606,
          "duration": 0.0625
        },
        {
          "name": "A4",
          "midi": 69,
          "time": 26.6171875,
          "velocity": 0.6850393700787402,
          "duration": 0.046875
        },
        {
          "name": "A4",
          "midi": 69,
          "time": 26.8125,
          "velocity": 0.7637795275590551,
          "duration": 0.0078125
        },
        {
          "name": "A6",
          "midi": 93,
          "time": 27,
          "velocity": 0.44881889763779526,
          "duration": 0.0390625
        },
        {
          "name": "G6",
          "midi": 91,
          "time": 27.0625,
          "velocity": 0.4330708661417323,
          "duration": 0.0625
        },
        {
          "name": "F#6",
          "midi": 90,
          "time": 27.1484375,
          "velocity": 0.4015748031496063,
          "duration": 0.046875
        },
        {
          "name": "C#6",
          "midi": 85,
          "time": 27.2109375,
          "velocity": 0.3543307086614173,
          "duration": 0.0390625
        },
        {
          "name": "G5",
          "midi": 79,
          "time": 27.2890625,
          "velocity": 0.2992125984251969,
          "duration": 0.0546875
        },
        {
          "name": "D5",
          "midi": 74,
          "time": 27.375,
          "velocity": 0.7086614173228346,
          "duration": 0.0234375
        },
        {
          "name": "E5",
          "midi": 76,
          "time": 27.421875,
          "velocity": 0.7637795275590551,
          "duration": 0.0234375
        },
        {
          "name": "F#5",
          "midi": 78,
          "time": 27.46875,
          "velocity": 0.7244094488188977,
          "duration": 0.0234375
        },
        {
          "name": "G5",
          "midi": 79,
          "time": 27.5078125,
          "velocity": 0.7716535433070866,
          "duration": 0.03125
        },
        {
          "name": "D6",
          "midi": 86,
          "time": 27.5546875,
          "velocity": 0.6299212598425197,
          "duration": 0.0390625
        },
        {
          "name": "A5",
          "midi": 81,
          "time": 27.5625,
          "velocity": 0.889763779527559,
          "duration": 0.1171875
        },
        {
          "name": "G5",
          "midi": 79,
          "time": 27.703125,
          "velocity": 0.6141732283464567,
          "duration": 0.0625
        },
        {
          "name": "D5",
          "midi": 74,
          "time": 27.7890625,
          "velocity": 0.5511811023622047,
          "duration": 0.03125
        },
        {
          "name": "D6",
          "midi": 86,
          "time": 27.9296875,
          "velocity": 0.49606299212598426,
          "duration": 0.015625
        },
        {
          "name": "E6",
          "midi": 88,
          "time": 27.9765625,
          "velocity": 0.5511811023622047,
          "duration": 0.0234375
        },
        {
          "name": "F#6",
          "midi": 90,
          "time": 28.0234375,
          "velocity": 0.5669291338582677,
          "duration": 0.03125
        },
        {
          "name": "G6",
          "midi": 91,
          "time": 28.0703125,
          "velocity": 0.6062992125984252,
          "duration": 0.0390625
        },
        {
          "name": "A6",
          "midi": 93,
          "time": 28.125,
          "velocity": 0.7165354330708661,
          "duration": 0.1328125
        },
        {
          "name": "A5",
          "midi": 81,
          "time": 28.125,
          "velocity": 1,
          "duration": 0.0546875
        },
        {
          "name": "F#5",
          "midi": 78,
          "time": 28.1953125,
          "velocity": 0.9133858267716536,
          "duration": 0.0546875
        },
        {
          "name": "D5",
          "midi": 74,
          "time": 28.2734375,
          "velocity": 0.7480314960629921,
          "duration": 0.046875
        },
        {
          "name": "A6",
          "midi": 93,
          "time": 28.6875,
          "velocity": 0.4881889763779528,
          "duration": 0.046875
        },
        {
          "name": "G6",
          "midi": 91,
          "time": 28.7578125,
          "velocity": 0.4094488188976378,
          "duration": 0.0546875
        },
        {
          "name": "F#6",
          "midi": 90,
          "time": 28.828125,
          "velocity": 0.4094488188976378,
          "duration": 0.03125
        },
        {
          "name": "C#6",
          "midi": 85,
          "time": 28.8984375,
          "velocity": 0.3543307086614173,
          "duration": 0.0546875
        },
        {
          "name": "G5",
          "midi": 79,
          "time": 28.984375,
          "velocity": 0.33070866141732286,
          "duration": 0.0390625
        },
        {
          "name": "D5",
          "midi": 74,
          "time": 29.0625,
          "velocity": 0.4330708661417323,
          "duration": 0.15625
        },
        {
          "name": "E5",
          "midi": 76,
          "time": 29.109375,
          "velocity": 0.7401574803149606,
          "duration": 0.0234375
        },
        {
          "name": "F#5",
          "midi": 78,
          "time": 29.1484375,
          "velocity": 0.7322834645669292,
          "duration": 0.015625
        },
        {
          "name": "G5",
          "midi": 79,
          "time": 29.203125,
          "velocity": 0.8031496062992126,
          "duration": 0.0390625
        },
        {
          "name": "D6",
          "midi": 86,
          "time": 29.25,
          "velocity": 0.7165354330708661,
          "duration": 0.046875
        },
        {
          "name": "A5",
          "midi": 81,
          "time": 29.25,
          "velocity": 0.905511811023622,
          "duration": 0.140625
        },
        {
          "name": "G5",
          "midi": 79,
          "time": 29.390625,
          "velocity": 0.6062992125984252,
          "duration": 0.0546875
        },
        {
          "name": "D5",
          "midi": 74,
          "time": 29.46875,
          "velocity": 0.5354330708661418,
          "duration": 0.0546875
        },
        {
          "name": "D6",
          "midi": 86,
          "time": 29.625,
          "velocity": 0.5118110236220472,
          "duration": 0.0390625
        },
        {
          "name": "E6",
          "midi": 88,
          "time": 29.671875,
          "velocity": 0.5433070866141733,
          "duration": 0.015625
        },
        {
          "name": "F#6",
          "midi": 90,
          "time": 29.71875,
          "velocity": 0.5590551181102362,
          "duration": 0.03125
        },
        {
          "name": "G6",
          "midi": 91,
          "time": 29.765625,
          "velocity": 0.6062992125984252,
          "duration": 0.0234375
        },
        {
          "name": "A6",
          "midi": 93,
          "time": 29.8046875,
          "velocity": 0.6220472440944882,
          "duration": 0.15625
        },
        {
          "name": "A5",
          "midi": 81,
          "time": 29.8125,
          "velocity": 0.7244094488188977,
          "duration": 0.1484375
        },
        {
          "name": "F#5",
          "midi": 78,
          "time": 29.8828125,
          "velocity": 0.8976377952755905,
          "duration": 0.0625
        },
        {
          "name": "D5",
          "midi": 74,
          "time": 29.9609375,
          "velocity": 0.7559055118110236,
          "duration": 0.0390625
        },
        {
          "name": "A6",
          "midi": 93,
          "time": 30.375,
          "velocity": 0.4566929133858268,
          "duration": 0.0390625
        },
        {
          "name": "G6",
          "midi": 91,
          "time": 30.4453125,
          "velocity": 0.44881889763779526,
          "duration": 0.0390625
        },
        {
          "name": "F#6",
          "midi": 90,
          "time": 30.5234375,
          "velocity": 0.3700787401574803,
          "duration": 0.046875
        },
        {
          "name": "C#6",
          "midi": 85,
          "time": 30.59375,
          "velocity": 0.3464566929133858,
          "duration": 0.0625
        },
        {
          "name": "G5",
          "midi": 79,
          "time": 30.671875,
          "velocity": 0.3228346456692913,
          "duration": 0.0625
        },
        {
          "name": "D5",
          "midi": 74,
          "time": 30.75,
          "velocity": 0.41732283464566927,
          "duration": 0.15625
        },
        {
          "name": "E5",
          "midi": 76,
          "time": 30.796875,
          "velocity": 0.7480314960629921,
          "duration": 0.015625
        },
        {
          "name": "F#5",
          "midi": 78,
          "time": 30.8359375,
          "velocity": 0.7637795275590551,
          "duration": 0.015625
        },
        {
          "name": "G5",
          "midi": 79,
          "time": 30.8828125,
          "velocity": 0.7952755905511811,
          "duration": 0.03125
        },
        {
          "name": "D6",
          "midi": 86,
          "time": 30.9296875,
          "velocity": 0.6220472440944882,
          "duration": 0.0625
        },
        {
          "name": "A5",
          "midi": 81,
          "time": 31.015625,
          "velocity": 0.6692913385826772,
          "duration": 0.0390625
        },
        {
          "name": "G5",
          "midi": 79,
          "time": 31.078125,
          "velocity": 0.6141732283464567,
          "duration": 0.0390625
        },
        {
          "name": "D5",
          "midi": 74,
          "time": 31.1640625,
          "velocity": 0.5590551181102362,
          "duration": 0.0546875
        },
        {
          "name": "D5",
          "midi": 74,
          "time": 31.3046875,
          "velocity": 0.5196850393700787,
          "duration": 0.0078125
        },
        {
          "name": "D6",
          "midi": 86,
          "time": 31.3125,
          "velocity": 0.5039370078740157,
          "duration": 0.03125
        },
        {
          "name": "E5",
          "midi": 76,
          "time": 31.3515625,
          "velocity": 0.5196850393700787,
          "duration": 0.0390625
        },
        {
          "name": "E6",
          "midi": 88,
          "time": 31.3515625,
          "velocity": 0.5433070866141733,
          "duration": 0.0234375
        },
        {
          "name": "F#5",
          "midi": 78,
          "time": 31.40625,
          "velocity": 0.5669291338582677,
          "duration": 0.0078125
        },
        {
          "name": "F#6",
          "midi": 90,
          "time": 31.40625,
          "velocity": 0.5590551181102362,
          "duration": 0.015625
        },
        {
          "name": "G6",
          "midi": 91,
          "time": 31.453125,
          "velocity": 0.5984251968503937,
          "duration": 0.03125
        },
        {
          "name": "G5",
          "midi": 79,
          "time": 31.453125,
          "velocity": 0.5826771653543307,
          "duration": 0.0390625
        },
        {
          "name": "A6",
          "midi": 93,
          "time": 31.4921875,
          "velocity": 0.6456692913385826,
          "duration": 0.1484375
        },
        {
          "name": "A5",
          "midi": 81,
          "time": 31.5,
          "velocity": 0.7165354330708661,
          "duration": 0.140625
        },
        {
          "name": "F#5",
          "midi": 78,
          "time": 31.578125,
          "velocity": 0.9133858267716536,
          "duration": 0.0546875
        },
        {
          "name": "D5",
          "midi": 74,
          "time": 31.640625,
          "velocity": 0.7559055118110236,
          "duration": 0.0546875
        },
        {
          "name": "A6",
          "midi": 93,
          "time": 32.0546875,
          "velocity": 0.44881889763779526,
          "duration": 0.03125
        },
        {
          "name": "G6",
          "midi": 91,
          "time": 32.125,
          "velocity": 0.4094488188976378,
          "duration": 0.0546875
        },
        {
          "name": "F#6",
          "midi": 90,
          "time": 32.203125,
          "velocity": 0.3779527559055118,
          "duration": 0.0390625
        },
        {
          "name": "C#6",
          "midi": 85,
          "time": 32.28125,
          "velocity": 0.33858267716535434,
          "duration": 0.0546875
        },
        {
          "name": "G5",
          "midi": 79,
          "time": 32.3515625,
          "velocity": 0.29133858267716534,
          "duration": 0.046875
        },
        {
          "name": "D5",
          "midi": 74,
          "time": 32.4296875,
          "velocity": 0.41732283464566927,
          "duration": 0.15625
        },
        {
          "name": "E5",
          "midi": 76,
          "time": 32.4765625,
          "velocity": 0.7401574803149606,
          "duration": 0.0078125
        },
        {
          "name": "F#5",
          "midi": 78,
          "time": 32.5234375,
          "velocity": 0.7637795275590551,
          "duration": 0.03125
        },
        {
          "name": "G5",
          "midi": 79,
          "time": 32.5703125,
          "velocity": 0.7874015748031497,
          "duration": 0.0078125
        },
        {
          "name": "A5",
          "midi": 81,
          "time": 32.6171875,
          "velocity": 0.8188976377952756,
          "duration": 0.140625
        },
        {
          "name": "D6",
          "midi": 86,
          "time": 32.6171875,
          "velocity": 0.6220472440944882,
          "duration": 0.0625
        },
        {
          "name": "G5",
          "midi": 79,
          "time": 32.7734375,
          "velocity": 0.5905511811023622,
          "duration": 0.046875
        },
        {
          "name": "D5",
          "midi": 74,
          "time": 32.8515625,
          "velocity": 0.5590551181102362,
          "duration": 0.0546875
        },
        {
          "name": "D5",
          "midi": 74,
          "time": 32.9921875,
          "velocity": 0.5118110236220472,
          "duration": 0.015625
        },
        {
          "name": "D6",
          "midi": 86,
          "time": 32.9921875,
          "velocity": 0.49606299212598426,
          "duration": 0.03125
        },
        {
          "name": "E5",
          "midi": 76,
          "time": 33.0390625,
          "velocity": 0.5118110236220472,
          "duration": 0.0234375
        },
        {
          "name": "E6",
          "midi": 88,
          "time": 33.046875,
          "velocity": 0.5433070866141733,
          "duration": 0.03125
        },
        {
          "name": "F#6",
          "midi": 90,
          "time": 33.0859375,
          "velocity": 0.5826771653543307,
          "duration": 0.0078125
        },
        {
          "name": "F#5",
          "midi": 78,
          "time": 33.09375,
          "velocity": 0.5433070866141733,
          "duration": 0.0234375
        },
        {
          "name": "G5",
          "midi": 79,
          "time": 33.1328125,
          "velocity": 0.6141732283464567,
          "duration": 0.015625
        },
        {
          "name": "G6",
          "midi": 91,
          "time": 33.140625,
          "velocity": 0.5905511811023622,
          "duration": 0.03125
        },
        {
          "name": "A6",
          "midi": 93,
          "time": 33.1796875,
          "velocity": 0.6220472440944882,
          "duration": 0.1484375
        },
        {
          "name": "A5",
          "midi": 81,
          "time": 33.1875,
          "velocity": 0.7244094488188977,
          "duration": 0.1484375
        },
        {
          "name": "F#5",
          "midi": 78,
          "time": 33.265625,
          "velocity": 0.9212598425196851,
          "duration": 0.0546875
        },
        {
          "name": "D5",
          "midi": 74,
          "time": 33.328125,
          "velocity": 0.7637795275590551,
          "duration": 0.0546875
        },
        {
          "name": "A6",
          "midi": 93,
          "time": 33.7421875,
          "velocity": 0.4566929133858268,
          "duration": 0.046875
        },
        {
          "name": "G6",
          "midi": 91,
          "time": 33.8125,
          "velocity": 0.4094488188976378,
          "duration": 0.046875
        },
        {
          "name": "F#6",
          "midi": 90,
          "time": 33.890625,
          "velocity": 0.3779527559055118,
          "duration": 0.03125
        },
        {
          "name": "C#6",
          "midi": 85,
          "time": 33.9609375,
          "velocity": 0.36220472440944884,
          "duration": 0.046875
        },
        {
          "name": "G5",
          "midi": 79,
          "time": 34.046875,
          "velocity": 0.31496062992125984,
          "duration": 0.0546875
        },
        {
          "name": "D5",
          "midi": 74,
          "time": 34.1171875,
          "velocity": 0.4094488188976378,
          "duration": 0.1484375
        },
        {
          "name": "E5",
          "midi": 76,
          "time": 34.171875,
          "velocity": 0.7637795275590551,
          "duration": 0.015625
        },
        {
          "name": "F#5",
          "midi": 78,
          "time": 34.21875,
          "velocity": 0.7244094488188977,
          "duration": 0.0078125
        },
        {
          "name": "G5",
          "midi": 79,
          "time": 34.265625,
          "velocity": 0.7952755905511811,
          "duration": 0.03125
        },
        {
          "name": "A5",
          "midi": 81,
          "time": 34.3125,
          "velocity": 0.8976377952755905,
          "duration": 0.140625
        },
        {
          "name": "D6",
          "midi": 86,
          "time": 34.3125,
          "velocity": 0.7244094488188977,
          "duration": 0.0625
        },
        {
          "name": "G5",
          "midi": 79,
          "time": 34.4609375,
          "velocity": 0.6220472440944882,
          "duration": 0.0546875
        },
        {
          "name": "D5",
          "midi": 74,
          "time": 34.53125,
          "velocity": 0.5748031496062992,
          "duration": 0.0390625
        },
        {
          "name": "D6",
          "midi": 86,
          "time": 34.6796875,
          "velocity": 0.4881889763779528,
          "duration": 0.0078125
        },
        {
          "name": "D5",
          "midi": 74,
          "time": 34.6875,
          "velocity": 0.5196850393700787,
          "duration": 0.03125
        },
        {
          "name": "E6",
          "midi": 88,
          "time": 34.734375,
          "velocity": 0.5354330708661418,
          "duration": 0.03125
        },
        {
          "name": "E5",
          "midi": 76,
          "time": 34.734375,
          "velocity": 0.5118110236220472,
          "duration": 0.015625
        },
        {
          "name": "F#5",
          "midi": 78,
          "time": 34.7734375,
          "velocity": 0.5748031496062992,
          "duration": 0.015625
        },
        {
          "name": "F#6",
          "midi": 90,
          "time": 34.7734375,
          "velocity": 0.5669291338582677,
          "duration": 0.0078125
        },
        {
          "name": "G5",
          "midi": 79,
          "time": 34.8203125,
          "velocity": 0.6062992125984252,
          "duration": 0.015625
        },
        {
          "name": "G6",
          "midi": 91,
          "time": 34.828125,
          "velocity": 0.6141732283464567,
          "duration": 0.0078125
        },
        {
          "name": "A6",
          "midi": 93,
          "time": 34.8671875,
          "velocity": 0.6377952755905512,
          "duration": 0.1484375
        },
        {
          "name": "A5",
          "midi": 81,
          "time": 34.875,
          "velocity": 0.7086614173228346,
          "duration": 0.140625
        },
        {
          "name": "F#5",
          "midi": 78,
          "time": 34.953125,
          "velocity": 0.8976377952755905,
          "duration": 0.0625
        },
        {
          "name": "D5",
          "midi": 74,
          "time": 35.015625,
          "velocity": 0.7480314960629921,
          "duration": 0.0390625
        },
        {
          "name": "A6",
          "midi": 93,
          "time": 35.4375,
          "velocity": 0.4566929133858268,
          "duration": 0.0390625
        },
        {
          "name": "G6",
          "midi": 91,
          "time": 35.5,
          "velocity": 0.44881889763779526,
          "duration": 0.0390625
        },
        {
          "name": "F#6",
          "midi": 90,
          "time": 35.5859375,
          "velocity": 0.3700787401574803,
          "duration": 0.046875
        },
        {
          "name": "C#6",
          "midi": 85,
          "time": 35.6484375,
          "velocity": 0.33070866141732286,
          "duration": 0.0390625
        },
        {
          "name": "G5",
          "midi": 79,
          "time": 35.734375,
          "velocity": 0.31496062992125984,
          "duration": 0.0625
        },
        {
          "name": "D5",
          "midi": 74,
          "time": 35.8125,
          "velocity": 0.4094488188976378,
          "duration": 0.171875
        },
        {
          "name": "E5",
          "midi": 76,
          "time": 35.8515625,
          "velocity": 0.7322834645669292,
          "duration": 0.0078125
        },
        {
          "name": "F#5",
          "midi": 78,
          "time": 35.8984375,
          "velocity": 0.7637795275590551,
          "duration": 0.03125
        },
        {
          "name": "G5",
          "midi": 79,
          "time": 35.9453125,
          "velocity": 0.7874015748031497,
          "duration": 0.0234375
        },
        {
          "name": "D6",
          "midi": 86,
          "time": 35.9921875,
          "velocity": 0.6220472440944882,
          "duration": 0.0625
        },
        {
          "name": "A5",
          "midi": 81,
          "time": 36,
          "velocity": 0.9212598425196851,
          "duration": 0.1328125
        },
        {
          "name": "G5",
          "midi": 79,
          "time": 36.140625,
          "velocity": 0.6299212598425197,
          "duration": 0.0625
        },
        {
          "name": "D5",
          "midi": 74,
          "time": 36.21875,
          "velocity": 0.5433070866141733,
          "duration": 0.046875
        },
        {
          "name": "D5",
          "midi": 74,
          "time": 36.3671875,
          "velocity": 0.48031496062992124,
          "duration": 0.0078125
        },
        {
          "name": "D6",
          "midi": 86,
          "time": 36.375,
          "velocity": 0.4881889763779528,
          "duration": 0.0078125
        },
        {
          "name": "E5",
          "midi": 76,
          "time": 36.4140625,
          "velocity": 0.5433070866141733,
          "duration": 0.03125
        },
        {
          "name": "E6",
          "midi": 88,
          "time": 36.421875,
          "velocity": 0.5118110236220472,
          "duration": 0.015625
        },
        {
          "name": "F#5",
          "midi": 78,
          "time": 36.46875,
          "velocity": 0.5590551181102362,
          "duration": 0.015625
        },
        {
          "name": "F#6",
          "midi": 90,
          "time": 36.46875,
          "velocity": 0.5669291338582677,
          "duration": 0.03125
        },
        {
          "name": "G6",
          "midi": 91,
          "time": 36.515625,
          "velocity": 0.6141732283464567,
          "duration": 0.015625
        },
        {
          "name": "G5",
          "midi": 79,
          "time": 36.515625,
          "velocity": 0.5905511811023622,
          "duration": 0.015625
        },
        {
          "name": "A5",
          "midi": 81,
          "time": 36.5546875,
          "velocity": 0.6377952755905512,
          "duration": 0.1484375
        },
        {
          "name": "A6",
          "midi": 93,
          "time": 36.5625,
          "velocity": 0.7165354330708661,
          "duration": 0.15625
        },
        {
          "name": "F#5",
          "midi": 78,
          "time": 36.640625,
          "velocity": 0.8976377952755905,
          "duration": 0.046875
        },
        {
          "name": "D5",
          "midi": 74,
          "time": 36.703125,
          "velocity": 0.7480314960629921,
          "duration": 0.046875
        },
        {
          "name": "F#6",
          "midi": 90,
          "time": 37.125,
          "velocity": 0.48031496062992124,
          "duration": 0.03125
        },
        {
          "name": "C#6",
          "midi": 85,
          "time": 37.1796875,
          "velocity": 0.4251968503937008,
          "duration": 0.0625
        },
        {
          "name": "A5",
          "midi": 81,
          "time": 37.265625,
          "velocity": 0.4094488188976378,
          "duration": 0.0546875
        },
        {
          "name": "F#5",
          "midi": 78,
          "time": 37.3359375,
          "velocity": 0.36220472440944884,
          "duration": 0.046875
        },
        {
          "name": "C#5",
          "midi": 73,
          "time": 37.4140625,
          "velocity": 0.33070866141732286,
          "duration": 0.0546875
        },
        {
          "name": "F#5",
          "midi": 78,
          "time": 37.5,
          "velocity": 0.6929133858267716,
          "duration": 0.0234375
        },
        {
          "name": "E5",
          "midi": 76,
          "time": 37.5546875,
          "velocity": 0.7322834645669292,
          "duration": 0.0390625
        },
        {
          "name": "D5",
          "midi": 74,
          "time": 37.6171875,
          "velocity": 0.7716535433070866,
          "duration": 0.03125
        },
        {
          "name": "C#5",
          "midi": 73,
          "time": 37.6796875,
          "velocity": 0.8110236220472441,
          "duration": 0.1328125
        },
        {
          "name": "C#6",
          "midi": 85,
          "time": 37.6875,
          "velocity": 0.6850393700787402,
          "duration": 0.0390625
        },
        {
          "name": "A5",
          "midi": 81,
          "time": 37.7578125,
          "velocity": 0.6614173228346457,
          "duration": 0.03125
        },
        {
          "name": "F#5",
          "midi": 78,
          "time": 37.828125,
          "velocity": 0.5905511811023622,
          "duration": 0.0625
        },
        {
          "name": "C#5",
          "midi": 73,
          "time": 37.9140625,
          "velocity": 0.5748031496062992,
          "duration": 0.0546875
        },
        {
          "name": "F#6",
          "midi": 90,
          "time": 38.0625,
          "velocity": 0.44881889763779526,
          "duration": 0.046875
        },
        {
          "name": "E6",
          "midi": 88,
          "time": 38.1171875,
          "velocity": 0.4645669291338583,
          "duration": 0.046875
        },
        {
          "name": "D6",
          "midi": 86,
          "time": 38.1875,
          "velocity": 0.5354330708661418,
          "duration": 0.03125
        },
        {
          "name": "G#5",
          "midi": 80,
          "time": 38.2421875,
          "velocity": 0.9291338582677166,
          "duration": 0.0625
        },
        {
          "name": "C#6",
          "midi": 85,
          "time": 38.25,
          "velocity": 0.6377952755905512,
          "duration": 0.15625
        },
        {
          "name": "F5",
          "midi": 77,
          "time": 38.328125,
          "velocity": 0.905511811023622,
          "duration": 0.0625
        },
        {
          "name": "C#5",
          "midi": 73,
          "time": 38.3984375,
          "velocity": 0.7559055118110236,
          "duration": 0.0625
        },
        {
          "name": "F#6",
          "midi": 90,
          "time": 38.8125,
          "velocity": 0.4566929133858268,
          "duration": 0.03125
        },
        {
          "name": "C#6",
          "midi": 85,
          "time": 38.875,
          "velocity": 0.4409448818897638,
          "duration": 0.0390625
        },
        {
          "name": "A#5",
          "midi": 82,
          "time": 38.9609375,
          "velocity": 0.3858267716535433,
          "duration": 0.046875
        },
        {
          "name": "F#5",
          "midi": 78,
          "time": 39.03125,
          "velocity": 0.33070866141732286,
          "duration": 0.0546875
        },
        {
          "name": "C#5",
          "midi": 73,
          "time": 39.1015625,
          "velocity": 0.30708661417322836,
          "duration": 0.0703125
        },
        {
          "name": "D#5",
          "midi": 75,
          "time": 39.25,
          "velocity": 0.7401574803149606,
          "duration": 0.046875
        },
        {
          "name": "F5",
          "midi": 77,
          "time": 39.3125,
          "velocity": 0.7874015748031497,
          "duration": 0.0546875
        },
        {
          "name": "C#6",
          "midi": 85,
          "time": 39.375,
          "velocity": 0.7244094488188977,
          "duration": 0.0625
        },
        {
          "name": "F#5",
          "midi": 78,
          "time": 39.375,
          "velocity": 0.889763779527559,
          "duration": 0.109375
        },
        {
          "name": "A#5",
          "midi": 82,
          "time": 39.453125,
          "velocity": 0.6456692913385826,
          "duration": 0.046875
        },
        {
          "name": "F#5",
          "midi": 78,
          "time": 39.515625,
          "velocity": 0.6220472440944882,
          "duration": 0.0625
        },
        {
          "name": "C#5",
          "midi": 73,
          "time": 39.59375,
          "velocity": 0.5354330708661418,
          "duration": 0.0546875
        },
        {
          "name": "C#5",
          "midi": 73,
          "time": 39.75,
          "velocity": 0.4566929133858268,
          "duration": 0.03125
        },
        {
          "name": "C#6",
          "midi": 85,
          "time": 39.75,
          "velocity": 0.47244094488188976,
          "duration": 0.0234375
        },
        {
          "name": "D#5",
          "midi": 75,
          "time": 39.8125,
          "velocity": 0.4881889763779528,
          "duration": 0.0234375
        },
        {
          "name": "D#6",
          "midi": 87,
          "time": 39.8125,
          "velocity": 0.48031496062992124,
          "duration": 0.0390625
        },
        {
          "name": "E5",
          "midi": 76,
          "time": 39.8671875,
          "velocity": 0.49606299212598426,
          "duration": 0.03125
        },
        {
          "name": "E6",
          "midi": 88,
          "time": 39.8671875,
          "velocity": 0.5039370078740157,
          "duration": 0.03125
        },
        {
          "name": "F#5",
          "midi": 78,
          "time": 39.9296875,
          "velocity": 0.5354330708661418,
          "duration": 0.1328125
        },
        {
          "name": "F#6",
          "midi": 90,
          "time": 39.9375,
          "velocity": 0.6141732283464567,
          "duration": 0.15625
        },
        {
          "name": "C#5",
          "midi": 73,
          "time": 40.015625,
          "velocity": 0.9133858267716536,
          "duration": 0.0625
        },
        {
          "name": "F#6",
          "midi": 90,
          "time": 40.4921875,
          "velocity": 0.48031496062992124,
          "duration": 0.0546875
        },
        {
          "name": "C#6",
          "midi": 85,
          "time": 40.5625,
          "velocity": 0.44881889763779526,
          "duration": 0.0390625
        },
        {
          "name": "A#5",
          "midi": 82,
          "time": 40.640625,
          "velocity": 0.4094488188976378,
          "duration": 0.0390625
        },
        {
          "name": "F#5",
          "midi": 78,
          "time": 40.7109375,
          "velocity": 0.3464566929133858,
          "duration": 0.0625
        },
        {
          "name": "C#5",
          "midi": 73,
          "time": 40.7890625,
          "velocity": 0.2992125984251969,
          "duration": 0.0625
        },
        {
          "name": "C#5",
          "midi": 73,
          "time": 40.8671875,
          "velocity": 0.6850393700787402,
          "duration": 0.0234375
        },
        {
          "name": "D#5",
          "midi": 75,
          "time": 40.9296875,
          "velocity": 0.7637795275590551,
          "duration": 0.0390625
        },
        {
          "name": "F5",
          "midi": 77,
          "time": 40.9921875,
          "velocity": 0.7795275590551181,
          "duration": 0.0390625
        },
        {
          "name": "C#6",
          "midi": 85,
          "time": 41.0546875,
          "velocity": 0.6141732283464567,
          "duration": 0.046875
        },
        {
          "name": "F#5",
          "midi": 78,
          "time": 41.0625,
          "velocity": 0.905511811023622,
          "duration": 0.1171875
        },
        {
          "name": "A#5",
          "midi": 82,
          "time": 41.140625,
          "velocity": 0.6771653543307087,
          "duration": 0.046875
        },
        {
          "name": "F#5",
          "midi": 78,
          "time": 41.2109375,
          "velocity": 0.5984251968503937,
          "duration": 0.0625
        },
        {
          "name": "C#5",
          "midi": 73,
          "time": 41.2890625,
          "velocity": 0.5433070866141733,
          "duration": 0.046875
        },
        {
          "name": "C#5",
          "midi": 73,
          "time": 41.4296875,
          "velocity": 0.4409448818897638,
          "duration": 0.03125
        },
        {
          "name": "C#6",
          "midi": 85,
          "time": 41.4375,
          "velocity": 0.47244094488188976,
          "duration": 0.03125
        },
        {
          "name": "D#5",
          "midi": 75,
          "time": 41.4921875,
          "velocity": 0.47244094488188976,
          "duration": 0.0234375
        },
        {
          "name": "D#6",
          "midi": 87,
          "time": 41.5,
          "velocity": 0.5039370078740157,
          "duration": 0.03125
        },
        {
          "name": "E5",
          "midi": 76,
          "time": 41.5625,
          "velocity": 0.5118110236220472,
          "duration": 0.0234375
        },
        {
          "name": "E6",
          "midi": 88,
          "time": 41.5625,
          "velocity": 0.5039370078740157,
          "duration": 0.046875
        },
        {
          "name": "F#5",
          "midi": 78,
          "time": 41.625,
          "velocity": 0.6062992125984252,
          "duration": 0.140625
        },
        {
          "name": "F#6",
          "midi": 90,
          "time": 41.625,
          "velocity": 0.6141732283464567,
          "duration": 0.15625
        },
        {
          "name": "C#5",
          "midi": 73,
          "time": 41.6953125,
          "velocity": 0.9212598425196851,
          "duration": 0.046875
        },
        {
          "name": "F#6",
          "midi": 90,
          "time": 42.1796875,
          "velocity": 0.47244094488188976,
          "duration": 0.0546875
        },
        {
          "name": "C#6",
          "midi": 85,
          "time": 42.25,
          "velocity": 0.4094488188976378,
          "duration": 0.0390625
        },
        {
          "name": "A#5",
          "midi": 82,
          "time": 42.328125,
          "velocity": 0.3779527559055118,
          "duration": 0.0390625
        },
        {
          "name": "F#5",
          "midi": 78,
          "time": 42.3984375,
          "velocity": 0.3543307086614173,
          "duration": 0.0625
        },
        {
          "name": "C#5",
          "midi": 73,
          "time": 42.484375,
          "velocity": 0.2992125984251969,
          "duration": 0.046875
        },
        {
          "name": "C#5",
          "midi": 73,
          "time": 42.5546875,
          "velocity": 0.7086614173228346,
          "duration": 0.0234375
        },
        {
          "name": "D#5",
          "midi": 75,
          "time": 42.6171875,
          "velocity": 0.7480314960629921,
          "duration": 0.03125
        },
        {
          "name": "F5",
          "midi": 77,
          "time": 42.6875,
          "velocity": 0.7952755905511811,
          "duration": 0.03125
        },
        {
          "name": "C#6",
          "midi": 85,
          "time": 42.7421875,
          "velocity": 0.6456692913385826,
          "duration": 0.0625
        },
        {
          "name": "F#5",
          "midi": 78,
          "time": 42.75,
          "velocity": 0.905511811023622,
          "duration": 0.125
        },
        {
          "name": "A#5",
          "midi": 82,
          "time": 42.828125,
          "velocity": 0.6614173228346457,
          "duration": 0.046875
        },
        {
          "name": "F#5",
          "midi": 78,
          "time": 42.890625,
          "velocity": 0.6062992125984252,
          "duration": 0.0546875
        },
        {
          "name": "C#5",
          "midi": 73,
          "time": 42.96875,
          "velocity": 0.5748031496062992,
          "duration": 0.03125
        },
        {
          "name": "C#5",
          "midi": 73,
          "time": 43.1171875,
          "velocity": 0.44881889763779526,
          "duration": 0.0234375
        },
        {
          "name": "C#6",
          "midi": 85,
          "time": 43.125,
          "velocity": 0.4645669291338583,
          "duration": 0.0234375
        },
        {
          "name": "D#6",
          "midi": 87,
          "time": 43.1796875,
          "velocity": 0.49606299212598426,
          "duration": 0.046875
        },
        {
          "name": "D#5",
          "midi": 75,
          "time": 43.1796875,
          "velocity": 0.4881889763779528,
          "duration": 0.046875
        },
        {
          "name": "E5",
          "midi": 76,
          "time": 43.2421875,
          "velocity": 0.5196850393700787,
          "duration": 0.03125
        },
        {
          "name": "E6",
          "midi": 88,
          "time": 43.25,
          "velocity": 0.49606299212598426,
          "duration": 0.046875
        },
        {
          "name": "F#6",
          "midi": 90,
          "time": 43.3046875,
          "velocity": 0.5669291338582677,
          "duration": 0.1328125
        },
        {
          "name": "F#5",
          "midi": 78,
          "time": 43.3125,
          "velocity": 0.6377952755905512,
          "duration": 0.15625
        },
        {
          "name": "C#5",
          "midi": 73,
          "time": 43.390625,
          "velocity": 0.9212598425196851,
          "duration": 0.046875
        },
        {
          "name": "F#6",
          "midi": 90,
          "time": 43.875,
          "velocity": 0.4645669291338583,
          "duration": 0.046875
        },
        {
          "name": "C#6",
          "midi": 85,
          "time": 43.9453125,
          "velocity": 0.41732283464566927,
          "duration": 0.0546875
        },
        {
          "name": "A#5",
          "midi": 82,
          "time": 44.0234375,
          "velocity": 0.3700787401574803,
          "duration": 0.0390625
        },
        {
          "name": "F#5",
          "midi": 78,
          "time": 44.09375,
          "velocity": 0.33070866141732286,
          "duration": 0.0546875
        },
        {
          "name": "C#5",
          "midi": 73,
          "time": 44.171875,
          "velocity": 0.33070866141732286,
          "duration": 0.0546875
        },
        {
          "name": "C#5",
          "midi": 73,
          "time": 44.2421875,
          "velocity": 0.6929133858267716,
          "duration": 0.03125
        },
        {
          "name": "D#5",
          "midi": 75,
          "time": 44.3046875,
          "velocity": 0.7401574803149606,
          "duration": 0.03125
        },
        {
          "name": "F5",
          "midi": 77,
          "time": 44.3671875,
          "velocity": 0.7716535433070866,
          "duration": 0.0546875
        },
        {
          "name": "C#6",
          "midi": 85,
          "time": 44.4375,
          "velocity": 0.7086614173228346,
          "duration": 0.0546875
        },
        {
          "name": "F#5",
          "midi": 78,
          "time": 44.4375,
          "velocity": 0.9212598425196851,
          "duration": 0.109375
        },
        {
          "name": "A#5",
          "midi": 82,
          "time": 44.515625,
          "velocity": 0.6692913385826772,
          "duration": 0.03125
        },
        {
          "name": "F#5",
          "midi": 78,
          "time": 44.5859375,
          "velocity": 0.5905511811023622,
          "duration": 0.046875
        },
        {
          "name": "C#5",
          "midi": 73,
          "time": 44.65625,
          "velocity": 0.5669291338582677,
          "duration": 0.0390625
        },
        {
          "name": "C#5",
          "midi": 73,
          "time": 44.8125,
          "velocity": 0.4409448818897638,
          "duration": 0.046875
        },
        {
          "name": "C#6",
          "midi": 85,
          "time": 44.8125,
          "velocity": 0.47244094488188976,
          "duration": 0.046875
        },
        {
          "name": "D#5",
          "midi": 75,
          "time": 44.8671875,
          "velocity": 0.47244094488188976,
          "duration": 0.0234375
        },
        {
          "name": "D#6",
          "midi": 87,
          "time": 44.875,
          "velocity": 0.5039370078740157,
          "duration": 0.03125
        },
        {
          "name": "E5",
          "midi": 76,
          "time": 44.9375,
          "velocity": 0.49606299212598426,
          "duration": 0.046875
        },
        {
          "name": "E6",
          "midi": 88,
          "time": 44.9375,
          "velocity": 0.5354330708661418,
          "duration": 0.0390625
        },
        {
          "name": "F#5",
          "midi": 78,
          "time": 45,
          "velocity": 0.6456692913385826,
          "duration": 0.1484375
        },
        {
          "name": "F#6",
          "midi": 90,
          "time": 45,
          "velocity": 0.6141732283464567,
          "duration": 0.140625
        },
        {
          "name": "C#5",
          "midi": 73,
          "time": 45.078125,
          "velocity": 0.9212598425196851,
          "duration": 0.0546875
        },
        {
          "name": "E6",
          "midi": 88,
          "time": 45.5546875,
          "velocity": 0.4645669291338583,
          "duration": 0.0546875
        },
        {
          "name": "B5",
          "midi": 83,
          "time": 45.6328125,
          "velocity": 0.4251968503937008,
          "duration": 0.046875
        },
        {
          "name": "G5",
          "midi": 79,
          "time": 45.7109375,
          "velocity": 0.4015748031496063,
          "duration": 0.0546875
        },
        {
          "name": "E5",
          "midi": 76,
          "time": 45.7734375,
          "velocity": 0.3543307086614173,
          "duration": 0.046875
        },
        {
          "name": "E5",
          "midi": 76,
          "time": 45.9375,
          "velocity": 0.6929133858267716,
          "duration": 0.0234375
        },
        {
          "name": "D5",
          "midi": 74,
          "time": 46,
          "velocity": 0.7559055118110236,
          "duration": 0.046875
        },
        {
          "name": "C#5",
          "midi": 73,
          "time": 46.0546875,
          "velocity": 0.8031496062992126,
          "duration": 0.0390625
        },
        {
          "name": "B5",
          "midi": 83,
          "time": 46.125,
          "velocity": 0.7244094488188977,
          "duration": 0.046875
        },
        {
          "name": "F#5",
          "midi": 78,
          "time": 46.1953125,
          "velocity": 0.6456692913385826,
          "duration": 0.03125
        },
        {
          "name": "D5",
          "midi": 74,
          "time": 46.2734375,
          "velocity": 0.6299212598425197,
          "duration": 0.0390625
        },
        {
          "name": "B5",
          "midi": 83,
          "time": 46.4921875,
          "velocity": 0.5039370078740157,
          "duration": 0.0078125
        },
        {
          "name": "C#5",
          "midi": 73,
          "time": 46.546875,
          "velocity": 0.5196850393700787,
          "duration": 0.03125
        },
        {
          "name": "C#6",
          "midi": 85,
          "time": 46.546875,
          "velocity": 0.5354330708661418,
          "duration": 0.0078125
        },
        {
          "name": "D5",
          "midi": 74,
          "time": 46.5859375,
          "velocity": 0.5826771653543307,
          "duration": 0.03125
        },
        {
          "name": "D6",
          "midi": 86,
          "time": 46.59375,
          "velocity": 0.5748031496062992,
          "duration": 0.015625
        },
        {
          "name": "E5",
          "midi": 76,
          "time": 46.6328125,
          "velocity": 0.5984251968503937,
          "duration": 0.015625
        },
        {
          "name": "E6",
          "midi": 88,
          "time": 46.640625,
          "velocity": 0.5748031496062992,
          "duration": 0.03125
        },
        {
          "name": "F#5",
          "midi": 78,
          "time": 46.6796875,
          "velocity": 0.6141732283464567,
          "duration": 0.1328125
        },
        {
          "name": "F#6",
          "midi": 90,
          "time": 46.6796875,
          "velocity": 0.6377952755905512,
          "duration": 0.1484375
        },
        {
          "name": "D5",
          "midi": 74,
          "time": 46.765625,
          "velocity": 0.889763779527559,
          "duration": 0.0546875
        },
        {
          "name": "E6",
          "midi": 88,
          "time": 47.2421875,
          "velocity": 0.44881889763779526,
          "duration": 0.046875
        },
        {
          "name": "B5",
          "midi": 83,
          "time": 47.3125,
          "velocity": 0.44881889763779526,
          "duration": 0.046875
        },
        {
          "name": "G5",
          "midi": 79,
          "time": 47.390625,
          "velocity": 0.3858267716535433,
          "duration": 0.0546875
        },
        {
          "name": "E5",
          "midi": 76,
          "time": 47.46875,
          "velocity": 0.3464566929133858,
          "duration": 0.046875
        },
        {
          "name": "B4",
          "midi": 71,
          "time": 47.546875,
          "velocity": 0.3228346456692913,
          "duration": 0.0625
        },
        {
          "name": "E5",
          "midi": 76,
          "time": 47.625,
          "velocity": 0.7165354330708661,
          "duration": 0.0234375
        },
        {
          "name": "D5",
          "midi": 74,
          "time": 47.6875,
          "velocity": 0.7480314960629921,
          "duration": 0.03125
        },
        {
          "name": "C#5",
          "midi": 73,
          "time": 47.75,
          "velocity": 0.7637795275590551,
          "duration": 0.0546875
        },
        {
          "name": "B5",
          "midi": 83,
          "time": 47.8046875,
          "velocity": 0.6062992125984252,
          "duration": 0.0625
        },
        {
          "name": "B4",
          "midi": 71,
          "time": 47.8125,
          "velocity": 0.8976377952755905,
          "duration": 0.1328125
        },
        {
          "name": "F#5",
          "midi": 78,
          "time": 47.8828125,
          "velocity": 0.6614173228346457,
          "duration": 0.0390625
        },
        {
          "name": "D5",
          "midi": 74,
          "time": 47.953125,
          "velocity": 0.6299212598425197,
          "duration": 0.0625
        },
        {
          "name": "B5",
          "midi": 83,
          "time": 48.1796875,
          "velocity": 0.4881889763779528,
          "duration": 0.0078125
        },
        {
          "name": "C#6",
          "midi": 85,
          "time": 48.234375,
          "velocity": 0.5511811023622047,
          "duration": 0.0234375
        },
        {
          "name": "D5",
          "midi": 74,
          "time": 48.28125,
          "velocity": 0.5511811023622047,
          "duration": 0.03125
        },
        {
          "name": "D6",
          "midi": 86,
          "time": 48.28125,
          "velocity": 0.5433070866141733,
          "duration": 0.03125
        },
        {
          "name": "E6",
          "midi": 88,
          "time": 48.3203125,
          "velocity": 0.5826771653543307,
          "duration": 0.015625
        },
        {
          "name": "E5",
          "midi": 76,
          "time": 48.328125,
          "velocity": 0.5905511811023622,
          "duration": 0.015625
        },
        {
          "name": "F#6",
          "midi": 90,
          "time": 48.375,
          "velocity": 0.7244094488188977,
          "duration": 0.140625
        },
        {
          "name": "F#5",
          "midi": 78,
          "time": 48.375,
          "velocity": 0.6929133858267716,
          "duration": 0.1484375
        },
        {
          "name": "D5",
          "midi": 74,
          "time": 48.453125,
          "velocity": 0.9212598425196851,
          "duration": 0.0546875
        },
        {
          "name": "B4",
          "midi": 71,
          "time": 48.53125,
          "velocity": 0.7480314960629921,
          "duration": 0.0390625
        },
        {
          "name": "E6",
          "midi": 88,
          "time": 48.9296875,
          "velocity": 0.44881889763779526,
          "duration": 0.046875
        },
        {
          "name": "B5",
          "midi": 83,
          "time": 49,
          "velocity": 0.4251968503937008,
          "duration": 0.0625
        },
        {
          "name": "G5",
          "midi": 79,
          "time": 49.078125,
          "velocity": 0.3779527559055118,
          "duration": 0.0546875
        },
        {
          "name": "E5",
          "midi": 76,
          "time": 49.15625,
          "velocity": 0.3700787401574803,
          "duration": 0.0390625
        },
        {
          "name": "B4",
          "midi": 71,
          "time": 49.234375,
          "velocity": 0.30708661417322836,
          "duration": 0.0546875
        },
        {
          "name": "B4",
          "midi": 71,
          "time": 49.3046875,
          "velocity": 0.6929133858267716,
          "duration": 0.03125
        },
        {
          "name": "D#5",
          "midi": 75,
          "time": 49.4296875,
          "velocity": 0.7795275590551181,
          "duration": 0.0546875
        },
        {
          "name": "C6",
          "midi": 84,
          "time": 49.4921875,
          "velocity": 0.6299212598425197,
          "duration": 0.046875
        },
        {
          "name": "E5",
          "midi": 76,
          "time": 49.4921875,
          "velocity": 0.8110236220472441,
          "duration": 0.109375
        },
        {
          "name": "G5",
          "midi": 79,
          "time": 49.578125,
          "velocity": 0.6771653543307087,
          "duration": 0.0546875
        },
        {
          "name": "E5",
          "midi": 76,
          "time": 49.6484375,
          "velocity": 0.5905511811023622,
          "duration": 0.0625
        },
        {
          "name": "C5",
          "midi": 72,
          "time": 49.71875,
          "velocity": 0.5433070866141733,
          "duration": 0.0546875
        },
        {
          "name": "C6",
          "midi": 84,
          "time": 49.8671875,
          "velocity": 0.4881889763779528,
          "duration": 0.03125
        },
        {
          "name": "D5",
          "midi": 74,
          "time": 49.9296875,
          "velocity": 0.5275590551181102,
          "duration": 0.046875
        },
        {
          "name": "D6",
          "midi": 86,
          "time": 49.9296875,
          "velocity": 0.5039370078740157,
          "duration": 0.0234375
        },
        {
          "name": "E5",
          "midi": 76,
          "time": 50,
          "velocity": 0.5669291338582677,
          "duration": 0.0390625
        },
        {
          "name": "E6",
          "midi": 88,
          "time": 50,
          "velocity": 0.5433070866141733,
          "duration": 0.03125
        },
        {
          "name": "F#5",
          "midi": 78,
          "time": 50.0546875,
          "velocity": 0.6299212598425197,
          "duration": 0.15625
        },
        {
          "name": "F#6",
          "midi": 90,
          "time": 50.0625,
          "velocity": 0.7244094488188977,
          "duration": 0.1640625
        },
        {
          "name": "C#5",
          "midi": 73,
          "time": 50.1328125,
          "velocity": 0.905511811023622,
          "duration": 0.046875
        },
        {
          "name": "A#4",
          "midi": 70,
          "time": 50.21875,
          "velocity": 0.7559055118110236,
          "duration": 0.0390625
        },
        {
          "name": "F#4",
          "midi": 66,
          "time": 50.2890625,
          "velocity": 0.6929133858267716,
          "duration": 0.0546875
        },
        {
          "name": "C#4",
          "midi": 61,
          "time": 50.359375,
          "velocity": 0.6141732283464567,
          "duration": 0.0546875
        },
        {
          "name": "A#3",
          "midi": 58,
          "time": 50.4296875,
          "velocity": 0.7795275590551181,
          "duration": 0.1640625
        },
        {
          "name": "F#6",
          "midi": 90,
          "time": 50.6171875,
          "velocity": 0.44881889763779526,
          "duration": 0.0546875
        },
        {
          "name": "D6",
          "midi": 86,
          "time": 50.6953125,
          "velocity": 0.4409448818897638,
          "duration": 0.0546875
        },
        {
          "name": "B5",
          "midi": 83,
          "time": 50.765625,
          "velocity": 0.3937007874015748,
          "duration": 0.046875
        },
        {
          "name": "F#5",
          "midi": 78,
          "time": 50.84375,
          "velocity": 0.33070866141732286,
          "duration": 0.0625
        },
        {
          "name": "D5",
          "midi": 74,
          "time": 50.921875,
          "velocity": 0.30708661417322836,
          "duration": 0.046875
        },
        {
          "name": "B4",
          "midi": 71,
          "time": 50.9921875,
          "velocity": 0.4330708661417323,
          "duration": 0.15625
        },
        {
          "name": "C#5",
          "midi": 73,
          "time": 51.046875,
          "velocity": 0.7559055118110236,
          "duration": 0.0234375
        },
        {
          "name": "D5",
          "midi": 74,
          "time": 51.09375,
          "velocity": 0.7244094488188977,
          "duration": 0.0078125
        },
        {
          "name": "E5",
          "midi": 76,
          "time": 51.140625,
          "velocity": 0.7952755905511811,
          "duration": 0.0234375
        },
        {
          "name": "F#5",
          "midi": 78,
          "time": 51.1796875,
          "velocity": 0.84251968503937,
          "duration": 0.1171875
        },
        {
          "name": "B5",
          "midi": 83,
          "time": 51.1875,
          "velocity": 0.6929133858267716,
          "duration": 0.0546875
        },
        {
          "name": "D5",
          "midi": 74,
          "time": 51.328125,
          "velocity": 0.6141732283464567,
          "duration": 0.046875
        },
        {
          "name": "B4",
          "midi": 71,
          "time": 51.4140625,
          "velocity": 0.5590551181102362,
          "duration": 0.046875
        },
        {
          "name": "B5",
          "midi": 83,
          "time": 51.5546875,
          "velocity": 0.49606299212598426,
          "duration": 0.015625
        },
        {
          "name": "B4",
          "midi": 71,
          "time": 51.5625,
          "velocity": 0.4881889763779528,
          "duration": 0.03125
        },
        {
          "name": "C#5",
          "midi": 73,
          "time": 51.609375,
          "velocity": 0.5196850393700787,
          "duration": 0.03125
        },
        {
          "name": "C#6",
          "midi": 85,
          "time": 51.609375,
          "velocity": 0.5354330708661418,
          "duration": 0.015625
        },
        {
          "name": "D5",
          "midi": 74,
          "time": 51.65625,
          "velocity": 0.5511811023622047,
          "duration": 0.03125
        },
        {
          "name": "D6",
          "midi": 86,
          "time": 51.65625,
          "velocity": 0.5511811023622047,
          "duration": 0.0078125
        },
        {
          "name": "E5",
          "midi": 76,
          "time": 51.6953125,
          "velocity": 0.5905511811023622,
          "duration": 0.015625
        },
        {
          "name": "E6",
          "midi": 88,
          "time": 51.703125,
          "velocity": 0.5984251968503937,
          "duration": 0.03125
        },
        {
          "name": "F#6",
          "midi": 90,
          "time": 51.75,
          "velocity": 0.6850393700787402,
          "duration": 0.140625
        },
        {
          "name": "F#5",
          "midi": 78,
          "time": 51.75,
          "velocity": 0.7244094488188977,
          "duration": 0.1484375
        },
        {
          "name": "D5",
          "midi": 74,
          "time": 51.8203125,
          "velocity": 0.9212598425196851,
          "duration": 0.0625
        },
        {
          "name": "B4",
          "midi": 71,
          "time": 51.8984375,
          "velocity": 0.7322834645669292,
          "duration": 0.0390625
        },
        {
          "name": "F#6",
          "midi": 90,
          "time": 52.3046875,
          "velocity": 0.4645669291338583,
          "duration": 0.046875
        },
        {
          "name": "D6",
          "midi": 86,
          "time": 52.375,
          "velocity": 0.44881889763779526,
          "duration": 0.0390625
        },
        {
          "name": "B5",
          "midi": 83,
          "time": 52.453125,
          "velocity": 0.3779527559055118,
          "duration": 0.0390625
        },
        {
          "name": "F#5",
          "midi": 78,
          "time": 52.53125,
          "velocity": 0.3543307086614173,
          "duration": 0.0546875
        },
        {
          "name": "D5",
          "midi": 74,
          "time": 52.609375,
          "velocity": 0.33070866141732286,
          "duration": 0.046875
        },
        {
          "name": "B4",
          "midi": 71,
          "time": 52.6796875,
          "velocity": 0.44881889763779526,
          "duration": 0.1640625
        },
        {
          "name": "C#5",
          "midi": 73,
          "time": 52.7265625,
          "velocity": 0.7559055118110236,
          "duration": 0.015625
        },
        {
          "name": "D5",
          "midi": 74,
          "time": 52.78125,
          "velocity": 0.7401574803149606,
          "duration": 0.0234375
        },
        {
          "name": "E5",
          "midi": 76,
          "time": 52.8203125,
          "velocity": 0.8031496062992126,
          "duration": 0.0390625
        },
        {
          "name": "F#5",
          "midi": 78,
          "time": 52.8671875,
          "velocity": 0.8110236220472441,
          "duration": 0.140625
        },
        {
          "name": "B5",
          "midi": 83,
          "time": 52.875,
          "velocity": 0.6929133858267716,
          "duration": 0.0546875
        },
        {
          "name": "D5",
          "midi": 74,
          "time": 53.015625,
          "velocity": 0.6062992125984252,
          "duration": 0.0546875
        },
        {
          "name": "B4",
          "midi": 71,
          "time": 53.09375,
          "velocity": 0.5669291338582677,
          "duration": 0.0625
        },
        {
          "name": "B4",
          "midi": 71,
          "time": 53.2421875,
          "velocity": 0.5118110236220472,
          "duration": 0.0078125
        },
        {
          "name": "B5",
          "midi": 83,
          "time": 53.25,
          "velocity": 0.49606299212598426,
          "duration": 0.03125
        },
        {
          "name": "C#5",
          "midi": 73,
          "time": 53.2890625,
          "velocity": 0.5196850393700787,
          "duration": 0.0078125
        },
        {
          "name": "C#6",
          "midi": 85,
          "time": 53.2890625,
          "velocity": 0.5511811023622047,
          "duration": 0.015625
        },
        {
          "name": "D5",
          "midi": 74,
          "time": 53.3359375,
          "velocity": 0.5826771653543307,
          "duration": 0.015625
        },
        {
          "name": "D6",
          "midi": 86,
          "time": 53.34375,
          "velocity": 0.5433070866141733,
          "duration": 0.03125
        },
        {
          "name": "E5",
          "midi": 76,
          "time": 53.3828125,
          "velocity": 0.6141732283464567,
          "duration": 0.0390625
        },
        {
          "name": "E6",
          "midi": 88,
          "time": 53.3828125,
          "velocity": 0.6141732283464567,
          "duration": 0.0234375
        },
        {
          "name": "F#5",
          "midi": 78,
          "time": 53.4375,
          "velocity": 0.7165354330708661,
          "duration": 0.1328125
        },
        {
          "name": "F#6",
          "midi": 90,
          "time": 53.4375,
          "velocity": 0.6929133858267716,
          "duration": 0.1484375
        },
        {
          "name": "D5",
          "midi": 74,
          "time": 53.5078125,
          "velocity": 0.889763779527559,
          "duration": 0.0546875
        },
        {
          "name": "B4",
          "midi": 71,
          "time": 53.5703125,
          "velocity": 0.7480314960629921,
          "duration": 0.0703125
        },
        {
          "name": "E6",
          "midi": 88,
          "time": 54,
          "velocity": 0.48031496062992124,
          "duration": 0.046875
        },
        {
          "name": "B5",
          "midi": 83,
          "time": 54.0703125,
          "velocity": 0.41732283464566927,
          "duration": 0.0625
        },
        {
          "name": "G5",
          "midi": 79,
          "time": 54.1484375,
          "velocity": 0.4094488188976378,
          "duration": 0.0546875
        },
        {
          "name": "E5",
          "midi": 76,
          "time": 54.21875,
          "velocity": 0.36220472440944884,
          "duration": 0.0390625
        },
        {
          "name": "B4",
          "midi": 71,
          "time": 54.2890625,
          "velocity": 0.30708661417322836,
          "duration": 0.0625
        },
        {
          "name": "E5",
          "midi": 76,
          "time": 54.3671875,
          "velocity": 0.6929133858267716,
          "duration": 0.0234375
        },
        {
          "name": "G4",
          "midi": 67,
          "time": 54.3671875,
          "velocity": 0.4094488188976378,
          "duration": 0.171875
        },
        {
          "name": "D5",
          "midi": 74,
          "time": 54.4375,
          "velocity": 0.7244094488188977,
          "duration": 0.03125
        },
        {
          "name": "C#5",
          "midi": 73,
          "time": 54.5,
          "velocity": 0.7795275590551181,
          "duration": 0.03125
        },
        {
          "name": "B4",
          "midi": 71,
          "time": 54.5546875,
          "velocity": 0.8346456692913385,
          "duration": 0.1171875
        },
        {
          "name": "B5",
          "midi": 83,
          "time": 54.5546875,
          "velocity": 0.6141732283464567,
          "duration": 0.0390625
        },
        {
          "name": "F#5",
          "midi": 78,
          "time": 54.640625,
          "velocity": 0.6535433070866141,
          "duration": 0.03125
        },
        {
          "name": "D5",
          "midi": 74,
          "time": 54.7109375,
          "velocity": 0.5905511811023622,
          "duration": 0.0390625
        },
        {
          "name": "B4",
          "midi": 71,
          "time": 54.78125,
          "velocity": 0.5354330708661418,
          "duration": 0.0390625
        },
        {
          "name": "B4",
          "midi": 71,
          "time": 54.9296875,
          "velocity": 0.5196850393700787,
          "duration": 0.03125
        },
        {
          "name": "B5",
          "midi": 83,
          "time": 54.9296875,
          "velocity": 0.5039370078740157,
          "duration": 0.0234375
        },
        {
          "name": "C#6",
          "midi": 85,
          "time": 54.9765625,
          "velocity": 0.5118110236220472,
          "duration": 0.0234375
        },
        {
          "name": "C#5",
          "midi": 73,
          "time": 54.9765625,
          "velocity": 0.5433070866141733,
          "duration": 0.0234375
        },
        {
          "name": "D6",
          "midi": 86,
          "time": 55.0234375,
          "velocity": 0.5669291338582677,
          "duration": 0.0234375
        },
        {
          "name": "D5",
          "midi": 74,
          "time": 55.03125,
          "velocity": 0.5669291338582677,
          "duration": 0.03125
        },
        {
          "name": "E6",
          "midi": 88,
          "time": 55.078125,
          "velocity": 0.5826771653543307,
          "duration": 0.03125
        },
        {
          "name": "E5",
          "midi": 76,
          "time": 55.078125,
          "velocity": 0.5905511811023622,
          "duration": 0.03125
        },
        {
          "name": "F#5",
          "midi": 78,
          "time": 55.125,
          "velocity": 0.6850393700787402,
          "duration": 0.1328125
        },
        {
          "name": "F#6",
          "midi": 90,
          "time": 55.125,
          "velocity": 0.6929133858267716,
          "duration": 0.140625
        },
        {
          "name": "D5",
          "midi": 74,
          "time": 55.203125,
          "velocity": 0.9212598425196851,
          "duration": 0.0546875
        },
        {
          "name": "B4",
          "midi": 71,
          "time": 55.28125,
          "velocity": 0.7637795275590551,
          "duration": 0.0625
        },
        {
          "name": "E6",
          "midi": 88,
          "time": 55.6796875,
          "velocity": 0.47244094488188976,
          "duration": 0.0390625
        },
        {
          "name": "B5",
          "midi": 83,
          "time": 55.7578125,
          "velocity": 0.44881889763779526,
          "duration": 0.046875
        },
        {
          "name": "G5",
          "midi": 79,
          "time": 55.828125,
          "velocity": 0.3937007874015748,
          "duration": 0.03125
        },
        {
          "name": "E5",
          "midi": 76,
          "time": 55.90625,
          "velocity": 0.33070866141732286,
          "duration": 0.0546875
        },
        {
          "name": "B4",
          "midi": 71,
          "time": 55.9765625,
          "velocity": 0.31496062992125984,
          "duration": 0.0390625
        },
        {
          "name": "E5",
          "midi": 76,
          "time": 56.0546875,
          "velocity": 0.7165354330708661,
          "duration": 0.0234375
        },
        {
          "name": "D5",
          "midi": 74,
          "time": 56.1171875,
          "velocity": 0.7480314960629921,
          "duration": 0.046875
        },
        {
          "name": "C#5",
          "midi": 73,
          "time": 56.1796875,
          "velocity": 0.7795275590551181,
          "duration": 0.03125
        },
        {
          "name": "B4",
          "midi": 71,
          "time": 56.2421875,
          "velocity": 0.8267716535433071,
          "duration": 0.1171875
        },
        {
          "name": "B5",
          "midi": 83,
          "time": 56.25,
          "velocity": 0.7165354330708661,
          "duration": 0.0625
        },
        {
          "name": "F#5",
          "midi": 78,
          "time": 56.328125,
          "velocity": 0.6535433070866141,
          "duration": 0.046875
        },
        {
          "name": "D5",
          "midi": 74,
          "time": 56.3984375,
          "velocity": 0.6141732283464567,
          "duration": 0.0625
        },
        {
          "name": "B4",
          "midi": 71,
          "time": 56.46875,
          "velocity": 0.5669291338582677,
          "duration": 0.0546875
        },
        {
          "name": "B5",
          "midi": 83,
          "time": 56.6171875,
          "velocity": 0.48031496062992124,
          "duration": 0.0078125
        },
        {
          "name": "B4",
          "midi": 71,
          "time": 56.625,
          "velocity": 0.5039370078740157,
          "duration": 0.03125
        },
        {
          "name": "C#5",
          "midi": 73,
          "time": 56.6640625,
          "velocity": 0.5275590551181102,
          "duration": 0.0234375
        },
        {
          "name": "C#6",
          "midi": 85,
          "time": 56.671875,
          "velocity": 0.5354330708661418,
          "duration": 0.0078125
        },
        {
          "name": "D5",
          "midi": 74,
          "time": 56.7109375,
          "velocity": 0.5433070866141733,
          "duration": 0.03125
        },
        {
          "name": "D6",
          "midi": 86,
          "time": 56.71875,
          "velocity": 0.5748031496062992,
          "duration": 0.03125
        },
        {
          "name": "E5",
          "midi": 76,
          "time": 56.7578125,
          "velocity": 0.6141732283464567,
          "duration": 0.0234375
        },
        {
          "name": "E6",
          "midi": 88,
          "time": 56.765625,
          "velocity": 0.5748031496062992,
          "duration": 0.0234375
        },
        {
          "name": "F#5",
          "midi": 78,
          "time": 56.8125,
          "velocity": 0.7086614173228346,
          "duration": 0.140625
        },
        {
          "name": "F#6",
          "midi": 90,
          "time": 56.8125,
          "velocity": 0.7086614173228346,
          "duration": 0.1484375
        },
        {
          "name": "D5",
          "midi": 74,
          "time": 56.8828125,
          "velocity": 0.9133858267716536,
          "duration": 0.0546875
        },
        {
          "name": "B4",
          "midi": 71,
          "time": 56.9609375,
          "velocity": 0.7244094488188977,
          "duration": 0.046875
        },
        {
          "name": "E6",
          "midi": 88,
          "time": 57.375,
          "velocity": 0.4881889763779528,
          "duration": 0.0390625
        },
        {
          "name": "B5",
          "midi": 83,
          "time": 57.4375,
          "velocity": 0.4409448818897638,
          "duration": 0.0546875
        },
        {
          "name": "G5",
          "midi": 79,
          "time": 57.515625,
          "velocity": 0.3858267716535433,
          "duration": 0.0546875
        },
        {
          "name": "E5",
          "midi": 76,
          "time": 57.59375,
          "velocity": 0.3543307086614173,
          "duration": 0.0625
        },
        {
          "name": "B4",
          "midi": 71,
          "time": 57.6640625,
          "velocity": 0.29133858267716534,
          "duration": 0.046875
        },
        {
          "name": "B4",
          "midi": 71,
          "time": 57.75,
          "velocity": 0.7244094488188977,
          "duration": 0.0390625
        },
        {
          "name": "C#5",
          "midi": 73,
          "time": 57.8125,
          "velocity": 0.7480314960629921,
          "duration": 0.0390625
        },
        {
          "name": "D#5",
          "midi": 75,
          "time": 57.8671875,
          "velocity": 0.7874015748031497,
          "duration": 0.046875
        },
        {
          "name": "E5",
          "midi": 76,
          "time": 57.9296875,
          "velocity": 0.84251968503937,
          "duration": 0.1328125
        },
        {
          "name": "C6",
          "midi": 84,
          "time": 57.9375,
          "velocity": 0.7007874015748031,
          "duration": 0.0546875
        },
        {
          "name": "G5",
          "midi": 79,
          "time": 58.0078125,
          "velocity": 0.6377952755905512,
          "duration": 0.0546875
        },
        {
          "name": "E5",
          "midi": 76,
          "time": 58.0859375,
          "velocity": 0.6220472440944882,
          "duration": 0.046875
        },
        {
          "name": "C5",
          "midi": 72,
          "time": 58.1640625,
          "velocity": 0.5511811023622047,
          "duration": 0.0546875
        },
        {
          "name": "C5",
          "midi": 72,
          "time": 58.3046875,
          "velocity": 0.5118110236220472,
          "duration": 0.046875
        },
        {
          "name": "C6",
          "midi": 84,
          "time": 58.3125,
          "velocity": 0.5196850393700787,
          "duration": 0.0546875
        },
        {
          "name": "D6",
          "midi": 86,
          "time": 58.3671875,
          "velocity": 0.5275590551181102,
          "duration": 0.046875
        },
        {
          "name": "D5",
          "midi": 74,
          "time": 58.3671875,
          "velocity": 0.5196850393700787,
          "duration": 0.0390625
        },
        {
          "name": "E5",
          "midi": 76,
          "time": 58.4375,
          "velocity": 0.5433070866141733,
          "duration": 0.0390625
        },
        {
          "name": "E6",
          "midi": 88,
          "time": 58.4375,
          "velocity": 0.5354330708661418,
          "duration": 0.0390625
        },
        {
          "name": "F#5",
          "midi": 78,
          "time": 58.4921875,
          "velocity": 0.6299212598425197,
          "duration": 0.140625
        },
        {
          "name": "F#6",
          "midi": 90,
          "time": 58.5,
          "velocity": 0.6850393700787402,
          "duration": 0.140625
        },
        {
          "name": "C#5",
          "midi": 73,
          "time": 58.5625,
          "velocity": 0.9133858267716536,
          "duration": 0.0390625
        },
        {
          "name": "A#4",
          "midi": 70,
          "time": 58.6171875,
          "velocity": 0.7637795275590551,
          "duration": 0.0390625
        },
        {
          "name": "F#6",
          "midi": 90,
          "time": 59.0625,
          "velocity": 0.47244094488188976,
          "duration": 0.046875
        },
        {
          "name": "D#6",
          "midi": 87,
          "time": 59.125,
          "velocity": 0.4330708661417323,
          "duration": 0.046875
        },
        {
          "name": "B5",
          "midi": 83,
          "time": 59.2109375,
          "velocity": 0.3858267716535433,
          "duration": 0.03125
        },
        {
          "name": "F#5",
          "midi": 78,
          "time": 59.2734375,
          "velocity": 0.33070866141732286,
          "duration": 0.0625
        },
        {
          "name": "D#5",
          "midi": 75,
          "time": 59.359375,
          "velocity": 0.31496062992125984,
          "duration": 0.0546875
        },
        {
          "name": "B4",
          "midi": 71,
          "time": 59.4296875,
          "velocity": 0.44881889763779526,
          "duration": 0.15625
        },
        {
          "name": "C#5",
          "midi": 73,
          "time": 59.4765625,
          "velocity": 0.7559055118110236,
          "duration": 0.0078125
        },
        {
          "name": "D#5",
          "midi": 75,
          "time": 59.53125,
          "velocity": 0.8031496062992126,
          "duration": 0.0234375
        },
        {
          "name": "E5",
          "midi": 76,
          "time": 59.578125,
          "velocity": 0.8031496062992126,
          "duration": 0.0234375
        },
        {
          "name": "F#5",
          "midi": 78,
          "time": 59.6171875,
          "velocity": 0.8346456692913385,
          "duration": 0.171875
        },
        {
          "name": "B5",
          "midi": 83,
          "time": 59.6171875,
          "velocity": 0.6456692913385826,
          "duration": 0.0546875
        },
        {
          "name": "D#5",
          "midi": 75,
          "time": 59.765625,
          "velocity": 0.6062992125984252,
          "duration": 0.0546875
        },
        {
          "name": "B4",
          "midi": 71,
          "time": 59.84375,
          "velocity": 0.5354330708661418,
          "duration": 0.046875
        },
        {
          "name": "B4",
          "midi": 71,
          "time": 60,
          "velocity": 0.5196850393700787,
          "duration": 0.0234375
        },
        {
          "name": "B5",
          "midi": 83,
          "time": 60,
          "velocity": 0.4881889763779528,
          "duration": 0.0078125
        },
        {
          "name": "C#6",
          "midi": 85,
          "time": 60.046875,
          "velocity": 0.5275590551181102,
          "duration": 0.0078125
        },
        {
          "name": "C#5",
          "midi": 73,
          "time": 60.046875,
          "velocity": 0.5511811023622047,
          "duration": 0.015625
        },
        {
          "name": "D#5",
          "midi": 75,
          "time": 60.09375,
          "velocity": 0.5748031496062992,
          "duration": 0.015625
        },
        {
          "name": "D#6",
          "midi": 87,
          "time": 60.09375,
          "velocity": 0.5511811023622047,
          "duration": 0.03125
        },
        {
          "name": "E5",
          "midi": 76,
          "time": 60.140625,
          "velocity": 0.5905511811023622,
          "duration": 0.03125
        },
        {
          "name": "E6",
          "midi": 88,
          "time": 60.140625,
          "velocity": 0.5984251968503937,
          "duration": 0.03125
        },
        {
          "name": "F#5",
          "midi": 78,
          "time": 60.1875,
          "velocity": 0.7165354330708661,
          "duration": 0.140625
        },
        {
          "name": "F#6",
          "midi": 90,
          "time": 60.1875,
          "velocity": 0.7086614173228346,
          "duration": 0.1328125
        },
        {
          "name": "D#5",
          "midi": 75,
          "time": 60.2578125,
          "velocity": 0.889763779527559,
          "duration": 0.0546875
        },
        {
          "name": "B4",
          "midi": 71,
          "time": 60.3359375,
          "velocity": 0.7401574803149606,
          "duration": 0.0625
        },
        {
          "name": "F#6",
          "midi": 90,
          "time": 60.75,
          "velocity": 0.4645669291338583,
          "duration": 0.0390625
        },
        {
          "name": "D#6",
          "midi": 87,
          "time": 60.8125,
          "velocity": 0.44881889763779526,
          "duration": 0.0625
        },
        {
          "name": "B5",
          "midi": 83,
          "time": 60.890625,
          "velocity": 0.3937007874015748,
          "duration": 0.046875
        },
        {
          "name": "F#5",
          "midi": 78,
          "time": 60.96875,
          "velocity": 0.3543307086614173,
          "duration": 0.0546875
        },
        {
          "name": "D#5",
          "midi": 75,
          "time": 61.0390625,
          "velocity": 0.2992125984251969,
          "duration": 0.0390625
        },
        {
          "name": "B4",
          "midi": 71,
          "time": 61.125,
          "velocity": 0.41732283464566927,
          "duration": 0.1484375
        },
        {
          "name": "C#5",
          "midi": 73,
          "time": 61.171875,
          "velocity": 0.7559055118110236,
          "duration": 0.03125
        },
        {
          "name": "D#5",
          "midi": 75,
          "time": 61.2109375,
          "velocity": 0.7874015748031497,
          "duration": 0.0078125
        },
        {
          "name": "E5",
          "midi": 76,
          "time": 61.2578125,
          "velocity": 0.8188976377952756,
          "duration": 0.03125
        },
        {
          "name": "F#5",
          "midi": 78,
          "time": 61.3046875,
          "velocity": 0.8267716535433071,
          "duration": 0.1640625
        },
        {
          "name": "B5",
          "midi": 83,
          "time": 61.3125,
          "velocity": 0.7637795275590551,
          "duration": 0.0546875
        },
        {
          "name": "D#5",
          "midi": 75,
          "time": 61.4609375,
          "velocity": 0.6299212598425197,
          "duration": 0.0546875
        },
        {
          "name": "B4",
          "midi": 71,
          "time": 61.53125,
          "velocity": 0.5354330708661418,
          "duration": 0.03125
        },
        {
          "name": "B4",
          "midi": 71,
          "time": 61.6796875,
          "velocity": 0.5196850393700787,
          "duration": 0.0078125
        },
        {
          "name": "B5",
          "midi": 83,
          "time": 61.6796875,
          "velocity": 0.4881889763779528,
          "duration": 0.0078125
        },
        {
          "name": "C#6",
          "midi": 85,
          "time": 61.7265625,
          "velocity": 0.5118110236220472,
          "duration": 0.0234375
        },
        {
          "name": "C#5",
          "midi": 73,
          "time": 61.734375,
          "velocity": 0.5196850393700787,
          "duration": 0.015625
        },
        {
          "name": "D#5",
          "midi": 75,
          "time": 61.78125,
          "velocity": 0.5590551181102362,
          "duration": 0.015625
        },
        {
          "name": "D#6",
          "midi": 87,
          "time": 61.78125,
          "velocity": 0.5511811023622047,
          "duration": 0.015625
        },
        {
          "name": "E5",
          "midi": 76,
          "time": 61.8203125,
          "velocity": 0.5984251968503937,
          "duration": 0.0078125
        },
        {
          "name": "E6",
          "midi": 88,
          "time": 61.828125,
          "velocity": 0.5984251968503937,
          "duration": 0.0234375
        },
        {
          "name": "F#5",
          "midi": 78,
          "time": 61.875,
          "velocity": 0.7244094488188977,
          "duration": 0.140625
        },
        {
          "name": "F#6",
          "midi": 90,
          "time": 61.875,
          "velocity": 0.7086614173228346,
          "duration": 0.15625
        },
        {
          "name": "D#5",
          "midi": 75,
          "time": 61.953125,
          "velocity": 0.8818897637795275,
          "duration": 0.046875
        },
        {
          "name": "B4",
          "midi": 71,
          "time": 62.03125,
          "velocity": 0.7401574803149606,
          "duration": 0.046875
        },
        {
          "name": "F#6",
          "midi": 90,
          "time": 62.4296875,
          "velocity": 0.4645669291338583,
          "duration": 0.0546875
        },
        {
          "name": "D6",
          "midi": 86,
          "time": 62.5078125,
          "velocity": 0.44881889763779526,
          "duration": 0.0390625
        },
        {
          "name": "B5",
          "midi": 83,
          "time": 62.578125,
          "velocity": 0.3937007874015748,
          "duration": 0.03125
        },
        {
          "name": "F#5",
          "midi": 78,
          "time": 62.65625,
          "velocity": 0.3700787401574803,
          "duration": 0.0546875
        },
        {
          "name": "D5",
          "midi": 74,
          "time": 62.7265625,
          "velocity": 0.29133858267716534,
          "duration": 0.046875
        },
        {
          "name": "B4",
          "midi": 71,
          "time": 62.8125,
          "velocity": 0.4330708661417323,
          "duration": 0.1484375
        },
        {
          "name": "C#5",
          "midi": 73,
          "time": 62.8515625,
          "velocity": 0.7401574803149606,
          "duration": 0.0234375
        },
        {
          "name": "D5",
          "midi": 74,
          "time": 62.90625,
          "velocity": 0.7716535433070866,
          "duration": 0.0234375
        },
        {
          "name": "E5",
          "midi": 76,
          "time": 62.9453125,
          "velocity": 0.8346456692913385,
          "duration": 0.015625
        },
        {
          "name": "B5",
          "midi": 83,
          "time": 62.9921875,
          "velocity": 0.6141732283464567,
          "duration": 0.0625
        },
        {
          "name": "F#5",
          "midi": 78,
          "time": 62.9921875,
          "velocity": 0.8267716535433071,
          "duration": 0.171875
        },
        {
          "name": "D5",
          "midi": 74,
          "time": 63.140625,
          "velocity": 0.6220472440944882,
          "duration": 0.0546875
        },
        {
          "name": "B4",
          "midi": 71,
          "time": 63.21875,
          "velocity": 0.5669291338582677,
          "duration": 0.0546875
        },
        {
          "name": "B4",
          "midi": 71,
          "time": 63.375,
          "velocity": 0.48031496062992124,
          "duration": 0.03125
        },
        {
          "name": "B5",
          "midi": 83,
          "time": 63.375,
          "velocity": 0.5118110236220472,
          "duration": 0.0234375
        },
        {
          "name": "C#5",
          "midi": 73,
          "time": 63.4140625,
          "velocity": 0.5354330708661418,
          "duration": 0.0234375
        },
        {
          "name": "C#6",
          "midi": 85,
          "time": 63.421875,
          "velocity": 0.5275590551181102,
          "duration": 0.0390625
        },
        {
          "name": "D6",
          "midi": 86,
          "time": 63.46875,
          "velocity": 0.5511811023622047,
          "duration": 0.015625
        },
        {
          "name": "D5",
          "midi": 74,
          "time": 63.46875,
          "velocity": 0.5590551181102362,
          "duration": 0.0234375
        },
        {
          "name": "E6",
          "midi": 88,
          "time": 63.5078125,
          "velocity": 0.6062992125984252,
          "duration": 0.015625
        },
        {
          "name": "E5",
          "midi": 76,
          "time": 63.515625,
          "velocity": 0.5826771653543307,
          "duration": 0.0390625
        },
        {
          "name": "F#5",
          "midi": 78,
          "time": 63.5546875,
          "velocity": 0.6141732283464567,
          "duration": 0.15625
        },
        {
          "name": "F#6",
          "midi": 90,
          "time": 63.5546875,
          "velocity": 0.6456692913385826,
          "duration": 0.1484375
        },
        {
          "name": "D5",
          "midi": 74,
          "time": 63.640625,
          "velocity": 0.9212598425196851,
          "duration": 0.046875
        },
        {
          "name": "B4",
          "midi": 71,
          "time": 63.7109375,
          "velocity": 0.7244094488188977,
          "duration": 0.03125
        },
        {
          "name": "F#6",
          "midi": 90,
          "time": 64.125,
          "velocity": 0.48031496062992124,
          "duration": 0.0546875
        },
        {
          "name": "D6",
          "midi": 86,
          "time": 64.1953125,
          "velocity": 0.44881889763779526,
          "duration": 0.0625
        },
        {
          "name": "B5",
          "midi": 83,
          "time": 64.265625,
          "velocity": 0.4094488188976378,
          "duration": 0.03125
        },
        {
          "name": "F#5",
          "midi": 78,
          "time": 64.34375,
          "velocity": 0.36220472440944884,
          "duration": 0.046875
        },
        {
          "name": "D5",
          "midi": 74,
          "time": 64.421875,
          "velocity": 0.3228346456692913,
          "duration": 0.0546875
        },
        {
          "name": "B4",
          "midi": 71,
          "time": 64.4921875,
          "velocity": 0.4094488188976378,
          "duration": 0.15625
        },
        {
          "name": "C#5",
          "midi": 73,
          "time": 64.546875,
          "velocity": 0.7480314960629921,
          "duration": 0.0234375
        },
        {
          "name": "D5",
          "midi": 74,
          "time": 64.5859375,
          "velocity": 0.7952755905511811,
          "duration": 0.015625
        },
        {
          "name": "E5",
          "midi": 76,
          "time": 64.6328125,
          "velocity": 0.84251968503937,
          "duration": 0.0078125
        },
        {
          "name": "B5",
          "midi": 83,
          "time": 64.6796875,
          "velocity": 0.6299212598425197,
          "duration": 0.0390625
        },
        {
          "name": "F#5",
          "midi": 78,
          "time": 64.6796875,
          "velocity": 0.8031496062992126,
          "duration": 0.15625
        },
        {
          "name": "D5",
          "midi": 74,
          "time": 64.8203125,
          "velocity": 0.5984251968503937,
          "duration": 0.0546875
        },
        {
          "name": "B4",
          "midi": 71,
          "time": 64.90625,
          "velocity": 0.5669291338582677,
          "duration": 0.0546875
        },
        {
          "name": "B5",
          "midi": 83,
          "time": 65.0625,
          "velocity": 0.5039370078740157,
          "duration": 0.03125
        },
        {
          "name": "B4",
          "midi": 71,
          "time": 65.0625,
          "velocity": 0.49606299212598426,
          "duration": 0.0078125
        },
        {
          "name": "C#5",
          "midi": 73,
          "time": 65.1015625,
          "velocity": 0.5196850393700787,
          "duration": 0.015625
        },
        {
          "name": "C#6",
          "midi": 85,
          "time": 65.109375,
          "velocity": 0.5354330708661418,
          "duration": 0.0234375
        },
        {
          "name": "D5",
          "midi": 74,
          "time": 65.1484375,
          "velocity": 0.5590551181102362,
          "duration": 0.015625
        },
        {
          "name": "D6",
          "midi": 86,
          "time": 65.15625,
          "velocity": 0.5669291338582677,
          "duration": 0.015625
        },
        {
          "name": "E5",
          "midi": 76,
          "time": 65.1953125,
          "velocity": 0.5748031496062992,
          "duration": 0.03125
        },
        {
          "name": "E6",
          "midi": 88,
          "time": 65.203125,
          "velocity": 0.6141732283464567,
          "duration": 0.0234375
        },
        {
          "name": "F#5",
          "midi": 78,
          "time": 65.2421875,
          "velocity": 0.6299212598425197,
          "duration": 0.15625
        },
        {
          "name": "F#6",
          "midi": 90,
          "time": 65.25,
          "velocity": 0.7086614173228346,
          "duration": 0.1484375
        },
        {
          "name": "D5",
          "midi": 74,
          "time": 65.328125,
          "velocity": 0.8818897637795275,
          "duration": 0.0390625
        },
        {
          "name": "B4",
          "midi": 71,
          "time": 65.3984375,
          "velocity": 0.7244094488188977,
          "duration": 0.0390625
        },
        {
          "name": "A6",
          "midi": 93,
          "time": 65.8125,
          "velocity": 0.4645669291338583,
          "duration": 0.0546875
        },
        {
          "name": "F#6",
          "midi": 90,
          "time": 65.8828125,
          "velocity": 0.44881889763779526,
          "duration": 0.0546875
        },
        {
          "name": "D6",
          "midi": 86,
          "time": 65.9609375,
          "velocity": 0.4015748031496063,
          "duration": 0.0546875
        },
        {
          "name": "A5",
          "midi": 81,
          "time": 66.0234375,
          "velocity": 0.33070866141732286,
          "duration": 0.046875
        },
        {
          "name": "F#5",
          "midi": 78,
          "time": 66.1015625,
          "velocity": 0.2992125984251969,
          "duration": 0.0390625
        },
        {
          "name": "D5",
          "midi": 74,
          "time": 66.1796875,
          "velocity": 0.44881889763779526,
          "duration": 0.1484375
        },
        {
          "name": "E5",
          "midi": 76,
          "time": 66.2265625,
          "velocity": 0.7322834645669292,
          "duration": 0.0234375
        },
        {
          "name": "F#5",
          "midi": 78,
          "time": 66.28125,
          "velocity": 0.7637795275590551,
          "duration": 0.0390625
        },
        {
          "name": "G5",
          "midi": 79,
          "time": 66.328125,
          "velocity": 0.8267716535433071,
          "duration": 0.0390625
        },
        {
          "name": "D6",
          "midi": 86,
          "time": 66.3671875,
          "velocity": 0.6299212598425197,
          "duration": 0.0546875
        },
        {
          "name": "A5",
          "midi": 81,
          "time": 66.375,
          "velocity": 0.905511811023622,
          "duration": 0.1640625
        },
        {
          "name": "F#5",
          "midi": 78,
          "time": 66.5234375,
          "velocity": 0.6220472440944882,
          "duration": 0.0546875
        },
        {
          "name": "D5",
          "midi": 74,
          "time": 66.59375,
          "velocity": 0.5669291338582677,
          "duration": 0.03125
        },
        {
          "name": "D5",
          "midi": 74,
          "time": 66.7421875,
          "velocity": 0.5118110236220472,
          "duration": 0.0078125
        },
        {
          "name": "D6",
          "midi": 86,
          "time": 66.75,
          "velocity": 0.5118110236220472,
          "duration": 0.015625
        },
        {
          "name": "E6",
          "midi": 88,
          "time": 66.7890625,
          "velocity": 0.5354330708661418,
          "duration": 0.03125
        },
        {
          "name": "E5",
          "midi": 76,
          "time": 66.7890625,
          "velocity": 0.5118110236220472,
          "duration": 0.0234375
        },
        {
          "name": "F#5",
          "midi": 78,
          "time": 66.84375,
          "velocity": 0.5826771653543307,
          "duration": 0.03125
        },
        {
          "name": "F#6",
          "midi": 90,
          "time": 66.84375,
          "velocity": 0.5826771653543307,
          "duration": 0.0078125
        },
        {
          "name": "G5",
          "midi": 79,
          "time": 66.8828125,
          "velocity": 0.5905511811023622,
          "duration": 0.015625
        },
        {
          "name": "G6",
          "midi": 91,
          "time": 66.890625,
          "velocity": 0.5905511811023622,
          "duration": 0.0390625
        },
        {
          "name": "A6",
          "midi": 93,
          "time": 66.9296875,
          "velocity": 0.6141732283464567,
          "duration": 0.140625
        },
        {
          "name": "A5",
          "midi": 81,
          "time": 66.9375,
          "velocity": 0.7007874015748031,
          "duration": 0.1328125
        },
        {
          "name": "E5",
          "midi": 76,
          "time": 67.0078125,
          "velocity": 0.905511811023622,
          "duration": 0.0390625
        },
        {
          "name": "C#5",
          "midi": 73,
          "time": 67.0859375,
          "velocity": 0.7559055118110236,
          "duration": 0.0390625
        },
        {
          "name": "A6",
          "midi": 93,
          "time": 67.4921875,
          "velocity": 0.44881889763779526,
          "duration": 0.0390625
        },
        {
          "name": "F#6",
          "midi": 90,
          "time": 67.5625,
          "velocity": 0.4251968503937008,
          "duration": 0.03125
        },
        {
          "name": "D6",
          "midi": 86,
          "time": 67.6328125,
          "velocity": 0.3858267716535433,
          "duration": 0.046875
        },
        {
          "name": "A5",
          "midi": 81,
          "time": 67.71875,
          "velocity": 0.3543307086614173,
          "duration": 0.0390625
        },
        {
          "name": "F#5",
          "midi": 78,
          "time": 67.796875,
          "velocity": 0.33070866141732286,
          "duration": 0.046875
        },
        {
          "name": "D5",
          "midi": 74,
          "time": 67.8671875,
          "velocity": 0.41732283464566927,
          "duration": 0.171875
        },
        {
          "name": "E5",
          "midi": 76,
          "time": 67.921875,
          "velocity": 0.7559055118110236,
          "duration": 0.03125
        },
        {
          "name": "F#5",
          "midi": 78,
          "time": 67.96875,
          "velocity": 0.7952755905511811,
          "duration": 0.015625
        },
        {
          "name": "G5",
          "midi": 79,
          "time": 68.015625,
          "velocity": 0.8031496062992126,
          "duration": 0.0390625
        },
        {
          "name": "A5",
          "midi": 81,
          "time": 68.0546875,
          "velocity": 0.84251968503937,
          "duration": 0.1484375
        },
        {
          "name": "D6",
          "midi": 86,
          "time": 68.0625,
          "velocity": 0.7244094488188977,
          "duration": 0.0546875
        },
        {
          "name": "F#5",
          "midi": 78,
          "time": 68.2109375,
          "velocity": 0.6299212598425197,
          "duration": 0.0546875
        },
        {
          "name": "D5",
          "midi": 74,
          "time": 68.28125,
          "velocity": 0.5433070866141733,
          "duration": 0.0546875
        },
        {
          "name": "D6",
          "midi": 86,
          "time": 68.4296875,
          "velocity": 0.5039370078740157,
          "duration": 0.0078125
        },
        {
          "name": "D5",
          "midi": 74,
          "time": 68.4375,
          "velocity": 0.48031496062992124,
          "duration": 0.0234375
        },
        {
          "name": "E6",
          "midi": 88,
          "time": 68.4765625,
          "velocity": 0.5118110236220472,
          "duration": 0.0234375
        },
        {
          "name": "E5",
          "midi": 76,
          "time": 68.4765625,
          "velocity": 0.5511811023622047,
          "duration": 0.0078125
        },
        {
          "name": "F#6",
          "midi": 90,
          "time": 68.5234375,
          "velocity": 0.5748031496062992,
          "duration": 0.015625
        },
        {
          "name": "F#5",
          "midi": 78,
          "time": 68.5234375,
          "velocity": 0.5748031496062992,
          "duration": 0.0078125
        },
        {
          "name": "G5",
          "midi": 79,
          "time": 68.5703125,
          "velocity": 0.6062992125984252,
          "duration": 0.0234375
        },
        {
          "name": "G6",
          "midi": 91,
          "time": 68.578125,
          "velocity": 0.6062992125984252,
          "duration": 0.0234375
        },
        {
          "name": "A5",
          "midi": 81,
          "time": 68.6171875,
          "velocity": 0.6377952755905512,
          "duration": 0.1328125
        },
        {
          "name": "A6",
          "midi": 93,
          "time": 68.6171875,
          "velocity": 0.6062992125984252,
          "duration": 0.140625
        },
        {
          "name": "F#5",
          "midi": 78,
          "time": 68.6953125,
          "velocity": 0.905511811023622,
          "duration": 0.0390625
        },
        {
          "name": "D5",
          "midi": 74,
          "time": 68.78125,
          "velocity": 0.7637795275590551,
          "duration": 0.03125
        },
        {
          "name": "A6",
          "midi": 93,
          "time": 69.1796875,
          "velocity": 0.48031496062992124,
          "duration": 0.046875
        },
        {
          "name": "F#6",
          "midi": 90,
          "time": 69.25,
          "velocity": 0.44881889763779526,
          "duration": 0.0546875
        },
        {
          "name": "D6",
          "midi": 86,
          "time": 69.328125,
          "velocity": 0.3937007874015748,
          "duration": 0.03125
        },
        {
          "name": "A5",
          "midi": 81,
          "time": 69.3984375,
          "velocity": 0.33858267716535434,
          "duration": 0.0625
        },
        {
          "name": "F#5",
          "midi": 78,
          "time": 69.4765625,
          "velocity": 0.2992125984251969,
          "duration": 0.0390625
        },
        {
          "name": "D5",
          "midi": 74,
          "time": 69.5546875,
          "velocity": 0.4330708661417323,
          "duration": 0.171875
        },
        {
          "name": "E5",
          "midi": 76,
          "time": 69.6015625,
          "velocity": 0.7401574803149606,
          "duration": 0.03125
        },
        {
          "name": "F#5",
          "midi": 78,
          "time": 69.65625,
          "velocity": 0.7952755905511811,
          "duration": 0.0234375
        },
        {
          "name": "G5",
          "midi": 79,
          "time": 69.6953125,
          "velocity": 0.8110236220472441,
          "duration": 0.0234375
        },
        {
          "name": "A5",
          "midi": 81,
          "time": 69.75,
          "velocity": 0.889763779527559,
          "duration": 0.1640625
        },
        {
          "name": "D6",
          "midi": 86,
          "time": 69.75,
          "velocity": 0.7165354330708661,
          "duration": 0.046875
        },
        {
          "name": "F#5",
          "midi": 78,
          "time": 69.890625,
          "velocity": 0.6299212598425197,
          "duration": 0.0546875
        },
        {
          "name": "D5",
          "midi": 74,
          "time": 69.9765625,
          "velocity": 0.5354330708661418,
          "duration": 0.0390625
        },
        {
          "name": "D5",
          "midi": 74,
          "time": 70.1171875,
          "velocity": 0.48031496062992124,
          "duration": 0.015625
        },
        {
          "name": "D6",
          "midi": 86,
          "time": 70.125,
          "velocity": 0.48031496062992124,
          "duration": 0.0234375
        },
        {
          "name": "E5",
          "midi": 76,
          "time": 70.1640625,
          "velocity": 0.5196850393700787,
          "duration": 0.0234375
        },
        {
          "name": "E6",
          "midi": 88,
          "time": 70.171875,
          "velocity": 0.5433070866141733,
          "duration": 0.0078125
        },
        {
          "name": "F#5",
          "midi": 78,
          "time": 70.2109375,
          "velocity": 0.5433070866141733,
          "duration": 0.015625
        },
        {
          "name": "F#6",
          "midi": 90,
          "time": 70.21875,
          "velocity": 0.5511811023622047,
          "duration": 0.015625
        },
        {
          "name": "G5",
          "midi": 79,
          "time": 70.265625,
          "velocity": 0.5826771653543307,
          "duration": 0.03125
        },
        {
          "name": "G6",
          "midi": 91,
          "time": 70.265625,
          "velocity": 0.6062992125984252,
          "duration": 0.0234375
        },
        {
          "name": "A5",
          "midi": 81,
          "time": 70.3125,
          "velocity": 0.7007874015748031,
          "duration": 0.15625
        },
        {
          "name": "A6",
          "midi": 93,
          "time": 70.3125,
          "velocity": 0.7244094488188977,
          "duration": 0.1484375
        },
        {
          "name": "F#5",
          "midi": 78,
          "time": 70.3828125,
          "velocity": 0.9212598425196851,
          "duration": 0.0390625
        },
        {
          "name": "D5",
          "midi": 74,
          "time": 70.4609375,
          "velocity": 0.7401574803149606,
          "duration": 0.03125
        },
        {
          "name": "A6",
          "midi": 93,
          "time": 70.875,
          "velocity": 0.44881889763779526,
          "duration": 0.0390625
        },
        {
          "name": "F#6",
          "midi": 90,
          "time": 70.9375,
          "velocity": 0.4094488188976378,
          "duration": 0.0546875
        },
        {
          "name": "D6",
          "midi": 86,
          "time": 71.015625,
          "velocity": 0.4015748031496063,
          "duration": 0.046875
        },
        {
          "name": "A5",
          "midi": 81,
          "time": 71.09375,
          "velocity": 0.3543307086614173,
          "duration": 0.0390625
        },
        {
          "name": "F#5",
          "midi": 78,
          "time": 71.171875,
          "velocity": 0.3228346456692913,
          "duration": 0.0625
        },
        {
          "name": "D5",
          "midi": 74,
          "time": 71.25,
          "velocity": 0.41732283464566927,
          "duration": 0.171875
        },
        {
          "name": "E5",
          "midi": 76,
          "time": 71.2890625,
          "velocity": 0.7637795275590551,
          "duration": 0.03125
        },
        {
          "name": "F#5",
          "midi": 78,
          "time": 71.34375,
          "velocity": 0.7795275590551181,
          "duration": 0.03125
        },
        {
          "name": "G5",
          "midi": 79,
          "time": 71.3828125,
          "velocity": 0.8267716535433071,
          "duration": 0.0234375
        },
        {
          "name": "D6",
          "midi": 86,
          "time": 71.4296875,
          "velocity": 0.6220472440944882,
          "duration": 0.046875
        },
        {
          "name": "A5",
          "midi": 81,
          "time": 71.4296875,
          "velocity": 0.84251968503937,
          "duration": 0.1484375
        },
        {
          "name": "F#5",
          "midi": 78,
          "time": 71.5859375,
          "velocity": 0.5984251968503937,
          "duration": 0.0390625
        },
        {
          "name": "D5",
          "midi": 74,
          "time": 71.6640625,
          "velocity": 0.5433070866141733,
          "duration": 0.046875
        },
        {
          "name": "D6",
          "midi": 86,
          "time": 71.8046875,
          "velocity": 0.48031496062992124,
          "duration": 0.03125
        },
        {
          "name": "D5",
          "midi": 74,
          "time": 71.8125,
          "velocity": 0.5118110236220472,
          "duration": 0.0234375
        },
        {
          "name": "E6",
          "midi": 88,
          "time": 71.8515625,
          "velocity": 0.5433070866141733,
          "duration": 0.0078125
        },
        {
          "name": "E5",
          "midi": 76,
          "time": 71.859375,
          "velocity": 0.5118110236220472,
          "duration": 0.03125
        },
        {
          "name": "F#5",
          "midi": 78,
          "time": 71.8984375,
          "velocity": 0.5748031496062992,
          "duration": 0.015625
        },
        {
          "name": "F#6",
          "midi": 90,
          "time": 71.90625,
          "velocity": 0.5669291338582677,
          "duration": 0.015625
        },
        {
          "name": "G5",
          "midi": 79,
          "time": 71.9453125,
          "velocity": 0.6062992125984252,
          "duration": 0.03125
        },
        {
          "name": "G6",
          "midi": 91,
          "time": 71.953125,
          "velocity": 0.5905511811023622,
          "duration": 0.015625
        },
        {
          "name": "A5",
          "midi": 81,
          "time": 71.9921875,
          "velocity": 0.6141732283464567,
          "duration": 0.1484375
        },
        {
          "name": "A6",
          "midi": 93,
          "time": 71.9921875,
          "velocity": 0.6299212598425197,
          "duration": 0.15625
        },
        {
          "name": "F#5",
          "midi": 78,
          "time": 72.0703125,
          "velocity": 0.8818897637795275,
          "duration": 0.0546875
        },
        {
          "name": "D5",
          "midi": 74,
          "time": 72.1484375,
          "velocity": 0.7322834645669292,
          "duration": 0.046875
        },
        {
          "name": "F#6",
          "midi": 90,
          "time": 72.5625,
          "velocity": 0.4566929133858268,
          "duration": 0.0390625
        },
        {
          "name": "C#6",
          "midi": 85,
          "time": 72.625,
          "velocity": 0.4409448818897638,
          "duration": 0.0625
        },
        {
          "name": "A5",
          "midi": 81,
          "time": 72.7109375,
          "velocity": 0.3858267716535433,
          "duration": 0.03125
        },
        {
          "name": "F#5",
          "midi": 78,
          "time": 72.78125,
          "velocity": 0.3700787401574803,
          "duration": 0.0625
        },
        {
          "name": "C#5",
          "midi": 73,
          "time": 72.8515625,
          "velocity": 0.2992125984251969,
          "duration": 0.0390625
        },
        {
          "name": "F#5",
          "midi": 78,
          "time": 72.9296875,
          "velocity": 0.7165354330708661,
          "duration": 0.0234375
        },
        {
          "name": "E5",
          "midi": 76,
          "time": 72.9921875,
          "velocity": 0.7244094488188977,
          "duration": 0.046875
        },
        {
          "name": "D5",
          "midi": 74,
          "time": 73.0625,
          "velocity": 0.7637795275590551,
          "duration": 0.046875
        },
        {
          "name": "C#6",
          "midi": 85,
          "time": 73.125,
          "velocity": 0.7007874015748031,
          "duration": 0.046875
        },
        {
          "name": "C#5",
          "midi": 73,
          "time": 73.125,
          "velocity": 0.905511811023622,
          "duration": 0.1640625
        },
        {
          "name": "A5",
          "midi": 81,
          "time": 73.203125,
          "velocity": 0.6377952755905512,
          "duration": 0.0546875
        },
        {
          "name": "F#5",
          "midi": 78,
          "time": 73.2734375,
          "velocity": 0.5984251968503937,
          "duration": 0.0625
        },
        {
          "name": "C#5",
          "midi": 73,
          "time": 73.3515625,
          "velocity": 0.5748031496062992,
          "duration": 0.0546875
        },
        {
          "name": "A4",
          "midi": 69,
          "time": 73.421875,
          "velocity": 0.4881889763779528,
          "duration": 0.0703125
        },
        {
          "name": "F#4",
          "midi": 66,
          "time": 73.5,
          "velocity": 0.48031496062992124,
          "duration": 0.171875
        },
        {
          "name": "F#5",
          "midi": 78,
          "time": 73.5,
          "velocity": 0.4881889763779528,
          "duration": 0.046875
        },
        {
          "name": "F#6",
          "midi": 90,
          "time": 73.5,
          "velocity": 0.49606299212598426,
          "duration": 0.0390625
        },
        {
          "name": "E6",
          "midi": 88,
          "time": 73.5546875,
          "velocity": 0.5196850393700787,
          "duration": 0.0234375
        },
        {
          "name": "E5",
          "midi": 76,
          "time": 73.5546875,
          "velocity": 0.5433070866141733,
          "duration": 0.0234375
        },
        {
          "name": "D5",
          "midi": 74,
          "time": 73.6171875,
          "velocity": 0.5590551181102362,
          "duration": 0.046875
        },
        {
          "name": "D6",
          "midi": 86,
          "time": 73.625,
          "velocity": 0.5354330708661418,
          "duration": 0.03125
        },
        {
          "name": "G#5",
          "midi": 80,
          "time": 73.6796875,
          "velocity": 0.9291338582677166,
          "duration": 0.0546875
        },
        {
          "name": "C#5",
          "midi": 73,
          "time": 73.6796875,
          "velocity": 0.6456692913385826,
          "duration": 0.1328125
        },
        {
          "name": "C#6",
          "midi": 85,
          "time": 73.6875,
          "velocity": 0.7165354330708661,
          "duration": 0.15625
        },
        {
          "name": "F5",
          "midi": 77,
          "time": 73.7578125,
          "velocity": 0.9133858267716536,
          "duration": 0.0390625
        },
        {
          "name": "C#5",
          "midi": 73,
          "time": 73.8359375,
          "velocity": 0.7637795275590551,
          "duration": 0.0390625
        },
        {
          "name": "F#6",
          "midi": 90,
          "time": 74.2421875,
          "velocity": 0.48031496062992124,
          "duration": 0.0390625
        },
        {
          "name": "C#6",
          "midi": 85,
          "time": 74.3203125,
          "velocity": 0.4330708661417323,
          "duration": 0.0546875
        },
        {
          "name": "A#5",
          "midi": 82,
          "time": 74.390625,
          "velocity": 0.3779527559055118,
          "duration": 0.0546875
        },
        {
          "name": "F#5",
          "midi": 78,
          "time": 74.4609375,
          "velocity": 0.33858267716535434,
          "duration": 0.0546875
        },
        {
          "name": "C#5",
          "midi": 73,
          "time": 74.5390625,
          "velocity": 0.29133858267716534,
          "duration": 0.046875
        },
        {
          "name": "C#5",
          "midi": 73,
          "time": 74.6171875,
          "velocity": 0.7244094488188977,
          "duration": 0.0234375
        },
        {
          "name": "A#4",
          "midi": 70,
          "time": 74.625,
          "velocity": 0.41732283464566927,
          "duration": 0.15625
        },
        {
          "name": "D#5",
          "midi": 75,
          "time": 74.6796875,
          "velocity": 0.7637795275590551,
          "duration": 0.03125
        },
        {
          "name": "F5",
          "midi": 77,
          "time": 74.75,
          "velocity": 0.7874015748031497,
          "duration": 0.03125
        },
        {
          "name": "F#5",
          "midi": 78,
          "time": 74.8046875,
          "velocity": 0.8267716535433071,
          "duration": 0.1484375
        },
        {
          "name": "C#6",
          "midi": 85,
          "time": 74.8125,
          "velocity": 0.7007874015748031,
          "duration": 0.0546875
        },
        {
          "name": "A#5",
          "midi": 82,
          "time": 74.8828125,
          "velocity": 0.6456692913385826,
          "duration": 0.0390625
        },
        {
          "name": "C#5",
          "midi": 73,
          "time": 75.03125,
          "velocity": 0.5433070866141733,
          "duration": 0.046875
        },
        {
          "name": "A#4",
          "midi": 70,
          "time": 75.109375,
          "velocity": 0.5275590551181102,
          "duration": 0.0390625
        },
        {
          "name": "C#6",
          "midi": 85,
          "time": 75.1796875,
          "velocity": 0.49606299212598426,
          "duration": 0.0234375
        },
        {
          "name": "C#5",
          "midi": 73,
          "time": 75.1875,
          "velocity": 0.5039370078740157,
          "duration": 0.046875
        },
        {
          "name": "D#5",
          "midi": 75,
          "time": 75.2421875,
          "velocity": 0.5196850393700787,
          "duration": 0.03125
        },
        {
          "name": "D#6",
          "midi": 87,
          "time": 75.25,
          "velocity": 0.5354330708661418,
          "duration": 0.03125
        },
        {
          "name": "F5",
          "midi": 77,
          "time": 75.3046875,
          "velocity": 0.5433070866141733,
          "duration": 0.046875
        },
        {
          "name": "F6",
          "midi": 89,
          "time": 75.3046875,
          "velocity": 0.5354330708661418,
          "duration": 0.046875
        },
        {
          "name": "F#5",
          "midi": 78,
          "time": 75.3671875,
          "velocity": 0.6062992125984252,
          "duration": 0.15625
        },
        {
          "name": "F#6",
          "midi": 90,
          "time": 75.375,
          "velocity": 0.7165354330708661,
          "duration": 0.1328125
        },
        {
          "name": "C#5",
          "midi": 73,
          "time": 75.4375,
          "velocity": 0.889763779527559,
          "duration": 0.0390625
        },
        {
          "name": "A#5",
          "midi": 82,
          "time": 75.5,
          "velocity": 0.7637795275590551,
          "duration": 0.046875
        },
        {
          "name": "G5",
          "midi": 79,
          "time": 75.9296875,
          "velocity": 0.6692913385826772,
          "duration": 0.140625
        },
        {
          "name": "B4",
          "midi": 71,
          "time": 75.9375,
          "velocity": 0.6456692913385826,
          "duration": 0.1171875
        },
        {
          "name": "C6",
          "midi": 84,
          "time": 79.3046875,
          "velocity": 0.36220472440944884,
          "duration": 0.0546875
        },
        {
          "name": "B5",
          "midi": 83,
          "time": 79.3984375,
          "velocity": 0.3779527559055118,
          "duration": 0.0703125
        },
        {
          "name": "G#5",
          "midi": 80,
          "time": 79.40625,
          "velocity": 0.3858267716535433,
          "duration": 0.0546875
        },
        {
          "name": "C6",
          "midi": 84,
          "time": 79.5,
          "velocity": 0.4094488188976378,
          "duration": 0.0546875
        },
        {
          "name": "B5",
          "midi": 83,
          "time": 79.5859375,
          "velocity": 0.3228346456692913,
          "duration": 0.0625
        },
        {
          "name": "G#5",
          "midi": 80,
          "time": 79.59375,
          "velocity": 0.31496062992125984,
          "duration": 0.0859375
        },
        {
          "name": "C6",
          "midi": 84,
          "time": 79.6875,
          "velocity": 0.3543307086614173,
          "duration": 0.0546875
        },
        {
          "name": "G#5",
          "midi": 80,
          "time": 79.7734375,
          "velocity": 0.3700787401574803,
          "duration": 0.0703125
        },
        {
          "name": "B5",
          "midi": 83,
          "time": 79.78125,
          "velocity": 0.3858267716535433,
          "duration": 0.078125
        },
        {
          "name": "C6",
          "midi": 84,
          "time": 79.875,
          "velocity": 0.5039370078740157,
          "duration": 0.0546875
        },
        {
          "name": "G#5",
          "midi": 80,
          "time": 79.9609375,
          "velocity": 0.5511811023622047,
          "duration": 0.0546875
        },
        {
          "name": "B5",
          "midi": 83,
          "time": 79.96875,
          "velocity": 0.5433070866141733,
          "duration": 0.0546875
        },
        {
          "name": "C6",
          "midi": 84,
          "time": 80.0546875,
          "velocity": 0.5826771653543307,
          "duration": 0.078125
        },
        {
          "name": "B5",
          "midi": 83,
          "time": 80.1484375,
          "velocity": 0.5669291338582677,
          "duration": 0.0546875
        },
        {
          "name": "G#5",
          "midi": 80,
          "time": 80.15625,
          "velocity": 0.5826771653543307,
          "duration": 0.0625
        },
        {
          "name": "C6",
          "midi": 84,
          "time": 80.2421875,
          "velocity": 0.6220472440944882,
          "duration": 0.0859375
        },
        {
          "name": "G#5",
          "midi": 80,
          "time": 80.34375,
          "velocity": 0.6614173228346457,
          "duration": 0.078125
        },
        {
          "name": "B5",
          "midi": 83,
          "time": 80.34375,
          "velocity": 0.6299212598425197,
          "duration": 0.0546875
        },
        {
          "name": "C6",
          "midi": 84,
          "time": 80.4375,
          "velocity": 0.7637795275590551,
          "duration": 0.0625
        },
        {
          "name": "G#5",
          "midi": 80,
          "time": 80.53125,
          "velocity": 0.7007874015748031,
          "duration": 0.0625
        },
        {
          "name": "B5",
          "midi": 83,
          "time": 80.53125,
          "velocity": 0.7007874015748031,
          "duration": 0.0703125
        },
        {
          "name": "C6",
          "midi": 84,
          "time": 80.625,
          "velocity": 0.7637795275590551,
          "duration": 0.0625
        },
        {
          "name": "B5",
          "midi": 83,
          "time": 80.7109375,
          "velocity": 0.7795275590551181,
          "duration": 0.0703125
        },
        {
          "name": "G#5",
          "midi": 80,
          "time": 80.71875,
          "velocity": 0.8031496062992126,
          "duration": 0.0703125
        },
        {
          "name": "C6",
          "midi": 84,
          "time": 80.8046875,
          "velocity": 0.8110236220472441,
          "duration": 0.078125
        },
        {
          "name": "G#5",
          "midi": 80,
          "time": 80.8984375,
          "velocity": 0.8976377952755905,
          "duration": 0.0625
        },
        {
          "name": "B5",
          "midi": 83,
          "time": 80.90625,
          "velocity": 0.8740157480314961,
          "duration": 0.0625
        },
        {
          "name": "G5",
          "midi": 79,
          "time": 80.9921875,
          "velocity": 0.84251968503937,
          "duration": 0.0546875
        },
        {
          "name": "C6",
          "midi": 84,
          "time": 80.9921875,
          "velocity": 0.8188976377952756,
          "duration": 0.046875
        },
        {
          "name": "C6",
          "midi": 84,
          "time": 81.0859375,
          "velocity": 0.7716535433070866,
          "duration": 0.0703125
        },
        {
          "name": "G5",
          "midi": 79,
          "time": 81.09375,
          "velocity": 0.7795275590551181,
          "duration": 0.0625
        },
        {
          "name": "F#5",
          "midi": 78,
          "time": 81.1796875,
          "velocity": 0.7637795275590551,
          "duration": 0.0625
        },
        {
          "name": "B5",
          "midi": 83,
          "time": 81.1796875,
          "velocity": 0.7401574803149606,
          "duration": 0.046875
        },
        {
          "name": "B5",
          "midi": 83,
          "time": 81.2734375,
          "velocity": 0.7165354330708661,
          "duration": 0.046875
        },
        {
          "name": "F#5",
          "midi": 78,
          "time": 81.28125,
          "velocity": 0.7244094488188977,
          "duration": 0.0546875
        },
        {
          "name": "A#5",
          "midi": 82,
          "time": 81.375,
          "velocity": 0.6850393700787402,
          "duration": 0.0625
        },
        {
          "name": "F5",
          "midi": 77,
          "time": 81.375,
          "velocity": 0.6614173228346457,
          "duration": 0.0703125
        },
        {
          "name": "F5",
          "midi": 77,
          "time": 81.4609375,
          "velocity": 0.6220472440944882,
          "duration": 0.0625
        },
        {
          "name": "A#5",
          "midi": 82,
          "time": 81.4609375,
          "velocity": 0.6062992125984252,
          "duration": 0.0625
        },
        {
          "name": "E5",
          "midi": 76,
          "time": 81.5625,
          "velocity": 0.7086614173228346,
          "duration": 0.046875
        },
        {
          "name": "A5",
          "midi": 81,
          "time": 81.5625,
          "velocity": 0.7244094488188977,
          "duration": 0.0546875
        },
        {
          "name": "E5",
          "midi": 76,
          "time": 81.6484375,
          "velocity": 0.7007874015748031,
          "duration": 0.046875
        },
        {
          "name": "A5",
          "midi": 81,
          "time": 81.65625,
          "velocity": 0.6850393700787402,
          "duration": 0.0703125
        },
        {
          "name": "G#5",
          "midi": 80,
          "time": 81.7421875,
          "velocity": 0.6929133858267716,
          "duration": 0.0546875
        },
        {
          "name": "D#5",
          "midi": 75,
          "time": 81.75,
          "velocity": 0.6850393700787402,
          "duration": 0.046875
        },
        {
          "name": "D#5",
          "midi": 75,
          "time": 81.8359375,
          "velocity": 0.6850393700787402,
          "duration": 0.046875
        },
        {
          "name": "G#5",
          "midi": 80,
          "time": 81.84375,
          "velocity": 0.6692913385826772,
          "duration": 0.0625
        },
        {
          "name": "D5",
          "midi": 74,
          "time": 81.9296875,
          "velocity": 0.6377952755905512,
          "duration": 0.0625
        },
        {
          "name": "G5",
          "midi": 79,
          "time": 81.9375,
          "velocity": 0.6614173228346457,
          "duration": 0.0703125
        },
        {
          "name": "G5",
          "midi": 79,
          "time": 82.0234375,
          "velocity": 0.6377952755905512,
          "duration": 0.0703125
        },
        {
          "name": "D5",
          "midi": 74,
          "time": 82.03125,
          "velocity": 0.6299212598425197,
          "duration": 0.0703125
        },
        {
          "name": "F#5",
          "midi": 78,
          "time": 82.1171875,
          "velocity": 0.6299212598425197,
          "duration": 0.0703125
        },
        {
          "name": "C#5",
          "midi": 73,
          "time": 82.1171875,
          "velocity": 0.6062992125984252,
          "duration": 0.0703125
        },
        {
          "name": "F#5",
          "midi": 78,
          "time": 82.2109375,
          "velocity": 0.6377952755905512,
          "duration": 0.0703125
        },
        {
          "name": "C#5",
          "midi": 73,
          "time": 82.21875,
          "velocity": 0.6062992125984252,
          "duration": 0.0703125
        },
        {
          "name": "F5",
          "midi": 77,
          "time": 82.3046875,
          "velocity": 0.6220472440944882,
          "duration": 0.0703125
        },
        {
          "name": "C5",
          "midi": 72,
          "time": 82.3125,
          "velocity": 0.6220472440944882,
          "duration": 0.046875
        },
        {
          "name": "F5",
          "midi": 77,
          "time": 82.3984375,
          "velocity": 0.6062992125984252,
          "duration": 0.0625
        },
        {
          "name": "C5",
          "midi": 72,
          "time": 82.40625,
          "velocity": 0.6377952755905512,
          "duration": 0.0703125
        },
        {
          "name": "B4",
          "midi": 71,
          "time": 82.4921875,
          "velocity": 0.5984251968503937,
          "duration": 0.0546875
        },
        {
          "name": "E5",
          "midi": 76,
          "time": 82.4921875,
          "velocity": 0.5826771653543307,
          "duration": 0.046875
        },
        {
          "name": "B4",
          "midi": 71,
          "time": 82.5859375,
          "velocity": 0.5984251968503937,
          "duration": 0.0546875
        },
        {
          "name": "E5",
          "midi": 76,
          "time": 82.5859375,
          "velocity": 0.5984251968503937,
          "duration": 0.0546875
        },
        {
          "name": "F5",
          "midi": 77,
          "time": 82.6796875,
          "velocity": 0.8188976377952756,
          "duration": 0.15625
        },
        {
          "name": "C5",
          "midi": 72,
          "time": 82.6875,
          "velocity": 0.8346456692913385,
          "duration": 0.140625
        },
        {
          "name": "C5",
          "midi": 72,
          "time": 82.875,
          "velocity": 0.7322834645669292,
          "duration": 0.25
        },
        {
          "name": "A5",
          "midi": 81,
          "time": 83.15625,
          "velocity": 0.6062992125984252,
          "duration": 0.0546875
        },
        {
          "name": "E5",
          "midi": 76,
          "time": 83.2421875,
          "velocity": 0.7637795275590551,
          "duration": 0.171875
        },
        {
          "name": "F5",
          "midi": 77,
          "time": 84.3671875,
          "velocity": 0.8267716535433071,
          "duration": 0.1484375
        },
        {
          "name": "C5",
          "midi": 72,
          "time": 84.5546875,
          "velocity": 0.7559055118110236,
          "duration": 0.265625
        },
        {
          "name": "A5",
          "midi": 81,
          "time": 84.8359375,
          "velocity": 0.6456692913385826,
          "duration": 0.078125
        },
        {
          "name": "E5",
          "midi": 76,
          "time": 84.9296875,
          "velocity": 0.7480314960629921,
          "duration": 0.1640625
        },
        {
          "name": "D6",
          "midi": 86,
          "time": 86.0546875,
          "velocity": 0.3543307086614173,
          "duration": 0.0625
        },
        {
          "name": "C#6",
          "midi": 85,
          "time": 86.1484375,
          "velocity": 0.3700787401574803,
          "duration": 0.0625
        },
        {
          "name": "A#5",
          "midi": 82,
          "time": 86.1484375,
          "velocity": 0.3937007874015748,
          "duration": 0.078125
        },
        {
          "name": "D6",
          "midi": 86,
          "time": 86.25,
          "velocity": 0.4330708661417323,
          "duration": 0.0703125
        },
        {
          "name": "C#6",
          "midi": 85,
          "time": 86.3359375,
          "velocity": 0.33070866141732286,
          "duration": 0.0703125
        },
        {
          "name": "A#5",
          "midi": 82,
          "time": 86.34375,
          "velocity": 0.33070866141732286,
          "duration": 0.078125
        },
        {
          "name": "D6",
          "midi": 86,
          "time": 86.4296875,
          "velocity": 0.3464566929133858,
          "duration": 0.0625
        },
        {
          "name": "C#6",
          "midi": 85,
          "time": 86.5234375,
          "velocity": 0.3779527559055118,
          "duration": 0.0859375
        },
        {
          "name": "A#5",
          "midi": 82,
          "time": 86.53125,
          "velocity": 0.4094488188976378,
          "duration": 0.0703125
        },
        {
          "name": "D6",
          "midi": 86,
          "time": 86.6171875,
          "velocity": 0.44881889763779526,
          "duration": 0.0703125
        },
        {
          "name": "C#6",
          "midi": 85,
          "time": 86.7109375,
          "velocity": 0.5590551181102362,
          "duration": 0.0625
        },
        {
          "name": "A#5",
          "midi": 82,
          "time": 86.71875,
          "velocity": 0.5275590551181102,
          "duration": 0.0703125
        },
        {
          "name": "D6",
          "midi": 86,
          "time": 86.8046875,
          "velocity": 0.5433070866141733,
          "duration": 0.0546875
        },
        {
          "name": "A#5",
          "midi": 82,
          "time": 86.90625,
          "velocity": 0.5748031496062992,
          "duration": 0.0859375
        },
        {
          "name": "C#6",
          "midi": 85,
          "time": 86.90625,
          "velocity": 0.5826771653543307,
          "duration": 0.0625
        },
        {
          "name": "D6",
          "midi": 86,
          "time": 87,
          "velocity": 0.6220472440944882,
          "duration": 0.0859375
        },
        {
          "name": "A#5",
          "midi": 82,
          "time": 87.0859375,
          "velocity": 0.6614173228346457,
          "duration": 0.0625
        },
        {
          "name": "C#6",
          "midi": 85,
          "time": 87.0859375,
          "velocity": 0.6614173228346457,
          "duration": 0.078125
        },
        {
          "name": "D6",
          "midi": 86,
          "time": 87.1796875,
          "velocity": 0.6692913385826772,
          "duration": 0.0859375
        },
        {
          "name": "A#5",
          "midi": 82,
          "time": 87.2734375,
          "velocity": 0.7244094488188977,
          "duration": 0.0703125
        },
        {
          "name": "C#6",
          "midi": 85,
          "time": 87.2734375,
          "velocity": 0.7086614173228346,
          "duration": 0.078125
        },
        {
          "name": "D6",
          "midi": 86,
          "time": 87.3671875,
          "velocity": 0.7559055118110236,
          "duration": 0.0625
        },
        {
          "name": "A#5",
          "midi": 82,
          "time": 87.4609375,
          "velocity": 0.7795275590551181,
          "duration": 0.0546875
        },
        {
          "name": "C#6",
          "midi": 85,
          "time": 87.4609375,
          "velocity": 0.7637795275590551,
          "duration": 0.0703125
        },
        {
          "name": "D6",
          "midi": 86,
          "time": 87.5546875,
          "velocity": 0.84251968503937,
          "duration": 0.0625
        },
        {
          "name": "C#6",
          "midi": 85,
          "time": 87.6484375,
          "velocity": 0.8740157480314961,
          "duration": 0.0625
        },
        {
          "name": "A#5",
          "midi": 82,
          "time": 87.6484375,
          "velocity": 0.8976377952755905,
          "duration": 0.0546875
        },
        {
          "name": "A5",
          "midi": 81,
          "time": 87.7421875,
          "velocity": 0.84251968503937,
          "duration": 0.0546875
        },
        {
          "name": "D6",
          "midi": 86,
          "time": 87.75,
          "velocity": 0.84251968503937,
          "duration": 0.0546875
        },
        {
          "name": "A5",
          "midi": 81,
          "time": 87.8359375,
          "velocity": 0.7637795275590551,
          "duration": 0.046875
        },
        {
          "name": "D6",
          "midi": 86,
          "time": 87.84375,
          "velocity": 0.7795275590551181,
          "duration": 0.0703125
        },
        {
          "name": "G#5",
          "midi": 80,
          "time": 87.9296875,
          "velocity": 0.7401574803149606,
          "duration": 0.0703125
        },
        {
          "name": "C#6",
          "midi": 85,
          "time": 87.9296875,
          "velocity": 0.7637795275590551,
          "duration": 0.046875
        },
        {
          "name": "G#5",
          "midi": 80,
          "time": 88.0234375,
          "velocity": 0.7007874015748031,
          "duration": 0.0703125
        },
        {
          "name": "C#6",
          "midi": 85,
          "time": 88.03125,
          "velocity": 0.7244094488188977,
          "duration": 0.0625
        },
        {
          "name": "G5",
          "midi": 79,
          "time": 88.1171875,
          "velocity": 0.6614173228346457,
          "duration": 0.0546875
        },
        {
          "name": "C6",
          "midi": 84,
          "time": 88.125,
          "velocity": 0.6456692913385826,
          "duration": 0.0625
        },
        {
          "name": "G5",
          "midi": 79,
          "time": 88.21875,
          "velocity": 0.6299212598425197,
          "duration": 0.0703125
        },
        {
          "name": "C6",
          "midi": 84,
          "time": 88.21875,
          "velocity": 0.6220472440944882,
          "duration": 0.0625
        },
        {
          "name": "B5",
          "midi": 83,
          "time": 88.3046875,
          "velocity": 0.6377952755905512,
          "duration": 0.0625
        },
        {
          "name": "F#5",
          "midi": 78,
          "time": 88.3046875,
          "velocity": 0.6141732283464567,
          "duration": 0.0703125
        },
        {
          "name": "F#5",
          "midi": 78,
          "time": 88.40625,
          "velocity": 0.6771653543307087,
          "duration": 0.046875
        },
        {
          "name": "B5",
          "midi": 83,
          "time": 88.40625,
          "velocity": 0.6771653543307087,
          "duration": 0.046875
        },
        {
          "name": "F5",
          "midi": 77,
          "time": 88.4921875,
          "velocity": 0.7007874015748031,
          "duration": 0.0625
        },
        {
          "name": "A#5",
          "midi": 82,
          "time": 88.5,
          "velocity": 0.6771653543307087,
          "duration": 0.0546875
        },
        {
          "name": "A#5",
          "midi": 82,
          "time": 88.5859375,
          "velocity": 0.6771653543307087,
          "duration": 0.046875
        },
        {
          "name": "F5",
          "midi": 77,
          "time": 88.59375,
          "velocity": 0.6535433070866141,
          "duration": 0.046875
        },
        {
          "name": "A5",
          "midi": 81,
          "time": 88.6796875,
          "velocity": 0.6771653543307087,
          "duration": 0.0546875
        },
        {
          "name": "E5",
          "midi": 76,
          "time": 88.6796875,
          "velocity": 0.6692913385826772,
          "duration": 0.046875
        },
        {
          "name": "E5",
          "midi": 76,
          "time": 88.78125,
          "velocity": 0.6535433070866141,
          "duration": 0.0546875
        },
        {
          "name": "A5",
          "midi": 81,
          "time": 88.78125,
          "velocity": 0.6220472440944882,
          "duration": 0.0703125
        },
        {
          "name": "D#5",
          "midi": 75,
          "time": 88.8671875,
          "velocity": 0.6062992125984252,
          "duration": 0.0546875
        },
        {
          "name": "G#5",
          "midi": 80,
          "time": 88.8671875,
          "velocity": 0.6299212598425197,
          "duration": 0.0703125
        },
        {
          "name": "D#5",
          "midi": 75,
          "time": 88.9609375,
          "velocity": 0.6062992125984252,
          "duration": 0.046875
        },
        {
          "name": "G#5",
          "midi": 80,
          "time": 88.96875,
          "velocity": 0.6456692913385826,
          "duration": 0.0546875
        },
        {
          "name": "D5",
          "midi": 74,
          "time": 89.0546875,
          "velocity": 0.6062992125984252,
          "duration": 0.046875
        },
        {
          "name": "G5",
          "midi": 79,
          "time": 89.0546875,
          "velocity": 0.6062992125984252,
          "duration": 0.046875
        },
        {
          "name": "D5",
          "midi": 74,
          "time": 89.1484375,
          "velocity": 0.6299212598425197,
          "duration": 0.046875
        },
        {
          "name": "G5",
          "midi": 79,
          "time": 89.15625,
          "velocity": 0.6377952755905512,
          "duration": 0.046875
        },
        {
          "name": "F#5",
          "midi": 78,
          "time": 89.25,
          "velocity": 0.6062992125984252,
          "duration": 0.0546875
        },
        {
          "name": "C#5",
          "midi": 73,
          "time": 89.25,
          "velocity": 0.6062992125984252,
          "duration": 0.046875
        },
        {
          "name": "C#5",
          "midi": 73,
          "time": 89.3359375,
          "velocity": 0.5748031496062992,
          "duration": 0.0546875
        },
        {
          "name": "F#5",
          "midi": 78,
          "time": 89.3359375,
          "velocity": 0.6062992125984252,
          "duration": 0.0625
        },
        {
          "name": "D#5",
          "midi": 75,
          "time": 89.4375,
          "velocity": 0.4330708661417323,
          "duration": 0.1640625
        },
        {
          "name": "G5",
          "midi": 79,
          "time": 89.4375,
          "velocity": 0.4409448818897638,
          "duration": 0.1640625
        },
        {
          "name": "D#5",
          "midi": 75,
          "time": 89.6171875,
          "velocity": 0.4251968503937008,
          "duration": 0.2421875
        },
        {
          "name": "B4",
          "midi": 71,
          "time": 89.9921875,
          "velocity": 0.5196850393700787,
          "duration": 0.5390625
        },
        {
          "name": "B4",
          "midi": 71,
          "time": 90.5546875,
          "velocity": 0.5275590551181102,
          "duration": 0.15625
        },
        {
          "name": "G4",
          "midi": 67,
          "time": 90.75,
          "velocity": 0.5275590551181102,
          "duration": 0.265625
        },
        {
          "name": "D#5",
          "midi": 75,
          "time": 91.1171875,
          "velocity": 0.44881889763779526,
          "duration": 0.4296875
        },
        {
          "name": "G5",
          "midi": 79,
          "time": 91.125,
          "velocity": 0.41732283464566927,
          "duration": 0.171875
        },
        {
          "name": "B4",
          "midi": 71,
          "time": 91.6875,
          "velocity": 0.5669291338582677,
          "duration": 0.5234375
        },
        {
          "name": "B4",
          "midi": 71,
          "time": 92.2421875,
          "velocity": 0.5275590551181102,
          "duration": 0.1484375
        },
        {
          "name": "G4",
          "midi": 67,
          "time": 92.4296875,
          "velocity": 0.5669291338582677,
          "duration": 0.265625
        },
        {
          "name": "G5",
          "midi": 79,
          "time": 92.8125,
          "velocity": 0.4330708661417323,
          "duration": 0.1640625
        },
        {
          "name": "E5",
          "midi": 76,
          "time": 93,
          "velocity": 0.44881889763779526,
          "duration": 0.2421875
        },
        {
          "name": "C5",
          "midi": 72,
          "time": 93.375,
          "velocity": 0.6062992125984252,
          "duration": 0.5390625
        },
        {
          "name": "C5",
          "midi": 72,
          "time": 93.9296875,
          "velocity": 0.5275590551181102,
          "duration": 0.1484375
        },
        {
          "name": "G4",
          "midi": 67,
          "time": 94.125,
          "velocity": 0.5275590551181102,
          "duration": 0.2578125
        },
        {
          "name": "G5",
          "midi": 79,
          "time": 94.5,
          "velocity": 0.41732283464566927,
          "duration": 0.15625
        },
        {
          "name": "E5",
          "midi": 76,
          "time": 94.6796875,
          "velocity": 0.4330708661417323,
          "duration": 0.2578125
        },
        {
          "name": "C5",
          "midi": 72,
          "time": 95.0625,
          "velocity": 0.5826771653543307,
          "duration": 0.53125
        },
        {
          "name": "A#5",
          "midi": 82,
          "time": 96.1796875,
          "velocity": 0.36220472440944884,
          "duration": 0.0546875
        },
        {
          "name": "G6",
          "midi": 91,
          "time": 96.1796875,
          "velocity": 0.3543307086614173,
          "duration": 0.078125
        },
        {
          "name": "C#6",
          "midi": 85,
          "time": 96.2734375,
          "velocity": 0.3779527559055118,
          "duration": 0.0546875
        },
        {
          "name": "F#6",
          "midi": 90,
          "time": 96.28125,
          "velocity": 0.4094488188976378,
          "duration": 0.0703125
        },
        {
          "name": "A#5",
          "midi": 82,
          "time": 96.3671875,
          "velocity": 0.4094488188976378,
          "duration": 0.0625
        },
        {
          "name": "G6",
          "midi": 91,
          "time": 96.375,
          "velocity": 0.44881889763779526,
          "duration": 0.0703125
        },
        {
          "name": "F#6",
          "midi": 90,
          "time": 96.4609375,
          "velocity": 0.31496062992125984,
          "duration": 0.0703125
        },
        {
          "name": "C#6",
          "midi": 85,
          "time": 96.46875,
          "velocity": 0.33070866141732286,
          "duration": 0.0546875
        },
        {
          "name": "A#5",
          "midi": 82,
          "time": 96.5546875,
          "velocity": 0.3700787401574803,
          "duration": 0.0703125
        },
        {
          "name": "G6",
          "midi": 91,
          "time": 96.5625,
          "velocity": 0.3700787401574803,
          "duration": 0.0625
        },
        {
          "name": "F#6",
          "midi": 90,
          "time": 96.6484375,
          "velocity": 0.3858267716535433,
          "duration": 0.0625
        },
        {
          "name": "C#6",
          "midi": 85,
          "time": 96.65625,
          "velocity": 0.3700787401574803,
          "duration": 0.078125
        },
        {
          "name": "A#5",
          "midi": 82,
          "time": 96.7421875,
          "velocity": 0.4330708661417323,
          "duration": 0.0625
        },
        {
          "name": "G6",
          "midi": 91,
          "time": 96.75,
          "velocity": 0.5118110236220472,
          "duration": 0.078125
        },
        {
          "name": "C#6",
          "midi": 85,
          "time": 96.8359375,
          "velocity": 0.5511811023622047,
          "duration": 0.078125
        },
        {
          "name": "F#6",
          "midi": 90,
          "time": 96.84375,
          "velocity": 0.5196850393700787,
          "duration": 0.0703125
        },
        {
          "name": "A#5",
          "midi": 82,
          "time": 96.9296875,
          "velocity": 0.5433070866141733,
          "duration": 0.078125
        },
        {
          "name": "G6",
          "midi": 91,
          "time": 96.9296875,
          "velocity": 0.5669291338582677,
          "duration": 0.0546875
        },
        {
          "name": "C#6",
          "midi": 85,
          "time": 97.0234375,
          "velocity": 0.5984251968503937,
          "duration": 0.078125
        },
        {
          "name": "F#6",
          "midi": 90,
          "time": 97.03125,
          "velocity": 0.5748031496062992,
          "duration": 0.0546875
        },
        {
          "name": "G6",
          "midi": 91,
          "time": 97.1171875,
          "velocity": 0.6299212598425197,
          "duration": 0.0625
        },
        {
          "name": "A#5",
          "midi": 82,
          "time": 97.1171875,
          "velocity": 0.5984251968503937,
          "duration": 0.0625
        },
        {
          "name": "C#6",
          "midi": 85,
          "time": 97.2109375,
          "velocity": 0.6299212598425197,
          "duration": 0.0625
        },
        {
          "name": "F#6",
          "midi": 90,
          "time": 97.2109375,
          "velocity": 0.6299212598425197,
          "duration": 0.0703125
        },
        {
          "name": "A#5",
          "midi": 82,
          "time": 97.3046875,
          "velocity": 0.6299212598425197,
          "duration": 0.0625
        },
        {
          "name": "G6",
          "midi": 91,
          "time": 97.3046875,
          "velocity": 0.6456692913385826,
          "duration": 0.0703125
        },
        {
          "name": "C#6",
          "midi": 85,
          "time": 97.3984375,
          "velocity": 0.6220472440944882,
          "duration": 0.0703125
        },
        {
          "name": "F#6",
          "midi": 90,
          "time": 97.40625,
          "velocity": 0.6062992125984252,
          "duration": 0.0546875
        },
        {
          "name": "G6",
          "midi": 91,
          "time": 97.4921875,
          "velocity": 0.6456692913385826,
          "duration": 0.0546875
        },
        {
          "name": "A#5",
          "midi": 82,
          "time": 97.5,
          "velocity": 0.6850393700787402,
          "duration": 0.0703125
        },
        {
          "name": "F#6",
          "midi": 90,
          "time": 97.5859375,
          "velocity": 0.6535433070866141,
          "duration": 0.0703125
        },
        {
          "name": "C#6",
          "midi": 85,
          "time": 97.59375,
          "velocity": 0.6850393700787402,
          "duration": 0.0546875
        },
        {
          "name": "A#5",
          "midi": 82,
          "time": 97.6875,
          "velocity": 0.6850393700787402,
          "duration": 0.0546875
        },
        {
          "name": "G6",
          "midi": 91,
          "time": 97.6875,
          "velocity": 0.6456692913385826,
          "duration": 0.078125
        },
        {
          "name": "C#6",
          "midi": 85,
          "time": 97.7734375,
          "velocity": 0.6456692913385826,
          "duration": 0.0625
        },
        {
          "name": "F#6",
          "midi": 90,
          "time": 97.78125,
          "velocity": 0.6692913385826772,
          "duration": 0.0546875
        },
        {
          "name": "G6",
          "midi": 91,
          "time": 97.8671875,
          "velocity": 0.6771653543307087,
          "duration": 0.0546875
        },
        {
          "name": "A#5",
          "midi": 82,
          "time": 97.875,
          "velocity": 0.6456692913385826,
          "duration": 0.078125
        },
        {
          "name": "C#6",
          "midi": 85,
          "time": 97.9609375,
          "velocity": 0.6456692913385826,
          "duration": 0.0703125
        },
        {
          "name": "F#6",
          "midi": 90,
          "time": 97.96875,
          "velocity": 0.6456692913385826,
          "duration": 0.0625
        },
        {
          "name": "A#5",
          "midi": 82,
          "time": 98.0546875,
          "velocity": 0.6929133858267716,
          "duration": 0.0625
        },
        {
          "name": "G6",
          "midi": 91,
          "time": 98.0625,
          "velocity": 0.7007874015748031,
          "duration": 0.0625
        },
        {
          "name": "F#6",
          "midi": 90,
          "time": 98.1484375,
          "velocity": 0.7165354330708661,
          "duration": 0.0625
        },
        {
          "name": "C#6",
          "midi": 85,
          "time": 98.15625,
          "velocity": 0.7086614173228346,
          "duration": 0.0703125
        },
        {
          "name": "A#5",
          "midi": 82,
          "time": 98.2421875,
          "velocity": 0.7244094488188977,
          "duration": 0.0703125
        },
        {
          "name": "G6",
          "midi": 91,
          "time": 98.25,
          "velocity": 0.7086614173228346,
          "duration": 0.0703125
        },
        {
          "name": "C#6",
          "midi": 85,
          "time": 98.3359375,
          "velocity": 0.7244094488188977,
          "duration": 0.078125
        },
        {
          "name": "F#6",
          "midi": 90,
          "time": 98.34375,
          "velocity": 0.7401574803149606,
          "duration": 0.078125
        },
        {
          "name": "A#5",
          "midi": 82,
          "time": 98.4375,
          "velocity": 0.8110236220472441,
          "duration": 0.0703125
        },
        {
          "name": "G6",
          "midi": 91,
          "time": 98.4375,
          "velocity": 0.84251968503937,
          "duration": 0.0703125
        },
        {
          "name": "C#6",
          "midi": 85,
          "time": 98.5234375,
          "velocity": 0.8188976377952756,
          "duration": 0.078125
        },
        {
          "name": "F#6",
          "midi": 90,
          "time": 98.5234375,
          "velocity": 0.8267716535433071,
          "duration": 0.0703125
        },
        {
          "name": "A#5",
          "midi": 82,
          "time": 98.6171875,
          "velocity": 0.84251968503937,
          "duration": 0.0703125
        },
        {
          "name": "G6",
          "midi": 91,
          "time": 98.625,
          "velocity": 0.7795275590551181,
          "duration": 0.0625
        },
        {
          "name": "C#6",
          "midi": 85,
          "time": 98.71875,
          "velocity": 0.8267716535433071,
          "duration": 0.0859375
        },
        {
          "name": "F#6",
          "midi": 90,
          "time": 98.71875,
          "velocity": 0.8031496062992126,
          "duration": 0.078125
        },
        {
          "name": "A#5",
          "midi": 82,
          "time": 98.8046875,
          "velocity": 0.7952755905511811,
          "duration": 0.0625
        },
        {
          "name": "G6",
          "midi": 91,
          "time": 98.8046875,
          "velocity": 0.8188976377952756,
          "duration": 0.0546875
        },
        {
          "name": "C#6",
          "midi": 85,
          "time": 98.8984375,
          "velocity": 0.8188976377952756,
          "duration": 0.0859375
        },
        {
          "name": "F#6",
          "midi": 90,
          "time": 98.8984375,
          "velocity": 0.7795275590551181,
          "duration": 0.0703125
        },
        {
          "name": "G6",
          "midi": 91,
          "time": 98.9921875,
          "velocity": 0.84251968503937,
          "duration": 0.078125
        },
        {
          "name": "A#5",
          "midi": 82,
          "time": 99,
          "velocity": 0.9212598425196851,
          "duration": 0.0703125
        },
        {
          "name": "C#6",
          "midi": 85,
          "time": 99.0859375,
          "velocity": 0.8267716535433071,
          "duration": 0.078125
        },
        {
          "name": "F#6",
          "midi": 90,
          "time": 99.09375,
          "velocity": 0.84251968503937,
          "duration": 0.0546875
        },
        {
          "name": "A#5",
          "midi": 82,
          "time": 99.1796875,
          "velocity": 0.8267716535433071,
          "duration": 0.078125
        },
        {
          "name": "G6",
          "midi": 91,
          "time": 99.1875,
          "velocity": 0.8110236220472441,
          "duration": 0.078125
        },
        {
          "name": "C#6",
          "midi": 85,
          "time": 99.2734375,
          "velocity": 0.84251968503937,
          "duration": 0.0546875
        },
        {
          "name": "F#6",
          "midi": 90,
          "time": 99.28125,
          "velocity": 0.8267716535433071,
          "duration": 0.078125
        },
        {
          "name": "A#5",
          "midi": 82,
          "time": 99.3671875,
          "velocity": 0.8582677165354331,
          "duration": 0.0546875
        },
        {
          "name": "G6",
          "midi": 91,
          "time": 99.375,
          "velocity": 0.8740157480314961,
          "duration": 0.0546875
        },
        {
          "name": "C#6",
          "midi": 85,
          "time": 99.4609375,
          "velocity": 0.8818897637795275,
          "duration": 0.0703125
        },
        {
          "name": "F#6",
          "midi": 90,
          "time": 99.4609375,
          "velocity": 0.8740157480314961,
          "duration": 0.1484375
        },
        {
          "name": "D#5",
          "midi": 75,
          "time": 99.5625,
          "velocity": 0.7165354330708661,
          "duration": 0.0390625
        },
        {
          "name": "B5",
          "midi": 83,
          "time": 99.5625,
          "velocity": 0.5748031496062992,
          "duration": 0.046875
        },
        {
          "name": "B4",
          "midi": 71,
          "time": 99.6328125,
          "velocity": 0.6850393700787402,
          "duration": 0.0625
        },
        {
          "name": "D#6",
          "midi": 87,
          "time": 99.6328125,
          "velocity": 0.5905511811023622,
          "duration": 0.0390625
        },
        {
          "name": "F#5",
          "midi": 78,
          "time": 99.640625,
          "velocity": 0.5826771653543307,
          "duration": 0.0390625
        },
        {
          "name": "B5",
          "midi": 83,
          "time": 99.7109375,
          "velocity": 0.5669291338582677,
          "duration": 0.109375
        },
        {
          "name": "C#6",
          "midi": 85,
          "time": 99.71875,
          "velocity": 0.5826771653543307,
          "duration": 0.0546875
        },
        {
          "name": "F#5",
          "midi": 78,
          "time": 99.796875,
          "velocity": 0.5905511811023622,
          "duration": 0.046875
        },
        {
          "name": "D#5",
          "midi": 75,
          "time": 99.859375,
          "velocity": 0.5905511811023622,
          "duration": 0.03125
        },
        {
          "name": "B4",
          "midi": 71,
          "time": 99.9375,
          "velocity": 0.5118110236220472,
          "duration": 0.1484375
        },
        {
          "name": "B5",
          "midi": 83,
          "time": 100.1171875,
          "velocity": 0.5905511811023622,
          "duration": 0.0390625
        },
        {
          "name": "F#5",
          "midi": 78,
          "time": 100.1171875,
          "velocity": 0.6062992125984252,
          "duration": 0.1328125
        },
        {
          "name": "D#5",
          "midi": 75,
          "time": 100.125,
          "velocity": 0.7716535433070866,
          "duration": 0.0390625
        },
        {
          "name": "D#5",
          "midi": 75,
          "time": 100.1953125,
          "velocity": 0.6692913385826772,
          "duration": 0.1328125
        },
        {
          "name": "B4",
          "midi": 71,
          "time": 100.203125,
          "velocity": 0.7874015748031497,
          "duration": 0.046875
        },
        {
          "name": "B4",
          "midi": 71,
          "time": 100.28125,
          "velocity": 0.6377952755905512,
          "duration": 0.1328125
        },
        {
          "name": "F#5",
          "midi": 78,
          "time": 100.6796875,
          "velocity": 0.5826771653543307,
          "duration": 0.046875
        },
        {
          "name": "B4",
          "midi": 71,
          "time": 100.6796875,
          "velocity": 0.7165354330708661,
          "duration": 0.0625
        },
        {
          "name": "D#6",
          "midi": 87,
          "time": 100.6796875,
          "velocity": 0.5748031496062992,
          "duration": 0.0546875
        },
        {
          "name": "D#5",
          "midi": 75,
          "time": 100.765625,
          "velocity": 0.5748031496062992,
          "duration": 0.0546875
        },
        {
          "name": "B5",
          "midi": 83,
          "time": 100.765625,
          "velocity": 0.5826771653543307,
          "duration": 0.0546875
        },
        {
          "name": "F#5",
          "midi": 78,
          "time": 100.8359375,
          "velocity": 0.5984251968503937,
          "duration": 0.0625
        },
        {
          "name": "B4",
          "midi": 71,
          "time": 100.84375,
          "velocity": 0.5826771653543307,
          "duration": 0.0625
        },
        {
          "name": "D#5",
          "midi": 75,
          "time": 100.9140625,
          "velocity": 0.6062992125984252,
          "duration": 0.046875
        },
        {
          "name": "B4",
          "midi": 71,
          "time": 100.9921875,
          "velocity": 0.5905511811023622,
          "duration": 0.03125
        },
        {
          "name": "D#5",
          "midi": 75,
          "time": 101.2421875,
          "velocity": 0.7007874015748031,
          "duration": 0.0546875
        },
        {
          "name": "B5",
          "midi": 83,
          "time": 101.25,
          "velocity": 0.5669291338582677,
          "duration": 0.0546875
        },
        {
          "name": "F#6",
          "midi": 90,
          "time": 101.25,
          "velocity": 0.5669291338582677,
          "duration": 0.0703125
        },
        {
          "name": "D#6",
          "midi": 87,
          "time": 101.3203125,
          "velocity": 0.5905511811023622,
          "duration": 0.0546875
        },
        {
          "name": "B4",
          "midi": 71,
          "time": 101.328125,
          "velocity": 0.7244094488188977,
          "duration": 0.046875
        },
        {
          "name": "F#5",
          "midi": 78,
          "time": 101.328125,
          "velocity": 0.5669291338582677,
          "duration": 0.0546875
        },
        {
          "name": "B5",
          "midi": 83,
          "time": 101.3984375,
          "velocity": 0.5905511811023622,
          "duration": 0.1328125
        },
        {
          "name": "C#6",
          "midi": 85,
          "time": 101.3984375,
          "velocity": 0.5826771653543307,
          "duration": 0.046875
        },
        {
          "name": "F#5",
          "midi": 78,
          "time": 101.484375,
          "velocity": 0.5984251968503937,
          "duration": 0.0390625
        },
        {
          "name": "D#5",
          "midi": 75,
          "time": 101.546875,
          "velocity": 0.5669291338582677,
          "duration": 0.0546875
        },
        {
          "name": "B4",
          "midi": 71,
          "time": 101.6171875,
          "velocity": 0.4881889763779528,
          "duration": 0.1328125
        },
        {
          "name": "B4",
          "midi": 71,
          "time": 101.8046875,
          "velocity": 0.6929133858267716,
          "duration": 0.0546875
        },
        {
          "name": "D#6",
          "midi": 87,
          "time": 101.8046875,
          "velocity": 0.6062992125984252,
          "duration": 0.0390625
        },
        {
          "name": "F#5",
          "midi": 78,
          "time": 101.8125,
          "velocity": 0.6850393700787402,
          "duration": 0.0625
        },
        {
          "name": "B5",
          "midi": 83,
          "time": 101.8828125,
          "velocity": 0.6377952755905512,
          "duration": 0.0546875
        },
        {
          "name": "D#5",
          "midi": 75,
          "time": 101.8828125,
          "velocity": 0.6771653543307087,
          "duration": 0.046875
        },
        {
          "name": "F#5",
          "midi": 78,
          "time": 101.96875,
          "velocity": 0.6614173228346457,
          "duration": 0.046875
        },
        {
          "name": "B4",
          "midi": 71,
          "time": 101.96875,
          "velocity": 0.6535433070866141,
          "duration": 0.0390625
        },
        {
          "name": "D#5",
          "midi": 75,
          "time": 102.0390625,
          "velocity": 0.6377952755905512,
          "duration": 0.03125
        },
        {
          "name": "B4",
          "midi": 71,
          "time": 102.1015625,
          "velocity": 0.6456692913385826,
          "duration": 0.0390625
        },
        {
          "name": "F#6",
          "midi": 90,
          "time": 102.3671875,
          "velocity": 0.5669291338582677,
          "duration": 0.0546875
        },
        {
          "name": "D#5",
          "midi": 75,
          "time": 102.3671875,
          "velocity": 0.7007874015748031,
          "duration": 0.0546875
        },
        {
          "name": "B5",
          "midi": 83,
          "time": 102.375,
          "velocity": 0.6614173228346457,
          "duration": 0.0390625
        },
        {
          "name": "B4",
          "midi": 71,
          "time": 102.453125,
          "velocity": 0.6929133858267716,
          "duration": 0.0546875
        },
        {
          "name": "F#5",
          "midi": 78,
          "time": 102.453125,
          "velocity": 0.5826771653543307,
          "duration": 0.0546875
        },
        {
          "name": "D#6",
          "midi": 87,
          "time": 102.453125,
          "velocity": 0.6062992125984252,
          "duration": 0.0625
        },
        {
          "name": "B5",
          "midi": 83,
          "time": 102.5234375,
          "velocity": 0.5748031496062992,
          "duration": 0.1171875
        },
        {
          "name": "C#6",
          "midi": 85,
          "time": 102.53125,
          "velocity": 0.5669291338582677,
          "duration": 0.0546875
        },
        {
          "name": "F#5",
          "midi": 78,
          "time": 102.609375,
          "velocity": 0.5826771653543307,
          "duration": 0.0546875
        },
        {
          "name": "D#5",
          "midi": 75,
          "time": 102.671875,
          "velocity": 0.5826771653543307,
          "duration": 0.046875
        },
        {
          "name": "B4",
          "midi": 71,
          "time": 102.75,
          "velocity": 0.5118110236220472,
          "duration": 0.140625
        },
        {
          "name": "F#5",
          "midi": 78,
          "time": 102.9296875,
          "velocity": 0.7165354330708661,
          "duration": 0.0625
        },
        {
          "name": "D#6",
          "midi": 87,
          "time": 102.9375,
          "velocity": 0.5905511811023622,
          "duration": 0.0390625
        },
        {
          "name": "A#6",
          "midi": 94,
          "time": 102.9375,
          "velocity": 0.6062992125984252,
          "duration": 0.0625
        },
        {
          "name": "A#5",
          "midi": 82,
          "time": 103.0078125,
          "velocity": 0.5748031496062992,
          "duration": 0.0546875
        },
        {
          "name": "D#5",
          "midi": 75,
          "time": 103.015625,
          "velocity": 0.7007874015748031,
          "duration": 0.0546875
        },
        {
          "name": "F#6",
          "midi": 90,
          "time": 103.015625,
          "velocity": 0.6062992125984252,
          "duration": 0.0546875
        },
        {
          "name": "F#5",
          "midi": 78,
          "time": 103.09375,
          "velocity": 0.6062992125984252,
          "duration": 0.046875
        },
        {
          "name": "D#6",
          "midi": 87,
          "time": 103.09375,
          "velocity": 0.5826771653543307,
          "duration": 0.0546875
        },
        {
          "name": "A#5",
          "midi": 82,
          "time": 103.1640625,
          "velocity": 0.5905511811023622,
          "duration": 0.0390625
        },
        {
          "name": "D#5",
          "midi": 75,
          "time": 103.171875,
          "velocity": 0.5905511811023622,
          "duration": 0.0390625
        },
        {
          "name": "F#5",
          "midi": 78,
          "time": 103.2421875,
          "velocity": 0.5984251968503937,
          "duration": 0.03125
        },
        {
          "name": "D#5",
          "midi": 75,
          "time": 103.3046875,
          "velocity": 0.49606299212598426,
          "duration": 0.1484375
        },
        {
          "name": "D#6",
          "midi": 87,
          "time": 103.4921875,
          "velocity": 0.5669291338582677,
          "duration": 0.0546875
        },
        {
          "name": "F#5",
          "midi": 78,
          "time": 103.4921875,
          "velocity": 0.6850393700787402,
          "duration": 0.0390625
        },
        {
          "name": "A#5",
          "midi": 82,
          "time": 103.5,
          "velocity": 0.6456692913385826,
          "duration": 0.125
        },
        {
          "name": "D#5",
          "midi": 75,
          "time": 103.5703125,
          "velocity": 0.7716535433070866,
          "duration": 0.046875
        },
        {
          "name": "F#5",
          "midi": 78,
          "time": 103.5703125,
          "velocity": 0.6456692913385826,
          "duration": 0.1171875
        },
        {
          "name": "D#5",
          "midi": 75,
          "time": 103.6484375,
          "velocity": 0.6377952755905512,
          "duration": 0.1171875
        },
        {
          "name": "F5",
          "midi": 77,
          "time": 104.0546875,
          "velocity": 0.5826771653543307,
          "duration": 0.125
        },
        {
          "name": "A#5",
          "midi": 82,
          "time": 104.0546875,
          "velocity": 0.5669291338582677,
          "duration": 0.0625
        },
        {
          "name": "C#5",
          "midi": 73,
          "time": 104.0546875,
          "velocity": 0.7165354330708661,
          "duration": 0.0390625
        },
        {
          "name": "C#5",
          "midi": 73,
          "time": 104.140625,
          "velocity": 0.5826771653543307,
          "duration": 0.140625
        },
        {
          "name": "F#5",
          "midi": 78,
          "time": 104.6171875,
          "velocity": 0.6929133858267716,
          "duration": 0.0625
        },
        {
          "name": "A#6",
          "midi": 94,
          "time": 104.6171875,
          "velocity": 0.5748031496062992,
          "duration": 0.0390625
        },
        {
          "name": "D#6",
          "midi": 87,
          "time": 104.625,
          "velocity": 0.5984251968503937,
          "duration": 0.0390625
        },
        {
          "name": "A#5",
          "midi": 82,
          "time": 104.6953125,
          "velocity": 0.5905511811023622,
          "duration": 0.0546875
        },
        {
          "name": "D#5",
          "midi": 75,
          "time": 104.703125,
          "velocity": 0.7086614173228346,
          "duration": 0.0390625
        },
        {
          "name": "F#6",
          "midi": 90,
          "time": 104.703125,
          "velocity": 0.5826771653543307,
          "duration": 0.0625
        },
        {
          "name": "D#6",
          "midi": 87,
          "time": 104.7734375,
          "velocity": 0.5984251968503937,
          "duration": 0.0625
        },
        {
          "name": "F#5",
          "midi": 78,
          "time": 104.78125,
          "velocity": 0.5905511811023622,
          "duration": 0.046875
        },
        {
          "name": "D#5",
          "midi": 75,
          "time": 104.8515625,
          "velocity": 0.5984251968503937,
          "duration": 0.046875
        },
        {
          "name": "A#5",
          "midi": 82,
          "time": 104.8515625,
          "velocity": 0.5984251968503937,
          "duration": 0.046875
        },
        {
          "name": "F#5",
          "midi": 78,
          "time": 104.9296875,
          "velocity": 0.5669291338582677,
          "duration": 0.0546875
        },
        {
          "name": "D#5",
          "midi": 75,
          "time": 104.9921875,
          "velocity": 0.5118110236220472,
          "duration": 0.15625
        },
        {
          "name": "D#6",
          "midi": 87,
          "time": 105.1875,
          "velocity": 0.6535433070866141,
          "duration": 0.0625
        },
        {
          "name": "F#5",
          "midi": 78,
          "time": 105.1875,
          "velocity": 0.7952755905511811,
          "duration": 0.046875
        },
        {
          "name": "A#5",
          "midi": 82,
          "time": 105.1875,
          "velocity": 0.6614173228346457,
          "duration": 0.1171875
        },
        {
          "name": "F#5",
          "midi": 78,
          "time": 105.265625,
          "velocity": 0.6535433070866141,
          "duration": 0.125
        },
        {
          "name": "D#5",
          "midi": 75,
          "time": 105.265625,
          "velocity": 0.7559055118110236,
          "duration": 0.0390625
        },
        {
          "name": "D#5",
          "midi": 75,
          "time": 105.34375,
          "velocity": 0.6692913385826772,
          "duration": 0.1328125
        },
        {
          "name": "A#5",
          "midi": 82,
          "time": 105.7421875,
          "velocity": 0.5984251968503937,
          "duration": 0.046875
        },
        {
          "name": "D#5",
          "midi": 75,
          "time": 105.75,
          "velocity": 0.7952755905511811,
          "duration": 0.0625
        },
        {
          "name": "F#6",
          "midi": 90,
          "time": 105.75,
          "velocity": 0.6535433070866141,
          "duration": 0.0625
        },
        {
          "name": "F#5",
          "midi": 78,
          "time": 105.828125,
          "velocity": 0.6062992125984252,
          "duration": 0.0703125
        },
        {
          "name": "D#6",
          "midi": 87,
          "time": 105.828125,
          "velocity": 0.5669291338582677,
          "duration": 0.0390625
        },
        {
          "name": "D#5",
          "midi": 75,
          "time": 105.8984375,
          "velocity": 0.6062992125984252,
          "duration": 0.046875
        },
        {
          "name": "A#5",
          "midi": 82,
          "time": 105.90625,
          "velocity": 0.5748031496062992,
          "duration": 0.046875
        },
        {
          "name": "F#5",
          "midi": 78,
          "time": 105.984375,
          "velocity": 0.5905511811023622,
          "duration": 0.046875
        },
        {
          "name": "D#5",
          "midi": 75,
          "time": 106.046875,
          "velocity": 0.5905511811023622,
          "duration": 0.0625
        },
        {
          "name": "A#6",
          "midi": 94,
          "time": 106.3046875,
          "velocity": 0.5905511811023622,
          "duration": 0.0625
        },
        {
          "name": "F#5",
          "midi": 78,
          "time": 106.3046875,
          "velocity": 0.6850393700787402,
          "duration": 0.046875
        },
        {
          "name": "D#6",
          "midi": 87,
          "time": 106.3125,
          "velocity": 0.5905511811023622,
          "duration": 0.0390625
        },
        {
          "name": "D#5",
          "midi": 75,
          "time": 106.3828125,
          "velocity": 0.7086614173228346,
          "duration": 0.0390625
        },
        {
          "name": "A#5",
          "midi": 82,
          "time": 106.3828125,
          "velocity": 0.5984251968503937,
          "duration": 0.046875
        },
        {
          "name": "F#6",
          "midi": 90,
          "time": 106.3828125,
          "velocity": 0.6062992125984252,
          "duration": 0.0625
        },
        {
          "name": "F#5",
          "midi": 78,
          "time": 106.4609375,
          "velocity": 0.6062992125984252,
          "duration": 0.0625
        },
        {
          "name": "D#6",
          "midi": 87,
          "time": 106.4609375,
          "velocity": 0.5905511811023622,
          "duration": 0.0625
        },
        {
          "name": "D#5",
          "midi": 75,
          "time": 106.5390625,
          "velocity": 0.5748031496062992,
          "duration": 0.0546875
        },
        {
          "name": "A#5",
          "midi": 82,
          "time": 106.546875,
          "velocity": 0.5826771653543307,
          "duration": 0.0390625
        },
        {
          "name": "F#5",
          "midi": 78,
          "time": 106.609375,
          "velocity": 0.5826771653543307,
          "duration": 0.03125
        },
        {
          "name": "D#5",
          "midi": 75,
          "time": 106.6875,
          "velocity": 0.5118110236220472,
          "duration": 0.15625
        },
        {
          "name": "D#6",
          "midi": 87,
          "time": 106.8671875,
          "velocity": 0.5669291338582677,
          "duration": 0.046875
        },
        {
          "name": "F#5",
          "midi": 78,
          "time": 106.875,
          "velocity": 0.7795275590551181,
          "duration": 0.0546875
        },
        {
          "name": "A#5",
          "midi": 82,
          "time": 106.875,
          "velocity": 0.6692913385826772,
          "duration": 0.1171875
        },
        {
          "name": "F#5",
          "midi": 78,
          "time": 106.953125,
          "velocity": 0.6614173228346457,
          "duration": 0.140625
        },
        {
          "name": "D#5",
          "midi": 75,
          "time": 106.953125,
          "velocity": 0.7716535433070866,
          "duration": 0.0390625
        },
        {
          "name": "D#5",
          "midi": 75,
          "time": 107.03125,
          "velocity": 0.6377952755905512,
          "duration": 0.1171875
        },
        {
          "name": "A#5",
          "midi": 82,
          "time": 107.4296875,
          "velocity": 0.6062992125984252,
          "duration": 0.0390625
        },
        {
          "name": "F#6",
          "midi": 90,
          "time": 107.4375,
          "velocity": 0.6535433070866141,
          "duration": 0.046875
        },
        {
          "name": "D#5",
          "midi": 75,
          "time": 107.4375,
          "velocity": 0.7637795275590551,
          "duration": 0.0625
        },
        {
          "name": "F#5",
          "midi": 78,
          "time": 107.5078125,
          "velocity": 0.5669291338582677,
          "duration": 0.046875
        },
        {
          "name": "D#6",
          "midi": 87,
          "time": 107.515625,
          "velocity": 0.5905511811023622,
          "duration": 0.0625
        },
        {
          "name": "D#5",
          "midi": 75,
          "time": 107.5859375,
          "velocity": 0.5748031496062992,
          "duration": 0.046875
        },
        {
          "name": "A#5",
          "midi": 82,
          "time": 107.59375,
          "velocity": 0.6062992125984252,
          "duration": 0.0625
        },
        {
          "name": "F#5",
          "midi": 78,
          "time": 107.6640625,
          "velocity": 0.5984251968503937,
          "duration": 0.0390625
        },
        {
          "name": "D#5",
          "midi": 75,
          "time": 107.734375,
          "velocity": 0.5826771653543307,
          "duration": 0.0546875
        },
        {
          "name": "F#5",
          "midi": 78,
          "time": 107.9921875,
          "velocity": 0.7165354330708661,
          "duration": 0.0390625
        },
        {
          "name": "D#6",
          "midi": 87,
          "time": 108,
          "velocity": 0.5905511811023622,
          "duration": 0.0546875
        },
        {
          "name": "A#6",
          "midi": 94,
          "time": 108,
          "velocity": 0.5905511811023622,
          "duration": 0.046875
        },
        {
          "name": "D#5",
          "midi": 75,
          "time": 108.078125,
          "velocity": 0.6850393700787402,
          "duration": 0.0625
        },
        {
          "name": "A#5",
          "midi": 82,
          "time": 108.078125,
          "velocity": 0.5669291338582677,
          "duration": 0.0546875
        },
        {
          "name": "F#6",
          "midi": 90,
          "time": 108.078125,
          "velocity": 0.6062992125984252,
          "duration": 0.046875
        },
        {
          "name": "D#6",
          "midi": 87,
          "time": 108.1484375,
          "velocity": 0.5905511811023622,
          "duration": 0.046875
        },
        {
          "name": "F#5",
          "midi": 78,
          "time": 108.15625,
          "velocity": 0.5748031496062992,
          "duration": 0.046875
        },
        {
          "name": "D#5",
          "midi": 75,
          "time": 108.234375,
          "velocity": 0.5669291338582677,
          "duration": 0.0546875
        },
        {
          "name": "A#5",
          "midi": 82,
          "time": 108.234375,
          "velocity": 0.5905511811023622,
          "duration": 0.03125
        },
        {
          "name": "F#5",
          "midi": 78,
          "time": 108.3046875,
          "velocity": 0.5669291338582677,
          "duration": 0.046875
        },
        {
          "name": "D#5",
          "midi": 75,
          "time": 108.3671875,
          "velocity": 0.5039370078740157,
          "duration": 0.140625
        },
        {
          "name": "F#5",
          "midi": 78,
          "time": 108.5625,
          "velocity": 0.7795275590551181,
          "duration": 0.0546875
        },
        {
          "name": "F#6",
          "midi": 90,
          "time": 108.5625,
          "velocity": 0.6771653543307087,
          "duration": 0.046875
        },
        {
          "name": "A#5",
          "midi": 82,
          "time": 108.5625,
          "velocity": 0.6850393700787402,
          "duration": 0.0625
        },
        {
          "name": "F#5",
          "midi": 78,
          "time": 108.6328125,
          "velocity": 0.6771653543307087,
          "duration": 0.0625
        },
        {
          "name": "D#6",
          "midi": 87,
          "time": 108.640625,
          "velocity": 0.6377952755905512,
          "duration": 0.0390625
        },
        {
          "name": "D#5",
          "midi": 75,
          "time": 108.640625,
          "velocity": 0.7874015748031497,
          "duration": 0.0546875
        },
        {
          "name": "D#5",
          "midi": 75,
          "time": 108.7109375,
          "velocity": 0.6377952755905512,
          "duration": 0.046875
        },
        {
          "name": "A#5",
          "midi": 82,
          "time": 108.71875,
          "velocity": 0.6692913385826772,
          "duration": 0.046875
        },
        {
          "name": "F#5",
          "midi": 78,
          "time": 108.796875,
          "velocity": 0.6456692913385826,
          "duration": 0.046875
        },
        {
          "name": "D#5",
          "midi": 75,
          "time": 108.859375,
          "velocity": 0.6220472440944882,
          "duration": 0.0546875
        },
        {
          "name": "F#5",
          "midi": 78,
          "time": 109.1171875,
          "velocity": 0.5826771653543307,
          "duration": 0.1328125
        },
        {
          "name": "A#5",
          "midi": 82,
          "time": 109.1171875,
          "velocity": 0.5984251968503937,
          "duration": 0.046875
        },
        {
          "name": "D#5",
          "midi": 75,
          "time": 109.125,
          "velocity": 0.7874015748031497,
          "duration": 0.0625
        },
        {
          "name": "D#5",
          "midi": 75,
          "time": 109.203125,
          "velocity": 0.5669291338582677,
          "duration": 0.125
        },
        {
          "name": "F#6",
          "midi": 90,
          "time": 109.6796875,
          "velocity": 0.5826771653543307,
          "duration": 0.0546875
        },
        {
          "name": "A#5",
          "midi": 82,
          "time": 109.6875,
          "velocity": 0.5748031496062992,
          "duration": 0.0625
        },
        {
          "name": "C#5",
          "midi": 73,
          "time": 109.6875,
          "velocity": 0.6929133858267716,
          "duration": 0.046875
        },
        {
          "name": "A#4",
          "midi": 70,
          "time": 109.765625,
          "velocity": 0.7244094488188977,
          "duration": 0.046875
        },
        {
          "name": "F#5",
          "midi": 78,
          "time": 109.765625,
          "velocity": 0.6062992125984252,
          "duration": 0.0546875
        },
        {
          "name": "C#6",
          "midi": 85,
          "time": 109.765625,
          "velocity": 0.5826771653543307,
          "duration": 0.0625
        },
        {
          "name": "C#5",
          "midi": 73,
          "time": 109.8359375,
          "velocity": 0.5905511811023622,
          "duration": 0.046875
        },
        {
          "name": "A#5",
          "midi": 82,
          "time": 109.8359375,
          "velocity": 0.5669291338582677,
          "duration": 0.0390625
        },
        {
          "name": "F#5",
          "midi": 78,
          "time": 109.9140625,
          "velocity": 0.5669291338582677,
          "duration": 0.0390625
        },
        {
          "name": "A#4",
          "midi": 70,
          "time": 109.921875,
          "velocity": 0.5984251968503937,
          "duration": 0.03125
        },
        {
          "name": "C#5",
          "midi": 73,
          "time": 109.984375,
          "velocity": 0.5748031496062992,
          "duration": 0.03125
        },
        {
          "name": "A#4",
          "midi": 70,
          "time": 110.0546875,
          "velocity": 0.5275590551181102,
          "duration": 0.1640625
        },
        {
          "name": "F#5",
          "midi": 78,
          "time": 110.2421875,
          "velocity": 0.7165354330708661,
          "duration": 0.0390625
        },
        {
          "name": "A#5",
          "midi": 82,
          "time": 110.25,
          "velocity": 0.6692913385826772,
          "duration": 0.140625
        },
        {
          "name": "C#6",
          "midi": 85,
          "time": 110.25,
          "velocity": 0.6614173228346457,
          "duration": 0.0546875
        },
        {
          "name": "C#5",
          "midi": 73,
          "time": 110.328125,
          "velocity": 0.7559055118110236,
          "duration": 0.0546875
        },
        {
          "name": "F#5",
          "midi": 78,
          "time": 110.328125,
          "velocity": 0.6692913385826772,
          "duration": 0.125
        },
        {
          "name": "C#5",
          "midi": 73,
          "time": 110.3984375,
          "velocity": 0.6299212598425197,
          "duration": 0.1328125
        },
        {
          "name": "A#4",
          "midi": 70,
          "time": 110.40625,
          "velocity": 0.7637795275590551,
          "duration": 0.0546875
        },
        {
          "name": "A#4",
          "midi": 70,
          "time": 110.4765625,
          "velocity": 0.6141732283464567,
          "duration": 0.125
        },
        {
          "name": "G#5",
          "midi": 80,
          "time": 110.8046875,
          "velocity": 0.5984251968503937,
          "duration": 0.1328125
        },
        {
          "name": "C#6",
          "midi": 85,
          "time": 110.8046875,
          "velocity": 0.5669291338582677,
          "duration": 0.046875
        },
        {
          "name": "F5",
          "midi": 77,
          "time": 110.8125,
          "velocity": 0.7716535433070866,
          "duration": 0.0546875
        },
        {
          "name": "C#5",
          "midi": 73,
          "time": 110.8828125,
          "velocity": 0.7165354330708661,
          "duration": 0.0390625
        },
        {
          "name": "F5",
          "midi": 77,
          "time": 110.8828125,
          "velocity": 0.5905511811023622,
          "duration": 0.125
        },
        {
          "name": "C#5",
          "midi": 73,
          "time": 110.9609375,
          "velocity": 0.5826771653543307,
          "duration": 0.125
        },
        {
          "name": "G#5",
          "midi": 80,
          "time": 110.96875,
          "velocity": 0.6929133858267716,
          "duration": 0.0390625
        },
        {
          "name": "F#6",
          "midi": 90,
          "time": 111.3671875,
          "velocity": 0.5984251968503937,
          "duration": 0.046875
        },
        {
          "name": "A#5",
          "midi": 82,
          "time": 111.375,
          "velocity": 0.5748031496062992,
          "duration": 0.0625
        },
        {
          "name": "C#5",
          "midi": 73,
          "time": 111.375,
          "velocity": 0.7086614173228346,
          "duration": 0.0625
        },
        {
          "name": "A#4",
          "midi": 70,
          "time": 111.453125,
          "velocity": 0.7165354330708661,
          "duration": 0.0625
        },
        {
          "name": "F#5",
          "midi": 78,
          "time": 111.453125,
          "velocity": 0.5905511811023622,
          "duration": 0.0546875
        },
        {
          "name": "C#6",
          "midi": 85,
          "time": 111.453125,
          "velocity": 0.5826771653543307,
          "duration": 0.046875
        },
        {
          "name": "A#5",
          "midi": 82,
          "time": 111.5234375,
          "velocity": 0.5748031496062992,
          "duration": 0.046875
        },
        {
          "name": "C#5",
          "midi": 73,
          "time": 111.53125,
          "velocity": 0.6062992125984252,
          "duration": 0.0546875
        },
        {
          "name": "A#4",
          "midi": 70,
          "time": 111.6015625,
          "velocity": 0.5826771653543307,
          "duration": 0.0390625
        },
        {
          "name": "F#5",
          "midi": 78,
          "time": 111.609375,
          "velocity": 0.5748031496062992,
          "duration": 0.0390625
        },
        {
          "name": "C#5",
          "midi": 73,
          "time": 111.671875,
          "velocity": 0.5905511811023622,
          "duration": 0.03125
        },
        {
          "name": "A#4",
          "midi": 70,
          "time": 111.75,
          "velocity": 0.4881889763779528,
          "duration": 0.1328125
        },
        {
          "name": "A#5",
          "midi": 82,
          "time": 111.9296875,
          "velocity": 0.5826771653543307,
          "duration": 0.1328125
        },
        {
          "name": "C#6",
          "midi": 85,
          "time": 111.9296875,
          "velocity": 0.6062992125984252,
          "duration": 0.0546875
        },
        {
          "name": "F#5",
          "midi": 78,
          "time": 111.9296875,
          "velocity": 0.7244094488188977,
          "duration": 0.0390625
        },
        {
          "name": "C#5",
          "midi": 73,
          "time": 112.0078125,
          "velocity": 0.7559055118110236,
          "duration": 0.046875
        },
        {
          "name": "F#5",
          "midi": 78,
          "time": 112.015625,
          "velocity": 0.6456692913385826,
          "duration": 0.125
        },
        {
          "name": "C#5",
          "midi": 73,
          "time": 112.0859375,
          "velocity": 0.6456692913385826,
          "duration": 0.109375
        },
        {
          "name": "A#4",
          "midi": 70,
          "time": 112.09375,
          "velocity": 0.7874015748031497,
          "duration": 0.0546875
        },
        {
          "name": "A#4",
          "midi": 70,
          "time": 112.1640625,
          "velocity": 0.6220472440944882,
          "duration": 0.109375
        },
        {
          "name": "F#6",
          "midi": 90,
          "time": 112.4921875,
          "velocity": 0.5826771653543307,
          "duration": 0.046875
        },
        {
          "name": "C#5",
          "midi": 73,
          "time": 112.4921875,
          "velocity": 0.6929133858267716,
          "duration": 0.0546875
        },
        {
          "name": "A#5",
          "midi": 82,
          "time": 112.5,
          "velocity": 0.6614173228346457,
          "duration": 0.046875
        },
        {
          "name": "F#5",
          "midi": 78,
          "time": 112.578125,
          "velocity": 0.5669291338582677,
          "duration": 0.0390625
        },
        {
          "name": "A#4",
          "midi": 70,
          "time": 112.578125,
          "velocity": 0.7007874015748031,
          "duration": 0.0546875
        },
        {
          "name": "C#6",
          "midi": 85,
          "time": 112.578125,
          "velocity": 0.5748031496062992,
          "duration": 0.0546875
        },
        {
          "name": "A#5",
          "midi": 82,
          "time": 112.6484375,
          "velocity": 0.5748031496062992,
          "duration": 0.0390625
        },
        {
          "name": "C#5",
          "midi": 73,
          "time": 112.65625,
          "velocity": 0.5748031496062992,
          "duration": 0.0625
        },
        {
          "name": "A#4",
          "midi": 70,
          "time": 112.7265625,
          "velocity": 0.5669291338582677,
          "duration": 0.046875
        },
        {
          "name": "F#5",
          "midi": 78,
          "time": 112.7265625,
          "velocity": 0.5748031496062992,
          "duration": 0.0390625
        },
        {
          "name": "C#5",
          "midi": 73,
          "time": 112.8046875,
          "velocity": 0.5748031496062992,
          "duration": 0.03125
        },
        {
          "name": "A#4",
          "midi": 70,
          "time": 112.8671875,
          "velocity": 0.5196850393700787,
          "duration": 0.140625
        },
        {
          "name": "B5",
          "midi": 83,
          "time": 113.0546875,
          "velocity": 0.5748031496062992,
          "duration": 0.1171875
        },
        {
          "name": "E5",
          "midi": 76,
          "time": 113.0546875,
          "velocity": 0.7086614173228346,
          "duration": 0.0625
        },
        {
          "name": "E6",
          "midi": 88,
          "time": 113.0625,
          "velocity": 0.5905511811023622,
          "duration": 0.0390625
        },
        {
          "name": "G#5",
          "midi": 80,
          "time": 113.140625,
          "velocity": 0.5905511811023622,
          "duration": 0.1171875
        },
        {
          "name": "B4",
          "midi": 71,
          "time": 113.15625,
          "velocity": 0.7007874015748031,
          "duration": 0.0703125
        },
        {
          "name": "E5",
          "midi": 76,
          "time": 113.2109375,
          "velocity": 0.6062992125984252,
          "duration": 0.1328125
        },
        {
          "name": "B4",
          "midi": 71,
          "time": 113.2890625,
          "velocity": 0.6062992125984252,
          "duration": 0.1015625
        },
        {
          "name": "D#5",
          "midi": 75,
          "time": 113.625,
          "velocity": 0.8031496062992126,
          "duration": 0.0625
        },
        {
          "name": "F#5",
          "midi": 78,
          "time": 113.625,
          "velocity": 0.6614173228346457,
          "duration": 0.125
        },
        {
          "name": "B5",
          "midi": 83,
          "time": 113.625,
          "velocity": 0.6692913385826772,
          "duration": 0.0390625
        },
        {
          "name": "B4",
          "midi": 71,
          "time": 113.703125,
          "velocity": 0.7716535433070866,
          "duration": 0.046875
        },
        {
          "name": "D#5",
          "midi": 75,
          "time": 113.703125,
          "velocity": 0.6377952755905512,
          "duration": 0.140625
        },
        {
          "name": "B4",
          "midi": 71,
          "time": 113.7734375,
          "velocity": 0.6614173228346457,
          "duration": 0.109375
        },
        {
          "name": "B5",
          "midi": 83,
          "time": 114.1796875,
          "velocity": 0.5826771653543307,
          "duration": 0.046875
        },
        {
          "name": "F#6",
          "midi": 90,
          "time": 114.1796875,
          "velocity": 0.5826771653543307,
          "duration": 0.046875
        },
        {
          "name": "D#5",
          "midi": 75,
          "time": 114.1875,
          "velocity": 0.7874015748031497,
          "duration": 0.046875
        },
        {
          "name": "B4",
          "midi": 71,
          "time": 114.2578125,
          "velocity": 0.6850393700787402,
          "duration": 0.0546875
        },
        {
          "name": "D#6",
          "midi": 87,
          "time": 114.2578125,
          "velocity": 0.5826771653543307,
          "duration": 0.0625
        },
        {
          "name": "F#5",
          "midi": 78,
          "time": 114.265625,
          "velocity": 0.5984251968503937,
          "duration": 0.0390625
        },
        {
          "name": "D#5",
          "midi": 75,
          "time": 114.34375,
          "velocity": 0.6062992125984252,
          "duration": 0.0625
        },
        {
          "name": "B5",
          "midi": 83,
          "time": 114.34375,
          "velocity": 0.5748031496062992,
          "duration": 0.046875
        },
        {
          "name": "B4",
          "midi": 71,
          "time": 114.4140625,
          "velocity": 0.6062992125984252,
          "duration": 0.03125
        },
        {
          "name": "F#5",
          "midi": 78,
          "time": 114.4140625,
          "velocity": 0.5669291338582677,
          "duration": 0.03125
        },
        {
          "name": "D#5",
          "midi": 75,
          "time": 114.4921875,
          "velocity": 0.5984251968503937,
          "duration": 0.046875
        },
        {
          "name": "B4",
          "midi": 71,
          "time": 114.5546875,
          "velocity": 0.5275590551181102,
          "duration": 0.1484375
        },
        {
          "name": "E5",
          "midi": 76,
          "time": 114.75,
          "velocity": 0.6929133858267716,
          "duration": 0.0703125
        },
        {
          "name": "B5",
          "midi": 83,
          "time": 114.75,
          "velocity": 0.5669291338582677,
          "duration": 0.1171875
        },
        {
          "name": "E6",
          "midi": 88,
          "time": 114.75,
          "velocity": 0.5826771653543307,
          "duration": 0.0546875
        },
        {
          "name": "G#5",
          "midi": 80,
          "time": 114.8203125,
          "velocity": 0.5748031496062992,
          "duration": 0.140625
        },
        {
          "name": "B4",
          "midi": 71,
          "time": 114.8359375,
          "velocity": 0.7086614173228346,
          "duration": 0.0546875
        },
        {
          "name": "E5",
          "midi": 76,
          "time": 114.8984375,
          "velocity": 0.5984251968503937,
          "duration": 0.1015625
        },
        {
          "name": "B4",
          "midi": 71,
          "time": 114.9765625,
          "velocity": 0.5905511811023622,
          "duration": 0.125
        },
        {
          "name": "B5",
          "midi": 83,
          "time": 115.3046875,
          "velocity": 0.5748031496062992,
          "duration": 0.0390625
        },
        {
          "name": "D#5",
          "midi": 75,
          "time": 115.3125,
          "velocity": 0.7952755905511811,
          "duration": 0.0546875
        },
        {
          "name": "F#5",
          "midi": 78,
          "time": 115.3125,
          "velocity": 0.6771653543307087,
          "duration": 0.125
        },
        {
          "name": "B4",
          "midi": 71,
          "time": 115.390625,
          "velocity": 0.7874015748031497,
          "duration": 0.0625
        },
        {
          "name": "D#5",
          "midi": 75,
          "time": 115.390625,
          "velocity": 0.6614173228346457,
          "duration": 0.1328125
        },
        {
          "name": "B4",
          "midi": 71,
          "time": 115.46875,
          "velocity": 0.6299212598425197,
          "duration": 0.1328125
        },
        {
          "name": "B5",
          "midi": 83,
          "time": 115.8671875,
          "velocity": 0.5905511811023622,
          "duration": 0.0625
        },
        {
          "name": "D#5",
          "midi": 75,
          "time": 115.8671875,
          "velocity": 0.7244094488188977,
          "duration": 0.0546875
        },
        {
          "name": "F#6",
          "midi": 90,
          "time": 115.875,
          "velocity": 0.6771653543307087,
          "duration": 0.0390625
        },
        {
          "name": "F#5",
          "midi": 78,
          "time": 115.9453125,
          "velocity": 0.6062992125984252,
          "duration": 0.0546875
        },
        {
          "name": "D#6",
          "midi": 87,
          "time": 115.9453125,
          "velocity": 0.5748031496062992,
          "duration": 0.046875
        },
        {
          "name": "B4",
          "midi": 71,
          "time": 115.953125,
          "velocity": 0.6929133858267716,
          "duration": 0.046875
        },
        {
          "name": "B5",
          "midi": 83,
          "time": 116.0234375,
          "velocity": 0.5984251968503937,
          "duration": 0.0390625
        },
        {
          "name": "D#5",
          "midi": 75,
          "time": 116.03125,
          "velocity": 0.5905511811023622,
          "duration": 0.0625
        },
        {
          "name": "F#5",
          "midi": 78,
          "time": 116.109375,
          "velocity": 0.5984251968503937,
          "duration": 0.0546875
        },
        {
          "name": "B4",
          "midi": 71,
          "time": 116.109375,
          "velocity": 0.5748031496062992,
          "duration": 0.0546875
        },
        {
          "name": "D#5",
          "midi": 75,
          "time": 116.1796875,
          "velocity": 0.6062992125984252,
          "duration": 0.0546875
        },
        {
          "name": "B4",
          "midi": 71,
          "time": 116.2421875,
          "velocity": 0.5118110236220472,
          "duration": 0.1484375
        },
        {
          "name": "B5",
          "midi": 83,
          "time": 116.4296875,
          "velocity": 0.6062992125984252,
          "duration": 0.1171875
        },
        {
          "name": "E6",
          "midi": 88,
          "time": 116.4296875,
          "velocity": 0.6062992125984252,
          "duration": 0.0546875
        },
        {
          "name": "E5",
          "midi": 76,
          "time": 116.4375,
          "velocity": 0.7086614173228346,
          "duration": 0.0703125
        },
        {
          "name": "G#5",
          "midi": 80,
          "time": 116.5078125,
          "velocity": 0.5826771653543307,
          "duration": 0.125
        },
        {
          "name": "B4",
          "midi": 71,
          "time": 116.53125,
          "velocity": 0.7165354330708661,
          "duration": 0.078125
        },
        {
          "name": "E5",
          "midi": 76,
          "time": 116.59375,
          "velocity": 0.5905511811023622,
          "duration": 0.125
        },
        {
          "name": "B4",
          "midi": 71,
          "time": 116.671875,
          "velocity": 0.6062992125984252,
          "duration": 0.1015625
        },
        {
          "name": "E5",
          "midi": 76,
          "time": 116.9921875,
          "velocity": 0.7244094488188977,
          "duration": 0.0390625
        },
        {
          "name": "G#5",
          "midi": 80,
          "time": 116.9921875,
          "velocity": 0.6062992125984252,
          "duration": 0.125
        },
        {
          "name": "C#6",
          "midi": 85,
          "time": 116.9921875,
          "velocity": 0.5669291338582677,
          "duration": 0.0625
        },
        {
          "name": "C#5",
          "midi": 73,
          "time": 117.078125,
          "velocity": 0.7559055118110236,
          "duration": 0.046875
        },
        {
          "name": "E5",
          "midi": 76,
          "time": 117.078125,
          "velocity": 0.6456692913385826,
          "duration": 0.1171875
        },
        {
          "name": "C#5",
          "midi": 73,
          "time": 117.15625,
          "velocity": 0.6377952755905512,
          "duration": 0.1328125
        },
        {
          "name": "C#5",
          "midi": 73,
          "time": 117.5625,
          "velocity": 0.7874015748031497,
          "duration": 0.046875
        },
        {
          "name": "F#6",
          "midi": 90,
          "time": 117.5625,
          "velocity": 0.6771653543307087,
          "duration": 0.0390625
        },
        {
          "name": "A#5",
          "midi": 82,
          "time": 117.5625,
          "velocity": 0.6456692913385826,
          "duration": 0.0390625
        },
        {
          "name": "F#5",
          "midi": 78,
          "time": 117.6328125,
          "velocity": 0.6062992125984252,
          "duration": 0.0625
        },
        {
          "name": "C#6",
          "midi": 85,
          "time": 117.6328125,
          "velocity": 0.6062992125984252,
          "duration": 0.0390625
        },
        {
          "name": "C#5",
          "midi": 73,
          "time": 117.7109375,
          "velocity": 0.5669291338582677,
          "duration": 0.0625
        },
        {
          "name": "A#5",
          "midi": 82,
          "time": 117.7109375,
          "velocity": 0.5748031496062992,
          "duration": 0.0546875
        },
        {
          "name": "F#5",
          "midi": 78,
          "time": 117.796875,
          "velocity": 0.5748031496062992,
          "duration": 0.046875
        },
        {
          "name": "C#5",
          "midi": 73,
          "time": 117.859375,
          "velocity": 0.5984251968503937,
          "duration": 0.046875
        },
        {
          "name": "F#6",
          "midi": 90,
          "time": 118.1171875,
          "velocity": 0.5905511811023622,
          "duration": 0.046875
        },
        {
          "name": "B5",
          "midi": 83,
          "time": 118.1171875,
          "velocity": 0.5826771653543307,
          "duration": 0.0390625
        },
        {
          "name": "D#5",
          "midi": 75,
          "time": 118.125,
          "velocity": 0.7165354330708661,
          "duration": 0.0625
        },
        {
          "name": "B4",
          "midi": 71,
          "time": 118.1953125,
          "velocity": 0.6929133858267716,
          "duration": 0.0546875
        },
        {
          "name": "F#5",
          "midi": 78,
          "time": 118.1953125,
          "velocity": 0.6062992125984252,
          "duration": 0.0625
        },
        {
          "name": "D#6",
          "midi": 87,
          "time": 118.203125,
          "velocity": 0.5669291338582677,
          "duration": 0.0625
        },
        {
          "name": "B5",
          "midi": 83,
          "time": 118.2734375,
          "velocity": 0.5826771653543307,
          "duration": 0.0546875
        },
        {
          "name": "D#5",
          "midi": 75,
          "time": 118.28125,
          "velocity": 0.5984251968503937,
          "duration": 0.0390625
        },
        {
          "name": "B4",
          "midi": 71,
          "time": 118.359375,
          "velocity": 0.6062992125984252,
          "duration": 0.046875
        },
        {
          "name": "F#5",
          "midi": 78,
          "time": 118.359375,
          "velocity": 0.5905511811023622,
          "duration": 0.046875
        },
        {
          "name": "D#5",
          "midi": 75,
          "time": 118.4296875,
          "velocity": 0.5826771653543307,
          "duration": 0.03125
        },
        {
          "name": "B4",
          "midi": 71,
          "time": 118.5,
          "velocity": 0.5118110236220472,
          "duration": 0.1328125
        },
        {
          "name": "F#5",
          "midi": 78,
          "time": 118.6796875,
          "velocity": 0.6062992125984252,
          "duration": 0.1171875
        },
        {
          "name": "B5",
          "midi": 83,
          "time": 118.6796875,
          "velocity": 0.5826771653543307,
          "duration": 0.046875
        },
        {
          "name": "D#5",
          "midi": 75,
          "time": 118.6875,
          "velocity": 0.8031496062992126,
          "duration": 0.0546875
        },
        {
          "name": "B4",
          "midi": 71,
          "time": 118.765625,
          "velocity": 0.7874015748031497,
          "duration": 0.0546875
        },
        {
          "name": "D#5",
          "midi": 75,
          "time": 118.765625,
          "velocity": 0.6771653543307087,
          "duration": 0.1171875
        },
        {
          "name": "B4",
          "midi": 71,
          "time": 118.84375,
          "velocity": 0.6614173228346457,
          "duration": 0.1171875
        },
        {
          "name": "F#5",
          "midi": 78,
          "time": 119.2421875,
          "velocity": 0.6062992125984252,
          "duration": 0.0625
        },
        {
          "name": "D#6",
          "midi": 87,
          "time": 119.2421875,
          "velocity": 0.5826771653543307,
          "duration": 0.0625
        },
        {
          "name": "B4",
          "midi": 71,
          "time": 119.2421875,
          "velocity": 0.7086614173228346,
          "duration": 0.0625
        },
        {
          "name": "B5",
          "midi": 83,
          "time": 119.3203125,
          "velocity": 0.5984251968503937,
          "duration": 0.0625
        },
        {
          "name": "D#5",
          "midi": 75,
          "time": 119.3203125,
          "velocity": 0.6062992125984252,
          "duration": 0.046875
        },
        {
          "name": "B4",
          "midi": 71,
          "time": 119.3984375,
          "velocity": 0.5905511811023622,
          "duration": 0.0625
        },
        {
          "name": "F#5",
          "midi": 78,
          "time": 119.3984375,
          "velocity": 0.5669291338582677,
          "duration": 0.0625
        },
        {
          "name": "D#5",
          "midi": 75,
          "time": 119.4765625,
          "velocity": 0.5748031496062992,
          "duration": 0.0546875
        },
        {
          "name": "B4",
          "midi": 71,
          "time": 119.546875,
          "velocity": 0.6062992125984252,
          "duration": 0.046875
        },
        {
          "name": "E5",
          "midi": 76,
          "time": 119.8046875,
          "velocity": 0.6929133858267716,
          "duration": 0.0703125
        },
        {
          "name": "B5",
          "midi": 83,
          "time": 119.8046875,
          "velocity": 0.5748031496062992,
          "duration": 0.140625
        },
        {
          "name": "E6",
          "midi": 88,
          "time": 119.8125,
          "velocity": 0.5905511811023622,
          "duration": 0.0625
        },
        {
          "name": "G#5",
          "midi": 80,
          "time": 119.890625,
          "velocity": 0.6062992125984252,
          "duration": 0.140625
        },
        {
          "name": "B4",
          "midi": 71,
          "time": 119.90625,
          "velocity": 0.7007874015748031,
          "duration": 0.0546875
        },
        {
          "name": "E5",
          "midi": 76,
          "time": 119.96875,
          "velocity": 0.6062992125984252,
          "duration": 0.109375
        },
        {
          "name": "B4",
          "midi": 71,
          "time": 120.046875,
          "velocity": 0.6062992125984252,
          "duration": 0.109375
        },
        {
          "name": "B5",
          "midi": 83,
          "time": 120.375,
          "velocity": 0.6850393700787402,
          "duration": 0.0625
        },
        {
          "name": "F#5",
          "midi": 78,
          "time": 120.375,
          "velocity": 0.6771653543307087,
          "duration": 0.1171875
        },
        {
          "name": "D#5",
          "midi": 75,
          "time": 120.375,
          "velocity": 0.7637795275590551,
          "duration": 0.0625
        },
        {
          "name": "D#5",
          "midi": 75,
          "time": 120.453125,
          "velocity": 0.6771653543307087,
          "duration": 0.125
        },
        {
          "name": "B4",
          "midi": 71,
          "time": 120.453125,
          "velocity": 0.7637795275590551,
          "duration": 0.0390625
        },
        {
          "name": "B4",
          "midi": 71,
          "time": 120.5234375,
          "velocity": 0.6377952755905512,
          "duration": 0.125
        },
        {
          "name": "D#5",
          "midi": 75,
          "time": 120.9296875,
          "velocity": 0.7007874015748031,
          "duration": 0.0546875
        },
        {
          "name": "B5",
          "midi": 83,
          "time": 120.9375,
          "velocity": 0.6456692913385826,
          "duration": 0.0625
        },
        {
          "name": "F#6",
          "midi": 90,
          "time": 120.9375,
          "velocity": 0.6456692913385826,
          "duration": 0.0390625
        },
        {
          "name": "F#5",
          "midi": 78,
          "time": 121.0078125,
          "velocity": 0.5669291338582677,
          "duration": 0.0625
        },
        {
          "name": "B4",
          "midi": 71,
          "time": 121.015625,
          "velocity": 0.6929133858267716,
          "duration": 0.0390625
        },
        {
          "name": "D#6",
          "midi": 87,
          "time": 121.015625,
          "velocity": 0.5669291338582677,
          "duration": 0.0546875
        },
        {
          "name": "D#5",
          "midi": 75,
          "time": 121.0859375,
          "velocity": 0.6062992125984252,
          "duration": 0.0390625
        },
        {
          "name": "B5",
          "midi": 83,
          "time": 121.09375,
          "velocity": 0.5669291338582677,
          "duration": 0.0390625
        },
        {
          "name": "B4",
          "midi": 71,
          "time": 121.171875,
          "velocity": 0.5984251968503937,
          "duration": 0.03125
        },
        {
          "name": "F#5",
          "midi": 78,
          "time": 121.171875,
          "velocity": 0.5905511811023622,
          "duration": 0.0546875
        },
        {
          "name": "D#5",
          "midi": 75,
          "time": 121.2421875,
          "velocity": 0.5669291338582677,
          "duration": 0.0546875
        },
        {
          "name": "B4",
          "midi": 71,
          "time": 121.3046875,
          "velocity": 0.5196850393700787,
          "duration": 0.1328125
        },
        {
          "name": "E5",
          "midi": 76,
          "time": 121.5,
          "velocity": 0.7244094488188977,
          "duration": 0.0625
        },
        {
          "name": "B5",
          "midi": 83,
          "time": 121.5,
          "velocity": 0.5748031496062992,
          "duration": 0.125
        },
        {
          "name": "E6",
          "midi": 88,
          "time": 121.5,
          "velocity": 0.5905511811023622,
          "duration": 0.0390625
        },
        {
          "name": "G#5",
          "midi": 80,
          "time": 121.5703125,
          "velocity": 0.5826771653543307,
          "duration": 0.140625
        },
        {
          "name": "B4",
          "midi": 71,
          "time": 121.5859375,
          "velocity": 0.7165354330708661,
          "duration": 0.078125
        },
        {
          "name": "E5",
          "midi": 76,
          "time": 121.65625,
          "velocity": 0.5669291338582677,
          "duration": 0.1171875
        },
        {
          "name": "B4",
          "midi": 71,
          "time": 121.7265625,
          "velocity": 0.5826771653543307,
          "duration": 0.1171875
        },
        {
          "name": "F#5",
          "midi": 78,
          "time": 122.0546875,
          "velocity": 0.5748031496062992,
          "duration": 0.1171875
        },
        {
          "name": "B5",
          "midi": 83,
          "time": 122.0546875,
          "velocity": 0.5984251968503937,
          "duration": 0.046875
        },
        {
          "name": "D#5",
          "midi": 75,
          "time": 122.0546875,
          "velocity": 0.6850393700787402,
          "duration": 0.046875
        },
        {
          "name": "B4",
          "midi": 71,
          "time": 122.1328125,
          "velocity": 0.7952755905511811,
          "duration": 0.0546875
        },
        {
          "name": "D#5",
          "midi": 75,
          "time": 122.1328125,
          "velocity": 0.6614173228346457,
          "duration": 0.1171875
        },
        {
          "name": "B4",
          "midi": 71,
          "time": 122.2109375,
          "velocity": 0.6456692913385826,
          "duration": 0.125
        },
        {
          "name": "B5",
          "midi": 83,
          "time": 122.6171875,
          "velocity": 0.5905511811023622,
          "duration": 0.0390625
        },
        {
          "name": "D#5",
          "midi": 75,
          "time": 122.6171875,
          "velocity": 0.6929133858267716,
          "duration": 0.046875
        },
        {
          "name": "F#6",
          "midi": 90,
          "time": 122.625,
          "velocity": 0.6535433070866141,
          "duration": 0.0546875
        },
        {
          "name": "B4",
          "midi": 71,
          "time": 122.703125,
          "velocity": 0.7086614173228346,
          "duration": 0.046875
        },
        {
          "name": "D#6",
          "midi": 87,
          "time": 122.703125,
          "velocity": 0.5984251968503937,
          "duration": 0.0390625
        },
        {
          "name": "F#5",
          "midi": 78,
          "time": 122.703125,
          "velocity": 0.5748031496062992,
          "duration": 0.0625
        },
        {
          "name": "D#5",
          "midi": 75,
          "time": 122.7734375,
          "velocity": 0.5905511811023622,
          "duration": 0.0390625
        },
        {
          "name": "B5",
          "midi": 83,
          "time": 122.7734375,
          "velocity": 0.5748031496062992,
          "duration": 0.0390625
        },
        {
          "name": "B4",
          "midi": 71,
          "time": 122.8515625,
          "velocity": 0.5669291338582677,
          "duration": 0.0390625
        },
        {
          "name": "F#5",
          "midi": 78,
          "time": 122.859375,
          "velocity": 0.5984251968503937,
          "duration": 0.0546875
        },
        {
          "name": "D#5",
          "midi": 75,
          "time": 122.9296875,
          "velocity": 0.5748031496062992,
          "duration": 0.0546875
        },
        {
          "name": "B4",
          "midi": 71,
          "time": 122.9921875,
          "velocity": 0.5118110236220472,
          "duration": 0.15625
        },
        {
          "name": "B5",
          "midi": 83,
          "time": 123.1796875,
          "velocity": 0.5748031496062992,
          "duration": 0.125
        },
        {
          "name": "E5",
          "midi": 76,
          "time": 123.1875,
          "velocity": 0.6850393700787402,
          "duration": 0.0546875
        },
        {
          "name": "E6",
          "midi": 88,
          "time": 123.1875,
          "velocity": 0.5984251968503937,
          "duration": 0.0390625
        },
        {
          "name": "G#5",
          "midi": 80,
          "time": 123.2578125,
          "velocity": 0.5905511811023622,
          "duration": 0.1328125
        },
        {
          "name": "B4",
          "midi": 71,
          "time": 123.2734375,
          "velocity": 0.7086614173228346,
          "duration": 0.0546875
        },
        {
          "name": "E5",
          "midi": 76,
          "time": 123.3359375,
          "velocity": 0.5826771653543307,
          "duration": 0.125
        },
        {
          "name": "B4",
          "midi": 71,
          "time": 123.4140625,
          "velocity": 0.5669291338582677,
          "duration": 0.1015625
        },
        {
          "name": "E5",
          "midi": 76,
          "time": 123.7421875,
          "velocity": 0.7086614173228346,
          "duration": 0.046875
        },
        {
          "name": "G#5",
          "midi": 80,
          "time": 123.75,
          "velocity": 0.6456692913385826,
          "duration": 0.1171875
        },
        {
          "name": "C#6",
          "midi": 85,
          "time": 123.75,
          "velocity": 0.6535433070866141,
          "duration": 0.0546875
        },
        {
          "name": "C#5",
          "midi": 73,
          "time": 123.8203125,
          "velocity": 0.7637795275590551,
          "duration": 0.0625
        },
        {
          "name": "E5",
          "midi": 76,
          "time": 123.828125,
          "velocity": 0.6377952755905512,
          "duration": 0.125
        },
        {
          "name": "C#5",
          "midi": 73,
          "time": 123.90625,
          "velocity": 0.6456692913385826,
          "duration": 0.1328125
        },
        {
          "name": "F#6",
          "midi": 90,
          "time": 124.3046875,
          "velocity": 0.5748031496062992,
          "duration": 0.0546875
        },
        {
          "name": "C#5",
          "midi": 73,
          "time": 124.3046875,
          "velocity": 0.7007874015748031,
          "duration": 0.0625
        },
        {
          "name": "A#5",
          "midi": 82,
          "time": 124.3125,
          "velocity": 0.6456692913385826,
          "duration": 0.0625
        },
        {
          "name": "F#5",
          "midi": 78,
          "time": 124.390625,
          "velocity": 0.5826771653543307,
          "duration": 0.046875
        },
        {
          "name": "C#6",
          "midi": 85,
          "time": 124.390625,
          "velocity": 0.5905511811023622,
          "duration": 0.046875
        },
        {
          "name": "C#5",
          "midi": 73,
          "time": 124.46875,
          "velocity": 0.5826771653543307,
          "duration": 0.0625
        },
        {
          "name": "A#5",
          "midi": 82,
          "time": 124.46875,
          "velocity": 0.5984251968503937,
          "duration": 0.046875
        },
        {
          "name": "F#5",
          "midi": 78,
          "time": 124.546875,
          "velocity": 0.5826771653543307,
          "duration": 0.0546875
        },
        {
          "name": "C#5",
          "midi": 73,
          "time": 124.609375,
          "velocity": 0.5984251968503937,
          "duration": 0.0390625
        },
        {
          "name": "F#5",
          "midi": 78,
          "time": 124.875,
          "velocity": 0.5984251968503937,
          "duration": 0.125
        },
        {
          "name": "D#5",
          "midi": 75,
          "time": 124.875,
          "velocity": 0.6850393700787402,
          "duration": 0.0546875
        },
        {
          "name": "B5",
          "midi": 83,
          "time": 124.875,
          "velocity": 0.6062992125984252,
          "duration": 0.0546875
        },
        {
          "name": "D#5",
          "midi": 75,
          "time": 124.953125,
          "velocity": 0.5905511811023622,
          "duration": 0.140625
        },
        {
          "name": "B4",
          "midi": 71,
          "time": 124.953125,
          "velocity": 0.7244094488188977,
          "duration": 0.0546875
        },
        {
          "name": "B4",
          "midi": 71,
          "time": 125.03125,
          "velocity": 0.5905511811023622,
          "duration": 0.1328125
        },
        {
          "name": "F#5",
          "midi": 78,
          "time": 125.4296875,
          "velocity": 0.7007874015748031,
          "duration": 0.0546875
        },
        {
          "name": "B5",
          "midi": 83,
          "time": 125.4296875,
          "velocity": 0.5669291338582677,
          "duration": 0.140625
        },
        {
          "name": "D#6",
          "midi": 87,
          "time": 125.4375,
          "velocity": 0.6535433070866141,
          "duration": 0.0546875
        },
        {
          "name": "D#5",
          "midi": 75,
          "time": 125.5078125,
          "velocity": 0.7874015748031497,
          "duration": 0.046875
        },
        {
          "name": "F#5",
          "midi": 78,
          "time": 125.5078125,
          "velocity": 0.6692913385826772,
          "duration": 0.1328125
        },
        {
          "name": "B4",
          "midi": 71,
          "time": 125.5859375,
          "velocity": 0.7874015748031497,
          "duration": 0.0625
        },
        {
          "name": "D#5",
          "midi": 75,
          "time": 125.59375,
          "velocity": 0.6614173228346457,
          "duration": 0.125
        },
        {
          "name": "B4",
          "midi": 71,
          "time": 125.6640625,
          "velocity": 0.6456692913385826,
          "duration": 0.125
        },
        {
          "name": "D#5",
          "midi": 75,
          "time": 125.9921875,
          "velocity": 0.7165354330708661,
          "duration": 0.0625
        },
        {
          "name": "B5",
          "midi": 83,
          "time": 125.9921875,
          "velocity": 0.5905511811023622,
          "duration": 0.046875
        },
        {
          "name": "F#6",
          "midi": 90,
          "time": 125.9921875,
          "velocity": 0.6062992125984252,
          "duration": 0.0546875
        },
        {
          "name": "B4",
          "midi": 71,
          "time": 126.0703125,
          "velocity": 0.7165354330708661,
          "duration": 0.046875
        },
        {
          "name": "D#6",
          "midi": 87,
          "time": 126.0703125,
          "velocity": 0.5826771653543307,
          "duration": 0.046875
        },
        {
          "name": "F#5",
          "midi": 78,
          "time": 126.078125,
          "velocity": 0.5826771653543307,
          "duration": 0.0625
        },
        {
          "name": "B5",
          "midi": 83,
          "time": 126.1484375,
          "velocity": 0.6062992125984252,
          "duration": 0.046875
        },
        {
          "name": "D#5",
          "midi": 75,
          "time": 126.15625,
          "velocity": 0.5669291338582677,
          "duration": 0.0625
        },
        {
          "name": "F#5",
          "midi": 78,
          "time": 126.2265625,
          "velocity": 0.6062992125984252,
          "duration": 0.03125
        },
        {
          "name": "B4",
          "midi": 71,
          "time": 126.2265625,
          "velocity": 0.5826771653543307,
          "duration": 0.03125
        },
        {
          "name": "D#5",
          "midi": 75,
          "time": 126.296875,
          "velocity": 0.6062992125984252,
          "duration": 0.0703125
        },
        {
          "name": "B4",
          "midi": 71,
          "time": 126.375,
          "velocity": 0.5039370078740157,
          "duration": 0.15625
        },
        {
          "name": "B6",
          "midi": 95,
          "time": 126.5625,
          "velocity": 0.6220472440944882,
          "duration": 0.1484375
        },
        {
          "name": "D#5",
          "midi": 75,
          "time": 126.5625,
          "velocity": 0.8031496062992126,
          "duration": 0.15625
        },
        {
          "name": "B4",
          "midi": 71,
          "time": 126.5625,
          "velocity": 0.8267716535433071,
          "duration": 0.15625
        },
        {
          "name": "B5",
          "midi": 83,
          "time": 126.5625,
          "velocity": 0.8110236220472441,
          "duration": 0.15625
        },
        {
          "name": "E5",
          "midi": 76,
          "time": 129.9296875,
          "velocity": 0.6614173228346457,
          "duration": 0.0546875
        },
        {
          "name": "C6",
          "midi": 84,
          "time": 129.9296875,
          "velocity": 0.6614173228346457,
          "duration": 0.0546875
        },
        {
          "name": "G#5",
          "midi": 80,
          "time": 130.0234375,
          "velocity": 0.6377952755905512,
          "duration": 0.078125
        },
        {
          "name": "B5",
          "midi": 83,
          "time": 130.03125,
          "velocity": 0.6535433070866141,
          "duration": 0.0546875
        },
        {
          "name": "E5",
          "midi": 76,
          "time": 130.1171875,
          "velocity": 0.6377952755905512,
          "duration": 0.078125
        },
        {
          "name": "C6",
          "midi": 84,
          "time": 130.125,
          "velocity": 0.6535433070866141,
          "duration": 0.078125
        },
        {
          "name": "G#5",
          "midi": 80,
          "time": 130.2109375,
          "velocity": 0.6299212598425197,
          "duration": 0.0625
        },
        {
          "name": "B5",
          "midi": 83,
          "time": 130.2109375,
          "velocity": 0.6614173228346457,
          "duration": 0.0703125
        },
        {
          "name": "E5",
          "midi": 76,
          "time": 130.3046875,
          "velocity": 0.6220472440944882,
          "duration": 0.0859375
        },
        {
          "name": "C6",
          "midi": 84,
          "time": 130.3125,
          "velocity": 0.6220472440944882,
          "duration": 0.0546875
        },
        {
          "name": "B5",
          "midi": 83,
          "time": 130.40625,
          "velocity": 0.6456692913385826,
          "duration": 0.0546875
        },
        {
          "name": "G#5",
          "midi": 80,
          "time": 130.40625,
          "velocity": 0.6299212598425197,
          "duration": 0.078125
        },
        {
          "name": "E5",
          "midi": 76,
          "time": 130.4921875,
          "velocity": 0.6456692913385826,
          "duration": 0.0625
        },
        {
          "name": "C6",
          "midi": 84,
          "time": 130.4921875,
          "velocity": 0.6535433070866141,
          "duration": 0.078125
        },
        {
          "name": "G#5",
          "midi": 80,
          "time": 130.5859375,
          "velocity": 0.7007874015748031,
          "duration": 0.0625
        },
        {
          "name": "B5",
          "midi": 83,
          "time": 130.5859375,
          "velocity": 0.7086614173228346,
          "duration": 0.078125
        },
        {
          "name": "E5",
          "midi": 76,
          "time": 130.6796875,
          "velocity": 0.6929133858267716,
          "duration": 0.0546875
        },
        {
          "name": "C6",
          "midi": 84,
          "time": 130.6875,
          "velocity": 0.6929133858267716,
          "duration": 0.0703125
        },
        {
          "name": "G#5",
          "midi": 80,
          "time": 130.7734375,
          "velocity": 0.6929133858267716,
          "duration": 0.0703125
        },
        {
          "name": "B5",
          "midi": 83,
          "time": 130.78125,
          "velocity": 0.6771653543307087,
          "duration": 0.0703125
        },
        {
          "name": "E5",
          "midi": 76,
          "time": 130.8671875,
          "velocity": 0.6929133858267716,
          "duration": 0.0546875
        },
        {
          "name": "C6",
          "midi": 84,
          "time": 130.875,
          "velocity": 0.6850393700787402,
          "duration": 0.0625
        },
        {
          "name": "B5",
          "midi": 83,
          "time": 130.9609375,
          "velocity": 0.6299212598425197,
          "duration": 0.0703125
        },
        {
          "name": "G#5",
          "midi": 80,
          "time": 130.9609375,
          "velocity": 0.6377952755905512,
          "duration": 0.0625
        },
        {
          "name": "C6",
          "midi": 84,
          "time": 131.0546875,
          "velocity": 0.6614173228346457,
          "duration": 0.0625
        },
        {
          "name": "E5",
          "midi": 76,
          "time": 131.0546875,
          "velocity": 0.6535433070866141,
          "duration": 0.0546875
        },
        {
          "name": "G#5",
          "midi": 80,
          "time": 131.1484375,
          "velocity": 0.6850393700787402,
          "duration": 0.0546875
        },
        {
          "name": "B5",
          "midi": 83,
          "time": 131.15625,
          "velocity": 0.7165354330708661,
          "duration": 0.0703125
        },
        {
          "name": "E5",
          "midi": 76,
          "time": 131.2421875,
          "velocity": 0.7244094488188977,
          "duration": 0.0625
        },
        {
          "name": "C6",
          "midi": 84,
          "time": 131.25,
          "velocity": 0.7322834645669292,
          "duration": 0.0625
        },
        {
          "name": "G#5",
          "midi": 80,
          "time": 131.3359375,
          "velocity": 0.7795275590551181,
          "duration": 0.0703125
        },
        {
          "name": "B5",
          "midi": 83,
          "time": 131.34375,
          "velocity": 0.7795275590551181,
          "duration": 0.0703125
        },
        {
          "name": "E5",
          "midi": 76,
          "time": 131.4296875,
          "velocity": 0.8346456692913385,
          "duration": 0.078125
        },
        {
          "name": "C6",
          "midi": 84,
          "time": 131.4296875,
          "velocity": 0.8267716535433071,
          "duration": 0.0625
        },
        {
          "name": "G#5",
          "midi": 80,
          "time": 131.53125,
          "velocity": 0.8818897637795275,
          "duration": 0.0546875
        },
        {
          "name": "B5",
          "midi": 83,
          "time": 131.53125,
          "velocity": 0.8976377952755905,
          "duration": 0.0625
        },
        {
          "name": "G5",
          "midi": 79,
          "time": 131.6171875,
          "velocity": 0.8346456692913385,
          "duration": 0.0625
        },
        {
          "name": "E5",
          "midi": 76,
          "time": 131.625,
          "velocity": 0.9606299212598425,
          "duration": 0.0546875
        },
        {
          "name": "C6",
          "midi": 84,
          "time": 131.625,
          "velocity": 0.84251968503937,
          "duration": 0.0546875
        },
        {
          "name": "C6",
          "midi": 84,
          "time": 131.7109375,
          "velocity": 0.8031496062992126,
          "duration": 0.0546875
        },
        {
          "name": "G5",
          "midi": 79,
          "time": 131.7109375,
          "velocity": 0.7952755905511811,
          "duration": 0.0625
        },
        {
          "name": "E5",
          "midi": 76,
          "time": 131.7109375,
          "velocity": 0.8976377952755905,
          "duration": 0.0703125
        },
        {
          "name": "B5",
          "midi": 83,
          "time": 131.8046875,
          "velocity": 0.7244094488188977,
          "duration": 0.0625
        },
        {
          "name": "F#5",
          "midi": 78,
          "time": 131.8125,
          "velocity": 0.7480314960629921,
          "duration": 0.0546875
        },
        {
          "name": "B5",
          "midi": 83,
          "time": 131.8984375,
          "velocity": 0.7086614173228346,
          "duration": 0.0703125
        },
        {
          "name": "F#5",
          "midi": 78,
          "time": 131.90625,
          "velocity": 0.6850393700787402,
          "duration": 0.0703125
        },
        {
          "name": "A#5",
          "midi": 82,
          "time": 131.9921875,
          "velocity": 0.6692913385826772,
          "duration": 0.0625
        },
        {
          "name": "F5",
          "midi": 77,
          "time": 131.9921875,
          "velocity": 0.6771653543307087,
          "duration": 0.0703125
        },
        {
          "name": "F5",
          "midi": 77,
          "time": 132.09375,
          "velocity": 0.6456692913385826,
          "duration": 0.0703125
        },
        {
          "name": "A#5",
          "midi": 82,
          "time": 132.09375,
          "velocity": 0.6456692913385826,
          "duration": 0.0625
        },
        {
          "name": "E5",
          "midi": 76,
          "time": 132.1875,
          "velocity": 0.6850393700787402,
          "duration": 0.046875
        },
        {
          "name": "A5",
          "midi": 81,
          "time": 132.1875,
          "velocity": 0.6850393700787402,
          "duration": 0.046875
        },
        {
          "name": "E5",
          "midi": 76,
          "time": 132.2734375,
          "velocity": 0.7086614173228346,
          "duration": 0.046875
        },
        {
          "name": "A5",
          "midi": 81,
          "time": 132.28125,
          "velocity": 0.7165354330708661,
          "duration": 0.0703125
        },
        {
          "name": "D#5",
          "midi": 75,
          "time": 132.3671875,
          "velocity": 0.6614173228346457,
          "duration": 0.0625
        },
        {
          "name": "G#5",
          "midi": 80,
          "time": 132.375,
          "velocity": 0.6614173228346457,
          "duration": 0.0546875
        },
        {
          "name": "D#5",
          "midi": 75,
          "time": 132.46875,
          "velocity": 0.6692913385826772,
          "duration": 0.046875
        },
        {
          "name": "G#5",
          "midi": 80,
          "time": 132.46875,
          "velocity": 0.6535433070866141,
          "duration": 0.0625
        },
        {
          "name": "D5",
          "midi": 74,
          "time": 132.5546875,
          "velocity": 0.6771653543307087,
          "duration": 0.046875
        },
        {
          "name": "G5",
          "midi": 79,
          "time": 132.5625,
          "velocity": 0.6692913385826772,
          "duration": 0.0625
        },
        {
          "name": "D5",
          "midi": 74,
          "time": 132.6484375,
          "velocity": 0.6456692913385826,
          "duration": 0.0703125
        },
        {
          "name": "G5",
          "midi": 79,
          "time": 132.65625,
          "velocity": 0.6456692913385826,
          "duration": 0.0625
        },
        {
          "name": "C#5",
          "midi": 73,
          "time": 132.7421875,
          "velocity": 0.6377952755905512,
          "duration": 0.0703125
        },
        {
          "name": "F#5",
          "midi": 78,
          "time": 132.7421875,
          "velocity": 0.6141732283464567,
          "duration": 0.0625
        },
        {
          "name": "C#5",
          "midi": 73,
          "time": 132.84375,
          "velocity": 0.6299212598425197,
          "duration": 0.0546875
        },
        {
          "name": "F#5",
          "midi": 78,
          "time": 132.84375,
          "velocity": 0.6220472440944882,
          "duration": 0.0703125
        },
        {
          "name": "F5",
          "midi": 77,
          "time": 132.9296875,
          "velocity": 0.6141732283464567,
          "duration": 0.0703125
        },
        {
          "name": "C5",
          "midi": 72,
          "time": 132.9296875,
          "velocity": 0.6062992125984252,
          "duration": 0.0625
        },
        {
          "name": "F5",
          "midi": 77,
          "time": 133.0234375,
          "velocity": 0.6141732283464567,
          "duration": 0.0625
        },
        {
          "name": "C5",
          "midi": 72,
          "time": 133.03125,
          "velocity": 0.6141732283464567,
          "duration": 0.0546875
        },
        {
          "name": "E5",
          "midi": 76,
          "time": 133.1171875,
          "velocity": 0.5669291338582677,
          "duration": 0.0703125
        },
        {
          "name": "B4",
          "midi": 71,
          "time": 133.125,
          "velocity": 0.6062992125984252,
          "duration": 0.0546875
        },
        {
          "name": "B4",
          "midi": 71,
          "time": 133.2109375,
          "velocity": 0.5905511811023622,
          "duration": 0.0625
        },
        {
          "name": "E5",
          "midi": 76,
          "time": 133.2109375,
          "velocity": 0.5905511811023622,
          "duration": 0.0625
        },
        {
          "name": "C5",
          "midi": 72,
          "time": 133.3046875,
          "velocity": 0.5984251968503937,
          "duration": 0.171875
        },
        {
          "name": "F5",
          "midi": 77,
          "time": 133.3125,
          "velocity": 0.6062992125984252,
          "duration": 0.15625
        },
        {
          "name": "F#5",
          "midi": 78,
          "time": 136.6796875,
          "velocity": 0.4330708661417323,
          "duration": 0.078125
        },
        {
          "name": "D6",
          "midi": 86,
          "time": 136.6796875,
          "velocity": 0.44881889763779526,
          "duration": 0.078125
        },
        {
          "name": "C#6",
          "midi": 85,
          "time": 136.78125,
          "velocity": 0.41732283464566927,
          "duration": 0.0546875
        },
        {
          "name": "A#5",
          "midi": 82,
          "time": 136.78125,
          "velocity": 0.41732283464566927,
          "duration": 0.078125
        },
        {
          "name": "F#5",
          "midi": 78,
          "time": 136.8671875,
          "velocity": 0.48031496062992124,
          "duration": 0.0703125
        },
        {
          "name": "D6",
          "midi": 86,
          "time": 136.8671875,
          "velocity": 0.4645669291338583,
          "duration": 0.0546875
        },
        {
          "name": "C#6",
          "midi": 85,
          "time": 136.9609375,
          "velocity": 0.47244094488188976,
          "duration": 0.078125
        },
        {
          "name": "A#5",
          "midi": 82,
          "time": 136.96875,
          "velocity": 0.4881889763779528,
          "duration": 0.0546875
        },
        {
          "name": "F#5",
          "midi": 78,
          "time": 137.0546875,
          "velocity": 0.4881889763779528,
          "duration": 0.0703125
        },
        {
          "name": "D6",
          "midi": 86,
          "time": 137.0546875,
          "velocity": 0.4881889763779528,
          "duration": 0.0625
        },
        {
          "name": "C#6",
          "midi": 85,
          "time": 137.15625,
          "velocity": 0.4881889763779528,
          "duration": 0.078125
        },
        {
          "name": "A#5",
          "midi": 82,
          "time": 137.15625,
          "velocity": 0.5196850393700787,
          "duration": 0.0703125
        },
        {
          "name": "D6",
          "midi": 86,
          "time": 137.2421875,
          "velocity": 0.5669291338582677,
          "duration": 0.0859375
        },
        {
          "name": "F#5",
          "midi": 78,
          "time": 137.25,
          "velocity": 0.6377952755905512,
          "duration": 0.0703125
        },
        {
          "name": "A#5",
          "midi": 82,
          "time": 137.3359375,
          "velocity": 0.5984251968503937,
          "duration": 0.0625
        },
        {
          "name": "C#6",
          "midi": 85,
          "time": 137.3359375,
          "velocity": 0.6299212598425197,
          "duration": 0.0546875
        },
        {
          "name": "F#5",
          "midi": 78,
          "time": 137.4296875,
          "velocity": 0.6220472440944882,
          "duration": 0.078125
        },
        {
          "name": "D6",
          "midi": 86,
          "time": 137.4296875,
          "velocity": 0.6456692913385826,
          "duration": 0.0703125
        },
        {
          "name": "A#5",
          "midi": 82,
          "time": 137.5234375,
          "velocity": 0.6220472440944882,
          "duration": 0.0703125
        },
        {
          "name": "C#6",
          "midi": 85,
          "time": 137.5234375,
          "velocity": 0.6141732283464567,
          "duration": 0.0625
        },
        {
          "name": "F#5",
          "midi": 78,
          "time": 137.625,
          "velocity": 0.5984251968503937,
          "duration": 0.078125
        },
        {
          "name": "D6",
          "midi": 86,
          "time": 137.625,
          "velocity": 0.5984251968503937,
          "duration": 0.078125
        },
        {
          "name": "C#6",
          "midi": 85,
          "time": 137.71875,
          "velocity": 0.6220472440944882,
          "duration": 0.0546875
        },
        {
          "name": "A#5",
          "midi": 82,
          "time": 137.71875,
          "velocity": 0.6535433070866141,
          "duration": 0.0703125
        },
        {
          "name": "F#5",
          "midi": 78,
          "time": 137.8125,
          "velocity": 0.7559055118110236,
          "duration": 0.0703125
        },
        {
          "name": "D6",
          "midi": 86,
          "time": 137.8125,
          "velocity": 0.7637795275590551,
          "duration": 0.0703125
        },
        {
          "name": "A#5",
          "midi": 82,
          "time": 137.90625,
          "velocity": 0.6929133858267716,
          "duration": 0.078125
        },
        {
          "name": "C#6",
          "midi": 85,
          "time": 137.90625,
          "velocity": 0.6850393700787402,
          "duration": 0.0546875
        },
        {
          "name": "D6",
          "midi": 86,
          "time": 137.9921875,
          "velocity": 0.7559055118110236,
          "duration": 0.078125
        },
        {
          "name": "F#5",
          "midi": 78,
          "time": 138,
          "velocity": 0.7322834645669292,
          "duration": 0.0703125
        },
        {
          "name": "C#6",
          "midi": 85,
          "time": 138.0859375,
          "velocity": 0.7716535433070866,
          "duration": 0.0703125
        },
        {
          "name": "A#5",
          "midi": 82,
          "time": 138.09375,
          "velocity": 0.8031496062992126,
          "duration": 0.0703125
        },
        {
          "name": "F#5",
          "midi": 78,
          "time": 138.1796875,
          "velocity": 0.8267716535433071,
          "duration": 0.078125
        },
        {
          "name": "D6",
          "midi": 86,
          "time": 138.1796875,
          "velocity": 0.8188976377952756,
          "duration": 0.078125
        },
        {
          "name": "C#6",
          "midi": 85,
          "time": 138.2734375,
          "velocity": 0.889763779527559,
          "duration": 0.0703125
        },
        {
          "name": "A#5",
          "midi": 82,
          "time": 138.2734375,
          "velocity": 0.8740157480314961,
          "duration": 0.0546875
        },
        {
          "name": "A5",
          "midi": 81,
          "time": 138.3671875,
          "velocity": 0.8188976377952756,
          "duration": 0.046875
        },
        {
          "name": "D6",
          "midi": 86,
          "time": 138.3671875,
          "velocity": 0.8031496062992126,
          "duration": 0.0625
        },
        {
          "name": "A5",
          "midi": 81,
          "time": 138.4609375,
          "velocity": 0.7795275590551181,
          "duration": 0.0703125
        },
        {
          "name": "D6",
          "midi": 86,
          "time": 138.46875,
          "velocity": 0.8031496062992126,
          "duration": 0.0546875
        },
        {
          "name": "C#6",
          "midi": 85,
          "time": 138.5546875,
          "velocity": 0.7637795275590551,
          "duration": 0.046875
        },
        {
          "name": "G#5",
          "midi": 80,
          "time": 138.5546875,
          "velocity": 0.7480314960629921,
          "duration": 0.0546875
        },
        {
          "name": "C#6",
          "midi": 85,
          "time": 138.6484375,
          "velocity": 0.7007874015748031,
          "duration": 0.0546875
        },
        {
          "name": "G#5",
          "midi": 80,
          "time": 138.65625,
          "velocity": 0.7165354330708661,
          "duration": 0.0625
        },
        {
          "name": "G5",
          "midi": 79,
          "time": 138.7421875,
          "velocity": 0.6535433070866141,
          "duration": 0.046875
        },
        {
          "name": "C6",
          "midi": 84,
          "time": 138.7421875,
          "velocity": 0.6614173228346457,
          "duration": 0.0625
        },
        {
          "name": "G5",
          "midi": 79,
          "time": 138.84375,
          "velocity": 0.6299212598425197,
          "duration": 0.0546875
        },
        {
          "name": "C6",
          "midi": 84,
          "time": 138.84375,
          "velocity": 0.6299212598425197,
          "duration": 0.046875
        },
        {
          "name": "F#5",
          "midi": 78,
          "time": 138.9296875,
          "velocity": 0.6456692913385826,
          "duration": 0.0703125
        },
        {
          "name": "B5",
          "midi": 83,
          "time": 138.9375,
          "velocity": 0.6929133858267716,
          "duration": 0.046875
        },
        {
          "name": "F#5",
          "midi": 78,
          "time": 139.0234375,
          "velocity": 0.6929133858267716,
          "duration": 0.0546875
        },
        {
          "name": "B5",
          "midi": 83,
          "time": 139.03125,
          "velocity": 0.7165354330708661,
          "duration": 0.0625
        },
        {
          "name": "A#5",
          "midi": 82,
          "time": 139.125,
          "velocity": 0.6771653543307087,
          "duration": 0.046875
        },
        {
          "name": "F5",
          "midi": 77,
          "time": 139.125,
          "velocity": 0.6850393700787402,
          "duration": 0.0703125
        },
        {
          "name": "A#5",
          "midi": 82,
          "time": 139.2109375,
          "velocity": 0.6692913385826772,
          "duration": 0.0703125
        },
        {
          "name": "F5",
          "midi": 77,
          "time": 139.21875,
          "velocity": 0.6614173228346457,
          "duration": 0.0546875
        },
        {
          "name": "E5",
          "midi": 76,
          "time": 139.3046875,
          "velocity": 0.6456692913385826,
          "duration": 0.0390625
        },
        {
          "name": "A5",
          "midi": 81,
          "time": 139.3125,
          "velocity": 0.6692913385826772,
          "duration": 0.078125
        },
        {
          "name": "A5",
          "midi": 81,
          "time": 139.40625,
          "velocity": 0.6456692913385826,
          "duration": 0.0546875
        },
        {
          "name": "E5",
          "midi": 76,
          "time": 139.40625,
          "velocity": 0.6220472440944882,
          "duration": 0.0703125
        },
        {
          "name": "D#5",
          "midi": 75,
          "time": 139.4921875,
          "velocity": 0.6062992125984252,
          "duration": 0.0703125
        },
        {
          "name": "G#5",
          "midi": 80,
          "time": 139.4921875,
          "velocity": 0.6220472440944882,
          "duration": 0.0625
        },
        {
          "name": "D#5",
          "midi": 75,
          "time": 139.5859375,
          "velocity": 0.6141732283464567,
          "duration": 0.046875
        },
        {
          "name": "G#5",
          "midi": 80,
          "time": 139.5859375,
          "velocity": 0.6220472440944882,
          "duration": 0.0703125
        },
        {
          "name": "G5",
          "midi": 79,
          "time": 139.6796875,
          "velocity": 0.6299212598425197,
          "duration": 0.0546875
        },
        {
          "name": "D5",
          "midi": 74,
          "time": 139.6875,
          "velocity": 0.6299212598425197,
          "duration": 0.0703125
        },
        {
          "name": "G5",
          "midi": 79,
          "time": 139.7734375,
          "velocity": 0.6456692913385826,
          "duration": 0.0703125
        },
        {
          "name": "D5",
          "midi": 74,
          "time": 139.78125,
          "velocity": 0.6456692913385826,
          "duration": 0.0625
        },
        {
          "name": "C#5",
          "midi": 73,
          "time": 139.8671875,
          "velocity": 0.5905511811023622,
          "duration": 0.0625
        },
        {
          "name": "F#5",
          "midi": 78,
          "time": 139.8671875,
          "velocity": 0.5669291338582677,
          "duration": 0.0703125
        },
        {
          "name": "F#5",
          "midi": 78,
          "time": 139.9609375,
          "velocity": 0.5984251968503937,
          "duration": 0.046875
        },
        {
          "name": "C#5",
          "midi": 73,
          "time": 139.9609375,
          "velocity": 0.5826771653543307,
          "duration": 0.046875
        },
        {
          "name": "D#5",
          "midi": 75,
          "time": 140.0546875,
          "velocity": 0.4409448818897638,
          "duration": 0.140625
        },
        {
          "name": "G5",
          "midi": 79,
          "time": 140.0625,
          "velocity": 0.4330708661417323,
          "duration": 0.171875
        },
        {
          "name": "D#5",
          "midi": 75,
          "time": 140.2421875,
          "velocity": 0.4251968503937008,
          "duration": 0.2578125
        },
        {
          "name": "B4",
          "midi": 71,
          "time": 140.625,
          "velocity": 0.6062992125984252,
          "duration": 0.515625
        },
        {
          "name": "B4",
          "midi": 71,
          "time": 141.1796875,
          "velocity": 0.5433070866141733,
          "duration": 0.1640625
        },
        {
          "name": "G5",
          "midi": 79,
          "time": 141.7421875,
          "velocity": 0.4094488188976378,
          "duration": 0.171875
        },
        {
          "name": "D#5",
          "midi": 75,
          "time": 141.75,
          "velocity": 0.4409448818897638,
          "duration": 0.453125
        },
        {
          "name": "B4",
          "midi": 71,
          "time": 142.3046875,
          "velocity": 0.49606299212598426,
          "duration": 0.5390625
        },
        {
          "name": "B4",
          "midi": 71,
          "time": 142.8671875,
          "velocity": 0.5275590551181102,
          "duration": 0.15625
        },
        {
          "name": "G4",
          "midi": 67,
          "time": 143.0625,
          "velocity": 0.5354330708661418,
          "duration": 0.25
        },
        {
          "name": "G5",
          "midi": 79,
          "time": 143.4296875,
          "velocity": 0.44881889763779526,
          "duration": 0.171875
        },
        {
          "name": "E5",
          "midi": 76,
          "time": 143.625,
          "velocity": 0.41732283464566927,
          "duration": 0.25
        },
        {
          "name": "C5",
          "midi": 72,
          "time": 144,
          "velocity": 0.5826771653543307,
          "duration": 0.5390625
        },
        {
          "name": "C5",
          "midi": 72,
          "time": 144.5625,
          "velocity": 0.6062992125984252,
          "duration": 0.171875
        },
        {
          "name": "G5",
          "midi": 79,
          "time": 145.125,
          "velocity": 0.4094488188976378,
          "duration": 0.15625
        },
        {
          "name": "E5",
          "midi": 76,
          "time": 145.3125,
          "velocity": 0.4330708661417323,
          "duration": 0.2578125
        },
        {
          "name": "C5",
          "midi": 72,
          "time": 145.6875,
          "velocity": 0.5984251968503937,
          "duration": 0.5078125
        },
        {
          "name": "G6",
          "midi": 91,
          "time": 146.8046875,
          "velocity": 0.3543307086614173,
          "duration": 0.078125
        },
        {
          "name": "A#5",
          "midi": 82,
          "time": 146.8125,
          "velocity": 0.36220472440944884,
          "duration": 0.0625
        },
        {
          "name": "C#6",
          "midi": 85,
          "time": 146.8984375,
          "velocity": 0.3779527559055118,
          "duration": 0.0546875
        },
        {
          "name": "F#6",
          "midi": 90,
          "time": 146.90625,
          "velocity": 0.4015748031496063,
          "duration": 0.0703125
        },
        {
          "name": "G6",
          "midi": 91,
          "time": 146.9921875,
          "velocity": 0.41732283464566927,
          "duration": 0.0546875
        },
        {
          "name": "A#5",
          "midi": 82,
          "time": 147,
          "velocity": 0.4330708661417323,
          "duration": 0.0703125
        },
        {
          "name": "C#6",
          "midi": 85,
          "time": 147.0859375,
          "velocity": 0.29133858267716534,
          "duration": 0.0703125
        },
        {
          "name": "F#6",
          "midi": 90,
          "time": 147.0859375,
          "velocity": 0.2992125984251969,
          "duration": 0.078125
        },
        {
          "name": "A#5",
          "midi": 82,
          "time": 147.1875,
          "velocity": 0.36220472440944884,
          "duration": 0.078125
        },
        {
          "name": "G6",
          "midi": 91,
          "time": 147.1875,
          "velocity": 0.3700787401574803,
          "duration": 0.0703125
        },
        {
          "name": "F#6",
          "midi": 90,
          "time": 147.2734375,
          "velocity": 0.3700787401574803,
          "duration": 0.0625
        },
        {
          "name": "C#6",
          "midi": 85,
          "time": 147.28125,
          "velocity": 0.4094488188976378,
          "duration": 0.0625
        },
        {
          "name": "G6",
          "midi": 91,
          "time": 147.3671875,
          "velocity": 0.4251968503937008,
          "duration": 0.078125
        },
        {
          "name": "A#5",
          "midi": 82,
          "time": 147.3671875,
          "velocity": 0.4409448818897638,
          "duration": 0.0546875
        },
        {
          "name": "F#6",
          "midi": 90,
          "time": 147.4609375,
          "velocity": 0.5354330708661418,
          "duration": 0.0703125
        },
        {
          "name": "C#6",
          "midi": 85,
          "time": 147.46875,
          "velocity": 0.5354330708661418,
          "duration": 0.0625
        },
        {
          "name": "G6",
          "midi": 91,
          "time": 147.5546875,
          "velocity": 0.5511811023622047,
          "duration": 0.078125
        },
        {
          "name": "A#5",
          "midi": 82,
          "time": 147.5625,
          "velocity": 0.5826771653543307,
          "duration": 0.0625
        },
        {
          "name": "F#6",
          "midi": 90,
          "time": 147.6484375,
          "velocity": 0.5669291338582677,
          "duration": 0.078125
        },
        {
          "name": "C#6",
          "midi": 85,
          "time": 147.65625,
          "velocity": 0.5826771653543307,
          "duration": 0.0625
        },
        {
          "name": "G6",
          "midi": 91,
          "time": 147.7421875,
          "velocity": 0.6377952755905512,
          "duration": 0.0546875
        },
        {
          "name": "A#5",
          "midi": 82,
          "time": 147.75,
          "velocity": 0.5984251968503937,
          "duration": 0.0859375
        },
        {
          "name": "C#6",
          "midi": 85,
          "time": 147.84375,
          "velocity": 0.6614173228346457,
          "duration": 0.078125
        },
        {
          "name": "F#6",
          "midi": 90,
          "time": 147.84375,
          "velocity": 0.6377952755905512,
          "duration": 0.0625
        },
        {
          "name": "G6",
          "midi": 91,
          "time": 147.9296875,
          "velocity": 0.6220472440944882,
          "duration": 0.0703125
        },
        {
          "name": "A#5",
          "midi": 82,
          "time": 147.9375,
          "velocity": 0.7007874015748031,
          "duration": 0.0625
        },
        {
          "name": "F#6",
          "midi": 90,
          "time": 148.03125,
          "velocity": 0.6456692913385826,
          "duration": 0.0859375
        },
        {
          "name": "C#6",
          "midi": 85,
          "time": 148.03125,
          "velocity": 0.6377952755905512,
          "duration": 0.078125
        },
        {
          "name": "A#5",
          "midi": 82,
          "time": 148.1171875,
          "velocity": 0.6614173228346457,
          "duration": 0.078125
        },
        {
          "name": "G6",
          "midi": 91,
          "time": 148.125,
          "velocity": 0.6535433070866141,
          "duration": 0.0703125
        },
        {
          "name": "C#6",
          "midi": 85,
          "time": 148.2109375,
          "velocity": 0.6692913385826772,
          "duration": 0.0625
        },
        {
          "name": "F#6",
          "midi": 90,
          "time": 148.21875,
          "velocity": 0.6535433070866141,
          "duration": 0.0625
        },
        {
          "name": "A#5",
          "midi": 82,
          "time": 148.3125,
          "velocity": 0.6850393700787402,
          "duration": 0.0703125
        },
        {
          "name": "G6",
          "midi": 91,
          "time": 148.3125,
          "velocity": 0.6692913385826772,
          "duration": 0.0703125
        },
        {
          "name": "C#6",
          "midi": 85,
          "time": 148.40625,
          "velocity": 0.6850393700787402,
          "duration": 0.0625
        },
        {
          "name": "F#6",
          "midi": 90,
          "time": 148.40625,
          "velocity": 0.6614173228346457,
          "duration": 0.0703125
        },
        {
          "name": "A#5",
          "midi": 82,
          "time": 148.5,
          "velocity": 0.6850393700787402,
          "duration": 0.0546875
        },
        {
          "name": "G6",
          "midi": 91,
          "time": 148.5,
          "velocity": 0.6535433070866141,
          "duration": 0.078125
        },
        {
          "name": "C#6",
          "midi": 85,
          "time": 148.5859375,
          "velocity": 0.6692913385826772,
          "duration": 0.078125
        },
        {
          "name": "F#6",
          "midi": 90,
          "time": 148.59375,
          "velocity": 0.6614173228346457,
          "duration": 0.0703125
        },
        {
          "name": "A#5",
          "midi": 82,
          "time": 148.6796875,
          "velocity": 0.7086614173228346,
          "duration": 0.0703125
        },
        {
          "name": "G6",
          "midi": 91,
          "time": 148.6875,
          "velocity": 0.7007874015748031,
          "duration": 0.078125
        },
        {
          "name": "C#6",
          "midi": 85,
          "time": 148.7734375,
          "velocity": 0.7244094488188977,
          "duration": 0.078125
        },
        {
          "name": "F#6",
          "midi": 90,
          "time": 148.78125,
          "velocity": 0.6850393700787402,
          "duration": 0.0625
        },
        {
          "name": "A#5",
          "midi": 82,
          "time": 148.8671875,
          "velocity": 0.7165354330708661,
          "duration": 0.0859375
        },
        {
          "name": "G6",
          "midi": 91,
          "time": 148.875,
          "velocity": 0.7007874015748031,
          "duration": 0.0703125
        },
        {
          "name": "C#6",
          "midi": 85,
          "time": 148.9609375,
          "velocity": 0.7322834645669292,
          "duration": 0.0625
        },
        {
          "name": "F#6",
          "midi": 90,
          "time": 148.9609375,
          "velocity": 0.7559055118110236,
          "duration": 0.0703125
        },
        {
          "name": "A#5",
          "midi": 82,
          "time": 149.0546875,
          "velocity": 0.7401574803149606,
          "duration": 0.078125
        },
        {
          "name": "G6",
          "midi": 91,
          "time": 149.0625,
          "velocity": 0.8031496062992126,
          "duration": 0.0703125
        },
        {
          "name": "C#6",
          "midi": 85,
          "time": 149.1484375,
          "velocity": 0.8110236220472441,
          "duration": 0.0703125
        },
        {
          "name": "F#6",
          "midi": 90,
          "time": 149.1484375,
          "velocity": 0.8031496062992126,
          "duration": 0.0625
        },
        {
          "name": "A#5",
          "midi": 82,
          "time": 149.2421875,
          "velocity": 0.8582677165354331,
          "duration": 0.078125
        },
        {
          "name": "G6",
          "midi": 91,
          "time": 149.2421875,
          "velocity": 0.8031496062992126,
          "duration": 0.0703125
        },
        {
          "name": "F#6",
          "midi": 90,
          "time": 149.3359375,
          "velocity": 0.8267716535433071,
          "duration": 0.0546875
        },
        {
          "name": "C#6",
          "midi": 85,
          "time": 149.34375,
          "velocity": 0.8188976377952756,
          "duration": 0.0546875
        },
        {
          "name": "G6",
          "midi": 91,
          "time": 149.4375,
          "velocity": 0.8346456692913385,
          "duration": 0.0625
        },
        {
          "name": "A#5",
          "midi": 82,
          "time": 149.4375,
          "velocity": 0.8346456692913385,
          "duration": 0.0703125
        },
        {
          "name": "F#6",
          "midi": 90,
          "time": 149.5234375,
          "velocity": 0.7795275590551181,
          "duration": 0.0625
        },
        {
          "name": "C#6",
          "midi": 85,
          "time": 149.5234375,
          "velocity": 0.7952755905511811,
          "duration": 0.0625
        },
        {
          "name": "A#5",
          "midi": 82,
          "time": 149.6171875,
          "velocity": 0.84251968503937,
          "duration": 0.078125
        },
        {
          "name": "G6",
          "midi": 91,
          "time": 149.6171875,
          "velocity": 0.8267716535433071,
          "duration": 0.078125
        },
        {
          "name": "F#6",
          "midi": 90,
          "time": 149.7109375,
          "velocity": 0.8188976377952756,
          "duration": 0.078125
        },
        {
          "name": "C#6",
          "midi": 85,
          "time": 149.71875,
          "velocity": 0.8031496062992126,
          "duration": 0.078125
        },
        {
          "name": "G6",
          "midi": 91,
          "time": 149.8046875,
          "velocity": 0.8188976377952756,
          "duration": 0.0625
        },
        {
          "name": "A#5",
          "midi": 82,
          "time": 149.8125,
          "velocity": 0.8346456692913385,
          "duration": 0.0625
        },
        {
          "name": "F#6",
          "midi": 90,
          "time": 149.8984375,
          "velocity": 0.8188976377952756,
          "duration": 0.0546875
        },
        {
          "name": "C#6",
          "midi": 85,
          "time": 149.90625,
          "velocity": 0.8188976377952756,
          "duration": 0.078125
        },
        {
          "name": "A#5",
          "midi": 82,
          "time": 150,
          "velocity": 0.8818897637795275,
          "duration": 0.078125
        },
        {
          "name": "G6",
          "midi": 91,
          "time": 150,
          "velocity": 0.8661417322834646,
          "duration": 0.0625
        },
        {
          "name": "F#6",
          "midi": 90,
          "time": 150.0859375,
          "velocity": 0.8582677165354331,
          "duration": 0.0703125
        },
        {
          "name": "C#6",
          "midi": 85,
          "time": 150.09375,
          "velocity": 0.8503937007874016,
          "duration": 0.0546875
        },
        {
          "name": "B5",
          "midi": 83,
          "time": 150.1796875,
          "velocity": 0.6614173228346457,
          "duration": 0.0390625
        },
        {
          "name": "B6",
          "midi": 95,
          "time": 150.1796875,
          "velocity": 0.6771653543307087,
          "duration": 0.0390625
        },
        {
          "name": "F#5",
          "midi": 78,
          "time": 150.1875,
          "velocity": 0.7716535433070866,
          "duration": 0.0390625
        },
        {
          "name": "B6",
          "midi": 95,
          "time": 150.2734375,
          "velocity": 0.5905511811023622,
          "duration": 0.046875
        },
        {
          "name": "B5",
          "midi": 83,
          "time": 150.2734375,
          "velocity": 0.5826771653543307,
          "duration": 0.046875
        },
        {
          "name": "F#5",
          "midi": 78,
          "time": 150.28125,
          "velocity": 0.6850393700787402,
          "duration": 0.046875
        },
        {
          "name": "B5",
          "midi": 83,
          "time": 150.3671875,
          "velocity": 0.6614173228346457,
          "duration": 0.0546875
        },
        {
          "name": "F#5",
          "midi": 78,
          "time": 150.3671875,
          "velocity": 0.7874015748031497,
          "duration": 0.0625
        },
        {
          "name": "B6",
          "midi": 95,
          "time": 150.375,
          "velocity": 0.6692913385826772,
          "duration": 0.0625
        },
        {
          "name": "F#5",
          "midi": 78,
          "time": 150.4609375,
          "velocity": 0.7244094488188977,
          "duration": 0.0546875
        },
        {
          "name": "B6",
          "midi": 95,
          "time": 150.4609375,
          "velocity": 0.5669291338582677,
          "duration": 0.0703125
        },
        {
          "name": "B5",
          "midi": 83,
          "time": 150.46875,
          "velocity": 0.5984251968503937,
          "duration": 0.0625
        },
        {
          "name": "B5",
          "midi": 83,
          "time": 150.5546875,
          "velocity": 0.6771653543307087,
          "duration": 0.0625
        },
        {
          "name": "F#5",
          "midi": 78,
          "time": 150.5625,
          "velocity": 0.7874015748031497,
          "duration": 0.046875
        },
        {
          "name": "B6",
          "midi": 95,
          "time": 150.5625,
          "velocity": 0.6456692913385826,
          "duration": 0.046875
        },
        {
          "name": "B5",
          "midi": 83,
          "time": 150.6484375,
          "velocity": 0.6062992125984252,
          "duration": 0.0703125
        },
        {
          "name": "F#5",
          "midi": 78,
          "time": 150.6484375,
          "velocity": 0.7244094488188977,
          "duration": 0.0625
        },
        {
          "name": "B6",
          "midi": 95,
          "time": 150.65625,
          "velocity": 0.5826771653543307,
          "duration": 0.0703125
        },
        {
          "name": "B5",
          "midi": 83,
          "time": 150.7421875,
          "velocity": 0.6614173228346457,
          "duration": 0.0625
        },
        {
          "name": "F#5",
          "midi": 78,
          "time": 150.7421875,
          "velocity": 0.8031496062992126,
          "duration": 0.0703125
        },
        {
          "name": "B6",
          "midi": 95,
          "time": 150.7421875,
          "velocity": 0.6771653543307087,
          "duration": 0.046875
        },
        {
          "name": "F#5",
          "midi": 78,
          "time": 150.8359375,
          "velocity": 0.7637795275590551,
          "duration": 0.0625
        },
        {
          "name": "B5",
          "midi": 83,
          "time": 150.8359375,
          "velocity": 0.6535433070866141,
          "duration": 0.0625
        },
        {
          "name": "B6",
          "midi": 95,
          "time": 150.84375,
          "velocity": 0.6535433070866141,
          "duration": 0.0546875
        },
        {
          "name": "A#6",
          "midi": 94,
          "time": 150.9296875,
          "velocity": 0.7244094488188977,
          "duration": 0.0625
        },
        {
          "name": "A#5",
          "midi": 82,
          "time": 150.9375,
          "velocity": 0.7244094488188977,
          "duration": 0.0546875
        },
        {
          "name": "A#6",
          "midi": 94,
          "time": 151.0234375,
          "velocity": 0.6220472440944882,
          "duration": 0.0625
        },
        {
          "name": "A#5",
          "midi": 82,
          "time": 151.0234375,
          "velocity": 0.6377952755905512,
          "duration": 0.0703125
        },
        {
          "name": "G#5",
          "midi": 80,
          "time": 151.125,
          "velocity": 0.7007874015748031,
          "duration": 0.0625
        },
        {
          "name": "G#6",
          "midi": 92,
          "time": 151.125,
          "velocity": 0.6771653543307087,
          "duration": 0.046875
        },
        {
          "name": "G#5",
          "midi": 80,
          "time": 151.2109375,
          "velocity": 0.6141732283464567,
          "duration": 0.0625
        },
        {
          "name": "G#6",
          "midi": 92,
          "time": 151.21875,
          "velocity": 0.5984251968503937,
          "duration": 0.0546875
        },
        {
          "name": "F#6",
          "midi": 90,
          "time": 151.3125,
          "velocity": 0.7401574803149606,
          "duration": 0.046875
        },
        {
          "name": "F#5",
          "midi": 78,
          "time": 151.3125,
          "velocity": 0.7637795275590551,
          "duration": 0.0625
        },
        {
          "name": "F#6",
          "midi": 90,
          "time": 151.3984375,
          "velocity": 0.5826771653543307,
          "duration": 0.0703125
        },
        {
          "name": "F#5",
          "midi": 78,
          "time": 151.40625,
          "velocity": 0.5984251968503937,
          "duration": 0.0703125
        },
        {
          "name": "E5",
          "midi": 76,
          "time": 151.4921875,
          "velocity": 0.6771653543307087,
          "duration": 0.0625
        },
        {
          "name": "E6",
          "midi": 88,
          "time": 151.5,
          "velocity": 0.6535433070866141,
          "duration": 0.0703125
        },
        {
          "name": "E6",
          "midi": 88,
          "time": 151.59375,
          "velocity": 0.5748031496062992,
          "duration": 0.0546875
        },
        {
          "name": "E5",
          "midi": 76,
          "time": 151.59375,
          "velocity": 0.5826771653543307,
          "duration": 0.0703125
        },
        {
          "name": "D#5",
          "midi": 75,
          "time": 151.6875,
          "velocity": 0.6850393700787402,
          "duration": 0.0703125
        },
        {
          "name": "D#6",
          "midi": 87,
          "time": 151.6875,
          "velocity": 0.6535433070866141,
          "duration": 0.0703125
        },
        {
          "name": "D#5",
          "midi": 75,
          "time": 151.78125,
          "velocity": 0.5748031496062992,
          "duration": 0.0546875
        },
        {
          "name": "D#6",
          "midi": 87,
          "time": 151.78125,
          "velocity": 0.5748031496062992,
          "duration": 0.046875
        },
        {
          "name": "C#5",
          "midi": 73,
          "time": 151.8671875,
          "velocity": 0.6535433070866141,
          "duration": 0.0546875
        },
        {
          "name": "C#6",
          "midi": 85,
          "time": 151.875,
          "velocity": 0.6614173228346457,
          "duration": 0.0703125
        },
        {
          "name": "C#5",
          "midi": 73,
          "time": 151.9609375,
          "velocity": 0.5748031496062992,
          "duration": 0.0546875
        },
        {
          "name": "C#6",
          "midi": 85,
          "time": 151.96875,
          "velocity": 0.5748031496062992,
          "duration": 0.0703125
        },
        {
          "name": "B4",
          "midi": 71,
          "time": 152.0546875,
          "velocity": 0.6850393700787402,
          "duration": 0.0625
        },
        {
          "name": "B5",
          "midi": 83,
          "time": 152.0625,
          "velocity": 0.6850393700787402,
          "duration": 0.0625
        },
        {
          "name": "B4",
          "midi": 71,
          "time": 152.15625,
          "velocity": 0.5826771653543307,
          "duration": 0.0625
        },
        {
          "name": "B5",
          "midi": 83,
          "time": 152.15625,
          "velocity": 0.5669291338582677,
          "duration": 0.0546875
        },
        {
          "name": "A#5",
          "midi": 82,
          "time": 152.2421875,
          "velocity": 0.6535433070866141,
          "duration": 0.0703125
        },
        {
          "name": "A#4",
          "midi": 70,
          "time": 152.25,
          "velocity": 0.6535433070866141,
          "duration": 0.0703125
        },
        {
          "name": "A#4",
          "midi": 70,
          "time": 152.3359375,
          "velocity": 0.5748031496062992,
          "duration": 0.0546875
        },
        {
          "name": "A#5",
          "midi": 82,
          "time": 152.3359375,
          "velocity": 0.6062992125984252,
          "duration": 0.0546875
        },
        {
          "name": "G#4",
          "midi": 68,
          "time": 152.4296875,
          "velocity": 0.6692913385826772,
          "duration": 0.0625
        },
        {
          "name": "G#5",
          "midi": 80,
          "time": 152.4296875,
          "velocity": 0.6771653543307087,
          "duration": 0.046875
        },
        {
          "name": "G#4",
          "midi": 68,
          "time": 152.5234375,
          "velocity": 0.6614173228346457,
          "duration": 0.0546875
        },
        {
          "name": "G#5",
          "midi": 80,
          "time": 152.53125,
          "velocity": 0.6692913385826772,
          "duration": 0.046875
        },
        {
          "name": "F#5",
          "midi": 78,
          "time": 152.6171875,
          "velocity": 0.7007874015748031,
          "duration": 0.046875
        },
        {
          "name": "F#4",
          "midi": 66,
          "time": 152.625,
          "velocity": 0.7401574803149606,
          "duration": 0.0546875
        },
        {
          "name": "F#4",
          "midi": 66,
          "time": 152.7109375,
          "velocity": 0.6062992125984252,
          "duration": 0.0703125
        },
        {
          "name": "F#5",
          "midi": 78,
          "time": 152.71875,
          "velocity": 0.6220472440944882,
          "duration": 0.0703125
        },
        {
          "name": "E4",
          "midi": 64,
          "time": 152.8125,
          "velocity": 0.6929133858267716,
          "duration": 0.0546875
        },
        {
          "name": "E5",
          "midi": 76,
          "time": 152.8125,
          "velocity": 0.7007874015748031,
          "duration": 0.0546875
        },
        {
          "name": "E4",
          "midi": 64,
          "time": 152.8984375,
          "velocity": 0.5826771653543307,
          "duration": 0.0546875
        },
        {
          "name": "E5",
          "midi": 76,
          "time": 152.90625,
          "velocity": 0.5905511811023622,
          "duration": 0.0625
        },
        {
          "name": "D#5",
          "midi": 75,
          "time": 152.9921875,
          "velocity": 0.6614173228346457,
          "duration": 0.0703125
        },
        {
          "name": "D#4",
          "midi": 63,
          "time": 153,
          "velocity": 0.7480314960629921,
          "duration": 0.0703125
        },
        {
          "name": "D#4",
          "midi": 63,
          "time": 153.0859375,
          "velocity": 0.5984251968503937,
          "duration": 0.0703125
        },
        {
          "name": "D#5",
          "midi": 75,
          "time": 153.0859375,
          "velocity": 0.5984251968503937,
          "duration": 0.046875
        },
        {
          "name": "C#5",
          "midi": 73,
          "time": 153.1796875,
          "velocity": 0.6614173228346457,
          "duration": 0.046875
        },
        {
          "name": "C#4",
          "midi": 61,
          "time": 153.1875,
          "velocity": 0.6850393700787402,
          "duration": 0.046875
        },
        {
          "name": "C#4",
          "midi": 61,
          "time": 153.2734375,
          "velocity": 0.6062992125984252,
          "duration": 0.0703125
        },
        {
          "name": "C#5",
          "midi": 73,
          "time": 153.28125,
          "velocity": 0.5748031496062992,
          "duration": 0.0546875
        },
        {
          "name": "B4",
          "midi": 71,
          "time": 153.3671875,
          "velocity": 0.6614173228346457,
          "duration": 0.0546875
        },
        {
          "name": "B3",
          "midi": 59,
          "time": 153.375,
          "velocity": 0.6535433070866141,
          "duration": 0.0546875
        },
        {
          "name": "B4",
          "midi": 71,
          "time": 153.46875,
          "velocity": 0.5748031496062992,
          "duration": 0.0703125
        },
        {
          "name": "B3",
          "midi": 59,
          "time": 153.46875,
          "velocity": 0.5826771653543307,
          "duration": 0.046875
        },
        {
          "name": "F#5",
          "midi": 78,
          "time": 153.5546875,
          "velocity": 0.7559055118110236,
          "duration": 0.0703125
        },
        {
          "name": "B4",
          "midi": 71,
          "time": 153.5625,
          "velocity": 0.7480314960629921,
          "duration": 0.0546875
        },
        {
          "name": "B5",
          "midi": 83,
          "time": 153.5625,
          "velocity": 0.7401574803149606,
          "duration": 0.0703125
        },
        {
          "name": "B5",
          "midi": 83,
          "time": 153.6484375,
          "velocity": 0.6692913385826772,
          "duration": 0.0546875
        },
        {
          "name": "B4",
          "midi": 71,
          "time": 153.65625,
          "velocity": 0.6850393700787402,
          "duration": 0.0703125
        },
        {
          "name": "F#5",
          "midi": 78,
          "time": 153.65625,
          "velocity": 0.6850393700787402,
          "duration": 0.0625
        },
        {
          "name": "F#5",
          "midi": 78,
          "time": 153.7421875,
          "velocity": 0.5905511811023622,
          "duration": 0.0703125
        },
        {
          "name": "B4",
          "midi": 71,
          "time": 153.7421875,
          "velocity": 0.5748031496062992,
          "duration": 0.046875
        },
        {
          "name": "B5",
          "midi": 83,
          "time": 153.7421875,
          "velocity": 0.6062992125984252,
          "duration": 0.0546875
        },
        {
          "name": "B5",
          "midi": 83,
          "time": 153.8359375,
          "velocity": 0.5275590551181102,
          "duration": 0.0546875
        },
        {
          "name": "F#5",
          "midi": 78,
          "time": 153.84375,
          "velocity": 0.5039370078740157,
          "duration": 0.0625
        },
        {
          "name": "B4",
          "midi": 71,
          "time": 153.84375,
          "velocity": 0.49606299212598426,
          "duration": 0.0703125
        },
        {
          "name": "F#5",
          "midi": 78,
          "time": 153.9296875,
          "velocity": 0.5118110236220472,
          "duration": 0.0703125
        },
        {
          "name": "B5",
          "midi": 83,
          "time": 153.9375,
          "velocity": 0.5118110236220472,
          "duration": 0.0546875
        },
        {
          "name": "B4",
          "midi": 71,
          "time": 153.9375,
          "velocity": 0.49606299212598426,
          "duration": 0.0546875
        },
        {
          "name": "B5",
          "midi": 83,
          "time": 154.0234375,
          "velocity": 0.5039370078740157,
          "duration": 0.0625
        },
        {
          "name": "B4",
          "midi": 71,
          "time": 154.03125,
          "velocity": 0.5039370078740157,
          "duration": 0.078125
        },
        {
          "name": "F#5",
          "midi": 78,
          "time": 154.03125,
          "velocity": 0.5275590551181102,
          "duration": 0.046875
        },
        {
          "name": "G#5",
          "midi": 80,
          "time": 154.1171875,
          "velocity": 0.6692913385826772,
          "duration": 0.0546875
        },
        {
          "name": "B5",
          "midi": 83,
          "time": 154.125,
          "velocity": 0.7401574803149606,
          "duration": 0.0703125
        },
        {
          "name": "G#5",
          "midi": 80,
          "time": 154.2109375,
          "velocity": 0.6535433070866141,
          "duration": 0.0625
        },
        {
          "name": "B5",
          "midi": 83,
          "time": 154.21875,
          "velocity": 0.6692913385826772,
          "duration": 0.0546875
        },
        {
          "name": "A#5",
          "midi": 82,
          "time": 154.3046875,
          "velocity": 0.7244094488188977,
          "duration": 0.0546875
        },
        {
          "name": "E5",
          "midi": 76,
          "time": 154.3984375,
          "velocity": 0.6220472440944882,
          "duration": 0.0546875
        },
        {
          "name": "A#5",
          "midi": 82,
          "time": 154.3984375,
          "velocity": 0.6299212598425197,
          "duration": 0.0625
        },
        {
          "name": "D#5",
          "midi": 75,
          "time": 154.4921875,
          "velocity": 0.7086614173228346,
          "duration": 0.0703125
        },
        {
          "name": "G#5",
          "midi": 80,
          "time": 154.5,
          "velocity": 0.7086614173228346,
          "duration": 0.046875
        },
        {
          "name": "D#5",
          "midi": 75,
          "time": 154.5859375,
          "velocity": 0.6141732283464567,
          "duration": 0.046875
        },
        {
          "name": "G#5",
          "midi": 80,
          "time": 154.59375,
          "velocity": 0.6220472440944882,
          "duration": 0.0546875
        },
        {
          "name": "C#5",
          "midi": 73,
          "time": 154.6875,
          "velocity": 0.7480314960629921,
          "duration": 0.0703125
        },
        {
          "name": "F#5",
          "midi": 78,
          "time": 154.6875,
          "velocity": 0.7401574803149606,
          "duration": 0.046875
        },
        {
          "name": "C#5",
          "midi": 73,
          "time": 154.78125,
          "velocity": 0.6062992125984252,
          "duration": 0.046875
        },
        {
          "name": "F#5",
          "midi": 78,
          "time": 154.78125,
          "velocity": 0.6062992125984252,
          "duration": 0.0625
        },
        {
          "name": "E5",
          "midi": 76,
          "time": 154.8671875,
          "velocity": 0.6456692913385826,
          "duration": 0.0546875
        },
        {
          "name": "B4",
          "midi": 71,
          "time": 154.875,
          "velocity": 0.6692913385826772,
          "duration": 0.0625
        },
        {
          "name": "B4",
          "midi": 71,
          "time": 154.96875,
          "velocity": 0.5669291338582677,
          "duration": 0.0625
        },
        {
          "name": "E5",
          "midi": 76,
          "time": 154.96875,
          "velocity": 0.5748031496062992,
          "duration": 0.0546875
        },
        {
          "name": "D#5",
          "midi": 75,
          "time": 155.0546875,
          "velocity": 0.6456692913385826,
          "duration": 0.0703125
        },
        {
          "name": "A#4",
          "midi": 70,
          "time": 155.0546875,
          "velocity": 0.6456692913385826,
          "duration": 0.0703125
        },
        {
          "name": "D#5",
          "midi": 75,
          "time": 155.1484375,
          "velocity": 0.5984251968503937,
          "duration": 0.0703125
        },
        {
          "name": "A#4",
          "midi": 70,
          "time": 155.15625,
          "velocity": 0.5669291338582677,
          "duration": 0.046875
        },
        {
          "name": "C#5",
          "midi": 73,
          "time": 155.25,
          "velocity": 0.6771653543307087,
          "duration": 0.0625
        },
        {
          "name": "G#4",
          "midi": 68,
          "time": 155.25,
          "velocity": 0.6692913385826772,
          "duration": 0.0703125
        },
        {
          "name": "G#4",
          "midi": 68,
          "time": 155.3359375,
          "velocity": 0.5905511811023622,
          "duration": 0.0703125
        },
        {
          "name": "C#5",
          "midi": 73,
          "time": 155.3359375,
          "velocity": 0.5905511811023622,
          "duration": 0.0625
        },
        {
          "name": "F#4",
          "midi": 66,
          "time": 155.4296875,
          "velocity": 0.6692913385826772,
          "duration": 0.046875
        },
        {
          "name": "B4",
          "midi": 71,
          "time": 155.4375,
          "velocity": 0.6614173228346457,
          "duration": 0.0546875
        },
        {
          "name": "F#4",
          "midi": 66,
          "time": 155.5234375,
          "velocity": 0.5669291338582677,
          "duration": 0.0703125
        },
        {
          "name": "B4",
          "midi": 71,
          "time": 155.5234375,
          "velocity": 0.6062992125984252,
          "duration": 0.0625
        },
        {
          "name": "E4",
          "midi": 64,
          "time": 155.6171875,
          "velocity": 0.6692913385826772,
          "duration": 0.0703125
        },
        {
          "name": "A#4",
          "midi": 70,
          "time": 155.625,
          "velocity": 0.6771653543307087,
          "duration": 0.046875
        },
        {
          "name": "A#4",
          "midi": 70,
          "time": 155.7109375,
          "velocity": 0.5669291338582677,
          "duration": 0.046875
        },
        {
          "name": "E4",
          "midi": 64,
          "time": 155.71875,
          "velocity": 0.6062992125984252,
          "duration": 0.0625
        },
        {
          "name": "G#4",
          "midi": 68,
          "time": 155.8046875,
          "velocity": 0.6850393700787402,
          "duration": 0.0546875
        },
        {
          "name": "D#4",
          "midi": 63,
          "time": 155.8125,
          "velocity": 0.7244094488188977,
          "duration": 0.0625
        },
        {
          "name": "D#4",
          "midi": 63,
          "time": 155.8984375,
          "velocity": 0.6692913385826772,
          "duration": 0.046875
        },
        {
          "name": "G#4",
          "midi": 68,
          "time": 155.90625,
          "velocity": 0.6692913385826772,
          "duration": 0.0625
        },
        {
          "name": "C#4",
          "midi": 61,
          "time": 156,
          "velocity": 0.7086614173228346,
          "duration": 0.0625
        },
        {
          "name": "F#4",
          "midi": 66,
          "time": 156,
          "velocity": 0.7007874015748031,
          "duration": 0.0625
        },
        {
          "name": "C#4",
          "midi": 61,
          "time": 156.0859375,
          "velocity": 0.6299212598425197,
          "duration": 0.0625
        },
        {
          "name": "F#4",
          "midi": 66,
          "time": 156.09375,
          "velocity": 0.6062992125984252,
          "duration": 0.0625
        },
        {
          "name": "E4",
          "midi": 64,
          "time": 156.1796875,
          "velocity": 0.6929133858267716,
          "duration": 0.0703125
        },
        {
          "name": "B3",
          "midi": 59,
          "time": 156.1796875,
          "velocity": 0.7165354330708661,
          "duration": 0.0546875
        },
        {
          "name": "B3",
          "midi": 59,
          "time": 156.2734375,
          "velocity": 0.5905511811023622,
          "duration": 0.0703125
        },
        {
          "name": "E4",
          "midi": 64,
          "time": 156.2734375,
          "velocity": 0.6141732283464567,
          "duration": 0.0703125
        },
        {
          "name": "A#3",
          "midi": 58,
          "time": 156.3671875,
          "velocity": 0.6456692913385826,
          "duration": 0.046875
        },
        {
          "name": "D#4",
          "midi": 63,
          "time": 156.3671875,
          "velocity": 0.6535433070866141,
          "duration": 0.046875
        },
        {
          "name": "A#3",
          "midi": 58,
          "time": 156.4609375,
          "velocity": 0.5748031496062992,
          "duration": 0.0703125
        },
        {
          "name": "D#4",
          "midi": 63,
          "time": 156.46875,
          "velocity": 0.5669291338582677,
          "duration": 0.0546875
        },
        {
          "name": "G#3",
          "midi": 56,
          "time": 156.5546875,
          "velocity": 0.6535433070866141,
          "duration": 0.046875
        },
        {
          "name": "C#4",
          "midi": 61,
          "time": 156.5546875,
          "velocity": 0.6692913385826772,
          "duration": 0.0703125
        },
        {
          "name": "E3",
          "midi": 52,
          "time": 156.6484375,
          "velocity": 0.7165354330708661,
          "duration": 0.0625
        },
        {
          "name": "G#3",
          "midi": 56,
          "time": 156.6484375,
          "velocity": 0.6062992125984252,
          "duration": 0.046875
        },
        {
          "name": "C#4",
          "midi": 61,
          "time": 156.65625,
          "velocity": 0.5984251968503937,
          "duration": 0.046875
        },
        {
          "name": "B3",
          "midi": 59,
          "time": 156.75,
          "velocity": 0.6771653543307087,
          "duration": 0.046875
        },
        {
          "name": "F#3",
          "midi": 54,
          "time": 156.75,
          "velocity": 0.7952755905511811,
          "duration": 0.0703125
        },
        {
          "name": "B3",
          "midi": 59,
          "time": 156.84375,
          "velocity": 0.5669291338582677,
          "duration": 0.046875
        },
        {
          "name": "F#3",
          "midi": 54,
          "time": 156.84375,
          "velocity": 0.7244094488188977,
          "duration": 0.0625
        },
        {
          "name": "B3",
          "midi": 59,
          "time": 156.9296875,
          "velocity": 0.7874015748031497,
          "duration": 0.0703125
        },
        {
          "name": "B3",
          "midi": 59,
          "time": 157.03125,
          "velocity": 0.5984251968503937,
          "duration": 0.0546875
        },
        {
          "name": "A#3",
          "midi": 58,
          "time": 157.125,
          "velocity": 0.7952755905511811,
          "duration": 0.0703125
        },
        {
          "name": "A#3",
          "midi": 58,
          "time": 157.2109375,
          "velocity": 0.7007874015748031,
          "duration": 0.0546875
        },
        {
          "name": "A3",
          "midi": 57,
          "time": 157.3125,
          "velocity": 0.7874015748031497,
          "duration": 0.046875
        },
        {
          "name": "A3",
          "midi": 57,
          "time": 157.3984375,
          "velocity": 0.7165354330708661,
          "duration": 0.046875
        },
        {
          "name": "G#3",
          "midi": 56,
          "time": 157.4921875,
          "velocity": 0.7716535433070866,
          "duration": 0.0703125
        },
        {
          "name": "G#3",
          "midi": 56,
          "time": 157.59375,
          "velocity": 0.7716535433070866,
          "duration": 0.0703125
        },
        {
          "name": "F#3",
          "midi": 54,
          "time": 157.6875,
          "velocity": 0.84251968503937,
          "duration": 0.0546875
        },
        {
          "name": "F#3",
          "midi": 54,
          "time": 157.78125,
          "velocity": 0.7637795275590551,
          "duration": 0.0546875
        },
        {
          "name": "B3",
          "midi": 59,
          "time": 158.8046875,
          "velocity": 0.7637795275590551,
          "duration": 0.0546875
        },
        {
          "name": "B3",
          "midi": 59,
          "time": 158.8984375,
          "velocity": 0.7165354330708661,
          "duration": 0.0703125
        },
        {
          "name": "A#3",
          "midi": 58,
          "time": 159,
          "velocity": 0.7874015748031497,
          "duration": 0.0546875
        },
        {
          "name": "A#3",
          "midi": 58,
          "time": 159.0859375,
          "velocity": 0.6929133858267716,
          "duration": 0.0546875
        },
        {
          "name": "A3",
          "midi": 57,
          "time": 159.1796875,
          "velocity": 0.7874015748031497,
          "duration": 0.0546875
        },
        {
          "name": "A3",
          "midi": 57,
          "time": 159.2734375,
          "velocity": 0.7795275590551181,
          "duration": 0.0703125
        },
        {
          "name": "G#3",
          "midi": 56,
          "time": 159.3671875,
          "velocity": 0.84251968503937,
          "duration": 0.0703125
        },
        {
          "name": "G#3",
          "midi": 56,
          "time": 159.4609375,
          "velocity": 0.7244094488188977,
          "duration": 0.0625
        },
        {
          "name": "F#3",
          "midi": 54,
          "time": 159.5546875,
          "velocity": 0.8110236220472441,
          "duration": 0.0703125
        },
        {
          "name": "F#3",
          "midi": 54,
          "time": 159.65625,
          "velocity": 0.7244094488188977,
          "duration": 0.046875
        },
        {
          "name": "G#3",
          "midi": 56,
          "time": 160.59375,
          "velocity": 0.8031496062992126,
          "duration": 0.0703125
        },
        {
          "name": "G#3",
          "midi": 56,
          "time": 160.6796875,
          "velocity": 0.7007874015748031,
          "duration": 0.0625
        },
        {
          "name": "G#3",
          "midi": 56,
          "time": 160.7734375,
          "velocity": 0.6456692913385826,
          "duration": 0.0546875
        },
        {
          "name": "G#3",
          "midi": 56,
          "time": 161.1484375,
          "velocity": 0.8346456692913385,
          "duration": 0.0546875
        },
        {
          "name": "G#3",
          "midi": 56,
          "time": 161.25,
          "velocity": 0.7401574803149606,
          "duration": 0.046875
        },
        {
          "name": "G#3",
          "midi": 56,
          "time": 161.34375,
          "velocity": 0.6220472440944882,
          "duration": 0.0546875
        },
        {
          "name": "G#3",
          "midi": 56,
          "time": 161.7109375,
          "velocity": 0.7637795275590551,
          "duration": 0.0703125
        },
        {
          "name": "G#3",
          "midi": 56,
          "time": 161.8046875,
          "velocity": 0.7244094488188977,
          "duration": 0.0703125
        },
        {
          "name": "G#3",
          "midi": 56,
          "time": 161.90625,
          "velocity": 0.6377952755905512,
          "duration": 0.046875
        },
        {
          "name": "F#3",
          "midi": 54,
          "time": 161.9921875,
          "velocity": 0.6299212598425197,
          "duration": 0.0625
        },
        {
          "name": "G#3",
          "midi": 56,
          "time": 162.09375,
          "velocity": 0.6220472440944882,
          "duration": 0.078125
        },
        {
          "name": "A3",
          "midi": 57,
          "time": 162.1875,
          "velocity": 0.6456692913385826,
          "duration": 0.078125
        },
        {
          "name": "A#3",
          "midi": 58,
          "time": 162.28125,
          "velocity": 0.6299212598425197,
          "duration": 0.0703125
        },
        {
          "name": "B3",
          "midi": 59,
          "time": 162.375,
          "velocity": 0.6456692913385826,
          "duration": 0.0703125
        },
        {
          "name": "C#4",
          "midi": 61,
          "time": 162.4609375,
          "velocity": 0.6220472440944882,
          "duration": 0.0703125
        },
        {
          "name": "D#4",
          "midi": 63,
          "time": 162.5625,
          "velocity": 0.6929133858267716,
          "duration": 0.078125
        },
        {
          "name": "E4",
          "midi": 64,
          "time": 162.65625,
          "velocity": 0.7086614173228346,
          "duration": 0.0546875
        },
        {
          "name": "F#4",
          "midi": 66,
          "time": 162.7421875,
          "velocity": 0.6929133858267716,
          "duration": 0.0703125
        },
        {
          "name": "G#4",
          "midi": 68,
          "time": 162.84375,
          "velocity": 0.6850393700787402,
          "duration": 0.0546875
        },
        {
          "name": "A#4",
          "midi": 70,
          "time": 162.9375,
          "velocity": 0.6771653543307087,
          "duration": 0.0859375
        },
        {
          "name": "B4",
          "midi": 71,
          "time": 163.03125,
          "velocity": 0.6220472440944882,
          "duration": 0.0625
        },
        {
          "name": "C#5",
          "midi": 73,
          "time": 163.125,
          "velocity": 0.7244094488188977,
          "duration": 0.0703125
        },
        {
          "name": "D#5",
          "midi": 75,
          "time": 163.21875,
          "velocity": 0.6456692913385826,
          "duration": 0.0625
        },
        {
          "name": "E5",
          "midi": 76,
          "time": 163.3125,
          "velocity": 0.6062992125984252,
          "duration": 0.078125
        },
        {
          "name": "F#5",
          "midi": 78,
          "time": 163.3984375,
          "velocity": 0.6062992125984252,
          "duration": 0.0546875
        },
        {
          "name": "G#5",
          "midi": 80,
          "time": 163.5,
          "velocity": 0.6062992125984252,
          "duration": 0.0703125
        },
        {
          "name": "A#5",
          "midi": 82,
          "time": 163.59375,
          "velocity": 0.6220472440944882,
          "duration": 0.0625
        },
        {
          "name": "B5",
          "midi": 83,
          "time": 163.6796875,
          "velocity": 0.8661417322834646,
          "duration": 0.1796875
        }
      ],
      "controlChanges": {
        "7": [
          {
            "number": 7,
            "time": 0,
            "value": 0.8661417322834646
          }
        ],
        "10": [
          {
            "number": 10,
            "time": 0,
            "value": 0.6614173228346457
          }
        ],
        "11": [
          {
            "number": 11,
            "time": 0,
            "value": 1
          }
        ],
        "91": [
          {
            "number": 91,
            "time": 0,
            "value": 0.5511811023622047
          }
        ],
        "93": [
          {
            "number": 93,
            "time": 0.0078125,
            "value": 0.23622047244094488
          }
        ]
      }
    },
    {
      "startTime": 1.5,
      "duration": 161.6875,
      "length": 1238,
      "id": 2,
      "name": "Strings II",
      "instrumentNumber": 44,
      "instrument": "tremolo strings",
      "instrumentFamily": "strings",
      "channelNumber": 1,
      "isPercussion": false,
      "notes": [
        {
          "name": "B2",
          "midi": 47,
          "time": 1.5,
          "velocity": 0.6377952755905512,
          "duration": 0.0234375
        },
        {
          "name": "B3",
          "midi": 59,
          "time": 1.5,
          "velocity": 0.7874015748031497,
          "duration": 0.0234375
        },
        {
          "name": "C#4",
          "midi": 61,
          "time": 1.546875,
          "velocity": 0.6220472440944882,
          "duration": 0.0078125
        },
        {
          "name": "D4",
          "midi": 62,
          "time": 1.5859375,
          "velocity": 0.6850393700787402,
          "duration": 0.0078125
        },
        {
          "name": "E4",
          "midi": 64,
          "time": 1.640625,
          "velocity": 0.7874015748031497,
          "duration": 0.0078125
        },
        {
          "name": "F#4",
          "midi": 66,
          "time": 1.6875,
          "velocity": 0.7086614173228346,
          "duration": 0.125
        },
        {
          "name": "B3",
          "midi": 59,
          "time": 6.5625,
          "velocity": 0.5354330708661418,
          "duration": 0.03125
        },
        {
          "name": "C#4",
          "midi": 61,
          "time": 6.6015625,
          "velocity": 0.6141732283464567,
          "duration": 0.015625
        },
        {
          "name": "D4",
          "midi": 62,
          "time": 6.65625,
          "velocity": 0.6850393700787402,
          "duration": 0.0234375
        },
        {
          "name": "E4",
          "midi": 64,
          "time": 6.703125,
          "velocity": 0.7244094488188977,
          "duration": 0.0234375
        },
        {
          "name": "F#4",
          "midi": 66,
          "time": 6.75,
          "velocity": 0.6929133858267716,
          "duration": 0.1171875
        },
        {
          "name": "B3",
          "midi": 59,
          "time": 8.2421875,
          "velocity": 0.5669291338582677,
          "duration": 0.0078125
        },
        {
          "name": "C#4",
          "midi": 61,
          "time": 8.2890625,
          "velocity": 0.6220472440944882,
          "duration": 0.0234375
        },
        {
          "name": "D4",
          "midi": 62,
          "time": 8.34375,
          "velocity": 0.7165354330708661,
          "duration": 0.0234375
        },
        {
          "name": "E4",
          "midi": 64,
          "time": 8.390625,
          "velocity": 0.6850393700787402,
          "duration": 0.0078125
        },
        {
          "name": "F#4",
          "midi": 66,
          "time": 8.4375,
          "velocity": 0.7007874015748031,
          "duration": 0.15625
        },
        {
          "name": "B3",
          "midi": 59,
          "time": 9.9296875,
          "velocity": 0.5590551181102362,
          "duration": 0.0078125
        },
        {
          "name": "C#4",
          "midi": 61,
          "time": 9.984375,
          "velocity": 0.6377952755905512,
          "duration": 0.015625
        },
        {
          "name": "D4",
          "midi": 62,
          "time": 10.03125,
          "velocity": 0.6850393700787402,
          "duration": 0.0078125
        },
        {
          "name": "E4",
          "midi": 64,
          "time": 10.078125,
          "velocity": 0.7244094488188977,
          "duration": 0.0234375
        },
        {
          "name": "F#4",
          "midi": 66,
          "time": 10.1171875,
          "velocity": 0.7244094488188977,
          "duration": 0.140625
        },
        {
          "name": "B3",
          "midi": 59,
          "time": 11.625,
          "velocity": 0.5511811023622047,
          "duration": 0.0078125
        },
        {
          "name": "C#4",
          "midi": 61,
          "time": 11.671875,
          "velocity": 0.6456692913385826,
          "duration": 0.03125
        },
        {
          "name": "D4",
          "midi": 62,
          "time": 11.71875,
          "velocity": 0.6850393700787402,
          "duration": 0.0234375
        },
        {
          "name": "E4",
          "midi": 64,
          "time": 11.765625,
          "velocity": 0.6929133858267716,
          "duration": 0.015625
        },
        {
          "name": "F#4",
          "midi": 66,
          "time": 11.8046875,
          "velocity": 0.7165354330708661,
          "duration": 0.1328125
        },
        {
          "name": "B3",
          "midi": 59,
          "time": 13.3046875,
          "velocity": 0.5669291338582677,
          "duration": 0.0078125
        },
        {
          "name": "C#4",
          "midi": 61,
          "time": 13.3515625,
          "velocity": 0.6299212598425197,
          "duration": 0.0078125
        },
        {
          "name": "D4",
          "midi": 62,
          "time": 13.40625,
          "velocity": 0.7086614173228346,
          "duration": 0.03125
        },
        {
          "name": "E4",
          "midi": 64,
          "time": 13.453125,
          "velocity": 0.7637795275590551,
          "duration": 0.03125
        },
        {
          "name": "F#4",
          "midi": 66,
          "time": 13.4921875,
          "velocity": 0.7637795275590551,
          "duration": 0.125
        },
        {
          "name": "F#4",
          "midi": 66,
          "time": 15,
          "velocity": 0.6850393700787402,
          "duration": 0.0234375
        },
        {
          "name": "E4",
          "midi": 64,
          "time": 15.046875,
          "velocity": 0.7322834645669292,
          "duration": 0.03125
        },
        {
          "name": "D4",
          "midi": 62,
          "time": 15.09375,
          "velocity": 0.8188976377952756,
          "duration": 0.0234375
        },
        {
          "name": "C#4",
          "midi": 61,
          "time": 15.140625,
          "velocity": 0.8818897637795275,
          "duration": 0.0390625
        },
        {
          "name": "B3",
          "midi": 59,
          "time": 15.1796875,
          "velocity": 0.7874015748031497,
          "duration": 0.171875
        },
        {
          "name": "F#4",
          "midi": 66,
          "time": 16.0390625,
          "velocity": 0.47244094488188976,
          "duration": 0.0546875
        },
        {
          "name": "D4",
          "midi": 62,
          "time": 16.1171875,
          "velocity": 0.4330708661417323,
          "duration": 0.15625
        },
        {
          "name": "F#4",
          "midi": 66,
          "time": 16.5078125,
          "velocity": 0.7165354330708661,
          "duration": 0.046875
        },
        {
          "name": "D4",
          "midi": 62,
          "time": 16.578125,
          "velocity": 0.6377952755905512,
          "duration": 0.046875
        },
        {
          "name": "B3",
          "midi": 59,
          "time": 16.640625,
          "velocity": 0.7952755905511811,
          "duration": 0.1484375
        },
        {
          "name": "F#4",
          "midi": 66,
          "time": 16.6796875,
          "velocity": 0.7637795275590551,
          "duration": 0.0234375
        },
        {
          "name": "E4",
          "midi": 64,
          "time": 16.734375,
          "velocity": 0.6850393700787402,
          "duration": 0.0078125
        },
        {
          "name": "D4",
          "midi": 62,
          "time": 16.7734375,
          "velocity": 0.6456692913385826,
          "duration": 0.015625
        },
        {
          "name": "C#4",
          "midi": 61,
          "time": 16.828125,
          "velocity": 0.6062992125984252,
          "duration": 0.015625
        },
        {
          "name": "B3",
          "midi": 59,
          "time": 16.8671875,
          "velocity": 0.6062992125984252,
          "duration": 0.1484375
        },
        {
          "name": "F#4",
          "midi": 66,
          "time": 17.734375,
          "velocity": 0.4566929133858268,
          "duration": 0.0546875
        },
        {
          "name": "D4",
          "midi": 62,
          "time": 17.8046875,
          "velocity": 0.4409448818897638,
          "duration": 0.15625
        },
        {
          "name": "F#4",
          "midi": 66,
          "time": 18.1953125,
          "velocity": 0.6850393700787402,
          "duration": 0.046875
        },
        {
          "name": "D4",
          "midi": 62,
          "time": 18.265625,
          "velocity": 0.6456692913385826,
          "duration": 0.0390625
        },
        {
          "name": "B3",
          "midi": 59,
          "time": 18.3203125,
          "velocity": 0.8031496062992126,
          "duration": 0.1484375
        },
        {
          "name": "F#4",
          "midi": 66,
          "time": 18.375,
          "velocity": 0.7559055118110236,
          "duration": 0.03125
        },
        {
          "name": "E4",
          "midi": 64,
          "time": 18.421875,
          "velocity": 0.6850393700787402,
          "duration": 0.0078125
        },
        {
          "name": "D4",
          "midi": 62,
          "time": 18.4609375,
          "velocity": 0.6535433070866141,
          "duration": 0.0234375
        },
        {
          "name": "C#4",
          "midi": 61,
          "time": 18.5078125,
          "velocity": 0.6299212598425197,
          "duration": 0.03125
        },
        {
          "name": "B3",
          "midi": 59,
          "time": 18.5625,
          "velocity": 0.6062992125984252,
          "duration": 0.1484375
        },
        {
          "name": "F#4",
          "midi": 66,
          "time": 19.421875,
          "velocity": 0.4881889763779528,
          "duration": 0.0546875
        },
        {
          "name": "D4",
          "midi": 62,
          "time": 19.5,
          "velocity": 0.4094488188976378,
          "duration": 0.15625
        },
        {
          "name": "F#4",
          "midi": 66,
          "time": 19.8828125,
          "velocity": 0.7165354330708661,
          "duration": 0.0546875
        },
        {
          "name": "D4",
          "midi": 62,
          "time": 19.953125,
          "velocity": 0.6220472440944882,
          "duration": 0.0625
        },
        {
          "name": "B3",
          "midi": 59,
          "time": 20.015625,
          "velocity": 0.7637795275590551,
          "duration": 0.1640625
        },
        {
          "name": "F#4",
          "midi": 66,
          "time": 20.0625,
          "velocity": 0.7244094488188977,
          "duration": 0.0234375
        },
        {
          "name": "E4",
          "midi": 64,
          "time": 20.1015625,
          "velocity": 0.6850393700787402,
          "duration": 0.015625
        },
        {
          "name": "D4",
          "midi": 62,
          "time": 20.15625,
          "velocity": 0.6692913385826772,
          "duration": 0.03125
        },
        {
          "name": "C#4",
          "midi": 61,
          "time": 20.1953125,
          "velocity": 0.6299212598425197,
          "duration": 0.0078125
        },
        {
          "name": "B3",
          "midi": 59,
          "time": 20.2421875,
          "velocity": 0.6141732283464567,
          "duration": 0.1640625
        },
        {
          "name": "F#4",
          "midi": 66,
          "time": 21.1015625,
          "velocity": 0.4881889763779528,
          "duration": 0.0625
        },
        {
          "name": "D4",
          "midi": 62,
          "time": 21.1875,
          "velocity": 0.4409448818897638,
          "duration": 0.1640625
        },
        {
          "name": "F#4",
          "midi": 66,
          "time": 21.578125,
          "velocity": 0.7086614173228346,
          "duration": 0.046875
        },
        {
          "name": "D4",
          "midi": 62,
          "time": 21.640625,
          "velocity": 0.6220472440944882,
          "duration": 0.0546875
        },
        {
          "name": "B3",
          "midi": 59,
          "time": 21.6953125,
          "velocity": 0.7716535433070866,
          "duration": 0.1484375
        },
        {
          "name": "F#4",
          "midi": 66,
          "time": 21.7421875,
          "velocity": 0.7401574803149606,
          "duration": 0.0078125
        },
        {
          "name": "E4",
          "midi": 64,
          "time": 21.7890625,
          "velocity": 0.7086614173228346,
          "duration": 0.03125
        },
        {
          "name": "D4",
          "midi": 62,
          "time": 21.84375,
          "velocity": 0.6535433070866141,
          "duration": 0.0234375
        },
        {
          "name": "C#4",
          "midi": 61,
          "time": 21.8828125,
          "velocity": 0.6220472440944882,
          "duration": 0.0234375
        },
        {
          "name": "B3",
          "midi": 59,
          "time": 21.9296875,
          "velocity": 0.6062992125984252,
          "duration": 0.15625
        },
        {
          "name": "F#4",
          "midi": 66,
          "time": 22.796875,
          "velocity": 0.48031496062992124,
          "duration": 0.0625
        },
        {
          "name": "D4",
          "midi": 62,
          "time": 22.8671875,
          "velocity": 0.4251968503937008,
          "duration": 0.171875
        },
        {
          "name": "F#4",
          "midi": 66,
          "time": 23.265625,
          "velocity": 0.7244094488188977,
          "duration": 0.0625
        },
        {
          "name": "D4",
          "midi": 62,
          "time": 23.3203125,
          "velocity": 0.6062992125984252,
          "duration": 0.046875
        },
        {
          "name": "B3",
          "midi": 59,
          "time": 23.3828125,
          "velocity": 0.7874015748031497,
          "duration": 0.171875
        },
        {
          "name": "F#4",
          "midi": 66,
          "time": 23.4375,
          "velocity": 0.7244094488188977,
          "duration": 0.0234375
        },
        {
          "name": "E4",
          "midi": 64,
          "time": 23.484375,
          "velocity": 0.7086614173228346,
          "duration": 0.0234375
        },
        {
          "name": "D4",
          "midi": 62,
          "time": 23.5234375,
          "velocity": 0.6456692913385826,
          "duration": 0.0234375
        },
        {
          "name": "C#4",
          "midi": 61,
          "time": 23.5703125,
          "velocity": 0.6062992125984252,
          "duration": 0.015625
        },
        {
          "name": "B3",
          "midi": 59,
          "time": 23.625,
          "velocity": 0.6220472440944882,
          "duration": 0.15625
        },
        {
          "name": "F#4",
          "midi": 66,
          "time": 24.484375,
          "velocity": 0.4881889763779528,
          "duration": 0.0390625
        },
        {
          "name": "D4",
          "midi": 62,
          "time": 24.5625,
          "velocity": 0.4330708661417323,
          "duration": 0.171875
        },
        {
          "name": "F#4",
          "midi": 66,
          "time": 24.9453125,
          "velocity": 0.7007874015748031,
          "duration": 0.0390625
        },
        {
          "name": "D4",
          "midi": 62,
          "time": 25.015625,
          "velocity": 0.6141732283464567,
          "duration": 0.0625
        },
        {
          "name": "B3",
          "midi": 59,
          "time": 25.078125,
          "velocity": 0.8031496062992126,
          "duration": 0.1484375
        },
        {
          "name": "D4",
          "midi": 62,
          "time": 25.125,
          "velocity": 0.7322834645669292,
          "duration": 0.0390625
        },
        {
          "name": "C#4",
          "midi": 61,
          "time": 25.1875,
          "velocity": 0.7086614173228346,
          "duration": 0.0234375
        },
        {
          "name": "A3",
          "midi": 57,
          "time": 25.3046875,
          "velocity": 0.6220472440944882,
          "duration": 0.1484375
        },
        {
          "name": "F#4",
          "midi": 66,
          "time": 26.25,
          "velocity": 0.41732283464566927,
          "duration": 0.171875
        },
        {
          "name": "E4",
          "midi": 64,
          "time": 26.6875,
          "velocity": 0.6377952755905512,
          "duration": 0.0625
        },
        {
          "name": "C#4",
          "midi": 61,
          "time": 26.7421875,
          "velocity": 0.6220472440944882,
          "duration": 0.046875
        },
        {
          "name": "A3",
          "midi": 57,
          "time": 26.8046875,
          "velocity": 0.7952755905511811,
          "duration": 0.1796875
        },
        {
          "name": "G4",
          "midi": 67,
          "time": 26.8515625,
          "velocity": 0.7165354330708661,
          "duration": 0.0234375
        },
        {
          "name": "F#4",
          "midi": 66,
          "time": 26.90625,
          "velocity": 0.6535433070866141,
          "duration": 0.03125
        },
        {
          "name": "E4",
          "midi": 64,
          "time": 26.953125,
          "velocity": 0.6220472440944882,
          "duration": 0.03125
        },
        {
          "name": "D4",
          "midi": 62,
          "time": 27,
          "velocity": 0.6220472440944882,
          "duration": 0.15625
        },
        {
          "name": "D4",
          "midi": 62,
          "time": 27.375,
          "velocity": 0.6929133858267716,
          "duration": 0.03125
        },
        {
          "name": "E4",
          "midi": 64,
          "time": 27.421875,
          "velocity": 0.7559055118110236,
          "duration": 0.03125
        },
        {
          "name": "F#4",
          "midi": 66,
          "time": 27.4609375,
          "velocity": 0.7322834645669292,
          "duration": 0.0078125
        },
        {
          "name": "G4",
          "midi": 67,
          "time": 27.515625,
          "velocity": 0.7795275590551181,
          "duration": 0.03125
        },
        {
          "name": "A4",
          "midi": 69,
          "time": 27.5546875,
          "velocity": 0.8188976377952756,
          "duration": 0.1171875
        },
        {
          "name": "A4",
          "midi": 69,
          "time": 27.859375,
          "velocity": 0.4566929133858268,
          "duration": 0.046875
        },
        {
          "name": "F#4",
          "midi": 66,
          "time": 27.9375,
          "velocity": 0.44881889763779526,
          "duration": 0.1484375
        },
        {
          "name": "A4",
          "midi": 69,
          "time": 28.3515625,
          "velocity": 0.7007874015748031,
          "duration": 0.0390625
        },
        {
          "name": "F#4",
          "midi": 66,
          "time": 28.421875,
          "velocity": 0.6141732283464567,
          "duration": 0.0546875
        },
        {
          "name": "D4",
          "midi": 62,
          "time": 28.4921875,
          "velocity": 0.7952755905511811,
          "duration": 0.15625
        },
        {
          "name": "A4",
          "midi": 69,
          "time": 28.4921875,
          "velocity": 0.7480314960629921,
          "duration": 0.0078125
        },
        {
          "name": "G4",
          "midi": 67,
          "time": 28.546875,
          "velocity": 0.6929133858267716,
          "duration": 0.03125
        },
        {
          "name": "F#4",
          "midi": 66,
          "time": 28.5859375,
          "velocity": 0.6614173228346457,
          "duration": 0.0078125
        },
        {
          "name": "E4",
          "midi": 64,
          "time": 28.640625,
          "velocity": 0.6141732283464567,
          "duration": 0.0078125
        },
        {
          "name": "D4",
          "midi": 62,
          "time": 28.6796875,
          "velocity": 0.6141732283464567,
          "duration": 0.171875
        },
        {
          "name": "D4",
          "midi": 62,
          "time": 29.0546875,
          "velocity": 0.6850393700787402,
          "duration": 0.0078125
        },
        {
          "name": "E4",
          "midi": 64,
          "time": 29.109375,
          "velocity": 0.7480314960629921,
          "duration": 0.015625
        },
        {
          "name": "F#4",
          "midi": 66,
          "time": 29.1484375,
          "velocity": 0.7559055118110236,
          "duration": 0.03125
        },
        {
          "name": "G4",
          "midi": 67,
          "time": 29.1953125,
          "velocity": 0.7637795275590551,
          "duration": 0.0390625
        },
        {
          "name": "A4",
          "midi": 69,
          "time": 29.2421875,
          "velocity": 0.8188976377952756,
          "duration": 0.1328125
        },
        {
          "name": "A4",
          "midi": 69,
          "time": 29.546875,
          "velocity": 0.4645669291338583,
          "duration": 0.046875
        },
        {
          "name": "F#4",
          "midi": 66,
          "time": 29.6171875,
          "velocity": 0.4251968503937008,
          "duration": 0.1484375
        },
        {
          "name": "A4",
          "midi": 69,
          "time": 30.0390625,
          "velocity": 0.7165354330708661,
          "duration": 0.046875
        },
        {
          "name": "F#4",
          "midi": 66,
          "time": 30.1015625,
          "velocity": 0.6220472440944882,
          "duration": 0.0546875
        },
        {
          "name": "A4",
          "midi": 69,
          "time": 30.1796875,
          "velocity": 0.7401574803149606,
          "duration": 0.015625
        },
        {
          "name": "D4",
          "midi": 62,
          "time": 30.1796875,
          "velocity": 0.7637795275590551,
          "duration": 0.140625
        },
        {
          "name": "G4",
          "midi": 67,
          "time": 30.234375,
          "velocity": 0.7165354330708661,
          "duration": 0.0390625
        },
        {
          "name": "F#4",
          "midi": 66,
          "time": 30.2734375,
          "velocity": 0.6614173228346457,
          "duration": 0.015625
        },
        {
          "name": "E4",
          "midi": 64,
          "time": 30.3203125,
          "velocity": 0.6141732283464567,
          "duration": 0.0390625
        },
        {
          "name": "D4",
          "midi": 62,
          "time": 30.3671875,
          "velocity": 0.6062992125984252,
          "duration": 0.1640625
        },
        {
          "name": "D4",
          "midi": 62,
          "time": 30.75,
          "velocity": 0.6929133858267716,
          "duration": 0.03125
        },
        {
          "name": "E4",
          "midi": 64,
          "time": 30.7890625,
          "velocity": 0.7559055118110236,
          "duration": 0.0234375
        },
        {
          "name": "F#4",
          "midi": 66,
          "time": 30.8359375,
          "velocity": 0.7401574803149606,
          "duration": 0.015625
        },
        {
          "name": "G4",
          "midi": 67,
          "time": 30.890625,
          "velocity": 0.7795275590551181,
          "duration": 0.03125
        },
        {
          "name": "A4",
          "midi": 69,
          "time": 30.9296875,
          "velocity": 0.8188976377952756,
          "duration": 0.125
        },
        {
          "name": "A4",
          "midi": 69,
          "time": 31.2265625,
          "velocity": 0.44881889763779526,
          "duration": 0.0703125
        },
        {
          "name": "F#4",
          "midi": 66,
          "time": 31.3046875,
          "velocity": 0.41732283464566927,
          "duration": 0.1640625
        },
        {
          "name": "A4",
          "midi": 69,
          "time": 31.7265625,
          "velocity": 0.7007874015748031,
          "duration": 0.0625
        },
        {
          "name": "F#4",
          "midi": 66,
          "time": 31.7890625,
          "velocity": 0.6456692913385826,
          "duration": 0.0546875
        },
        {
          "name": "D4",
          "midi": 62,
          "time": 31.8671875,
          "velocity": 0.7637795275590551,
          "duration": 0.1484375
        },
        {
          "name": "A4",
          "midi": 69,
          "time": 31.875,
          "velocity": 0.7637795275590551,
          "duration": 0.03125
        },
        {
          "name": "G4",
          "midi": 67,
          "time": 31.921875,
          "velocity": 0.7165354330708661,
          "duration": 0.015625
        },
        {
          "name": "F#4",
          "midi": 66,
          "time": 31.9609375,
          "velocity": 0.6614173228346457,
          "duration": 0.0234375
        },
        {
          "name": "E4",
          "midi": 64,
          "time": 32.0078125,
          "velocity": 0.6456692913385826,
          "duration": 0.0078125
        },
        {
          "name": "D4",
          "midi": 62,
          "time": 32.0625,
          "velocity": 0.6456692913385826,
          "duration": 0.1484375
        },
        {
          "name": "D4",
          "midi": 62,
          "time": 32.4296875,
          "velocity": 0.6929133858267716,
          "duration": 0.0234375
        },
        {
          "name": "E4",
          "midi": 64,
          "time": 32.484375,
          "velocity": 0.7637795275590551,
          "duration": 0.015625
        },
        {
          "name": "F#4",
          "midi": 66,
          "time": 32.5234375,
          "velocity": 0.7637795275590551,
          "duration": 0.015625
        },
        {
          "name": "G4",
          "midi": 67,
          "time": 32.578125,
          "velocity": 0.7795275590551181,
          "duration": 0.015625
        },
        {
          "name": "A4",
          "midi": 69,
          "time": 32.625,
          "velocity": 0.8267716535433071,
          "duration": 0.1328125
        },
        {
          "name": "A4",
          "midi": 69,
          "time": 32.921875,
          "velocity": 0.4881889763779528,
          "duration": 0.0390625
        },
        {
          "name": "F#4",
          "midi": 66,
          "time": 33,
          "velocity": 0.41732283464566927,
          "duration": 0.1484375
        },
        {
          "name": "A4",
          "midi": 69,
          "time": 33.4140625,
          "velocity": 0.7244094488188977,
          "duration": 0.0625
        },
        {
          "name": "F#4",
          "midi": 66,
          "time": 33.4765625,
          "velocity": 0.6456692913385826,
          "duration": 0.0546875
        },
        {
          "name": "D4",
          "midi": 62,
          "time": 33.5625,
          "velocity": 0.7874015748031497,
          "duration": 0.140625
        },
        {
          "name": "A4",
          "midi": 69,
          "time": 33.5625,
          "velocity": 0.7322834645669292,
          "duration": 0.0234375
        },
        {
          "name": "G4",
          "midi": 67,
          "time": 33.609375,
          "velocity": 0.7007874015748031,
          "duration": 0.03125
        },
        {
          "name": "F#4",
          "midi": 66,
          "time": 33.65625,
          "velocity": 0.6614173228346457,
          "duration": 0.015625
        },
        {
          "name": "E4",
          "midi": 64,
          "time": 33.6953125,
          "velocity": 0.6220472440944882,
          "duration": 0.015625
        },
        {
          "name": "D4",
          "midi": 62,
          "time": 33.7421875,
          "velocity": 0.6220472440944882,
          "duration": 0.15625
        },
        {
          "name": "D4",
          "midi": 62,
          "time": 34.125,
          "velocity": 0.6929133858267716,
          "duration": 0.015625
        },
        {
          "name": "E4",
          "midi": 64,
          "time": 34.171875,
          "velocity": 0.7480314960629921,
          "duration": 0.03125
        },
        {
          "name": "F#4",
          "midi": 66,
          "time": 34.21875,
          "velocity": 0.7637795275590551,
          "duration": 0.0234375
        },
        {
          "name": "G4",
          "midi": 67,
          "time": 34.265625,
          "velocity": 0.7637795275590551,
          "duration": 0.03125
        },
        {
          "name": "A4",
          "midi": 69,
          "time": 34.3046875,
          "velocity": 0.8267716535433071,
          "duration": 0.140625
        },
        {
          "name": "A4",
          "midi": 69,
          "time": 34.609375,
          "velocity": 0.4881889763779528,
          "duration": 0.0625
        },
        {
          "name": "F#4",
          "midi": 66,
          "time": 34.6875,
          "velocity": 0.4094488188976378,
          "duration": 0.1484375
        },
        {
          "name": "A4",
          "midi": 69,
          "time": 35.1015625,
          "velocity": 0.7086614173228346,
          "duration": 0.046875
        },
        {
          "name": "F#4",
          "midi": 66,
          "time": 35.1640625,
          "velocity": 0.6220472440944882,
          "duration": 0.0390625
        },
        {
          "name": "A4",
          "midi": 69,
          "time": 35.2421875,
          "velocity": 0.7244094488188977,
          "duration": 0.015625
        },
        {
          "name": "D4",
          "midi": 62,
          "time": 35.2421875,
          "velocity": 0.7637795275590551,
          "duration": 0.171875
        },
        {
          "name": "G4",
          "midi": 67,
          "time": 35.296875,
          "velocity": 0.7165354330708661,
          "duration": 0.0234375
        },
        {
          "name": "F#4",
          "midi": 66,
          "time": 35.34375,
          "velocity": 0.6850393700787402,
          "duration": 0.0234375
        },
        {
          "name": "E4",
          "midi": 64,
          "time": 35.3828125,
          "velocity": 0.6456692913385826,
          "duration": 0.0234375
        },
        {
          "name": "D4",
          "midi": 62,
          "time": 35.4296875,
          "velocity": 0.6141732283464567,
          "duration": 0.15625
        },
        {
          "name": "D4",
          "midi": 62,
          "time": 35.8125,
          "velocity": 0.6850393700787402,
          "duration": 0.03125
        },
        {
          "name": "E4",
          "midi": 64,
          "time": 35.8515625,
          "velocity": 0.7480314960629921,
          "duration": 0.015625
        },
        {
          "name": "F#4",
          "midi": 66,
          "time": 35.90625,
          "velocity": 0.7559055118110236,
          "duration": 0.015625
        },
        {
          "name": "G4",
          "midi": 67,
          "time": 35.9453125,
          "velocity": 0.7795275590551181,
          "duration": 0.0234375
        },
        {
          "name": "A4",
          "midi": 69,
          "time": 35.9921875,
          "velocity": 0.84251968503937,
          "duration": 0.1171875
        },
        {
          "name": "A4",
          "midi": 69,
          "time": 36.2890625,
          "velocity": 0.4566929133858268,
          "duration": 0.0625
        },
        {
          "name": "F#4",
          "midi": 66,
          "time": 36.375,
          "velocity": 0.44881889763779526,
          "duration": 0.15625
        },
        {
          "name": "A4",
          "midi": 69,
          "time": 36.7890625,
          "velocity": 0.7086614173228346,
          "duration": 0.0546875
        },
        {
          "name": "F#4",
          "midi": 66,
          "time": 36.859375,
          "velocity": 0.6456692913385826,
          "duration": 0.0390625
        },
        {
          "name": "F#4",
          "midi": 66,
          "time": 36.9296875,
          "velocity": 0.7559055118110236,
          "duration": 0.03125
        },
        {
          "name": "D4",
          "midi": 62,
          "time": 36.9375,
          "velocity": 0.7795275590551181,
          "duration": 0.1640625
        },
        {
          "name": "E4",
          "midi": 64,
          "time": 37,
          "velocity": 0.7007874015748031,
          "duration": 0.03125
        },
        {
          "name": "C#4",
          "midi": 61,
          "time": 37.125,
          "velocity": 0.6377952755905512,
          "duration": 0.1640625
        },
        {
          "name": "A4",
          "midi": 69,
          "time": 37.4921875,
          "velocity": 0.4330708661417323,
          "duration": 0.171875
        },
        {
          "name": "A4",
          "midi": 69,
          "time": 37.9765625,
          "velocity": 0.48031496062992124,
          "duration": 0.0625
        },
        {
          "name": "F#4",
          "midi": 66,
          "time": 38.0625,
          "velocity": 0.4094488188976378,
          "duration": 0.15625
        },
        {
          "name": "G#4",
          "midi": 68,
          "time": 38.4765625,
          "velocity": 0.7007874015748031,
          "duration": 0.046875
        },
        {
          "name": "F4",
          "midi": 65,
          "time": 38.546875,
          "velocity": 0.6141732283464567,
          "duration": 0.0546875
        },
        {
          "name": "C#4",
          "midi": 61,
          "time": 38.6171875,
          "velocity": 0.8031496062992126,
          "duration": 0.15625
        },
        {
          "name": "D#4",
          "midi": 63,
          "time": 38.6875,
          "velocity": 0.7086614173228346,
          "duration": 0.0234375
        },
        {
          "name": "F4",
          "midi": 65,
          "time": 38.7421875,
          "velocity": 0.6771653543307087,
          "duration": 0.03125
        },
        {
          "name": "F#4",
          "midi": 66,
          "time": 38.8125,
          "velocity": 0.6141732283464567,
          "duration": 0.15625
        },
        {
          "name": "A#4",
          "midi": 70,
          "time": 39.1796875,
          "velocity": 0.4251968503937008,
          "duration": 0.1640625
        },
        {
          "name": "C#4",
          "midi": 61,
          "time": 39.1796875,
          "velocity": 0.6850393700787402,
          "duration": 0.03125
        },
        {
          "name": "D#4",
          "midi": 63,
          "time": 39.2421875,
          "velocity": 0.7637795275590551,
          "duration": 0.0390625
        },
        {
          "name": "F4",
          "midi": 65,
          "time": 39.3125,
          "velocity": 0.8031496062992126,
          "duration": 0.03125
        },
        {
          "name": "F#4",
          "midi": 66,
          "time": 39.375,
          "velocity": 0.8110236220472441,
          "duration": 0.1171875
        },
        {
          "name": "A#4",
          "midi": 70,
          "time": 39.671875,
          "velocity": 0.4645669291338583,
          "duration": 0.0625
        },
        {
          "name": "F#4",
          "midi": 66,
          "time": 39.7421875,
          "velocity": 0.4094488188976378,
          "duration": 0.1640625
        },
        {
          "name": "A#4",
          "midi": 70,
          "time": 40.0859375,
          "velocity": 0.7559055118110236,
          "duration": 0.0625
        },
        {
          "name": "F#4",
          "midi": 66,
          "time": 40.1640625,
          "velocity": 0.6929133858267716,
          "duration": 0.0546875
        },
        {
          "name": "C#4",
          "midi": 61,
          "time": 40.2265625,
          "velocity": 0.6141732283464567,
          "duration": 0.046875
        },
        {
          "name": "C#4",
          "midi": 61,
          "time": 40.3046875,
          "velocity": 0.7559055118110236,
          "duration": 0.0234375
        },
        {
          "name": "A#3",
          "midi": 58,
          "time": 40.3125,
          "velocity": 0.7795275590551181,
          "duration": 0.171875
        },
        {
          "name": "D#4",
          "midi": 63,
          "time": 40.375,
          "velocity": 0.7007874015748031,
          "duration": 0.046875
        },
        {
          "name": "F4",
          "midi": 65,
          "time": 40.4375,
          "velocity": 0.6614173228346457,
          "duration": 0.0390625
        },
        {
          "name": "F#4",
          "midi": 66,
          "time": 40.5,
          "velocity": 0.6141732283464567,
          "duration": 0.1484375
        },
        {
          "name": "A#4",
          "midi": 70,
          "time": 40.8671875,
          "velocity": 0.44881889763779526,
          "duration": 0.1484375
        },
        {
          "name": "C#4",
          "midi": 61,
          "time": 40.875,
          "velocity": 0.6850393700787402,
          "duration": 0.0234375
        },
        {
          "name": "D#4",
          "midi": 63,
          "time": 40.9296875,
          "velocity": 0.7322834645669292,
          "duration": 0.046875
        },
        {
          "name": "F4",
          "midi": 65,
          "time": 41,
          "velocity": 0.7874015748031497,
          "duration": 0.0390625
        },
        {
          "name": "F#4",
          "midi": 66,
          "time": 41.0625,
          "velocity": 0.8031496062992126,
          "duration": 0.1171875
        },
        {
          "name": "A#4",
          "midi": 70,
          "time": 41.3515625,
          "velocity": 0.44881889763779526,
          "duration": 0.0625
        },
        {
          "name": "F#4",
          "midi": 66,
          "time": 41.4375,
          "velocity": 0.4330708661417323,
          "duration": 0.171875
        },
        {
          "name": "A#4",
          "midi": 70,
          "time": 41.7734375,
          "velocity": 0.7322834645669292,
          "duration": 0.0625
        },
        {
          "name": "F#4",
          "midi": 66,
          "time": 41.84375,
          "velocity": 0.7165354330708661,
          "duration": 0.0546875
        },
        {
          "name": "C#4",
          "midi": 61,
          "time": 41.921875,
          "velocity": 0.6141732283464567,
          "duration": 0.046875
        },
        {
          "name": "A#3",
          "midi": 58,
          "time": 41.9921875,
          "velocity": 0.8031496062992126,
          "duration": 0.15625
        },
        {
          "name": "C#4",
          "midi": 61,
          "time": 41.9921875,
          "velocity": 0.7480314960629921,
          "duration": 0.0234375
        },
        {
          "name": "D#4",
          "midi": 63,
          "time": 42.0546875,
          "velocity": 0.7086614173228346,
          "duration": 0.046875
        },
        {
          "name": "F4",
          "midi": 65,
          "time": 42.125,
          "velocity": 0.6850393700787402,
          "duration": 0.046875
        },
        {
          "name": "F#4",
          "midi": 66,
          "time": 42.1796875,
          "velocity": 0.6377952755905512,
          "duration": 0.171875
        },
        {
          "name": "A#4",
          "midi": 70,
          "time": 42.5625,
          "velocity": 0.4094488188976378,
          "duration": 0.171875
        },
        {
          "name": "C#4",
          "midi": 61,
          "time": 42.5625,
          "velocity": 0.7244094488188977,
          "duration": 0.0234375
        },
        {
          "name": "D#4",
          "midi": 63,
          "time": 42.625,
          "velocity": 0.7559055118110236,
          "duration": 0.0390625
        },
        {
          "name": "F4",
          "midi": 65,
          "time": 42.6875,
          "velocity": 0.7952755905511811,
          "duration": 0.0546875
        },
        {
          "name": "F#4",
          "midi": 66,
          "time": 42.75,
          "velocity": 0.8188976377952756,
          "duration": 0.1171875
        },
        {
          "name": "A#4",
          "midi": 70,
          "time": 43.0390625,
          "velocity": 0.4645669291338583,
          "duration": 0.0546875
        },
        {
          "name": "F#4",
          "midi": 66,
          "time": 43.1171875,
          "velocity": 0.44881889763779526,
          "duration": 0.1640625
        },
        {
          "name": "A#4",
          "midi": 70,
          "time": 43.46875,
          "velocity": 0.7244094488188977,
          "duration": 0.0546875
        },
        {
          "name": "F#4",
          "midi": 66,
          "time": 43.5390625,
          "velocity": 0.6850393700787402,
          "duration": 0.046875
        },
        {
          "name": "C#4",
          "midi": 61,
          "time": 43.609375,
          "velocity": 0.6377952755905512,
          "duration": 0.0234375
        },
        {
          "name": "A#3",
          "midi": 58,
          "time": 43.6875,
          "velocity": 0.7795275590551181,
          "duration": 0.1640625
        },
        {
          "name": "C#4",
          "midi": 61,
          "time": 43.6875,
          "velocity": 0.7244094488188977,
          "duration": 0.0234375
        },
        {
          "name": "D#4",
          "midi": 63,
          "time": 43.7421875,
          "velocity": 0.7086614173228346,
          "duration": 0.0390625
        },
        {
          "name": "F4",
          "midi": 65,
          "time": 43.8125,
          "velocity": 0.6614173228346457,
          "duration": 0.0234375
        },
        {
          "name": "F#4",
          "midi": 66,
          "time": 43.8671875,
          "velocity": 0.6220472440944882,
          "duration": 0.1640625
        },
        {
          "name": "A#4",
          "midi": 70,
          "time": 44.2421875,
          "velocity": 0.4409448818897638,
          "duration": 0.1484375
        },
        {
          "name": "C#4",
          "midi": 61,
          "time": 44.2421875,
          "velocity": 0.6929133858267716,
          "duration": 0.0390625
        },
        {
          "name": "D#4",
          "midi": 63,
          "time": 44.3046875,
          "velocity": 0.7637795275590551,
          "duration": 0.046875
        },
        {
          "name": "F4",
          "midi": 65,
          "time": 44.375,
          "velocity": 0.7716535433070866,
          "duration": 0.0390625
        },
        {
          "name": "F#4",
          "midi": 66,
          "time": 44.4296875,
          "velocity": 0.8267716535433071,
          "duration": 0.140625
        },
        {
          "name": "A#4",
          "midi": 70,
          "time": 44.734375,
          "velocity": 0.44881889763779526,
          "duration": 0.0390625
        },
        {
          "name": "F#4",
          "midi": 66,
          "time": 44.8125,
          "velocity": 0.4330708661417323,
          "duration": 0.1640625
        },
        {
          "name": "A#4",
          "midi": 70,
          "time": 45.1484375,
          "velocity": 0.7559055118110236,
          "duration": 0.046875
        },
        {
          "name": "F#4",
          "midi": 66,
          "time": 45.2265625,
          "velocity": 0.7086614173228346,
          "duration": 0.046875
        },
        {
          "name": "C#4",
          "midi": 61,
          "time": 45.2890625,
          "velocity": 0.6220472440944882,
          "duration": 0.046875
        },
        {
          "name": "F#4",
          "midi": 66,
          "time": 45.3671875,
          "velocity": 0.7244094488188977,
          "duration": 0.015625
        },
        {
          "name": "A#3",
          "midi": 58,
          "time": 45.375,
          "velocity": 0.7637795275590551,
          "duration": 0.1796875
        },
        {
          "name": "E4",
          "midi": 64,
          "time": 45.421875,
          "velocity": 0.7086614173228346,
          "duration": 0.015625
        },
        {
          "name": "D4",
          "midi": 62,
          "time": 45.4609375,
          "velocity": 0.6456692913385826,
          "duration": 0.0234375
        },
        {
          "name": "C#4",
          "midi": 61,
          "time": 45.515625,
          "velocity": 0.6614173228346457,
          "duration": 0.0234375
        },
        {
          "name": "B3",
          "midi": 59,
          "time": 45.5546875,
          "velocity": 0.6299212598425197,
          "duration": 0.15625
        },
        {
          "name": "B4",
          "midi": 71,
          "time": 45.8515625,
          "velocity": 0.31496062992125984,
          "duration": 0.046875
        },
        {
          "name": "G4",
          "midi": 67,
          "time": 45.9296875,
          "velocity": 0.44881889763779526,
          "duration": 0.171875
        },
        {
          "name": "B4",
          "midi": 71,
          "time": 46.125,
          "velocity": 0.8267716535433071,
          "duration": 0.125
        },
        {
          "name": "B4",
          "midi": 71,
          "time": 46.3515625,
          "velocity": 0.5118110236220472,
          "duration": 0.046875
        },
        {
          "name": "F#4",
          "midi": 66,
          "time": 46.4140625,
          "velocity": 0.47244094488188976,
          "duration": 0.0390625
        },
        {
          "name": "B4",
          "midi": 71,
          "time": 46.4921875,
          "velocity": 0.44881889763779526,
          "duration": 0.0078125
        },
        {
          "name": "D4",
          "midi": 62,
          "time": 46.5,
          "velocity": 0.4094488188976378,
          "duration": 0.1640625
        },
        {
          "name": "B4",
          "midi": 71,
          "time": 46.8359375,
          "velocity": 0.7401574803149606,
          "duration": 0.046875
        },
        {
          "name": "F#4",
          "midi": 66,
          "time": 46.90625,
          "velocity": 0.6929133858267716,
          "duration": 0.0546875
        },
        {
          "name": "D4",
          "midi": 62,
          "time": 46.984375,
          "velocity": 0.6456692913385826,
          "duration": 0.0703125
        },
        {
          "name": "B3",
          "midi": 59,
          "time": 47.0546875,
          "velocity": 0.8031496062992126,
          "duration": 0.15625
        },
        {
          "name": "F#4",
          "midi": 66,
          "time": 47.0546875,
          "velocity": 0.7401574803149606,
          "duration": 0.0078125
        },
        {
          "name": "E4",
          "midi": 64,
          "time": 47.1015625,
          "velocity": 0.7007874015748031,
          "duration": 0.0234375
        },
        {
          "name": "D4",
          "midi": 62,
          "time": 47.1484375,
          "velocity": 0.6771653543307087,
          "duration": 0.015625
        },
        {
          "name": "C#4",
          "midi": 61,
          "time": 47.203125,
          "velocity": 0.6062992125984252,
          "duration": 0.0390625
        },
        {
          "name": "B3",
          "midi": 59,
          "time": 47.2421875,
          "velocity": 0.6062992125984252,
          "duration": 0.1640625
        },
        {
          "name": "G4",
          "midi": 67,
          "time": 47.6171875,
          "velocity": 0.41732283464566927,
          "duration": 0.171875
        },
        {
          "name": "B4",
          "midi": 71,
          "time": 48.03125,
          "velocity": 0.4881889763779528,
          "duration": 0.03125
        },
        {
          "name": "F#4",
          "midi": 66,
          "time": 48.109375,
          "velocity": 0.4881889763779528,
          "duration": 0.0625
        },
        {
          "name": "B4",
          "midi": 71,
          "time": 48.1796875,
          "velocity": 0.4566929133858268,
          "duration": 0.0078125
        },
        {
          "name": "D4",
          "midi": 62,
          "time": 48.1875,
          "velocity": 0.44881889763779526,
          "duration": 0.15625
        },
        {
          "name": "C#5",
          "midi": 73,
          "time": 48.234375,
          "velocity": 0.5118110236220472,
          "duration": 0.0078125
        },
        {
          "name": "F#4",
          "midi": 66,
          "time": 48.6015625,
          "velocity": 0.7086614173228346,
          "duration": 0.046875
        },
        {
          "name": "D4",
          "midi": 62,
          "time": 48.671875,
          "velocity": 0.6456692913385826,
          "duration": 0.0625
        },
        {
          "name": "F#4",
          "midi": 66,
          "time": 48.75,
          "velocity": 0.7322834645669292,
          "duration": 0.03125
        },
        {
          "name": "B3",
          "midi": 59,
          "time": 48.75,
          "velocity": 0.7952755905511811,
          "duration": 0.1640625
        },
        {
          "name": "E4",
          "midi": 64,
          "time": 48.7890625,
          "velocity": 0.6850393700787402,
          "duration": 0.03125
        },
        {
          "name": "D4",
          "midi": 62,
          "time": 48.8359375,
          "velocity": 0.6850393700787402,
          "duration": 0.03125
        },
        {
          "name": "C#4",
          "midi": 61,
          "time": 48.8828125,
          "velocity": 0.6220472440944882,
          "duration": 0.015625
        },
        {
          "name": "B3",
          "midi": 59,
          "time": 48.9375,
          "velocity": 0.6141732283464567,
          "duration": 0.1484375
        },
        {
          "name": "G4",
          "midi": 67,
          "time": 49.3046875,
          "velocity": 0.4330708661417323,
          "duration": 0.171875
        },
        {
          "name": "B3",
          "midi": 59,
          "time": 49.3046875,
          "velocity": 0.6850393700787402,
          "duration": 0.046875
        },
        {
          "name": "C#4",
          "midi": 61,
          "time": 49.375,
          "velocity": 0.7401574803149606,
          "duration": 0.0234375
        },
        {
          "name": "C#5",
          "midi": 73,
          "time": 49.375,
          "velocity": 0.7401574803149606,
          "duration": 0.0390625
        },
        {
          "name": "D#4",
          "midi": 63,
          "time": 49.4296875,
          "velocity": 0.7795275590551181,
          "duration": 0.046875
        },
        {
          "name": "E4",
          "midi": 64,
          "time": 49.4921875,
          "velocity": 0.8110236220472441,
          "duration": 0.140625
        },
        {
          "name": "G4",
          "midi": 67,
          "time": 49.796875,
          "velocity": 0.4566929133858268,
          "duration": 0.046875
        },
        {
          "name": "C5",
          "midi": 72,
          "time": 49.8671875,
          "velocity": 0.44881889763779526,
          "duration": 0.0234375
        },
        {
          "name": "E4",
          "midi": 64,
          "time": 49.875,
          "velocity": 0.44881889763779526,
          "duration": 0.1640625
        },
        {
          "name": "F#4",
          "midi": 66,
          "time": 50.4296875,
          "velocity": 0.7322834645669292,
          "duration": 0.0234375
        },
        {
          "name": "E4",
          "midi": 64,
          "time": 50.4765625,
          "velocity": 0.6929133858267716,
          "duration": 0.0234375
        },
        {
          "name": "D4",
          "midi": 62,
          "time": 50.53125,
          "velocity": 0.6692913385826772,
          "duration": 0.03125
        },
        {
          "name": "C4",
          "midi": 60,
          "time": 50.5703125,
          "velocity": 0.6456692913385826,
          "duration": 0.015625
        },
        {
          "name": "B3",
          "midi": 59,
          "time": 50.9921875,
          "velocity": 0.6929133858267716,
          "duration": 0.0234375
        },
        {
          "name": "C#4",
          "midi": 61,
          "time": 51.046875,
          "velocity": 0.7480314960629921,
          "duration": 0.0078125
        },
        {
          "name": "D4",
          "midi": 62,
          "time": 51.09375,
          "velocity": 0.7480314960629921,
          "duration": 0.0234375
        },
        {
          "name": "E4",
          "midi": 64,
          "time": 51.140625,
          "velocity": 0.7952755905511811,
          "duration": 0.03125
        },
        {
          "name": "F#4",
          "midi": 66,
          "time": 51.1875,
          "velocity": 0.8346456692913385,
          "duration": 0.1171875
        },
        {
          "name": "F#4",
          "midi": 66,
          "time": 51.484375,
          "velocity": 0.47244094488188976,
          "duration": 0.0390625
        },
        {
          "name": "D4",
          "midi": 62,
          "time": 51.5546875,
          "velocity": 0.4409448818897638,
          "duration": 0.171875
        },
        {
          "name": "F#4",
          "midi": 66,
          "time": 51.9765625,
          "velocity": 0.7007874015748031,
          "duration": 0.0546875
        },
        {
          "name": "D4",
          "midi": 62,
          "time": 52.046875,
          "velocity": 0.6456692913385826,
          "duration": 0.046875
        },
        {
          "name": "F#4",
          "midi": 66,
          "time": 52.125,
          "velocity": 0.7637795275590551,
          "duration": 0.03125
        },
        {
          "name": "B3",
          "midi": 59,
          "time": 52.125,
          "velocity": 0.7637795275590551,
          "duration": 0.15625
        },
        {
          "name": "E4",
          "midi": 64,
          "time": 52.1640625,
          "velocity": 0.7007874015748031,
          "duration": 0.0078125
        },
        {
          "name": "D4",
          "midi": 62,
          "time": 52.2109375,
          "velocity": 0.6771653543307087,
          "duration": 0.015625
        },
        {
          "name": "C#4",
          "midi": 61,
          "time": 52.265625,
          "velocity": 0.6062992125984252,
          "duration": 0.0078125
        },
        {
          "name": "B3",
          "midi": 59,
          "time": 52.3125,
          "velocity": 0.6299212598425197,
          "duration": 0.1640625
        },
        {
          "name": "B3",
          "midi": 59,
          "time": 52.6875,
          "velocity": 0.7007874015748031,
          "duration": 0.015625
        },
        {
          "name": "C#4",
          "midi": 61,
          "time": 52.734375,
          "velocity": 0.7244094488188977,
          "duration": 0.015625
        },
        {
          "name": "D4",
          "midi": 62,
          "time": 52.78125,
          "velocity": 0.7322834645669292,
          "duration": 0.015625
        },
        {
          "name": "E4",
          "midi": 64,
          "time": 52.8203125,
          "velocity": 0.8031496062992126,
          "duration": 0.015625
        },
        {
          "name": "F#4",
          "midi": 66,
          "time": 52.875,
          "velocity": 0.8188976377952756,
          "duration": 0.140625
        },
        {
          "name": "F#4",
          "midi": 66,
          "time": 53.171875,
          "velocity": 0.4566929133858268,
          "duration": 0.046875
        },
        {
          "name": "D4",
          "midi": 62,
          "time": 53.2421875,
          "velocity": 0.4251968503937008,
          "duration": 0.15625
        },
        {
          "name": "F#4",
          "midi": 66,
          "time": 53.65625,
          "velocity": 0.6850393700787402,
          "duration": 0.0546875
        },
        {
          "name": "D4",
          "midi": 62,
          "time": 53.7265625,
          "velocity": 0.6141732283464567,
          "duration": 0.0703125
        },
        {
          "name": "B3",
          "midi": 59,
          "time": 53.8046875,
          "velocity": 0.8031496062992126,
          "duration": 0.171875
        },
        {
          "name": "F#4",
          "midi": 66,
          "time": 53.8125,
          "velocity": 0.7322834645669292,
          "duration": 0.0078125
        },
        {
          "name": "E4",
          "midi": 64,
          "time": 53.859375,
          "velocity": 0.7165354330708661,
          "duration": 0.0234375
        },
        {
          "name": "D4",
          "midi": 62,
          "time": 53.90625,
          "velocity": 0.6771653543307087,
          "duration": 0.0078125
        },
        {
          "name": "C#4",
          "midi": 61,
          "time": 53.953125,
          "velocity": 0.6220472440944882,
          "duration": 0.0234375
        },
        {
          "name": "B3",
          "midi": 59,
          "time": 54,
          "velocity": 0.6456692913385826,
          "duration": 0.1640625
        },
        {
          "name": "F#4",
          "midi": 66,
          "time": 54.8515625,
          "velocity": 0.44881889763779526,
          "duration": 0.046875
        },
        {
          "name": "D4",
          "midi": 62,
          "time": 54.9375,
          "velocity": 0.4094488188976378,
          "duration": 0.1796875
        },
        {
          "name": "F#4",
          "midi": 66,
          "time": 55.34375,
          "velocity": 0.6850393700787402,
          "duration": 0.0546875
        },
        {
          "name": "D4",
          "midi": 62,
          "time": 55.421875,
          "velocity": 0.6299212598425197,
          "duration": 0.0546875
        },
        {
          "name": "F#4",
          "midi": 66,
          "time": 55.4921875,
          "velocity": 0.7480314960629921,
          "duration": 0.0078125
        },
        {
          "name": "B3",
          "midi": 59,
          "time": 55.5,
          "velocity": 0.7637795275590551,
          "duration": 0.15625
        },
        {
          "name": "E4",
          "midi": 64,
          "time": 55.546875,
          "velocity": 0.7165354330708661,
          "duration": 0.0078125
        },
        {
          "name": "D4",
          "midi": 62,
          "time": 55.5859375,
          "velocity": 0.6771653543307087,
          "duration": 0.03125
        },
        {
          "name": "C#4",
          "midi": 61,
          "time": 55.6328125,
          "velocity": 0.6377952755905512,
          "duration": 0.0234375
        },
        {
          "name": "B3",
          "midi": 59,
          "time": 55.6796875,
          "velocity": 0.6456692913385826,
          "duration": 0.171875
        },
        {
          "name": "G4",
          "midi": 67,
          "time": 56.0546875,
          "velocity": 0.4094488188976378,
          "duration": 0.1640625
        },
        {
          "name": "F#4",
          "midi": 66,
          "time": 56.5390625,
          "velocity": 0.48031496062992124,
          "duration": 0.046875
        },
        {
          "name": "D4",
          "midi": 62,
          "time": 56.6171875,
          "velocity": 0.4094488188976378,
          "duration": 0.171875
        },
        {
          "name": "F#4",
          "midi": 66,
          "time": 57.0390625,
          "velocity": 0.6850393700787402,
          "duration": 0.0390625
        },
        {
          "name": "D4",
          "midi": 62,
          "time": 57.109375,
          "velocity": 0.6141732283464567,
          "duration": 0.046875
        },
        {
          "name": "F#4",
          "midi": 66,
          "time": 57.1796875,
          "velocity": 0.7480314960629921,
          "duration": 0.0078125
        },
        {
          "name": "B3",
          "midi": 59,
          "time": 57.1875,
          "velocity": 0.7874015748031497,
          "duration": 0.1640625
        },
        {
          "name": "E4",
          "midi": 64,
          "time": 57.234375,
          "velocity": 0.7007874015748031,
          "duration": 0.0234375
        },
        {
          "name": "D4",
          "midi": 62,
          "time": 57.28125,
          "velocity": 0.6771653543307087,
          "duration": 0.0234375
        },
        {
          "name": "C#4",
          "midi": 61,
          "time": 57.3203125,
          "velocity": 0.6456692913385826,
          "duration": 0.03125
        },
        {
          "name": "B3",
          "midi": 59,
          "time": 57.3671875,
          "velocity": 0.6377952755905512,
          "duration": 0.171875
        },
        {
          "name": "G4",
          "midi": 67,
          "time": 57.75,
          "velocity": 0.4330708661417323,
          "duration": 0.1640625
        },
        {
          "name": "B3",
          "midi": 59,
          "time": 57.75,
          "velocity": 0.7086614173228346,
          "duration": 0.046875
        },
        {
          "name": "C#4",
          "midi": 61,
          "time": 57.8125,
          "velocity": 0.7322834645669292,
          "duration": 0.0234375
        },
        {
          "name": "D#4",
          "midi": 63,
          "time": 57.8671875,
          "velocity": 0.7795275590551181,
          "duration": 0.03125
        },
        {
          "name": "E4",
          "midi": 64,
          "time": 57.9296875,
          "velocity": 0.8267716535433071,
          "duration": 0.125
        },
        {
          "name": "G4",
          "midi": 67,
          "time": 58.2265625,
          "velocity": 0.48031496062992124,
          "duration": 0.0703125
        },
        {
          "name": "E4",
          "midi": 64,
          "time": 58.3046875,
          "velocity": 0.4409448818897638,
          "duration": 0.1640625
        },
        {
          "name": "F#4",
          "midi": 66,
          "time": 58.6796875,
          "velocity": 0.7165354330708661,
          "duration": 0.0390625
        },
        {
          "name": "C#4",
          "midi": 61,
          "time": 58.75,
          "velocity": 0.6456692913385826,
          "duration": 0.046875
        },
        {
          "name": "A#3",
          "midi": 58,
          "time": 58.8046875,
          "velocity": 0.7795275590551181,
          "duration": 0.03125
        },
        {
          "name": "F#3",
          "midi": 54,
          "time": 58.8671875,
          "velocity": 0.8031496062992126,
          "duration": 0.1328125
        },
        {
          "name": "F#4",
          "midi": 66,
          "time": 58.8671875,
          "velocity": 0.7244094488188977,
          "duration": 0.03125
        },
        {
          "name": "E4",
          "midi": 64,
          "time": 58.9140625,
          "velocity": 0.6929133858267716,
          "duration": 0.0078125
        },
        {
          "name": "D4",
          "midi": 62,
          "time": 58.96875,
          "velocity": 0.6535433070866141,
          "duration": 0.03125
        },
        {
          "name": "C#4",
          "midi": 61,
          "time": 59.0078125,
          "velocity": 0.6377952755905512,
          "duration": 0.015625
        },
        {
          "name": "B3",
          "midi": 59,
          "time": 59.0546875,
          "velocity": 0.6220472440944882,
          "duration": 0.1484375
        },
        {
          "name": "B3",
          "midi": 59,
          "time": 59.4296875,
          "velocity": 0.7086614173228346,
          "duration": 0.03125
        },
        {
          "name": "C#4",
          "midi": 61,
          "time": 59.4765625,
          "velocity": 0.7480314960629921,
          "duration": 0.0234375
        },
        {
          "name": "D#4",
          "midi": 63,
          "time": 59.53125,
          "velocity": 0.7795275590551181,
          "duration": 0.0390625
        },
        {
          "name": "E4",
          "midi": 64,
          "time": 59.578125,
          "velocity": 0.8031496062992126,
          "duration": 0.0390625
        },
        {
          "name": "F#4",
          "midi": 66,
          "time": 59.625,
          "velocity": 0.8031496062992126,
          "duration": 0.1484375
        },
        {
          "name": "F#4",
          "midi": 66,
          "time": 59.9140625,
          "velocity": 0.47244094488188976,
          "duration": 0.0546875
        },
        {
          "name": "D#4",
          "midi": 63,
          "time": 59.9921875,
          "velocity": 0.44881889763779526,
          "duration": 0.15625
        },
        {
          "name": "F#4",
          "midi": 66,
          "time": 60.40625,
          "velocity": 0.7165354330708661,
          "duration": 0.0546875
        },
        {
          "name": "D#4",
          "midi": 63,
          "time": 60.4765625,
          "velocity": 0.6299212598425197,
          "duration": 0.0625
        },
        {
          "name": "F#4",
          "midi": 66,
          "time": 60.5625,
          "velocity": 0.7637795275590551,
          "duration": 0.0234375
        },
        {
          "name": "B3",
          "midi": 59,
          "time": 60.5625,
          "velocity": 0.7952755905511811,
          "duration": 0.15625
        },
        {
          "name": "E4",
          "midi": 64,
          "time": 60.609375,
          "velocity": 0.7086614173228346,
          "duration": 0.0234375
        },
        {
          "name": "D#4",
          "midi": 63,
          "time": 60.6484375,
          "velocity": 0.6535433070866141,
          "duration": 0.03125
        },
        {
          "name": "C#4",
          "midi": 61,
          "time": 60.703125,
          "velocity": 0.6456692913385826,
          "duration": 0.03125
        },
        {
          "name": "B3",
          "midi": 59,
          "time": 60.75,
          "velocity": 0.6220472440944882,
          "duration": 0.171875
        },
        {
          "name": "B3",
          "midi": 59,
          "time": 61.125,
          "velocity": 0.7007874015748031,
          "duration": 0.0078125
        },
        {
          "name": "C#4",
          "midi": 61,
          "time": 61.1640625,
          "velocity": 0.7559055118110236,
          "duration": 0.03125
        },
        {
          "name": "D#4",
          "midi": 63,
          "time": 61.21875,
          "velocity": 0.7795275590551181,
          "duration": 0.03125
        },
        {
          "name": "E4",
          "midi": 64,
          "time": 61.2578125,
          "velocity": 0.8346456692913385,
          "duration": 0.0390625
        },
        {
          "name": "F#4",
          "midi": 66,
          "time": 61.3046875,
          "velocity": 0.8267716535433071,
          "duration": 0.1484375
        },
        {
          "name": "F#4",
          "midi": 66,
          "time": 61.609375,
          "velocity": 0.47244094488188976,
          "duration": 0.0546875
        },
        {
          "name": "D#4",
          "midi": 63,
          "time": 61.6875,
          "velocity": 0.4409448818897638,
          "duration": 0.15625
        },
        {
          "name": "F#4",
          "midi": 66,
          "time": 62.09375,
          "velocity": 0.6929133858267716,
          "duration": 0.03125
        },
        {
          "name": "D#4",
          "midi": 63,
          "time": 62.171875,
          "velocity": 0.6062992125984252,
          "duration": 0.0390625
        },
        {
          "name": "F#4",
          "midi": 66,
          "time": 62.2421875,
          "velocity": 0.7322834645669292,
          "duration": 0.0078125
        },
        {
          "name": "B3",
          "midi": 59,
          "time": 62.2421875,
          "velocity": 0.8031496062992126,
          "duration": 0.15625
        },
        {
          "name": "E4",
          "midi": 64,
          "time": 62.2890625,
          "velocity": 0.6850393700787402,
          "duration": 0.03125
        },
        {
          "name": "D4",
          "midi": 62,
          "time": 62.34375,
          "velocity": 0.6692913385826772,
          "duration": 0.0234375
        },
        {
          "name": "C#4",
          "midi": 61,
          "time": 62.3828125,
          "velocity": 0.6299212598425197,
          "duration": 0.0234375
        },
        {
          "name": "B3",
          "midi": 59,
          "time": 62.4296875,
          "velocity": 0.6220472440944882,
          "duration": 0.171875
        },
        {
          "name": "B3",
          "midi": 59,
          "time": 62.8125,
          "velocity": 0.7007874015748031,
          "duration": 0.0234375
        },
        {
          "name": "C#4",
          "midi": 61,
          "time": 62.8515625,
          "velocity": 0.7244094488188977,
          "duration": 0.0078125
        },
        {
          "name": "D4",
          "midi": 62,
          "time": 62.90625,
          "velocity": 0.7637795275590551,
          "duration": 0.0078125
        },
        {
          "name": "E4",
          "midi": 64,
          "time": 62.953125,
          "velocity": 0.8110236220472441,
          "duration": 0.03125
        },
        {
          "name": "F#4",
          "midi": 66,
          "time": 63,
          "velocity": 0.8267716535433071,
          "duration": 0.171875
        },
        {
          "name": "F#4",
          "midi": 66,
          "time": 63.296875,
          "velocity": 0.47244094488188976,
          "duration": 0.0625
        },
        {
          "name": "D4",
          "midi": 62,
          "time": 63.375,
          "velocity": 0.44881889763779526,
          "duration": 0.1640625
        },
        {
          "name": "F#4",
          "midi": 66,
          "time": 63.7890625,
          "velocity": 0.6850393700787402,
          "duration": 0.0546875
        },
        {
          "name": "D#4",
          "midi": 63,
          "time": 63.8515625,
          "velocity": 0.6062992125984252,
          "duration": 0.0546875
        },
        {
          "name": "F#4",
          "midi": 66,
          "time": 63.9296875,
          "velocity": 0.7559055118110236,
          "duration": 0.0078125
        },
        {
          "name": "B3",
          "midi": 59,
          "time": 63.9375,
          "velocity": 0.8031496062992126,
          "duration": 0.140625
        },
        {
          "name": "E4",
          "midi": 64,
          "time": 63.984375,
          "velocity": 0.7086614173228346,
          "duration": 0.0234375
        },
        {
          "name": "D4",
          "midi": 62,
          "time": 64.0234375,
          "velocity": 0.6614173228346457,
          "duration": 0.03125
        },
        {
          "name": "C#4",
          "midi": 61,
          "time": 64.078125,
          "velocity": 0.6141732283464567,
          "duration": 0.0390625
        },
        {
          "name": "B3",
          "midi": 59,
          "time": 64.125,
          "velocity": 0.6377952755905512,
          "duration": 0.15625
        },
        {
          "name": "B3",
          "midi": 59,
          "time": 64.5,
          "velocity": 0.7007874015748031,
          "duration": 0.03125
        },
        {
          "name": "C#4",
          "midi": 61,
          "time": 64.5390625,
          "velocity": 0.7637795275590551,
          "duration": 0.0234375
        },
        {
          "name": "D4",
          "midi": 62,
          "time": 64.59375,
          "velocity": 0.7795275590551181,
          "duration": 0.015625
        },
        {
          "name": "E4",
          "midi": 64,
          "time": 64.6328125,
          "velocity": 0.8267716535433071,
          "duration": 0.0078125
        },
        {
          "name": "F#4",
          "midi": 66,
          "time": 64.6875,
          "velocity": 0.8267716535433071,
          "duration": 0.1484375
        },
        {
          "name": "F#4",
          "midi": 66,
          "time": 64.984375,
          "velocity": 0.48031496062992124,
          "duration": 0.0625
        },
        {
          "name": "D4",
          "midi": 62,
          "time": 65.0546875,
          "velocity": 0.4094488188976378,
          "duration": 0.171875
        },
        {
          "name": "F#4",
          "midi": 66,
          "time": 65.4765625,
          "velocity": 0.7086614173228346,
          "duration": 0.03125
        },
        {
          "name": "D#4",
          "midi": 63,
          "time": 65.5390625,
          "velocity": 0.6299212598425197,
          "duration": 0.0390625
        },
        {
          "name": "D4",
          "midi": 62,
          "time": 65.6171875,
          "velocity": 0.7480314960629921,
          "duration": 0.046875
        },
        {
          "name": "B3",
          "midi": 59,
          "time": 65.6171875,
          "velocity": 0.7637795275590551,
          "duration": 0.15625
        },
        {
          "name": "C#4",
          "midi": 61,
          "time": 65.6875,
          "velocity": 0.6929133858267716,
          "duration": 0.03125
        },
        {
          "name": "A3",
          "midi": 57,
          "time": 65.8125,
          "velocity": 0.6456692913385826,
          "duration": 0.1640625
        },
        {
          "name": "D4",
          "midi": 62,
          "time": 66.1796875,
          "velocity": 0.7244094488188977,
          "duration": 0.015625
        },
        {
          "name": "E4",
          "midi": 64,
          "time": 66.234375,
          "velocity": 0.7401574803149606,
          "duration": 0.0234375
        },
        {
          "name": "F#4",
          "midi": 66,
          "time": 66.2734375,
          "velocity": 0.7716535433070866,
          "duration": 0.015625
        },
        {
          "name": "G4",
          "midi": 67,
          "time": 66.328125,
          "velocity": 0.8346456692913385,
          "duration": 0.03125
        },
        {
          "name": "A4",
          "midi": 69,
          "time": 66.3671875,
          "velocity": 0.8346456692913385,
          "duration": 0.15625
        },
        {
          "name": "A4",
          "midi": 69,
          "time": 66.6640625,
          "velocity": 0.48031496062992124,
          "duration": 0.0390625
        },
        {
          "name": "F#4",
          "midi": 66,
          "time": 66.75,
          "velocity": 0.41732283464566927,
          "duration": 0.1796875
        },
        {
          "name": "A4",
          "midi": 69,
          "time": 67.15625,
          "velocity": 0.6850393700787402,
          "duration": 0.046875
        },
        {
          "name": "E4",
          "midi": 64,
          "time": 67.2265625,
          "velocity": 0.6220472440944882,
          "duration": 0.046875
        },
        {
          "name": "A4",
          "midi": 69,
          "time": 67.3046875,
          "velocity": 0.7559055118110236,
          "duration": 0.0234375
        },
        {
          "name": "C#4",
          "midi": 61,
          "time": 67.3125,
          "velocity": 0.7874015748031497,
          "duration": 0.140625
        },
        {
          "name": "G4",
          "midi": 67,
          "time": 67.3515625,
          "velocity": 0.7244094488188977,
          "duration": 0.0078125
        },
        {
          "name": "F#4",
          "midi": 66,
          "time": 67.3984375,
          "velocity": 0.6771653543307087,
          "duration": 0.03125
        },
        {
          "name": "E4",
          "midi": 64,
          "time": 67.4453125,
          "velocity": 0.6456692913385826,
          "duration": 0.0234375
        },
        {
          "name": "D4",
          "midi": 62,
          "time": 67.5,
          "velocity": 0.6220472440944882,
          "duration": 0.15625
        },
        {
          "name": "D4",
          "midi": 62,
          "time": 67.8671875,
          "velocity": 0.6929133858267716,
          "duration": 0.015625
        },
        {
          "name": "E4",
          "midi": 64,
          "time": 67.9140625,
          "velocity": 0.7637795275590551,
          "duration": 0.0390625
        },
        {
          "name": "F#4",
          "midi": 66,
          "time": 67.96875,
          "velocity": 0.7874015748031497,
          "duration": 0.015625
        },
        {
          "name": "G4",
          "midi": 67,
          "time": 68.015625,
          "velocity": 0.8110236220472441,
          "duration": 0.03125
        },
        {
          "name": "A4",
          "midi": 69,
          "time": 68.0625,
          "velocity": 0.8346456692913385,
          "duration": 0.171875
        },
        {
          "name": "A4",
          "midi": 69,
          "time": 68.359375,
          "velocity": 0.48031496062992124,
          "duration": 0.0546875
        },
        {
          "name": "F#4",
          "midi": 66,
          "time": 68.4375,
          "velocity": 0.44881889763779526,
          "duration": 0.15625
        },
        {
          "name": "A4",
          "midi": 69,
          "time": 68.8515625,
          "velocity": 0.6929133858267716,
          "duration": 0.046875
        },
        {
          "name": "F#4",
          "midi": 66,
          "time": 68.921875,
          "velocity": 0.6141732283464567,
          "duration": 0.0546875
        },
        {
          "name": "A4",
          "midi": 69,
          "time": 68.9921875,
          "velocity": 0.7637795275590551,
          "duration": 0.03125
        },
        {
          "name": "D4",
          "midi": 62,
          "time": 69,
          "velocity": 0.7874015748031497,
          "duration": 0.1484375
        },
        {
          "name": "G4",
          "midi": 67,
          "time": 69.046875,
          "velocity": 0.7244094488188977,
          "duration": 0.0078125
        },
        {
          "name": "F#4",
          "midi": 66,
          "time": 69.09375,
          "velocity": 0.6614173228346457,
          "duration": 0.0234375
        },
        {
          "name": "E4",
          "midi": 64,
          "time": 69.140625,
          "velocity": 0.6692913385826772,
          "duration": 0.015625
        },
        {
          "name": "D4",
          "midi": 62,
          "time": 69.1796875,
          "velocity": 0.6299212598425197,
          "duration": 0.171875
        },
        {
          "name": "D4",
          "midi": 62,
          "time": 69.5625,
          "velocity": 0.7165354330708661,
          "duration": 0.03125
        },
        {
          "name": "E4",
          "midi": 64,
          "time": 69.6015625,
          "velocity": 0.7322834645669292,
          "duration": 0.0078125
        },
        {
          "name": "F#4",
          "midi": 66,
          "time": 69.6484375,
          "velocity": 0.8031496062992126,
          "duration": 0.0234375
        },
        {
          "name": "G4",
          "midi": 67,
          "time": 69.6953125,
          "velocity": 0.8188976377952756,
          "duration": 0.015625
        },
        {
          "name": "A4",
          "midi": 69,
          "time": 69.7421875,
          "velocity": 0.8110236220472441,
          "duration": 0.15625
        },
        {
          "name": "A4",
          "midi": 69,
          "time": 70.0390625,
          "velocity": 0.48031496062992124,
          "duration": 0.0546875
        },
        {
          "name": "F#4",
          "midi": 66,
          "time": 70.1171875,
          "velocity": 0.4094488188976378,
          "duration": 0.15625
        },
        {
          "name": "A4",
          "midi": 69,
          "time": 70.5390625,
          "velocity": 0.7007874015748031,
          "duration": 0.03125
        },
        {
          "name": "F#4",
          "midi": 66,
          "time": 70.609375,
          "velocity": 0.6456692913385826,
          "duration": 0.0625
        },
        {
          "name": "A4",
          "midi": 69,
          "time": 70.6796875,
          "velocity": 0.7480314960629921,
          "duration": 0.015625
        },
        {
          "name": "D4",
          "midi": 62,
          "time": 70.6875,
          "velocity": 0.7716535433070866,
          "duration": 0.1328125
        },
        {
          "name": "G4",
          "midi": 67,
          "time": 70.734375,
          "velocity": 0.6929133858267716,
          "duration": 0.03125
        },
        {
          "name": "F#4",
          "midi": 66,
          "time": 70.78125,
          "velocity": 0.6535433070866141,
          "duration": 0.0234375
        },
        {
          "name": "E4",
          "midi": 64,
          "time": 70.8203125,
          "velocity": 0.6614173228346457,
          "duration": 0.03125
        },
        {
          "name": "D4",
          "midi": 62,
          "time": 70.875,
          "velocity": 0.6141732283464567,
          "duration": 0.15625
        },
        {
          "name": "D4",
          "midi": 62,
          "time": 71.25,
          "velocity": 0.7086614173228346,
          "duration": 0.03125
        },
        {
          "name": "E4",
          "midi": 64,
          "time": 71.2890625,
          "velocity": 0.7244094488188977,
          "duration": 0.0078125
        },
        {
          "name": "F#4",
          "midi": 66,
          "time": 71.3359375,
          "velocity": 0.7952755905511811,
          "duration": 0.0234375
        },
        {
          "name": "G4",
          "midi": 67,
          "time": 71.3828125,
          "velocity": 0.8267716535433071,
          "duration": 0.0234375
        },
        {
          "name": "A4",
          "midi": 69,
          "time": 71.4375,
          "velocity": 0.8346456692913385,
          "duration": 0.1640625
        },
        {
          "name": "A4",
          "midi": 69,
          "time": 71.734375,
          "velocity": 0.4645669291338583,
          "duration": 0.0546875
        },
        {
          "name": "F#4",
          "midi": 66,
          "time": 71.8046875,
          "velocity": 0.4409448818897638,
          "duration": 0.171875
        },
        {
          "name": "A4",
          "midi": 69,
          "time": 72.2265625,
          "velocity": 0.6850393700787402,
          "duration": 0.03125
        },
        {
          "name": "F#4",
          "midi": 66,
          "time": 72.296875,
          "velocity": 0.6299212598425197,
          "duration": 0.0625
        },
        {
          "name": "D4",
          "midi": 62,
          "time": 72.375,
          "velocity": 0.7952755905511811,
          "duration": 0.1328125
        },
        {
          "name": "F#4",
          "midi": 66,
          "time": 72.375,
          "velocity": 0.7480314960629921,
          "duration": 0.0390625
        },
        {
          "name": "E4",
          "midi": 64,
          "time": 72.4375,
          "velocity": 0.7165354330708661,
          "duration": 0.03125
        },
        {
          "name": "C#4",
          "midi": 61,
          "time": 72.5546875,
          "velocity": 0.6377952755905512,
          "duration": 0.1640625
        },
        {
          "name": "A4",
          "midi": 69,
          "time": 72.9296875,
          "velocity": 0.4251968503937008,
          "duration": 0.1640625
        },
        {
          "name": "G#4",
          "midi": 68,
          "time": 73.90625,
          "velocity": 0.7244094488188977,
          "duration": 0.046875
        },
        {
          "name": "F4",
          "midi": 65,
          "time": 73.984375,
          "velocity": 0.6062992125984252,
          "duration": 0.0390625
        },
        {
          "name": "C#4",
          "midi": 61,
          "time": 74.0625,
          "velocity": 0.7637795275590551,
          "duration": 0.1328125
        },
        {
          "name": "D#4",
          "midi": 63,
          "time": 74.125,
          "velocity": 0.7007874015748031,
          "duration": 0.0234375
        },
        {
          "name": "F4",
          "midi": 65,
          "time": 74.1796875,
          "velocity": 0.6850393700787402,
          "duration": 0.0390625
        },
        {
          "name": "F#4",
          "midi": 66,
          "time": 74.25,
          "velocity": 0.6220472440944882,
          "duration": 0.1640625
        },
        {
          "name": "C#4",
          "midi": 61,
          "time": 74.6171875,
          "velocity": 0.7086614173228346,
          "duration": 0.0390625
        },
        {
          "name": "D#4",
          "midi": 63,
          "time": 74.6796875,
          "velocity": 0.7480314960629921,
          "duration": 0.046875
        },
        {
          "name": "F4",
          "midi": 65,
          "time": 74.7421875,
          "velocity": 0.7952755905511811,
          "duration": 0.0390625
        },
        {
          "name": "F#4",
          "midi": 66,
          "time": 74.8046875,
          "velocity": 0.8346456692913385,
          "duration": 0.15625
        },
        {
          "name": "F#4",
          "midi": 66,
          "time": 75.1796875,
          "velocity": 0.4094488188976378,
          "duration": 0.171875
        },
        {
          "name": "F#4",
          "midi": 66,
          "time": 75.5625,
          "velocity": 0.7086614173228346,
          "duration": 0.0234375
        },
        {
          "name": "C#4",
          "midi": 61,
          "time": 75.6171875,
          "velocity": 0.6141732283464567,
          "duration": 0.0234375
        },
        {
          "name": "A#3",
          "midi": 58,
          "time": 75.6875,
          "velocity": 0.6141732283464567,
          "duration": 0.0390625
        },
        {
          "name": "F#3",
          "midi": 54,
          "time": 75.75,
          "velocity": 0.7952755905511811,
          "duration": 0.1484375
        },
        {
          "name": "C#4",
          "midi": 61,
          "time": 75.75,
          "velocity": 0.7322834645669292,
          "duration": 0.03125
        },
        {
          "name": "D#4",
          "midi": 63,
          "time": 75.796875,
          "velocity": 0.7165354330708661,
          "duration": 0.03125
        },
        {
          "name": "F4",
          "midi": 65,
          "time": 75.84375,
          "velocity": 0.6771653543307087,
          "duration": 0.03125
        },
        {
          "name": "F#4",
          "midi": 66,
          "time": 75.890625,
          "velocity": 0.6535433070866141,
          "duration": 0.0234375
        },
        {
          "name": "B3",
          "midi": 59,
          "time": 75.9296875,
          "velocity": 0.7637795275590551,
          "duration": 0.15625
        },
        {
          "name": "D#4",
          "midi": 63,
          "time": 75.9296875,
          "velocity": 0.8031496062992126,
          "duration": 0.1328125
        },
        {
          "name": "G#4",
          "midi": 68,
          "time": 79.3046875,
          "velocity": 0.30708661417322836,
          "duration": 0.078125
        },
        {
          "name": "E5",
          "midi": 76,
          "time": 79.3046875,
          "velocity": 0.3700787401574803,
          "duration": 0.0546875
        },
        {
          "name": "B4",
          "midi": 71,
          "time": 79.40625,
          "velocity": 0.36220472440944884,
          "duration": 0.0703125
        },
        {
          "name": "G#4",
          "midi": 68,
          "time": 79.4921875,
          "velocity": 0.3700787401574803,
          "duration": 0.0625
        },
        {
          "name": "E5",
          "midi": 76,
          "time": 79.4921875,
          "velocity": 0.44881889763779526,
          "duration": 0.078125
        },
        {
          "name": "B4",
          "midi": 71,
          "time": 79.5859375,
          "velocity": 0.41732283464566927,
          "duration": 0.0859375
        },
        {
          "name": "G#4",
          "midi": 68,
          "time": 79.6796875,
          "velocity": 0.4566929133858268,
          "duration": 0.078125
        },
        {
          "name": "E5",
          "midi": 76,
          "time": 79.6875,
          "velocity": 0.33858267716535434,
          "duration": 0.0859375
        },
        {
          "name": "B4",
          "midi": 71,
          "time": 79.7734375,
          "velocity": 0.5275590551181102,
          "duration": 0.0703125
        },
        {
          "name": "G#4",
          "midi": 68,
          "time": 79.8671875,
          "velocity": 0.5511811023622047,
          "duration": 0.0703125
        },
        {
          "name": "E5",
          "midi": 76,
          "time": 79.875,
          "velocity": 0.4251968503937008,
          "duration": 0.0859375
        },
        {
          "name": "B4",
          "midi": 71,
          "time": 79.9609375,
          "velocity": 0.5669291338582677,
          "duration": 0.0625
        },
        {
          "name": "E5",
          "midi": 76,
          "time": 80.0546875,
          "velocity": 0.49606299212598426,
          "duration": 0.0703125
        },
        {
          "name": "G#4",
          "midi": 68,
          "time": 80.0546875,
          "velocity": 0.6456692913385826,
          "duration": 0.0703125
        },
        {
          "name": "B4",
          "midi": 71,
          "time": 80.15625,
          "velocity": 0.6850393700787402,
          "duration": 0.078125
        },
        {
          "name": "E5",
          "midi": 76,
          "time": 80.25,
          "velocity": 0.5826771653543307,
          "duration": 0.078125
        },
        {
          "name": "G#4",
          "midi": 68,
          "time": 80.25,
          "velocity": 0.7165354330708661,
          "duration": 0.0703125
        },
        {
          "name": "B4",
          "midi": 71,
          "time": 80.3359375,
          "velocity": 0.7401574803149606,
          "duration": 0.0546875
        },
        {
          "name": "E5",
          "midi": 76,
          "time": 80.4296875,
          "velocity": 0.6535433070866141,
          "duration": 0.0546875
        },
        {
          "name": "G#4",
          "midi": 68,
          "time": 80.4375,
          "velocity": 0.8031496062992126,
          "duration": 0.078125
        },
        {
          "name": "B4",
          "midi": 71,
          "time": 80.53125,
          "velocity": 0.84251968503937,
          "duration": 0.0625
        },
        {
          "name": "E5",
          "midi": 76,
          "time": 80.6171875,
          "velocity": 0.7559055118110236,
          "duration": 0.0546875
        },
        {
          "name": "G#4",
          "midi": 68,
          "time": 80.625,
          "velocity": 0.8740157480314961,
          "duration": 0.0625
        },
        {
          "name": "B4",
          "midi": 71,
          "time": 80.71875,
          "velocity": 0.889763779527559,
          "duration": 0.078125
        },
        {
          "name": "G#4",
          "midi": 68,
          "time": 80.8125,
          "velocity": 0.937007874015748,
          "duration": 0.0546875
        },
        {
          "name": "E5",
          "midi": 76,
          "time": 80.8125,
          "velocity": 0.8031496062992126,
          "duration": 0.0703125
        },
        {
          "name": "B4",
          "midi": 71,
          "time": 80.8984375,
          "velocity": 0.9763779527559056,
          "duration": 0.078125
        },
        {
          "name": "E5",
          "midi": 76,
          "time": 81,
          "velocity": 0.9448818897637795,
          "duration": 0.0625
        },
        {
          "name": "E5",
          "midi": 76,
          "time": 81.09375,
          "velocity": 0.905511811023622,
          "duration": 0.0625
        },
        {
          "name": "D#5",
          "midi": 75,
          "time": 81.1796875,
          "velocity": 0.8503937007874016,
          "duration": 0.0703125
        },
        {
          "name": "D#5",
          "midi": 75,
          "time": 81.28125,
          "velocity": 0.8110236220472441,
          "duration": 0.0546875
        },
        {
          "name": "D5",
          "midi": 74,
          "time": 81.375,
          "velocity": 0.7716535433070866,
          "duration": 0.046875
        },
        {
          "name": "D5",
          "midi": 74,
          "time": 81.4609375,
          "velocity": 0.7401574803149606,
          "duration": 0.0625
        },
        {
          "name": "C#5",
          "midi": 73,
          "time": 81.5625,
          "velocity": 0.7559055118110236,
          "duration": 0.0546875
        },
        {
          "name": "C#5",
          "midi": 73,
          "time": 81.6484375,
          "velocity": 0.7559055118110236,
          "duration": 0.0625
        },
        {
          "name": "C5",
          "midi": 72,
          "time": 81.7421875,
          "velocity": 0.7244094488188977,
          "duration": 0.0703125
        },
        {
          "name": "C5",
          "midi": 72,
          "time": 81.84375,
          "velocity": 0.7401574803149606,
          "duration": 0.046875
        },
        {
          "name": "B4",
          "midi": 71,
          "time": 81.9296875,
          "velocity": 0.7559055118110236,
          "duration": 0.0546875
        },
        {
          "name": "B4",
          "midi": 71,
          "time": 82.0234375,
          "velocity": 0.7559055118110236,
          "duration": 0.046875
        },
        {
          "name": "A#4",
          "midi": 70,
          "time": 82.1171875,
          "velocity": 0.7401574803149606,
          "duration": 0.046875
        },
        {
          "name": "A#4",
          "midi": 70,
          "time": 82.21875,
          "velocity": 0.7559055118110236,
          "duration": 0.0625
        },
        {
          "name": "A4",
          "midi": 69,
          "time": 82.3046875,
          "velocity": 0.7322834645669292,
          "duration": 0.0703125
        },
        {
          "name": "A4",
          "midi": 69,
          "time": 82.3984375,
          "velocity": 0.7244094488188977,
          "duration": 0.0703125
        },
        {
          "name": "G#4",
          "midi": 68,
          "time": 82.5,
          "velocity": 0.7244094488188977,
          "duration": 0.0625
        },
        {
          "name": "G#4",
          "midi": 68,
          "time": 82.59375,
          "velocity": 0.7086614173228346,
          "duration": 0.0546875
        },
        {
          "name": "A4",
          "midi": 69,
          "time": 82.6875,
          "velocity": 0.7086614173228346,
          "duration": 0.171875
        },
        {
          "name": "F#5",
          "midi": 78,
          "time": 86.0546875,
          "velocity": 0.3543307086614173,
          "duration": 0.078125
        },
        {
          "name": "A#4",
          "midi": 70,
          "time": 86.0625,
          "velocity": 0.31496062992125984,
          "duration": 0.0703125
        },
        {
          "name": "C#5",
          "midi": 73,
          "time": 86.15625,
          "velocity": 0.3700787401574803,
          "duration": 0.0703125
        },
        {
          "name": "F#5",
          "midi": 78,
          "time": 86.2421875,
          "velocity": 0.4251968503937008,
          "duration": 0.0625
        },
        {
          "name": "A#4",
          "midi": 70,
          "time": 86.2421875,
          "velocity": 0.3858267716535433,
          "duration": 0.0625
        },
        {
          "name": "C#5",
          "midi": 73,
          "time": 86.3359375,
          "velocity": 0.41732283464566927,
          "duration": 0.0703125
        },
        {
          "name": "F#5",
          "midi": 78,
          "time": 86.4296875,
          "velocity": 0.3543307086614173,
          "duration": 0.0703125
        },
        {
          "name": "A#4",
          "midi": 70,
          "time": 86.4375,
          "velocity": 0.4566929133858268,
          "duration": 0.0546875
        },
        {
          "name": "C#5",
          "midi": 73,
          "time": 86.53125,
          "velocity": 0.5196850393700787,
          "duration": 0.0703125
        },
        {
          "name": "A#4",
          "midi": 70,
          "time": 86.625,
          "velocity": 0.5511811023622047,
          "duration": 0.0625
        },
        {
          "name": "F#5",
          "midi": 78,
          "time": 86.625,
          "velocity": 0.4330708661417323,
          "duration": 0.0625
        },
        {
          "name": "C#5",
          "midi": 73,
          "time": 86.7109375,
          "velocity": 0.5826771653543307,
          "duration": 0.078125
        },
        {
          "name": "F#5",
          "midi": 78,
          "time": 86.8046875,
          "velocity": 0.49606299212598426,
          "duration": 0.0625
        },
        {
          "name": "A#4",
          "midi": 70,
          "time": 86.8046875,
          "velocity": 0.6299212598425197,
          "duration": 0.0546875
        },
        {
          "name": "C#5",
          "midi": 73,
          "time": 86.8984375,
          "velocity": 0.6771653543307087,
          "duration": 0.0625
        },
        {
          "name": "F#5",
          "midi": 78,
          "time": 86.9921875,
          "velocity": 0.5984251968503937,
          "duration": 0.078125
        },
        {
          "name": "A#4",
          "midi": 70,
          "time": 87,
          "velocity": 0.7007874015748031,
          "duration": 0.078125
        },
        {
          "name": "C#5",
          "midi": 73,
          "time": 87.09375,
          "velocity": 0.7559055118110236,
          "duration": 0.0703125
        },
        {
          "name": "A#4",
          "midi": 70,
          "time": 87.1875,
          "velocity": 0.8031496062992126,
          "duration": 0.0703125
        },
        {
          "name": "F#5",
          "midi": 78,
          "time": 87.1875,
          "velocity": 0.6850393700787402,
          "duration": 0.0703125
        },
        {
          "name": "C#5",
          "midi": 73,
          "time": 87.2734375,
          "velocity": 0.8267716535433071,
          "duration": 0.0703125
        },
        {
          "name": "A#4",
          "midi": 70,
          "time": 87.3671875,
          "velocity": 0.8818897637795275,
          "duration": 0.0703125
        },
        {
          "name": "F#5",
          "midi": 78,
          "time": 87.375,
          "velocity": 0.7559055118110236,
          "duration": 0.0546875
        },
        {
          "name": "C#5",
          "midi": 73,
          "time": 87.4609375,
          "velocity": 0.889763779527559,
          "duration": 0.0625
        },
        {
          "name": "F#5",
          "midi": 78,
          "time": 87.5546875,
          "velocity": 0.8346456692913385,
          "duration": 0.0546875
        },
        {
          "name": "A#4",
          "midi": 70,
          "time": 87.5546875,
          "velocity": 0.952755905511811,
          "duration": 0.0625
        },
        {
          "name": "C#5",
          "midi": 73,
          "time": 87.6484375,
          "velocity": 0.984251968503937,
          "duration": 0.0703125
        },
        {
          "name": "F#5",
          "midi": 78,
          "time": 87.75,
          "velocity": 0.9448818897637795,
          "duration": 0.0625
        },
        {
          "name": "F#5",
          "midi": 78,
          "time": 87.84375,
          "velocity": 0.905511811023622,
          "duration": 0.0546875
        },
        {
          "name": "F5",
          "midi": 77,
          "time": 87.9296875,
          "velocity": 0.8818897637795275,
          "duration": 0.0546875
        },
        {
          "name": "F5",
          "midi": 77,
          "time": 88.03125,
          "velocity": 0.8031496062992126,
          "duration": 0.0703125
        },
        {
          "name": "E5",
          "midi": 76,
          "time": 88.1171875,
          "velocity": 0.7716535433070866,
          "duration": 0.0625
        },
        {
          "name": "E5",
          "midi": 76,
          "time": 88.21875,
          "velocity": 0.7401574803149606,
          "duration": 0.078125
        },
        {
          "name": "D#5",
          "midi": 75,
          "time": 88.3046875,
          "velocity": 0.7559055118110236,
          "duration": 0.0625
        },
        {
          "name": "D#5",
          "midi": 75,
          "time": 88.40625,
          "velocity": 0.7559055118110236,
          "duration": 0.0546875
        },
        {
          "name": "D5",
          "midi": 74,
          "time": 88.5,
          "velocity": 0.7559055118110236,
          "duration": 0.0703125
        },
        {
          "name": "D5",
          "midi": 74,
          "time": 88.5859375,
          "velocity": 0.7480314960629921,
          "duration": 0.046875
        },
        {
          "name": "C#5",
          "midi": 73,
          "time": 88.6796875,
          "velocity": 0.7559055118110236,
          "duration": 0.0703125
        },
        {
          "name": "C#5",
          "midi": 73,
          "time": 88.7734375,
          "velocity": 0.7322834645669292,
          "duration": 0.046875
        },
        {
          "name": "C5",
          "midi": 72,
          "time": 88.875,
          "velocity": 0.7480314960629921,
          "duration": 0.046875
        },
        {
          "name": "C5",
          "midi": 72,
          "time": 88.9609375,
          "velocity": 0.7637795275590551,
          "duration": 0.0546875
        },
        {
          "name": "B4",
          "midi": 71,
          "time": 89.0625,
          "velocity": 0.7559055118110236,
          "duration": 0.0546875
        },
        {
          "name": "B4",
          "midi": 71,
          "time": 89.15625,
          "velocity": 0.7637795275590551,
          "duration": 0.0703125
        },
        {
          "name": "A#4",
          "midi": 70,
          "time": 89.2421875,
          "velocity": 0.6850393700787402,
          "duration": 0.046875
        },
        {
          "name": "A#4",
          "midi": 70,
          "time": 89.34375,
          "velocity": 0.7244094488188977,
          "duration": 0.0703125
        },
        {
          "name": "B4",
          "midi": 71,
          "time": 89.4296875,
          "velocity": 0.5590551181102362,
          "duration": 0.140625
        },
        {
          "name": "G4",
          "midi": 67,
          "time": 89.8984375,
          "velocity": 0.4409448818897638,
          "duration": 0.078125
        },
        {
          "name": "D#4",
          "midi": 63,
          "time": 90.5546875,
          "velocity": 0.4330708661417323,
          "duration": 0.171875
        },
        {
          "name": "B3",
          "midi": 59,
          "time": 91.03125,
          "velocity": 0.5275590551181102,
          "duration": 0.078125
        },
        {
          "name": "D#4",
          "midi": 63,
          "time": 91.125,
          "velocity": 0.5275590551181102,
          "duration": 0.15625
        },
        {
          "name": "G4",
          "midi": 67,
          "time": 91.59375,
          "velocity": 0.44881889763779526,
          "duration": 0.0546875
        },
        {
          "name": "G3",
          "midi": 55,
          "time": 91.6875,
          "velocity": 0.49606299212598426,
          "duration": 0.1484375
        },
        {
          "name": "D#4",
          "midi": 63,
          "time": 92.25,
          "velocity": 0.4094488188976378,
          "duration": 0.15625
        },
        {
          "name": "B3",
          "midi": 59,
          "time": 92.7109375,
          "velocity": 0.5354330708661418,
          "duration": 0.0703125
        },
        {
          "name": "E4",
          "midi": 64,
          "time": 92.8046875,
          "velocity": 0.4251968503937008,
          "duration": 0.1484375
        },
        {
          "name": "G4",
          "midi": 67,
          "time": 93.2734375,
          "velocity": 0.41732283464566927,
          "duration": 0.078125
        },
        {
          "name": "G3",
          "midi": 55,
          "time": 93.3671875,
          "velocity": 0.5196850393700787,
          "duration": 0.15625
        },
        {
          "name": "E4",
          "midi": 64,
          "time": 93.9375,
          "velocity": 0.41732283464566927,
          "duration": 0.15625
        },
        {
          "name": "C4",
          "midi": 60,
          "time": 94.3984375,
          "velocity": 0.5669291338582677,
          "duration": 0.0703125
        },
        {
          "name": "E4",
          "midi": 64,
          "time": 94.4921875,
          "velocity": 0.5669291338582677,
          "duration": 0.5234375
        },
        {
          "name": "G4",
          "midi": 67,
          "time": 94.9609375,
          "velocity": 0.4251968503937008,
          "duration": 0.078125
        },
        {
          "name": "G3",
          "midi": 55,
          "time": 95.0625,
          "velocity": 0.6141732283464567,
          "duration": 0.140625
        },
        {
          "name": "C4",
          "midi": 60,
          "time": 95.25,
          "velocity": 0.6062992125984252,
          "duration": 0.0625
        },
        {
          "name": "C4",
          "midi": 60,
          "time": 95.34375,
          "velocity": 0.6141732283464567,
          "duration": 0.0625
        },
        {
          "name": "E4",
          "midi": 64,
          "time": 95.4296875,
          "velocity": 0.7086614173228346,
          "duration": 0.0625
        },
        {
          "name": "E4",
          "midi": 64,
          "time": 95.53125,
          "velocity": 0.7244094488188977,
          "duration": 0.0546875
        },
        {
          "name": "G4",
          "midi": 67,
          "time": 95.6171875,
          "velocity": 0.7637795275590551,
          "duration": 0.046875
        },
        {
          "name": "E4",
          "midi": 64,
          "time": 95.625,
          "velocity": 0.4251968503937008,
          "duration": 0.1484375
        },
        {
          "name": "G4",
          "midi": 67,
          "time": 95.7109375,
          "velocity": 0.7244094488188977,
          "duration": 0.0703125
        },
        {
          "name": "C5",
          "midi": 72,
          "time": 95.8046875,
          "velocity": 0.7874015748031497,
          "duration": 0.0546875
        },
        {
          "name": "C5",
          "midi": 72,
          "time": 95.90625,
          "velocity": 0.7952755905511811,
          "duration": 0.046875
        },
        {
          "name": "E5",
          "midi": 76,
          "time": 96,
          "velocity": 0.8346456692913385,
          "duration": 0.046875
        },
        {
          "name": "E5",
          "midi": 76,
          "time": 96.0859375,
          "velocity": 0.8031496062992126,
          "duration": 0.046875
        },
        {
          "name": "C#5",
          "midi": 73,
          "time": 96.1796875,
          "velocity": 0.33070866141732286,
          "duration": 0.0546875
        },
        {
          "name": "E5",
          "midi": 76,
          "time": 96.2734375,
          "velocity": 0.3543307086614173,
          "duration": 0.0703125
        },
        {
          "name": "C#5",
          "midi": 73,
          "time": 96.3671875,
          "velocity": 0.3779527559055118,
          "duration": 0.0546875
        },
        {
          "name": "E5",
          "midi": 76,
          "time": 96.46875,
          "velocity": 0.44881889763779526,
          "duration": 0.0859375
        },
        {
          "name": "C#5",
          "midi": 73,
          "time": 96.5546875,
          "velocity": 0.48031496062992124,
          "duration": 0.078125
        },
        {
          "name": "E5",
          "midi": 76,
          "time": 96.65625,
          "velocity": 0.5039370078740157,
          "duration": 0.0703125
        },
        {
          "name": "C#5",
          "midi": 73,
          "time": 96.75,
          "velocity": 0.5275590551181102,
          "duration": 0.0625
        },
        {
          "name": "E5",
          "midi": 76,
          "time": 96.8359375,
          "velocity": 0.5748031496062992,
          "duration": 0.0625
        },
        {
          "name": "C#5",
          "midi": 73,
          "time": 96.9375,
          "velocity": 0.6220472440944882,
          "duration": 0.0703125
        },
        {
          "name": "E5",
          "midi": 76,
          "time": 97.03125,
          "velocity": 0.6771653543307087,
          "duration": 0.078125
        },
        {
          "name": "C#5",
          "midi": 73,
          "time": 97.125,
          "velocity": 0.7086614173228346,
          "duration": 0.0625
        },
        {
          "name": "E5",
          "midi": 76,
          "time": 97.2109375,
          "velocity": 0.7637795275590551,
          "duration": 0.0546875
        },
        {
          "name": "C#5",
          "midi": 73,
          "time": 97.3125,
          "velocity": 0.7244094488188977,
          "duration": 0.0625
        },
        {
          "name": "E5",
          "midi": 76,
          "time": 97.40625,
          "velocity": 0.7322834645669292,
          "duration": 0.0546875
        },
        {
          "name": "C#5",
          "midi": 73,
          "time": 97.4921875,
          "velocity": 0.7637795275590551,
          "duration": 0.0703125
        },
        {
          "name": "E5",
          "midi": 76,
          "time": 97.5859375,
          "velocity": 0.7795275590551181,
          "duration": 0.0703125
        },
        {
          "name": "C#5",
          "midi": 73,
          "time": 97.6796875,
          "velocity": 0.7874015748031497,
          "duration": 0.078125
        },
        {
          "name": "E5",
          "midi": 76,
          "time": 97.78125,
          "velocity": 0.7952755905511811,
          "duration": 0.0859375
        },
        {
          "name": "C#5",
          "midi": 73,
          "time": 97.875,
          "velocity": 0.7795275590551181,
          "duration": 0.0703125
        },
        {
          "name": "E5",
          "midi": 76,
          "time": 97.96875,
          "velocity": 0.7952755905511811,
          "duration": 0.0546875
        },
        {
          "name": "C#5",
          "midi": 73,
          "time": 98.0625,
          "velocity": 0.8267716535433071,
          "duration": 0.0703125
        },
        {
          "name": "E5",
          "midi": 76,
          "time": 98.15625,
          "velocity": 0.8188976377952756,
          "duration": 0.0546875
        },
        {
          "name": "C#5",
          "midi": 73,
          "time": 98.2421875,
          "velocity": 0.84251968503937,
          "duration": 0.0546875
        },
        {
          "name": "E5",
          "midi": 76,
          "time": 98.34375,
          "velocity": 0.8503937007874016,
          "duration": 0.0625
        },
        {
          "name": "C#5",
          "midi": 73,
          "time": 98.4296875,
          "velocity": 0.8740157480314961,
          "duration": 0.0546875
        },
        {
          "name": "E5",
          "midi": 76,
          "time": 98.5234375,
          "velocity": 0.84251968503937,
          "duration": 0.078125
        },
        {
          "name": "C#5",
          "midi": 73,
          "time": 98.625,
          "velocity": 0.9133858267716536,
          "duration": 0.0546875
        },
        {
          "name": "E5",
          "midi": 76,
          "time": 98.7109375,
          "velocity": 0.9212598425196851,
          "duration": 0.078125
        },
        {
          "name": "C#5",
          "midi": 73,
          "time": 98.8046875,
          "velocity": 0.8976377952755905,
          "duration": 0.0703125
        },
        {
          "name": "E5",
          "midi": 76,
          "time": 98.8984375,
          "velocity": 0.905511811023622,
          "duration": 0.0546875
        },
        {
          "name": "C#5",
          "midi": 73,
          "time": 98.9921875,
          "velocity": 0.9606299212598425,
          "duration": 0.0703125
        },
        {
          "name": "E5",
          "midi": 76,
          "time": 99.09375,
          "velocity": 0.9448818897637795,
          "duration": 0.078125
        },
        {
          "name": "C#5",
          "midi": 73,
          "time": 99.1875,
          "velocity": 0.952755905511811,
          "duration": 0.0625
        },
        {
          "name": "E5",
          "midi": 76,
          "time": 99.2734375,
          "velocity": 0.952755905511811,
          "duration": 0.0703125
        },
        {
          "name": "C#5",
          "midi": 73,
          "time": 99.375,
          "velocity": 0.968503937007874,
          "duration": 0.0703125
        },
        {
          "name": "E5",
          "midi": 76,
          "time": 99.4609375,
          "velocity": 0.968503937007874,
          "duration": 0.0625
        },
        {
          "name": "F#4",
          "midi": 66,
          "time": 99.71875,
          "velocity": 0.7007874015748031,
          "duration": 0.046875
        },
        {
          "name": "D#4",
          "midi": 63,
          "time": 99.7890625,
          "velocity": 0.7086614173228346,
          "duration": 0.046875
        },
        {
          "name": "F#4",
          "midi": 66,
          "time": 99.859375,
          "velocity": 0.5905511811023622,
          "duration": 0.0390625
        },
        {
          "name": "B3",
          "midi": 59,
          "time": 99.8671875,
          "velocity": 0.7007874015748031,
          "duration": 0.0390625
        },
        {
          "name": "F#3",
          "midi": 54,
          "time": 99.9296875,
          "velocity": 0.6141732283464567,
          "duration": 0.1640625
        },
        {
          "name": "D#4",
          "midi": 63,
          "time": 99.9296875,
          "velocity": 0.5118110236220472,
          "duration": 0.140625
        },
        {
          "name": "F#4",
          "midi": 66,
          "time": 100.2734375,
          "velocity": 0.6850393700787402,
          "duration": 0.0390625
        },
        {
          "name": "D#4",
          "midi": 63,
          "time": 100.3515625,
          "velocity": 0.6929133858267716,
          "duration": 0.0546875
        },
        {
          "name": "F#4",
          "midi": 66,
          "time": 100.359375,
          "velocity": 0.5669291338582677,
          "duration": 0.109375
        },
        {
          "name": "D#4",
          "midi": 63,
          "time": 100.421875,
          "velocity": 0.6062992125984252,
          "duration": 0.21875
        },
        {
          "name": "B3",
          "midi": 59,
          "time": 100.4296875,
          "velocity": 0.6929133858267716,
          "duration": 0.046875
        },
        {
          "name": "B3",
          "midi": 59,
          "time": 100.4921875,
          "velocity": 0.4881889763779528,
          "duration": 0.15625
        },
        {
          "name": "F#3",
          "midi": 54,
          "time": 100.5,
          "velocity": 0.6377952755905512,
          "duration": 0.1484375
        },
        {
          "name": "F#4",
          "midi": 66,
          "time": 100.7578125,
          "velocity": 0.6850393700787402,
          "duration": 0.0390625
        },
        {
          "name": "D#4",
          "midi": 63,
          "time": 100.8359375,
          "velocity": 0.6929133858267716,
          "duration": 0.0625
        },
        {
          "name": "F#4",
          "midi": 66,
          "time": 100.9140625,
          "velocity": 0.5984251968503937,
          "duration": 0.0390625
        },
        {
          "name": "B3",
          "midi": 59,
          "time": 100.921875,
          "velocity": 0.7007874015748031,
          "duration": 0.0390625
        },
        {
          "name": "D#4",
          "midi": 63,
          "time": 100.984375,
          "velocity": 0.5826771653543307,
          "duration": 0.0390625
        },
        {
          "name": "F#3",
          "midi": 54,
          "time": 100.9921875,
          "velocity": 0.7086614173228346,
          "duration": 0.0546875
        },
        {
          "name": "D#3",
          "midi": 51,
          "time": 101.0546875,
          "velocity": 0.6141732283464567,
          "duration": 0.140625
        },
        {
          "name": "B3",
          "midi": 59,
          "time": 101.0625,
          "velocity": 0.5275590551181102,
          "duration": 0.140625
        },
        {
          "name": "F#4",
          "midi": 66,
          "time": 101.0625,
          "velocity": 0.5196850393700787,
          "duration": 0.1484375
        },
        {
          "name": "F#4",
          "midi": 66,
          "time": 101.40625,
          "velocity": 0.6850393700787402,
          "duration": 0.0625
        },
        {
          "name": "D#4",
          "midi": 63,
          "time": 101.484375,
          "velocity": 0.6929133858267716,
          "duration": 0.0390625
        },
        {
          "name": "F#4",
          "midi": 66,
          "time": 101.546875,
          "velocity": 0.5748031496062992,
          "duration": 0.046875
        },
        {
          "name": "B3",
          "midi": 59,
          "time": 101.5546875,
          "velocity": 0.7165354330708661,
          "duration": 0.046875
        },
        {
          "name": "F#3",
          "midi": 54,
          "time": 101.6171875,
          "velocity": 0.6299212598425197,
          "duration": 0.1328125
        },
        {
          "name": "D#4",
          "midi": 63,
          "time": 101.625,
          "velocity": 0.5275590551181102,
          "duration": 0.140625
        },
        {
          "name": "F#4",
          "midi": 66,
          "time": 101.8828125,
          "velocity": 0.7244094488188977,
          "duration": 0.0390625
        },
        {
          "name": "D#4",
          "midi": 63,
          "time": 101.96875,
          "velocity": 0.7007874015748031,
          "duration": 0.0703125
        },
        {
          "name": "F#4",
          "midi": 66,
          "time": 102.0390625,
          "velocity": 0.5905511811023622,
          "duration": 0.0390625
        },
        {
          "name": "B3",
          "midi": 59,
          "time": 102.046875,
          "velocity": 0.7244094488188977,
          "duration": 0.03125
        },
        {
          "name": "D#4",
          "midi": 63,
          "time": 102.1015625,
          "velocity": 0.5748031496062992,
          "duration": 0.0546875
        },
        {
          "name": "F#3",
          "midi": 54,
          "time": 102.109375,
          "velocity": 0.7007874015748031,
          "duration": 0.0546875
        },
        {
          "name": "D#3",
          "midi": 51,
          "time": 102.1796875,
          "velocity": 0.6456692913385826,
          "duration": 0.1484375
        },
        {
          "name": "B3",
          "midi": 59,
          "time": 102.1796875,
          "velocity": 0.4881889763779528,
          "duration": 0.1328125
        },
        {
          "name": "F#4",
          "midi": 66,
          "time": 102.1796875,
          "velocity": 0.5118110236220472,
          "duration": 0.15625
        },
        {
          "name": "F#4",
          "midi": 66,
          "time": 102.5234375,
          "velocity": 0.7165354330708661,
          "duration": 0.0390625
        },
        {
          "name": "D#4",
          "midi": 63,
          "time": 102.6015625,
          "velocity": 0.7007874015748031,
          "duration": 0.0390625
        },
        {
          "name": "B3",
          "midi": 59,
          "time": 102.6796875,
          "velocity": 0.6929133858267716,
          "duration": 0.03125
        },
        {
          "name": "F#4",
          "midi": 66,
          "time": 102.6796875,
          "velocity": 0.5669291338582677,
          "duration": 0.046875
        },
        {
          "name": "D#4",
          "midi": 63,
          "time": 102.7421875,
          "velocity": 0.5196850393700787,
          "duration": 0.140625
        },
        {
          "name": "F#3",
          "midi": 54,
          "time": 102.75,
          "velocity": 0.6141732283464567,
          "duration": 0.1328125
        },
        {
          "name": "A#4",
          "midi": 70,
          "time": 103.0859375,
          "velocity": 0.7244094488188977,
          "duration": 0.0546875
        },
        {
          "name": "F#4",
          "midi": 66,
          "time": 103.1640625,
          "velocity": 0.7244094488188977,
          "duration": 0.046875
        },
        {
          "name": "A#4",
          "midi": 70,
          "time": 103.234375,
          "velocity": 0.5669291338582677,
          "duration": 0.0546875
        },
        {
          "name": "D#4",
          "midi": 63,
          "time": 103.2421875,
          "velocity": 0.7086614173228346,
          "duration": 0.0625
        },
        {
          "name": "F#4",
          "midi": 66,
          "time": 103.3125,
          "velocity": 0.49606299212598426,
          "duration": 0.140625
        },
        {
          "name": "A#3",
          "midi": 58,
          "time": 103.3125,
          "velocity": 0.6220472440944882,
          "duration": 0.15625
        },
        {
          "name": "A#4",
          "midi": 70,
          "time": 103.65625,
          "velocity": 0.7165354330708661,
          "duration": 0.03125
        },
        {
          "name": "A#4",
          "midi": 70,
          "time": 103.734375,
          "velocity": 0.5748031496062992,
          "duration": 0.1015625
        },
        {
          "name": "F#4",
          "midi": 66,
          "time": 103.734375,
          "velocity": 0.7086614173228346,
          "duration": 0.0390625
        },
        {
          "name": "D#4",
          "midi": 63,
          "time": 103.8046875,
          "velocity": 0.7007874015748031,
          "duration": 0.046875
        },
        {
          "name": "F#4",
          "midi": 66,
          "time": 103.8046875,
          "velocity": 0.5905511811023622,
          "duration": 0.2265625
        },
        {
          "name": "A#3",
          "midi": 58,
          "time": 103.875,
          "velocity": 0.6456692913385826,
          "duration": 0.15625
        },
        {
          "name": "D#4",
          "midi": 63,
          "time": 103.875,
          "velocity": 0.4881889763779528,
          "duration": 0.1484375
        },
        {
          "name": "A#3",
          "midi": 58,
          "time": 104.15625,
          "velocity": 0.7086614173228346,
          "duration": 0.0703125
        },
        {
          "name": "A#4",
          "midi": 70,
          "time": 104.2109375,
          "velocity": 0.6062992125984252,
          "duration": 0.109375
        },
        {
          "name": "F4",
          "midi": 65,
          "time": 104.2421875,
          "velocity": 0.7086614173228346,
          "duration": 0.015625
        },
        {
          "name": "F4",
          "midi": 65,
          "time": 104.296875,
          "velocity": 0.5905511811023622,
          "duration": 0.1015625
        },
        {
          "name": "C#4",
          "midi": 61,
          "time": 104.3671875,
          "velocity": 0.5905511811023622,
          "duration": 0.2265625
        },
        {
          "name": "A#3",
          "midi": 58,
          "time": 104.4296875,
          "velocity": 0.5118110236220472,
          "duration": 0.1484375
        },
        {
          "name": "A#4",
          "midi": 70,
          "time": 104.78125,
          "velocity": 0.7007874015748031,
          "duration": 0.0546875
        },
        {
          "name": "F#4",
          "midi": 66,
          "time": 104.859375,
          "velocity": 0.6929133858267716,
          "duration": 0.0390625
        },
        {
          "name": "D#4",
          "midi": 63,
          "time": 104.921875,
          "velocity": 0.7086614173228346,
          "duration": 0.0546875
        },
        {
          "name": "A#4",
          "midi": 70,
          "time": 104.9296875,
          "velocity": 0.5748031496062992,
          "duration": 0.046875
        },
        {
          "name": "F#4",
          "midi": 66,
          "time": 104.9921875,
          "velocity": 0.5039370078740157,
          "duration": 0.1640625
        },
        {
          "name": "A#3",
          "midi": 58,
          "time": 105,
          "velocity": 0.6456692913385826,
          "duration": 0.15625
        },
        {
          "name": "A#4",
          "midi": 70,
          "time": 105.34375,
          "velocity": 0.6929133858267716,
          "duration": 0.0546875
        },
        {
          "name": "A#4",
          "midi": 70,
          "time": 105.421875,
          "velocity": 0.5984251968503937,
          "duration": 0.1171875
        },
        {
          "name": "F#4",
          "midi": 66,
          "time": 105.421875,
          "velocity": 0.6929133858267716,
          "duration": 0.0546875
        },
        {
          "name": "D#4",
          "midi": 63,
          "time": 105.484375,
          "velocity": 0.6929133858267716,
          "duration": 0.046875
        },
        {
          "name": "F#4",
          "midi": 66,
          "time": 105.4921875,
          "velocity": 0.5748031496062992,
          "duration": 0.21875
        },
        {
          "name": "A#3",
          "midi": 58,
          "time": 105.5546875,
          "velocity": 0.6141732283464567,
          "duration": 0.1484375
        },
        {
          "name": "D#4",
          "midi": 63,
          "time": 105.5625,
          "velocity": 0.5118110236220472,
          "duration": 0.140625
        },
        {
          "name": "A#4",
          "midi": 70,
          "time": 105.8203125,
          "velocity": 0.6850393700787402,
          "duration": 0.0390625
        },
        {
          "name": "F#4",
          "midi": 66,
          "time": 105.8984375,
          "velocity": 0.7086614173228346,
          "duration": 0.046875
        },
        {
          "name": "A#4",
          "midi": 70,
          "time": 105.9765625,
          "velocity": 0.5826771653543307,
          "duration": 0.03125
        },
        {
          "name": "D#4",
          "midi": 63,
          "time": 105.984375,
          "velocity": 0.7007874015748031,
          "duration": 0.046875
        },
        {
          "name": "A#3",
          "midi": 58,
          "time": 106.046875,
          "velocity": 0.6850393700787402,
          "duration": 0.0546875
        },
        {
          "name": "F#4",
          "midi": 66,
          "time": 106.0546875,
          "velocity": 0.5826771653543307,
          "duration": 0.046875
        },
        {
          "name": "F#3",
          "midi": 54,
          "time": 106.1171875,
          "velocity": 0.6299212598425197,
          "duration": 0.1328125
        },
        {
          "name": "A#4",
          "midi": 70,
          "time": 106.1171875,
          "velocity": 0.5039370078740157,
          "duration": 0.140625
        },
        {
          "name": "D#4",
          "midi": 63,
          "time": 106.125,
          "velocity": 0.5039370078740157,
          "duration": 0.1484375
        },
        {
          "name": "A#4",
          "midi": 70,
          "time": 106.4609375,
          "velocity": 0.7244094488188977,
          "duration": 0.046875
        },
        {
          "name": "F#4",
          "midi": 66,
          "time": 106.546875,
          "velocity": 0.6929133858267716,
          "duration": 0.0625
        },
        {
          "name": "A#4",
          "midi": 70,
          "time": 106.609375,
          "velocity": 0.6062992125984252,
          "duration": 0.0390625
        },
        {
          "name": "D#4",
          "midi": 63,
          "time": 106.6171875,
          "velocity": 0.7086614173228346,
          "duration": 0.0390625
        },
        {
          "name": "A#3",
          "midi": 58,
          "time": 106.6796875,
          "velocity": 0.6377952755905512,
          "duration": 0.140625
        },
        {
          "name": "F#4",
          "midi": 66,
          "time": 106.6875,
          "velocity": 0.4881889763779528,
          "duration": 0.1484375
        },
        {
          "name": "A#4",
          "midi": 70,
          "time": 107.0234375,
          "velocity": 0.7244094488188977,
          "duration": 0.0625
        },
        {
          "name": "A#4",
          "midi": 70,
          "time": 107.1015625,
          "velocity": 0.5984251968503937,
          "duration": 0.125
        },
        {
          "name": "F#4",
          "midi": 66,
          "time": 107.109375,
          "velocity": 0.7165354330708661,
          "duration": 0.0390625
        },
        {
          "name": "F#4",
          "midi": 66,
          "time": 107.1796875,
          "velocity": 0.5669291338582677,
          "duration": 0.203125
        },
        {
          "name": "D#4",
          "midi": 63,
          "time": 107.1796875,
          "velocity": 0.7165354330708661,
          "duration": 0.046875
        },
        {
          "name": "A#3",
          "midi": 58,
          "time": 107.2421875,
          "velocity": 0.6141732283464567,
          "duration": 0.1484375
        },
        {
          "name": "D#4",
          "midi": 63,
          "time": 107.25,
          "velocity": 0.49606299212598426,
          "duration": 0.140625
        },
        {
          "name": "A#4",
          "midi": 70,
          "time": 107.5078125,
          "velocity": 0.6850393700787402,
          "duration": 0.0546875
        },
        {
          "name": "F#4",
          "midi": 66,
          "time": 107.5859375,
          "velocity": 0.7244094488188977,
          "duration": 0.0546875
        },
        {
          "name": "A#4",
          "midi": 70,
          "time": 107.6640625,
          "velocity": 0.5748031496062992,
          "duration": 0.0546875
        },
        {
          "name": "D#4",
          "midi": 63,
          "time": 107.6640625,
          "velocity": 0.7244094488188977,
          "duration": 0.046875
        },
        {
          "name": "A#3",
          "midi": 58,
          "time": 107.7421875,
          "velocity": 0.6850393700787402,
          "duration": 0.0546875
        },
        {
          "name": "F#4",
          "midi": 66,
          "time": 107.7421875,
          "velocity": 0.5984251968503937,
          "duration": 0.0546875
        },
        {
          "name": "F#3",
          "midi": 54,
          "time": 107.8046875,
          "velocity": 0.6377952755905512,
          "duration": 0.140625
        },
        {
          "name": "A#4",
          "midi": 70,
          "time": 107.8125,
          "velocity": 0.5275590551181102,
          "duration": 0.1328125
        },
        {
          "name": "D#4",
          "midi": 63,
          "time": 107.8125,
          "velocity": 0.4881889763779528,
          "duration": 0.140625
        },
        {
          "name": "A#4",
          "midi": 70,
          "time": 108.15625,
          "velocity": 0.6850393700787402,
          "duration": 0.0546875
        },
        {
          "name": "F#4",
          "midi": 66,
          "time": 108.234375,
          "velocity": 0.6929133858267716,
          "duration": 0.0390625
        },
        {
          "name": "A#4",
          "midi": 70,
          "time": 108.296875,
          "velocity": 0.5905511811023622,
          "duration": 0.046875
        },
        {
          "name": "D#4",
          "midi": 63,
          "time": 108.3046875,
          "velocity": 0.7086614173228346,
          "duration": 0.0390625
        },
        {
          "name": "A#3",
          "midi": 58,
          "time": 108.3671875,
          "velocity": 0.6456692913385826,
          "duration": 0.1484375
        },
        {
          "name": "F#4",
          "midi": 66,
          "time": 108.375,
          "velocity": 0.49606299212598426,
          "duration": 0.140625
        },
        {
          "name": "A#4",
          "midi": 70,
          "time": 108.71875,
          "velocity": 0.7007874015748031,
          "duration": 0.0390625
        },
        {
          "name": "A#4",
          "midi": 70,
          "time": 108.796875,
          "velocity": 0.5826771653543307,
          "duration": 0.046875
        },
        {
          "name": "F#4",
          "midi": 66,
          "time": 108.796875,
          "velocity": 0.7007874015748031,
          "duration": 0.0546875
        },
        {
          "name": "D#4",
          "midi": 63,
          "time": 108.859375,
          "velocity": 0.7165354330708661,
          "duration": 0.0390625
        },
        {
          "name": "F#4",
          "midi": 66,
          "time": 108.8671875,
          "velocity": 0.5826771653543307,
          "duration": 0.046875
        },
        {
          "name": "A#3",
          "midi": 58,
          "time": 108.9296875,
          "velocity": 0.6377952755905512,
          "duration": 0.1484375
        },
        {
          "name": "D#4",
          "midi": 63,
          "time": 108.9296875,
          "velocity": 0.5118110236220472,
          "duration": 0.15625
        },
        {
          "name": "A#4",
          "midi": 70,
          "time": 108.9375,
          "velocity": 0.49606299212598426,
          "duration": 0.1328125
        },
        {
          "name": "A#4",
          "midi": 70,
          "time": 109.1953125,
          "velocity": 0.7086614173228346,
          "duration": 0.0546875
        },
        {
          "name": "A#4",
          "midi": 70,
          "time": 109.2734375,
          "velocity": 0.5905511811023622,
          "duration": 0.109375
        },
        {
          "name": "F#4",
          "midi": 66,
          "time": 109.28125,
          "velocity": 0.6850393700787402,
          "duration": 0.0390625
        },
        {
          "name": "D#4",
          "midi": 63,
          "time": 109.3515625,
          "velocity": 0.7086614173228346,
          "duration": 0.0390625
        },
        {
          "name": "F#4",
          "midi": 66,
          "time": 109.359375,
          "velocity": 0.5905511811023622,
          "duration": 0.1015625
        },
        {
          "name": "A#3",
          "midi": 58,
          "time": 109.421875,
          "velocity": 0.7007874015748031,
          "duration": 0.03125
        },
        {
          "name": "D#4",
          "midi": 63,
          "time": 109.4296875,
          "velocity": 0.5984251968503937,
          "duration": 0.203125
        },
        {
          "name": "A#3",
          "midi": 58,
          "time": 109.5,
          "velocity": 0.5275590551181102,
          "duration": 0.15625
        },
        {
          "name": "F#3",
          "midi": 54,
          "time": 109.5,
          "velocity": 0.6062992125984252,
          "duration": 0.15625
        },
        {
          "name": "F#4",
          "midi": 66,
          "time": 109.84375,
          "velocity": 0.6929133858267716,
          "duration": 0.0546875
        },
        {
          "name": "C#4",
          "midi": 61,
          "time": 109.921875,
          "velocity": 0.7165354330708661,
          "duration": 0.0390625
        },
        {
          "name": "A#3",
          "midi": 58,
          "time": 109.984375,
          "velocity": 0.6850393700787402,
          "duration": 0.0546875
        },
        {
          "name": "F#4",
          "midi": 66,
          "time": 109.984375,
          "velocity": 0.5905511811023622,
          "duration": 0.0546875
        },
        {
          "name": "C#4",
          "midi": 61,
          "time": 110.0546875,
          "velocity": 0.5196850393700787,
          "duration": 0.15625
        },
        {
          "name": "F#3",
          "midi": 54,
          "time": 110.0546875,
          "velocity": 0.6141732283464567,
          "duration": 0.1484375
        },
        {
          "name": "F#4",
          "midi": 66,
          "time": 110.4765625,
          "velocity": 0.6929133858267716,
          "duration": 0.0546875
        },
        {
          "name": "F#4",
          "midi": 66,
          "time": 110.5546875,
          "velocity": 0.5669291338582677,
          "duration": 0.2265625
        },
        {
          "name": "C#4",
          "midi": 61,
          "time": 110.5546875,
          "velocity": 0.7007874015748031,
          "duration": 0.0390625
        },
        {
          "name": "A#3",
          "midi": 58,
          "time": 110.6171875,
          "velocity": 0.6141732283464567,
          "duration": 0.1328125
        },
        {
          "name": "C#4",
          "midi": 61,
          "time": 110.6171875,
          "velocity": 0.5039370078740157,
          "duration": 0.1484375
        },
        {
          "name": "F4",
          "midi": 65,
          "time": 111.046875,
          "velocity": 0.7244094488188977,
          "duration": 0.0390625
        },
        {
          "name": "G#4",
          "midi": 68,
          "time": 111.046875,
          "velocity": 0.5984251968503937,
          "duration": 0.109375
        },
        {
          "name": "F4",
          "midi": 65,
          "time": 111.1171875,
          "velocity": 0.5748031496062992,
          "duration": 0.2265625
        },
        {
          "name": "C#4",
          "midi": 61,
          "time": 111.1171875,
          "velocity": 0.7007874015748031,
          "duration": 0.03125
        },
        {
          "name": "G#4",
          "midi": 68,
          "time": 111.1796875,
          "velocity": 0.6062992125984252,
          "duration": 0.1484375
        },
        {
          "name": "C#4",
          "midi": 61,
          "time": 111.1796875,
          "velocity": 0.4881889763779528,
          "duration": 0.15625
        },
        {
          "name": "F#4",
          "midi": 66,
          "time": 111.5234375,
          "velocity": 0.7086614173228346,
          "duration": 0.0625
        },
        {
          "name": "C#4",
          "midi": 61,
          "time": 111.609375,
          "velocity": 0.7244094488188977,
          "duration": 0.03125
        },
        {
          "name": "F#4",
          "midi": 66,
          "time": 111.671875,
          "velocity": 0.5826771653543307,
          "duration": 0.0546875
        },
        {
          "name": "A#3",
          "midi": 58,
          "time": 111.6796875,
          "velocity": 0.7086614173228346,
          "duration": 0.0546875
        },
        {
          "name": "C#4",
          "midi": 61,
          "time": 111.7421875,
          "velocity": 0.5275590551181102,
          "duration": 0.15625
        },
        {
          "name": "F#3",
          "midi": 54,
          "time": 111.75,
          "velocity": 0.6299212598425197,
          "duration": 0.140625
        },
        {
          "name": "F#4",
          "midi": 66,
          "time": 112.1640625,
          "velocity": 0.7244094488188977,
          "duration": 0.03125
        },
        {
          "name": "F#4",
          "midi": 66,
          "time": 112.2421875,
          "velocity": 0.5826771653543307,
          "duration": 0.203125
        },
        {
          "name": "C#4",
          "midi": 61,
          "time": 112.2421875,
          "velocity": 0.7007874015748031,
          "duration": 0.03125
        },
        {
          "name": "A#3",
          "midi": 58,
          "time": 112.3046875,
          "velocity": 0.6299212598425197,
          "duration": 0.1484375
        },
        {
          "name": "C#4",
          "midi": 61,
          "time": 112.3125,
          "velocity": 0.5196850393700787,
          "duration": 0.1484375
        },
        {
          "name": "F#4",
          "midi": 66,
          "time": 112.65625,
          "velocity": 0.7244094488188977,
          "duration": 0.0390625
        },
        {
          "name": "C#4",
          "midi": 61,
          "time": 112.734375,
          "velocity": 0.7086614173228346,
          "duration": 0.0546875
        },
        {
          "name": "A#3",
          "midi": 58,
          "time": 112.8046875,
          "velocity": 0.6850393700787402,
          "duration": 0.0390625
        },
        {
          "name": "F#4",
          "midi": 66,
          "time": 112.8046875,
          "velocity": 0.5826771653543307,
          "duration": 0.0390625
        },
        {
          "name": "F#3",
          "midi": 54,
          "time": 112.8671875,
          "velocity": 0.6062992125984252,
          "duration": 0.1640625
        },
        {
          "name": "C#4",
          "midi": 61,
          "time": 112.875,
          "velocity": 0.5196850393700787,
          "duration": 0.1484375
        },
        {
          "name": "G#4",
          "midi": 68,
          "time": 113.2421875,
          "velocity": 0.7007874015748031,
          "duration": 0.078125
        },
        {
          "name": "E4",
          "midi": 64,
          "time": 113.34375,
          "velocity": 0.7244094488188977,
          "duration": 0.0703125
        },
        {
          "name": "G#4",
          "midi": 68,
          "time": 113.3671875,
          "velocity": 0.5905511811023622,
          "duration": 0.2109375
        },
        {
          "name": "B3",
          "midi": 59,
          "time": 113.4296875,
          "velocity": 0.6220472440944882,
          "duration": 0.15625
        },
        {
          "name": "E4",
          "midi": 64,
          "time": 113.4375,
          "velocity": 0.49606299212598426,
          "duration": 0.140625
        },
        {
          "name": "F#4",
          "midi": 66,
          "time": 113.7734375,
          "velocity": 0.6850393700787402,
          "duration": 0.0390625
        },
        {
          "name": "D#4",
          "midi": 63,
          "time": 113.8515625,
          "velocity": 0.7165354330708661,
          "duration": 0.0546875
        },
        {
          "name": "F#4",
          "midi": 66,
          "time": 113.859375,
          "velocity": 0.5905511811023622,
          "duration": 0.125
        },
        {
          "name": "B3",
          "midi": 59,
          "time": 113.921875,
          "velocity": 0.7007874015748031,
          "duration": 0.0546875
        },
        {
          "name": "D#4",
          "midi": 63,
          "time": 113.921875,
          "velocity": 0.5669291338582677,
          "duration": 0.2109375
        },
        {
          "name": "B3",
          "midi": 59,
          "time": 113.9921875,
          "velocity": 0.5118110236220472,
          "duration": 0.15625
        },
        {
          "name": "F#4",
          "midi": 66,
          "time": 114,
          "velocity": 0.6220472440944882,
          "duration": 0.140625
        },
        {
          "name": "F#4",
          "midi": 66,
          "time": 114.3359375,
          "velocity": 0.6850393700787402,
          "duration": 0.0390625
        },
        {
          "name": "D#4",
          "midi": 63,
          "time": 114.421875,
          "velocity": 0.7244094488188977,
          "duration": 0.0546875
        },
        {
          "name": "F#4",
          "midi": 66,
          "time": 114.484375,
          "velocity": 0.5984251968503937,
          "duration": 0.0390625
        },
        {
          "name": "B3",
          "midi": 59,
          "time": 114.4921875,
          "velocity": 0.6929133858267716,
          "duration": 0.046875
        },
        {
          "name": "D#4",
          "midi": 63,
          "time": 114.5546875,
          "velocity": 0.4881889763779528,
          "duration": 0.15625
        },
        {
          "name": "F#4",
          "midi": 66,
          "time": 114.5625,
          "velocity": 0.6377952755905512,
          "duration": 0.1328125
        },
        {
          "name": "G#4",
          "midi": 68,
          "time": 114.9375,
          "velocity": 0.7165354330708661,
          "duration": 0.078125
        },
        {
          "name": "E4",
          "midi": 64,
          "time": 115.0234375,
          "velocity": 0.7244094488188977,
          "duration": 0.0625
        },
        {
          "name": "G#4",
          "midi": 68,
          "time": 115.0390625,
          "velocity": 0.5669291338582677,
          "duration": 0.2421875
        },
        {
          "name": "E4",
          "midi": 64,
          "time": 115.1171875,
          "velocity": 0.5039370078740157,
          "duration": 0.1640625
        },
        {
          "name": "B3",
          "midi": 59,
          "time": 115.125,
          "velocity": 0.6220472440944882,
          "duration": 0.1484375
        },
        {
          "name": "F#4",
          "midi": 66,
          "time": 115.46875,
          "velocity": 0.7244094488188977,
          "duration": 0.046875
        },
        {
          "name": "F#4",
          "midi": 66,
          "time": 115.5390625,
          "velocity": 0.5984251968503937,
          "duration": 0.125
        },
        {
          "name": "D#4",
          "midi": 63,
          "time": 115.546875,
          "velocity": 0.6929133858267716,
          "duration": 0.03125
        },
        {
          "name": "D#4",
          "midi": 63,
          "time": 115.609375,
          "velocity": 0.5905511811023622,
          "duration": 0.2265625
        },
        {
          "name": "B3",
          "midi": 59,
          "time": 115.609375,
          "velocity": 0.6850393700787402,
          "duration": 0.0390625
        },
        {
          "name": "F#4",
          "midi": 66,
          "time": 115.6875,
          "velocity": 0.6220472440944882,
          "duration": 0.1484375
        },
        {
          "name": "B3",
          "midi": 59,
          "time": 115.6875,
          "velocity": 0.5275590551181102,
          "duration": 0.1328125
        },
        {
          "name": "F#4",
          "midi": 66,
          "time": 116.03125,
          "velocity": 0.6929133858267716,
          "duration": 0.0546875
        },
        {
          "name": "D#4",
          "midi": 63,
          "time": 116.109375,
          "velocity": 0.7165354330708661,
          "duration": 0.046875
        },
        {
          "name": "B3",
          "midi": 59,
          "time": 116.171875,
          "velocity": 0.7165354330708661,
          "duration": 0.0390625
        },
        {
          "name": "F#4",
          "midi": 66,
          "time": 116.1796875,
          "velocity": 0.6062992125984252,
          "duration": 0.046875
        },
        {
          "name": "D#4",
          "midi": 63,
          "time": 116.2421875,
          "velocity": 0.5118110236220472,
          "duration": 0.140625
        },
        {
          "name": "F#4",
          "midi": 66,
          "time": 116.25,
          "velocity": 0.6456692913385826,
          "duration": 0.1640625
        },
        {
          "name": "G#4",
          "midi": 68,
          "time": 116.625,
          "velocity": 0.7165354330708661,
          "duration": 0.0703125
        },
        {
          "name": "E4",
          "midi": 64,
          "time": 116.71875,
          "velocity": 0.7244094488188977,
          "duration": 0.046875
        },
        {
          "name": "G#4",
          "midi": 68,
          "time": 116.734375,
          "velocity": 0.5748031496062992,
          "duration": 0.21875
        },
        {
          "name": "B3",
          "midi": 59,
          "time": 116.8125,
          "velocity": 0.6299212598425197,
          "duration": 0.1328125
        },
        {
          "name": "E4",
          "midi": 64,
          "time": 116.8125,
          "velocity": 0.49606299212598426,
          "duration": 0.1640625
        },
        {
          "name": "G#4",
          "midi": 68,
          "time": 117.1484375,
          "velocity": 0.7165354330708661,
          "duration": 0.0390625
        },
        {
          "name": "G#4",
          "midi": 68,
          "time": 117.2265625,
          "velocity": 0.5905511811023622,
          "duration": 0.125
        },
        {
          "name": "E4",
          "midi": 64,
          "time": 117.2265625,
          "velocity": 0.6929133858267716,
          "duration": 0.0390625
        },
        {
          "name": "E4",
          "midi": 64,
          "time": 117.296875,
          "velocity": 0.6062992125984252,
          "duration": 0.21875
        },
        {
          "name": "C#4",
          "midi": 61,
          "time": 117.296875,
          "velocity": 0.6850393700787402,
          "duration": 0.0546875
        },
        {
          "name": "G#3",
          "midi": 56,
          "time": 117.375,
          "velocity": 0.6220472440944882,
          "duration": 0.1328125
        },
        {
          "name": "C#4",
          "midi": 61,
          "time": 117.375,
          "velocity": 0.49606299212598426,
          "duration": 0.140625
        },
        {
          "name": "A#4",
          "midi": 70,
          "time": 117.640625,
          "velocity": 0.7086614173228346,
          "duration": 0.0390625
        },
        {
          "name": "F#4",
          "midi": 66,
          "time": 117.7109375,
          "velocity": 0.6850393700787402,
          "duration": 0.0390625
        },
        {
          "name": "A#4",
          "midi": 70,
          "time": 117.7890625,
          "velocity": 0.5905511811023622,
          "duration": 0.046875
        },
        {
          "name": "C#4",
          "midi": 61,
          "time": 117.796875,
          "velocity": 0.6929133858267716,
          "duration": 0.0625
        },
        {
          "name": "F#4",
          "midi": 66,
          "time": 117.859375,
          "velocity": 0.5826771653543307,
          "duration": 0.03125
        },
        {
          "name": "A#3",
          "midi": 58,
          "time": 117.8671875,
          "velocity": 0.7165354330708661,
          "duration": 0.046875
        },
        {
          "name": "C#4",
          "midi": 61,
          "time": 117.9296875,
          "velocity": 0.5275590551181102,
          "duration": 0.1328125
        },
        {
          "name": "F#3",
          "midi": 54,
          "time": 117.9375,
          "velocity": 0.6062992125984252,
          "duration": 0.140625
        },
        {
          "name": "A#4",
          "midi": 70,
          "time": 117.9375,
          "velocity": 0.5039370078740157,
          "duration": 0.15625
        },
        {
          "name": "F#4",
          "midi": 66,
          "time": 118.28125,
          "velocity": 0.7244094488188977,
          "duration": 0.0625
        },
        {
          "name": "D#4",
          "midi": 63,
          "time": 118.3515625,
          "velocity": 0.7086614173228346,
          "duration": 0.046875
        },
        {
          "name": "B3",
          "midi": 59,
          "time": 118.421875,
          "velocity": 0.6062992125984252,
          "duration": 0.0390625
        },
        {
          "name": "F#4",
          "midi": 66,
          "time": 118.4296875,
          "velocity": 0.5984251968503937,
          "duration": 0.0546875
        },
        {
          "name": "D#4",
          "midi": 63,
          "time": 118.5,
          "velocity": 0.4881889763779528,
          "duration": 0.1484375
        },
        {
          "name": "F#3",
          "midi": 54,
          "time": 118.5,
          "velocity": 0.6850393700787402,
          "duration": 0.140625
        },
        {
          "name": "F#4",
          "midi": 66,
          "time": 118.84375,
          "velocity": 0.7165354330708661,
          "duration": 0.0546875
        },
        {
          "name": "F#4",
          "midi": 66,
          "time": 118.9140625,
          "velocity": 0.5748031496062992,
          "duration": 0.125
        },
        {
          "name": "D#4",
          "midi": 63,
          "time": 118.921875,
          "velocity": 0.7165354330708661,
          "duration": 0.03125
        },
        {
          "name": "D#4",
          "midi": 63,
          "time": 118.984375,
          "velocity": 0.6062992125984252,
          "duration": 0.21875
        },
        {
          "name": "B3",
          "midi": 59,
          "time": 118.9921875,
          "velocity": 0.6377952755905512,
          "duration": 0.046875
        },
        {
          "name": "F#3",
          "midi": 54,
          "time": 119.0546875,
          "velocity": 0.7007874015748031,
          "duration": 0.1484375
        },
        {
          "name": "B3",
          "midi": 59,
          "time": 119.0625,
          "velocity": 0.49606299212598426,
          "duration": 0.15625
        },
        {
          "name": "F#4",
          "midi": 66,
          "time": 119.3203125,
          "velocity": 0.6850393700787402,
          "duration": 0.0625
        },
        {
          "name": "D#4",
          "midi": 63,
          "time": 119.40625,
          "velocity": 0.7086614173228346,
          "duration": 0.0625
        },
        {
          "name": "B3",
          "midi": 59,
          "time": 119.4765625,
          "velocity": 0.6929133858267716,
          "duration": 0.0390625
        },
        {
          "name": "F#4",
          "midi": 66,
          "time": 119.484375,
          "velocity": 0.5826771653543307,
          "duration": 0.046875
        },
        {
          "name": "D#4",
          "midi": 63,
          "time": 119.5546875,
          "velocity": 0.6062992125984252,
          "duration": 0.0625
        },
        {
          "name": "F#3",
          "midi": 54,
          "time": 119.5546875,
          "velocity": 0.6377952755905512,
          "duration": 0.0546875
        },
        {
          "name": "B3",
          "midi": 59,
          "time": 119.625,
          "velocity": 0.5196850393700787,
          "duration": 0.1484375
        },
        {
          "name": "F#4",
          "midi": 66,
          "time": 119.625,
          "velocity": 0.5118110236220472,
          "duration": 0.140625
        },
        {
          "name": "E3",
          "midi": 52,
          "time": 119.625,
          "velocity": 0.7007874015748031,
          "duration": 0.15625
        },
        {
          "name": "G#4",
          "midi": 68,
          "time": 120,
          "velocity": 0.6850393700787402,
          "duration": 0.0625
        },
        {
          "name": "E4",
          "midi": 64,
          "time": 120.09375,
          "velocity": 0.6929133858267716,
          "duration": 0.0625
        },
        {
          "name": "G#4",
          "midi": 68,
          "time": 120.109375,
          "velocity": 0.5669291338582677,
          "duration": 0.21875
        },
        {
          "name": "E4",
          "midi": 64,
          "time": 120.1875,
          "velocity": 0.49606299212598426,
          "duration": 0.15625
        },
        {
          "name": "B3",
          "midi": 59,
          "time": 120.1875,
          "velocity": 0.6062992125984252,
          "duration": 0.140625
        },
        {
          "name": "F#4",
          "midi": 66,
          "time": 120.53125,
          "velocity": 0.6850393700787402,
          "duration": 0.0546875
        },
        {
          "name": "F#4",
          "midi": 66,
          "time": 120.609375,
          "velocity": 0.5826771653543307,
          "duration": 0.109375
        },
        {
          "name": "D#4",
          "midi": 63,
          "time": 120.609375,
          "velocity": 0.7086614173228346,
          "duration": 0.015625
        },
        {
          "name": "D#4",
          "midi": 63,
          "time": 120.6640625,
          "velocity": 0.5748031496062992,
          "duration": 0.21875
        },
        {
          "name": "B3",
          "midi": 59,
          "time": 120.671875,
          "velocity": 0.6299212598425197,
          "duration": 0.046875
        },
        {
          "name": "B3",
          "midi": 59,
          "time": 120.75,
          "velocity": 0.5039370078740157,
          "duration": 0.1328125
        },
        {
          "name": "F#3",
          "midi": 54,
          "time": 120.75,
          "velocity": 0.7244094488188977,
          "duration": 0.1484375
        },
        {
          "name": "F#4",
          "midi": 66,
          "time": 121.0859375,
          "velocity": 0.7007874015748031,
          "duration": 0.046875
        },
        {
          "name": "D#4",
          "midi": 63,
          "time": 121.171875,
          "velocity": 0.7007874015748031,
          "duration": 0.046875
        },
        {
          "name": "B3",
          "midi": 59,
          "time": 121.2421875,
          "velocity": 0.6377952755905512,
          "duration": 0.0390625
        },
        {
          "name": "F#4",
          "midi": 66,
          "time": 121.2421875,
          "velocity": 0.6062992125984252,
          "duration": 0.03125
        },
        {
          "name": "D#4",
          "midi": 63,
          "time": 121.3125,
          "velocity": 0.5118110236220472,
          "duration": 0.1640625
        },
        {
          "name": "F#3",
          "midi": 54,
          "time": 121.3125,
          "velocity": 0.7007874015748031,
          "duration": 0.140625
        },
        {
          "name": "G#4",
          "midi": 68,
          "time": 121.6875,
          "velocity": 0.7086614173228346,
          "duration": 0.078125
        },
        {
          "name": "E4",
          "midi": 64,
          "time": 121.7734375,
          "velocity": 0.6850393700787402,
          "duration": 0.0546875
        },
        {
          "name": "G#4",
          "midi": 68,
          "time": 121.8046875,
          "velocity": 0.5826771653543307,
          "duration": 0.21875
        },
        {
          "name": "B3",
          "midi": 59,
          "time": 121.8671875,
          "velocity": 0.6377952755905512,
          "duration": 0.140625
        },
        {
          "name": "E4",
          "midi": 64,
          "time": 121.875,
          "velocity": 0.5118110236220472,
          "duration": 0.140625
        },
        {
          "name": "F#4",
          "midi": 66,
          "time": 122.2109375,
          "velocity": 0.7244094488188977,
          "duration": 0.046875
        },
        {
          "name": "D#4",
          "midi": 63,
          "time": 122.296875,
          "velocity": 0.7244094488188977,
          "duration": 0.0546875
        },
        {
          "name": "F#4",
          "midi": 66,
          "time": 122.296875,
          "velocity": 0.5669291338582677,
          "duration": 0.1015625
        },
        {
          "name": "D#4",
          "midi": 63,
          "time": 122.359375,
          "velocity": 0.5826771653543307,
          "duration": 0.21875
        },
        {
          "name": "B3",
          "midi": 59,
          "time": 122.359375,
          "velocity": 0.6141732283464567,
          "duration": 0.046875
        },
        {
          "name": "F#3",
          "midi": 54,
          "time": 122.4296875,
          "velocity": 0.6929133858267716,
          "duration": 0.1484375
        },
        {
          "name": "B3",
          "midi": 59,
          "time": 122.4375,
          "velocity": 0.5118110236220472,
          "duration": 0.1328125
        },
        {
          "name": "F#4",
          "midi": 66,
          "time": 122.78125,
          "velocity": 0.7165354330708661,
          "duration": 0.0703125
        },
        {
          "name": "D#4",
          "midi": 63,
          "time": 122.859375,
          "velocity": 0.7165354330708661,
          "duration": 0.0625
        },
        {
          "name": "B3",
          "midi": 59,
          "time": 122.921875,
          "velocity": 0.6377952755905512,
          "duration": 0.03125
        },
        {
          "name": "F#4",
          "midi": 66,
          "time": 122.9296875,
          "velocity": 0.5826771653543307,
          "duration": 0.0390625
        },
        {
          "name": "D#4",
          "midi": 63,
          "time": 122.9921875,
          "velocity": 0.5118110236220472,
          "duration": 0.15625
        },
        {
          "name": "F#3",
          "midi": 54,
          "time": 123,
          "velocity": 0.7086614173228346,
          "duration": 0.140625
        },
        {
          "name": "G#4",
          "midi": 68,
          "time": 123.3671875,
          "velocity": 0.6929133858267716,
          "duration": 0.0546875
        },
        {
          "name": "E4",
          "midi": 64,
          "time": 123.46875,
          "velocity": 0.7086614173228346,
          "duration": 0.0703125
        },
        {
          "name": "G#4",
          "midi": 68,
          "time": 123.4921875,
          "velocity": 0.5905511811023622,
          "duration": 0.234375
        },
        {
          "name": "B3",
          "midi": 59,
          "time": 123.5546875,
          "velocity": 0.6220472440944882,
          "duration": 0.1640625
        },
        {
          "name": "E4",
          "midi": 64,
          "time": 123.5625,
          "velocity": 0.5275590551181102,
          "duration": 0.140625
        },
        {
          "name": "G#4",
          "midi": 68,
          "time": 123.8984375,
          "velocity": 0.7165354330708661,
          "duration": 0.0546875
        },
        {
          "name": "G#4",
          "midi": 68,
          "time": 123.9765625,
          "velocity": 0.5826771653543307,
          "duration": 0.109375
        },
        {
          "name": "E4",
          "midi": 64,
          "time": 123.984375,
          "velocity": 0.7244094488188977,
          "duration": 0.0390625
        },
        {
          "name": "C#4",
          "midi": 61,
          "time": 124.046875,
          "velocity": 0.6062992125984252,
          "duration": 0.046875
        },
        {
          "name": "E4",
          "midi": 64,
          "time": 124.046875,
          "velocity": 0.5984251968503937,
          "duration": 0.203125
        },
        {
          "name": "C#4",
          "midi": 61,
          "time": 124.1171875,
          "velocity": 0.5039370078740157,
          "duration": 0.1484375
        },
        {
          "name": "G#3",
          "midi": 56,
          "time": 124.1171875,
          "velocity": 0.6850393700787402,
          "duration": 0.1484375
        },
        {
          "name": "A#4",
          "midi": 70,
          "time": 124.390625,
          "velocity": 0.6850393700787402,
          "duration": 0.0625
        },
        {
          "name": "F#4",
          "midi": 66,
          "time": 124.46875,
          "velocity": 0.7244094488188977,
          "duration": 0.0625
        },
        {
          "name": "A#4",
          "midi": 70,
          "time": 124.5390625,
          "velocity": 0.5905511811023622,
          "duration": 0.0390625
        },
        {
          "name": "C#4",
          "midi": 61,
          "time": 124.5390625,
          "velocity": 0.7244094488188977,
          "duration": 0.0546875
        },
        {
          "name": "F#4",
          "midi": 66,
          "time": 124.609375,
          "velocity": 0.5905511811023622,
          "duration": 0.046875
        },
        {
          "name": "A#3",
          "midi": 58,
          "time": 124.6171875,
          "velocity": 0.6062992125984252,
          "duration": 0.0546875
        },
        {
          "name": "C#4",
          "midi": 61,
          "time": 124.6796875,
          "velocity": 0.5039370078740157,
          "duration": 0.1484375
        },
        {
          "name": "F#3",
          "midi": 54,
          "time": 124.6796875,
          "velocity": 0.7165354330708661,
          "duration": 0.1328125
        },
        {
          "name": "A#4",
          "midi": 70,
          "time": 124.6875,
          "velocity": 0.5118110236220472,
          "duration": 0.1484375
        },
        {
          "name": "F#4",
          "midi": 66,
          "time": 125.03125,
          "velocity": 0.6929133858267716,
          "duration": 0.0390625
        },
        {
          "name": "F#4",
          "midi": 66,
          "time": 125.1015625,
          "velocity": 0.5826771653543307,
          "duration": 0.125
        },
        {
          "name": "D#4",
          "midi": 63,
          "time": 125.109375,
          "velocity": 0.6850393700787402,
          "duration": 0.0390625
        },
        {
          "name": "B3",
          "midi": 59,
          "time": 125.171875,
          "velocity": 0.7007874015748031,
          "duration": 0.046875
        },
        {
          "name": "D#4",
          "midi": 63,
          "time": 125.1796875,
          "velocity": 0.5748031496062992,
          "duration": 0.234375
        },
        {
          "name": "B3",
          "midi": 59,
          "time": 125.25,
          "velocity": 0.4881889763779528,
          "duration": 0.140625
        },
        {
          "name": "F#3",
          "midi": 54,
          "time": 125.25,
          "velocity": 0.6220472440944882,
          "duration": 0.15625
        },
        {
          "name": "F#4",
          "midi": 66,
          "time": 125.6640625,
          "velocity": 0.7244094488188977,
          "duration": 0.046875
        },
        {
          "name": "F#4",
          "midi": 66,
          "time": 125.734375,
          "velocity": 0.5984251968503937,
          "duration": 0.234375
        },
        {
          "name": "D#4",
          "midi": 63,
          "time": 125.7421875,
          "velocity": 0.6377952755905512,
          "duration": 0.046875
        },
        {
          "name": "B3",
          "midi": 59,
          "time": 125.8125,
          "velocity": 0.7007874015748031,
          "duration": 0.140625
        },
        {
          "name": "D#4",
          "midi": 63,
          "time": 125.8125,
          "velocity": 0.5039370078740157,
          "duration": 0.1484375
        },
        {
          "name": "F#4",
          "midi": 66,
          "time": 126.15625,
          "velocity": 0.6850393700787402,
          "duration": 0.0703125
        },
        {
          "name": "D#4",
          "midi": 63,
          "time": 126.234375,
          "velocity": 0.6929133858267716,
          "duration": 0.0234375
        },
        {
          "name": "F#4",
          "midi": 66,
          "time": 126.2890625,
          "velocity": 0.5984251968503937,
          "duration": 0.046875
        },
        {
          "name": "B3",
          "midi": 59,
          "time": 126.296875,
          "velocity": 0.6141732283464567,
          "duration": 0.0703125
        },
        {
          "name": "F#3",
          "midi": 54,
          "time": 126.375,
          "velocity": 0.7165354330708661,
          "duration": 0.1484375
        },
        {
          "name": "D#4",
          "midi": 63,
          "time": 126.375,
          "velocity": 0.5039370078740157,
          "duration": 0.15625
        },
        {
          "name": "G4",
          "midi": 67,
          "time": 126.5546875,
          "velocity": 0.8267716535433071,
          "duration": 0.1640625
        },
        {
          "name": "B3",
          "midi": 59,
          "time": 126.5546875,
          "velocity": 0.7795275590551181,
          "duration": 0.53125
        },
        {
          "name": "G3",
          "midi": 55,
          "time": 126.5625,
          "velocity": 0.8031496062992126,
          "duration": 0.171875
        },
        {
          "name": "D#4",
          "midi": 63,
          "time": 127.1171875,
          "velocity": 0.7637795275590551,
          "duration": 0.1171875
        },
        {
          "name": "B3",
          "midi": 59,
          "time": 127.40625,
          "velocity": 0.8031496062992126,
          "duration": 0.0625
        },
        {
          "name": "D#4",
          "midi": 63,
          "time": 127.5,
          "velocity": 0.7874015748031497,
          "duration": 0.1328125
        },
        {
          "name": "G4",
          "midi": 67,
          "time": 127.6875,
          "velocity": 0.889763779527559,
          "duration": 0.1640625
        },
        {
          "name": "G3",
          "midi": 55,
          "time": 128.0625,
          "velocity": 0.8818897637795275,
          "duration": 0.1015625
        },
        {
          "name": "B3",
          "midi": 59,
          "time": 128.25,
          "velocity": 0.7637795275590551,
          "duration": 0.546875
        },
        {
          "name": "D#4",
          "midi": 63,
          "time": 128.8046875,
          "velocity": 0.7952755905511811,
          "duration": 0.140625
        },
        {
          "name": "B3",
          "midi": 59,
          "time": 129.0859375,
          "velocity": 0.7952755905511811,
          "duration": 0.0625
        },
        {
          "name": "D#4",
          "midi": 63,
          "time": 129.1796875,
          "velocity": 0.7874015748031497,
          "duration": 0.1171875
        },
        {
          "name": "G4",
          "midi": 67,
          "time": 129.375,
          "velocity": 0.889763779527559,
          "duration": 0.15625
        },
        {
          "name": "G3",
          "midi": 55,
          "time": 129.7421875,
          "velocity": 0.8661417322834646,
          "duration": 0.1171875
        },
        {
          "name": "G#4",
          "midi": 68,
          "time": 129.9375,
          "velocity": 0.3228346456692913,
          "duration": 0.0546875
        },
        {
          "name": "B4",
          "midi": 71,
          "time": 130.03125,
          "velocity": 0.33070866141732286,
          "duration": 0.0625
        },
        {
          "name": "G#4",
          "midi": 68,
          "time": 130.125,
          "velocity": 0.4094488188976378,
          "duration": 0.0625
        },
        {
          "name": "B4",
          "midi": 71,
          "time": 130.2109375,
          "velocity": 0.41732283464566927,
          "duration": 0.0625
        },
        {
          "name": "G#4",
          "midi": 68,
          "time": 130.3125,
          "velocity": 0.47244094488188976,
          "duration": 0.0546875
        },
        {
          "name": "B4",
          "midi": 71,
          "time": 130.3984375,
          "velocity": 0.5118110236220472,
          "duration": 0.078125
        },
        {
          "name": "G#4",
          "midi": 68,
          "time": 130.5,
          "velocity": 0.5669291338582677,
          "duration": 0.0703125
        },
        {
          "name": "B4",
          "midi": 71,
          "time": 130.5859375,
          "velocity": 0.6062992125984252,
          "duration": 0.0625
        },
        {
          "name": "G#4",
          "midi": 68,
          "time": 130.6875,
          "velocity": 0.6141732283464567,
          "duration": 0.0703125
        },
        {
          "name": "B4",
          "midi": 71,
          "time": 130.78125,
          "velocity": 0.6850393700787402,
          "duration": 0.0546875
        },
        {
          "name": "G#4",
          "midi": 68,
          "time": 130.8671875,
          "velocity": 0.6850393700787402,
          "duration": 0.0703125
        },
        {
          "name": "B4",
          "midi": 71,
          "time": 130.9609375,
          "velocity": 0.7559055118110236,
          "duration": 0.0703125
        },
        {
          "name": "G#4",
          "midi": 68,
          "time": 131.0546875,
          "velocity": 0.7874015748031497,
          "duration": 0.0625
        },
        {
          "name": "B4",
          "midi": 71,
          "time": 131.15625,
          "velocity": 0.8188976377952756,
          "duration": 0.0703125
        },
        {
          "name": "G#4",
          "midi": 68,
          "time": 131.25,
          "velocity": 0.8503937007874016,
          "duration": 0.0625
        },
        {
          "name": "B4",
          "midi": 71,
          "time": 131.34375,
          "velocity": 0.8976377952755905,
          "duration": 0.0625
        },
        {
          "name": "G#4",
          "midi": 68,
          "time": 131.4375,
          "velocity": 0.9291338582677166,
          "duration": 0.0625
        },
        {
          "name": "B4",
          "midi": 71,
          "time": 131.53125,
          "velocity": 0.984251968503937,
          "duration": 0.046875
        },
        {
          "name": "D#5",
          "midi": 75,
          "time": 131.8125,
          "velocity": 0.8582677165354331,
          "duration": 0.0546875
        },
        {
          "name": "D#5",
          "midi": 75,
          "time": 131.90625,
          "velocity": 0.8031496062992126,
          "duration": 0.0546875
        },
        {
          "name": "D5",
          "midi": 74,
          "time": 132,
          "velocity": 0.7952755905511811,
          "duration": 0.0625
        },
        {
          "name": "D5",
          "midi": 74,
          "time": 132.09375,
          "velocity": 0.7637795275590551,
          "duration": 0.0625
        },
        {
          "name": "C#5",
          "midi": 73,
          "time": 132.1875,
          "velocity": 0.7559055118110236,
          "duration": 0.0625
        },
        {
          "name": "C#5",
          "midi": 73,
          "time": 132.28125,
          "velocity": 0.7637795275590551,
          "duration": 0.0703125
        },
        {
          "name": "C5",
          "midi": 72,
          "time": 132.3671875,
          "velocity": 0.7559055118110236,
          "duration": 0.0546875
        },
        {
          "name": "C5",
          "midi": 72,
          "time": 132.4609375,
          "velocity": 0.7637795275590551,
          "duration": 0.0546875
        },
        {
          "name": "B4",
          "midi": 71,
          "time": 132.5625,
          "velocity": 0.7322834645669292,
          "duration": 0.046875
        },
        {
          "name": "B4",
          "midi": 71,
          "time": 132.65625,
          "velocity": 0.7322834645669292,
          "duration": 0.0625
        },
        {
          "name": "A#4",
          "midi": 70,
          "time": 132.7421875,
          "velocity": 0.7401574803149606,
          "duration": 0.046875
        },
        {
          "name": "A#4",
          "midi": 70,
          "time": 132.8359375,
          "velocity": 0.7401574803149606,
          "duration": 0.0703125
        },
        {
          "name": "A4",
          "midi": 69,
          "time": 132.9375,
          "velocity": 0.7637795275590551,
          "duration": 0.078125
        },
        {
          "name": "A4",
          "midi": 69,
          "time": 133.0234375,
          "velocity": 0.7559055118110236,
          "duration": 0.0703125
        },
        {
          "name": "G#4",
          "midi": 68,
          "time": 133.125,
          "velocity": 0.6929133858267716,
          "duration": 0.0546875
        },
        {
          "name": "G#4",
          "midi": 68,
          "time": 133.21875,
          "velocity": 0.7086614173228346,
          "duration": 0.0546875
        },
        {
          "name": "A3",
          "midi": 57,
          "time": 133.3046875,
          "velocity": 0.7952755905511811,
          "duration": 0.5234375
        },
        {
          "name": "F4",
          "midi": 65,
          "time": 133.3046875,
          "velocity": 0.5748031496062992,
          "duration": 0.171875
        },
        {
          "name": "C4",
          "midi": 60,
          "time": 133.875,
          "velocity": 0.7874015748031497,
          "duration": 0.234375
        },
        {
          "name": "G3",
          "midi": 55,
          "time": 134.1484375,
          "velocity": 0.7795275590551181,
          "duration": 0.046875
        },
        {
          "name": "C4",
          "midi": 60,
          "time": 134.2421875,
          "velocity": 0.7716535433070866,
          "duration": 0.140625
        },
        {
          "name": "E4",
          "midi": 64,
          "time": 134.4375,
          "velocity": 0.905511811023622,
          "duration": 0.1640625
        },
        {
          "name": "E3",
          "midi": 52,
          "time": 134.8046875,
          "velocity": 0.8740157480314961,
          "duration": 0.078125
        },
        {
          "name": "A3",
          "midi": 57,
          "time": 134.9921875,
          "velocity": 0.7716535433070866,
          "duration": 0.546875
        },
        {
          "name": "C4",
          "midi": 60,
          "time": 135.5546875,
          "velocity": 0.7795275590551181,
          "duration": 0.2265625
        },
        {
          "name": "G3",
          "midi": 55,
          "time": 135.84375,
          "velocity": 0.7637795275590551,
          "duration": 0.0390625
        },
        {
          "name": "C4",
          "midi": 60,
          "time": 135.9296875,
          "velocity": 0.7952755905511811,
          "duration": 0.140625
        },
        {
          "name": "E4",
          "midi": 64,
          "time": 136.1171875,
          "velocity": 0.9212598425196851,
          "duration": 0.1640625
        },
        {
          "name": "E3",
          "midi": 52,
          "time": 136.4921875,
          "velocity": 0.8661417322834646,
          "duration": 0.125
        },
        {
          "name": "A#4",
          "midi": 70,
          "time": 136.6796875,
          "velocity": 0.30708661417322836,
          "duration": 0.0546875
        },
        {
          "name": "C#5",
          "midi": 73,
          "time": 136.7734375,
          "velocity": 0.3700787401574803,
          "duration": 0.0703125
        },
        {
          "name": "A#4",
          "midi": 70,
          "time": 136.8671875,
          "velocity": 0.4015748031496063,
          "duration": 0.0625
        },
        {
          "name": "C#5",
          "midi": 73,
          "time": 136.9609375,
          "velocity": 0.4330708661417323,
          "duration": 0.0625
        },
        {
          "name": "A#4",
          "midi": 70,
          "time": 137.0625,
          "velocity": 0.48031496062992124,
          "duration": 0.0859375
        },
        {
          "name": "C#5",
          "midi": 73,
          "time": 137.1484375,
          "velocity": 0.5196850393700787,
          "duration": 0.078125
        },
        {
          "name": "A#4",
          "midi": 70,
          "time": 137.2421875,
          "velocity": 0.5275590551181102,
          "duration": 0.0625
        },
        {
          "name": "C#5",
          "midi": 73,
          "time": 137.3359375,
          "velocity": 0.5669291338582677,
          "duration": 0.0625
        },
        {
          "name": "A#4",
          "midi": 70,
          "time": 137.4296875,
          "velocity": 0.6141732283464567,
          "duration": 0.0546875
        },
        {
          "name": "C#5",
          "midi": 73,
          "time": 137.5234375,
          "velocity": 0.6456692913385826,
          "duration": 0.0546875
        },
        {
          "name": "A#4",
          "midi": 70,
          "time": 137.625,
          "velocity": 0.7086614173228346,
          "duration": 0.0703125
        },
        {
          "name": "C#5",
          "midi": 73,
          "time": 137.71875,
          "velocity": 0.7637795275590551,
          "duration": 0.0546875
        },
        {
          "name": "A#4",
          "midi": 70,
          "time": 137.8046875,
          "velocity": 0.8031496062992126,
          "duration": 0.0703125
        },
        {
          "name": "C#5",
          "midi": 73,
          "time": 137.90625,
          "velocity": 0.8188976377952756,
          "duration": 0.0625
        },
        {
          "name": "A#4",
          "midi": 70,
          "time": 138,
          "velocity": 0.8661417322834646,
          "duration": 0.078125
        },
        {
          "name": "C#5",
          "midi": 73,
          "time": 138.0859375,
          "velocity": 0.8818897637795275,
          "duration": 0.0703125
        },
        {
          "name": "A#4",
          "midi": 70,
          "time": 138.1796875,
          "velocity": 0.952755905511811,
          "duration": 0.078125
        },
        {
          "name": "C#5",
          "midi": 73,
          "time": 138.2734375,
          "velocity": 1,
          "duration": 0.0546875
        },
        {
          "name": "F#5",
          "midi": 78,
          "time": 138.3671875,
          "velocity": 0.952755905511811,
          "duration": 0.0703125
        },
        {
          "name": "F#5",
          "midi": 78,
          "time": 138.46875,
          "velocity": 0.9133858267716536,
          "duration": 0.046875
        },
        {
          "name": "F5",
          "midi": 77,
          "time": 138.5625,
          "velocity": 0.8503937007874016,
          "duration": 0.0546875
        },
        {
          "name": "F5",
          "midi": 77,
          "time": 138.65625,
          "velocity": 0.84251968503937,
          "duration": 0.078125
        },
        {
          "name": "E5",
          "midi": 76,
          "time": 138.7421875,
          "velocity": 0.7952755905511811,
          "duration": 0.0703125
        },
        {
          "name": "E5",
          "midi": 76,
          "time": 138.8359375,
          "velocity": 0.7322834645669292,
          "duration": 0.046875
        },
        {
          "name": "D#5",
          "midi": 75,
          "time": 138.9296875,
          "velocity": 0.7244094488188977,
          "duration": 0.0625
        },
        {
          "name": "D#5",
          "midi": 75,
          "time": 139.03125,
          "velocity": 0.7401574803149606,
          "duration": 0.0546875
        },
        {
          "name": "D5",
          "midi": 74,
          "time": 139.1171875,
          "velocity": 0.7244094488188977,
          "duration": 0.046875
        },
        {
          "name": "D5",
          "midi": 74,
          "time": 139.21875,
          "velocity": 0.7637795275590551,
          "duration": 0.0703125
        },
        {
          "name": "C#5",
          "midi": 73,
          "time": 139.3125,
          "velocity": 0.7480314960629921,
          "duration": 0.0625
        },
        {
          "name": "C#5",
          "midi": 73,
          "time": 139.3984375,
          "velocity": 0.7559055118110236,
          "duration": 0.046875
        },
        {
          "name": "C5",
          "midi": 72,
          "time": 139.4921875,
          "velocity": 0.7322834645669292,
          "duration": 0.0703125
        },
        {
          "name": "C5",
          "midi": 72,
          "time": 139.5859375,
          "velocity": 0.7244094488188977,
          "duration": 0.0703125
        },
        {
          "name": "B4",
          "midi": 71,
          "time": 139.6875,
          "velocity": 0.7244094488188977,
          "duration": 0.046875
        },
        {
          "name": "B4",
          "midi": 71,
          "time": 139.78125,
          "velocity": 0.7401574803149606,
          "duration": 0.0625
        },
        {
          "name": "A#4",
          "midi": 70,
          "time": 139.875,
          "velocity": 0.7244094488188977,
          "duration": 0.046875
        },
        {
          "name": "A#4",
          "midi": 70,
          "time": 139.96875,
          "velocity": 0.7244094488188977,
          "duration": 0.0703125
        },
        {
          "name": "B4",
          "midi": 71,
          "time": 140.0546875,
          "velocity": 0.5433070866141733,
          "duration": 0.140625
        },
        {
          "name": "D#4",
          "midi": 63,
          "time": 140.0625,
          "velocity": 0.5433070866141733,
          "duration": 0.1640625
        },
        {
          "name": "G3",
          "midi": 55,
          "time": 140.0625,
          "velocity": 0.5275590551181102,
          "duration": 0.1484375
        },
        {
          "name": "G4",
          "midi": 67,
          "time": 140.5234375,
          "velocity": 0.4330708661417323,
          "duration": 0.0625
        },
        {
          "name": "D#4",
          "midi": 63,
          "time": 141.1875,
          "velocity": 0.4409448818897638,
          "duration": 0.1484375
        },
        {
          "name": "G4",
          "midi": 67,
          "time": 141.375,
          "velocity": 0.44881889763779526,
          "duration": 0.265625
        },
        {
          "name": "B3",
          "midi": 59,
          "time": 141.6484375,
          "velocity": 0.5669291338582677,
          "duration": 0.0546875
        },
        {
          "name": "D#4",
          "midi": 63,
          "time": 141.75,
          "velocity": 0.5511811023622047,
          "duration": 0.15625
        },
        {
          "name": "G4",
          "midi": 67,
          "time": 142.2109375,
          "velocity": 0.4251968503937008,
          "duration": 0.0546875
        },
        {
          "name": "G3",
          "midi": 55,
          "time": 142.3046875,
          "velocity": 0.5511811023622047,
          "duration": 0.140625
        },
        {
          "name": "D#4",
          "midi": 63,
          "time": 142.875,
          "velocity": 0.4330708661417323,
          "duration": 0.15625
        },
        {
          "name": "B3",
          "midi": 59,
          "time": 143.3359375,
          "velocity": 0.5275590551181102,
          "duration": 0.0546875
        },
        {
          "name": "E4",
          "midi": 64,
          "time": 143.4296875,
          "velocity": 0.5354330708661418,
          "duration": 0.15625
        },
        {
          "name": "G4",
          "midi": 67,
          "time": 143.90625,
          "velocity": 0.4330708661417323,
          "duration": 0.078125
        },
        {
          "name": "G3",
          "midi": 55,
          "time": 144,
          "velocity": 0.49606299212598426,
          "duration": 0.171875
        },
        {
          "name": "E4",
          "midi": 64,
          "time": 144.5546875,
          "velocity": 0.4330708661417323,
          "duration": 0.1640625
        },
        {
          "name": "G4",
          "midi": 67,
          "time": 144.75,
          "velocity": 0.5354330708661418,
          "duration": 0.2421875
        },
        {
          "name": "C4",
          "midi": 60,
          "time": 145.03125,
          "velocity": 0.5590551181102362,
          "duration": 0.0703125
        },
        {
          "name": "E4",
          "midi": 64,
          "time": 145.1171875,
          "velocity": 0.5433070866141733,
          "duration": 0.515625
        },
        {
          "name": "G4",
          "midi": 67,
          "time": 145.59375,
          "velocity": 0.41732283464566927,
          "duration": 0.0703125
        },
        {
          "name": "G3",
          "midi": 55,
          "time": 145.6796875,
          "velocity": 0.6377952755905512,
          "duration": 0.140625
        },
        {
          "name": "C4",
          "midi": 60,
          "time": 145.875,
          "velocity": 0.6220472440944882,
          "duration": 0.0546875
        },
        {
          "name": "C4",
          "midi": 60,
          "time": 145.9609375,
          "velocity": 0.6062992125984252,
          "duration": 0.046875
        },
        {
          "name": "E4",
          "midi": 64,
          "time": 146.0625,
          "velocity": 0.7007874015748031,
          "duration": 0.0546875
        },
        {
          "name": "E4",
          "midi": 64,
          "time": 146.15625,
          "velocity": 0.7244094488188977,
          "duration": 0.0625
        },
        {
          "name": "G4",
          "midi": 67,
          "time": 146.2421875,
          "velocity": 0.7559055118110236,
          "duration": 0.046875
        },
        {
          "name": "E4",
          "midi": 64,
          "time": 146.25,
          "velocity": 0.44881889763779526,
          "duration": 0.1484375
        },
        {
          "name": "G4",
          "midi": 67,
          "time": 146.3359375,
          "velocity": 0.7559055118110236,
          "duration": 0.0625
        },
        {
          "name": "C5",
          "midi": 72,
          "time": 146.4296875,
          "velocity": 0.7637795275590551,
          "duration": 0.046875
        },
        {
          "name": "C5",
          "midi": 72,
          "time": 146.53125,
          "velocity": 0.7952755905511811,
          "duration": 0.0625
        },
        {
          "name": "E5",
          "midi": 76,
          "time": 146.625,
          "velocity": 0.8346456692913385,
          "duration": 0.0703125
        },
        {
          "name": "E5",
          "midi": 76,
          "time": 146.7109375,
          "velocity": 0.8110236220472441,
          "duration": 0.0625
        },
        {
          "name": "C#5",
          "midi": 73,
          "time": 146.8046875,
          "velocity": 0.31496062992125984,
          "duration": 0.0859375
        },
        {
          "name": "E5",
          "midi": 76,
          "time": 146.90625,
          "velocity": 0.3464566929133858,
          "duration": 0.0546875
        },
        {
          "name": "C#5",
          "midi": 73,
          "time": 147,
          "velocity": 0.4094488188976378,
          "duration": 0.0703125
        },
        {
          "name": "E5",
          "midi": 76,
          "time": 147.09375,
          "velocity": 0.4094488188976378,
          "duration": 0.0703125
        },
        {
          "name": "C#5",
          "midi": 73,
          "time": 147.1796875,
          "velocity": 0.48031496062992124,
          "duration": 0.0703125
        },
        {
          "name": "E5",
          "midi": 76,
          "time": 147.28125,
          "velocity": 0.49606299212598426,
          "duration": 0.0703125
        },
        {
          "name": "C#5",
          "midi": 73,
          "time": 147.375,
          "velocity": 0.5354330708661418,
          "duration": 0.078125
        },
        {
          "name": "E5",
          "midi": 76,
          "time": 147.46875,
          "velocity": 0.5826771653543307,
          "duration": 0.078125
        },
        {
          "name": "C#5",
          "midi": 73,
          "time": 147.5546875,
          "velocity": 0.6456692913385826,
          "duration": 0.0546875
        },
        {
          "name": "E5",
          "midi": 76,
          "time": 147.65625,
          "velocity": 0.6692913385826772,
          "duration": 0.0703125
        },
        {
          "name": "C#5",
          "midi": 73,
          "time": 147.75,
          "velocity": 0.6929133858267716,
          "duration": 0.078125
        },
        {
          "name": "E5",
          "midi": 76,
          "time": 147.84375,
          "velocity": 0.7401574803149606,
          "duration": 0.0546875
        },
        {
          "name": "C#5",
          "midi": 73,
          "time": 147.9296875,
          "velocity": 0.7559055118110236,
          "duration": 0.0703125
        },
        {
          "name": "E5",
          "midi": 76,
          "time": 148.03125,
          "velocity": 0.7559055118110236,
          "duration": 0.0859375
        },
        {
          "name": "C#5",
          "midi": 73,
          "time": 148.125,
          "velocity": 0.8031496062992126,
          "duration": 0.0546875
        },
        {
          "name": "E5",
          "midi": 76,
          "time": 148.21875,
          "velocity": 0.8031496062992126,
          "duration": 0.0546875
        },
        {
          "name": "C#5",
          "midi": 73,
          "time": 148.3046875,
          "velocity": 0.7952755905511811,
          "duration": 0.0703125
        },
        {
          "name": "E5",
          "midi": 76,
          "time": 148.40625,
          "velocity": 0.7716535433070866,
          "duration": 0.0546875
        },
        {
          "name": "C#5",
          "midi": 73,
          "time": 148.4921875,
          "velocity": 0.7637795275590551,
          "duration": 0.0625
        },
        {
          "name": "E5",
          "midi": 76,
          "time": 148.59375,
          "velocity": 0.7637795275590551,
          "duration": 0.0703125
        },
        {
          "name": "C#5",
          "midi": 73,
          "time": 148.6875,
          "velocity": 0.84251968503937,
          "duration": 0.078125
        },
        {
          "name": "E5",
          "midi": 76,
          "time": 148.78125,
          "velocity": 0.8188976377952756,
          "duration": 0.0703125
        },
        {
          "name": "C#5",
          "midi": 73,
          "time": 148.8671875,
          "velocity": 0.8346456692913385,
          "duration": 0.0546875
        },
        {
          "name": "E5",
          "midi": 76,
          "time": 148.96875,
          "velocity": 0.8740157480314961,
          "duration": 0.078125
        },
        {
          "name": "C#5",
          "midi": 73,
          "time": 149.0546875,
          "velocity": 0.8582677165354331,
          "duration": 0.0546875
        },
        {
          "name": "E5",
          "midi": 76,
          "time": 149.1484375,
          "velocity": 0.8582677165354331,
          "duration": 0.078125
        },
        {
          "name": "C#5",
          "midi": 73,
          "time": 149.25,
          "velocity": 0.889763779527559,
          "duration": 0.0703125
        },
        {
          "name": "E5",
          "midi": 76,
          "time": 149.3359375,
          "velocity": 0.9133858267716536,
          "duration": 0.0703125
        },
        {
          "name": "C#5",
          "midi": 73,
          "time": 149.4296875,
          "velocity": 0.8818897637795275,
          "duration": 0.078125
        },
        {
          "name": "E5",
          "midi": 76,
          "time": 149.5234375,
          "velocity": 0.8818897637795275,
          "duration": 0.078125
        },
        {
          "name": "C#5",
          "midi": 73,
          "time": 149.6171875,
          "velocity": 0.9212598425196851,
          "duration": 0.0625
        },
        {
          "name": "E5",
          "midi": 76,
          "time": 149.71875,
          "velocity": 0.9448818897637795,
          "duration": 0.078125
        },
        {
          "name": "C#5",
          "midi": 73,
          "time": 149.8046875,
          "velocity": 0.952755905511811,
          "duration": 0.0703125
        },
        {
          "name": "E5",
          "midi": 76,
          "time": 149.90625,
          "velocity": 0.9212598425196851,
          "duration": 0.0625
        },
        {
          "name": "C#5",
          "midi": 73,
          "time": 150,
          "velocity": 0.9763779527559056,
          "duration": 0.0625
        },
        {
          "name": "E5",
          "midi": 76,
          "time": 150.09375,
          "velocity": 0.9763779527559056,
          "duration": 0.078125
        },
        {
          "name": "D#5",
          "midi": 75,
          "time": 150.1875,
          "velocity": 0.6614173228346457,
          "duration": 0.0546875
        },
        {
          "name": "D#5",
          "midi": 75,
          "time": 150.2734375,
          "velocity": 0.5669291338582677,
          "duration": 0.046875
        },
        {
          "name": "D#5",
          "midi": 75,
          "time": 150.375,
          "velocity": 0.6614173228346457,
          "duration": 0.0703125
        },
        {
          "name": "D#5",
          "midi": 75,
          "time": 150.46875,
          "velocity": 0.5984251968503937,
          "duration": 0.0546875
        },
        {
          "name": "D#5",
          "midi": 75,
          "time": 150.5546875,
          "velocity": 0.6850393700787402,
          "duration": 0.046875
        },
        {
          "name": "D#5",
          "midi": 75,
          "time": 150.65625,
          "velocity": 0.5984251968503937,
          "duration": 0.0703125
        },
        {
          "name": "E5",
          "midi": 76,
          "time": 150.9375,
          "velocity": 0.7874015748031497,
          "duration": 0.0703125
        },
        {
          "name": "E5",
          "midi": 76,
          "time": 151.03125,
          "velocity": 0.7007874015748031,
          "duration": 0.0703125
        },
        {
          "name": "D#5",
          "midi": 75,
          "time": 151.1171875,
          "velocity": 0.7795275590551181,
          "duration": 0.0625
        },
        {
          "name": "D#5",
          "midi": 75,
          "time": 151.2109375,
          "velocity": 0.6929133858267716,
          "duration": 0.0546875
        },
        {
          "name": "C#5",
          "midi": 73,
          "time": 151.3046875,
          "velocity": 0.7874015748031497,
          "duration": 0.0703125
        },
        {
          "name": "C#5",
          "midi": 73,
          "time": 151.40625,
          "velocity": 0.7007874015748031,
          "duration": 0.0703125
        },
        {
          "name": "B4",
          "midi": 71,
          "time": 151.5,
          "velocity": 0.7874015748031497,
          "duration": 0.0703125
        },
        {
          "name": "B4",
          "midi": 71,
          "time": 151.5859375,
          "velocity": 0.6850393700787402,
          "duration": 0.078125
        },
        {
          "name": "A#4",
          "midi": 70,
          "time": 151.6796875,
          "velocity": 0.8031496062992126,
          "duration": 0.0546875
        },
        {
          "name": "A#4",
          "midi": 70,
          "time": 151.7734375,
          "velocity": 0.7244094488188977,
          "duration": 0.078125
        },
        {
          "name": "G#4",
          "midi": 68,
          "time": 151.875,
          "velocity": 0.7716535433070866,
          "duration": 0.0546875
        },
        {
          "name": "G#4",
          "midi": 68,
          "time": 151.96875,
          "velocity": 0.7244094488188977,
          "duration": 0.0703125
        },
        {
          "name": "F#4",
          "midi": 66,
          "time": 152.0625,
          "velocity": 0.8031496062992126,
          "duration": 0.078125
        },
        {
          "name": "F#4",
          "midi": 66,
          "time": 152.15625,
          "velocity": 0.7244094488188977,
          "duration": 0.046875
        },
        {
          "name": "E4",
          "midi": 64,
          "time": 152.25,
          "velocity": 0.7952755905511811,
          "duration": 0.0703125
        },
        {
          "name": "E4",
          "midi": 64,
          "time": 152.34375,
          "velocity": 0.6850393700787402,
          "duration": 0.046875
        },
        {
          "name": "D#4",
          "midi": 63,
          "time": 152.4296875,
          "velocity": 0.7716535433070866,
          "duration": 0.0703125
        },
        {
          "name": "D#4",
          "midi": 63,
          "time": 152.5234375,
          "velocity": 0.6850393700787402,
          "duration": 0.0703125
        },
        {
          "name": "C#4",
          "midi": 61,
          "time": 152.625,
          "velocity": 0.8031496062992126,
          "duration": 0.0625
        },
        {
          "name": "C#4",
          "midi": 61,
          "time": 152.7109375,
          "velocity": 0.7244094488188977,
          "duration": 0.0546875
        },
        {
          "name": "B3",
          "midi": 59,
          "time": 152.8125,
          "velocity": 0.7795275590551181,
          "duration": 0.0625
        },
        {
          "name": "B3",
          "midi": 59,
          "time": 152.8984375,
          "velocity": 0.6929133858267716,
          "duration": 0.046875
        },
        {
          "name": "A#3",
          "midi": 58,
          "time": 152.9921875,
          "velocity": 0.7952755905511811,
          "duration": 0.0625
        },
        {
          "name": "A#3",
          "midi": 58,
          "time": 153.0859375,
          "velocity": 0.6850393700787402,
          "duration": 0.046875
        },
        {
          "name": "G#3",
          "midi": 56,
          "time": 153.1875,
          "velocity": 0.7637795275590551,
          "duration": 0.0625
        },
        {
          "name": "G#3",
          "midi": 56,
          "time": 153.28125,
          "velocity": 0.7244094488188977,
          "duration": 0.0546875
        },
        {
          "name": "F#3",
          "midi": 54,
          "time": 153.3671875,
          "velocity": 0.8031496062992126,
          "duration": 0.0625
        },
        {
          "name": "F#3",
          "midi": 54,
          "time": 153.46875,
          "velocity": 0.7244094488188977,
          "duration": 0.0703125
        },
        {
          "name": "D#5",
          "midi": 75,
          "time": 153.5546875,
          "velocity": 0.8582677165354331,
          "duration": 0.0703125
        },
        {
          "name": "D#5",
          "midi": 75,
          "time": 153.65625,
          "velocity": 0.7952755905511811,
          "duration": 0.0546875
        },
        {
          "name": "D#5",
          "midi": 75,
          "time": 153.7421875,
          "velocity": 0.7165354330708661,
          "duration": 0.046875
        },
        {
          "name": "D#5",
          "midi": 75,
          "time": 153.8359375,
          "velocity": 0.6456692913385826,
          "duration": 0.0703125
        },
        {
          "name": "D#5",
          "midi": 75,
          "time": 153.9375,
          "velocity": 0.6062992125984252,
          "duration": 0.0625
        },
        {
          "name": "D#5",
          "midi": 75,
          "time": 154.03125,
          "velocity": 0.6299212598425197,
          "duration": 0.078125
        },
        {
          "name": "D#5",
          "midi": 75,
          "time": 154.125,
          "velocity": 0.7952755905511811,
          "duration": 0.0546875
        },
        {
          "name": "D#5",
          "midi": 75,
          "time": 154.21875,
          "velocity": 0.7086614173228346,
          "duration": 0.0703125
        },
        {
          "name": "E5",
          "midi": 76,
          "time": 154.3046875,
          "velocity": 0.6535433070866141,
          "duration": 0.046875
        },
        {
          "name": "C#5",
          "midi": 73,
          "time": 154.3125,
          "velocity": 0.7952755905511811,
          "duration": 0.0546875
        },
        {
          "name": "C#5",
          "midi": 73,
          "time": 154.3984375,
          "velocity": 0.7007874015748031,
          "duration": 0.0703125
        },
        {
          "name": "B4",
          "midi": 71,
          "time": 154.4921875,
          "velocity": 0.7637795275590551,
          "duration": 0.0703125
        },
        {
          "name": "B4",
          "midi": 71,
          "time": 154.5859375,
          "velocity": 0.6850393700787402,
          "duration": 0.0546875
        },
        {
          "name": "A#4",
          "midi": 70,
          "time": 154.6796875,
          "velocity": 0.7952755905511811,
          "duration": 0.0625
        },
        {
          "name": "A#4",
          "midi": 70,
          "time": 154.7734375,
          "velocity": 0.6850393700787402,
          "duration": 0.0546875
        },
        {
          "name": "G#4",
          "midi": 68,
          "time": 154.875,
          "velocity": 0.7637795275590551,
          "duration": 0.0625
        },
        {
          "name": "G#4",
          "midi": 68,
          "time": 154.96875,
          "velocity": 0.7007874015748031,
          "duration": 0.0625
        },
        {
          "name": "F#4",
          "midi": 66,
          "time": 155.0546875,
          "velocity": 0.7952755905511811,
          "duration": 0.0546875
        },
        {
          "name": "F#4",
          "midi": 66,
          "time": 155.1484375,
          "velocity": 0.6850393700787402,
          "duration": 0.0703125
        },
        {
          "name": "E4",
          "midi": 64,
          "time": 155.2421875,
          "velocity": 0.7637795275590551,
          "duration": 0.0546875
        },
        {
          "name": "E4",
          "midi": 64,
          "time": 155.3359375,
          "velocity": 0.7244094488188977,
          "duration": 0.0625
        },
        {
          "name": "D#4",
          "midi": 63,
          "time": 155.4375,
          "velocity": 0.7874015748031497,
          "duration": 0.0703125
        },
        {
          "name": "D#4",
          "midi": 63,
          "time": 155.53125,
          "velocity": 0.7165354330708661,
          "duration": 0.0546875
        },
        {
          "name": "C#4",
          "midi": 61,
          "time": 155.6171875,
          "velocity": 0.7874015748031497,
          "duration": 0.0546875
        },
        {
          "name": "C#4",
          "midi": 61,
          "time": 155.7109375,
          "velocity": 0.7244094488188977,
          "duration": 0.0625
        },
        {
          "name": "B3",
          "midi": 59,
          "time": 155.8125,
          "velocity": 0.7716535433070866,
          "duration": 0.0625
        },
        {
          "name": "B3",
          "midi": 59,
          "time": 155.8984375,
          "velocity": 0.7086614173228346,
          "duration": 0.0703125
        },
        {
          "name": "A#3",
          "midi": 58,
          "time": 155.9921875,
          "velocity": 0.8031496062992126,
          "duration": 0.0703125
        },
        {
          "name": "A#3",
          "midi": 58,
          "time": 156.09375,
          "velocity": 0.7165354330708661,
          "duration": 0.0625
        },
        {
          "name": "G#3",
          "midi": 56,
          "time": 156.1875,
          "velocity": 0.8031496062992126,
          "duration": 0.0625
        },
        {
          "name": "G#3",
          "midi": 56,
          "time": 156.2734375,
          "velocity": 0.7007874015748031,
          "duration": 0.0625
        },
        {
          "name": "F#3",
          "midi": 54,
          "time": 156.375,
          "velocity": 0.7716535433070866,
          "duration": 0.078125
        },
        {
          "name": "F#3",
          "midi": 54,
          "time": 156.4609375,
          "velocity": 0.6850393700787402,
          "duration": 0.0546875
        },
        {
          "name": "E3",
          "midi": 52,
          "time": 156.5625,
          "velocity": 0.7952755905511811,
          "duration": 0.0546875
        },
        {
          "name": "B3",
          "midi": 59,
          "time": 157.875,
          "velocity": 0.7716535433070866,
          "duration": 0.0546875
        },
        {
          "name": "B3",
          "midi": 59,
          "time": 157.9609375,
          "velocity": 0.7165354330708661,
          "duration": 0.0546875
        },
        {
          "name": "A#3",
          "midi": 58,
          "time": 158.0625,
          "velocity": 0.8031496062992126,
          "duration": 0.046875
        },
        {
          "name": "A#3",
          "midi": 58,
          "time": 158.15625,
          "velocity": 0.7086614173228346,
          "duration": 0.0703125
        },
        {
          "name": "A3",
          "midi": 57,
          "time": 158.2421875,
          "velocity": 0.7874015748031497,
          "duration": 0.0546875
        },
        {
          "name": "A3",
          "midi": 57,
          "time": 158.3359375,
          "velocity": 0.7086614173228346,
          "duration": 0.0546875
        },
        {
          "name": "G#3",
          "midi": 56,
          "time": 158.4296875,
          "velocity": 0.7952755905511811,
          "duration": 0.0546875
        },
        {
          "name": "G#3",
          "midi": 56,
          "time": 158.53125,
          "velocity": 0.7086614173228346,
          "duration": 0.0546875
        },
        {
          "name": "F#3",
          "midi": 54,
          "time": 158.625,
          "velocity": 0.7716535433070866,
          "duration": 0.0625
        },
        {
          "name": "F#3",
          "midi": 54,
          "time": 158.7109375,
          "velocity": 0.6850393700787402,
          "duration": 0.0546875
        },
        {
          "name": "B3",
          "midi": 59,
          "time": 159.7421875,
          "velocity": 0.7637795275590551,
          "duration": 0.0546875
        },
        {
          "name": "B3",
          "midi": 59,
          "time": 159.84375,
          "velocity": 0.7165354330708661,
          "duration": 0.0546875
        },
        {
          "name": "A#3",
          "midi": 58,
          "time": 159.9375,
          "velocity": 0.7874015748031497,
          "duration": 0.0703125
        },
        {
          "name": "A#3",
          "midi": 58,
          "time": 160.0234375,
          "velocity": 0.7165354330708661,
          "duration": 0.0625
        },
        {
          "name": "A3",
          "midi": 57,
          "time": 160.1171875,
          "velocity": 0.8031496062992126,
          "duration": 0.0625
        },
        {
          "name": "A3",
          "midi": 57,
          "time": 160.21875,
          "velocity": 0.6929133858267716,
          "duration": 0.0625
        },
        {
          "name": "F#3",
          "midi": 54,
          "time": 160.3125,
          "velocity": 0.7874015748031497,
          "duration": 0.046875
        },
        {
          "name": "F#3",
          "midi": 54,
          "time": 160.3984375,
          "velocity": 0.7007874015748031,
          "duration": 0.0546875
        },
        {
          "name": "F#3",
          "midi": 54,
          "time": 160.5,
          "velocity": 0.6141732283464567,
          "duration": 0.0546875
        },
        {
          "name": "F#3",
          "midi": 54,
          "time": 160.875,
          "velocity": 0.7716535433070866,
          "duration": 0.078125
        },
        {
          "name": "F#3",
          "midi": 54,
          "time": 160.96875,
          "velocity": 0.7007874015748031,
          "duration": 0.078125
        },
        {
          "name": "F#3",
          "midi": 54,
          "time": 161.0546875,
          "velocity": 0.6299212598425197,
          "duration": 0.0703125
        },
        {
          "name": "F#3",
          "midi": 54,
          "time": 161.4296875,
          "velocity": 0.7795275590551181,
          "duration": 0.0625
        },
        {
          "name": "F#3",
          "midi": 54,
          "time": 161.53125,
          "velocity": 0.7244094488188977,
          "duration": 0.0546875
        },
        {
          "name": "F#3",
          "midi": 54,
          "time": 161.625,
          "velocity": 0.6299212598425197,
          "duration": 0.0625
        }
      ],
      "controlChanges": {
        "7": [
          {
            "number": 7,
            "time": 0,
            "value": 0.8661417322834646
          }
        ],
        "10": [
          {
            "number": 10,
            "time": 0,
            "value": 0.5039370078740157
          }
        ],
        "11": [
          {
            "number": 11,
            "time": 0,
            "value": 1
          }
        ],
        "91": [
          {
            "number": 91,
            "time": 0,
            "value": 0.5511811023622047
          }
        ],
        "93": [
          {
            "number": 93,
            "time": 0.0078125,
            "value": 0.23622047244094488
          }
        ]
      }
    },
    {
      "startTime": 21.9296875,
      "duration": 163.8515625,
      "length": 578,
      "id": 3,
      "name": "Brass",
      "instrumentNumber": 61,
      "instrument": "brass section",
      "instrumentFamily": "brass",
      "channelNumber": 2,
      "isPercussion": false,
      "notes": [
        {
          "name": "B3",
          "midi": 59,
          "time": 21.9296875,
          "velocity": 0.8110236220472441,
          "duration": 0.1171875
        },
        {
          "name": "F#3",
          "midi": 54,
          "time": 22.234375,
          "velocity": 0.8661417322834646,
          "duration": 0.0625
        },
        {
          "name": "B3",
          "midi": 59,
          "time": 22.3046875,
          "velocity": 0.905511811023622,
          "duration": 0.125
        },
        {
          "name": "D4",
          "midi": 62,
          "time": 22.4921875,
          "velocity": 0.9606299212598425,
          "duration": 0.515625
        },
        {
          "name": "B3",
          "midi": 59,
          "time": 23.0546875,
          "velocity": 0.84251968503937,
          "duration": 0.53125
        },
        {
          "name": "D4",
          "midi": 62,
          "time": 23.625,
          "velocity": 0.8582677165354331,
          "duration": 0.125
        },
        {
          "name": "B3",
          "midi": 59,
          "time": 23.921875,
          "velocity": 0.8503937007874016,
          "duration": 0.046875
        },
        {
          "name": "D4",
          "midi": 62,
          "time": 24,
          "velocity": 0.8976377952755905,
          "duration": 0.1171875
        },
        {
          "name": "F#4",
          "midi": 66,
          "time": 24.1796875,
          "velocity": 0.9921259842519685,
          "duration": 0.5234375
        },
        {
          "name": "D4",
          "midi": 62,
          "time": 24.75,
          "velocity": 0.84251968503937,
          "duration": 0.5234375
        },
        {
          "name": "F#4",
          "midi": 66,
          "time": 25.3046875,
          "velocity": 0.8818897637795275,
          "duration": 0.1171875
        },
        {
          "name": "D4",
          "midi": 62,
          "time": 25.609375,
          "velocity": 0.84251968503937,
          "duration": 0.0546875
        },
        {
          "name": "F#4",
          "midi": 66,
          "time": 25.6796875,
          "velocity": 0.889763779527559,
          "duration": 0.1328125
        },
        {
          "name": "A4",
          "midi": 69,
          "time": 25.8671875,
          "velocity": 0.9763779527559056,
          "duration": 0.5234375
        },
        {
          "name": "A3",
          "midi": 57,
          "time": 26.4296875,
          "velocity": 0.84251968503937,
          "duration": 0.5078125
        },
        {
          "name": "D4",
          "midi": 62,
          "time": 26.9921875,
          "velocity": 0.8582677165354331,
          "duration": 0.1171875
        },
        {
          "name": "A3",
          "midi": 57,
          "time": 27.2890625,
          "velocity": 0.8582677165354331,
          "duration": 0.0390625
        },
        {
          "name": "D4",
          "midi": 62,
          "time": 27.375,
          "velocity": 0.8818897637795275,
          "duration": 0.1171875
        },
        {
          "name": "F#4",
          "midi": 66,
          "time": 27.5625,
          "velocity": 1,
          "duration": 2.734375
        },
        {
          "name": "D3",
          "midi": 50,
          "time": 33.75,
          "velocity": 0.8267716535433071,
          "duration": 0.1171875
        },
        {
          "name": "D4",
          "midi": 62,
          "time": 33.75,
          "velocity": 0.84251968503937,
          "duration": 0.1328125
        },
        {
          "name": "A2",
          "midi": 45,
          "time": 34.0390625,
          "velocity": 0.84251968503937,
          "duration": 0.0390625
        },
        {
          "name": "A3",
          "midi": 57,
          "time": 34.0390625,
          "velocity": 0.84251968503937,
          "duration": 0.0546875
        },
        {
          "name": "D3",
          "midi": 50,
          "time": 34.1171875,
          "velocity": 0.905511811023622,
          "duration": 0.1171875
        },
        {
          "name": "D4",
          "midi": 62,
          "time": 34.125,
          "velocity": 0.9212598425196851,
          "duration": 0.1328125
        },
        {
          "name": "F#3",
          "midi": 54,
          "time": 34.3125,
          "velocity": 0.9763779527559056,
          "duration": 0.5078125
        },
        {
          "name": "F#4",
          "midi": 66,
          "time": 34.3125,
          "velocity": 0.9606299212598425,
          "duration": 0.5234375
        },
        {
          "name": "D4",
          "midi": 62,
          "time": 34.8671875,
          "velocity": 0.8346456692913385,
          "duration": 0.5234375
        },
        {
          "name": "D3",
          "midi": 50,
          "time": 34.875,
          "velocity": 0.8267716535433071,
          "duration": 0.5078125
        },
        {
          "name": "F#3",
          "midi": 54,
          "time": 35.4375,
          "velocity": 0.8346456692913385,
          "duration": 0.1328125
        },
        {
          "name": "F#4",
          "midi": 66,
          "time": 35.4375,
          "velocity": 0.8031496062992126,
          "duration": 0.1328125
        },
        {
          "name": "D3",
          "midi": 50,
          "time": 35.7265625,
          "velocity": 0.8503937007874016,
          "duration": 0.0390625
        },
        {
          "name": "D4",
          "midi": 62,
          "time": 35.7265625,
          "velocity": 0.8740157480314961,
          "duration": 0.0625
        },
        {
          "name": "F#3",
          "midi": 54,
          "time": 35.8046875,
          "velocity": 0.8976377952755905,
          "duration": 0.125
        },
        {
          "name": "F#4",
          "midi": 66,
          "time": 35.8046875,
          "velocity": 0.889763779527559,
          "duration": 0.1328125
        },
        {
          "name": "A4",
          "midi": 69,
          "time": 35.9921875,
          "velocity": 0.9921259842519685,
          "duration": 0.515625
        },
        {
          "name": "A3",
          "midi": 57,
          "time": 36,
          "velocity": 0.9606299212598425,
          "duration": 0.53125
        },
        {
          "name": "F#4",
          "midi": 66,
          "time": 36.5546875,
          "velocity": 0.8503937007874016,
          "duration": 0.5078125
        },
        {
          "name": "F#3",
          "midi": 54,
          "time": 36.5625,
          "velocity": 0.8267716535433071,
          "duration": 0.5234375
        },
        {
          "name": "A3",
          "midi": 57,
          "time": 37.1171875,
          "velocity": 0.8110236220472441,
          "duration": 0.125
        },
        {
          "name": "A4",
          "midi": 69,
          "time": 37.125,
          "velocity": 0.8031496062992126,
          "duration": 0.1328125
        },
        {
          "name": "F#3",
          "midi": 54,
          "time": 37.421875,
          "velocity": 0.8740157480314961,
          "duration": 0.046875
        },
        {
          "name": "F#4",
          "midi": 66,
          "time": 37.421875,
          "velocity": 0.8503937007874016,
          "duration": 0.046875
        },
        {
          "name": "A3",
          "midi": 57,
          "time": 37.4921875,
          "velocity": 0.905511811023622,
          "duration": 0.125
        },
        {
          "name": "A4",
          "midi": 69,
          "time": 37.5,
          "velocity": 0.8818897637795275,
          "duration": 0.1328125
        },
        {
          "name": "C#5",
          "midi": 73,
          "time": 37.6796875,
          "velocity": 0.9606299212598425,
          "duration": 0.5078125
        },
        {
          "name": "C#4",
          "midi": 61,
          "time": 37.6875,
          "velocity": 1,
          "duration": 0.5078125
        },
        {
          "name": "C#3",
          "midi": 49,
          "time": 38.25,
          "velocity": 0.8346456692913385,
          "duration": 0.515625
        },
        {
          "name": "C#4",
          "midi": 61,
          "time": 38.25,
          "velocity": 0.8346456692913385,
          "duration": 0.53125
        },
        {
          "name": "F#3",
          "midi": 54,
          "time": 38.8125,
          "velocity": 0.8503937007874016,
          "duration": 0.1328125
        },
        {
          "name": "F#4",
          "midi": 66,
          "time": 38.8125,
          "velocity": 0.8661417322834646,
          "duration": 0.1171875
        },
        {
          "name": "C#4",
          "midi": 61,
          "time": 39.1015625,
          "velocity": 0.8661417322834646,
          "duration": 0.0546875
        },
        {
          "name": "C#3",
          "midi": 49,
          "time": 39.109375,
          "velocity": 0.8661417322834646,
          "duration": 0.0390625
        },
        {
          "name": "F#3",
          "midi": 54,
          "time": 39.1875,
          "velocity": 0.905511811023622,
          "duration": 0.1171875
        },
        {
          "name": "F#4",
          "midi": 66,
          "time": 39.1875,
          "velocity": 0.9133858267716536,
          "duration": 0.1328125
        },
        {
          "name": "A#4",
          "midi": 70,
          "time": 39.3671875,
          "velocity": 0.9606299212598425,
          "duration": 2.78125
        },
        {
          "name": "A#3",
          "midi": 58,
          "time": 39.375,
          "velocity": 0.968503937007874,
          "duration": 2.7890625
        },
        {
          "name": "F#4",
          "midi": 66,
          "time": 41.9140625,
          "velocity": 0.6299212598425197,
          "duration": 0.0625
        },
        {
          "name": "C#4",
          "midi": 61,
          "time": 42,
          "velocity": 0.6456692913385826,
          "duration": 0.1015625
        },
        {
          "name": "F#4",
          "midi": 66,
          "time": 43.6015625,
          "velocity": 0.6062992125984252,
          "duration": 0.0546875
        },
        {
          "name": "C#4",
          "midi": 61,
          "time": 43.6796875,
          "velocity": 0.6456692913385826,
          "duration": 0.1015625
        },
        {
          "name": "A#4",
          "midi": 70,
          "time": 43.875,
          "velocity": 0.6299212598425197,
          "duration": 0.171875
        },
        {
          "name": "F#4",
          "midi": 66,
          "time": 45.296875,
          "velocity": 0.6377952755905512,
          "duration": 0.046875
        },
        {
          "name": "F#3",
          "midi": 54,
          "time": 45.3671875,
          "velocity": 0.7795275590551181,
          "duration": 0.1484375
        },
        {
          "name": "C#4",
          "midi": 61,
          "time": 45.375,
          "velocity": 0.6220472440944882,
          "duration": 0.1328125
        },
        {
          "name": "G3",
          "midi": 55,
          "time": 45.5625,
          "velocity": 0.8110236220472441,
          "duration": 0.1640625
        },
        {
          "name": "E3",
          "midi": 52,
          "time": 45.859375,
          "velocity": 0.8503937007874016,
          "duration": 0.0390625
        },
        {
          "name": "G3",
          "midi": 55,
          "time": 45.9296875,
          "velocity": 0.9133858267716536,
          "duration": 0.1328125
        },
        {
          "name": "B3",
          "midi": 59,
          "time": 46.1171875,
          "velocity": 0.8818897637795275,
          "duration": 1.46875
        },
        {
          "name": "F#3",
          "midi": 54,
          "time": 47.0546875,
          "velocity": 0.8661417322834646,
          "duration": 0.171875
        },
        {
          "name": "F#4",
          "midi": 66,
          "time": 47.0625,
          "velocity": 0.8582677165354331,
          "duration": 0.15625
        },
        {
          "name": "G3",
          "midi": 55,
          "time": 47.2421875,
          "velocity": 0.8267716535433071,
          "duration": 0.1171875
        },
        {
          "name": "E3",
          "midi": 52,
          "time": 47.5390625,
          "velocity": 0.8740157480314961,
          "duration": 0.03125
        },
        {
          "name": "G3",
          "midi": 55,
          "time": 47.625,
          "velocity": 0.9212598425196851,
          "duration": 0.1328125
        },
        {
          "name": "B3",
          "midi": 59,
          "time": 47.8125,
          "velocity": 0.889763779527559,
          "duration": 1.109375
        },
        {
          "name": "F#4",
          "midi": 66,
          "time": 48.7421875,
          "velocity": 0.8818897637795275,
          "duration": 0.1640625
        },
        {
          "name": "F#3",
          "midi": 54,
          "time": 48.75,
          "velocity": 0.8740157480314961,
          "duration": 0.1640625
        },
        {
          "name": "G3",
          "midi": 55,
          "time": 48.9296875,
          "velocity": 0.8031496062992126,
          "duration": 0.140625
        },
        {
          "name": "E3",
          "midi": 52,
          "time": 49.2265625,
          "velocity": 0.8740157480314961,
          "duration": 0.0390625
        },
        {
          "name": "G3",
          "midi": 55,
          "time": 49.3125,
          "velocity": 0.905511811023622,
          "duration": 0.125
        },
        {
          "name": "C4",
          "midi": 60,
          "time": 49.5,
          "velocity": 0.9606299212598425,
          "duration": 0.53125
        },
        {
          "name": "F#3",
          "midi": 54,
          "time": 50.0625,
          "velocity": 0.8267716535433071,
          "duration": 0.53125
        },
        {
          "name": "D3",
          "midi": 50,
          "time": 50.625,
          "velocity": 0.8267716535433071,
          "duration": 0.140625
        },
        {
          "name": "F#3",
          "midi": 54,
          "time": 50.921875,
          "velocity": 0.84251968503937,
          "duration": 0.078125
        },
        {
          "name": "B3",
          "midi": 59,
          "time": 51,
          "velocity": 0.9212598425196851,
          "duration": 0.1328125
        },
        {
          "name": "D4",
          "midi": 62,
          "time": 51.1796875,
          "velocity": 0.9921259842519685,
          "duration": 1.4765625
        },
        {
          "name": "F#4",
          "midi": 66,
          "time": 53.734375,
          "velocity": 0.6220472440944882,
          "duration": 0.0625
        },
        {
          "name": "B3",
          "midi": 59,
          "time": 53.8203125,
          "velocity": 0.6456692913385826,
          "duration": 0.0390625
        },
        {
          "name": "F#3",
          "midi": 54,
          "time": 53.828125,
          "velocity": 0.7952755905511811,
          "duration": 0.1328125
        },
        {
          "name": "G3",
          "midi": 55,
          "time": 54.0078125,
          "velocity": 0.8031496062992126,
          "duration": 0.1328125
        },
        {
          "name": "E3",
          "midi": 52,
          "time": 54.3125,
          "velocity": 0.8582677165354331,
          "duration": 0.03125
        },
        {
          "name": "G3",
          "midi": 55,
          "time": 54.3828125,
          "velocity": 0.889763779527559,
          "duration": 0.0546875
        },
        {
          "name": "B3",
          "midi": 59,
          "time": 54.578125,
          "velocity": 0.9212598425196851,
          "duration": 1.4609375
        },
        {
          "name": "F#3",
          "midi": 54,
          "time": 55.515625,
          "velocity": 0.8503937007874016,
          "duration": 0.15625
        },
        {
          "name": "F#4",
          "midi": 66,
          "time": 55.515625,
          "velocity": 0.8818897637795275,
          "duration": 0.1484375
        },
        {
          "name": "G3",
          "midi": 55,
          "time": 55.6953125,
          "velocity": 0.84251968503937,
          "duration": 0.125
        },
        {
          "name": "G4",
          "midi": 67,
          "time": 55.703125,
          "velocity": 0.84251968503937,
          "duration": 0.140625
        },
        {
          "name": "E4",
          "midi": 64,
          "time": 55.9921875,
          "velocity": 0.8582677165354331,
          "duration": 0.0546875
        },
        {
          "name": "E3",
          "midi": 52,
          "time": 56,
          "velocity": 0.8661417322834646,
          "duration": 0.0390625
        },
        {
          "name": "G3",
          "midi": 55,
          "time": 56.0703125,
          "velocity": 0.9212598425196851,
          "duration": 0.140625
        },
        {
          "name": "G4",
          "midi": 67,
          "time": 56.078125,
          "velocity": 0.889763779527559,
          "duration": 0.1171875
        },
        {
          "name": "B4",
          "midi": 71,
          "time": 56.2578125,
          "velocity": 0.9212598425196851,
          "duration": 1.1015625
        },
        {
          "name": "B3",
          "midi": 59,
          "time": 56.265625,
          "velocity": 0.905511811023622,
          "duration": 1.1015625
        },
        {
          "name": "F#3",
          "midi": 54,
          "time": 57.1953125,
          "velocity": 0.84251968503937,
          "duration": 0.1640625
        },
        {
          "name": "F#4",
          "midi": 66,
          "time": 57.1953125,
          "velocity": 0.8661417322834646,
          "duration": 0.171875
        },
        {
          "name": "G4",
          "midi": 67,
          "time": 57.3828125,
          "velocity": 0.8188976377952756,
          "duration": 0.125
        },
        {
          "name": "G3",
          "midi": 55,
          "time": 57.390625,
          "velocity": 0.84251968503937,
          "duration": 0.1328125
        },
        {
          "name": "E3",
          "midi": 52,
          "time": 57.6796875,
          "velocity": 0.8740157480314961,
          "duration": 0.046875
        },
        {
          "name": "E4",
          "midi": 64,
          "time": 57.6796875,
          "velocity": 0.8503937007874016,
          "duration": 0.0546875
        },
        {
          "name": "G3",
          "midi": 55,
          "time": 57.7578125,
          "velocity": 0.889763779527559,
          "duration": 0.140625
        },
        {
          "name": "G4",
          "midi": 67,
          "time": 57.765625,
          "velocity": 0.9133858267716536,
          "duration": 0.125
        },
        {
          "name": "C#4",
          "midi": 61,
          "time": 57.9453125,
          "velocity": 0.8661417322834646,
          "duration": 0.515625
        },
        {
          "name": "C#5",
          "midi": 73,
          "time": 57.953125,
          "velocity": 0.84251968503937,
          "duration": 0.5234375
        },
        {
          "name": "F#3",
          "midi": 54,
          "time": 58.515625,
          "velocity": 0.8503937007874016,
          "duration": 0.515625
        },
        {
          "name": "F#4",
          "midi": 66,
          "time": 58.515625,
          "velocity": 0.84251968503937,
          "duration": 0.5234375
        },
        {
          "name": "F#4",
          "midi": 66,
          "time": 59.0703125,
          "velocity": 0.8188976377952756,
          "duration": 0.140625
        },
        {
          "name": "B2",
          "midi": 47,
          "time": 59.078125,
          "velocity": 0.8110236220472441,
          "duration": 0.140625
        },
        {
          "name": "D#4",
          "midi": 63,
          "time": 59.3671875,
          "velocity": 0.8740157480314961,
          "duration": 0.2109375
        },
        {
          "name": "B3",
          "midi": 59,
          "time": 59.375,
          "velocity": 0.8740157480314961,
          "duration": 0.0625
        },
        {
          "name": "F#4",
          "midi": 66,
          "time": 59.4453125,
          "velocity": 0.9133858267716536,
          "duration": 0.140625
        },
        {
          "name": "B3",
          "midi": 59,
          "time": 59.6328125,
          "velocity": 0.8582677165354331,
          "duration": 2.359375
        },
        {
          "name": "F#5",
          "midi": 78,
          "time": 59.640625,
          "velocity": 0.8976377952755905,
          "duration": 2.3515625
        },
        {
          "name": "B2",
          "midi": 47,
          "time": 61.3203125,
          "velocity": 0.7637795275590551,
          "duration": 0.0859375
        },
        {
          "name": "F3",
          "midi": 53,
          "time": 61.703125,
          "velocity": 0.7952755905511811,
          "duration": 0.0390625
        },
        {
          "name": "F#3",
          "midi": 54,
          "time": 61.890625,
          "velocity": 0.7874015748031497,
          "duration": 0.1015625
        },
        {
          "name": "F#4",
          "midi": 66,
          "time": 62.1796875,
          "velocity": 0.8031496062992126,
          "duration": 0.0390625
        },
        {
          "name": "B3",
          "midi": 59,
          "time": 62.2578125,
          "velocity": 0.7716535433070866,
          "duration": 0.0390625
        },
        {
          "name": "B2",
          "midi": 47,
          "time": 62.4453125,
          "velocity": 0.8031496062992126,
          "duration": 0.125
        },
        {
          "name": "B3",
          "midi": 59,
          "time": 62.453125,
          "velocity": 0.8346456692913385,
          "duration": 0.1171875
        },
        {
          "name": "F#2",
          "midi": 42,
          "time": 62.7421875,
          "velocity": 0.84251968503937,
          "duration": 0.0546875
        },
        {
          "name": "F#3",
          "midi": 54,
          "time": 62.75,
          "velocity": 0.8503937007874016,
          "duration": 0.0390625
        },
        {
          "name": "B3",
          "midi": 59,
          "time": 62.828125,
          "velocity": 0.889763779527559,
          "duration": 0.140625
        },
        {
          "name": "D3",
          "midi": 50,
          "time": 63.015625,
          "velocity": 0.9763779527559056,
          "duration": 0.5078125
        },
        {
          "name": "D4",
          "midi": 62,
          "time": 63.015625,
          "velocity": 0.9921259842519685,
          "duration": 0.5234375
        },
        {
          "name": "B2",
          "midi": 47,
          "time": 63.5703125,
          "velocity": 0.8582677165354331,
          "duration": 0.5078125
        },
        {
          "name": "B3",
          "midi": 59,
          "time": 63.5703125,
          "velocity": 0.8503937007874016,
          "duration": 0.53125
        },
        {
          "name": "D3",
          "midi": 50,
          "time": 64.140625,
          "velocity": 0.8110236220472441,
          "duration": 0.140625
        },
        {
          "name": "D4",
          "midi": 62,
          "time": 64.140625,
          "velocity": 0.8110236220472441,
          "duration": 0.125
        },
        {
          "name": "B2",
          "midi": 47,
          "time": 64.4296875,
          "velocity": 0.8818897637795275,
          "duration": 0.0390625
        },
        {
          "name": "B3",
          "midi": 59,
          "time": 64.4375,
          "velocity": 0.8503937007874016,
          "duration": 0.046875
        },
        {
          "name": "D3",
          "midi": 50,
          "time": 64.5078125,
          "velocity": 0.8818897637795275,
          "duration": 0.140625
        },
        {
          "name": "D4",
          "midi": 62,
          "time": 64.5078125,
          "velocity": 0.8976377952755905,
          "duration": 0.140625
        },
        {
          "name": "F#3",
          "midi": 54,
          "time": 64.6953125,
          "velocity": 0.984251968503937,
          "duration": 0.5234375
        },
        {
          "name": "F#4",
          "midi": 66,
          "time": 64.703125,
          "velocity": 0.9763779527559056,
          "duration": 0.515625
        },
        {
          "name": "D3",
          "midi": 50,
          "time": 65.2578125,
          "velocity": 0.8503937007874016,
          "duration": 0.5078125
        },
        {
          "name": "D4",
          "midi": 62,
          "time": 65.2578125,
          "velocity": 0.8188976377952756,
          "duration": 0.5234375
        },
        {
          "name": "F#3",
          "midi": 54,
          "time": 65.8203125,
          "velocity": 0.84251968503937,
          "duration": 0.140625
        },
        {
          "name": "F#4",
          "midi": 66,
          "time": 65.828125,
          "velocity": 0.8346456692913385,
          "duration": 0.125
        },
        {
          "name": "D3",
          "midi": 50,
          "time": 66.125,
          "velocity": 0.8503937007874016,
          "duration": 0.0546875
        },
        {
          "name": "D4",
          "midi": 62,
          "time": 66.125,
          "velocity": 0.8740157480314961,
          "duration": 0.0546875
        },
        {
          "name": "F#3",
          "midi": 54,
          "time": 66.1953125,
          "velocity": 0.889763779527559,
          "duration": 0.1171875
        },
        {
          "name": "F#4",
          "midi": 66,
          "time": 66.1953125,
          "velocity": 0.8976377952755905,
          "duration": 0.1171875
        },
        {
          "name": "A3",
          "midi": 57,
          "time": 66.390625,
          "velocity": 0.9921259842519685,
          "duration": 0.5078125
        },
        {
          "name": "A4",
          "midi": 69,
          "time": 66.390625,
          "velocity": 0.984251968503937,
          "duration": 0.53125
        },
        {
          "name": "A2",
          "midi": 45,
          "time": 66.953125,
          "velocity": 0.8582677165354331,
          "duration": 0.53125
        },
        {
          "name": "A3",
          "midi": 57,
          "time": 66.953125,
          "velocity": 0.84251968503937,
          "duration": 0.5234375
        },
        {
          "name": "D3",
          "midi": 50,
          "time": 67.5078125,
          "velocity": 0.8188976377952756,
          "duration": 0.1171875
        },
        {
          "name": "D4",
          "midi": 62,
          "time": 67.515625,
          "velocity": 0.8267716535433071,
          "duration": 0.125
        },
        {
          "name": "B2",
          "midi": 47,
          "time": 67.8046875,
          "velocity": 0.84251968503937,
          "duration": 0.046875
        },
        {
          "name": "B3",
          "midi": 59,
          "time": 67.8125,
          "velocity": 0.84251968503937,
          "duration": 0.046875
        },
        {
          "name": "D3",
          "midi": 50,
          "time": 67.890625,
          "velocity": 0.8976377952755905,
          "duration": 0.140625
        },
        {
          "name": "D4",
          "midi": 62,
          "time": 67.890625,
          "velocity": 0.8976377952755905,
          "duration": 0.140625
        },
        {
          "name": "F#3",
          "midi": 54,
          "time": 68.0703125,
          "velocity": 0.9606299212598425,
          "duration": 0.7109375
        },
        {
          "name": "F#4",
          "midi": 66,
          "time": 68.078125,
          "velocity": 0.9921259842519685,
          "duration": 0.734375
        },
        {
          "name": "A2",
          "midi": 45,
          "time": 69.0078125,
          "velocity": 0.8267716535433071,
          "duration": 0.1484375
        },
        {
          "name": "A3",
          "midi": 57,
          "time": 69.015625,
          "velocity": 0.8188976377952756,
          "duration": 0.1484375
        },
        {
          "name": "D4",
          "midi": 62,
          "time": 69.1953125,
          "velocity": 0.8346456692913385,
          "duration": 0.140625
        },
        {
          "name": "D3",
          "midi": 50,
          "time": 69.203125,
          "velocity": 0.8110236220472441,
          "duration": 0.140625
        },
        {
          "name": "A2",
          "midi": 45,
          "time": 69.5,
          "velocity": 0.8661417322834646,
          "duration": 0.03125
        },
        {
          "name": "A3",
          "midi": 57,
          "time": 69.5,
          "velocity": 0.8503937007874016,
          "duration": 0.046875
        },
        {
          "name": "D3",
          "midi": 50,
          "time": 69.578125,
          "velocity": 0.889763779527559,
          "duration": 0.1171875
        },
        {
          "name": "D4",
          "midi": 62,
          "time": 69.578125,
          "velocity": 0.905511811023622,
          "duration": 0.1171875
        },
        {
          "name": "F#3",
          "midi": 54,
          "time": 69.7578125,
          "velocity": 1,
          "duration": 0.53125
        },
        {
          "name": "F#4",
          "midi": 66,
          "time": 69.765625,
          "velocity": 1,
          "duration": 0.5234375
        },
        {
          "name": "D4",
          "midi": 62,
          "time": 70.3203125,
          "velocity": 0.84251968503937,
          "duration": 0.515625
        },
        {
          "name": "D3",
          "midi": 50,
          "time": 70.328125,
          "velocity": 0.84251968503937,
          "duration": 0.5078125
        },
        {
          "name": "F#4",
          "midi": 66,
          "time": 70.8828125,
          "velocity": 0.84251968503937,
          "duration": 0.125
        },
        {
          "name": "F#3",
          "midi": 54,
          "time": 70.890625,
          "velocity": 0.8346456692913385,
          "duration": 0.1171875
        },
        {
          "name": "D3",
          "midi": 50,
          "time": 71.1796875,
          "velocity": 0.8503937007874016,
          "duration": 0.0390625
        },
        {
          "name": "D4",
          "midi": 62,
          "time": 71.1796875,
          "velocity": 0.8582677165354331,
          "duration": 0.046875
        },
        {
          "name": "F#3",
          "midi": 54,
          "time": 71.2578125,
          "velocity": 0.8818897637795275,
          "duration": 0.125
        },
        {
          "name": "F#4",
          "midi": 66,
          "time": 71.265625,
          "velocity": 0.8976377952755905,
          "duration": 0.1328125
        },
        {
          "name": "A3",
          "midi": 57,
          "time": 71.4453125,
          "velocity": 0.9763779527559056,
          "duration": 0.5078125
        },
        {
          "name": "A4",
          "midi": 69,
          "time": 71.4453125,
          "velocity": 0.9763779527559056,
          "duration": 0.53125
        },
        {
          "name": "F#3",
          "midi": 54,
          "time": 72.0078125,
          "velocity": 0.8503937007874016,
          "duration": 0.53125
        },
        {
          "name": "F#4",
          "midi": 66,
          "time": 72.015625,
          "velocity": 0.8346456692913385,
          "duration": 0.5234375
        },
        {
          "name": "A3",
          "midi": 57,
          "time": 72.578125,
          "velocity": 0.905511811023622,
          "duration": 0.1328125
        },
        {
          "name": "A4",
          "midi": 69,
          "time": 72.578125,
          "velocity": 0.905511811023622,
          "duration": 0.140625
        },
        {
          "name": "F#3",
          "midi": 54,
          "time": 72.8671875,
          "velocity": 0.9448818897637795,
          "duration": 0.046875
        },
        {
          "name": "F#4",
          "midi": 66,
          "time": 72.8671875,
          "velocity": 0.9212598425196851,
          "duration": 0.03125
        },
        {
          "name": "A3",
          "midi": 57,
          "time": 72.9453125,
          "velocity": 0.968503937007874,
          "duration": 0.1328125
        },
        {
          "name": "A4",
          "midi": 69,
          "time": 72.9453125,
          "velocity": 0.9763779527559056,
          "duration": 0.140625
        },
        {
          "name": "C#4",
          "midi": 61,
          "time": 73.140625,
          "velocity": 0.9921259842519685,
          "duration": 0.53125
        },
        {
          "name": "C#5",
          "midi": 73,
          "time": 73.140625,
          "velocity": 0.984251968503937,
          "duration": 0.53125
        },
        {
          "name": "C#3",
          "midi": 49,
          "time": 73.6953125,
          "velocity": 0.9212598425196851,
          "duration": 0.53125
        },
        {
          "name": "C#4",
          "midi": 61,
          "time": 73.703125,
          "velocity": 0.937007874015748,
          "duration": 0.5234375
        },
        {
          "name": "F#3",
          "midi": 54,
          "time": 74.2578125,
          "velocity": 0.9212598425196851,
          "duration": 0.125
        },
        {
          "name": "F#4",
          "midi": 66,
          "time": 74.265625,
          "velocity": 0.9212598425196851,
          "duration": 0.140625
        },
        {
          "name": "C#3",
          "midi": 49,
          "time": 74.5625,
          "velocity": 0.952755905511811,
          "duration": 0.046875
        },
        {
          "name": "C#4",
          "midi": 61,
          "time": 74.5625,
          "velocity": 0.9291338582677166,
          "duration": 0.0390625
        },
        {
          "name": "F#3",
          "midi": 54,
          "time": 74.6328125,
          "velocity": 0.9763779527559056,
          "duration": 0.125
        },
        {
          "name": "F#4",
          "midi": 66,
          "time": 74.640625,
          "velocity": 0.9763779527559056,
          "duration": 0.1328125
        },
        {
          "name": "A#3",
          "midi": 58,
          "time": 74.8203125,
          "velocity": 1,
          "duration": 1.109375
        },
        {
          "name": "C#3",
          "midi": 49,
          "time": 74.828125,
          "velocity": 1,
          "duration": 0.0859375
        },
        {
          "name": "B3",
          "midi": 59,
          "time": 75.9453125,
          "velocity": 0.6377952755905512,
          "duration": 0.515625
        },
        {
          "name": "D#4",
          "midi": 63,
          "time": 76.515625,
          "velocity": 0.6141732283464567,
          "duration": 0.0625
        },
        {
          "name": "B3",
          "midi": 59,
          "time": 76.796875,
          "velocity": 0.6299212598425197,
          "duration": 0.0625
        },
        {
          "name": "B3",
          "midi": 59,
          "time": 76.890625,
          "velocity": 0.6377952755905512,
          "duration": 0.0390625
        },
        {
          "name": "B2",
          "midi": 47,
          "time": 76.890625,
          "velocity": 0.6377952755905512,
          "duration": 0.046875
        },
        {
          "name": "D#4",
          "midi": 63,
          "time": 76.890625,
          "velocity": 0.6141732283464567,
          "duration": 0.140625
        },
        {
          "name": "B2",
          "midi": 47,
          "time": 76.9765625,
          "velocity": 0.6456692913385826,
          "duration": 0.0390625
        },
        {
          "name": "B3",
          "midi": 59,
          "time": 76.984375,
          "velocity": 0.6377952755905512,
          "duration": 0.0390625
        },
        {
          "name": "B3",
          "midi": 59,
          "time": 77.0703125,
          "velocity": 0.6062992125984252,
          "duration": 0.1328125
        },
        {
          "name": "B2",
          "midi": 47,
          "time": 77.078125,
          "velocity": 0.6062992125984252,
          "duration": 0.140625
        },
        {
          "name": "G4",
          "midi": 67,
          "time": 77.078125,
          "velocity": 0.6141732283464567,
          "duration": 0.296875
        },
        {
          "name": "B2",
          "midi": 47,
          "time": 77.4453125,
          "velocity": 0.6456692913385826,
          "duration": 0.0390625
        },
        {
          "name": "G3",
          "midi": 55,
          "time": 77.453125,
          "velocity": 0.6062992125984252,
          "duration": 0.1328125
        },
        {
          "name": "B3",
          "midi": 59,
          "time": 77.453125,
          "velocity": 0.6141732283464567,
          "duration": 0.0546875
        },
        {
          "name": "B2",
          "midi": 47,
          "time": 77.5390625,
          "velocity": 0.6377952755905512,
          "duration": 0.046875
        },
        {
          "name": "B3",
          "midi": 59,
          "time": 77.546875,
          "velocity": 0.6377952755905512,
          "duration": 0.046875
        },
        {
          "name": "B3",
          "midi": 59,
          "time": 77.640625,
          "velocity": 0.6456692913385826,
          "duration": 0.53125
        },
        {
          "name": "D#4",
          "midi": 63,
          "time": 78.203125,
          "velocity": 0.6220472440944882,
          "duration": 0.0390625
        },
        {
          "name": "B3",
          "midi": 59,
          "time": 78.4765625,
          "velocity": 0.6062992125984252,
          "duration": 0.0625
        },
        {
          "name": "B3",
          "midi": 59,
          "time": 78.578125,
          "velocity": 0.6062992125984252,
          "duration": 0.046875
        },
        {
          "name": "B2",
          "midi": 47,
          "time": 78.578125,
          "velocity": 0.6377952755905512,
          "duration": 0.0546875
        },
        {
          "name": "D#4",
          "midi": 63,
          "time": 78.578125,
          "velocity": 0.6299212598425197,
          "duration": 0.125
        },
        {
          "name": "B2",
          "midi": 47,
          "time": 78.6640625,
          "velocity": 0.6377952755905512,
          "duration": 0.0625
        },
        {
          "name": "B3",
          "midi": 59,
          "time": 78.6640625,
          "velocity": 0.6299212598425197,
          "duration": 0.046875
        },
        {
          "name": "B3",
          "midi": 59,
          "time": 78.7578125,
          "velocity": 0.6850393700787402,
          "duration": 0.125
        },
        {
          "name": "B2",
          "midi": 47,
          "time": 78.7578125,
          "velocity": 0.7165354330708661,
          "duration": 0.125
        },
        {
          "name": "G4",
          "midi": 67,
          "time": 78.765625,
          "velocity": 0.6929133858267716,
          "duration": 0.2890625
        },
        {
          "name": "G3",
          "midi": 55,
          "time": 79.140625,
          "velocity": 0.7952755905511811,
          "duration": 0.125
        },
        {
          "name": "B2",
          "midi": 47,
          "time": 79.140625,
          "velocity": 0.7637795275590551,
          "duration": 0.0625
        },
        {
          "name": "B3",
          "midi": 59,
          "time": 79.140625,
          "velocity": 0.7637795275590551,
          "duration": 0.0546875
        },
        {
          "name": "B2",
          "midi": 47,
          "time": 79.2265625,
          "velocity": 0.8503937007874016,
          "duration": 0.0390625
        },
        {
          "name": "B3",
          "midi": 59,
          "time": 79.2265625,
          "velocity": 0.8740157480314961,
          "duration": 0.0546875
        },
        {
          "name": "E3",
          "midi": 52,
          "time": 79.328125,
          "velocity": 0.7874015748031497,
          "duration": 3.3359375
        },
        {
          "name": "E4",
          "midi": 64,
          "time": 79.328125,
          "velocity": 0.7874015748031497,
          "duration": 3.328125
        },
        {
          "name": "A3",
          "midi": 57,
          "time": 82.703125,
          "velocity": 0.6377952755905512,
          "duration": 0.5078125
        },
        {
          "name": "C4",
          "midi": 60,
          "time": 83.2578125,
          "velocity": 0.6220472440944882,
          "duration": 0.0390625
        },
        {
          "name": "G3",
          "midi": 55,
          "time": 83.546875,
          "velocity": 0.6377952755905512,
          "duration": 0.046875
        },
        {
          "name": "E3",
          "midi": 52,
          "time": 83.6328125,
          "velocity": 0.6299212598425197,
          "duration": 0.046875
        },
        {
          "name": "C4",
          "midi": 60,
          "time": 83.6328125,
          "velocity": 0.6062992125984252,
          "duration": 0.140625
        },
        {
          "name": "E3",
          "midi": 52,
          "time": 83.734375,
          "velocity": 0.6220472440944882,
          "duration": 0.0546875
        },
        {
          "name": "E3",
          "midi": 52,
          "time": 83.8203125,
          "velocity": 0.6299212598425197,
          "duration": 0.125
        },
        {
          "name": "E4",
          "midi": 64,
          "time": 83.8203125,
          "velocity": 0.6299212598425197,
          "duration": 0.28125
        },
        {
          "name": "E3",
          "midi": 52,
          "time": 84.1953125,
          "velocity": 0.6141732283464567,
          "duration": 0.0390625
        },
        {
          "name": "E3",
          "midi": 52,
          "time": 84.2890625,
          "velocity": 0.6377952755905512,
          "duration": 0.0546875
        },
        {
          "name": "A3",
          "midi": 57,
          "time": 84.3828125,
          "velocity": 0.6220472440944882,
          "duration": 0.53125
        },
        {
          "name": "C4",
          "midi": 60,
          "time": 84.953125,
          "velocity": 0.6299212598425197,
          "duration": 0.0546875
        },
        {
          "name": "G3",
          "midi": 55,
          "time": 85.234375,
          "velocity": 0.6220472440944882,
          "duration": 0.046875
        },
        {
          "name": "E3",
          "midi": 52,
          "time": 85.3203125,
          "velocity": 0.6299212598425197,
          "duration": 0.0390625
        },
        {
          "name": "C4",
          "midi": 60,
          "time": 85.3203125,
          "velocity": 0.6299212598425197,
          "duration": 0.125
        },
        {
          "name": "E3",
          "midi": 52,
          "time": 85.421875,
          "velocity": 0.6220472440944882,
          "duration": 0.0546875
        },
        {
          "name": "E3",
          "midi": 52,
          "time": 85.5078125,
          "velocity": 0.6456692913385826,
          "duration": 0.125
        },
        {
          "name": "E4",
          "midi": 64,
          "time": 85.5078125,
          "velocity": 0.6141732283464567,
          "duration": 0.2890625
        },
        {
          "name": "E3",
          "midi": 52,
          "time": 85.8828125,
          "velocity": 0.6141732283464567,
          "duration": 0.0546875
        },
        {
          "name": "E3",
          "midi": 52,
          "time": 85.984375,
          "velocity": 0.6062992125984252,
          "duration": 0.0390625
        },
        {
          "name": "F#3",
          "midi": 54,
          "time": 86.0703125,
          "velocity": 0.8031496062992126,
          "duration": 3.3203125
        },
        {
          "name": "F#4",
          "midi": 66,
          "time": 86.078125,
          "velocity": 0.7716535433070866,
          "duration": 3.34375
        },
        {
          "name": "B2",
          "midi": 47,
          "time": 90.3828125,
          "velocity": 0.6220472440944882,
          "duration": 0.046875
        },
        {
          "name": "B3",
          "midi": 59,
          "time": 90.390625,
          "velocity": 0.6456692913385826,
          "duration": 0.0390625
        },
        {
          "name": "B2",
          "midi": 47,
          "time": 90.4765625,
          "velocity": 0.6062992125984252,
          "duration": 0.0546875
        },
        {
          "name": "B3",
          "midi": 59,
          "time": 90.4765625,
          "velocity": 0.6141732283464567,
          "duration": 0.046875
        },
        {
          "name": "B2",
          "midi": 47,
          "time": 90.5703125,
          "velocity": 0.6220472440944882,
          "duration": 0.1328125
        },
        {
          "name": "B3",
          "midi": 59,
          "time": 90.5703125,
          "velocity": 0.6456692913385826,
          "duration": 0.125
        },
        {
          "name": "B2",
          "midi": 47,
          "time": 92.0703125,
          "velocity": 0.6377952755905512,
          "duration": 0.0390625
        },
        {
          "name": "B3",
          "midi": 59,
          "time": 92.0703125,
          "velocity": 0.6062992125984252,
          "duration": 0.0625
        },
        {
          "name": "B3",
          "midi": 59,
          "time": 92.1640625,
          "velocity": 0.6062992125984252,
          "duration": 0.0625
        },
        {
          "name": "B2",
          "midi": 47,
          "time": 92.171875,
          "velocity": 0.6220472440944882,
          "duration": 0.0390625
        },
        {
          "name": "B2",
          "midi": 47,
          "time": 92.2578125,
          "velocity": 0.6141732283464567,
          "duration": 0.1328125
        },
        {
          "name": "B3",
          "midi": 59,
          "time": 92.265625,
          "velocity": 0.6299212598425197,
          "duration": 0.140625
        },
        {
          "name": "E3",
          "midi": 52,
          "time": 93.7578125,
          "velocity": 0.6141732283464567,
          "duration": 0.0546875
        },
        {
          "name": "E2",
          "midi": 40,
          "time": 93.765625,
          "velocity": 0.6377952755905512,
          "duration": 0.0546875
        },
        {
          "name": "E2",
          "midi": 40,
          "time": 93.8515625,
          "velocity": 0.6299212598425197,
          "duration": 0.046875
        },
        {
          "name": "E3",
          "midi": 52,
          "time": 93.8515625,
          "velocity": 0.6456692913385826,
          "duration": 0.0625
        },
        {
          "name": "E2",
          "midi": 40,
          "time": 93.953125,
          "velocity": 0.6062992125984252,
          "duration": 0.140625
        },
        {
          "name": "E3",
          "midi": 52,
          "time": 93.953125,
          "velocity": 0.6062992125984252,
          "duration": 0.140625
        },
        {
          "name": "C4",
          "midi": 60,
          "time": 94.5078125,
          "velocity": 0.48031496062992124,
          "duration": 1.4453125
        },
        {
          "name": "E3",
          "midi": 52,
          "time": 94.515625,
          "velocity": 0.4881889763779528,
          "duration": 1.4609375
        },
        {
          "name": "E4",
          "midi": 64,
          "time": 94.515625,
          "velocity": 0.48031496062992124,
          "duration": 1.4453125
        },
        {
          "name": "G4",
          "midi": 67,
          "time": 94.515625,
          "velocity": 0.48031496062992124,
          "duration": 1.453125
        },
        {
          "name": "G4",
          "midi": 67,
          "time": 96.0078125,
          "velocity": 0.44881889763779526,
          "duration": 0.0390625
        },
        {
          "name": "E3",
          "midi": 52,
          "time": 96.015625,
          "velocity": 0.4566929133858268,
          "duration": 0.0546875
        },
        {
          "name": "E4",
          "midi": 64,
          "time": 96.015625,
          "velocity": 0.4645669291338583,
          "duration": 0.046875
        },
        {
          "name": "C4",
          "midi": 60,
          "time": 96.015625,
          "velocity": 0.47244094488188976,
          "duration": 0.046875
        },
        {
          "name": "C4",
          "midi": 60,
          "time": 96.1015625,
          "velocity": 0.48031496062992124,
          "duration": 0.0390625
        },
        {
          "name": "G4",
          "midi": 67,
          "time": 96.1015625,
          "velocity": 0.4881889763779528,
          "duration": 0.046875
        },
        {
          "name": "E3",
          "midi": 52,
          "time": 96.109375,
          "velocity": 0.48031496062992124,
          "duration": 0.0625
        },
        {
          "name": "E4",
          "midi": 64,
          "time": 96.109375,
          "velocity": 0.47244094488188976,
          "duration": 0.0625
        },
        {
          "name": "F#4",
          "midi": 66,
          "time": 96.1953125,
          "velocity": 0.4881889763779528,
          "duration": 3.046875
        },
        {
          "name": "F#3",
          "midi": 54,
          "time": 96.203125,
          "velocity": 0.4566929133858268,
          "duration": 3.046875
        },
        {
          "name": "F#4",
          "midi": 66,
          "time": 99.3828125,
          "velocity": 0.9448818897637795,
          "duration": 0.1015625
        },
        {
          "name": "F#3",
          "midi": 54,
          "time": 99.390625,
          "velocity": 0.9212598425196851,
          "duration": 0.09375
        },
        {
          "name": "B2",
          "midi": 47,
          "time": 99.578125,
          "velocity": 0.9921259842519685,
          "duration": 0.125
        },
        {
          "name": "B3",
          "midi": 59,
          "time": 99.578125,
          "velocity": 0.9606299212598425,
          "duration": 0.125
        },
        {
          "name": "F#3",
          "midi": 54,
          "time": 99.8671875,
          "velocity": 0.8582677165354331,
          "duration": 0.0625
        },
        {
          "name": "F#2",
          "midi": 42,
          "time": 99.875,
          "velocity": 0.8661417322834646,
          "duration": 0.0546875
        },
        {
          "name": "B2",
          "midi": 47,
          "time": 99.9453125,
          "velocity": 0.9133858267716536,
          "duration": 0.1484375
        },
        {
          "name": "B3",
          "midi": 59,
          "time": 99.9453125,
          "velocity": 0.905511811023622,
          "duration": 0.140625
        },
        {
          "name": "D#3",
          "midi": 51,
          "time": 100.1328125,
          "velocity": 0.9763779527559056,
          "duration": 0.5234375
        },
        {
          "name": "D#4",
          "midi": 63,
          "time": 100.1328125,
          "velocity": 0.9921259842519685,
          "duration": 0.5078125
        },
        {
          "name": "B2",
          "midi": 47,
          "time": 100.6953125,
          "velocity": 0.8582677165354331,
          "duration": 0.5234375
        },
        {
          "name": "B3",
          "midi": 59,
          "time": 100.703125,
          "velocity": 0.8188976377952756,
          "duration": 0.515625
        },
        {
          "name": "D#3",
          "midi": 51,
          "time": 101.2578125,
          "velocity": 0.8031496062992126,
          "duration": 0.140625
        },
        {
          "name": "D#4",
          "midi": 63,
          "time": 101.265625,
          "velocity": 0.8110236220472441,
          "duration": 0.140625
        },
        {
          "name": "B2",
          "midi": 47,
          "time": 101.5546875,
          "velocity": 0.8740157480314961,
          "duration": 0.0546875
        },
        {
          "name": "B3",
          "midi": 59,
          "time": 101.5546875,
          "velocity": 0.8503937007874016,
          "duration": 0.0625
        },
        {
          "name": "D#3",
          "midi": 51,
          "time": 101.640625,
          "velocity": 0.9212598425196851,
          "duration": 0.1171875
        },
        {
          "name": "D#4",
          "midi": 63,
          "time": 101.640625,
          "velocity": 0.8976377952755905,
          "duration": 0.125
        },
        {
          "name": "F#3",
          "midi": 54,
          "time": 101.828125,
          "velocity": 1,
          "duration": 0.5078125
        },
        {
          "name": "F#4",
          "midi": 66,
          "time": 101.828125,
          "velocity": 0.9921259842519685,
          "duration": 0.5078125
        },
        {
          "name": "D#3",
          "midi": 51,
          "time": 102.390625,
          "velocity": 0.8346456692913385,
          "duration": 0.53125
        },
        {
          "name": "D#4",
          "midi": 63,
          "time": 102.390625,
          "velocity": 0.84251968503937,
          "duration": 0.5078125
        },
        {
          "name": "F#3",
          "midi": 54,
          "time": 102.9453125,
          "velocity": 0.8188976377952756,
          "duration": 0.125
        },
        {
          "name": "F#4",
          "midi": 66,
          "time": 102.953125,
          "velocity": 0.8188976377952756,
          "duration": 0.1171875
        },
        {
          "name": "D#4",
          "midi": 63,
          "time": 103.2421875,
          "velocity": 0.8818897637795275,
          "duration": 0.0390625
        },
        {
          "name": "D#3",
          "midi": 51,
          "time": 103.25,
          "velocity": 0.8661417322834646,
          "duration": 0.046875
        },
        {
          "name": "F#3",
          "midi": 54,
          "time": 103.3203125,
          "velocity": 0.905511811023622,
          "duration": 0.1328125
        },
        {
          "name": "F#4",
          "midi": 66,
          "time": 103.3203125,
          "velocity": 0.9212598425196851,
          "duration": 0.1328125
        },
        {
          "name": "A#3",
          "midi": 58,
          "time": 103.5078125,
          "velocity": 0.9606299212598425,
          "duration": 0.53125
        },
        {
          "name": "A#4",
          "midi": 70,
          "time": 103.5078125,
          "velocity": 0.9606299212598425,
          "duration": 0.5078125
        },
        {
          "name": "A#3",
          "midi": 58,
          "time": 104.0703125,
          "velocity": 0.84251968503937,
          "duration": 0.515625
        },
        {
          "name": "A#2",
          "midi": 46,
          "time": 104.078125,
          "velocity": 0.8582677165354331,
          "duration": 0.5078125
        },
        {
          "name": "D#3",
          "midi": 51,
          "time": 104.6328125,
          "velocity": 0.8267716535433071,
          "duration": 0.140625
        },
        {
          "name": "D#4",
          "midi": 63,
          "time": 104.6328125,
          "velocity": 0.8267716535433071,
          "duration": 0.1171875
        },
        {
          "name": "A#2",
          "midi": 46,
          "time": 104.9375,
          "velocity": 0.8740157480314961,
          "duration": 0.0390625
        },
        {
          "name": "A#3",
          "midi": 58,
          "time": 104.9375,
          "velocity": 0.8503937007874016,
          "duration": 0.0390625
        },
        {
          "name": "D#3",
          "midi": 51,
          "time": 105.0078125,
          "velocity": 0.8818897637795275,
          "duration": 0.1328125
        },
        {
          "name": "D#4",
          "midi": 63,
          "time": 105.015625,
          "velocity": 0.9212598425196851,
          "duration": 0.1328125
        },
        {
          "name": "F#3",
          "midi": 54,
          "time": 105.203125,
          "velocity": 1,
          "duration": 0.7265625
        },
        {
          "name": "F#4",
          "midi": 66,
          "time": 105.203125,
          "velocity": 0.968503937007874,
          "duration": 0.71875
        },
        {
          "name": "A#2",
          "midi": 46,
          "time": 106.140625,
          "velocity": 0.8267716535433071,
          "duration": 0.125
        },
        {
          "name": "A#3",
          "midi": 58,
          "time": 106.140625,
          "velocity": 0.8503937007874016,
          "duration": 0.125
        },
        {
          "name": "D#3",
          "midi": 51,
          "time": 106.328125,
          "velocity": 0.8267716535433071,
          "duration": 0.125
        },
        {
          "name": "D#4",
          "midi": 63,
          "time": 106.328125,
          "velocity": 0.84251968503937,
          "duration": 0.125
        },
        {
          "name": "B2",
          "midi": 47,
          "time": 106.6171875,
          "velocity": 0.8661417322834646,
          "duration": 0.046875
        },
        {
          "name": "B3",
          "midi": 59,
          "time": 106.625,
          "velocity": 0.8818897637795275,
          "duration": 0.0390625
        },
        {
          "name": "D#3",
          "midi": 51,
          "time": 106.6953125,
          "velocity": 0.905511811023622,
          "duration": 0.125
        },
        {
          "name": "D#4",
          "midi": 63,
          "time": 106.703125,
          "velocity": 0.905511811023622,
          "duration": 0.125
        },
        {
          "name": "F#3",
          "midi": 54,
          "time": 106.8828125,
          "velocity": 1,
          "duration": 0.5234375
        },
        {
          "name": "F#4",
          "midi": 66,
          "time": 106.8828125,
          "velocity": 0.968503937007874,
          "duration": 0.5078125
        },
        {
          "name": "D#3",
          "midi": 51,
          "time": 107.4453125,
          "velocity": 0.8503937007874016,
          "duration": 0.53125
        },
        {
          "name": "D#4",
          "midi": 63,
          "time": 107.453125,
          "velocity": 0.8188976377952756,
          "duration": 0.5078125
        },
        {
          "name": "F#3",
          "midi": 54,
          "time": 108.015625,
          "velocity": 0.84251968503937,
          "duration": 0.140625
        },
        {
          "name": "F#4",
          "midi": 66,
          "time": 108.015625,
          "velocity": 0.8031496062992126,
          "duration": 0.1171875
        },
        {
          "name": "D#3",
          "midi": 51,
          "time": 108.3046875,
          "velocity": 0.8818897637795275,
          "duration": 0.0390625
        },
        {
          "name": "D#4",
          "midi": 63,
          "time": 108.3125,
          "velocity": 0.8582677165354331,
          "duration": 0.0390625
        },
        {
          "name": "F#3",
          "midi": 54,
          "time": 108.390625,
          "velocity": 0.8976377952755905,
          "duration": 0.125
        },
        {
          "name": "F#4",
          "midi": 66,
          "time": 108.390625,
          "velocity": 0.8818897637795275,
          "duration": 0.140625
        },
        {
          "name": "A#3",
          "midi": 58,
          "time": 108.578125,
          "velocity": 0.9763779527559056,
          "duration": 0.53125
        },
        {
          "name": "A#4",
          "midi": 70,
          "time": 108.578125,
          "velocity": 0.9763779527559056,
          "duration": 0.53125
        },
        {
          "name": "F#3",
          "midi": 54,
          "time": 109.140625,
          "velocity": 0.8267716535433071,
          "duration": 0.5078125
        },
        {
          "name": "F#4",
          "midi": 66,
          "time": 109.140625,
          "velocity": 0.8503937007874016,
          "duration": 0.515625
        },
        {
          "name": "A#3",
          "midi": 58,
          "time": 109.6953125,
          "velocity": 0.8031496062992126,
          "duration": 0.1171875
        },
        {
          "name": "A#4",
          "midi": 70,
          "time": 109.703125,
          "velocity": 0.8110236220472441,
          "duration": 0.1328125
        },
        {
          "name": "F#3",
          "midi": 54,
          "time": 109.9921875,
          "velocity": 0.84251968503937,
          "duration": 0.0546875
        },
        {
          "name": "F#4",
          "midi": 66,
          "time": 110,
          "velocity": 0.8740157480314961,
          "duration": 0.0625
        },
        {
          "name": "A#3",
          "midi": 58,
          "time": 110.0703125,
          "velocity": 0.8818897637795275,
          "duration": 0.1171875
        },
        {
          "name": "A#4",
          "midi": 70,
          "time": 110.078125,
          "velocity": 0.8976377952755905,
          "duration": 0.1328125
        },
        {
          "name": "C#4",
          "midi": 61,
          "time": 110.265625,
          "velocity": 0.9921259842519685,
          "duration": 0.515625
        },
        {
          "name": "C#5",
          "midi": 73,
          "time": 110.265625,
          "velocity": 0.9606299212598425,
          "duration": 0.53125
        },
        {
          "name": "C#4",
          "midi": 61,
          "time": 110.8203125,
          "velocity": 0.8503937007874016,
          "duration": 0.5234375
        },
        {
          "name": "C#3",
          "midi": 49,
          "time": 110.828125,
          "velocity": 0.8582677165354331,
          "duration": 0.5234375
        },
        {
          "name": "F#3",
          "midi": 54,
          "time": 111.390625,
          "velocity": 0.8267716535433071,
          "duration": 0.140625
        },
        {
          "name": "F#4",
          "midi": 66,
          "time": 111.390625,
          "velocity": 0.8346456692913385,
          "duration": 0.125
        },
        {
          "name": "C#4",
          "midi": 61,
          "time": 111.6796875,
          "velocity": 0.8582677165354331,
          "duration": 0.046875
        },
        {
          "name": "C#3",
          "midi": 49,
          "time": 111.6875,
          "velocity": 0.8818897637795275,
          "duration": 0.046875
        },
        {
          "name": "F#4",
          "midi": 66,
          "time": 111.7578125,
          "velocity": 0.905511811023622,
          "duration": 0.125
        },
        {
          "name": "F#3",
          "midi": 54,
          "time": 111.765625,
          "velocity": 0.905511811023622,
          "duration": 0.1328125
        },
        {
          "name": "A#3",
          "midi": 58,
          "time": 111.9453125,
          "velocity": 0.9606299212598425,
          "duration": 0.71875
        },
        {
          "name": "A#4",
          "midi": 70,
          "time": 111.9453125,
          "velocity": 0.9606299212598425,
          "duration": 0.7265625
        },
        {
          "name": "F#3",
          "midi": 54,
          "time": 112.8828125,
          "velocity": 0.8582677165354331,
          "duration": 0.125
        },
        {
          "name": "F#4",
          "midi": 66,
          "time": 112.8828125,
          "velocity": 0.8582677165354331,
          "duration": 0.125
        },
        {
          "name": "G#3",
          "midi": 56,
          "time": 113.0703125,
          "velocity": 0.84251968503937,
          "duration": 0.1328125
        },
        {
          "name": "G#4",
          "midi": 68,
          "time": 113.0703125,
          "velocity": 0.8267716535433071,
          "duration": 0.140625
        },
        {
          "name": "E3",
          "midi": 52,
          "time": 113.3671875,
          "velocity": 0.8582677165354331,
          "duration": 0.0546875
        },
        {
          "name": "E4",
          "midi": 64,
          "time": 113.375,
          "velocity": 0.8818897637795275,
          "duration": 0.0390625
        },
        {
          "name": "G#3",
          "midi": 56,
          "time": 113.453125,
          "velocity": 0.889763779527559,
          "duration": 0.1328125
        },
        {
          "name": "G#4",
          "midi": 68,
          "time": 113.453125,
          "velocity": 0.9212598425196851,
          "duration": 0.140625
        },
        {
          "name": "B3",
          "midi": 59,
          "time": 113.6328125,
          "velocity": 0.968503937007874,
          "duration": 0.7265625
        },
        {
          "name": "B4",
          "midi": 71,
          "time": 113.6328125,
          "velocity": 0.9606299212598425,
          "duration": 0.734375
        },
        {
          "name": "F#3",
          "midi": 54,
          "time": 114.578125,
          "velocity": 0.8267716535433071,
          "duration": 0.140625
        },
        {
          "name": "F#4",
          "midi": 66,
          "time": 114.578125,
          "velocity": 0.84251968503937,
          "duration": 0.1328125
        },
        {
          "name": "G#3",
          "midi": 56,
          "time": 114.7578125,
          "velocity": 0.8346456692913385,
          "duration": 0.1171875
        },
        {
          "name": "G#4",
          "midi": 68,
          "time": 114.7578125,
          "velocity": 0.8110236220472441,
          "duration": 0.125
        },
        {
          "name": "E3",
          "midi": 52,
          "time": 115.0546875,
          "velocity": 0.8582677165354331,
          "duration": 0.046875
        },
        {
          "name": "E4",
          "midi": 64,
          "time": 115.0546875,
          "velocity": 0.8503937007874016,
          "duration": 0.0390625
        },
        {
          "name": "G#3",
          "midi": 56,
          "time": 115.140625,
          "velocity": 0.8976377952755905,
          "duration": 0.140625
        },
        {
          "name": "G#4",
          "midi": 68,
          "time": 115.140625,
          "velocity": 0.889763779527559,
          "duration": 0.125
        },
        {
          "name": "B3",
          "midi": 59,
          "time": 115.3203125,
          "velocity": 0.9921259842519685,
          "duration": 0.734375
        },
        {
          "name": "B4",
          "midi": 71,
          "time": 115.3203125,
          "velocity": 1,
          "duration": 0.7109375
        },
        {
          "name": "F#3",
          "midi": 54,
          "time": 116.265625,
          "velocity": 0.8188976377952756,
          "duration": 0.1171875
        },
        {
          "name": "F#4",
          "midi": 66,
          "time": 116.265625,
          "velocity": 0.8188976377952756,
          "duration": 0.1328125
        },
        {
          "name": "G#3",
          "midi": 56,
          "time": 116.4453125,
          "velocity": 0.8110236220472441,
          "duration": 0.1171875
        },
        {
          "name": "G#4",
          "midi": 68,
          "time": 116.4453125,
          "velocity": 0.84251968503937,
          "duration": 0.1171875
        },
        {
          "name": "E3",
          "midi": 52,
          "time": 116.7421875,
          "velocity": 0.8818897637795275,
          "duration": 0.046875
        },
        {
          "name": "E4",
          "midi": 64,
          "time": 116.75,
          "velocity": 0.8582677165354331,
          "duration": 0.0625
        },
        {
          "name": "G#3",
          "midi": 56,
          "time": 116.8203125,
          "velocity": 0.905511811023622,
          "duration": 0.140625
        },
        {
          "name": "G#4",
          "midi": 68,
          "time": 116.828125,
          "velocity": 0.9212598425196851,
          "duration": 0.140625
        },
        {
          "name": "C#4",
          "midi": 61,
          "time": 117.0078125,
          "velocity": 0.9763779527559056,
          "duration": 0.515625
        },
        {
          "name": "C#5",
          "midi": 73,
          "time": 117.015625,
          "velocity": 0.9606299212598425,
          "duration": 0.515625
        },
        {
          "name": "F#3",
          "midi": 54,
          "time": 117.5703125,
          "velocity": 0.8346456692913385,
          "duration": 0.5078125
        },
        {
          "name": "F#4",
          "midi": 66,
          "time": 117.5703125,
          "velocity": 0.8503937007874016,
          "duration": 0.515625
        },
        {
          "name": "B3",
          "midi": 59,
          "time": 118.1328125,
          "velocity": 0.8346456692913385,
          "duration": 0.125
        },
        {
          "name": "B4",
          "midi": 71,
          "time": 118.1328125,
          "velocity": 0.8110236220472441,
          "duration": 0.140625
        },
        {
          "name": "F#3",
          "midi": 54,
          "time": 118.4296875,
          "velocity": 0.84251968503937,
          "duration": 0.046875
        },
        {
          "name": "F#4",
          "midi": 66,
          "time": 118.4296875,
          "velocity": 0.8661417322834646,
          "duration": 0.046875
        },
        {
          "name": "B3",
          "midi": 59,
          "time": 118.515625,
          "velocity": 0.9212598425196851,
          "duration": 0.140625
        },
        {
          "name": "B4",
          "midi": 71,
          "time": 118.515625,
          "velocity": 0.905511811023622,
          "duration": 0.140625
        },
        {
          "name": "D#4",
          "midi": 63,
          "time": 118.6953125,
          "velocity": 1,
          "duration": 0.7109375
        },
        {
          "name": "D#5",
          "midi": 75,
          "time": 118.703125,
          "velocity": 0.968503937007874,
          "duration": 0.7265625
        },
        {
          "name": "F#4",
          "midi": 66,
          "time": 119.6328125,
          "velocity": 0.8267716535433071,
          "duration": 0.1171875
        },
        {
          "name": "F#3",
          "midi": 54,
          "time": 119.640625,
          "velocity": 0.8188976377952756,
          "duration": 0.125
        },
        {
          "name": "G#4",
          "midi": 68,
          "time": 119.8203125,
          "velocity": 0.8188976377952756,
          "duration": 0.125
        },
        {
          "name": "G#3",
          "midi": 56,
          "time": 119.828125,
          "velocity": 0.8267716535433071,
          "duration": 0.1171875
        },
        {
          "name": "E3",
          "midi": 52,
          "time": 120.1171875,
          "velocity": 0.8582677165354331,
          "duration": 0.0546875
        },
        {
          "name": "E4",
          "midi": 64,
          "time": 120.1171875,
          "velocity": 0.84251968503937,
          "duration": 0.0390625
        },
        {
          "name": "G#4",
          "midi": 68,
          "time": 120.1953125,
          "velocity": 0.905511811023622,
          "duration": 0.125
        },
        {
          "name": "G#3",
          "midi": 56,
          "time": 120.203125,
          "velocity": 0.8976377952755905,
          "duration": 0.125
        },
        {
          "name": "B3",
          "midi": 59,
          "time": 120.390625,
          "velocity": 1,
          "duration": 0.7109375
        },
        {
          "name": "B4",
          "midi": 71,
          "time": 120.390625,
          "velocity": 0.968503937007874,
          "duration": 0.71875
        },
        {
          "name": "F#3",
          "midi": 54,
          "time": 121.328125,
          "velocity": 0.8582677165354331,
          "duration": 0.140625
        },
        {
          "name": "F#4",
          "midi": 66,
          "time": 121.328125,
          "velocity": 0.8267716535433071,
          "duration": 0.1171875
        },
        {
          "name": "G#3",
          "midi": 56,
          "time": 121.5078125,
          "velocity": 0.8110236220472441,
          "duration": 0.140625
        },
        {
          "name": "G#4",
          "midi": 68,
          "time": 121.515625,
          "velocity": 0.8346456692913385,
          "duration": 0.140625
        },
        {
          "name": "E3",
          "midi": 52,
          "time": 121.8125,
          "velocity": 0.8503937007874016,
          "duration": 0.0390625
        },
        {
          "name": "E4",
          "midi": 64,
          "time": 121.8125,
          "velocity": 0.8818897637795275,
          "duration": 0.0625
        },
        {
          "name": "G#3",
          "midi": 56,
          "time": 121.8828125,
          "velocity": 0.9212598425196851,
          "duration": 0.140625
        },
        {
          "name": "G#4",
          "midi": 68,
          "time": 121.890625,
          "velocity": 0.9133858267716536,
          "duration": 0.1171875
        },
        {
          "name": "B3",
          "midi": 59,
          "time": 122.0703125,
          "velocity": 0.968503937007874,
          "duration": 0.734375
        },
        {
          "name": "B4",
          "midi": 71,
          "time": 122.078125,
          "velocity": 0.9606299212598425,
          "duration": 0.734375
        },
        {
          "name": "F#4",
          "midi": 66,
          "time": 123.0078125,
          "velocity": 0.84251968503937,
          "duration": 0.1328125
        },
        {
          "name": "F#3",
          "midi": 54,
          "time": 123.015625,
          "velocity": 0.8503937007874016,
          "duration": 0.140625
        },
        {
          "name": "G#3",
          "midi": 56,
          "time": 123.203125,
          "velocity": 0.905511811023622,
          "duration": 0.1328125
        },
        {
          "name": "G#4",
          "midi": 68,
          "time": 123.203125,
          "velocity": 0.9212598425196851,
          "duration": 0.1328125
        },
        {
          "name": "E3",
          "midi": 52,
          "time": 123.4921875,
          "velocity": 0.84251968503937,
          "duration": 0.0625
        },
        {
          "name": "E4",
          "midi": 64,
          "time": 123.4921875,
          "velocity": 0.8661417322834646,
          "duration": 0.0546875
        },
        {
          "name": "G#3",
          "midi": 56,
          "time": 123.5703125,
          "velocity": 0.9212598425196851,
          "duration": 0.125
        },
        {
          "name": "G#4",
          "midi": 68,
          "time": 123.578125,
          "velocity": 0.889763779527559,
          "duration": 0.125
        },
        {
          "name": "C#4",
          "midi": 61,
          "time": 123.765625,
          "velocity": 1,
          "duration": 0.5078125
        },
        {
          "name": "C#5",
          "midi": 73,
          "time": 123.765625,
          "velocity": 0.968503937007874,
          "duration": 0.515625
        },
        {
          "name": "F#3",
          "midi": 54,
          "time": 124.3203125,
          "velocity": 0.84251968503937,
          "duration": 0.5234375
        },
        {
          "name": "F#4",
          "midi": 66,
          "time": 124.3203125,
          "velocity": 0.8188976377952756,
          "duration": 0.515625
        },
        {
          "name": "B3",
          "midi": 59,
          "time": 124.8828125,
          "velocity": 0.84251968503937,
          "duration": 0.140625
        },
        {
          "name": "B4",
          "midi": 71,
          "time": 124.890625,
          "velocity": 0.8346456692913385,
          "duration": 0.1328125
        },
        {
          "name": "F#4",
          "midi": 66,
          "time": 125.1640625,
          "velocity": 0.8110236220472441,
          "duration": 0.0546875
        },
        {
          "name": "F#3",
          "midi": 54,
          "time": 125.171875,
          "velocity": 0.8346456692913385,
          "duration": 0.0546875
        },
        {
          "name": "B4",
          "midi": 71,
          "time": 125.2578125,
          "velocity": 0.8346456692913385,
          "duration": 0.1328125
        },
        {
          "name": "B3",
          "midi": 59,
          "time": 125.265625,
          "velocity": 0.8267716535433071,
          "duration": 0.140625
        },
        {
          "name": "D#4",
          "midi": 63,
          "time": 125.4453125,
          "velocity": 0.905511811023622,
          "duration": 0.140625
        },
        {
          "name": "D#5",
          "midi": 75,
          "time": 125.453125,
          "velocity": 0.905511811023622,
          "duration": 0.140625
        },
        {
          "name": "B3",
          "midi": 59,
          "time": 125.7265625,
          "velocity": 0.8976377952755905,
          "duration": 0.0390625
        },
        {
          "name": "B4",
          "midi": 71,
          "time": 125.734375,
          "velocity": 0.9212598425196851,
          "duration": 0.0546875
        },
        {
          "name": "D#4",
          "midi": 63,
          "time": 125.828125,
          "velocity": 0.9212598425196851,
          "duration": 0.1328125
        },
        {
          "name": "D#5",
          "midi": 75,
          "time": 125.828125,
          "velocity": 0.9212598425196851,
          "duration": 0.1484375
        },
        {
          "name": "F#4",
          "midi": 66,
          "time": 126.0078125,
          "velocity": 0.9921259842519685,
          "duration": 0.140625
        },
        {
          "name": "F#5",
          "midi": 78,
          "time": 126.015625,
          "velocity": 0.984251968503937,
          "duration": 0.1328125
        },
        {
          "name": "D#4",
          "midi": 63,
          "time": 126.2890625,
          "velocity": 1,
          "duration": 0.0390625
        },
        {
          "name": "D#5",
          "midi": 75,
          "time": 126.296875,
          "velocity": 0.968503937007874,
          "duration": 0.046875
        },
        {
          "name": "F#4",
          "midi": 66,
          "time": 126.3828125,
          "velocity": 0.9606299212598425,
          "duration": 0.140625
        },
        {
          "name": "F#5",
          "midi": 78,
          "time": 126.390625,
          "velocity": 0.9606299212598425,
          "duration": 0.140625
        },
        {
          "name": "G3",
          "midi": 55,
          "time": 126.5703125,
          "velocity": 0.7637795275590551,
          "duration": 1.453125
        },
        {
          "name": "B4",
          "midi": 71,
          "time": 126.5703125,
          "velocity": 0.7716535433070866,
          "duration": 1.4609375
        },
        {
          "name": "B3",
          "midi": 59,
          "time": 126.578125,
          "velocity": 0.9212598425196851,
          "duration": 0.1328125
        },
        {
          "name": "B2",
          "midi": 47,
          "time": 127.5078125,
          "velocity": 0.7952755905511811,
          "duration": 0.046875
        },
        {
          "name": "B3",
          "midi": 59,
          "time": 127.5078125,
          "velocity": 0.7716535433070866,
          "duration": 0.0390625
        },
        {
          "name": "B2",
          "midi": 47,
          "time": 127.6015625,
          "velocity": 0.7952755905511811,
          "duration": 0.0625
        },
        {
          "name": "B3",
          "midi": 59,
          "time": 127.609375,
          "velocity": 0.7874015748031497,
          "duration": 0.0390625
        },
        {
          "name": "B2",
          "midi": 47,
          "time": 127.703125,
          "velocity": 0.7716535433070866,
          "duration": 0.1171875
        },
        {
          "name": "B3",
          "midi": 59,
          "time": 127.703125,
          "velocity": 0.7716535433070866,
          "duration": 0.125
        },
        {
          "name": "B2",
          "midi": 47,
          "time": 128.078125,
          "velocity": 0.7637795275590551,
          "duration": 0.0390625
        },
        {
          "name": "B3",
          "midi": 59,
          "time": 128.078125,
          "velocity": 0.7716535433070866,
          "duration": 0.0390625
        },
        {
          "name": "B2",
          "midi": 47,
          "time": 128.171875,
          "velocity": 0.7637795275590551,
          "duration": 0.0390625
        },
        {
          "name": "C#3",
          "midi": 49,
          "time": 128.171875,
          "velocity": 0.7874015748031497,
          "duration": 0.0546875
        },
        {
          "name": "G3",
          "midi": 55,
          "time": 128.2578125,
          "velocity": 0.8031496062992126,
          "duration": 1.4609375
        },
        {
          "name": "B4",
          "midi": 71,
          "time": 128.265625,
          "velocity": 0.8031496062992126,
          "duration": 1.453125
        },
        {
          "name": "B2",
          "midi": 47,
          "time": 129.1953125,
          "velocity": 0.7874015748031497,
          "duration": 0.0546875
        },
        {
          "name": "B3",
          "midi": 59,
          "time": 129.203125,
          "velocity": 0.7716535433070866,
          "duration": 0.0625
        },
        {
          "name": "B2",
          "midi": 47,
          "time": 129.2890625,
          "velocity": 0.7795275590551181,
          "duration": 0.0546875
        },
        {
          "name": "B3",
          "midi": 59,
          "time": 129.296875,
          "velocity": 0.7795275590551181,
          "duration": 0.0390625
        },
        {
          "name": "B3",
          "midi": 59,
          "time": 129.3828125,
          "velocity": 0.7952755905511811,
          "duration": 0.140625
        },
        {
          "name": "B2",
          "midi": 47,
          "time": 129.390625,
          "velocity": 0.7952755905511811,
          "duration": 0.1328125
        },
        {
          "name": "B2",
          "midi": 47,
          "time": 129.765625,
          "velocity": 0.7716535433070866,
          "duration": 0.0390625
        },
        {
          "name": "B3",
          "midi": 59,
          "time": 129.765625,
          "velocity": 0.7795275590551181,
          "duration": 0.0546875
        },
        {
          "name": "B2",
          "midi": 47,
          "time": 129.8515625,
          "velocity": 0.7637795275590551,
          "duration": 0.0546875
        },
        {
          "name": "C#3",
          "midi": 49,
          "time": 129.859375,
          "velocity": 0.7795275590551181,
          "duration": 0.0546875
        },
        {
          "name": "E3",
          "midi": 52,
          "time": 129.9453125,
          "velocity": 0.7716535433070866,
          "duration": 1.46875
        },
        {
          "name": "E4",
          "midi": 64,
          "time": 129.953125,
          "velocity": 0.7874015748031497,
          "duration": 1.4609375
        },
        {
          "name": "E3",
          "midi": 52,
          "time": 131.4453125,
          "velocity": 0.7716535433070866,
          "duration": 0.0625
        },
        {
          "name": "E4",
          "midi": 64,
          "time": 131.4453125,
          "velocity": 0.7874015748031497,
          "duration": 0.0703125
        },
        {
          "name": "E4",
          "midi": 64,
          "time": 131.5390625,
          "velocity": 0.7637795275590551,
          "duration": 0.0390625
        },
        {
          "name": "E3",
          "midi": 52,
          "time": 131.546875,
          "velocity": 0.8031496062992126,
          "duration": 0.0625
        },
        {
          "name": "E3",
          "midi": 52,
          "time": 131.6328125,
          "velocity": 0.8031496062992126,
          "duration": 1.5859375
        },
        {
          "name": "E4",
          "midi": 64,
          "time": 131.640625,
          "velocity": 0.7874015748031497,
          "duration": 1.59375
        },
        {
          "name": "E4",
          "midi": 64,
          "time": 134.2578125,
          "velocity": 0.7874015748031497,
          "duration": 0.0390625
        },
        {
          "name": "E3",
          "midi": 52,
          "time": 134.265625,
          "velocity": 0.7795275590551181,
          "duration": 0.046875
        },
        {
          "name": "E3",
          "midi": 52,
          "time": 134.3515625,
          "velocity": 0.7637795275590551,
          "duration": 0.0625
        },
        {
          "name": "E4",
          "midi": 64,
          "time": 134.359375,
          "velocity": 0.8031496062992126,
          "duration": 0.0625
        },
        {
          "name": "E3",
          "midi": 52,
          "time": 134.4453125,
          "velocity": 0.7795275590551181,
          "duration": 0.125
        },
        {
          "name": "E4",
          "midi": 64,
          "time": 134.453125,
          "velocity": 0.7874015748031497,
          "duration": 0.140625
        },
        {
          "name": "E4",
          "midi": 64,
          "time": 134.8203125,
          "velocity": 0.7637795275590551,
          "duration": 0.0625
        },
        {
          "name": "E3",
          "midi": 52,
          "time": 134.828125,
          "velocity": 0.7716535433070866,
          "duration": 0.0546875
        },
        {
          "name": "E3",
          "midi": 52,
          "time": 134.9140625,
          "velocity": 0.8031496062992126,
          "duration": 0.0390625
        },
        {
          "name": "E4",
          "midi": 64,
          "time": 134.9140625,
          "velocity": 0.7952755905511811,
          "duration": 0.0390625
        },
        {
          "name": "E3",
          "midi": 52,
          "time": 135.9453125,
          "velocity": 0.7874015748031497,
          "duration": 0.046875
        },
        {
          "name": "E4",
          "midi": 64,
          "time": 135.9453125,
          "velocity": 0.7952755905511811,
          "duration": 0.0546875
        },
        {
          "name": "E4",
          "midi": 64,
          "time": 136.0390625,
          "velocity": 0.7874015748031497,
          "duration": 0.046875
        },
        {
          "name": "E3",
          "midi": 52,
          "time": 136.046875,
          "velocity": 0.7716535433070866,
          "duration": 0.0546875
        },
        {
          "name": "E3",
          "midi": 52,
          "time": 136.140625,
          "velocity": 0.7637795275590551,
          "duration": 0.140625
        },
        {
          "name": "E4",
          "midi": 64,
          "time": 136.140625,
          "velocity": 0.7795275590551181,
          "duration": 0.1171875
        },
        {
          "name": "E3",
          "midi": 52,
          "time": 136.5078125,
          "velocity": 0.7874015748031497,
          "duration": 0.0625
        },
        {
          "name": "E4",
          "midi": 64,
          "time": 136.5078125,
          "velocity": 0.7795275590551181,
          "duration": 0.0546875
        },
        {
          "name": "E3",
          "midi": 52,
          "time": 136.6015625,
          "velocity": 0.7874015748031497,
          "duration": 0.0546875
        },
        {
          "name": "E4",
          "midi": 64,
          "time": 136.609375,
          "velocity": 0.7874015748031497,
          "duration": 0.0390625
        },
        {
          "name": "F#3",
          "midi": 54,
          "time": 136.6953125,
          "velocity": 0.7795275590551181,
          "duration": 1.4609375
        },
        {
          "name": "F#4",
          "midi": 66,
          "time": 136.6953125,
          "velocity": 0.7795275590551181,
          "duration": 1.4453125
        },
        {
          "name": "F#3",
          "midi": 54,
          "time": 138.203125,
          "velocity": 0.7716535433070866,
          "duration": 0.0390625
        },
        {
          "name": "F#4",
          "midi": 66,
          "time": 138.203125,
          "velocity": 0.7952755905511811,
          "duration": 0.0546875
        },
        {
          "name": "F#3",
          "midi": 54,
          "time": 138.2890625,
          "velocity": 0.7637795275590551,
          "duration": 0.0390625
        },
        {
          "name": "F#4",
          "midi": 66,
          "time": 138.2890625,
          "velocity": 0.7637795275590551,
          "duration": 0.0546875
        },
        {
          "name": "F#4",
          "midi": 66,
          "time": 138.3828125,
          "velocity": 0.8031496062992126,
          "duration": 1.609375
        },
        {
          "name": "F#3",
          "midi": 54,
          "time": 138.390625,
          "velocity": 0.7952755905511811,
          "duration": 1.609375
        },
        {
          "name": "B2",
          "midi": 47,
          "time": 141.0078125,
          "velocity": 0.5433070866141733,
          "duration": 0.046875
        },
        {
          "name": "B3",
          "midi": 59,
          "time": 141.0078125,
          "velocity": 0.5511811023622047,
          "duration": 0.0625
        },
        {
          "name": "B2",
          "midi": 47,
          "time": 141.1015625,
          "velocity": 0.5669291338582677,
          "duration": 0.046875
        },
        {
          "name": "B3",
          "midi": 59,
          "time": 141.109375,
          "velocity": 0.5590551181102362,
          "duration": 0.0546875
        },
        {
          "name": "B2",
          "midi": 47,
          "time": 141.203125,
          "velocity": 0.5669291338582677,
          "duration": 0.140625
        },
        {
          "name": "B3",
          "midi": 59,
          "time": 141.203125,
          "velocity": 0.5433070866141733,
          "duration": 0.140625
        },
        {
          "name": "B2",
          "midi": 47,
          "time": 141.5703125,
          "velocity": 0.5433070866141733,
          "duration": 0.0625
        },
        {
          "name": "B3",
          "midi": 59,
          "time": 141.5703125,
          "velocity": 0.5433070866141733,
          "duration": 0.046875
        },
        {
          "name": "B2",
          "midi": 47,
          "time": 141.671875,
          "velocity": 0.5354330708661418,
          "duration": 0.0390625
        },
        {
          "name": "B3",
          "midi": 59,
          "time": 141.671875,
          "velocity": 0.5590551181102362,
          "duration": 0.0546875
        },
        {
          "name": "B2",
          "midi": 47,
          "time": 141.765625,
          "velocity": 0.5275590551181102,
          "duration": 0.1328125
        },
        {
          "name": "B3",
          "midi": 59,
          "time": 141.765625,
          "velocity": 0.5275590551181102,
          "duration": 0.140625
        },
        {
          "name": "B3",
          "midi": 59,
          "time": 142.6953125,
          "velocity": 0.5511811023622047,
          "duration": 0.046875
        },
        {
          "name": "B2",
          "midi": 47,
          "time": 142.703125,
          "velocity": 0.5275590551181102,
          "duration": 0.0546875
        },
        {
          "name": "B3",
          "midi": 59,
          "time": 142.7890625,
          "velocity": 0.5511811023622047,
          "duration": 0.0625
        },
        {
          "name": "B2",
          "midi": 47,
          "time": 142.796875,
          "velocity": 0.5511811023622047,
          "duration": 0.0390625
        },
        {
          "name": "B2",
          "midi": 47,
          "time": 142.8828125,
          "velocity": 0.5511811023622047,
          "duration": 0.125
        },
        {
          "name": "B3",
          "midi": 59,
          "time": 142.890625,
          "velocity": 0.5354330708661418,
          "duration": 0.140625
        },
        {
          "name": "B2",
          "midi": 47,
          "time": 143.265625,
          "velocity": 0.5590551181102362,
          "duration": 0.0390625
        },
        {
          "name": "B3",
          "midi": 59,
          "time": 143.265625,
          "velocity": 0.5511811023622047,
          "duration": 0.0625
        },
        {
          "name": "B2",
          "midi": 47,
          "time": 143.3515625,
          "velocity": 0.5669291338582677,
          "duration": 0.0546875
        },
        {
          "name": "B3",
          "midi": 59,
          "time": 143.3515625,
          "velocity": 0.5354330708661418,
          "duration": 0.0625
        },
        {
          "name": "C3",
          "midi": 48,
          "time": 143.453125,
          "velocity": 0.6299212598425197,
          "duration": 0.53125
        },
        {
          "name": "C4",
          "midi": 60,
          "time": 143.453125,
          "velocity": 0.6220472440944882,
          "duration": 0.53125
        },
        {
          "name": "E3",
          "midi": 52,
          "time": 144.0078125,
          "velocity": 0.6377952755905512,
          "duration": 0.1171875
        },
        {
          "name": "E4",
          "midi": 64,
          "time": 144.015625,
          "velocity": 0.6377952755905512,
          "duration": 0.1328125
        },
        {
          "name": "C3",
          "midi": 48,
          "time": 144.2890625,
          "velocity": 0.6456692913385826,
          "duration": 0.0625
        },
        {
          "name": "C4",
          "midi": 60,
          "time": 144.2890625,
          "velocity": 0.6456692913385826,
          "duration": 0.0546875
        },
        {
          "name": "E4",
          "midi": 64,
          "time": 144.3828125,
          "velocity": 0.6377952755905512,
          "duration": 0.1328125
        },
        {
          "name": "E3",
          "midi": 52,
          "time": 144.390625,
          "velocity": 0.6062992125984252,
          "duration": 0.1171875
        },
        {
          "name": "G3",
          "midi": 55,
          "time": 144.5703125,
          "velocity": 0.6141732283464567,
          "duration": 0.203125
        },
        {
          "name": "G4",
          "midi": 67,
          "time": 144.5703125,
          "velocity": 0.6456692913385826,
          "duration": 0.1953125
        },
        {
          "name": "G3",
          "midi": 55,
          "time": 144.9453125,
          "velocity": 0.6220472440944882,
          "duration": 0.1328125
        },
        {
          "name": "G2",
          "midi": 43,
          "time": 144.953125,
          "velocity": 0.6220472440944882,
          "duration": 0.1171875
        },
        {
          "name": "C4",
          "midi": 60,
          "time": 145.1328125,
          "velocity": 0.6220472440944882,
          "duration": 0.515625
        },
        {
          "name": "C3",
          "midi": 48,
          "time": 145.140625,
          "velocity": 0.6220472440944882,
          "duration": 0.5078125
        },
        {
          "name": "E3",
          "midi": 52,
          "time": 145.703125,
          "velocity": 0.6299212598425197,
          "duration": 0.140625
        },
        {
          "name": "E4",
          "midi": 64,
          "time": 145.703125,
          "velocity": 0.6220472440944882,
          "duration": 0.125
        },
        {
          "name": "C3",
          "midi": 48,
          "time": 145.984375,
          "velocity": 0.6220472440944882,
          "duration": 0.0625
        },
        {
          "name": "C4",
          "midi": 60,
          "time": 145.984375,
          "velocity": 0.6220472440944882,
          "duration": 0.0625
        },
        {
          "name": "E3",
          "midi": 52,
          "time": 146.0703125,
          "velocity": 0.6377952755905512,
          "duration": 0.1171875
        },
        {
          "name": "E4",
          "midi": 64,
          "time": 146.0703125,
          "velocity": 0.6141732283464567,
          "duration": 0.1171875
        },
        {
          "name": "G3",
          "midi": 55,
          "time": 146.2578125,
          "velocity": 0.6220472440944882,
          "duration": 0.1953125
        },
        {
          "name": "G4",
          "midi": 67,
          "time": 146.265625,
          "velocity": 0.6141732283464567,
          "duration": 0.2109375
        },
        {
          "name": "G2",
          "midi": 43,
          "time": 146.640625,
          "velocity": 0.6062992125984252,
          "duration": 0.1328125
        },
        {
          "name": "G3",
          "midi": 55,
          "time": 146.640625,
          "velocity": 0.6141732283464567,
          "duration": 0.1171875
        },
        {
          "name": "C#4",
          "midi": 61,
          "time": 146.8203125,
          "velocity": 0.6220472440944882,
          "duration": 3.3359375
        },
        {
          "name": "A#4",
          "midi": 70,
          "time": 146.8203125,
          "velocity": 0.6062992125984252,
          "duration": 3.328125
        },
        {
          "name": "F#4",
          "midi": 66,
          "time": 150.1953125,
          "velocity": 0.6299212598425197,
          "duration": 3.515625
        },
        {
          "name": "D#4",
          "midi": 63,
          "time": 150.203125,
          "velocity": 0.6220472440944882,
          "duration": 3.53125
        },
        {
          "name": "B3",
          "midi": 59,
          "time": 150.203125,
          "velocity": 0.6062992125984252,
          "duration": 3.515625
        },
        {
          "name": "F#3",
          "midi": 54,
          "time": 163.6953125,
          "velocity": 0.9448818897637795,
          "duration": 0.125
        },
        {
          "name": "B3",
          "midi": 59,
          "time": 163.703125,
          "velocity": 0.937007874015748,
          "duration": 0.1171875
        },
        {
          "name": "D#4",
          "midi": 63,
          "time": 163.703125,
          "velocity": 0.9291338582677166,
          "duration": 0.1171875
        },
        {
          "name": "F#4",
          "midi": 66,
          "time": 163.703125,
          "velocity": 0.9291338582677166,
          "duration": 0.1484375
        }
      ],
      "controlChanges": {
        "7": [
          {
            "number": 7,
            "time": 0,
            "value": 0.9212598425196851
          }
        ],
        "10": [
          {
            "number": 10,
            "time": 0,
            "value": 0.49606299212598426
          }
        ],
        "11": [
          {
            "number": 11,
            "time": 0.0078125,
            "value": 1
          }
        ],
        "91": [
          {
            "number": 91,
            "time": 0,
            "value": 0.7874015748031497
          }
        ],
        "93": [
          {
            "number": 93,
            "time": 0,
            "value": 0.3937007874015748
          }
        ]
      }
    },
    {
      "startTime": 8.9921875,
      "duration": 163.8203125,
      "length": 270,
      "id": 4,
      "name": "French Horns",
      "instrumentNumber": 60,
      "instrument": "french horn",
      "instrumentFamily": "brass",
      "channelNumber": 3,
      "isPercussion": false,
      "notes": [
        {
          "name": "B2",
          "midi": 47,
          "time": 8.9921875,
          "velocity": 0.47244094488188976,
          "duration": 0.078125
        },
        {
          "name": "B3",
          "midi": 59,
          "time": 9.2890625,
          "velocity": 0.3779527559055118,
          "duration": 0.0390625
        },
        {
          "name": "F#3",
          "midi": 54,
          "time": 9.3671875,
          "velocity": 0.3937007874015748,
          "duration": 0.0546875
        },
        {
          "name": "F#3",
          "midi": 54,
          "time": 9.5546875,
          "velocity": 0.47244094488188976,
          "duration": 0.0859375
        },
        {
          "name": "F#4",
          "midi": 66,
          "time": 9.8515625,
          "velocity": 0.48031496062992124,
          "duration": 0.0625
        },
        {
          "name": "B3",
          "midi": 59,
          "time": 9.9296875,
          "velocity": 0.3700787401574803,
          "duration": 0.140625
        },
        {
          "name": "B3",
          "midi": 59,
          "time": 10.125,
          "velocity": 0.6220472440944882,
          "duration": 0.1484375
        },
        {
          "name": "B2",
          "midi": 47,
          "time": 10.6875,
          "velocity": 0.44881889763779526,
          "duration": 0.0859375
        },
        {
          "name": "B3",
          "midi": 59,
          "time": 10.9765625,
          "velocity": 0.3937007874015748,
          "duration": 0.0625
        },
        {
          "name": "F#3",
          "midi": 54,
          "time": 11.0546875,
          "velocity": 0.3937007874015748,
          "duration": 0.046875
        },
        {
          "name": "F#3",
          "midi": 54,
          "time": 11.25,
          "velocity": 0.47244094488188976,
          "duration": 0.0859375
        },
        {
          "name": "F#4",
          "midi": 66,
          "time": 11.546875,
          "velocity": 0.4566929133858268,
          "duration": 0.0546875
        },
        {
          "name": "B3",
          "midi": 59,
          "time": 11.6171875,
          "velocity": 0.3937007874015748,
          "duration": 0.0625
        },
        {
          "name": "B3",
          "midi": 59,
          "time": 11.8125,
          "velocity": 0.6456692913385826,
          "duration": 0.1328125
        },
        {
          "name": "B2",
          "midi": 47,
          "time": 12.375,
          "velocity": 0.44881889763779526,
          "duration": 0.1015625
        },
        {
          "name": "B3",
          "midi": 59,
          "time": 12.6640625,
          "velocity": 0.3700787401574803,
          "duration": 0.046875
        },
        {
          "name": "F#3",
          "midi": 54,
          "time": 12.7421875,
          "velocity": 0.3937007874015748,
          "duration": 0.046875
        },
        {
          "name": "F#3",
          "midi": 54,
          "time": 12.9375,
          "velocity": 0.44881889763779526,
          "duration": 0.1015625
        },
        {
          "name": "F#4",
          "midi": 66,
          "time": 13.234375,
          "velocity": 0.4881889763779528,
          "duration": 0.046875
        },
        {
          "name": "B3",
          "midi": 59,
          "time": 13.3125,
          "velocity": 0.4094488188976378,
          "duration": 0.0546875
        },
        {
          "name": "B3",
          "midi": 59,
          "time": 13.4921875,
          "velocity": 0.6456692913385826,
          "duration": 0.1171875
        },
        {
          "name": "B2",
          "midi": 47,
          "time": 14.0546875,
          "velocity": 0.44881889763779526,
          "duration": 0.1015625
        },
        {
          "name": "B3",
          "midi": 59,
          "time": 14.3515625,
          "velocity": 0.3858267716535433,
          "duration": 0.0546875
        },
        {
          "name": "F#3",
          "midi": 54,
          "time": 14.4375,
          "velocity": 0.3937007874015748,
          "duration": 0.0625
        },
        {
          "name": "F#3",
          "midi": 54,
          "time": 14.6171875,
          "velocity": 0.4881889763779528,
          "duration": 0.09375
        },
        {
          "name": "F#4",
          "midi": 66,
          "time": 14.9140625,
          "velocity": 0.47244094488188976,
          "duration": 0.0546875
        },
        {
          "name": "B3",
          "midi": 59,
          "time": 14.9921875,
          "velocity": 0.4094488188976378,
          "duration": 0.046875
        },
        {
          "name": "B3",
          "midi": 59,
          "time": 15.1796875,
          "velocity": 0.6141732283464567,
          "duration": 0.1171875
        },
        {
          "name": "B2",
          "midi": 47,
          "time": 15.7421875,
          "velocity": 0.4566929133858268,
          "duration": 0.1015625
        },
        {
          "name": "B3",
          "midi": 59,
          "time": 16.0390625,
          "velocity": 0.4094488188976378,
          "duration": 0.0546875
        },
        {
          "name": "F#3",
          "midi": 54,
          "time": 16.1171875,
          "velocity": 0.4015748031496063,
          "duration": 0.046875
        },
        {
          "name": "F#3",
          "midi": 54,
          "time": 16.3046875,
          "velocity": 0.47244094488188976,
          "duration": 0.1015625
        },
        {
          "name": "F#4",
          "midi": 66,
          "time": 16.6015625,
          "velocity": 0.44881889763779526,
          "duration": 0.046875
        },
        {
          "name": "B3",
          "midi": 59,
          "time": 16.6875,
          "velocity": 0.3937007874015748,
          "duration": 0.046875
        },
        {
          "name": "B3",
          "midi": 59,
          "time": 16.8671875,
          "velocity": 0.6220472440944882,
          "duration": 0.125
        },
        {
          "name": "B2",
          "midi": 47,
          "time": 17.4375,
          "velocity": 0.4566929133858268,
          "duration": 0.0703125
        },
        {
          "name": "B3",
          "midi": 59,
          "time": 17.7265625,
          "velocity": 0.3937007874015748,
          "duration": 0.0546875
        },
        {
          "name": "F#3",
          "midi": 54,
          "time": 17.8046875,
          "velocity": 0.4094488188976378,
          "duration": 0.046875
        },
        {
          "name": "F#3",
          "midi": 54,
          "time": 17.9921875,
          "velocity": 0.44881889763779526,
          "duration": 0.0859375
        },
        {
          "name": "F#4",
          "midi": 66,
          "time": 18.296875,
          "velocity": 0.4566929133858268,
          "duration": 0.046875
        },
        {
          "name": "B3",
          "midi": 59,
          "time": 18.375,
          "velocity": 0.3779527559055118,
          "duration": 0.0546875
        },
        {
          "name": "B3",
          "midi": 59,
          "time": 18.5625,
          "velocity": 0.6141732283464567,
          "duration": 0.140625
        },
        {
          "name": "B2",
          "midi": 47,
          "time": 19.1171875,
          "velocity": 0.44881889763779526,
          "duration": 0.09375
        },
        {
          "name": "B3",
          "midi": 59,
          "time": 19.4140625,
          "velocity": 0.3858267716535433,
          "duration": 0.0390625
        },
        {
          "name": "F#3",
          "midi": 54,
          "time": 19.5,
          "velocity": 0.3700787401574803,
          "duration": 0.046875
        },
        {
          "name": "F#3",
          "midi": 54,
          "time": 19.6875,
          "velocity": 0.48031496062992124,
          "duration": 0.078125
        },
        {
          "name": "F#4",
          "midi": 66,
          "time": 19.9765625,
          "velocity": 0.47244094488188976,
          "duration": 0.0546875
        },
        {
          "name": "B3",
          "midi": 59,
          "time": 20.0546875,
          "velocity": 0.4015748031496063,
          "duration": 0.0390625
        },
        {
          "name": "B3",
          "midi": 59,
          "time": 20.2421875,
          "velocity": 0.6456692913385826,
          "duration": 0.1484375
        },
        {
          "name": "B2",
          "midi": 47,
          "time": 20.8046875,
          "velocity": 0.44881889763779526,
          "duration": 0.0859375
        },
        {
          "name": "B3",
          "midi": 59,
          "time": 21.1015625,
          "velocity": 0.4015748031496063,
          "duration": 0.046875
        },
        {
          "name": "F#3",
          "midi": 54,
          "time": 21.1875,
          "velocity": 0.3779527559055118,
          "duration": 0.0625
        },
        {
          "name": "F#3",
          "midi": 54,
          "time": 21.3671875,
          "velocity": 0.48031496062992124,
          "duration": 0.09375
        },
        {
          "name": "F#4",
          "midi": 66,
          "time": 21.6640625,
          "velocity": 0.4881889763779528,
          "duration": 0.0546875
        },
        {
          "name": "F#3",
          "midi": 54,
          "time": 21.75,
          "velocity": 0.8031496062992126,
          "duration": 0.1171875
        },
        {
          "name": "B3",
          "midi": 59,
          "time": 21.75,
          "velocity": 0.3858267716535433,
          "duration": 0.046875
        },
        {
          "name": "D3",
          "midi": 50,
          "time": 27.5625,
          "velocity": 0.6141732283464567,
          "duration": 0.15625
        },
        {
          "name": "D4",
          "midi": 62,
          "time": 27.8515625,
          "velocity": 0.4094488188976378,
          "duration": 0.0390625
        },
        {
          "name": "A3",
          "midi": 57,
          "time": 27.9375,
          "velocity": 0.5275590551181102,
          "duration": 0.1015625
        },
        {
          "name": "A3",
          "midi": 57,
          "time": 28.1171875,
          "velocity": 0.6141732283464567,
          "duration": 0.171875
        },
        {
          "name": "D3",
          "midi": 50,
          "time": 29.2421875,
          "velocity": 0.6456692913385826,
          "duration": 0.1796875
        },
        {
          "name": "D4",
          "midi": 62,
          "time": 29.546875,
          "velocity": 0.3700787401574803,
          "duration": 0.0625
        },
        {
          "name": "A3",
          "midi": 57,
          "time": 29.625,
          "velocity": 0.5275590551181102,
          "duration": 0.1015625
        },
        {
          "name": "A3",
          "midi": 57,
          "time": 29.8046875,
          "velocity": 0.6220472440944882,
          "duration": 0.1796875
        },
        {
          "name": "D3",
          "midi": 50,
          "time": 30.9375,
          "velocity": 0.6456692913385826,
          "duration": 0.1796875
        },
        {
          "name": "D4",
          "midi": 62,
          "time": 31.234375,
          "velocity": 0.4015748031496063,
          "duration": 0.046875
        },
        {
          "name": "A3",
          "midi": 57,
          "time": 31.3125,
          "velocity": 0.5511811023622047,
          "duration": 0.1015625
        },
        {
          "name": "A3",
          "midi": 57,
          "time": 31.5,
          "velocity": 0.6456692913385826,
          "duration": 0.1796875
        },
        {
          "name": "D3",
          "midi": 50,
          "time": 32.625,
          "velocity": 0.6456692913385826,
          "duration": 0.1640625
        },
        {
          "name": "D4",
          "midi": 62,
          "time": 32.921875,
          "velocity": 0.3858267716535433,
          "duration": 0.0703125
        },
        {
          "name": "A3",
          "midi": 57,
          "time": 33,
          "velocity": 0.5275590551181102,
          "duration": 0.1171875
        },
        {
          "name": "A3",
          "midi": 57,
          "time": 33.1796875,
          "velocity": 0.6377952755905512,
          "duration": 0.1640625
        },
        {
          "name": "C#3",
          "midi": 49,
          "time": 39.375,
          "velocity": 0.6377952755905512,
          "duration": 0.15625
        },
        {
          "name": "C#4",
          "midi": 61,
          "time": 39.65625,
          "velocity": 0.3779527559055118,
          "duration": 0.0625
        },
        {
          "name": "F#3",
          "midi": 54,
          "time": 39.7421875,
          "velocity": 0.5354330708661418,
          "duration": 0.1015625
        },
        {
          "name": "F#3",
          "midi": 54,
          "time": 39.9296875,
          "velocity": 0.6299212598425197,
          "duration": 0.1796875
        },
        {
          "name": "C#3",
          "midi": 49,
          "time": 41.0625,
          "velocity": 0.6299212598425197,
          "duration": 0.09375
        },
        {
          "name": "C#4",
          "midi": 61,
          "time": 41.359375,
          "velocity": 0.6456692913385826,
          "duration": 0.046875
        },
        {
          "name": "F#3",
          "midi": 54,
          "time": 41.4296875,
          "velocity": 0.6377952755905512,
          "duration": 0.09375
        },
        {
          "name": "F#3",
          "midi": 54,
          "time": 41.625,
          "velocity": 0.6062992125984252,
          "duration": 0.1015625
        },
        {
          "name": "C#3",
          "midi": 49,
          "time": 42.7421875,
          "velocity": 0.6299212598425197,
          "duration": 0.1015625
        },
        {
          "name": "C#4",
          "midi": 61,
          "time": 43.046875,
          "velocity": 0.6220472440944882,
          "duration": 0.0546875
        },
        {
          "name": "F#3",
          "midi": 54,
          "time": 43.1171875,
          "velocity": 0.6456692913385826,
          "duration": 0.046875
        },
        {
          "name": "F#3",
          "midi": 54,
          "time": 43.3125,
          "velocity": 0.6456692913385826,
          "duration": 0.09375
        },
        {
          "name": "C#3",
          "midi": 49,
          "time": 44.4296875,
          "velocity": 0.6456692913385826,
          "duration": 0.078125
        },
        {
          "name": "C#4",
          "midi": 61,
          "time": 44.734375,
          "velocity": 0.4094488188976378,
          "duration": 0.0625
        },
        {
          "name": "F#3",
          "midi": 54,
          "time": 44.8046875,
          "velocity": 0.5669291338582677,
          "duration": 0.046875
        },
        {
          "name": "F#3",
          "midi": 54,
          "time": 44.9921875,
          "velocity": 0.6141732283464567,
          "duration": 0.09375
        },
        {
          "name": "B2",
          "midi": 47,
          "time": 51.1796875,
          "velocity": 0.6456692913385826,
          "duration": 0.1015625
        },
        {
          "name": "B3",
          "midi": 59,
          "time": 51.484375,
          "velocity": 0.3779527559055118,
          "duration": 0.0390625
        },
        {
          "name": "F#3",
          "midi": 54,
          "time": 51.5625,
          "velocity": 0.5511811023622047,
          "duration": 0.046875
        },
        {
          "name": "F#3",
          "midi": 54,
          "time": 51.75,
          "velocity": 0.6456692913385826,
          "duration": 0.0859375
        },
        {
          "name": "F#4",
          "midi": 66,
          "time": 52.046875,
          "velocity": 0.6141732283464567,
          "duration": 0.046875
        },
        {
          "name": "B3",
          "midi": 59,
          "time": 52.1171875,
          "velocity": 0.6220472440944882,
          "duration": 0.046875
        },
        {
          "name": "B2",
          "midi": 47,
          "time": 52.8671875,
          "velocity": 0.6299212598425197,
          "duration": 0.1015625
        },
        {
          "name": "B3",
          "midi": 59,
          "time": 53.1640625,
          "velocity": 0.3700787401574803,
          "duration": 0.0546875
        },
        {
          "name": "F#3",
          "midi": 54,
          "time": 53.25,
          "velocity": 0.5669291338582677,
          "duration": 0.0546875
        },
        {
          "name": "F#3",
          "midi": 54,
          "time": 53.4296875,
          "velocity": 0.6299212598425197,
          "duration": 0.078125
        },
        {
          "name": "B2",
          "midi": 47,
          "time": 62.8203125,
          "velocity": 0.9212598425196851,
          "duration": 0.140625
        },
        {
          "name": "C#4",
          "midi": 61,
          "time": 75.1171875,
          "velocity": 0.9763779527559056,
          "duration": 0.0390625
        },
        {
          "name": "F#3",
          "midi": 54,
          "time": 75.203125,
          "velocity": 1,
          "duration": 0.0703125
        },
        {
          "name": "F#3",
          "midi": 54,
          "time": 75.3828125,
          "velocity": 1,
          "duration": 0.1328125
        },
        {
          "name": "F#4",
          "midi": 66,
          "time": 75.6796875,
          "velocity": 1,
          "duration": 0.046875
        },
        {
          "name": "C#4",
          "midi": 61,
          "time": 75.765625,
          "velocity": 1,
          "duration": 0.046875
        },
        {
          "name": "B2",
          "midi": 47,
          "time": 90.390625,
          "velocity": 0.6220472440944882,
          "duration": 0.046875
        },
        {
          "name": "B3",
          "midi": 59,
          "time": 90.3984375,
          "velocity": 0.6456692913385826,
          "duration": 0.0390625
        },
        {
          "name": "B2",
          "midi": 47,
          "time": 90.484375,
          "velocity": 0.6062992125984252,
          "duration": 0.0546875
        },
        {
          "name": "B3",
          "midi": 59,
          "time": 90.484375,
          "velocity": 0.6141732283464567,
          "duration": 0.046875
        },
        {
          "name": "B3",
          "midi": 59,
          "time": 90.578125,
          "velocity": 0.6456692913385826,
          "duration": 0.125
        },
        {
          "name": "B2",
          "midi": 47,
          "time": 90.578125,
          "velocity": 0.6220472440944882,
          "duration": 0.1328125
        },
        {
          "name": "B2",
          "midi": 47,
          "time": 92.078125,
          "velocity": 0.6377952755905512,
          "duration": 0.0390625
        },
        {
          "name": "B3",
          "midi": 59,
          "time": 92.078125,
          "velocity": 0.6062992125984252,
          "duration": 0.0625
        },
        {
          "name": "B3",
          "midi": 59,
          "time": 92.171875,
          "velocity": 0.6062992125984252,
          "duration": 0.0625
        },
        {
          "name": "B2",
          "midi": 47,
          "time": 92.1796875,
          "velocity": 0.6220472440944882,
          "duration": 0.0390625
        },
        {
          "name": "B2",
          "midi": 47,
          "time": 92.265625,
          "velocity": 0.6141732283464567,
          "duration": 0.1328125
        },
        {
          "name": "B3",
          "midi": 59,
          "time": 92.2734375,
          "velocity": 0.6299212598425197,
          "duration": 0.140625
        },
        {
          "name": "E3",
          "midi": 52,
          "time": 93.765625,
          "velocity": 0.6141732283464567,
          "duration": 0.0546875
        },
        {
          "name": "E2",
          "midi": 40,
          "time": 93.7734375,
          "velocity": 0.6377952755905512,
          "duration": 0.0546875
        },
        {
          "name": "E3",
          "midi": 52,
          "time": 93.859375,
          "velocity": 0.6456692913385826,
          "duration": 0.0625
        },
        {
          "name": "E2",
          "midi": 40,
          "time": 93.859375,
          "velocity": 0.6299212598425197,
          "duration": 0.046875
        },
        {
          "name": "E3",
          "midi": 52,
          "time": 93.9609375,
          "velocity": 0.6062992125984252,
          "duration": 0.140625
        },
        {
          "name": "E2",
          "midi": 40,
          "time": 93.9609375,
          "velocity": 0.6062992125984252,
          "duration": 0.140625
        },
        {
          "name": "F#3",
          "midi": 54,
          "time": 99.390625,
          "velocity": 0.9212598425196851,
          "duration": 0.09375
        },
        {
          "name": "B2",
          "midi": 47,
          "time": 99.578125,
          "velocity": 0.9921259842519685,
          "duration": 0.125
        },
        {
          "name": "F#2",
          "midi": 42,
          "time": 99.875,
          "velocity": 0.8661417322834646,
          "duration": 0.0546875
        },
        {
          "name": "B2",
          "midi": 47,
          "time": 99.9453125,
          "velocity": 0.9133858267716536,
          "duration": 0.1484375
        },
        {
          "name": "D#3",
          "midi": 51,
          "time": 100.1328125,
          "velocity": 0.9763779527559056,
          "duration": 0.5234375
        },
        {
          "name": "B2",
          "midi": 47,
          "time": 100.6953125,
          "velocity": 0.8582677165354331,
          "duration": 0.5234375
        },
        {
          "name": "D#3",
          "midi": 51,
          "time": 101.2578125,
          "velocity": 0.8031496062992126,
          "duration": 0.140625
        },
        {
          "name": "B2",
          "midi": 47,
          "time": 101.5546875,
          "velocity": 0.8740157480314961,
          "duration": 0.0546875
        },
        {
          "name": "D#3",
          "midi": 51,
          "time": 101.640625,
          "velocity": 0.9212598425196851,
          "duration": 0.1171875
        },
        {
          "name": "F#3",
          "midi": 54,
          "time": 101.828125,
          "velocity": 1,
          "duration": 0.5078125
        },
        {
          "name": "D#3",
          "midi": 51,
          "time": 102.390625,
          "velocity": 0.8346456692913385,
          "duration": 0.53125
        },
        {
          "name": "F#3",
          "midi": 54,
          "time": 102.9453125,
          "velocity": 0.8188976377952756,
          "duration": 0.125
        },
        {
          "name": "D#3",
          "midi": 51,
          "time": 103.25,
          "velocity": 0.8661417322834646,
          "duration": 0.046875
        },
        {
          "name": "F#3",
          "midi": 54,
          "time": 103.3203125,
          "velocity": 0.905511811023622,
          "duration": 0.1328125
        },
        {
          "name": "A#3",
          "midi": 58,
          "time": 103.5078125,
          "velocity": 0.9606299212598425,
          "duration": 0.53125
        },
        {
          "name": "A#2",
          "midi": 46,
          "time": 104.078125,
          "velocity": 0.8582677165354331,
          "duration": 0.5078125
        },
        {
          "name": "D#3",
          "midi": 51,
          "time": 104.6328125,
          "velocity": 0.8267716535433071,
          "duration": 0.140625
        },
        {
          "name": "A#2",
          "midi": 46,
          "time": 104.9375,
          "velocity": 0.8740157480314961,
          "duration": 0.0390625
        },
        {
          "name": "D#3",
          "midi": 51,
          "time": 105.0078125,
          "velocity": 0.8818897637795275,
          "duration": 0.1328125
        },
        {
          "name": "F#3",
          "midi": 54,
          "time": 105.203125,
          "velocity": 1,
          "duration": 0.7265625
        },
        {
          "name": "A#2",
          "midi": 46,
          "time": 106.140625,
          "velocity": 0.8267716535433071,
          "duration": 0.125
        },
        {
          "name": "D#3",
          "midi": 51,
          "time": 106.328125,
          "velocity": 0.8267716535433071,
          "duration": 0.125
        },
        {
          "name": "B2",
          "midi": 47,
          "time": 106.6171875,
          "velocity": 0.8661417322834646,
          "duration": 0.046875
        },
        {
          "name": "D#3",
          "midi": 51,
          "time": 106.6953125,
          "velocity": 0.905511811023622,
          "duration": 0.125
        },
        {
          "name": "F#3",
          "midi": 54,
          "time": 106.8828125,
          "velocity": 1,
          "duration": 0.5234375
        },
        {
          "name": "D#3",
          "midi": 51,
          "time": 107.4453125,
          "velocity": 0.8503937007874016,
          "duration": 0.53125
        },
        {
          "name": "F#3",
          "midi": 54,
          "time": 108.015625,
          "velocity": 0.84251968503937,
          "duration": 0.140625
        },
        {
          "name": "D#3",
          "midi": 51,
          "time": 108.3046875,
          "velocity": 0.8818897637795275,
          "duration": 0.0390625
        },
        {
          "name": "F#3",
          "midi": 54,
          "time": 108.390625,
          "velocity": 0.8976377952755905,
          "duration": 0.125
        },
        {
          "name": "A#3",
          "midi": 58,
          "time": 108.578125,
          "velocity": 0.9763779527559056,
          "duration": 0.53125
        },
        {
          "name": "F#3",
          "midi": 54,
          "time": 109.140625,
          "velocity": 0.8267716535433071,
          "duration": 0.5078125
        },
        {
          "name": "A#3",
          "midi": 58,
          "time": 109.6953125,
          "velocity": 0.8031496062992126,
          "duration": 0.1171875
        },
        {
          "name": "F#3",
          "midi": 54,
          "time": 109.9921875,
          "velocity": 0.84251968503937,
          "duration": 0.0546875
        },
        {
          "name": "A#3",
          "midi": 58,
          "time": 110.0703125,
          "velocity": 0.8818897637795275,
          "duration": 0.1171875
        },
        {
          "name": "C#4",
          "midi": 61,
          "time": 110.265625,
          "velocity": 0.9921259842519685,
          "duration": 0.515625
        },
        {
          "name": "C#3",
          "midi": 49,
          "time": 110.828125,
          "velocity": 0.8582677165354331,
          "duration": 0.5234375
        },
        {
          "name": "F#3",
          "midi": 54,
          "time": 111.390625,
          "velocity": 0.8267716535433071,
          "duration": 0.140625
        },
        {
          "name": "C#3",
          "midi": 49,
          "time": 111.6875,
          "velocity": 0.8818897637795275,
          "duration": 0.046875
        },
        {
          "name": "F#3",
          "midi": 54,
          "time": 111.765625,
          "velocity": 0.905511811023622,
          "duration": 0.1328125
        },
        {
          "name": "A#3",
          "midi": 58,
          "time": 111.9453125,
          "velocity": 0.9606299212598425,
          "duration": 0.71875
        },
        {
          "name": "F#3",
          "midi": 54,
          "time": 112.8828125,
          "velocity": 0.8582677165354331,
          "duration": 0.125
        },
        {
          "name": "G#3",
          "midi": 56,
          "time": 113.0703125,
          "velocity": 0.84251968503937,
          "duration": 0.1328125
        },
        {
          "name": "E3",
          "midi": 52,
          "time": 113.3671875,
          "velocity": 0.8582677165354331,
          "duration": 0.0546875
        },
        {
          "name": "G#3",
          "midi": 56,
          "time": 113.453125,
          "velocity": 0.889763779527559,
          "duration": 0.1328125
        },
        {
          "name": "B3",
          "midi": 59,
          "time": 113.6328125,
          "velocity": 0.968503937007874,
          "duration": 0.7265625
        },
        {
          "name": "F#3",
          "midi": 54,
          "time": 114.578125,
          "velocity": 0.8267716535433071,
          "duration": 0.140625
        },
        {
          "name": "G#3",
          "midi": 56,
          "time": 114.7578125,
          "velocity": 0.8346456692913385,
          "duration": 0.1171875
        },
        {
          "name": "E3",
          "midi": 52,
          "time": 115.0546875,
          "velocity": 0.8582677165354331,
          "duration": 0.046875
        },
        {
          "name": "G#3",
          "midi": 56,
          "time": 115.140625,
          "velocity": 0.8976377952755905,
          "duration": 0.140625
        },
        {
          "name": "B3",
          "midi": 59,
          "time": 115.3203125,
          "velocity": 0.9921259842519685,
          "duration": 0.734375
        },
        {
          "name": "F#3",
          "midi": 54,
          "time": 116.265625,
          "velocity": 0.8188976377952756,
          "duration": 0.1171875
        },
        {
          "name": "G#3",
          "midi": 56,
          "time": 116.4453125,
          "velocity": 0.8110236220472441,
          "duration": 0.1171875
        },
        {
          "name": "E3",
          "midi": 52,
          "time": 116.7421875,
          "velocity": 0.8818897637795275,
          "duration": 0.046875
        },
        {
          "name": "G#3",
          "midi": 56,
          "time": 116.8203125,
          "velocity": 0.905511811023622,
          "duration": 0.140625
        },
        {
          "name": "C#4",
          "midi": 61,
          "time": 117.0078125,
          "velocity": 0.9763779527559056,
          "duration": 0.515625
        },
        {
          "name": "F#3",
          "midi": 54,
          "time": 117.5703125,
          "velocity": 0.8346456692913385,
          "duration": 0.5078125
        },
        {
          "name": "B3",
          "midi": 59,
          "time": 118.1328125,
          "velocity": 0.8346456692913385,
          "duration": 0.125
        },
        {
          "name": "F#3",
          "midi": 54,
          "time": 118.4296875,
          "velocity": 0.84251968503937,
          "duration": 0.046875
        },
        {
          "name": "B3",
          "midi": 59,
          "time": 118.515625,
          "velocity": 0.9212598425196851,
          "duration": 0.140625
        },
        {
          "name": "D#4",
          "midi": 63,
          "time": 118.6953125,
          "velocity": 1,
          "duration": 0.7109375
        },
        {
          "name": "F#3",
          "midi": 54,
          "time": 119.640625,
          "velocity": 0.8188976377952756,
          "duration": 0.125
        },
        {
          "name": "G#3",
          "midi": 56,
          "time": 119.828125,
          "velocity": 0.8267716535433071,
          "duration": 0.1171875
        },
        {
          "name": "E3",
          "midi": 52,
          "time": 120.1171875,
          "velocity": 0.8582677165354331,
          "duration": 0.0546875
        },
        {
          "name": "G#3",
          "midi": 56,
          "time": 120.203125,
          "velocity": 0.8976377952755905,
          "duration": 0.125
        },
        {
          "name": "B3",
          "midi": 59,
          "time": 120.390625,
          "velocity": 1,
          "duration": 0.7109375
        },
        {
          "name": "F#3",
          "midi": 54,
          "time": 121.328125,
          "velocity": 0.8582677165354331,
          "duration": 0.140625
        },
        {
          "name": "G#3",
          "midi": 56,
          "time": 121.5078125,
          "velocity": 0.8110236220472441,
          "duration": 0.140625
        },
        {
          "name": "E3",
          "midi": 52,
          "time": 121.8125,
          "velocity": 0.8503937007874016,
          "duration": 0.0390625
        },
        {
          "name": "G#3",
          "midi": 56,
          "time": 121.8828125,
          "velocity": 0.9212598425196851,
          "duration": 0.140625
        },
        {
          "name": "B3",
          "midi": 59,
          "time": 122.0703125,
          "velocity": 0.968503937007874,
          "duration": 0.734375
        },
        {
          "name": "F#3",
          "midi": 54,
          "time": 123.015625,
          "velocity": 0.8503937007874016,
          "duration": 0.140625
        },
        {
          "name": "G#3",
          "midi": 56,
          "time": 123.203125,
          "velocity": 0.905511811023622,
          "duration": 0.1328125
        },
        {
          "name": "E3",
          "midi": 52,
          "time": 123.4921875,
          "velocity": 0.84251968503937,
          "duration": 0.0625
        },
        {
          "name": "G#3",
          "midi": 56,
          "time": 123.5703125,
          "velocity": 0.9212598425196851,
          "duration": 0.125
        },
        {
          "name": "C#4",
          "midi": 61,
          "time": 123.765625,
          "velocity": 1,
          "duration": 0.5078125
        },
        {
          "name": "F#3",
          "midi": 54,
          "time": 124.3203125,
          "velocity": 0.84251968503937,
          "duration": 0.5234375
        },
        {
          "name": "B3",
          "midi": 59,
          "time": 124.8828125,
          "velocity": 0.84251968503937,
          "duration": 0.140625
        },
        {
          "name": "F#3",
          "midi": 54,
          "time": 125.171875,
          "velocity": 0.8346456692913385,
          "duration": 0.0546875
        },
        {
          "name": "B3",
          "midi": 59,
          "time": 125.265625,
          "velocity": 0.8267716535433071,
          "duration": 0.140625
        },
        {
          "name": "D#4",
          "midi": 63,
          "time": 125.4453125,
          "velocity": 0.905511811023622,
          "duration": 0.140625
        },
        {
          "name": "B3",
          "midi": 59,
          "time": 125.7265625,
          "velocity": 0.8976377952755905,
          "duration": 0.0390625
        },
        {
          "name": "D#4",
          "midi": 63,
          "time": 125.828125,
          "velocity": 0.9212598425196851,
          "duration": 0.1328125
        },
        {
          "name": "F#4",
          "midi": 66,
          "time": 126.0078125,
          "velocity": 0.9921259842519685,
          "duration": 0.140625
        },
        {
          "name": "D#4",
          "midi": 63,
          "time": 126.2890625,
          "velocity": 1,
          "duration": 0.0390625
        },
        {
          "name": "F#4",
          "midi": 66,
          "time": 126.3828125,
          "velocity": 0.9606299212598425,
          "duration": 0.140625
        },
        {
          "name": "G3",
          "midi": 55,
          "time": 126.5703125,
          "velocity": 0.7637795275590551,
          "duration": 1.453125
        },
        {
          "name": "B3",
          "midi": 59,
          "time": 126.578125,
          "velocity": 0.9212598425196851,
          "duration": 0.1328125
        },
        {
          "name": "B2",
          "midi": 47,
          "time": 127.5078125,
          "velocity": 0.7952755905511811,
          "duration": 0.046875
        },
        {
          "name": "B2",
          "midi": 47,
          "time": 127.6015625,
          "velocity": 0.7952755905511811,
          "duration": 0.0625
        },
        {
          "name": "B2",
          "midi": 47,
          "time": 127.703125,
          "velocity": 0.7716535433070866,
          "duration": 0.1171875
        },
        {
          "name": "B2",
          "midi": 47,
          "time": 128.078125,
          "velocity": 0.7637795275590551,
          "duration": 0.0390625
        },
        {
          "name": "C#3",
          "midi": 49,
          "time": 128.171875,
          "velocity": 0.7874015748031497,
          "duration": 0.0546875
        },
        {
          "name": "B2",
          "midi": 47,
          "time": 128.171875,
          "velocity": 0.7637795275590551,
          "duration": 0.0390625
        },
        {
          "name": "G3",
          "midi": 55,
          "time": 128.2578125,
          "velocity": 0.8031496062992126,
          "duration": 1.4609375
        },
        {
          "name": "B2",
          "midi": 47,
          "time": 129.1953125,
          "velocity": 0.7874015748031497,
          "duration": 0.0546875
        },
        {
          "name": "B2",
          "midi": 47,
          "time": 129.2890625,
          "velocity": 0.7795275590551181,
          "duration": 0.0546875
        },
        {
          "name": "B2",
          "midi": 47,
          "time": 129.390625,
          "velocity": 0.7952755905511811,
          "duration": 0.1328125
        },
        {
          "name": "B2",
          "midi": 47,
          "time": 129.765625,
          "velocity": 0.7716535433070866,
          "duration": 0.0390625
        },
        {
          "name": "B2",
          "midi": 47,
          "time": 129.8515625,
          "velocity": 0.7637795275590551,
          "duration": 0.0546875
        },
        {
          "name": "C#3",
          "midi": 49,
          "time": 129.859375,
          "velocity": 0.7795275590551181,
          "duration": 0.0546875
        },
        {
          "name": "E3",
          "midi": 52,
          "time": 129.9453125,
          "velocity": 0.7716535433070866,
          "duration": 1.46875
        },
        {
          "name": "E3",
          "midi": 52,
          "time": 131.4453125,
          "velocity": 0.7716535433070866,
          "duration": 0.0625
        },
        {
          "name": "E3",
          "midi": 52,
          "time": 131.546875,
          "velocity": 0.8031496062992126,
          "duration": 0.0625
        },
        {
          "name": "E3",
          "midi": 52,
          "time": 131.6328125,
          "velocity": 0.8031496062992126,
          "duration": 1.5859375
        },
        {
          "name": "E3",
          "midi": 52,
          "time": 134.265625,
          "velocity": 0.7795275590551181,
          "duration": 0.046875
        },
        {
          "name": "E3",
          "midi": 52,
          "time": 134.3515625,
          "velocity": 0.7637795275590551,
          "duration": 0.0625
        },
        {
          "name": "E3",
          "midi": 52,
          "time": 134.4453125,
          "velocity": 0.7795275590551181,
          "duration": 0.125
        },
        {
          "name": "E3",
          "midi": 52,
          "time": 134.828125,
          "velocity": 0.7716535433070866,
          "duration": 0.0546875
        },
        {
          "name": "E3",
          "midi": 52,
          "time": 134.9140625,
          "velocity": 0.8031496062992126,
          "duration": 0.0390625
        },
        {
          "name": "E3",
          "midi": 52,
          "time": 135.9453125,
          "velocity": 0.7874015748031497,
          "duration": 0.046875
        },
        {
          "name": "E3",
          "midi": 52,
          "time": 136.046875,
          "velocity": 0.7716535433070866,
          "duration": 0.0546875
        },
        {
          "name": "E3",
          "midi": 52,
          "time": 136.140625,
          "velocity": 0.7637795275590551,
          "duration": 0.140625
        },
        {
          "name": "E3",
          "midi": 52,
          "time": 136.5078125,
          "velocity": 0.7874015748031497,
          "duration": 0.0625
        },
        {
          "name": "E3",
          "midi": 52,
          "time": 136.6015625,
          "velocity": 0.7874015748031497,
          "duration": 0.0546875
        },
        {
          "name": "F#3",
          "midi": 54,
          "time": 136.6953125,
          "velocity": 0.7795275590551181,
          "duration": 1.4609375
        },
        {
          "name": "F#3",
          "midi": 54,
          "time": 138.203125,
          "velocity": 0.7716535433070866,
          "duration": 0.0390625
        },
        {
          "name": "F#3",
          "midi": 54,
          "time": 138.2890625,
          "velocity": 0.7637795275590551,
          "duration": 0.0390625
        },
        {
          "name": "F#3",
          "midi": 54,
          "time": 138.390625,
          "velocity": 0.7952755905511811,
          "duration": 1.609375
        },
        {
          "name": "B2",
          "midi": 47,
          "time": 141.0078125,
          "velocity": 0.5433070866141733,
          "duration": 0.046875
        },
        {
          "name": "B2",
          "midi": 47,
          "time": 141.1015625,
          "velocity": 0.5669291338582677,
          "duration": 0.046875
        },
        {
          "name": "B2",
          "midi": 47,
          "time": 141.203125,
          "velocity": 0.5669291338582677,
          "duration": 0.140625
        },
        {
          "name": "B2",
          "midi": 47,
          "time": 141.5703125,
          "velocity": 0.5433070866141733,
          "duration": 0.0625
        },
        {
          "name": "B2",
          "midi": 47,
          "time": 141.671875,
          "velocity": 0.5354330708661418,
          "duration": 0.0390625
        },
        {
          "name": "B2",
          "midi": 47,
          "time": 141.765625,
          "velocity": 0.5275590551181102,
          "duration": 0.1328125
        },
        {
          "name": "B2",
          "midi": 47,
          "time": 142.703125,
          "velocity": 0.5275590551181102,
          "duration": 0.0546875
        },
        {
          "name": "B2",
          "midi": 47,
          "time": 142.796875,
          "velocity": 0.5511811023622047,
          "duration": 0.0390625
        },
        {
          "name": "B2",
          "midi": 47,
          "time": 142.8828125,
          "velocity": 0.5511811023622047,
          "duration": 0.125
        },
        {
          "name": "B2",
          "midi": 47,
          "time": 143.265625,
          "velocity": 0.5590551181102362,
          "duration": 0.0390625
        },
        {
          "name": "B2",
          "midi": 47,
          "time": 143.3515625,
          "velocity": 0.5669291338582677,
          "duration": 0.0546875
        },
        {
          "name": "C3",
          "midi": 48,
          "time": 143.453125,
          "velocity": 0.6299212598425197,
          "duration": 0.53125
        },
        {
          "name": "E3",
          "midi": 52,
          "time": 144.0078125,
          "velocity": 0.6377952755905512,
          "duration": 0.1171875
        },
        {
          "name": "C3",
          "midi": 48,
          "time": 144.2890625,
          "velocity": 0.6456692913385826,
          "duration": 0.0625
        },
        {
          "name": "E3",
          "midi": 52,
          "time": 144.390625,
          "velocity": 0.6062992125984252,
          "duration": 0.1171875
        },
        {
          "name": "G3",
          "midi": 55,
          "time": 144.5703125,
          "velocity": 0.6141732283464567,
          "duration": 0.203125
        },
        {
          "name": "G3",
          "midi": 55,
          "time": 144.9453125,
          "velocity": 0.6220472440944882,
          "duration": 0.1328125
        },
        {
          "name": "G2",
          "midi": 43,
          "time": 144.953125,
          "velocity": 0.6220472440944882,
          "duration": 0.1171875
        },
        {
          "name": "C3",
          "midi": 48,
          "time": 145.140625,
          "velocity": 0.6220472440944882,
          "duration": 0.5078125
        },
        {
          "name": "E3",
          "midi": 52,
          "time": 145.703125,
          "velocity": 0.6299212598425197,
          "duration": 0.140625
        },
        {
          "name": "C3",
          "midi": 48,
          "time": 145.984375,
          "velocity": 0.6220472440944882,
          "duration": 0.0625
        },
        {
          "name": "E3",
          "midi": 52,
          "time": 146.0703125,
          "velocity": 0.6377952755905512,
          "duration": 0.1171875
        },
        {
          "name": "G3",
          "midi": 55,
          "time": 146.2578125,
          "velocity": 0.6220472440944882,
          "duration": 0.1953125
        },
        {
          "name": "G2",
          "midi": 43,
          "time": 146.640625,
          "velocity": 0.6062992125984252,
          "duration": 0.1328125
        },
        {
          "name": "G3",
          "midi": 55,
          "time": 146.640625,
          "velocity": 0.6141732283464567,
          "duration": 0.1171875
        },
        {
          "name": "C#4",
          "midi": 61,
          "time": 146.8203125,
          "velocity": 0.6220472440944882,
          "duration": 3.3359375
        },
        {
          "name": "D#4",
          "midi": 63,
          "time": 150.203125,
          "velocity": 0.6220472440944882,
          "duration": 3.53125
        },
        {
          "name": "B3",
          "midi": 59,
          "time": 150.203125,
          "velocity": 0.6062992125984252,
          "duration": 3.515625
        },
        {
          "name": "F#3",
          "midi": 54,
          "time": 163.6953125,
          "velocity": 0.9448818897637795,
          "duration": 0.125
        },
        {
          "name": "B3",
          "midi": 59,
          "time": 163.703125,
          "velocity": 0.937007874015748,
          "duration": 0.1171875
        }
      ],
      "controlChanges": {
        "7": [
          {
            "number": 7,
            "time": 0,
            "value": 0.9212598425196851
          }
        ],
        "10": [
          {
            "number": 10,
            "time": 0,
            "value": 0.25196850393700787
          }
        ],
        "11": [
          {
            "number": 11,
            "time": 0.0078125,
            "value": 1
          }
        ],
        "91": [
          {
            "number": 91,
            "time": 0,
            "value": 0.7874015748031497
          }
        ],
        "93": [
          {
            "number": 93,
            "time": 0,
            "value": 0.3937007874015748
          }
        ]
      }
    },
    {
      "startTime": 99.3828125,
      "duration": 163.8203125,
      "length": 138,
      "id": 5,
      "name": "Trombones",
      "instrumentNumber": 57,
      "instrument": "trombone",
      "instrumentFamily": "brass",
      "channelNumber": 4,
      "isPercussion": false,
      "notes": [
        {
          "name": "F#4",
          "midi": 66,
          "time": 99.3828125,
          "velocity": 0.9448818897637795,
          "duration": 0.1015625
        },
        {
          "name": "B3",
          "midi": 59,
          "time": 99.578125,
          "velocity": 0.9606299212598425,
          "duration": 0.125
        },
        {
          "name": "F#3",
          "midi": 54,
          "time": 99.8671875,
          "velocity": 0.8582677165354331,
          "duration": 0.0625
        },
        {
          "name": "B3",
          "midi": 59,
          "time": 99.9453125,
          "velocity": 0.905511811023622,
          "duration": 0.140625
        },
        {
          "name": "D#4",
          "midi": 63,
          "time": 100.1328125,
          "velocity": 0.9921259842519685,
          "duration": 0.5078125
        },
        {
          "name": "B3",
          "midi": 59,
          "time": 100.703125,
          "velocity": 0.8188976377952756,
          "duration": 0.515625
        },
        {
          "name": "D#4",
          "midi": 63,
          "time": 101.265625,
          "velocity": 0.8110236220472441,
          "duration": 0.140625
        },
        {
          "name": "B3",
          "midi": 59,
          "time": 101.5546875,
          "velocity": 0.8503937007874016,
          "duration": 0.0625
        },
        {
          "name": "D#4",
          "midi": 63,
          "time": 101.640625,
          "velocity": 0.8976377952755905,
          "duration": 0.125
        },
        {
          "name": "F#4",
          "midi": 66,
          "time": 101.828125,
          "velocity": 0.9921259842519685,
          "duration": 0.5078125
        },
        {
          "name": "D#4",
          "midi": 63,
          "time": 102.390625,
          "velocity": 0.84251968503937,
          "duration": 0.5078125
        },
        {
          "name": "F#4",
          "midi": 66,
          "time": 102.953125,
          "velocity": 0.8188976377952756,
          "duration": 0.1171875
        },
        {
          "name": "D#4",
          "midi": 63,
          "time": 103.2421875,
          "velocity": 0.8818897637795275,
          "duration": 0.0390625
        },
        {
          "name": "F#4",
          "midi": 66,
          "time": 103.3203125,
          "velocity": 0.9212598425196851,
          "duration": 0.1328125
        },
        {
          "name": "A#4",
          "midi": 70,
          "time": 103.5078125,
          "velocity": 0.9606299212598425,
          "duration": 0.5078125
        },
        {
          "name": "A#3",
          "midi": 58,
          "time": 104.0703125,
          "velocity": 0.84251968503937,
          "duration": 0.515625
        },
        {
          "name": "D#4",
          "midi": 63,
          "time": 104.6328125,
          "velocity": 0.8267716535433071,
          "duration": 0.1171875
        },
        {
          "name": "A#3",
          "midi": 58,
          "time": 104.9375,
          "velocity": 0.8503937007874016,
          "duration": 0.0390625
        },
        {
          "name": "D#4",
          "midi": 63,
          "time": 105.015625,
          "velocity": 0.9212598425196851,
          "duration": 0.1328125
        },
        {
          "name": "F#4",
          "midi": 66,
          "time": 105.203125,
          "velocity": 0.968503937007874,
          "duration": 0.71875
        },
        {
          "name": "A#3",
          "midi": 58,
          "time": 106.140625,
          "velocity": 0.8503937007874016,
          "duration": 0.125
        },
        {
          "name": "D#4",
          "midi": 63,
          "time": 106.328125,
          "velocity": 0.84251968503937,
          "duration": 0.125
        },
        {
          "name": "B3",
          "midi": 59,
          "time": 106.625,
          "velocity": 0.8818897637795275,
          "duration": 0.0390625
        },
        {
          "name": "D#4",
          "midi": 63,
          "time": 106.703125,
          "velocity": 0.905511811023622,
          "duration": 0.125
        },
        {
          "name": "F#4",
          "midi": 66,
          "time": 106.8828125,
          "velocity": 0.968503937007874,
          "duration": 0.5078125
        },
        {
          "name": "D#4",
          "midi": 63,
          "time": 107.453125,
          "velocity": 0.8188976377952756,
          "duration": 0.5078125
        },
        {
          "name": "F#4",
          "midi": 66,
          "time": 108.015625,
          "velocity": 0.8031496062992126,
          "duration": 0.1171875
        },
        {
          "name": "D#4",
          "midi": 63,
          "time": 108.3125,
          "velocity": 0.8582677165354331,
          "duration": 0.0390625
        },
        {
          "name": "F#4",
          "midi": 66,
          "time": 108.390625,
          "velocity": 0.8818897637795275,
          "duration": 0.140625
        },
        {
          "name": "A#4",
          "midi": 70,
          "time": 108.578125,
          "velocity": 0.9763779527559056,
          "duration": 0.53125
        },
        {
          "name": "F#4",
          "midi": 66,
          "time": 109.140625,
          "velocity": 0.8503937007874016,
          "duration": 0.515625
        },
        {
          "name": "A#4",
          "midi": 70,
          "time": 109.703125,
          "velocity": 0.8110236220472441,
          "duration": 0.1328125
        },
        {
          "name": "F#4",
          "midi": 66,
          "time": 110,
          "velocity": 0.8740157480314961,
          "duration": 0.0625
        },
        {
          "name": "A#4",
          "midi": 70,
          "time": 110.078125,
          "velocity": 0.8976377952755905,
          "duration": 0.1328125
        },
        {
          "name": "C#5",
          "midi": 73,
          "time": 110.265625,
          "velocity": 0.9606299212598425,
          "duration": 0.53125
        },
        {
          "name": "C#4",
          "midi": 61,
          "time": 110.8203125,
          "velocity": 0.8503937007874016,
          "duration": 0.5234375
        },
        {
          "name": "F#4",
          "midi": 66,
          "time": 111.390625,
          "velocity": 0.8346456692913385,
          "duration": 0.125
        },
        {
          "name": "C#4",
          "midi": 61,
          "time": 111.6796875,
          "velocity": 0.8582677165354331,
          "duration": 0.046875
        },
        {
          "name": "F#4",
          "midi": 66,
          "time": 111.7578125,
          "velocity": 0.905511811023622,
          "duration": 0.125
        },
        {
          "name": "A#4",
          "midi": 70,
          "time": 111.9453125,
          "velocity": 0.9606299212598425,
          "duration": 0.7265625
        },
        {
          "name": "F#4",
          "midi": 66,
          "time": 112.8828125,
          "velocity": 0.8582677165354331,
          "duration": 0.125
        },
        {
          "name": "G#4",
          "midi": 68,
          "time": 113.0703125,
          "velocity": 0.8267716535433071,
          "duration": 0.140625
        },
        {
          "name": "E4",
          "midi": 64,
          "time": 113.375,
          "velocity": 0.8818897637795275,
          "duration": 0.0390625
        },
        {
          "name": "G#4",
          "midi": 68,
          "time": 113.453125,
          "velocity": 0.9212598425196851,
          "duration": 0.140625
        },
        {
          "name": "B4",
          "midi": 71,
          "time": 113.6328125,
          "velocity": 0.9606299212598425,
          "duration": 0.734375
        },
        {
          "name": "F#4",
          "midi": 66,
          "time": 114.578125,
          "velocity": 0.84251968503937,
          "duration": 0.1328125
        },
        {
          "name": "G#4",
          "midi": 68,
          "time": 114.7578125,
          "velocity": 0.8110236220472441,
          "duration": 0.125
        },
        {
          "name": "E4",
          "midi": 64,
          "time": 115.0546875,
          "velocity": 0.8503937007874016,
          "duration": 0.0390625
        },
        {
          "name": "G#4",
          "midi": 68,
          "time": 115.140625,
          "velocity": 0.889763779527559,
          "duration": 0.125
        },
        {
          "name": "B4",
          "midi": 71,
          "time": 115.3203125,
          "velocity": 1,
          "duration": 0.7109375
        },
        {
          "name": "F#4",
          "midi": 66,
          "time": 116.265625,
          "velocity": 0.8188976377952756,
          "duration": 0.1328125
        },
        {
          "name": "G#4",
          "midi": 68,
          "time": 116.4453125,
          "velocity": 0.84251968503937,
          "duration": 0.1171875
        },
        {
          "name": "E4",
          "midi": 64,
          "time": 116.75,
          "velocity": 0.8582677165354331,
          "duration": 0.0625
        },
        {
          "name": "G#4",
          "midi": 68,
          "time": 116.828125,
          "velocity": 0.9212598425196851,
          "duration": 0.140625
        },
        {
          "name": "C#5",
          "midi": 73,
          "time": 117.015625,
          "velocity": 0.9606299212598425,
          "duration": 0.515625
        },
        {
          "name": "F#4",
          "midi": 66,
          "time": 117.5703125,
          "velocity": 0.8503937007874016,
          "duration": 0.515625
        },
        {
          "name": "B4",
          "midi": 71,
          "time": 118.1328125,
          "velocity": 0.8110236220472441,
          "duration": 0.140625
        },
        {
          "name": "F#4",
          "midi": 66,
          "time": 118.4296875,
          "velocity": 0.8661417322834646,
          "duration": 0.046875
        },
        {
          "name": "B4",
          "midi": 71,
          "time": 118.515625,
          "velocity": 0.905511811023622,
          "duration": 0.140625
        },
        {
          "name": "D#5",
          "midi": 75,
          "time": 118.703125,
          "velocity": 0.968503937007874,
          "duration": 0.7265625
        },
        {
          "name": "F#4",
          "midi": 66,
          "time": 119.6328125,
          "velocity": 0.8267716535433071,
          "duration": 0.1171875
        },
        {
          "name": "G#4",
          "midi": 68,
          "time": 119.8203125,
          "velocity": 0.8188976377952756,
          "duration": 0.125
        },
        {
          "name": "E4",
          "midi": 64,
          "time": 120.1171875,
          "velocity": 0.84251968503937,
          "duration": 0.0390625
        },
        {
          "name": "G#4",
          "midi": 68,
          "time": 120.1953125,
          "velocity": 0.905511811023622,
          "duration": 0.125
        },
        {
          "name": "B4",
          "midi": 71,
          "time": 120.390625,
          "velocity": 0.968503937007874,
          "duration": 0.71875
        },
        {
          "name": "F#4",
          "midi": 66,
          "time": 121.328125,
          "velocity": 0.8267716535433071,
          "duration": 0.1171875
        },
        {
          "name": "G#4",
          "midi": 68,
          "time": 121.515625,
          "velocity": 0.8346456692913385,
          "duration": 0.140625
        },
        {
          "name": "E4",
          "midi": 64,
          "time": 121.8125,
          "velocity": 0.8818897637795275,
          "duration": 0.0625
        },
        {
          "name": "G#4",
          "midi": 68,
          "time": 121.890625,
          "velocity": 0.9133858267716536,
          "duration": 0.1171875
        },
        {
          "name": "B4",
          "midi": 71,
          "time": 122.078125,
          "velocity": 0.9606299212598425,
          "duration": 0.734375
        },
        {
          "name": "F#4",
          "midi": 66,
          "time": 123.0078125,
          "velocity": 0.84251968503937,
          "duration": 0.1328125
        },
        {
          "name": "G#4",
          "midi": 68,
          "time": 123.203125,
          "velocity": 0.9212598425196851,
          "duration": 0.1328125
        },
        {
          "name": "E4",
          "midi": 64,
          "time": 123.4921875,
          "velocity": 0.8661417322834646,
          "duration": 0.0546875
        },
        {
          "name": "G#4",
          "midi": 68,
          "time": 123.578125,
          "velocity": 0.889763779527559,
          "duration": 0.125
        },
        {
          "name": "C#5",
          "midi": 73,
          "time": 123.765625,
          "velocity": 0.968503937007874,
          "duration": 0.515625
        },
        {
          "name": "F#4",
          "midi": 66,
          "time": 124.3203125,
          "velocity": 0.8188976377952756,
          "duration": 0.515625
        },
        {
          "name": "B4",
          "midi": 71,
          "time": 124.890625,
          "velocity": 0.8346456692913385,
          "duration": 0.1328125
        },
        {
          "name": "F#4",
          "midi": 66,
          "time": 125.1640625,
          "velocity": 0.8110236220472441,
          "duration": 0.0546875
        },
        {
          "name": "B4",
          "midi": 71,
          "time": 125.2578125,
          "velocity": 0.8346456692913385,
          "duration": 0.1328125
        },
        {
          "name": "D#5",
          "midi": 75,
          "time": 125.453125,
          "velocity": 0.905511811023622,
          "duration": 0.140625
        },
        {
          "name": "B4",
          "midi": 71,
          "time": 125.734375,
          "velocity": 0.9212598425196851,
          "duration": 0.0546875
        },
        {
          "name": "D#5",
          "midi": 75,
          "time": 125.828125,
          "velocity": 0.9212598425196851,
          "duration": 0.1484375
        },
        {
          "name": "F#5",
          "midi": 78,
          "time": 126.015625,
          "velocity": 0.984251968503937,
          "duration": 0.1328125
        },
        {
          "name": "D#5",
          "midi": 75,
          "time": 126.296875,
          "velocity": 0.968503937007874,
          "duration": 0.046875
        },
        {
          "name": "F#5",
          "midi": 78,
          "time": 126.390625,
          "velocity": 0.9606299212598425,
          "duration": 0.140625
        },
        {
          "name": "B4",
          "midi": 71,
          "time": 126.5703125,
          "velocity": 0.7716535433070866,
          "duration": 1.4609375
        },
        {
          "name": "B3",
          "midi": 59,
          "time": 127.5078125,
          "velocity": 0.7716535433070866,
          "duration": 0.0390625
        },
        {
          "name": "B3",
          "midi": 59,
          "time": 127.609375,
          "velocity": 0.7874015748031497,
          "duration": 0.0390625
        },
        {
          "name": "B3",
          "midi": 59,
          "time": 127.703125,
          "velocity": 0.7716535433070866,
          "duration": 0.125
        },
        {
          "name": "B3",
          "midi": 59,
          "time": 128.078125,
          "velocity": 0.7716535433070866,
          "duration": 0.0390625
        },
        {
          "name": "B4",
          "midi": 71,
          "time": 128.265625,
          "velocity": 0.8031496062992126,
          "duration": 1.453125
        },
        {
          "name": "B3",
          "midi": 59,
          "time": 129.203125,
          "velocity": 0.7716535433070866,
          "duration": 0.0625
        },
        {
          "name": "B3",
          "midi": 59,
          "time": 129.296875,
          "velocity": 0.7795275590551181,
          "duration": 0.0390625
        },
        {
          "name": "B3",
          "midi": 59,
          "time": 129.3828125,
          "velocity": 0.7952755905511811,
          "duration": 0.140625
        },
        {
          "name": "B3",
          "midi": 59,
          "time": 129.765625,
          "velocity": 0.7795275590551181,
          "duration": 0.0546875
        },
        {
          "name": "E4",
          "midi": 64,
          "time": 129.953125,
          "velocity": 0.7874015748031497,
          "duration": 1.4609375
        },
        {
          "name": "E4",
          "midi": 64,
          "time": 131.4453125,
          "velocity": 0.7874015748031497,
          "duration": 0.0703125
        },
        {
          "name": "E4",
          "midi": 64,
          "time": 131.5390625,
          "velocity": 0.7637795275590551,
          "duration": 0.0390625
        },
        {
          "name": "E4",
          "midi": 64,
          "time": 131.640625,
          "velocity": 0.7874015748031497,
          "duration": 1.59375
        },
        {
          "name": "E4",
          "midi": 64,
          "time": 134.2578125,
          "velocity": 0.7874015748031497,
          "duration": 0.0390625
        },
        {
          "name": "E4",
          "midi": 64,
          "time": 134.359375,
          "velocity": 0.8031496062992126,
          "duration": 0.0625
        },
        {
          "name": "E4",
          "midi": 64,
          "time": 134.453125,
          "velocity": 0.7874015748031497,
          "duration": 0.140625
        },
        {
          "name": "E4",
          "midi": 64,
          "time": 134.8203125,
          "velocity": 0.7637795275590551,
          "duration": 0.0625
        },
        {
          "name": "E4",
          "midi": 64,
          "time": 134.9140625,
          "velocity": 0.7952755905511811,
          "duration": 0.0390625
        },
        {
          "name": "E4",
          "midi": 64,
          "time": 135.9453125,
          "velocity": 0.7952755905511811,
          "duration": 0.0546875
        },
        {
          "name": "E4",
          "midi": 64,
          "time": 136.0390625,
          "velocity": 0.7874015748031497,
          "duration": 0.046875
        },
        {
          "name": "E4",
          "midi": 64,
          "time": 136.140625,
          "velocity": 0.7795275590551181,
          "duration": 0.1171875
        },
        {
          "name": "E4",
          "midi": 64,
          "time": 136.5078125,
          "velocity": 0.7795275590551181,
          "duration": 0.0546875
        },
        {
          "name": "E4",
          "midi": 64,
          "time": 136.609375,
          "velocity": 0.7874015748031497,
          "duration": 0.0390625
        },
        {
          "name": "F#4",
          "midi": 66,
          "time": 136.6953125,
          "velocity": 0.7795275590551181,
          "duration": 1.4453125
        },
        {
          "name": "F#4",
          "midi": 66,
          "time": 138.203125,
          "velocity": 0.7952755905511811,
          "duration": 0.0546875
        },
        {
          "name": "F#4",
          "midi": 66,
          "time": 138.2890625,
          "velocity": 0.7637795275590551,
          "duration": 0.0546875
        },
        {
          "name": "F#4",
          "midi": 66,
          "time": 138.3828125,
          "velocity": 0.8031496062992126,
          "duration": 1.609375
        },
        {
          "name": "B3",
          "midi": 59,
          "time": 141.0078125,
          "velocity": 0.5511811023622047,
          "duration": 0.0625
        },
        {
          "name": "B3",
          "midi": 59,
          "time": 141.109375,
          "velocity": 0.5590551181102362,
          "duration": 0.0546875
        },
        {
          "name": "B3",
          "midi": 59,
          "time": 141.203125,
          "velocity": 0.5433070866141733,
          "duration": 0.140625
        },
        {
          "name": "B3",
          "midi": 59,
          "time": 141.5703125,
          "velocity": 0.5433070866141733,
          "duration": 0.046875
        },
        {
          "name": "B3",
          "midi": 59,
          "time": 141.671875,
          "velocity": 0.5590551181102362,
          "duration": 0.0546875
        },
        {
          "name": "B3",
          "midi": 59,
          "time": 141.765625,
          "velocity": 0.5275590551181102,
          "duration": 0.140625
        },
        {
          "name": "B3",
          "midi": 59,
          "time": 142.6953125,
          "velocity": 0.5511811023622047,
          "duration": 0.046875
        },
        {
          "name": "B3",
          "midi": 59,
          "time": 142.7890625,
          "velocity": 0.5511811023622047,
          "duration": 0.0625
        },
        {
          "name": "B3",
          "midi": 59,
          "time": 142.890625,
          "velocity": 0.5354330708661418,
          "duration": 0.140625
        },
        {
          "name": "B3",
          "midi": 59,
          "time": 143.265625,
          "velocity": 0.5511811023622047,
          "duration": 0.0625
        },
        {
          "name": "B3",
          "midi": 59,
          "time": 143.3515625,
          "velocity": 0.5354330708661418,
          "duration": 0.0625
        },
        {
          "name": "C4",
          "midi": 60,
          "time": 143.453125,
          "velocity": 0.6220472440944882,
          "duration": 0.53125
        },
        {
          "name": "E4",
          "midi": 64,
          "time": 144.015625,
          "velocity": 0.6377952755905512,
          "duration": 0.1328125
        },
        {
          "name": "C4",
          "midi": 60,
          "time": 144.2890625,
          "velocity": 0.6456692913385826,
          "duration": 0.0546875
        },
        {
          "name": "E4",
          "midi": 64,
          "time": 144.3828125,
          "velocity": 0.6377952755905512,
          "duration": 0.1328125
        },
        {
          "name": "G4",
          "midi": 67,
          "time": 144.5703125,
          "velocity": 0.6456692913385826,
          "duration": 0.1953125
        },
        {
          "name": "C4",
          "midi": 60,
          "time": 145.1328125,
          "velocity": 0.6220472440944882,
          "duration": 0.515625
        },
        {
          "name": "E4",
          "midi": 64,
          "time": 145.703125,
          "velocity": 0.6220472440944882,
          "duration": 0.125
        },
        {
          "name": "C4",
          "midi": 60,
          "time": 145.984375,
          "velocity": 0.6220472440944882,
          "duration": 0.0625
        },
        {
          "name": "E4",
          "midi": 64,
          "time": 146.0703125,
          "velocity": 0.6141732283464567,
          "duration": 0.1171875
        },
        {
          "name": "G4",
          "midi": 67,
          "time": 146.265625,
          "velocity": 0.6141732283464567,
          "duration": 0.2109375
        },
        {
          "name": "A#4",
          "midi": 70,
          "time": 146.8203125,
          "velocity": 0.6062992125984252,
          "duration": 3.328125
        },
        {
          "name": "F#4",
          "midi": 66,
          "time": 150.1953125,
          "velocity": 0.6299212598425197,
          "duration": 3.515625
        },
        {
          "name": "F#4",
          "midi": 66,
          "time": 163.703125,
          "velocity": 0.9291338582677166,
          "duration": 0.1484375
        },
        {
          "name": "D#4",
          "midi": 63,
          "time": 163.703125,
          "velocity": 0.9291338582677166,
          "duration": 0.1171875
        }
      ],
      "controlChanges": {
        "7": [
          {
            "number": 7,
            "time": 0,
            "value": 0.9212598425196851
          }
        ],
        "10": [
          {
            "number": 10,
            "time": 0,
            "value": 0.5039370078740157
          }
        ],
        "11": [
          {
            "number": 11,
            "time": 0.0078125,
            "value": 1
          }
        ],
        "91": [
          {
            "number": 91,
            "time": 0,
            "value": 0.7874015748031497
          }
        ],
        "93": [
          {
            "number": 93,
            "time": 0,
            "value": 0.3937007874015748
          }
        ]
      }
    },
    {
      "startTime": 1.5,
      "duration": 163.84375,
      "length": 767,
      "id": 6,
      "name": "Contrabass",
      "instrumentNumber": 48,
      "instrument": "string ensemble 1",
      "instrumentFamily": "ensemble",
      "channelNumber": 5,
      "isPercussion": false,
      "notes": [
        {
          "name": "B2",
          "midi": 47,
          "time": 1.5,
          "velocity": 0.5511811023622047,
          "duration": 0.03125
        },
        {
          "name": "C#3",
          "midi": 49,
          "time": 1.5390625,
          "velocity": 0.6456692913385826,
          "duration": 0.015625
        },
        {
          "name": "D3",
          "midi": 50,
          "time": 1.5859375,
          "velocity": 0.6929133858267716,
          "duration": 0.015625
        },
        {
          "name": "E3",
          "midi": 52,
          "time": 1.6328125,
          "velocity": 0.7716535433070866,
          "duration": 0.03125
        },
        {
          "name": "F#3",
          "midi": 54,
          "time": 1.6875,
          "velocity": 0.9291338582677166,
          "duration": 0.140625
        },
        {
          "name": "B2",
          "midi": 47,
          "time": 8.25,
          "velocity": 0.5275590551181102,
          "duration": 0.0234375
        },
        {
          "name": "C#3",
          "midi": 49,
          "time": 8.2890625,
          "velocity": 0.6220472440944882,
          "duration": 0.03125
        },
        {
          "name": "D3",
          "midi": 50,
          "time": 8.3359375,
          "velocity": 0.6850393700787402,
          "duration": 0.0390625
        },
        {
          "name": "E3",
          "midi": 52,
          "time": 8.390625,
          "velocity": 0.7795275590551181,
          "duration": 0.0234375
        },
        {
          "name": "F#3",
          "midi": 54,
          "time": 8.4375,
          "velocity": 0.952755905511811,
          "duration": 0.171875
        },
        {
          "name": "B2",
          "midi": 47,
          "time": 8.9921875,
          "velocity": 0.47244094488188976,
          "duration": 0.0390625
        },
        {
          "name": "B3",
          "midi": 59,
          "time": 9.2734375,
          "velocity": 0.5748031496062992,
          "duration": 0.046875
        },
        {
          "name": "F#3",
          "midi": 54,
          "time": 9.3671875,
          "velocity": 0.4015748031496063,
          "duration": 0.09375
        },
        {
          "name": "F#3",
          "midi": 54,
          "time": 9.5625,
          "velocity": 0.4566929133858268,
          "duration": 0.1328125
        },
        {
          "name": "F#4",
          "midi": 66,
          "time": 9.84375,
          "velocity": 0.48031496062992124,
          "duration": 0.046875
        },
        {
          "name": "B3",
          "midi": 59,
          "time": 9.9296875,
          "velocity": 0.3779527559055118,
          "duration": 0.0546875
        },
        {
          "name": "B2",
          "midi": 47,
          "time": 10.6796875,
          "velocity": 0.4645669291338583,
          "duration": 0.046875
        },
        {
          "name": "B3",
          "midi": 59,
          "time": 10.96875,
          "velocity": 0.5826771653543307,
          "duration": 0.0546875
        },
        {
          "name": "F#3",
          "midi": 54,
          "time": 11.0546875,
          "velocity": 0.4015748031496063,
          "duration": 0.0625
        },
        {
          "name": "F#3",
          "midi": 54,
          "time": 11.25,
          "velocity": 0.4566929133858268,
          "duration": 0.140625
        },
        {
          "name": "F#4",
          "midi": 66,
          "time": 11.53125,
          "velocity": 0.4881889763779528,
          "duration": 0.046875
        },
        {
          "name": "B3",
          "midi": 59,
          "time": 11.6171875,
          "velocity": 0.3700787401574803,
          "duration": 0.0625
        },
        {
          "name": "B2",
          "midi": 47,
          "time": 12.375,
          "velocity": 0.4645669291338583,
          "duration": 0.046875
        },
        {
          "name": "B3",
          "midi": 59,
          "time": 12.6484375,
          "velocity": 0.5905511811023622,
          "duration": 0.0546875
        },
        {
          "name": "F#3",
          "midi": 54,
          "time": 12.75,
          "velocity": 0.3937007874015748,
          "duration": 0.046875
        },
        {
          "name": "F#3",
          "midi": 54,
          "time": 12.9296875,
          "velocity": 0.4566929133858268,
          "duration": 0.1171875
        },
        {
          "name": "F#4",
          "midi": 66,
          "time": 13.21875,
          "velocity": 0.4645669291338583,
          "duration": 0.0625
        },
        {
          "name": "B3",
          "midi": 59,
          "time": 13.3125,
          "velocity": 0.3858267716535433,
          "duration": 0.0390625
        },
        {
          "name": "B2",
          "midi": 47,
          "time": 14.0546875,
          "velocity": 0.4566929133858268,
          "duration": 0.0546875
        },
        {
          "name": "B3",
          "midi": 59,
          "time": 14.34375,
          "velocity": 0.5984251968503937,
          "duration": 0.0390625
        },
        {
          "name": "F#3",
          "midi": 54,
          "time": 14.4375,
          "velocity": 0.3858267716535433,
          "duration": 0.046875
        },
        {
          "name": "F#3",
          "midi": 54,
          "time": 14.6171875,
          "velocity": 0.48031496062992124,
          "duration": 0.1328125
        },
        {
          "name": "F#4",
          "midi": 66,
          "time": 14.8984375,
          "velocity": 0.4566929133858268,
          "duration": 0.046875
        },
        {
          "name": "B3",
          "midi": 59,
          "time": 14.9921875,
          "velocity": 0.4015748031496063,
          "duration": 0.046875
        },
        {
          "name": "B2",
          "midi": 47,
          "time": 15.75,
          "velocity": 0.48031496062992124,
          "duration": 0.0546875
        },
        {
          "name": "B3",
          "midi": 59,
          "time": 16.0234375,
          "velocity": 0.5905511811023622,
          "duration": 0.0390625
        },
        {
          "name": "F#3",
          "midi": 54,
          "time": 16.125,
          "velocity": 0.3858267716535433,
          "duration": 0.0625
        },
        {
          "name": "F#3",
          "midi": 54,
          "time": 16.3125,
          "velocity": 0.47244094488188976,
          "duration": 0.140625
        },
        {
          "name": "F#4",
          "midi": 66,
          "time": 16.59375,
          "velocity": 0.4566929133858268,
          "duration": 0.0625
        },
        {
          "name": "B3",
          "midi": 59,
          "time": 16.6796875,
          "velocity": 0.3779527559055118,
          "duration": 0.046875
        },
        {
          "name": "B2",
          "midi": 47,
          "time": 17.4375,
          "velocity": 0.48031496062992124,
          "duration": 0.046875
        },
        {
          "name": "B3",
          "midi": 59,
          "time": 17.71875,
          "velocity": 0.5905511811023622,
          "duration": 0.046875
        },
        {
          "name": "F#3",
          "midi": 54,
          "time": 17.8125,
          "velocity": 0.4094488188976378,
          "duration": 0.0390625
        },
        {
          "name": "F#3",
          "midi": 54,
          "time": 18,
          "velocity": 0.44881889763779526,
          "duration": 0.125
        },
        {
          "name": "F#4",
          "midi": 66,
          "time": 18.28125,
          "velocity": 0.47244094488188976,
          "duration": 0.0390625
        },
        {
          "name": "B3",
          "midi": 59,
          "time": 18.3671875,
          "velocity": 0.3858267716535433,
          "duration": 0.046875
        },
        {
          "name": "B2",
          "midi": 47,
          "time": 19.125,
          "velocity": 0.44881889763779526,
          "duration": 0.046875
        },
        {
          "name": "B3",
          "midi": 59,
          "time": 19.3984375,
          "velocity": 0.5748031496062992,
          "duration": 0.0625
        },
        {
          "name": "F#3",
          "midi": 54,
          "time": 19.5,
          "velocity": 0.3779527559055118,
          "duration": 0.0390625
        },
        {
          "name": "F#3",
          "midi": 54,
          "time": 19.6953125,
          "velocity": 0.4881889763779528,
          "duration": 0.140625
        },
        {
          "name": "F#4",
          "midi": 66,
          "time": 19.9609375,
          "velocity": 0.4566929133858268,
          "duration": 0.0390625
        },
        {
          "name": "B3",
          "midi": 59,
          "time": 20.0546875,
          "velocity": 0.4015748031496063,
          "duration": 0.0546875
        },
        {
          "name": "B2",
          "midi": 47,
          "time": 20.8046875,
          "velocity": 0.4645669291338583,
          "duration": 0.0625
        },
        {
          "name": "B3",
          "midi": 59,
          "time": 21.0859375,
          "velocity": 0.5669291338582677,
          "duration": 0.046875
        },
        {
          "name": "F#3",
          "midi": 54,
          "time": 21.1796875,
          "velocity": 0.4094488188976378,
          "duration": 0.0546875
        },
        {
          "name": "F#3",
          "midi": 54,
          "time": 21.375,
          "velocity": 0.44881889763779526,
          "duration": 0.140625
        },
        {
          "name": "F#4",
          "midi": 66,
          "time": 21.65625,
          "velocity": 0.47244094488188976,
          "duration": 0.0625
        },
        {
          "name": "B3",
          "midi": 59,
          "time": 21.75,
          "velocity": 0.4015748031496063,
          "duration": 0.0625
        },
        {
          "name": "B2",
          "midi": 47,
          "time": 22.4921875,
          "velocity": 0.47244094488188976,
          "duration": 0.0390625
        },
        {
          "name": "B3",
          "midi": 59,
          "time": 22.7734375,
          "velocity": 0.5905511811023622,
          "duration": 0.0625
        },
        {
          "name": "F#3",
          "midi": 54,
          "time": 22.8671875,
          "velocity": 0.3779527559055118,
          "duration": 0.0625
        },
        {
          "name": "F#3",
          "midi": 54,
          "time": 23.0625,
          "velocity": 0.47244094488188976,
          "duration": 0.1171875
        },
        {
          "name": "F#4",
          "midi": 66,
          "time": 23.3359375,
          "velocity": 0.4881889763779528,
          "duration": 0.0546875
        },
        {
          "name": "B3",
          "midi": 59,
          "time": 23.4296875,
          "velocity": 0.4015748031496063,
          "duration": 0.046875
        },
        {
          "name": "B2",
          "midi": 47,
          "time": 24.1796875,
          "velocity": 0.4881889763779528,
          "duration": 0.0390625
        },
        {
          "name": "B3",
          "midi": 59,
          "time": 24.4609375,
          "velocity": 0.6062992125984252,
          "duration": 0.0546875
        },
        {
          "name": "F#3",
          "midi": 54,
          "time": 24.5625,
          "velocity": 0.3858267716535433,
          "duration": 0.0625
        },
        {
          "name": "F#3",
          "midi": 54,
          "time": 24.75,
          "velocity": 0.4566929133858268,
          "duration": 0.1328125
        },
        {
          "name": "F#4",
          "midi": 66,
          "time": 25.03125,
          "velocity": 0.48031496062992124,
          "duration": 0.046875
        },
        {
          "name": "B3",
          "midi": 59,
          "time": 25.125,
          "velocity": 0.4015748031496063,
          "duration": 0.0546875
        },
        {
          "name": "A2",
          "midi": 45,
          "time": 25.875,
          "velocity": 0.44881889763779526,
          "duration": 0.046875
        },
        {
          "name": "D4",
          "midi": 62,
          "time": 26.1484375,
          "velocity": 0.5826771653543307,
          "duration": 0.0625
        },
        {
          "name": "A3",
          "midi": 57,
          "time": 26.25,
          "velocity": 0.3937007874015748,
          "duration": 0.046875
        },
        {
          "name": "A3",
          "midi": 57,
          "time": 26.4296875,
          "velocity": 0.44881889763779526,
          "duration": 0.140625
        },
        {
          "name": "A4",
          "midi": 69,
          "time": 26.71875,
          "velocity": 0.4645669291338583,
          "duration": 0.0390625
        },
        {
          "name": "E4",
          "midi": 64,
          "time": 26.8125,
          "velocity": 0.4094488188976378,
          "duration": 0.046875
        },
        {
          "name": "D3",
          "midi": 50,
          "time": 27.5546875,
          "velocity": 0.44881889763779526,
          "duration": 0.0546875
        },
        {
          "name": "D4",
          "midi": 62,
          "time": 27.8359375,
          "velocity": 0.5905511811023622,
          "duration": 0.0546875
        },
        {
          "name": "A3",
          "midi": 57,
          "time": 27.9375,
          "velocity": 0.3858267716535433,
          "duration": 0.0546875
        },
        {
          "name": "A3",
          "midi": 57,
          "time": 28.125,
          "velocity": 0.4566929133858268,
          "duration": 0.140625
        },
        {
          "name": "A4",
          "midi": 69,
          "time": 28.3984375,
          "velocity": 0.4881889763779528,
          "duration": 0.0390625
        },
        {
          "name": "D4",
          "midi": 62,
          "time": 28.5,
          "velocity": 0.3700787401574803,
          "duration": 0.0546875
        },
        {
          "name": "D3",
          "midi": 50,
          "time": 29.25,
          "velocity": 0.4566929133858268,
          "duration": 0.0390625
        },
        {
          "name": "D4",
          "midi": 62,
          "time": 29.5234375,
          "velocity": 0.5984251968503937,
          "duration": 0.0390625
        },
        {
          "name": "A3",
          "midi": 57,
          "time": 29.625,
          "velocity": 0.3700787401574803,
          "duration": 0.046875
        },
        {
          "name": "A3",
          "midi": 57,
          "time": 29.8046875,
          "velocity": 0.4881889763779528,
          "duration": 0.140625
        },
        {
          "name": "A4",
          "midi": 69,
          "time": 30.09375,
          "velocity": 0.48031496062992124,
          "duration": 0.046875
        },
        {
          "name": "D4",
          "midi": 62,
          "time": 30.1796875,
          "velocity": 0.4094488188976378,
          "duration": 0.0546875
        },
        {
          "name": "D3",
          "midi": 50,
          "time": 30.9375,
          "velocity": 0.48031496062992124,
          "duration": 0.0625
        },
        {
          "name": "D4",
          "midi": 62,
          "time": 31.21875,
          "velocity": 0.5984251968503937,
          "duration": 0.0625
        },
        {
          "name": "A3",
          "midi": 57,
          "time": 31.3125,
          "velocity": 0.3937007874015748,
          "duration": 0.0390625
        },
        {
          "name": "A3",
          "midi": 57,
          "time": 31.5078125,
          "velocity": 0.47244094488188976,
          "duration": 0.1328125
        },
        {
          "name": "A4",
          "midi": 69,
          "time": 31.7734375,
          "velocity": 0.47244094488188976,
          "duration": 0.0546875
        },
        {
          "name": "D4",
          "midi": 62,
          "time": 31.875,
          "velocity": 0.3700787401574803,
          "duration": 0.0625
        },
        {
          "name": "D3",
          "midi": 50,
          "time": 32.6328125,
          "velocity": 0.44881889763779526,
          "duration": 0.046875
        },
        {
          "name": "D4",
          "midi": 62,
          "time": 32.90625,
          "velocity": 0.6062992125984252,
          "duration": 0.0625
        },
        {
          "name": "A3",
          "midi": 57,
          "time": 32.9921875,
          "velocity": 0.3779527559055118,
          "duration": 0.046875
        },
        {
          "name": "A3",
          "midi": 57,
          "time": 33.1875,
          "velocity": 0.4566929133858268,
          "duration": 0.1328125
        },
        {
          "name": "A4",
          "midi": 69,
          "time": 33.4609375,
          "velocity": 0.4881889763779528,
          "duration": 0.0390625
        },
        {
          "name": "D4",
          "midi": 62,
          "time": 33.5625,
          "velocity": 0.3779527559055118,
          "duration": 0.046875
        },
        {
          "name": "D3",
          "midi": 50,
          "time": 34.3125,
          "velocity": 0.44881889763779526,
          "duration": 0.0390625
        },
        {
          "name": "D4",
          "midi": 62,
          "time": 34.59375,
          "velocity": 0.5748031496062992,
          "duration": 0.0546875
        },
        {
          "name": "A3",
          "midi": 57,
          "time": 34.6796875,
          "velocity": 0.3779527559055118,
          "duration": 0.046875
        },
        {
          "name": "A3",
          "midi": 57,
          "time": 34.8671875,
          "velocity": 0.4645669291338583,
          "duration": 0.125
        },
        {
          "name": "A4",
          "midi": 69,
          "time": 35.15625,
          "velocity": 0.47244094488188976,
          "duration": 0.0625
        },
        {
          "name": "D4",
          "midi": 62,
          "time": 35.25,
          "velocity": 0.3779527559055118,
          "duration": 0.0390625
        },
        {
          "name": "D3",
          "midi": 50,
          "time": 35.9921875,
          "velocity": 0.44881889763779526,
          "duration": 0.0703125
        },
        {
          "name": "D4",
          "midi": 62,
          "time": 36.2734375,
          "velocity": 0.5748031496062992,
          "duration": 0.0546875
        },
        {
          "name": "A3",
          "midi": 57,
          "time": 36.375,
          "velocity": 0.4015748031496063,
          "duration": 0.0390625
        },
        {
          "name": "A3",
          "midi": 57,
          "time": 36.5546875,
          "velocity": 0.47244094488188976,
          "duration": 0.1171875
        },
        {
          "name": "A4",
          "midi": 69,
          "time": 36.8359375,
          "velocity": 0.48031496062992124,
          "duration": 0.046875
        },
        {
          "name": "D4",
          "midi": 62,
          "time": 36.9296875,
          "velocity": 0.4015748031496063,
          "duration": 0.046875
        },
        {
          "name": "C#3",
          "midi": 49,
          "time": 37.6875,
          "velocity": 0.4881889763779528,
          "duration": 0.0625
        },
        {
          "name": "C#4",
          "midi": 61,
          "time": 37.9609375,
          "velocity": 0.6062992125984252,
          "duration": 0.046875
        },
        {
          "name": "F#3",
          "midi": 54,
          "time": 38.0625,
          "velocity": 0.4094488188976378,
          "duration": 0.0625
        },
        {
          "name": "C#4",
          "midi": 61,
          "time": 38.2421875,
          "velocity": 0.4881889763779528,
          "duration": 0.125
        },
        {
          "name": "G#4",
          "midi": 68,
          "time": 38.53125,
          "velocity": 0.44881889763779526,
          "duration": 0.046875
        },
        {
          "name": "C#4",
          "midi": 61,
          "time": 38.625,
          "velocity": 0.3700787401574803,
          "duration": 0.0625
        },
        {
          "name": "F#3",
          "midi": 54,
          "time": 39.3828125,
          "velocity": 0.4645669291338583,
          "duration": 0.046875
        },
        {
          "name": "C#4",
          "midi": 61,
          "time": 39.65625,
          "velocity": 0.5748031496062992,
          "duration": 0.0390625
        },
        {
          "name": "F#3",
          "midi": 54,
          "time": 39.7421875,
          "velocity": 0.4094488188976378,
          "duration": 0.0625
        },
        {
          "name": "F#3",
          "midi": 54,
          "time": 39.9375,
          "velocity": 0.4645669291338583,
          "duration": 0.1171875
        },
        {
          "name": "F#4",
          "midi": 66,
          "time": 40.2109375,
          "velocity": 0.4881889763779528,
          "duration": 0.0546875
        },
        {
          "name": "C#4",
          "midi": 61,
          "time": 40.3125,
          "velocity": 0.3858267716535433,
          "duration": 0.0390625
        },
        {
          "name": "F#3",
          "midi": 54,
          "time": 41.0546875,
          "velocity": 0.47244094488188976,
          "duration": 0.0546875
        },
        {
          "name": "C#4",
          "midi": 61,
          "time": 41.3359375,
          "velocity": 0.5984251968503937,
          "duration": 0.046875
        },
        {
          "name": "F#3",
          "midi": 54,
          "time": 41.4296875,
          "velocity": 0.3937007874015748,
          "duration": 0.046875
        },
        {
          "name": "F#3",
          "midi": 54,
          "time": 41.6171875,
          "velocity": 0.4881889763779528,
          "duration": 0.140625
        },
        {
          "name": "F#4",
          "midi": 66,
          "time": 41.90625,
          "velocity": 0.44881889763779526,
          "duration": 0.046875
        },
        {
          "name": "C#4",
          "midi": 61,
          "time": 41.9921875,
          "velocity": 0.3700787401574803,
          "duration": 0.0546875
        },
        {
          "name": "F#3",
          "midi": 54,
          "time": 42.75,
          "velocity": 0.4566929133858268,
          "duration": 0.0625
        },
        {
          "name": "C#4",
          "midi": 61,
          "time": 43.0234375,
          "velocity": 0.6062992125984252,
          "duration": 0.046875
        },
        {
          "name": "F#3",
          "midi": 54,
          "time": 43.1328125,
          "velocity": 0.4015748031496063,
          "duration": 0.0546875
        },
        {
          "name": "F#3",
          "midi": 54,
          "time": 43.3125,
          "velocity": 0.47244094488188976,
          "duration": 0.1328125
        },
        {
          "name": "F#4",
          "midi": 66,
          "time": 43.59375,
          "velocity": 0.4566929133858268,
          "duration": 0.0625
        },
        {
          "name": "C#4",
          "midi": 61,
          "time": 43.6875,
          "velocity": 0.3858267716535433,
          "duration": 0.046875
        },
        {
          "name": "F#3",
          "midi": 54,
          "time": 44.4375,
          "velocity": 0.4566929133858268,
          "duration": 0.0390625
        },
        {
          "name": "C#4",
          "midi": 61,
          "time": 44.7109375,
          "velocity": 0.5826771653543307,
          "duration": 0.0390625
        },
        {
          "name": "F#3",
          "midi": 54,
          "time": 44.8125,
          "velocity": 0.3858267716535433,
          "duration": 0.046875
        },
        {
          "name": "F#3",
          "midi": 54,
          "time": 45,
          "velocity": 0.47244094488188976,
          "duration": 0.1328125
        },
        {
          "name": "F#4",
          "midi": 66,
          "time": 45.2734375,
          "velocity": 0.4645669291338583,
          "duration": 0.046875
        },
        {
          "name": "C#4",
          "midi": 61,
          "time": 45.3671875,
          "velocity": 0.3779527559055118,
          "duration": 0.0390625
        },
        {
          "name": "B2",
          "midi": 47,
          "time": 46.1171875,
          "velocity": 0.48031496062992124,
          "duration": 0.046875
        },
        {
          "name": "B3",
          "midi": 59,
          "time": 46.3984375,
          "velocity": 0.5826771653543307,
          "duration": 0.0390625
        },
        {
          "name": "F#3",
          "midi": 54,
          "time": 46.4921875,
          "velocity": 0.3700787401574803,
          "duration": 0.0546875
        },
        {
          "name": "F#3",
          "midi": 54,
          "time": 46.6875,
          "velocity": 0.44881889763779526,
          "duration": 0.1171875
        },
        {
          "name": "F#4",
          "midi": 66,
          "time": 46.96875,
          "velocity": 0.4881889763779528,
          "duration": 0.0625
        },
        {
          "name": "B3",
          "midi": 59,
          "time": 47.0625,
          "velocity": 0.4094488188976378,
          "duration": 0.046875
        },
        {
          "name": "B2",
          "midi": 47,
          "time": 47.8125,
          "velocity": 0.48031496062992124,
          "duration": 0.0625
        },
        {
          "name": "B3",
          "midi": 59,
          "time": 48.09375,
          "velocity": 0.5826771653543307,
          "duration": 0.0390625
        },
        {
          "name": "F#3",
          "midi": 54,
          "time": 48.1875,
          "velocity": 0.4094488188976378,
          "duration": 0.0625
        },
        {
          "name": "F#3",
          "midi": 54,
          "time": 48.3671875,
          "velocity": 0.47244094488188976,
          "duration": 0.140625
        },
        {
          "name": "F#4",
          "midi": 66,
          "time": 48.6484375,
          "velocity": 0.44881889763779526,
          "duration": 0.0390625
        },
        {
          "name": "B3",
          "midi": 59,
          "time": 48.75,
          "velocity": 0.3779527559055118,
          "duration": 0.0390625
        },
        {
          "name": "C3",
          "midi": 48,
          "time": 49.5,
          "velocity": 0.4566929133858268,
          "duration": 0.0390625
        },
        {
          "name": "C4",
          "midi": 60,
          "time": 49.78125,
          "velocity": 0.5984251968503937,
          "duration": 0.046875
        },
        {
          "name": "G3",
          "midi": 55,
          "time": 49.8671875,
          "velocity": 0.3937007874015748,
          "duration": 0.0625
        },
        {
          "name": "F#3",
          "midi": 54,
          "time": 50.0546875,
          "velocity": 0.48031496062992124,
          "duration": 0.140625
        },
        {
          "name": "F#4",
          "midi": 66,
          "time": 50.3359375,
          "velocity": 0.4566929133858268,
          "duration": 0.0625
        },
        {
          "name": "C#4",
          "midi": 61,
          "time": 50.4296875,
          "velocity": 0.3937007874015748,
          "duration": 0.046875
        },
        {
          "name": "B2",
          "midi": 47,
          "time": 51.1875,
          "velocity": 0.48031496062992124,
          "duration": 0.0390625
        },
        {
          "name": "B3",
          "midi": 59,
          "time": 51.46875,
          "velocity": 0.5984251968503937,
          "duration": 0.0625
        },
        {
          "name": "F#3",
          "midi": 54,
          "time": 51.5546875,
          "velocity": 0.3779527559055118,
          "duration": 0.0625
        },
        {
          "name": "F#3",
          "midi": 54,
          "time": 51.75,
          "velocity": 0.4566929133858268,
          "duration": 0.1171875
        },
        {
          "name": "F#4",
          "midi": 66,
          "time": 52.0234375,
          "velocity": 0.4645669291338583,
          "duration": 0.0625
        },
        {
          "name": "B3",
          "midi": 59,
          "time": 52.125,
          "velocity": 0.3700787401574803,
          "duration": 0.046875
        },
        {
          "name": "B2",
          "midi": 47,
          "time": 52.8671875,
          "velocity": 0.4566929133858268,
          "duration": 0.0625
        },
        {
          "name": "B3",
          "midi": 59,
          "time": 53.15625,
          "velocity": 0.5748031496062992,
          "duration": 0.0390625
        },
        {
          "name": "F#3",
          "midi": 54,
          "time": 53.2421875,
          "velocity": 0.3937007874015748,
          "duration": 0.046875
        },
        {
          "name": "F#3",
          "midi": 54,
          "time": 53.4375,
          "velocity": 0.44881889763779526,
          "duration": 0.125
        },
        {
          "name": "F#4",
          "midi": 66,
          "time": 53.7109375,
          "velocity": 0.4645669291338583,
          "duration": 0.0625
        },
        {
          "name": "B3",
          "midi": 59,
          "time": 53.8125,
          "velocity": 0.3779527559055118,
          "duration": 0.0625
        },
        {
          "name": "B2",
          "midi": 47,
          "time": 54.5546875,
          "velocity": 0.4645669291338583,
          "duration": 0.046875
        },
        {
          "name": "B3",
          "midi": 59,
          "time": 54.8359375,
          "velocity": 0.5905511811023622,
          "duration": 0.046875
        },
        {
          "name": "F#3",
          "midi": 54,
          "time": 54.9375,
          "velocity": 0.3937007874015748,
          "duration": 0.046875
        },
        {
          "name": "F#3",
          "midi": 54,
          "time": 55.1171875,
          "velocity": 0.4645669291338583,
          "duration": 0.1328125
        },
        {
          "name": "F#4",
          "midi": 66,
          "time": 55.40625,
          "velocity": 0.4645669291338583,
          "duration": 0.0625
        },
        {
          "name": "B3",
          "midi": 59,
          "time": 55.5,
          "velocity": 0.3700787401574803,
          "duration": 0.0625
        },
        {
          "name": "B2",
          "midi": 47,
          "time": 56.2421875,
          "velocity": 0.4566929133858268,
          "duration": 0.0390625
        },
        {
          "name": "B3",
          "midi": 59,
          "time": 56.53125,
          "velocity": 0.5748031496062992,
          "duration": 0.0390625
        },
        {
          "name": "F#3",
          "midi": 54,
          "time": 56.6171875,
          "velocity": 0.3779527559055118,
          "duration": 0.0546875
        },
        {
          "name": "F#3",
          "midi": 54,
          "time": 56.8125,
          "velocity": 0.48031496062992124,
          "duration": 0.1328125
        },
        {
          "name": "F#4",
          "midi": 66,
          "time": 57.09375,
          "velocity": 0.48031496062992124,
          "duration": 0.0625
        },
        {
          "name": "B3",
          "midi": 59,
          "time": 57.1796875,
          "velocity": 0.4015748031496063,
          "duration": 0.0390625
        },
        {
          "name": "E2",
          "midi": 40,
          "time": 57.9375,
          "velocity": 0.4881889763779528,
          "duration": 0.0546875
        },
        {
          "name": "G3",
          "midi": 55,
          "time": 58.2109375,
          "velocity": 0.6062992125984252,
          "duration": 0.046875
        },
        {
          "name": "E3",
          "midi": 52,
          "time": 58.3046875,
          "velocity": 0.4015748031496063,
          "duration": 0.0390625
        },
        {
          "name": "F#3",
          "midi": 54,
          "time": 58.4921875,
          "velocity": 0.4881889763779528,
          "duration": 0.125
        },
        {
          "name": "F#4",
          "midi": 66,
          "time": 58.78125,
          "velocity": 0.4566929133858268,
          "duration": 0.0625
        },
        {
          "name": "C#4",
          "midi": 61,
          "time": 58.8671875,
          "velocity": 0.3779527559055118,
          "duration": 0.0546875
        },
        {
          "name": "B2",
          "midi": 47,
          "time": 59.6171875,
          "velocity": 0.4881889763779528,
          "duration": 0.0625
        },
        {
          "name": "B3",
          "midi": 59,
          "time": 59.90625,
          "velocity": 0.5826771653543307,
          "duration": 0.0546875
        },
        {
          "name": "F#3",
          "midi": 54,
          "time": 60,
          "velocity": 0.3779527559055118,
          "duration": 0.046875
        },
        {
          "name": "F#3",
          "midi": 54,
          "time": 60.1875,
          "velocity": 0.48031496062992124,
          "duration": 0.125
        },
        {
          "name": "F#4",
          "midi": 66,
          "time": 60.4609375,
          "velocity": 0.44881889763779526,
          "duration": 0.0625
        },
        {
          "name": "B3",
          "midi": 59,
          "time": 60.5625,
          "velocity": 0.3779527559055118,
          "duration": 0.046875
        },
        {
          "name": "B2",
          "midi": 47,
          "time": 61.3125,
          "velocity": 0.4566929133858268,
          "duration": 0.0390625
        },
        {
          "name": "B3",
          "midi": 59,
          "time": 61.5859375,
          "velocity": 0.5669291338582677,
          "duration": 0.046875
        },
        {
          "name": "F#3",
          "midi": 54,
          "time": 61.6796875,
          "velocity": 0.3779527559055118,
          "duration": 0.046875
        },
        {
          "name": "F#3",
          "midi": 54,
          "time": 61.8671875,
          "velocity": 0.4881889763779528,
          "duration": 0.125
        },
        {
          "name": "F#4",
          "midi": 66,
          "time": 62.15625,
          "velocity": 0.48031496062992124,
          "duration": 0.046875
        },
        {
          "name": "B3",
          "midi": 59,
          "time": 62.2421875,
          "velocity": 0.3937007874015748,
          "duration": 0.0390625
        },
        {
          "name": "B2",
          "midi": 47,
          "time": 63,
          "velocity": 0.48031496062992124,
          "duration": 0.0546875
        },
        {
          "name": "B3",
          "midi": 59,
          "time": 63.2734375,
          "velocity": 0.5984251968503937,
          "duration": 0.0390625
        },
        {
          "name": "F#3",
          "midi": 54,
          "time": 63.3671875,
          "velocity": 0.4015748031496063,
          "duration": 0.0625
        },
        {
          "name": "F#3",
          "midi": 54,
          "time": 63.5625,
          "velocity": 0.48031496062992124,
          "duration": 0.1171875
        },
        {
          "name": "F#4",
          "midi": 66,
          "time": 63.8359375,
          "velocity": 0.4566929133858268,
          "duration": 0.0390625
        },
        {
          "name": "B3",
          "midi": 59,
          "time": 63.9375,
          "velocity": 0.3779527559055118,
          "duration": 0.0625
        },
        {
          "name": "B2",
          "midi": 47,
          "time": 64.6953125,
          "velocity": 0.44881889763779526,
          "duration": 0.0390625
        },
        {
          "name": "B3",
          "midi": 59,
          "time": 64.9609375,
          "velocity": 0.5748031496062992,
          "duration": 0.0546875
        },
        {
          "name": "F#3",
          "midi": 54,
          "time": 65.0546875,
          "velocity": 0.4015748031496063,
          "duration": 0.0625
        },
        {
          "name": "F#3",
          "midi": 54,
          "time": 65.25,
          "velocity": 0.44881889763779526,
          "duration": 0.125
        },
        {
          "name": "F#4",
          "midi": 66,
          "time": 65.5234375,
          "velocity": 0.4566929133858268,
          "duration": 0.0390625
        },
        {
          "name": "B3",
          "midi": 59,
          "time": 65.6171875,
          "velocity": 0.3779527559055118,
          "duration": 0.0546875
        },
        {
          "name": "A2",
          "midi": 45,
          "time": 66.375,
          "velocity": 0.48031496062992124,
          "duration": 0.0625
        },
        {
          "name": "D4",
          "midi": 62,
          "time": 66.65625,
          "velocity": 0.5748031496062992,
          "duration": 0.0546875
        },
        {
          "name": "A3",
          "midi": 57,
          "time": 66.7421875,
          "velocity": 0.3937007874015748,
          "duration": 0.0390625
        },
        {
          "name": "A3",
          "midi": 57,
          "time": 66.9375,
          "velocity": 0.47244094488188976,
          "duration": 0.1328125
        },
        {
          "name": "A4",
          "midi": 69,
          "time": 67.21875,
          "velocity": 0.44881889763779526,
          "duration": 0.0390625
        },
        {
          "name": "E4",
          "midi": 64,
          "time": 67.3125,
          "velocity": 0.3779527559055118,
          "duration": 0.0546875
        },
        {
          "name": "D3",
          "midi": 50,
          "time": 68.0625,
          "velocity": 0.4881889763779528,
          "duration": 0.0390625
        },
        {
          "name": "D4",
          "midi": 62,
          "time": 68.34375,
          "velocity": 0.5669291338582677,
          "duration": 0.0546875
        },
        {
          "name": "A3",
          "midi": 57,
          "time": 68.4296875,
          "velocity": 0.4094488188976378,
          "duration": 0.046875
        },
        {
          "name": "A3",
          "midi": 57,
          "time": 68.6171875,
          "velocity": 0.44881889763779526,
          "duration": 0.125
        },
        {
          "name": "A4",
          "midi": 69,
          "time": 68.8984375,
          "velocity": 0.48031496062992124,
          "duration": 0.0625
        },
        {
          "name": "D4",
          "midi": 62,
          "time": 68.9921875,
          "velocity": 0.3937007874015748,
          "duration": 0.0546875
        },
        {
          "name": "D3",
          "midi": 50,
          "time": 69.75,
          "velocity": 0.4645669291338583,
          "duration": 0.0625
        },
        {
          "name": "D4",
          "midi": 62,
          "time": 70.0234375,
          "velocity": 0.5905511811023622,
          "duration": 0.0625
        },
        {
          "name": "A3",
          "midi": 57,
          "time": 70.1171875,
          "velocity": 0.3700787401574803,
          "duration": 0.0390625
        },
        {
          "name": "A3",
          "midi": 57,
          "time": 70.3203125,
          "velocity": 0.4566929133858268,
          "duration": 0.1171875
        },
        {
          "name": "A4",
          "midi": 69,
          "time": 70.59375,
          "velocity": 0.44881889763779526,
          "duration": 0.0390625
        },
        {
          "name": "D4",
          "midi": 62,
          "time": 70.6796875,
          "velocity": 0.4094488188976378,
          "duration": 0.0390625
        },
        {
          "name": "D3",
          "midi": 50,
          "time": 71.4296875,
          "velocity": 0.4645669291338583,
          "duration": 0.0546875
        },
        {
          "name": "D4",
          "midi": 62,
          "time": 71.71875,
          "velocity": 0.6062992125984252,
          "duration": 0.0390625
        },
        {
          "name": "A3",
          "midi": 57,
          "time": 71.8125,
          "velocity": 0.3858267716535433,
          "duration": 0.0390625
        },
        {
          "name": "A3",
          "midi": 57,
          "time": 71.9921875,
          "velocity": 0.44881889763779526,
          "duration": 0.140625
        },
        {
          "name": "A4",
          "midi": 69,
          "time": 72.2734375,
          "velocity": 0.4566929133858268,
          "duration": 0.0390625
        },
        {
          "name": "D4",
          "midi": 62,
          "time": 72.3671875,
          "velocity": 0.3700787401574803,
          "duration": 0.0546875
        },
        {
          "name": "C#3",
          "midi": 49,
          "time": 73.125,
          "velocity": 0.47244094488188976,
          "duration": 0.0703125
        },
        {
          "name": "C#4",
          "midi": 61,
          "time": 73.3984375,
          "velocity": 0.5748031496062992,
          "duration": 0.046875
        },
        {
          "name": "F#3",
          "midi": 54,
          "time": 73.5,
          "velocity": 0.4094488188976378,
          "duration": 0.0625
        },
        {
          "name": "C#4",
          "midi": 61,
          "time": 73.6875,
          "velocity": 0.4881889763779528,
          "duration": 0.1328125
        },
        {
          "name": "G#4",
          "midi": 68,
          "time": 73.96875,
          "velocity": 0.47244094488188976,
          "duration": 0.0390625
        },
        {
          "name": "C#4",
          "midi": 61,
          "time": 74.0625,
          "velocity": 0.4094488188976378,
          "duration": 0.0625
        },
        {
          "name": "F#2",
          "midi": 42,
          "time": 74.8046875,
          "velocity": 0.4566929133858268,
          "duration": 0.0390625
        },
        {
          "name": "C#3",
          "midi": 49,
          "time": 75.0859375,
          "velocity": 0.5669291338582677,
          "duration": 0.0625
        },
        {
          "name": "F#3",
          "midi": 54,
          "time": 75.1796875,
          "velocity": 0.3858267716535433,
          "duration": 0.0390625
        },
        {
          "name": "F#3",
          "midi": 54,
          "time": 75.3671875,
          "velocity": 0.4645669291338583,
          "duration": 0.1328125
        },
        {
          "name": "F#4",
          "midi": 66,
          "time": 75.65625,
          "velocity": 0.4566929133858268,
          "duration": 0.0390625
        },
        {
          "name": "C#4",
          "midi": 61,
          "time": 75.75,
          "velocity": 0.3700787401574803,
          "duration": 0.0625
        },
        {
          "name": "B2",
          "midi": 47,
          "time": 79.125,
          "velocity": 0.6850393700787402,
          "duration": 0.03125
        },
        {
          "name": "B3",
          "midi": 59,
          "time": 79.125,
          "velocity": 0.7086614173228346,
          "duration": 0.0234375
        },
        {
          "name": "A2",
          "midi": 45,
          "time": 79.171875,
          "velocity": 0.7007874015748031,
          "duration": 0.0390625
        },
        {
          "name": "A3",
          "midi": 57,
          "time": 79.171875,
          "velocity": 0.6850393700787402,
          "duration": 0.03125
        },
        {
          "name": "G2",
          "midi": 43,
          "time": 79.2109375,
          "velocity": 0.6929133858267716,
          "duration": 0.03125
        },
        {
          "name": "G3",
          "midi": 55,
          "time": 79.2109375,
          "velocity": 0.7165354330708661,
          "duration": 0.0234375
        },
        {
          "name": "F#3",
          "midi": 54,
          "time": 79.2578125,
          "velocity": 0.7165354330708661,
          "duration": 0.03125
        },
        {
          "name": "F#2",
          "midi": 42,
          "time": 79.265625,
          "velocity": 0.7086614173228346,
          "duration": 0.0234375
        },
        {
          "name": "B2",
          "midi": 47,
          "time": 79.3125,
          "velocity": 0.5433070866141733,
          "duration": 0.015625
        },
        {
          "name": "B2",
          "midi": 47,
          "time": 79.359375,
          "velocity": 0.5354330708661418,
          "duration": 0.0078125
        },
        {
          "name": "B2",
          "midi": 47,
          "time": 79.3984375,
          "velocity": 0.5905511811023622,
          "duration": 0.015625
        },
        {
          "name": "B2",
          "midi": 47,
          "time": 79.4453125,
          "velocity": 0.5905511811023622,
          "duration": 0.0078125
        },
        {
          "name": "B2",
          "midi": 47,
          "time": 79.4921875,
          "velocity": 0.6456692913385826,
          "duration": 0.0078125
        },
        {
          "name": "B2",
          "midi": 47,
          "time": 79.546875,
          "velocity": 0.6062992125984252,
          "duration": 0.0234375
        },
        {
          "name": "B2",
          "midi": 47,
          "time": 79.5859375,
          "velocity": 0.6456692913385826,
          "duration": 0.0078125
        },
        {
          "name": "B2",
          "midi": 47,
          "time": 79.6328125,
          "velocity": 0.6692913385826772,
          "duration": 0.0078125
        },
        {
          "name": "B2",
          "midi": 47,
          "time": 79.6875,
          "velocity": 0.6850393700787402,
          "duration": 0.0078125
        },
        {
          "name": "B2",
          "midi": 47,
          "time": 79.734375,
          "velocity": 0.7401574803149606,
          "duration": 0.0234375
        },
        {
          "name": "B2",
          "midi": 47,
          "time": 79.78125,
          "velocity": 0.7559055118110236,
          "duration": 0.0234375
        },
        {
          "name": "B2",
          "midi": 47,
          "time": 79.828125,
          "velocity": 0.7637795275590551,
          "duration": 0.0234375
        },
        {
          "name": "B2",
          "midi": 47,
          "time": 79.875,
          "velocity": 0.7952755905511811,
          "duration": 0.0234375
        },
        {
          "name": "B2",
          "midi": 47,
          "time": 79.9140625,
          "velocity": 0.8110236220472441,
          "duration": 0.0234375
        },
        {
          "name": "B2",
          "midi": 47,
          "time": 79.96875,
          "velocity": 0.8267716535433071,
          "duration": 0.015625
        },
        {
          "name": "B2",
          "midi": 47,
          "time": 80.015625,
          "velocity": 0.8818897637795275,
          "duration": 0.015625
        },
        {
          "name": "B2",
          "midi": 47,
          "time": 80.0546875,
          "velocity": 0.8740157480314961,
          "duration": 0.0078125
        },
        {
          "name": "B2",
          "midi": 47,
          "time": 80.109375,
          "velocity": 0.8818897637795275,
          "duration": 0.0078125
        },
        {
          "name": "B2",
          "midi": 47,
          "time": 80.1484375,
          "velocity": 0.9133858267716536,
          "duration": 0.0078125
        },
        {
          "name": "B2",
          "midi": 47,
          "time": 80.203125,
          "velocity": 0.9606299212598425,
          "duration": 0.0078125
        },
        {
          "name": "B2",
          "midi": 47,
          "time": 80.25,
          "velocity": 0.9212598425196851,
          "duration": 0.015625
        },
        {
          "name": "B2",
          "midi": 47,
          "time": 80.296875,
          "velocity": 0.984251968503937,
          "duration": 0.0078125
        },
        {
          "name": "B2",
          "midi": 47,
          "time": 80.3359375,
          "velocity": 0.9606299212598425,
          "duration": 0.015625
        },
        {
          "name": "B2",
          "midi": 47,
          "time": 80.3828125,
          "velocity": 1,
          "duration": 0.0078125
        },
        {
          "name": "B2",
          "midi": 47,
          "time": 80.4296875,
          "velocity": 1,
          "duration": 0.0078125
        },
        {
          "name": "B2",
          "midi": 47,
          "time": 80.4765625,
          "velocity": 0.9921259842519685,
          "duration": 0.0234375
        },
        {
          "name": "B2",
          "midi": 47,
          "time": 80.53125,
          "velocity": 1,
          "duration": 0.0078125
        },
        {
          "name": "B2",
          "midi": 47,
          "time": 80.578125,
          "velocity": 1,
          "duration": 0.0078125
        },
        {
          "name": "B2",
          "midi": 47,
          "time": 80.6171875,
          "velocity": 1,
          "duration": 0.0078125
        },
        {
          "name": "B2",
          "midi": 47,
          "time": 80.6640625,
          "velocity": 0.9763779527559056,
          "duration": 0.0078125
        },
        {
          "name": "B2",
          "midi": 47,
          "time": 80.7109375,
          "velocity": 0.9763779527559056,
          "duration": 0.015625
        },
        {
          "name": "B2",
          "midi": 47,
          "time": 80.765625,
          "velocity": 0.984251968503937,
          "duration": 0.0078125
        },
        {
          "name": "B2",
          "midi": 47,
          "time": 80.8203125,
          "velocity": 1,
          "duration": 0.0078125
        },
        {
          "name": "B2",
          "midi": 47,
          "time": 80.859375,
          "velocity": 1,
          "duration": 0.0078125
        },
        {
          "name": "B2",
          "midi": 47,
          "time": 80.9140625,
          "velocity": 0.9921259842519685,
          "duration": 0.0078125
        },
        {
          "name": "B2",
          "midi": 47,
          "time": 80.9453125,
          "velocity": 0.9763779527559056,
          "duration": 0.0078125
        },
        {
          "name": "E3",
          "midi": 52,
          "time": 82.4921875,
          "velocity": 0.7165354330708661,
          "duration": 0.03125
        },
        {
          "name": "E2",
          "midi": 40,
          "time": 82.5,
          "velocity": 0.7244094488188977,
          "duration": 0.0390625
        },
        {
          "name": "F#3",
          "midi": 54,
          "time": 82.5546875,
          "velocity": 0.6929133858267716,
          "duration": 0.03125
        },
        {
          "name": "F#2",
          "midi": 42,
          "time": 82.5625,
          "velocity": 0.7244094488188977,
          "duration": 0.0390625
        },
        {
          "name": "G#3",
          "midi": 56,
          "time": 82.6171875,
          "velocity": 0.7244094488188977,
          "duration": 0.0390625
        },
        {
          "name": "G#2",
          "midi": 44,
          "time": 82.625,
          "velocity": 0.7244094488188977,
          "duration": 0.0390625
        },
        {
          "name": "A2",
          "midi": 45,
          "time": 82.6875,
          "velocity": 0.7086614173228346,
          "duration": 0.046875
        },
        {
          "name": "A3",
          "midi": 57,
          "time": 82.6875,
          "velocity": 0.7007874015748031,
          "duration": 0.03125
        },
        {
          "name": "C4",
          "midi": 60,
          "time": 85.8671875,
          "velocity": 0.7165354330708661,
          "duration": 0.0234375
        },
        {
          "name": "C3",
          "midi": 48,
          "time": 85.875,
          "velocity": 0.7086614173228346,
          "duration": 0.0234375
        },
        {
          "name": "B2",
          "midi": 47,
          "time": 85.9140625,
          "velocity": 0.7007874015748031,
          "duration": 0.015625
        },
        {
          "name": "B3",
          "midi": 59,
          "time": 85.9140625,
          "velocity": 0.7244094488188977,
          "duration": 0.0234375
        },
        {
          "name": "A2",
          "midi": 45,
          "time": 85.96875,
          "velocity": 0.6850393700787402,
          "duration": 0.015625
        },
        {
          "name": "A3",
          "midi": 57,
          "time": 85.96875,
          "velocity": 0.7007874015748031,
          "duration": 0.015625
        },
        {
          "name": "G3",
          "midi": 55,
          "time": 86.0078125,
          "velocity": 0.7244094488188977,
          "duration": 0.0390625
        },
        {
          "name": "G2",
          "midi": 43,
          "time": 86.015625,
          "velocity": 0.7244094488188977,
          "duration": 0.03125
        },
        {
          "name": "F#2",
          "midi": 42,
          "time": 86.0546875,
          "velocity": 0.7244094488188977,
          "duration": 0.1640625
        },
        {
          "name": "F#3",
          "midi": 54,
          "time": 86.0625,
          "velocity": 0.6929133858267716,
          "duration": 0.1484375
        },
        {
          "name": "B2",
          "midi": 47,
          "time": 87.7578125,
          "velocity": 0.5118110236220472,
          "duration": 0.0078125
        },
        {
          "name": "B2",
          "midi": 47,
          "time": 87.796875,
          "velocity": 0.5196850393700787,
          "duration": 0.0078125
        },
        {
          "name": "B2",
          "midi": 47,
          "time": 87.8359375,
          "velocity": 0.5118110236220472,
          "duration": 0.015625
        },
        {
          "name": "B2",
          "midi": 47,
          "time": 87.8828125,
          "velocity": 0.5354330708661418,
          "duration": 0.015625
        },
        {
          "name": "B2",
          "midi": 47,
          "time": 87.9375,
          "velocity": 0.5354330708661418,
          "duration": 0.0078125
        },
        {
          "name": "B2",
          "midi": 47,
          "time": 87.984375,
          "velocity": 0.5511811023622047,
          "duration": 0.03125
        },
        {
          "name": "B2",
          "midi": 47,
          "time": 88.0234375,
          "velocity": 0.5826771653543307,
          "duration": 0.015625
        },
        {
          "name": "B2",
          "midi": 47,
          "time": 88.078125,
          "velocity": 0.5669291338582677,
          "duration": 0.03125
        },
        {
          "name": "B2",
          "midi": 47,
          "time": 88.1171875,
          "velocity": 0.5905511811023622,
          "duration": 0.0078125
        },
        {
          "name": "B2",
          "midi": 47,
          "time": 88.1640625,
          "velocity": 0.6456692913385826,
          "duration": 0.0078125
        },
        {
          "name": "B2",
          "midi": 47,
          "time": 88.2109375,
          "velocity": 0.6141732283464567,
          "duration": 0.015625
        },
        {
          "name": "B2",
          "midi": 47,
          "time": 88.2578125,
          "velocity": 0.6377952755905512,
          "duration": 0.0078125
        },
        {
          "name": "B2",
          "midi": 47,
          "time": 88.3125,
          "velocity": 0.6771653543307087,
          "duration": 0.0078125
        },
        {
          "name": "B2",
          "midi": 47,
          "time": 88.3515625,
          "velocity": 0.6771653543307087,
          "duration": 0.0234375
        },
        {
          "name": "B2",
          "midi": 47,
          "time": 88.40625,
          "velocity": 0.6771653543307087,
          "duration": 0.0078125
        },
        {
          "name": "B2",
          "midi": 47,
          "time": 88.453125,
          "velocity": 0.7244094488188977,
          "duration": 0.0078125
        },
        {
          "name": "B2",
          "midi": 47,
          "time": 88.5,
          "velocity": 0.7244094488188977,
          "duration": 0.0078125
        },
        {
          "name": "B2",
          "midi": 47,
          "time": 88.5390625,
          "velocity": 0.7244094488188977,
          "duration": 0.0234375
        },
        {
          "name": "B2",
          "midi": 47,
          "time": 88.5859375,
          "velocity": 0.7480314960629921,
          "duration": 0.0078125
        },
        {
          "name": "B2",
          "midi": 47,
          "time": 88.6328125,
          "velocity": 0.7322834645669292,
          "duration": 0.015625
        },
        {
          "name": "B2",
          "midi": 47,
          "time": 88.6796875,
          "velocity": 0.7244094488188977,
          "duration": 0.015625
        },
        {
          "name": "B2",
          "midi": 47,
          "time": 88.7265625,
          "velocity": 0.7952755905511811,
          "duration": 0.0234375
        },
        {
          "name": "B2",
          "midi": 47,
          "time": 88.78125,
          "velocity": 0.7952755905511811,
          "duration": 0.0078125
        },
        {
          "name": "B2",
          "midi": 47,
          "time": 88.828125,
          "velocity": 0.8031496062992126,
          "duration": 0.0078125
        },
        {
          "name": "B2",
          "midi": 47,
          "time": 88.875,
          "velocity": 0.8188976377952756,
          "duration": 0.0078125
        },
        {
          "name": "B2",
          "midi": 47,
          "time": 88.9140625,
          "velocity": 0.8031496062992126,
          "duration": 0.0234375
        },
        {
          "name": "B2",
          "midi": 47,
          "time": 88.9609375,
          "velocity": 0.84251968503937,
          "duration": 0.015625
        },
        {
          "name": "B2",
          "midi": 47,
          "time": 89.0078125,
          "velocity": 0.84251968503937,
          "duration": 0.0078125
        },
        {
          "name": "B2",
          "midi": 47,
          "time": 89.0625,
          "velocity": 0.8740157480314961,
          "duration": 0.0078125
        },
        {
          "name": "B2",
          "midi": 47,
          "time": 89.1015625,
          "velocity": 0.8818897637795275,
          "duration": 0.0078125
        },
        {
          "name": "B2",
          "midi": 47,
          "time": 89.15625,
          "velocity": 0.8976377952755905,
          "duration": 0.0234375
        },
        {
          "name": "B2",
          "midi": 47,
          "time": 89.203125,
          "velocity": 0.937007874015748,
          "duration": 0.0234375
        },
        {
          "name": "B2",
          "midi": 47,
          "time": 89.2421875,
          "velocity": 0.9291338582677166,
          "duration": 0.0078125
        },
        {
          "name": "B2",
          "midi": 47,
          "time": 89.2890625,
          "velocity": 1,
          "duration": 0.0078125
        },
        {
          "name": "B2",
          "midi": 47,
          "time": 89.34375,
          "velocity": 0.984251968503937,
          "duration": 0.0078125
        },
        {
          "name": "B2",
          "midi": 47,
          "time": 89.390625,
          "velocity": 0.9921259842519685,
          "duration": 0.03125
        },
        {
          "name": "B2",
          "midi": 47,
          "time": 89.4375,
          "velocity": 0.5511811023622047,
          "duration": 0.5234375
        },
        {
          "name": "D#3",
          "midi": 51,
          "time": 89.9921875,
          "velocity": 0.5590551181102362,
          "duration": 0.234375
        },
        {
          "name": "B2",
          "midi": 47,
          "time": 90.28125,
          "velocity": 0.5590551181102362,
          "duration": 0.0625
        },
        {
          "name": "D#3",
          "midi": 51,
          "time": 90.3671875,
          "velocity": 0.5669291338582677,
          "duration": 0.140625
        },
        {
          "name": "G3",
          "midi": 55,
          "time": 90.5625,
          "velocity": 0.6692913385826772,
          "duration": 0.34375
        },
        {
          "name": "G2",
          "midi": 43,
          "time": 90.9296875,
          "velocity": 0.5669291338582677,
          "duration": 0.140625
        },
        {
          "name": "B2",
          "midi": 47,
          "time": 91.1171875,
          "velocity": 0.5433070866141733,
          "duration": 0.546875
        },
        {
          "name": "D#3",
          "midi": 51,
          "time": 91.6875,
          "velocity": 0.5433070866141733,
          "duration": 0.25
        },
        {
          "name": "B2",
          "midi": 47,
          "time": 91.9609375,
          "velocity": 0.5590551181102362,
          "duration": 0.0625
        },
        {
          "name": "D#3",
          "midi": 51,
          "time": 92.0546875,
          "velocity": 0.5590551181102362,
          "duration": 0.15625
        },
        {
          "name": "G3",
          "midi": 55,
          "time": 92.2421875,
          "velocity": 0.6850393700787402,
          "duration": 0.34375
        },
        {
          "name": "G2",
          "midi": 43,
          "time": 92.625,
          "velocity": 0.5354330708661418,
          "duration": 0.140625
        },
        {
          "name": "C3",
          "midi": 48,
          "time": 92.8125,
          "velocity": 0.5275590551181102,
          "duration": 0.546875
        },
        {
          "name": "E3",
          "midi": 52,
          "time": 93.375,
          "velocity": 0.5354330708661418,
          "duration": 0.25
        },
        {
          "name": "C3",
          "midi": 48,
          "time": 93.6484375,
          "velocity": 0.5433070866141733,
          "duration": 0.0625
        },
        {
          "name": "E3",
          "midi": 52,
          "time": 93.75,
          "velocity": 0.5354330708661418,
          "duration": 0.1484375
        },
        {
          "name": "G3",
          "midi": 55,
          "time": 93.9375,
          "velocity": 0.6456692913385826,
          "duration": 0.328125
        },
        {
          "name": "G2",
          "midi": 43,
          "time": 94.3125,
          "velocity": 0.5354330708661418,
          "duration": 0.1328125
        },
        {
          "name": "C3",
          "midi": 48,
          "time": 94.4921875,
          "velocity": 0.5669291338582677,
          "duration": 0.53125
        },
        {
          "name": "E3",
          "midi": 52,
          "time": 95.0625,
          "velocity": 0.5433070866141733,
          "duration": 0.2265625
        },
        {
          "name": "C3",
          "midi": 48,
          "time": 95.34375,
          "velocity": 0.5669291338582677,
          "duration": 0.0390625
        },
        {
          "name": "E3",
          "midi": 52,
          "time": 95.4296875,
          "velocity": 0.5433070866141733,
          "duration": 0.1328125
        },
        {
          "name": "G3",
          "midi": 55,
          "time": 95.6171875,
          "velocity": 0.6456692913385826,
          "duration": 0.3203125
        },
        {
          "name": "G2",
          "midi": 43,
          "time": 96,
          "velocity": 0.5669291338582677,
          "duration": 0.140625
        },
        {
          "name": "B2",
          "midi": 47,
          "time": 96.1875,
          "velocity": 0.31496062992125984,
          "duration": 0.015625
        },
        {
          "name": "B2",
          "midi": 47,
          "time": 96.234375,
          "velocity": 0.2992125984251969,
          "duration": 0.0234375
        },
        {
          "name": "B2",
          "midi": 47,
          "time": 96.28125,
          "velocity": 0.33070866141732286,
          "duration": 0.015625
        },
        {
          "name": "B2",
          "midi": 47,
          "time": 96.3203125,
          "velocity": 0.33858267716535434,
          "duration": 0.0078125
        },
        {
          "name": "B2",
          "midi": 47,
          "time": 96.3671875,
          "velocity": 0.3543307086614173,
          "duration": 0.0234375
        },
        {
          "name": "B2",
          "midi": 47,
          "time": 96.4140625,
          "velocity": 0.3543307086614173,
          "duration": 0.015625
        },
        {
          "name": "B2",
          "midi": 47,
          "time": 96.4609375,
          "velocity": 0.3700787401574803,
          "duration": 0.0234375
        },
        {
          "name": "B2",
          "midi": 47,
          "time": 96.5078125,
          "velocity": 0.3779527559055118,
          "duration": 0.0234375
        },
        {
          "name": "B2",
          "midi": 47,
          "time": 96.5625,
          "velocity": 0.4409448818897638,
          "duration": 0.0078125
        },
        {
          "name": "B2",
          "midi": 47,
          "time": 96.609375,
          "velocity": 0.4094488188976378,
          "duration": 0.0078125
        },
        {
          "name": "B2",
          "midi": 47,
          "time": 96.65625,
          "velocity": 0.33070866141732286,
          "duration": 0.015625
        },
        {
          "name": "B2",
          "midi": 47,
          "time": 96.703125,
          "velocity": 0.3228346456692913,
          "duration": 0.015625
        },
        {
          "name": "B2",
          "midi": 47,
          "time": 96.75,
          "velocity": 0.33070866141732286,
          "duration": 0.0078125
        },
        {
          "name": "B2",
          "midi": 47,
          "time": 96.796875,
          "velocity": 0.3543307086614173,
          "duration": 0.0078125
        },
        {
          "name": "B2",
          "midi": 47,
          "time": 96.84375,
          "velocity": 0.3937007874015748,
          "duration": 0.0234375
        },
        {
          "name": "B2",
          "midi": 47,
          "time": 96.8828125,
          "velocity": 0.4015748031496063,
          "duration": 0.0078125
        },
        {
          "name": "B2",
          "midi": 47,
          "time": 96.9296875,
          "velocity": 0.4094488188976378,
          "duration": 0.015625
        },
        {
          "name": "B2",
          "midi": 47,
          "time": 96.9765625,
          "velocity": 0.4409448818897638,
          "duration": 0.0234375
        },
        {
          "name": "B2",
          "midi": 47,
          "time": 97.03125,
          "velocity": 0.47244094488188976,
          "duration": 0.0234375
        },
        {
          "name": "B2",
          "midi": 47,
          "time": 97.078125,
          "velocity": 0.47244094488188976,
          "duration": 0.0234375
        },
        {
          "name": "B2",
          "midi": 47,
          "time": 97.1171875,
          "velocity": 0.4881889763779528,
          "duration": 0.015625
        },
        {
          "name": "B2",
          "midi": 47,
          "time": 97.171875,
          "velocity": 0.5275590551181102,
          "duration": 0.015625
        },
        {
          "name": "B2",
          "midi": 47,
          "time": 97.2109375,
          "velocity": 0.5275590551181102,
          "duration": 0.0078125
        },
        {
          "name": "B2",
          "midi": 47,
          "time": 97.265625,
          "velocity": 0.5669291338582677,
          "duration": 0.0078125
        },
        {
          "name": "B2",
          "midi": 47,
          "time": 97.3125,
          "velocity": 0.5511811023622047,
          "duration": 0.0234375
        },
        {
          "name": "B2",
          "midi": 47,
          "time": 97.359375,
          "velocity": 0.5669291338582677,
          "duration": 0.015625
        },
        {
          "name": "B2",
          "midi": 47,
          "time": 97.40625,
          "velocity": 0.5748031496062992,
          "duration": 0.0078125
        },
        {
          "name": "B2",
          "midi": 47,
          "time": 97.453125,
          "velocity": 0.5826771653543307,
          "duration": 0.0234375
        },
        {
          "name": "B2",
          "midi": 47,
          "time": 97.5,
          "velocity": 0.5748031496062992,
          "duration": 0.0078125
        },
        {
          "name": "B2",
          "midi": 47,
          "time": 97.546875,
          "velocity": 0.6062992125984252,
          "duration": 0.03125
        },
        {
          "name": "B2",
          "midi": 47,
          "time": 97.59375,
          "velocity": 0.6456692913385826,
          "duration": 0.0078125
        },
        {
          "name": "B2",
          "midi": 47,
          "time": 97.6328125,
          "velocity": 0.6062992125984252,
          "duration": 0.0234375
        },
        {
          "name": "B2",
          "midi": 47,
          "time": 97.6875,
          "velocity": 0.6220472440944882,
          "duration": 0.0078125
        },
        {
          "name": "B2",
          "midi": 47,
          "time": 97.734375,
          "velocity": 0.6535433070866141,
          "duration": 0.0078125
        },
        {
          "name": "B2",
          "midi": 47,
          "time": 97.7734375,
          "velocity": 0.6771653543307087,
          "duration": 0.0234375
        },
        {
          "name": "B2",
          "midi": 47,
          "time": 97.8203125,
          "velocity": 0.6614173228346457,
          "duration": 0.0078125
        },
        {
          "name": "B2",
          "midi": 47,
          "time": 97.8671875,
          "velocity": 0.6929133858267716,
          "duration": 0.0078125
        },
        {
          "name": "B2",
          "midi": 47,
          "time": 97.921875,
          "velocity": 0.7165354330708661,
          "duration": 0.0078125
        },
        {
          "name": "B2",
          "midi": 47,
          "time": 97.9609375,
          "velocity": 0.7086614173228346,
          "duration": 0.0078125
        },
        {
          "name": "B2",
          "midi": 47,
          "time": 98.0078125,
          "velocity": 0.7637795275590551,
          "duration": 0.0078125
        },
        {
          "name": "B2",
          "midi": 47,
          "time": 98.0625,
          "velocity": 0.7480314960629921,
          "duration": 0.0078125
        },
        {
          "name": "B2",
          "midi": 47,
          "time": 98.109375,
          "velocity": 0.7559055118110236,
          "duration": 0.0078125
        },
        {
          "name": "B2",
          "midi": 47,
          "time": 98.1484375,
          "velocity": 0.7874015748031497,
          "duration": 0.0078125
        },
        {
          "name": "B2",
          "midi": 47,
          "time": 98.203125,
          "velocity": 0.7795275590551181,
          "duration": 0.0078125
        },
        {
          "name": "B2",
          "midi": 47,
          "time": 98.25,
          "velocity": 0.7795275590551181,
          "duration": 0.0234375
        },
        {
          "name": "B2",
          "midi": 47,
          "time": 98.2890625,
          "velocity": 0.8267716535433071,
          "duration": 0.0078125
        },
        {
          "name": "B2",
          "midi": 47,
          "time": 98.34375,
          "velocity": 0.8346456692913385,
          "duration": 0.015625
        },
        {
          "name": "B2",
          "midi": 47,
          "time": 98.390625,
          "velocity": 0.8110236220472441,
          "duration": 0.015625
        },
        {
          "name": "B2",
          "midi": 47,
          "time": 98.4296875,
          "velocity": 0.8346456692913385,
          "duration": 0.0078125
        },
        {
          "name": "B2",
          "midi": 47,
          "time": 98.4765625,
          "velocity": 0.8582677165354331,
          "duration": 0.0234375
        },
        {
          "name": "B2",
          "midi": 47,
          "time": 98.5234375,
          "velocity": 0.8740157480314961,
          "duration": 0.0234375
        },
        {
          "name": "B2",
          "midi": 47,
          "time": 98.578125,
          "velocity": 0.8740157480314961,
          "duration": 0.0078125
        },
        {
          "name": "B2",
          "midi": 47,
          "time": 98.625,
          "velocity": 0.8740157480314961,
          "duration": 0.015625
        },
        {
          "name": "B2",
          "midi": 47,
          "time": 98.6640625,
          "velocity": 0.84251968503937,
          "duration": 0.0078125
        },
        {
          "name": "B2",
          "midi": 47,
          "time": 98.71875,
          "velocity": 0.9133858267716536,
          "duration": 0.0078125
        },
        {
          "name": "B2",
          "midi": 47,
          "time": 98.7578125,
          "velocity": 0.9133858267716536,
          "duration": 0.0234375
        },
        {
          "name": "B2",
          "midi": 47,
          "time": 98.8125,
          "velocity": 0.9212598425196851,
          "duration": 0.0234375
        },
        {
          "name": "B2",
          "midi": 47,
          "time": 98.8515625,
          "velocity": 0.9212598425196851,
          "duration": 0.0078125
        },
        {
          "name": "B2",
          "midi": 47,
          "time": 98.90625,
          "velocity": 0.8818897637795275,
          "duration": 0.015625
        },
        {
          "name": "B2",
          "midi": 47,
          "time": 98.9453125,
          "velocity": 0.9606299212598425,
          "duration": 0.0078125
        },
        {
          "name": "B2",
          "midi": 47,
          "time": 99,
          "velocity": 0.9291338582677166,
          "duration": 0.015625
        },
        {
          "name": "B2",
          "midi": 47,
          "time": 99.046875,
          "velocity": 0.9606299212598425,
          "duration": 0.0234375
        },
        {
          "name": "B2",
          "midi": 47,
          "time": 99.09375,
          "velocity": 0.9448818897637795,
          "duration": 0.0234375
        },
        {
          "name": "B2",
          "midi": 47,
          "time": 99.1328125,
          "velocity": 0.9606299212598425,
          "duration": 0.0078125
        },
        {
          "name": "B2",
          "midi": 47,
          "time": 99.1796875,
          "velocity": 0.9606299212598425,
          "duration": 0.0234375
        },
        {
          "name": "B2",
          "midi": 47,
          "time": 99.2265625,
          "velocity": 0.984251968503937,
          "duration": 0.015625
        },
        {
          "name": "B2",
          "midi": 47,
          "time": 99.28125,
          "velocity": 0.984251968503937,
          "duration": 0.015625
        },
        {
          "name": "B2",
          "midi": 47,
          "time": 99.3203125,
          "velocity": 0.968503937007874,
          "duration": 0.0234375
        },
        {
          "name": "B2",
          "midi": 47,
          "time": 99.375,
          "velocity": 0.9763779527559056,
          "duration": 0.0234375
        },
        {
          "name": "B2",
          "midi": 47,
          "time": 99.4140625,
          "velocity": 0.984251968503937,
          "duration": 0.0234375
        },
        {
          "name": "B2",
          "midi": 47,
          "time": 99.4609375,
          "velocity": 1,
          "duration": 0.0234375
        },
        {
          "name": "B2",
          "midi": 47,
          "time": 99.5078125,
          "velocity": 1,
          "duration": 0.015625
        },
        {
          "name": "B1",
          "midi": 35,
          "time": 99.5625,
          "velocity": 0.7637795275590551,
          "duration": 0.1328125
        },
        {
          "name": "F#1",
          "midi": 30,
          "time": 99.8359375,
          "velocity": 0.7716535433070866,
          "duration": 0.0546875
        },
        {
          "name": "B1",
          "midi": 35,
          "time": 99.9375,
          "velocity": 0.7637795275590551,
          "duration": 0.1015625
        },
        {
          "name": "D#2",
          "midi": 39,
          "time": 100.125,
          "velocity": 0.8031496062992126,
          "duration": 0.5390625
        },
        {
          "name": "B1",
          "midi": 35,
          "time": 100.6796875,
          "velocity": 0.8031496062992126,
          "duration": 0.5234375
        },
        {
          "name": "D#2",
          "midi": 39,
          "time": 101.25,
          "velocity": 0.8031496062992126,
          "duration": 0.1171875
        },
        {
          "name": "B1",
          "midi": 35,
          "time": 101.5234375,
          "velocity": 0.7637795275590551,
          "duration": 0.0703125
        },
        {
          "name": "D#2",
          "midi": 39,
          "time": 101.6171875,
          "velocity": 0.8031496062992126,
          "duration": 0.1015625
        },
        {
          "name": "F#2",
          "midi": 42,
          "time": 101.8046875,
          "velocity": 0.7952755905511811,
          "duration": 0.515625
        },
        {
          "name": "D#2",
          "midi": 39,
          "time": 102.3671875,
          "velocity": 0.7716535433070866,
          "duration": 0.515625
        },
        {
          "name": "F#2",
          "midi": 42,
          "time": 102.9375,
          "velocity": 0.7952755905511811,
          "duration": 0.125
        },
        {
          "name": "D#2",
          "midi": 39,
          "time": 103.21875,
          "velocity": 0.7637795275590551,
          "duration": 0.0546875
        },
        {
          "name": "F#2",
          "midi": 42,
          "time": 103.3125,
          "velocity": 0.7637795275590551,
          "duration": 0.0859375
        },
        {
          "name": "A#2",
          "midi": 46,
          "time": 103.5,
          "velocity": 0.7637795275590551,
          "duration": 0.5078125
        },
        {
          "name": "A#1",
          "midi": 34,
          "time": 104.0546875,
          "velocity": 0.7795275590551181,
          "duration": 0.5078125
        },
        {
          "name": "D#2",
          "midi": 39,
          "time": 104.625,
          "velocity": 0.7637795275590551,
          "duration": 0.1328125
        },
        {
          "name": "A#1",
          "midi": 34,
          "time": 104.8984375,
          "velocity": 0.7952755905511811,
          "duration": 0.046875
        },
        {
          "name": "D#2",
          "midi": 39,
          "time": 105,
          "velocity": 0.8031496062992126,
          "duration": 0.0859375
        },
        {
          "name": "F#2",
          "midi": 42,
          "time": 105.1796875,
          "velocity": 0.7874015748031497,
          "duration": 0.7265625
        },
        {
          "name": "A#1",
          "midi": 34,
          "time": 106.125,
          "velocity": 0.7795275590551181,
          "duration": 0.15625
        },
        {
          "name": "D#2",
          "midi": 39,
          "time": 106.3125,
          "velocity": 0.7637795275590551,
          "duration": 0.1328125
        },
        {
          "name": "B1",
          "midi": 35,
          "time": 106.59375,
          "velocity": 0.7637795275590551,
          "duration": 0.0390625
        },
        {
          "name": "D#2",
          "midi": 39,
          "time": 106.6796875,
          "velocity": 0.7716535433070866,
          "duration": 0.1015625
        },
        {
          "name": "F#2",
          "midi": 42,
          "time": 106.875,
          "velocity": 0.7716535433070866,
          "duration": 0.5234375
        },
        {
          "name": "D#2",
          "midi": 39,
          "time": 107.4296875,
          "velocity": 0.8031496062992126,
          "duration": 0.515625
        },
        {
          "name": "F#2",
          "midi": 42,
          "time": 108,
          "velocity": 0.7716535433070866,
          "duration": 0.140625
        },
        {
          "name": "D#2",
          "midi": 39,
          "time": 108.2734375,
          "velocity": 0.7952755905511811,
          "duration": 0.0625
        },
        {
          "name": "F#2",
          "midi": 42,
          "time": 108.3671875,
          "velocity": 0.7716535433070866,
          "duration": 0.09375
        },
        {
          "name": "A#2",
          "midi": 46,
          "time": 108.5546875,
          "velocity": 0.7874015748031497,
          "duration": 0.515625
        },
        {
          "name": "F#2",
          "midi": 42,
          "time": 109.1171875,
          "velocity": 0.7795275590551181,
          "duration": 0.5234375
        },
        {
          "name": "A#2",
          "midi": 46,
          "time": 109.6796875,
          "velocity": 0.7637795275590551,
          "duration": 0.1171875
        },
        {
          "name": "F#2",
          "midi": 42,
          "time": 109.9609375,
          "velocity": 0.7716535433070866,
          "duration": 0.0390625
        },
        {
          "name": "A#2",
          "midi": 46,
          "time": 110.0546875,
          "velocity": 0.7874015748031497,
          "duration": 0.0703125
        },
        {
          "name": "C#3",
          "midi": 49,
          "time": 110.25,
          "velocity": 0.8031496062992126,
          "duration": 0.515625
        },
        {
          "name": "C#2",
          "midi": 37,
          "time": 110.8046875,
          "velocity": 0.7637795275590551,
          "duration": 0.5234375
        },
        {
          "name": "F#2",
          "midi": 42,
          "time": 111.3671875,
          "velocity": 0.8031496062992126,
          "duration": 0.1328125
        },
        {
          "name": "C#2",
          "midi": 37,
          "time": 111.65625,
          "velocity": 0.7716535433070866,
          "duration": 0.046875
        },
        {
          "name": "F#2",
          "midi": 42,
          "time": 111.75,
          "velocity": 0.7716535433070866,
          "duration": 0.1015625
        },
        {
          "name": "A#2",
          "midi": 46,
          "time": 111.9375,
          "velocity": 0.8031496062992126,
          "duration": 0.71875
        },
        {
          "name": "F#1",
          "midi": 30,
          "time": 112.8671875,
          "velocity": 0.7716535433070866,
          "duration": 0.140625
        },
        {
          "name": "G#1",
          "midi": 32,
          "time": 113.0625,
          "velocity": 0.7874015748031497,
          "duration": 0.140625
        },
        {
          "name": "E1",
          "midi": 28,
          "time": 113.3359375,
          "velocity": 0.7795275590551181,
          "duration": 0.0625
        },
        {
          "name": "G#1",
          "midi": 32,
          "time": 113.4296875,
          "velocity": 0.8031496062992126,
          "duration": 0.1015625
        },
        {
          "name": "B1",
          "midi": 35,
          "time": 113.625,
          "velocity": 0.7795275590551181,
          "duration": 0.734375
        },
        {
          "name": "F#2",
          "midi": 42,
          "time": 114.5546875,
          "velocity": 0.7637795275590551,
          "duration": 0.140625
        },
        {
          "name": "G#2",
          "midi": 44,
          "time": 114.75,
          "velocity": 0.7716535433070866,
          "duration": 0.1328125
        },
        {
          "name": "E2",
          "midi": 40,
          "time": 115.0234375,
          "velocity": 0.7795275590551181,
          "duration": 0.046875
        },
        {
          "name": "G#2",
          "midi": 44,
          "time": 115.1171875,
          "velocity": 0.7952755905511811,
          "duration": 0.0859375
        },
        {
          "name": "B2",
          "midi": 47,
          "time": 115.3125,
          "velocity": 0.7637795275590551,
          "duration": 0.7109375
        },
        {
          "name": "F#1",
          "midi": 30,
          "time": 116.25,
          "velocity": 0.7716535433070866,
          "duration": 0.1484375
        },
        {
          "name": "G#1",
          "midi": 32,
          "time": 116.4296875,
          "velocity": 0.7637795275590551,
          "duration": 0.140625
        },
        {
          "name": "E1",
          "midi": 28,
          "time": 116.7109375,
          "velocity": 0.7716535433070866,
          "duration": 0.046875
        },
        {
          "name": "G#1",
          "midi": 32,
          "time": 116.8046875,
          "velocity": 0.7952755905511811,
          "duration": 0.1015625
        },
        {
          "name": "C#2",
          "midi": 37,
          "time": 116.9921875,
          "velocity": 0.7874015748031497,
          "duration": 0.53125
        },
        {
          "name": "F#1",
          "midi": 30,
          "time": 117.5625,
          "velocity": 0.7716535433070866,
          "duration": 0.5078125
        },
        {
          "name": "B1",
          "midi": 35,
          "time": 118.125,
          "velocity": 0.8661417322834646,
          "duration": 0.125
        },
        {
          "name": "F#1",
          "midi": 30,
          "time": 118.40625,
          "velocity": 0.7874015748031497,
          "duration": 0.046875
        },
        {
          "name": "B1",
          "midi": 35,
          "time": 118.5,
          "velocity": 0.8031496062992126,
          "duration": 0.078125
        },
        {
          "name": "D#2",
          "midi": 39,
          "time": 118.6875,
          "velocity": 0.8031496062992126,
          "duration": 0.7265625
        },
        {
          "name": "F#1",
          "midi": 30,
          "time": 119.6171875,
          "velocity": 0.7795275590551181,
          "duration": 0.140625
        },
        {
          "name": "G#1",
          "midi": 32,
          "time": 119.8046875,
          "velocity": 0.7716535433070866,
          "duration": 0.125
        },
        {
          "name": "E1",
          "midi": 28,
          "time": 120.0859375,
          "velocity": 0.7795275590551181,
          "duration": 0.0625
        },
        {
          "name": "G#1",
          "midi": 32,
          "time": 120.1796875,
          "velocity": 0.7795275590551181,
          "duration": 0.1015625
        },
        {
          "name": "B1",
          "midi": 35,
          "time": 120.3671875,
          "velocity": 0.7952755905511811,
          "duration": 0.71875
        },
        {
          "name": "F#2",
          "midi": 42,
          "time": 121.3046875,
          "velocity": 0.7716535433070866,
          "duration": 0.15625
        },
        {
          "name": "G#2",
          "midi": 44,
          "time": 121.4921875,
          "velocity": 0.7874015748031497,
          "duration": 0.1328125
        },
        {
          "name": "E2",
          "midi": 40,
          "time": 121.7734375,
          "velocity": 0.8031496062992126,
          "duration": 0.0625
        },
        {
          "name": "G#2",
          "midi": 44,
          "time": 121.875,
          "velocity": 0.8031496062992126,
          "duration": 0.1015625
        },
        {
          "name": "B2",
          "midi": 47,
          "time": 122.0625,
          "velocity": 0.8031496062992126,
          "duration": 0.7109375
        },
        {
          "name": "F#2",
          "midi": 42,
          "time": 123,
          "velocity": 0.7952755905511811,
          "duration": 0.15625
        },
        {
          "name": "G#1",
          "midi": 32,
          "time": 123.1875,
          "velocity": 0.7874015748031497,
          "duration": 0.1171875
        },
        {
          "name": "E1",
          "midi": 28,
          "time": 123.4609375,
          "velocity": 0.7952755905511811,
          "duration": 0.0625
        },
        {
          "name": "G#1",
          "midi": 32,
          "time": 123.5625,
          "velocity": 0.7637795275590551,
          "duration": 0.078125
        },
        {
          "name": "C#2",
          "midi": 37,
          "time": 123.7421875,
          "velocity": 0.7952755905511811,
          "duration": 0.734375
        },
        {
          "name": "F#1",
          "midi": 30,
          "time": 124.6796875,
          "velocity": 0.7716535433070866,
          "duration": 0.1328125
        },
        {
          "name": "B1",
          "midi": 35,
          "time": 124.875,
          "velocity": 0.7952755905511811,
          "duration": 0.203125
        },
        {
          "name": "F#1",
          "midi": 30,
          "time": 125.15625,
          "velocity": 0.7874015748031497,
          "duration": 0.0625
        },
        {
          "name": "B1",
          "midi": 35,
          "time": 125.2421875,
          "velocity": 0.7795275590551181,
          "duration": 0.15625
        },
        {
          "name": "D#2",
          "midi": 39,
          "time": 125.4375,
          "velocity": 0.8582677165354331,
          "duration": 0.203125
        },
        {
          "name": "B1",
          "midi": 35,
          "time": 125.7109375,
          "velocity": 0.8818897637795275,
          "duration": 0.0625
        },
        {
          "name": "D#2",
          "midi": 39,
          "time": 125.8046875,
          "velocity": 0.8818897637795275,
          "duration": 0.15625
        },
        {
          "name": "F#2",
          "midi": 42,
          "time": 125.9921875,
          "velocity": 0.952755905511811,
          "duration": 0.2265625
        },
        {
          "name": "D#2",
          "midi": 39,
          "time": 126.28125,
          "velocity": 0.952755905511811,
          "duration": 0.0625
        },
        {
          "name": "F#2",
          "midi": 42,
          "time": 126.3828125,
          "velocity": 0.9606299212598425,
          "duration": 0.140625
        },
        {
          "name": "B2",
          "midi": 47,
          "time": 126.5625,
          "velocity": 0.6220472440944882,
          "duration": 0.546875
        },
        {
          "name": "D#3",
          "midi": 51,
          "time": 127.1171875,
          "velocity": 0.6141732283464567,
          "duration": 0.1640625
        },
        {
          "name": "B2",
          "midi": 47,
          "time": 127.40625,
          "velocity": 0.6299212598425197,
          "duration": 0.0546875
        },
        {
          "name": "D#3",
          "midi": 51,
          "time": 127.4921875,
          "velocity": 0.6220472440944882,
          "duration": 0.1328125
        },
        {
          "name": "G3",
          "midi": 55,
          "time": 127.6875,
          "velocity": 0.7637795275590551,
          "duration": 0.171875
        },
        {
          "name": "G2",
          "midi": 43,
          "time": 128.0625,
          "velocity": 0.6929133858267716,
          "duration": 0.0859375
        },
        {
          "name": "B2",
          "midi": 47,
          "time": 128.25,
          "velocity": 0.6141732283464567,
          "duration": 0.5390625
        },
        {
          "name": "D#3",
          "midi": 51,
          "time": 128.8046875,
          "velocity": 0.6456692913385826,
          "duration": 0.171875
        },
        {
          "name": "B2",
          "midi": 47,
          "time": 129.0859375,
          "velocity": 0.6220472440944882,
          "duration": 0.0546875
        },
        {
          "name": "D#3",
          "midi": 51,
          "time": 129.1875,
          "velocity": 0.6456692913385826,
          "duration": 0.140625
        },
        {
          "name": "G3",
          "midi": 55,
          "time": 129.375,
          "velocity": 0.7480314960629921,
          "duration": 0.15625
        },
        {
          "name": "G2",
          "midi": 43,
          "time": 129.75,
          "velocity": 0.7165354330708661,
          "duration": 0.125
        },
        {
          "name": "E2",
          "midi": 40,
          "time": 129.9375,
          "velocity": 0.6220472440944882,
          "duration": 0.171875
        },
        {
          "name": "B2",
          "midi": 47,
          "time": 131.4375,
          "velocity": 0.8031496062992126,
          "duration": 0.0234375
        },
        {
          "name": "A2",
          "midi": 45,
          "time": 131.484375,
          "velocity": 0.8110236220472441,
          "duration": 0.0234375
        },
        {
          "name": "G#2",
          "midi": 44,
          "time": 131.5390625,
          "velocity": 0.8818897637795275,
          "duration": 0.0078125
        },
        {
          "name": "F#2",
          "midi": 42,
          "time": 131.5703125,
          "velocity": 0.8818897637795275,
          "duration": 0.03125
        },
        {
          "name": "E2",
          "midi": 40,
          "time": 131.625,
          "velocity": 0.8582677165354331,
          "duration": 0.15625
        },
        {
          "name": "A2",
          "midi": 45,
          "time": 133.3046875,
          "velocity": 0.6141732283464567,
          "duration": 0.5390625
        },
        {
          "name": "C3",
          "midi": 48,
          "time": 133.875,
          "velocity": 0.6377952755905512,
          "duration": 0.1640625
        },
        {
          "name": "G2",
          "midi": 43,
          "time": 134.1484375,
          "velocity": 0.6456692913385826,
          "duration": 0.0546875
        },
        {
          "name": "C3",
          "midi": 48,
          "time": 134.25,
          "velocity": 0.6377952755905512,
          "duration": 0.1328125
        },
        {
          "name": "E3",
          "midi": 52,
          "time": 134.4375,
          "velocity": 0.7401574803149606,
          "duration": 0.1640625
        },
        {
          "name": "E2",
          "midi": 40,
          "time": 134.8125,
          "velocity": 0.7244094488188977,
          "duration": 0.09375
        },
        {
          "name": "A2",
          "midi": 45,
          "time": 135,
          "velocity": 0.6220472440944882,
          "duration": 0.53125
        },
        {
          "name": "C3",
          "midi": 48,
          "time": 135.5625,
          "velocity": 0.6062992125984252,
          "duration": 0.1640625
        },
        {
          "name": "G2",
          "midi": 43,
          "time": 135.8359375,
          "velocity": 0.6141732283464567,
          "duration": 0.0546875
        },
        {
          "name": "C3",
          "midi": 48,
          "time": 135.9375,
          "velocity": 0.6456692913385826,
          "duration": 0.1171875
        },
        {
          "name": "E3",
          "midi": 52,
          "time": 136.1171875,
          "velocity": 0.7480314960629921,
          "duration": 0.15625
        },
        {
          "name": "E2",
          "midi": 40,
          "time": 136.5,
          "velocity": 0.7007874015748031,
          "duration": 0.125
        },
        {
          "name": "F#2",
          "midi": 42,
          "time": 136.6875,
          "velocity": 0.6062992125984252,
          "duration": 0.1484375
        },
        {
          "name": "C#3",
          "midi": 49,
          "time": 138.1875,
          "velocity": 0.7952755905511811,
          "duration": 0.0078125
        },
        {
          "name": "B2",
          "midi": 47,
          "time": 138.2265625,
          "velocity": 0.8188976377952756,
          "duration": 0.015625
        },
        {
          "name": "A#2",
          "midi": 46,
          "time": 138.2734375,
          "velocity": 0.8503937007874016,
          "duration": 0.015625
        },
        {
          "name": "G#2",
          "midi": 44,
          "time": 138.328125,
          "velocity": 0.8740157480314961,
          "duration": 0.0234375
        },
        {
          "name": "F#2",
          "midi": 42,
          "time": 138.3828125,
          "velocity": 0.84251968503937,
          "duration": 0.171875
        },
        {
          "name": "B1",
          "midi": 35,
          "time": 140.0625,
          "velocity": 0.6062992125984252,
          "duration": 0.53125
        },
        {
          "name": "D#2",
          "midi": 39,
          "time": 140.625,
          "velocity": 0.6062992125984252,
          "duration": 0.1640625
        },
        {
          "name": "B1",
          "midi": 35,
          "time": 140.90625,
          "velocity": 0.6377952755905512,
          "duration": 0.046875
        },
        {
          "name": "D#2",
          "midi": 39,
          "time": 141,
          "velocity": 0.6299212598425197,
          "duration": 0.1328125
        },
        {
          "name": "G2",
          "midi": 43,
          "time": 141.1796875,
          "velocity": 0.7244094488188977,
          "duration": 0.1796875
        },
        {
          "name": "G1",
          "midi": 31,
          "time": 141.5546875,
          "velocity": 0.6929133858267716,
          "duration": 0.125
        },
        {
          "name": "B1",
          "midi": 35,
          "time": 141.7421875,
          "velocity": 0.6456692913385826,
          "duration": 0.5390625
        },
        {
          "name": "D#2",
          "midi": 39,
          "time": 142.3125,
          "velocity": 0.6141732283464567,
          "duration": 0.15625
        },
        {
          "name": "B1",
          "midi": 35,
          "time": 142.59375,
          "velocity": 0.6377952755905512,
          "duration": 0.046875
        },
        {
          "name": "D#2",
          "midi": 39,
          "time": 142.6875,
          "velocity": 0.6456692913385826,
          "duration": 0.140625
        },
        {
          "name": "G2",
          "midi": 43,
          "time": 142.8671875,
          "velocity": 0.7480314960629921,
          "duration": 0.171875
        },
        {
          "name": "G1",
          "midi": 31,
          "time": 143.25,
          "velocity": 0.6850393700787402,
          "duration": 0.125
        },
        {
          "name": "C2",
          "midi": 36,
          "time": 143.4296875,
          "velocity": 0.6299212598425197,
          "duration": 0.53125
        },
        {
          "name": "E2",
          "midi": 40,
          "time": 144,
          "velocity": 0.6062992125984252,
          "duration": 0.1796875
        },
        {
          "name": "C2",
          "midi": 36,
          "time": 144.2734375,
          "velocity": 0.6141732283464567,
          "duration": 0.0546875
        },
        {
          "name": "E2",
          "midi": 40,
          "time": 144.3671875,
          "velocity": 0.6299212598425197,
          "duration": 0.1171875
        },
        {
          "name": "G2",
          "midi": 43,
          "time": 144.5546875,
          "velocity": 0.7559055118110236,
          "duration": 0.1796875
        },
        {
          "name": "G1",
          "midi": 31,
          "time": 144.9375,
          "velocity": 0.7086614173228346,
          "duration": 0.140625
        },
        {
          "name": "C2",
          "midi": 36,
          "time": 145.1171875,
          "velocity": 0.6220472440944882,
          "duration": 0.5390625
        },
        {
          "name": "E2",
          "midi": 40,
          "time": 145.6875,
          "velocity": 0.6220472440944882,
          "duration": 0.1640625
        },
        {
          "name": "C2",
          "midi": 36,
          "time": 145.96875,
          "velocity": 0.6299212598425197,
          "duration": 0.046875
        },
        {
          "name": "E2",
          "midi": 40,
          "time": 146.0546875,
          "velocity": 0.6299212598425197,
          "duration": 0.125
        },
        {
          "name": "G2",
          "midi": 43,
          "time": 146.25,
          "velocity": 0.7401574803149606,
          "duration": 0.171875
        },
        {
          "name": "G1",
          "midi": 31,
          "time": 146.6171875,
          "velocity": 0.7165354330708661,
          "duration": 0.140625
        },
        {
          "name": "B2",
          "midi": 47,
          "time": 146.8125,
          "velocity": 0.29133858267716534,
          "duration": 0.0234375
        },
        {
          "name": "B2",
          "midi": 47,
          "time": 146.875,
          "velocity": 0.29133858267716534,
          "duration": 0.0234375
        },
        {
          "name": "B2",
          "midi": 47,
          "time": 146.9375,
          "velocity": 0.2992125984251969,
          "duration": 0.0390625
        },
        {
          "name": "B2",
          "midi": 47,
          "time": 147,
          "velocity": 0.36220472440944884,
          "duration": 0.0234375
        },
        {
          "name": "B2",
          "midi": 47,
          "time": 147.0625,
          "velocity": 0.33858267716535434,
          "duration": 0.03125
        },
        {
          "name": "B2",
          "midi": 47,
          "time": 147.125,
          "velocity": 0.4015748031496063,
          "duration": 0.03125
        },
        {
          "name": "B2",
          "midi": 47,
          "time": 147.1875,
          "velocity": 0.44881889763779526,
          "duration": 0.015625
        },
        {
          "name": "B2",
          "midi": 47,
          "time": 147.25,
          "velocity": 0.44881889763779526,
          "duration": 0.03125
        },
        {
          "name": "B2",
          "midi": 47,
          "time": 147.3125,
          "velocity": 0.30708661417322836,
          "duration": 0.0390625
        },
        {
          "name": "B2",
          "midi": 47,
          "time": 147.3671875,
          "velocity": 0.33858267716535434,
          "duration": 0.0078125
        },
        {
          "name": "B2",
          "midi": 47,
          "time": 147.4296875,
          "velocity": 0.3700787401574803,
          "duration": 0.03125
        },
        {
          "name": "B2",
          "midi": 47,
          "time": 147.5,
          "velocity": 0.3937007874015748,
          "duration": 0.015625
        },
        {
          "name": "B2",
          "midi": 47,
          "time": 147.5625,
          "velocity": 0.41732283464566927,
          "duration": 0.0234375
        },
        {
          "name": "B2",
          "midi": 47,
          "time": 147.625,
          "velocity": 0.41732283464566927,
          "duration": 0.03125
        },
        {
          "name": "B2",
          "midi": 47,
          "time": 147.6796875,
          "velocity": 0.4645669291338583,
          "duration": 0.0390625
        },
        {
          "name": "B2",
          "midi": 47,
          "time": 147.7421875,
          "velocity": 0.5196850393700787,
          "duration": 0.0234375
        },
        {
          "name": "B2",
          "midi": 47,
          "time": 147.8125,
          "velocity": 0.5196850393700787,
          "duration": 0.03125
        },
        {
          "name": "B2",
          "midi": 47,
          "time": 147.8671875,
          "velocity": 0.5196850393700787,
          "duration": 0.015625
        },
        {
          "name": "B2",
          "midi": 47,
          "time": 147.9375,
          "velocity": 0.5590551181102362,
          "duration": 0.0390625
        },
        {
          "name": "B2",
          "midi": 47,
          "time": 148,
          "velocity": 0.5275590551181102,
          "duration": 0.0234375
        },
        {
          "name": "B2",
          "midi": 47,
          "time": 148.0546875,
          "velocity": 0.5905511811023622,
          "duration": 0.0390625
        },
        {
          "name": "B2",
          "midi": 47,
          "time": 148.1171875,
          "velocity": 0.5669291338582677,
          "duration": 0.0234375
        },
        {
          "name": "B2",
          "midi": 47,
          "time": 148.1875,
          "velocity": 0.6377952755905512,
          "duration": 0.0390625
        },
        {
          "name": "B2",
          "midi": 47,
          "time": 148.2421875,
          "velocity": 0.6299212598425197,
          "duration": 0.015625
        },
        {
          "name": "B2",
          "midi": 47,
          "time": 148.3046875,
          "velocity": 0.6456692913385826,
          "duration": 0.0390625
        },
        {
          "name": "B2",
          "midi": 47,
          "time": 148.375,
          "velocity": 0.6771653543307087,
          "duration": 0.0234375
        },
        {
          "name": "B2",
          "midi": 47,
          "time": 148.4296875,
          "velocity": 0.6850393700787402,
          "duration": 0.015625
        },
        {
          "name": "B2",
          "midi": 47,
          "time": 148.4921875,
          "velocity": 0.6850393700787402,
          "duration": 0.015625
        },
        {
          "name": "B2",
          "midi": 47,
          "time": 148.5625,
          "velocity": 0.6929133858267716,
          "duration": 0.015625
        },
        {
          "name": "B2",
          "midi": 47,
          "time": 148.6171875,
          "velocity": 0.7559055118110236,
          "duration": 0.03125
        },
        {
          "name": "B2",
          "midi": 47,
          "time": 148.6796875,
          "velocity": 0.7559055118110236,
          "duration": 0.03125
        },
        {
          "name": "B2",
          "midi": 47,
          "time": 148.75,
          "velocity": 0.7480314960629921,
          "duration": 0.0234375
        },
        {
          "name": "B2",
          "midi": 47,
          "time": 148.8046875,
          "velocity": 0.7716535433070866,
          "duration": 0.015625
        },
        {
          "name": "B2",
          "midi": 47,
          "time": 148.875,
          "velocity": 0.7637795275590551,
          "duration": 0.015625
        },
        {
          "name": "B2",
          "midi": 47,
          "time": 148.9375,
          "velocity": 0.84251968503937,
          "duration": 0.0234375
        },
        {
          "name": "B2",
          "midi": 47,
          "time": 149,
          "velocity": 0.8188976377952756,
          "duration": 0.03125
        },
        {
          "name": "B2",
          "midi": 47,
          "time": 149.0546875,
          "velocity": 0.8031496062992126,
          "duration": 0.015625
        },
        {
          "name": "B2",
          "midi": 47,
          "time": 149.1171875,
          "velocity": 0.8031496062992126,
          "duration": 0.015625
        },
        {
          "name": "B2",
          "midi": 47,
          "time": 149.1875,
          "velocity": 0.8661417322834646,
          "duration": 0.03125
        },
        {
          "name": "B2",
          "midi": 47,
          "time": 149.2421875,
          "velocity": 0.84251968503937,
          "duration": 0.0390625
        },
        {
          "name": "B2",
          "midi": 47,
          "time": 149.3046875,
          "velocity": 0.8740157480314961,
          "duration": 0.0390625
        },
        {
          "name": "B2",
          "midi": 47,
          "time": 149.3671875,
          "velocity": 0.9212598425196851,
          "duration": 0.0234375
        },
        {
          "name": "B2",
          "midi": 47,
          "time": 149.4375,
          "velocity": 0.889763779527559,
          "duration": 0.0390625
        },
        {
          "name": "B2",
          "midi": 47,
          "time": 149.5,
          "velocity": 0.9133858267716536,
          "duration": 0.03125
        },
        {
          "name": "B2",
          "midi": 47,
          "time": 149.5546875,
          "velocity": 0.8818897637795275,
          "duration": 0.03125
        },
        {
          "name": "B2",
          "midi": 47,
          "time": 149.625,
          "velocity": 0.9606299212598425,
          "duration": 0.0390625
        },
        {
          "name": "B2",
          "midi": 47,
          "time": 149.6875,
          "velocity": 0.9291338582677166,
          "duration": 0.0390625
        },
        {
          "name": "B2",
          "midi": 47,
          "time": 149.75,
          "velocity": 0.952755905511811,
          "duration": 0.03125
        },
        {
          "name": "B2",
          "midi": 47,
          "time": 149.8046875,
          "velocity": 0.9212598425196851,
          "duration": 0.0078125
        },
        {
          "name": "B2",
          "midi": 47,
          "time": 149.875,
          "velocity": 0.9921259842519685,
          "duration": 0.0390625
        },
        {
          "name": "B2",
          "midi": 47,
          "time": 149.9296875,
          "velocity": 0.9606299212598425,
          "duration": 0.0390625
        },
        {
          "name": "B2",
          "midi": 47,
          "time": 149.9921875,
          "velocity": 0.9921259842519685,
          "duration": 0.0234375
        },
        {
          "name": "B2",
          "midi": 47,
          "time": 150.0625,
          "velocity": 1,
          "duration": 0.015625
        },
        {
          "name": "B2",
          "midi": 47,
          "time": 150.125,
          "velocity": 0.9763779527559056,
          "duration": 0.0390625
        },
        {
          "name": "B1",
          "midi": 35,
          "time": 150.1953125,
          "velocity": 0.8582677165354331,
          "duration": 0.109375
        },
        {
          "name": "B1",
          "midi": 35,
          "time": 150.375,
          "velocity": 0.8031496062992126,
          "duration": 0.125
        },
        {
          "name": "B1",
          "midi": 35,
          "time": 150.5546875,
          "velocity": 0.7874015748031497,
          "duration": 0.1171875
        },
        {
          "name": "B1",
          "midi": 35,
          "time": 150.7421875,
          "velocity": 0.7716535433070866,
          "duration": 0.046875
        },
        {
          "name": "B1",
          "midi": 35,
          "time": 150.84375,
          "velocity": 0.6850393700787402,
          "duration": 0.0625
        },
        {
          "name": "B1",
          "midi": 35,
          "time": 150.9296875,
          "velocity": 0.6220472440944882,
          "duration": 0.0703125
        },
        {
          "name": "B1",
          "midi": 35,
          "time": 151.0234375,
          "velocity": 0.6299212598425197,
          "duration": 0.0546875
        },
        {
          "name": "B1",
          "midi": 35,
          "time": 151.1171875,
          "velocity": 0.6456692913385826,
          "duration": 0.0703125
        },
        {
          "name": "B1",
          "midi": 35,
          "time": 151.2109375,
          "velocity": 0.6456692913385826,
          "duration": 0.0546875
        },
        {
          "name": "B1",
          "midi": 35,
          "time": 151.3125,
          "velocity": 0.6299212598425197,
          "duration": 0.0703125
        },
        {
          "name": "B1",
          "midi": 35,
          "time": 151.40625,
          "velocity": 0.6299212598425197,
          "duration": 0.0703125
        },
        {
          "name": "B1",
          "midi": 35,
          "time": 151.4921875,
          "velocity": 0.6456692913385826,
          "duration": 0.0546875
        },
        {
          "name": "B1",
          "midi": 35,
          "time": 151.59375,
          "velocity": 0.6062992125984252,
          "duration": 0.0546875
        },
        {
          "name": "B1",
          "midi": 35,
          "time": 151.6875,
          "velocity": 0.6141732283464567,
          "duration": 0.0703125
        },
        {
          "name": "B1",
          "midi": 35,
          "time": 151.7734375,
          "velocity": 0.6062992125984252,
          "duration": 0.0703125
        },
        {
          "name": "B1",
          "midi": 35,
          "time": 151.8671875,
          "velocity": 0.7952755905511811,
          "duration": 0.0703125
        },
        {
          "name": "B1",
          "midi": 35,
          "time": 151.9609375,
          "velocity": 0.6929133858267716,
          "duration": 0.0546875
        },
        {
          "name": "B1",
          "midi": 35,
          "time": 152.0625,
          "velocity": 0.6299212598425197,
          "duration": 0.0546875
        },
        {
          "name": "B1",
          "midi": 35,
          "time": 152.15625,
          "velocity": 0.6456692913385826,
          "duration": 0.046875
        },
        {
          "name": "B1",
          "midi": 35,
          "time": 152.2421875,
          "velocity": 0.6220472440944882,
          "duration": 0.0625
        },
        {
          "name": "B1",
          "midi": 35,
          "time": 152.34375,
          "velocity": 0.6299212598425197,
          "duration": 0.0703125
        },
        {
          "name": "B1",
          "midi": 35,
          "time": 152.4375,
          "velocity": 0.7874015748031497,
          "duration": 0.0625
        },
        {
          "name": "B1",
          "midi": 35,
          "time": 152.53125,
          "velocity": 0.6850393700787402,
          "duration": 0.0625
        },
        {
          "name": "B1",
          "midi": 35,
          "time": 152.625,
          "velocity": 0.6141732283464567,
          "duration": 0.0703125
        },
        {
          "name": "B1",
          "midi": 35,
          "time": 152.71875,
          "velocity": 0.6062992125984252,
          "duration": 0.0625
        },
        {
          "name": "B1",
          "midi": 35,
          "time": 152.8125,
          "velocity": 0.6377952755905512,
          "duration": 0.0546875
        },
        {
          "name": "B1",
          "midi": 35,
          "time": 152.8984375,
          "velocity": 0.6456692913385826,
          "duration": 0.0625
        },
        {
          "name": "B1",
          "midi": 35,
          "time": 153,
          "velocity": 0.7795275590551181,
          "duration": 0.0703125
        },
        {
          "name": "B1",
          "midi": 35,
          "time": 153.0859375,
          "velocity": 0.7007874015748031,
          "duration": 0.0625
        },
        {
          "name": "B1",
          "midi": 35,
          "time": 153.1796875,
          "velocity": 0.6456692913385826,
          "duration": 0.0546875
        },
        {
          "name": "B1",
          "midi": 35,
          "time": 153.2734375,
          "velocity": 0.6456692913385826,
          "duration": 0.0703125
        },
        {
          "name": "B1",
          "midi": 35,
          "time": 153.375,
          "velocity": 0.6062992125984252,
          "duration": 0.046875
        },
        {
          "name": "B1",
          "midi": 35,
          "time": 153.4609375,
          "velocity": 0.6220472440944882,
          "duration": 0.0703125
        },
        {
          "name": "B1",
          "midi": 35,
          "time": 153.5625,
          "velocity": 0.7795275590551181,
          "duration": 0.046875
        },
        {
          "name": "B1",
          "midi": 35,
          "time": 153.6484375,
          "velocity": 0.7086614173228346,
          "duration": 0.0625
        },
        {
          "name": "B1",
          "midi": 35,
          "time": 153.7421875,
          "velocity": 0.6299212598425197,
          "duration": 0.0625
        },
        {
          "name": "B1",
          "midi": 35,
          "time": 153.8359375,
          "velocity": 0.6299212598425197,
          "duration": 0.0546875
        },
        {
          "name": "B1",
          "midi": 35,
          "time": 153.9296875,
          "velocity": 0.6377952755905512,
          "duration": 0.0546875
        },
        {
          "name": "B1",
          "midi": 35,
          "time": 154.0234375,
          "velocity": 0.6062992125984252,
          "duration": 0.0625
        },
        {
          "name": "B1",
          "midi": 35,
          "time": 154.1171875,
          "velocity": 0.7716535433070866,
          "duration": 0.046875
        },
        {
          "name": "B1",
          "midi": 35,
          "time": 154.2109375,
          "velocity": 0.7165354330708661,
          "duration": 0.046875
        },
        {
          "name": "B1",
          "midi": 35,
          "time": 154.3046875,
          "velocity": 0.6141732283464567,
          "duration": 0.0546875
        },
        {
          "name": "B1",
          "midi": 35,
          "time": 154.40625,
          "velocity": 0.6220472440944882,
          "duration": 0.0703125
        },
        {
          "name": "B1",
          "midi": 35,
          "time": 154.5,
          "velocity": 0.6377952755905512,
          "duration": 0.046875
        },
        {
          "name": "B1",
          "midi": 35,
          "time": 154.59375,
          "velocity": 0.6299212598425197,
          "duration": 0.0625
        },
        {
          "name": "B1",
          "midi": 35,
          "time": 154.6875,
          "velocity": 0.7795275590551181,
          "duration": 0.0703125
        },
        {
          "name": "B1",
          "midi": 35,
          "time": 154.7734375,
          "velocity": 0.7244094488188977,
          "duration": 0.0703125
        },
        {
          "name": "B1",
          "midi": 35,
          "time": 154.8671875,
          "velocity": 0.6299212598425197,
          "duration": 0.0625
        },
        {
          "name": "B1",
          "midi": 35,
          "time": 154.9609375,
          "velocity": 0.6062992125984252,
          "duration": 0.0703125
        },
        {
          "name": "B1",
          "midi": 35,
          "time": 155.0546875,
          "velocity": 0.6299212598425197,
          "duration": 0.0703125
        },
        {
          "name": "B1",
          "midi": 35,
          "time": 155.15625,
          "velocity": 0.6220472440944882,
          "duration": 0.0625
        },
        {
          "name": "B1",
          "midi": 35,
          "time": 155.2421875,
          "velocity": 0.6141732283464567,
          "duration": 0.15625
        },
        {
          "name": "B2",
          "midi": 47,
          "time": 156.9296875,
          "velocity": 0.7874015748031497,
          "duration": 0.0703125
        },
        {
          "name": "B2",
          "midi": 47,
          "time": 157.0234375,
          "velocity": 0.7244094488188977,
          "duration": 0.0703125
        },
        {
          "name": "A#2",
          "midi": 46,
          "time": 157.125,
          "velocity": 0.7795275590551181,
          "duration": 0.0625
        },
        {
          "name": "A#2",
          "midi": 46,
          "time": 157.21875,
          "velocity": 0.7086614173228346,
          "duration": 0.0703125
        },
        {
          "name": "A2",
          "midi": 45,
          "time": 157.3046875,
          "velocity": 0.8031496062992126,
          "duration": 0.078125
        },
        {
          "name": "A2",
          "midi": 45,
          "time": 157.40625,
          "velocity": 0.7244094488188977,
          "duration": 0.0625
        },
        {
          "name": "G#2",
          "midi": 44,
          "time": 157.5,
          "velocity": 0.7637795275590551,
          "duration": 0.0546875
        },
        {
          "name": "G#2",
          "midi": 44,
          "time": 157.5859375,
          "velocity": 0.6850393700787402,
          "duration": 0.0625
        },
        {
          "name": "F#2",
          "midi": 42,
          "time": 157.6875,
          "velocity": 0.7795275590551181,
          "duration": 0.0703125
        },
        {
          "name": "F#2",
          "midi": 42,
          "time": 157.7734375,
          "velocity": 0.6850393700787402,
          "duration": 0.0546875
        },
        {
          "name": "B2",
          "midi": 47,
          "time": 157.8671875,
          "velocity": 0.7952755905511811,
          "duration": 0.0546875
        },
        {
          "name": "B2",
          "midi": 47,
          "time": 157.9609375,
          "velocity": 0.7244094488188977,
          "duration": 0.046875
        },
        {
          "name": "A#2",
          "midi": 46,
          "time": 158.0546875,
          "velocity": 0.7795275590551181,
          "duration": 0.046875
        },
        {
          "name": "A#2",
          "midi": 46,
          "time": 158.15625,
          "velocity": 0.6929133858267716,
          "duration": 0.0625
        },
        {
          "name": "A2",
          "midi": 45,
          "time": 158.2421875,
          "velocity": 0.7716535433070866,
          "duration": 0.078125
        },
        {
          "name": "A2",
          "midi": 45,
          "time": 158.3359375,
          "velocity": 0.6850393700787402,
          "duration": 0.0625
        },
        {
          "name": "G#2",
          "midi": 44,
          "time": 158.4375,
          "velocity": 0.7874015748031497,
          "duration": 0.0546875
        },
        {
          "name": "G#2",
          "midi": 44,
          "time": 158.53125,
          "velocity": 0.7086614173228346,
          "duration": 0.0546875
        },
        {
          "name": "F#2",
          "midi": 42,
          "time": 158.6171875,
          "velocity": 0.7716535433070866,
          "duration": 0.0703125
        },
        {
          "name": "F#2",
          "midi": 42,
          "time": 158.7109375,
          "velocity": 0.7086614173228346,
          "duration": 0.0546875
        },
        {
          "name": "B2",
          "midi": 47,
          "time": 158.8125,
          "velocity": 0.8031496062992126,
          "duration": 0.0546875
        },
        {
          "name": "B2",
          "midi": 47,
          "time": 158.90625,
          "velocity": 0.7165354330708661,
          "duration": 0.078125
        },
        {
          "name": "A#2",
          "midi": 46,
          "time": 158.9921875,
          "velocity": 0.7952755905511811,
          "duration": 0.0703125
        },
        {
          "name": "A#2",
          "midi": 46,
          "time": 159.09375,
          "velocity": 0.7086614173228346,
          "duration": 0.0703125
        },
        {
          "name": "A2",
          "midi": 45,
          "time": 159.1796875,
          "velocity": 0.7874015748031497,
          "duration": 0.0546875
        },
        {
          "name": "A2",
          "midi": 45,
          "time": 159.2734375,
          "velocity": 0.7086614173228346,
          "duration": 0.0703125
        },
        {
          "name": "G#2",
          "midi": 44,
          "time": 159.3671875,
          "velocity": 0.7637795275590551,
          "duration": 0.046875
        },
        {
          "name": "G#2",
          "midi": 44,
          "time": 159.46875,
          "velocity": 0.6929133858267716,
          "duration": 0.0703125
        },
        {
          "name": "F#2",
          "midi": 42,
          "time": 159.5546875,
          "velocity": 0.7874015748031497,
          "duration": 0.0703125
        },
        {
          "name": "F#2",
          "midi": 42,
          "time": 159.65625,
          "velocity": 0.7244094488188977,
          "duration": 0.078125
        },
        {
          "name": "B2",
          "midi": 47,
          "time": 159.75,
          "velocity": 0.7874015748031497,
          "duration": 0.0703125
        },
        {
          "name": "B2",
          "midi": 47,
          "time": 159.8359375,
          "velocity": 0.7165354330708661,
          "duration": 0.078125
        },
        {
          "name": "A#2",
          "midi": 46,
          "time": 159.9375,
          "velocity": 0.7952755905511811,
          "duration": 0.0703125
        },
        {
          "name": "A#2",
          "midi": 46,
          "time": 160.03125,
          "velocity": 0.6929133858267716,
          "duration": 0.078125
        },
        {
          "name": "A2",
          "midi": 45,
          "time": 160.125,
          "velocity": 0.7952755905511811,
          "duration": 0.0625
        },
        {
          "name": "A2",
          "midi": 45,
          "time": 160.2109375,
          "velocity": 0.6929133858267716,
          "duration": 0.078125
        },
        {
          "name": "F#2",
          "midi": 42,
          "time": 160.3125,
          "velocity": 0.7637795275590551,
          "duration": 0.0625
        },
        {
          "name": "F#2",
          "midi": 42,
          "time": 160.40625,
          "velocity": 0.7165354330708661,
          "duration": 0.0625
        },
        {
          "name": "F#2",
          "midi": 42,
          "time": 160.4921875,
          "velocity": 0.6141732283464567,
          "duration": 0.078125
        },
        {
          "name": "G#2",
          "midi": 44,
          "time": 160.59375,
          "velocity": 0.7874015748031497,
          "duration": 0.078125
        },
        {
          "name": "G#2",
          "midi": 44,
          "time": 160.6796875,
          "velocity": 0.6850393700787402,
          "duration": 0.078125
        },
        {
          "name": "G#2",
          "midi": 44,
          "time": 160.7734375,
          "velocity": 0.6377952755905512,
          "duration": 0.046875
        },
        {
          "name": "F#2",
          "midi": 42,
          "time": 160.8671875,
          "velocity": 0.8031496062992126,
          "duration": 0.0546875
        },
        {
          "name": "F#2",
          "midi": 42,
          "time": 160.9609375,
          "velocity": 0.7244094488188977,
          "duration": 0.0546875
        },
        {
          "name": "F#2",
          "midi": 42,
          "time": 161.0625,
          "velocity": 0.6299212598425197,
          "duration": 0.0625
        },
        {
          "name": "G#2",
          "midi": 44,
          "time": 161.1484375,
          "velocity": 0.7637795275590551,
          "duration": 0.0703125
        },
        {
          "name": "G#2",
          "midi": 44,
          "time": 161.2421875,
          "velocity": 0.7086614173228346,
          "duration": 0.0546875
        },
        {
          "name": "G#2",
          "midi": 44,
          "time": 161.3359375,
          "velocity": 0.6299212598425197,
          "duration": 0.0703125
        },
        {
          "name": "F#2",
          "midi": 42,
          "time": 161.4296875,
          "velocity": 0.8031496062992126,
          "duration": 0.078125
        },
        {
          "name": "F#2",
          "midi": 42,
          "time": 161.53125,
          "velocity": 0.7244094488188977,
          "duration": 0.078125
        },
        {
          "name": "F#2",
          "midi": 42,
          "time": 161.625,
          "velocity": 0.6220472440944882,
          "duration": 0.0703125
        },
        {
          "name": "G#2",
          "midi": 44,
          "time": 161.7109375,
          "velocity": 0.7874015748031497,
          "duration": 0.0703125
        },
        {
          "name": "G#2",
          "midi": 44,
          "time": 161.8125,
          "velocity": 0.7086614173228346,
          "duration": 0.078125
        },
        {
          "name": "G#2",
          "midi": 44,
          "time": 161.90625,
          "velocity": 0.6377952755905512,
          "duration": 0.0625
        },
        {
          "name": "F#2",
          "midi": 42,
          "time": 162,
          "velocity": 0.6299212598425197,
          "duration": 0.078125
        },
        {
          "name": "G#2",
          "midi": 44,
          "time": 162.09375,
          "velocity": 0.6062992125984252,
          "duration": 0.0625
        },
        {
          "name": "A2",
          "midi": 45,
          "time": 162.1875,
          "velocity": 0.6456692913385826,
          "duration": 0.0859375
        },
        {
          "name": "A#2",
          "midi": 46,
          "time": 162.28125,
          "velocity": 0.6377952755905512,
          "duration": 0.0703125
        },
        {
          "name": "B2",
          "midi": 47,
          "time": 162.375,
          "velocity": 0.6456692913385826,
          "duration": 0.0703125
        },
        {
          "name": "C#3",
          "midi": 49,
          "time": 162.4609375,
          "velocity": 0.6062992125984252,
          "duration": 0.0546875
        },
        {
          "name": "D#3",
          "midi": 51,
          "time": 162.5546875,
          "velocity": 0.6220472440944882,
          "duration": 0.0546875
        },
        {
          "name": "E3",
          "midi": 52,
          "time": 162.65625,
          "velocity": 0.6141732283464567,
          "duration": 0.0625
        },
        {
          "name": "F#3",
          "midi": 54,
          "time": 162.7421875,
          "velocity": 0.6141732283464567,
          "duration": 0.078125
        },
        {
          "name": "G#3",
          "midi": 56,
          "time": 162.84375,
          "velocity": 0.6456692913385826,
          "duration": 0.0703125
        },
        {
          "name": "A#3",
          "midi": 58,
          "time": 162.9375,
          "velocity": 0.6220472440944882,
          "duration": 0.078125
        },
        {
          "name": "B3",
          "midi": 59,
          "time": 163.03125,
          "velocity": 0.6456692913385826,
          "duration": 0.0546875
        },
        {
          "name": "C#4",
          "midi": 61,
          "time": 163.1171875,
          "velocity": 0.6456692913385826,
          "duration": 0.0703125
        },
        {
          "name": "D#4",
          "midi": 63,
          "time": 163.2109375,
          "velocity": 0.6377952755905512,
          "duration": 0.0703125
        },
        {
          "name": "E4",
          "midi": 64,
          "time": 163.3125,
          "velocity": 0.6062992125984252,
          "duration": 0.0625
        },
        {
          "name": "F#4",
          "midi": 66,
          "time": 163.40625,
          "velocity": 0.6220472440944882,
          "duration": 0.0625
        },
        {
          "name": "G#4",
          "midi": 68,
          "time": 163.5,
          "velocity": 0.6141732283464567,
          "duration": 0.0546875
        },
        {
          "name": "A#4",
          "midi": 70,
          "time": 163.5859375,
          "velocity": 0.6062992125984252,
          "duration": 0.0546875
        },
        {
          "name": "B4",
          "midi": 71,
          "time": 163.6875,
          "velocity": 0.7952755905511811,
          "duration": 0.15625
        }
      ],
      "controlChanges": {
        "7": [
          {
            "number": 7,
            "time": 0,
            "value": 0.8661417322834646
          }
        ],
        "10": [
          {
            "number": 10,
            "time": 0,
            "value": 0.3464566929133858
          }
        ],
        "11": [
          {
            "number": 11,
            "time": 0.015625,
            "value": 1
          }
        ],
        "91": [
          {
            "number": 91,
            "time": 0.015625,
            "value": 0.5039370078740157
          }
        ],
        "93": [
          {
            "number": 93,
            "time": 0.015625,
            "value": 0.15748031496062992
          }
        ]
      }
    },
    {
      "startTime": 1.6796875,
      "duration": 135.84375,
      "length": 1218,
      "id": 7,
      "name": "Clarinets",
      "instrumentNumber": 71,
      "instrument": "clarinet",
      "instrumentFamily": "reed",
      "channelNumber": 6,
      "isPercussion": false,
      "notes": [
        {
          "name": "F#4",
          "midi": 66,
          "time": 1.6796875,
          "velocity": 0.7637795275590551,
          "duration": 0.078125
        },
        {
          "name": "G4",
          "midi": 67,
          "time": 1.78125,
          "velocity": 0.7165354330708661,
          "duration": 0.0703125
        },
        {
          "name": "F#4",
          "midi": 66,
          "time": 1.8671875,
          "velocity": 0.6220472440944882,
          "duration": 0.0859375
        },
        {
          "name": "G4",
          "midi": 67,
          "time": 1.9609375,
          "velocity": 0.5590551181102362,
          "duration": 0.0625
        },
        {
          "name": "F#4",
          "midi": 66,
          "time": 2.0625,
          "velocity": 0.4645669291338583,
          "duration": 0.0859375
        },
        {
          "name": "G4",
          "midi": 67,
          "time": 2.15625,
          "velocity": 0.3937007874015748,
          "duration": 0.078125
        },
        {
          "name": "F#4",
          "midi": 66,
          "time": 2.2421875,
          "velocity": 0.3858267716535433,
          "duration": 0.0703125
        },
        {
          "name": "G4",
          "midi": 67,
          "time": 2.34375,
          "velocity": 0.3228346456692913,
          "duration": 0.0703125
        },
        {
          "name": "F#4",
          "midi": 66,
          "time": 2.4375,
          "velocity": 0.4015748031496063,
          "duration": 0.0625
        },
        {
          "name": "G4",
          "midi": 67,
          "time": 2.5234375,
          "velocity": 0.4094488188976378,
          "duration": 0.0625
        },
        {
          "name": "F#4",
          "midi": 66,
          "time": 2.6171875,
          "velocity": 0.4015748031496063,
          "duration": 0.0625
        },
        {
          "name": "G4",
          "midi": 67,
          "time": 2.7109375,
          "velocity": 0.2992125984251969,
          "duration": 0.0625
        },
        {
          "name": "F#4",
          "midi": 66,
          "time": 2.8046875,
          "velocity": 0.4015748031496063,
          "duration": 0.078125
        },
        {
          "name": "G4",
          "midi": 67,
          "time": 2.90625,
          "velocity": 0.4566929133858268,
          "duration": 0.078125
        },
        {
          "name": "F#4",
          "midi": 66,
          "time": 2.9921875,
          "velocity": 0.5590551181102362,
          "duration": 0.0625
        },
        {
          "name": "G4",
          "midi": 67,
          "time": 3.0859375,
          "velocity": 0.6299212598425197,
          "duration": 0.0859375
        },
        {
          "name": "F#4",
          "midi": 66,
          "time": 3.1796875,
          "velocity": 0.6850393700787402,
          "duration": 0.078125
        },
        {
          "name": "G4",
          "midi": 67,
          "time": 3.2734375,
          "velocity": 0.7007874015748031,
          "duration": 0.0625
        },
        {
          "name": "F#4",
          "midi": 66,
          "time": 3.375,
          "velocity": 0.7165354330708661,
          "duration": 0.078125
        },
        {
          "name": "F#5",
          "midi": 78,
          "time": 3.375,
          "velocity": 0.7007874015748031,
          "duration": 0.0625
        },
        {
          "name": "G4",
          "midi": 67,
          "time": 3.46875,
          "velocity": 0.6299212598425197,
          "duration": 0.0859375
        },
        {
          "name": "G5",
          "midi": 79,
          "time": 3.46875,
          "velocity": 0.6456692913385826,
          "duration": 0.0703125
        },
        {
          "name": "F#4",
          "midi": 66,
          "time": 3.5546875,
          "velocity": 0.6456692913385826,
          "duration": 0.0859375
        },
        {
          "name": "F#5",
          "midi": 78,
          "time": 3.5546875,
          "velocity": 0.6299212598425197,
          "duration": 0.0703125
        },
        {
          "name": "G5",
          "midi": 79,
          "time": 3.6484375,
          "velocity": 0.5669291338582677,
          "duration": 0.0546875
        },
        {
          "name": "G4",
          "midi": 67,
          "time": 3.65625,
          "velocity": 0.5275590551181102,
          "duration": 0.0546875
        },
        {
          "name": "F#5",
          "midi": 78,
          "time": 3.7421875,
          "velocity": 0.44881889763779526,
          "duration": 0.078125
        },
        {
          "name": "F#4",
          "midi": 66,
          "time": 3.75,
          "velocity": 0.44881889763779526,
          "duration": 0.078125
        },
        {
          "name": "G4",
          "midi": 67,
          "time": 3.84375,
          "velocity": 0.3858267716535433,
          "duration": 0.0703125
        },
        {
          "name": "G5",
          "midi": 79,
          "time": 3.84375,
          "velocity": 0.3779527559055118,
          "duration": 0.0703125
        },
        {
          "name": "F#4",
          "midi": 66,
          "time": 3.9296875,
          "velocity": 0.4015748031496063,
          "duration": 0.0625
        },
        {
          "name": "F#5",
          "midi": 78,
          "time": 3.9375,
          "velocity": 0.3937007874015748,
          "duration": 0.0625
        },
        {
          "name": "G4",
          "midi": 67,
          "time": 4.0234375,
          "velocity": 0.29133858267716534,
          "duration": 0.0546875
        },
        {
          "name": "G5",
          "midi": 79,
          "time": 4.0234375,
          "velocity": 0.33070866141732286,
          "duration": 0.0703125
        },
        {
          "name": "F#4",
          "midi": 66,
          "time": 4.1171875,
          "velocity": 0.4015748031496063,
          "duration": 0.0625
        },
        {
          "name": "F#5",
          "midi": 78,
          "time": 4.1171875,
          "velocity": 0.3937007874015748,
          "duration": 0.0703125
        },
        {
          "name": "G4",
          "midi": 67,
          "time": 4.21875,
          "velocity": 0.3779527559055118,
          "duration": 0.0625
        },
        {
          "name": "G5",
          "midi": 79,
          "time": 4.21875,
          "velocity": 0.3858267716535433,
          "duration": 0.0546875
        },
        {
          "name": "F#4",
          "midi": 66,
          "time": 4.3046875,
          "velocity": 0.3779527559055118,
          "duration": 0.0703125
        },
        {
          "name": "F#5",
          "midi": 78,
          "time": 4.3046875,
          "velocity": 0.3858267716535433,
          "duration": 0.0859375
        },
        {
          "name": "G5",
          "midi": 79,
          "time": 4.3984375,
          "velocity": 0.33070866141732286,
          "duration": 0.078125
        },
        {
          "name": "G4",
          "midi": 67,
          "time": 4.40625,
          "velocity": 0.2992125984251969,
          "duration": 0.0703125
        },
        {
          "name": "F#5",
          "midi": 78,
          "time": 4.4921875,
          "velocity": 0.3858267716535433,
          "duration": 0.0703125
        },
        {
          "name": "F#4",
          "midi": 66,
          "time": 4.5,
          "velocity": 0.3700787401574803,
          "duration": 0.0625
        },
        {
          "name": "G4",
          "midi": 67,
          "time": 4.5859375,
          "velocity": 0.48031496062992124,
          "duration": 0.0859375
        },
        {
          "name": "G5",
          "midi": 79,
          "time": 4.5859375,
          "velocity": 0.4881889763779528,
          "duration": 0.0546875
        },
        {
          "name": "F#5",
          "midi": 78,
          "time": 4.6796875,
          "velocity": 0.5511811023622047,
          "duration": 0.0546875
        },
        {
          "name": "F#4",
          "midi": 66,
          "time": 4.6875,
          "velocity": 0.5511811023622047,
          "duration": 0.0703125
        },
        {
          "name": "G4",
          "midi": 67,
          "time": 4.7734375,
          "velocity": 0.5590551181102362,
          "duration": 0.0703125
        },
        {
          "name": "G5",
          "midi": 79,
          "time": 4.7734375,
          "velocity": 0.5433070866141733,
          "duration": 0.0703125
        },
        {
          "name": "F#5",
          "midi": 78,
          "time": 4.8671875,
          "velocity": 0.6456692913385826,
          "duration": 0.0703125
        },
        {
          "name": "F#4",
          "midi": 66,
          "time": 4.875,
          "velocity": 0.6299212598425197,
          "duration": 0.0703125
        },
        {
          "name": "G4",
          "midi": 67,
          "time": 4.9609375,
          "velocity": 0.6850393700787402,
          "duration": 0.0546875
        },
        {
          "name": "G5",
          "midi": 79,
          "time": 4.9609375,
          "velocity": 0.7007874015748031,
          "duration": 0.078125
        },
        {
          "name": "F#4",
          "midi": 66,
          "time": 5.0546875,
          "velocity": 0.7165354330708661,
          "duration": 0.1484375
        },
        {
          "name": "F#5",
          "midi": 78,
          "time": 5.0546875,
          "velocity": 0.6929133858267716,
          "duration": 0.0546875
        },
        {
          "name": "G5",
          "midi": 79,
          "time": 5.15625,
          "velocity": 0.7086614173228346,
          "duration": 0.078125
        },
        {
          "name": "F#5",
          "midi": 78,
          "time": 5.2421875,
          "velocity": 0.6299212598425197,
          "duration": 0.0546875
        },
        {
          "name": "G5",
          "midi": 79,
          "time": 5.34375,
          "velocity": 0.5590551181102362,
          "duration": 0.0625
        },
        {
          "name": "F#5",
          "midi": 78,
          "time": 5.4375,
          "velocity": 0.4566929133858268,
          "duration": 0.0703125
        },
        {
          "name": "G5",
          "midi": 79,
          "time": 5.5234375,
          "velocity": 0.3858267716535433,
          "duration": 0.078125
        },
        {
          "name": "F#5",
          "midi": 78,
          "time": 5.6171875,
          "velocity": 0.4015748031496063,
          "duration": 0.0625
        },
        {
          "name": "G5",
          "midi": 79,
          "time": 5.71875,
          "velocity": 0.3228346456692913,
          "duration": 0.078125
        },
        {
          "name": "F#5",
          "midi": 78,
          "time": 5.8046875,
          "velocity": 0.4094488188976378,
          "duration": 0.0546875
        },
        {
          "name": "G5",
          "midi": 79,
          "time": 5.8984375,
          "velocity": 0.4094488188976378,
          "duration": 0.0625
        },
        {
          "name": "F#5",
          "midi": 78,
          "time": 5.9921875,
          "velocity": 0.4015748031496063,
          "duration": 0.0703125
        },
        {
          "name": "G5",
          "midi": 79,
          "time": 6.0859375,
          "velocity": 0.4015748031496063,
          "duration": 0.0625
        },
        {
          "name": "F#5",
          "midi": 78,
          "time": 6.1875,
          "velocity": 0.30708661417322836,
          "duration": 0.0703125
        },
        {
          "name": "G5",
          "midi": 79,
          "time": 6.28125,
          "velocity": 0.3700787401574803,
          "duration": 0.078125
        },
        {
          "name": "F#5",
          "midi": 78,
          "time": 6.3671875,
          "velocity": 0.44881889763779526,
          "duration": 0.0625
        },
        {
          "name": "G5",
          "midi": 79,
          "time": 6.46875,
          "velocity": 0.5354330708661418,
          "duration": 0.078125
        },
        {
          "name": "F#5",
          "midi": 78,
          "time": 6.5625,
          "velocity": 0.6377952755905512,
          "duration": 0.078125
        },
        {
          "name": "G5",
          "midi": 79,
          "time": 6.6640625,
          "velocity": 0.7244094488188977,
          "duration": 0.0625
        },
        {
          "name": "F#5",
          "midi": 78,
          "time": 6.75,
          "velocity": 0.7244094488188977,
          "duration": 0.0703125
        },
        {
          "name": "F#4",
          "midi": 66,
          "time": 6.7578125,
          "velocity": 0.7086614173228346,
          "duration": 0.0546875
        },
        {
          "name": "G4",
          "midi": 67,
          "time": 6.8359375,
          "velocity": 0.6062992125984252,
          "duration": 0.078125
        },
        {
          "name": "G5",
          "midi": 79,
          "time": 6.8359375,
          "velocity": 0.6456692913385826,
          "duration": 0.0703125
        },
        {
          "name": "F#5",
          "midi": 78,
          "time": 6.9296875,
          "velocity": 0.6299212598425197,
          "duration": 0.0625
        },
        {
          "name": "F#4",
          "midi": 66,
          "time": 6.9375,
          "velocity": 0.6141732283464567,
          "duration": 0.078125
        },
        {
          "name": "G4",
          "midi": 67,
          "time": 7.0234375,
          "velocity": 0.5354330708661418,
          "duration": 0.0859375
        },
        {
          "name": "G5",
          "midi": 79,
          "time": 7.0234375,
          "velocity": 0.5433070866141733,
          "duration": 0.078125
        },
        {
          "name": "F#4",
          "midi": 66,
          "time": 7.1328125,
          "velocity": 0.4881889763779528,
          "duration": 0.0546875
        },
        {
          "name": "F#5",
          "midi": 78,
          "time": 7.1328125,
          "velocity": 0.47244094488188976,
          "duration": 0.0546875
        },
        {
          "name": "G4",
          "midi": 67,
          "time": 7.2109375,
          "velocity": 0.3937007874015748,
          "duration": 0.0625
        },
        {
          "name": "G5",
          "midi": 79,
          "time": 7.21875,
          "velocity": 0.3937007874015748,
          "duration": 0.0625
        },
        {
          "name": "F#4",
          "midi": 66,
          "time": 7.3046875,
          "velocity": 0.4094488188976378,
          "duration": 0.0859375
        },
        {
          "name": "F#5",
          "midi": 78,
          "time": 7.3046875,
          "velocity": 0.3779527559055118,
          "duration": 0.0859375
        },
        {
          "name": "G4",
          "midi": 67,
          "time": 7.3984375,
          "velocity": 0.30708661417322836,
          "duration": 0.0703125
        },
        {
          "name": "G5",
          "midi": 79,
          "time": 7.4140625,
          "velocity": 0.3228346456692913,
          "duration": 0.0625
        },
        {
          "name": "F#4",
          "midi": 66,
          "time": 7.5,
          "velocity": 0.3779527559055118,
          "duration": 0.0546875
        },
        {
          "name": "F#5",
          "midi": 78,
          "time": 7.5,
          "velocity": 0.3937007874015748,
          "duration": 0.0703125
        },
        {
          "name": "G4",
          "midi": 67,
          "time": 7.5859375,
          "velocity": 0.3858267716535433,
          "duration": 0.0703125
        },
        {
          "name": "G5",
          "midi": 79,
          "time": 7.59375,
          "velocity": 0.3937007874015748,
          "duration": 0.0703125
        },
        {
          "name": "F#5",
          "midi": 78,
          "time": 7.6796875,
          "velocity": 0.3700787401574803,
          "duration": 0.0625
        },
        {
          "name": "F#4",
          "midi": 66,
          "time": 7.6875,
          "velocity": 0.3779527559055118,
          "duration": 0.078125
        },
        {
          "name": "G5",
          "midi": 79,
          "time": 7.7734375,
          "velocity": 0.4015748031496063,
          "duration": 0.0546875
        },
        {
          "name": "G4",
          "midi": 67,
          "time": 7.78125,
          "velocity": 0.3779527559055118,
          "duration": 0.078125
        },
        {
          "name": "F#5",
          "midi": 78,
          "time": 7.8671875,
          "velocity": 0.3228346456692913,
          "duration": 0.078125
        },
        {
          "name": "F#4",
          "midi": 66,
          "time": 7.875,
          "velocity": 0.29133858267716534,
          "duration": 0.0546875
        },
        {
          "name": "G4",
          "midi": 67,
          "time": 7.96875,
          "velocity": 0.4094488188976378,
          "duration": 0.0546875
        },
        {
          "name": "G5",
          "midi": 79,
          "time": 7.96875,
          "velocity": 0.4015748031496063,
          "duration": 0.078125
        },
        {
          "name": "F#5",
          "midi": 78,
          "time": 8.0546875,
          "velocity": 0.48031496062992124,
          "duration": 0.078125
        },
        {
          "name": "F#4",
          "midi": 66,
          "time": 8.0625,
          "velocity": 0.4566929133858268,
          "duration": 0.0546875
        },
        {
          "name": "G5",
          "midi": 79,
          "time": 8.1484375,
          "velocity": 0.5433070866141733,
          "duration": 0.0703125
        },
        {
          "name": "G4",
          "midi": 67,
          "time": 8.15625,
          "velocity": 0.5669291338582677,
          "duration": 0.0546875
        },
        {
          "name": "F#4",
          "midi": 66,
          "time": 8.25,
          "velocity": 0.6299212598425197,
          "duration": 0.078125
        },
        {
          "name": "F#5",
          "midi": 78,
          "time": 8.25,
          "velocity": 0.6456692913385826,
          "duration": 0.078125
        },
        {
          "name": "G4",
          "midi": 67,
          "time": 8.3359375,
          "velocity": 0.6929133858267716,
          "duration": 0.0859375
        },
        {
          "name": "G5",
          "midi": 79,
          "time": 8.3359375,
          "velocity": 0.7086614173228346,
          "duration": 0.0859375
        },
        {
          "name": "F#5",
          "midi": 78,
          "time": 8.4296875,
          "velocity": 0.7007874015748031,
          "duration": 0.15625
        },
        {
          "name": "F#4",
          "midi": 66,
          "time": 8.4375,
          "velocity": 0.8031496062992126,
          "duration": 0.078125
        },
        {
          "name": "G4",
          "midi": 67,
          "time": 8.5234375,
          "velocity": 0.7165354330708661,
          "duration": 0.078125
        },
        {
          "name": "F#4",
          "midi": 66,
          "time": 8.625,
          "velocity": 0.6062992125984252,
          "duration": 0.0546875
        },
        {
          "name": "G4",
          "midi": 67,
          "time": 8.7109375,
          "velocity": 0.5511811023622047,
          "duration": 0.078125
        },
        {
          "name": "F#4",
          "midi": 66,
          "time": 8.8125,
          "velocity": 0.44881889763779526,
          "duration": 0.078125
        },
        {
          "name": "G4",
          "midi": 67,
          "time": 8.90625,
          "velocity": 0.3858267716535433,
          "duration": 0.0703125
        },
        {
          "name": "F#4",
          "midi": 66,
          "time": 8.9921875,
          "velocity": 0.3700787401574803,
          "duration": 0.0546875
        },
        {
          "name": "G4",
          "midi": 67,
          "time": 9.0859375,
          "velocity": 0.3228346456692913,
          "duration": 0.0625
        },
        {
          "name": "F#4",
          "midi": 66,
          "time": 9.1796875,
          "velocity": 0.3700787401574803,
          "duration": 0.078125
        },
        {
          "name": "G4",
          "midi": 67,
          "time": 9.28125,
          "velocity": 0.3858267716535433,
          "duration": 0.0703125
        },
        {
          "name": "F#4",
          "midi": 66,
          "time": 9.3671875,
          "velocity": 0.3779527559055118,
          "duration": 0.078125
        },
        {
          "name": "G4",
          "midi": 67,
          "time": 9.4609375,
          "velocity": 0.3700787401574803,
          "duration": 0.078125
        },
        {
          "name": "F#4",
          "midi": 66,
          "time": 9.5625,
          "velocity": 0.2992125984251969,
          "duration": 0.0546875
        },
        {
          "name": "G4",
          "midi": 67,
          "time": 9.65625,
          "velocity": 0.3700787401574803,
          "duration": 0.078125
        },
        {
          "name": "F#4",
          "midi": 66,
          "time": 9.75,
          "velocity": 0.4645669291338583,
          "duration": 0.0546875
        },
        {
          "name": "G4",
          "midi": 67,
          "time": 9.8359375,
          "velocity": 0.5433070866141733,
          "duration": 0.0625
        },
        {
          "name": "F#4",
          "midi": 66,
          "time": 9.9375,
          "velocity": 0.6299212598425197,
          "duration": 0.0546875
        },
        {
          "name": "G4",
          "midi": 67,
          "time": 10.03125,
          "velocity": 0.6929133858267716,
          "duration": 0.078125
        },
        {
          "name": "F#4",
          "midi": 66,
          "time": 10.125,
          "velocity": 0.7874015748031497,
          "duration": 0.078125
        },
        {
          "name": "F#5",
          "midi": 78,
          "time": 10.125,
          "velocity": 0.7874015748031497,
          "duration": 0.078125
        },
        {
          "name": "G5",
          "midi": 79,
          "time": 10.2109375,
          "velocity": 0.7165354330708661,
          "duration": 0.0625
        },
        {
          "name": "G4",
          "midi": 67,
          "time": 10.21875,
          "velocity": 0.6929133858267716,
          "duration": 0.078125
        },
        {
          "name": "F#5",
          "midi": 78,
          "time": 10.3046875,
          "velocity": 0.6456692913385826,
          "duration": 0.0703125
        },
        {
          "name": "F#4",
          "midi": 66,
          "time": 10.3125,
          "velocity": 0.6377952755905512,
          "duration": 0.0546875
        },
        {
          "name": "G4",
          "midi": 67,
          "time": 10.40625,
          "velocity": 0.5433070866141733,
          "duration": 0.078125
        },
        {
          "name": "G5",
          "midi": 79,
          "time": 10.40625,
          "velocity": 0.5590551181102362,
          "duration": 0.0625
        },
        {
          "name": "F#4",
          "midi": 66,
          "time": 10.4921875,
          "velocity": 0.4645669291338583,
          "duration": 0.0625
        },
        {
          "name": "F#5",
          "midi": 78,
          "time": 10.4921875,
          "velocity": 0.4645669291338583,
          "duration": 0.0703125
        },
        {
          "name": "G4",
          "midi": 67,
          "time": 10.5859375,
          "velocity": 0.4094488188976378,
          "duration": 0.0625
        },
        {
          "name": "G5",
          "midi": 79,
          "time": 10.59375,
          "velocity": 0.4015748031496063,
          "duration": 0.0546875
        },
        {
          "name": "F#4",
          "midi": 66,
          "time": 10.6796875,
          "velocity": 0.3937007874015748,
          "duration": 0.0625
        },
        {
          "name": "F#5",
          "midi": 78,
          "time": 10.6796875,
          "velocity": 0.3937007874015748,
          "duration": 0.0625
        },
        {
          "name": "G5",
          "midi": 79,
          "time": 10.7734375,
          "velocity": 0.29133858267716534,
          "duration": 0.0703125
        },
        {
          "name": "G4",
          "midi": 67,
          "time": 10.78125,
          "velocity": 0.2992125984251969,
          "duration": 0.0703125
        },
        {
          "name": "F#4",
          "midi": 66,
          "time": 10.8671875,
          "velocity": 0.4015748031496063,
          "duration": 0.0703125
        },
        {
          "name": "F#5",
          "midi": 78,
          "time": 10.875,
          "velocity": 0.4015748031496063,
          "duration": 0.0546875
        },
        {
          "name": "G4",
          "midi": 67,
          "time": 10.9609375,
          "velocity": 0.3700787401574803,
          "duration": 0.0703125
        },
        {
          "name": "G5",
          "midi": 79,
          "time": 10.9609375,
          "velocity": 0.4094488188976378,
          "duration": 0.0625
        },
        {
          "name": "F#4",
          "midi": 66,
          "time": 11.0625,
          "velocity": 0.3858267716535433,
          "duration": 0.078125
        },
        {
          "name": "F#5",
          "midi": 78,
          "time": 11.0625,
          "velocity": 0.3779527559055118,
          "duration": 0.0703125
        },
        {
          "name": "G4",
          "midi": 67,
          "time": 11.15625,
          "velocity": 0.3858267716535433,
          "duration": 0.0546875
        },
        {
          "name": "G5",
          "midi": 79,
          "time": 11.15625,
          "velocity": 0.3779527559055118,
          "duration": 0.0703125
        },
        {
          "name": "F#5",
          "midi": 78,
          "time": 11.2421875,
          "velocity": 0.33070866141732286,
          "duration": 0.0625
        },
        {
          "name": "F#4",
          "midi": 66,
          "time": 11.25,
          "velocity": 0.31496062992125984,
          "duration": 0.0546875
        },
        {
          "name": "G4",
          "midi": 67,
          "time": 11.34375,
          "velocity": 0.3700787401574803,
          "duration": 0.078125
        },
        {
          "name": "G5",
          "midi": 79,
          "time": 11.34375,
          "velocity": 0.4094488188976378,
          "duration": 0.078125
        },
        {
          "name": "F#4",
          "midi": 66,
          "time": 11.4296875,
          "velocity": 0.4881889763779528,
          "duration": 0.0625
        },
        {
          "name": "F#5",
          "midi": 78,
          "time": 11.4296875,
          "velocity": 0.44881889763779526,
          "duration": 0.0625
        },
        {
          "name": "G5",
          "midi": 79,
          "time": 11.5234375,
          "velocity": 0.5590551181102362,
          "duration": 0.0703125
        },
        {
          "name": "G4",
          "midi": 67,
          "time": 11.53125,
          "velocity": 0.5275590551181102,
          "duration": 0.0625
        },
        {
          "name": "F#4",
          "midi": 66,
          "time": 11.6171875,
          "velocity": 0.6299212598425197,
          "duration": 0.0546875
        },
        {
          "name": "F#5",
          "midi": 78,
          "time": 11.625,
          "velocity": 0.6141732283464567,
          "duration": 0.0703125
        },
        {
          "name": "G4",
          "midi": 67,
          "time": 11.7109375,
          "velocity": 0.7244094488188977,
          "duration": 0.0546875
        },
        {
          "name": "G5",
          "midi": 79,
          "time": 11.71875,
          "velocity": 0.7244094488188977,
          "duration": 0.0703125
        },
        {
          "name": "F#4",
          "midi": 66,
          "time": 11.8125,
          "velocity": 0.8031496062992126,
          "duration": 0.078125
        },
        {
          "name": "F#5",
          "midi": 78,
          "time": 11.8125,
          "velocity": 0.7795275590551181,
          "duration": 0.0703125
        },
        {
          "name": "G4",
          "midi": 67,
          "time": 11.8984375,
          "velocity": 0.7244094488188977,
          "duration": 0.0546875
        },
        {
          "name": "G5",
          "midi": 79,
          "time": 11.90625,
          "velocity": 0.6850393700787402,
          "duration": 0.078125
        },
        {
          "name": "F#4",
          "midi": 66,
          "time": 11.9921875,
          "velocity": 0.6062992125984252,
          "duration": 0.0546875
        },
        {
          "name": "F#5",
          "midi": 78,
          "time": 12,
          "velocity": 0.6141732283464567,
          "duration": 0.0625
        },
        {
          "name": "G5",
          "midi": 79,
          "time": 12.0859375,
          "velocity": 0.5275590551181102,
          "duration": 0.0703125
        },
        {
          "name": "G4",
          "midi": 67,
          "time": 12.09375,
          "velocity": 0.5354330708661418,
          "duration": 0.078125
        },
        {
          "name": "F#4",
          "midi": 66,
          "time": 12.1796875,
          "velocity": 0.48031496062992124,
          "duration": 0.078125
        },
        {
          "name": "F#5",
          "midi": 78,
          "time": 12.1796875,
          "velocity": 0.47244094488188976,
          "duration": 0.078125
        },
        {
          "name": "G4",
          "midi": 67,
          "time": 12.2734375,
          "velocity": 0.3700787401574803,
          "duration": 0.078125
        },
        {
          "name": "G5",
          "midi": 79,
          "time": 12.28125,
          "velocity": 0.3937007874015748,
          "duration": 0.0546875
        },
        {
          "name": "F#4",
          "midi": 66,
          "time": 12.3671875,
          "velocity": 0.3858267716535433,
          "duration": 0.0703125
        },
        {
          "name": "F#5",
          "midi": 78,
          "time": 12.3671875,
          "velocity": 0.3779527559055118,
          "duration": 0.078125
        },
        {
          "name": "G4",
          "midi": 67,
          "time": 12.46875,
          "velocity": 0.3228346456692913,
          "duration": 0.078125
        },
        {
          "name": "G5",
          "midi": 79,
          "time": 12.46875,
          "velocity": 0.3228346456692913,
          "duration": 0.0625
        },
        {
          "name": "F#4",
          "midi": 66,
          "time": 12.5546875,
          "velocity": 0.3858267716535433,
          "duration": 0.0546875
        },
        {
          "name": "F#5",
          "midi": 78,
          "time": 12.5625,
          "velocity": 0.4015748031496063,
          "duration": 0.078125
        },
        {
          "name": "G4",
          "midi": 67,
          "time": 12.6484375,
          "velocity": 0.4015748031496063,
          "duration": 0.078125
        },
        {
          "name": "G5",
          "midi": 79,
          "time": 12.65625,
          "velocity": 0.3779527559055118,
          "duration": 0.0703125
        },
        {
          "name": "F#4",
          "midi": 66,
          "time": 12.7421875,
          "velocity": 0.4015748031496063,
          "duration": 0.0703125
        },
        {
          "name": "F#5",
          "midi": 78,
          "time": 12.7421875,
          "velocity": 0.4094488188976378,
          "duration": 0.0546875
        },
        {
          "name": "G4",
          "midi": 67,
          "time": 12.8359375,
          "velocity": 0.4094488188976378,
          "duration": 0.0703125
        },
        {
          "name": "G5",
          "midi": 79,
          "time": 12.8359375,
          "velocity": 0.3779527559055118,
          "duration": 0.078125
        },
        {
          "name": "F#4",
          "midi": 66,
          "time": 12.9375,
          "velocity": 0.29133858267716534,
          "duration": 0.0625
        },
        {
          "name": "F#5",
          "midi": 78,
          "time": 12.9375,
          "velocity": 0.31496062992125984,
          "duration": 0.0859375
        },
        {
          "name": "G4",
          "midi": 67,
          "time": 13.03125,
          "velocity": 0.4094488188976378,
          "duration": 0.0703125
        },
        {
          "name": "G5",
          "midi": 79,
          "time": 13.03125,
          "velocity": 0.3858267716535433,
          "duration": 0.078125
        },
        {
          "name": "F#4",
          "midi": 66,
          "time": 13.125,
          "velocity": 0.4566929133858268,
          "duration": 0.0546875
        },
        {
          "name": "F#5",
          "midi": 78,
          "time": 13.125,
          "velocity": 0.47244094488188976,
          "duration": 0.0703125
        },
        {
          "name": "G5",
          "midi": 79,
          "time": 13.2109375,
          "velocity": 0.5433070866141733,
          "duration": 0.0703125
        },
        {
          "name": "G4",
          "midi": 67,
          "time": 13.21875,
          "velocity": 0.5275590551181102,
          "duration": 0.078125
        },
        {
          "name": "F#4",
          "midi": 66,
          "time": 13.3125,
          "velocity": 0.6299212598425197,
          "duration": 0.0703125
        },
        {
          "name": "F#5",
          "midi": 78,
          "time": 13.3203125,
          "velocity": 0.6299212598425197,
          "duration": 0.0546875
        },
        {
          "name": "G4",
          "midi": 67,
          "time": 13.40625,
          "velocity": 0.7244094488188977,
          "duration": 0.0703125
        },
        {
          "name": "G5",
          "midi": 79,
          "time": 13.40625,
          "velocity": 0.7165354330708661,
          "duration": 0.0859375
        },
        {
          "name": "F#4",
          "midi": 66,
          "time": 13.4921875,
          "velocity": 0.8031496062992126,
          "duration": 0.0546875
        },
        {
          "name": "F#5",
          "midi": 78,
          "time": 13.5,
          "velocity": 0.7952755905511811,
          "duration": 0.0703125
        },
        {
          "name": "G4",
          "midi": 67,
          "time": 13.5859375,
          "velocity": 0.6929133858267716,
          "duration": 0.0703125
        },
        {
          "name": "G5",
          "midi": 79,
          "time": 13.5859375,
          "velocity": 0.7244094488188977,
          "duration": 0.0703125
        },
        {
          "name": "F#4",
          "midi": 66,
          "time": 13.6875,
          "velocity": 0.6220472440944882,
          "duration": 0.0546875
        },
        {
          "name": "F#5",
          "midi": 78,
          "time": 13.6875,
          "velocity": 0.6456692913385826,
          "duration": 0.0625
        },
        {
          "name": "G4",
          "midi": 67,
          "time": 13.78125,
          "velocity": 0.5433070866141733,
          "duration": 0.0625
        },
        {
          "name": "G5",
          "midi": 79,
          "time": 13.78125,
          "velocity": 0.5354330708661418,
          "duration": 0.0703125
        },
        {
          "name": "F#4",
          "midi": 66,
          "time": 13.8671875,
          "velocity": 0.4645669291338583,
          "duration": 0.0546875
        },
        {
          "name": "F#5",
          "midi": 78,
          "time": 13.8671875,
          "velocity": 0.48031496062992124,
          "duration": 0.0703125
        },
        {
          "name": "G5",
          "midi": 79,
          "time": 13.9609375,
          "velocity": 0.4094488188976378,
          "duration": 0.0703125
        },
        {
          "name": "G4",
          "midi": 67,
          "time": 13.96875,
          "velocity": 0.4015748031496063,
          "duration": 0.0703125
        },
        {
          "name": "F#4",
          "midi": 66,
          "time": 14.0546875,
          "velocity": 0.3858267716535433,
          "duration": 0.0546875
        },
        {
          "name": "F#5",
          "midi": 78,
          "time": 14.0546875,
          "velocity": 0.3779527559055118,
          "duration": 0.0703125
        },
        {
          "name": "G4",
          "midi": 67,
          "time": 14.1484375,
          "velocity": 0.31496062992125984,
          "duration": 0.078125
        },
        {
          "name": "G5",
          "midi": 79,
          "time": 14.15625,
          "velocity": 0.29133858267716534,
          "duration": 0.0703125
        },
        {
          "name": "F#4",
          "midi": 66,
          "time": 14.2421875,
          "velocity": 0.3700787401574803,
          "duration": 0.0625
        },
        {
          "name": "F#5",
          "midi": 78,
          "time": 14.25,
          "velocity": 0.3700787401574803,
          "duration": 0.0625
        },
        {
          "name": "G4",
          "midi": 67,
          "time": 14.3359375,
          "velocity": 0.3858267716535433,
          "duration": 0.0625
        },
        {
          "name": "G5",
          "midi": 79,
          "time": 14.34375,
          "velocity": 0.3779527559055118,
          "duration": 0.078125
        },
        {
          "name": "F#4",
          "midi": 66,
          "time": 14.4296875,
          "velocity": 0.3779527559055118,
          "duration": 0.078125
        },
        {
          "name": "F#5",
          "midi": 78,
          "time": 14.4296875,
          "velocity": 0.3700787401574803,
          "duration": 0.0703125
        },
        {
          "name": "G4",
          "midi": 67,
          "time": 14.53125,
          "velocity": 0.3779527559055118,
          "duration": 0.0625
        },
        {
          "name": "G5",
          "midi": 79,
          "time": 14.53125,
          "velocity": 0.3858267716535433,
          "duration": 0.0546875
        },
        {
          "name": "F#4",
          "midi": 66,
          "time": 14.6171875,
          "velocity": 0.30708661417322836,
          "duration": 0.0625
        },
        {
          "name": "F#5",
          "midi": 78,
          "time": 14.625,
          "velocity": 0.3228346456692913,
          "duration": 0.0546875
        },
        {
          "name": "G5",
          "midi": 79,
          "time": 14.7109375,
          "velocity": 0.3858267716535433,
          "duration": 0.078125
        },
        {
          "name": "G4",
          "midi": 67,
          "time": 14.71875,
          "velocity": 0.4094488188976378,
          "duration": 0.0703125
        },
        {
          "name": "F#4",
          "midi": 66,
          "time": 14.8125,
          "velocity": 0.47244094488188976,
          "duration": 0.078125
        },
        {
          "name": "F#5",
          "midi": 78,
          "time": 14.8125,
          "velocity": 0.48031496062992124,
          "duration": 0.0546875
        },
        {
          "name": "G4",
          "midi": 67,
          "time": 14.90625,
          "velocity": 0.5511811023622047,
          "duration": 0.078125
        },
        {
          "name": "G5",
          "midi": 79,
          "time": 14.90625,
          "velocity": 0.5275590551181102,
          "duration": 0.0546875
        },
        {
          "name": "F#4",
          "midi": 66,
          "time": 14.9921875,
          "velocity": 0.6062992125984252,
          "duration": 0.0703125
        },
        {
          "name": "F#5",
          "midi": 78,
          "time": 14.9921875,
          "velocity": 0.6062992125984252,
          "duration": 0.0703125
        },
        {
          "name": "G4",
          "midi": 67,
          "time": 15.09375,
          "velocity": 0.7244094488188977,
          "duration": 0.078125
        },
        {
          "name": "G5",
          "midi": 79,
          "time": 15.09375,
          "velocity": 0.7244094488188977,
          "duration": 0.078125
        },
        {
          "name": "F#4",
          "midi": 66,
          "time": 15.1875,
          "velocity": 0.8031496062992126,
          "duration": 0.1484375
        },
        {
          "name": "F#5",
          "midi": 78,
          "time": 15.1875,
          "velocity": 0.6850393700787402,
          "duration": 0.0703125
        },
        {
          "name": "G5",
          "midi": 79,
          "time": 15.28125,
          "velocity": 0.6220472440944882,
          "duration": 0.078125
        },
        {
          "name": "F#5",
          "midi": 78,
          "time": 15.3671875,
          "velocity": 0.6299212598425197,
          "duration": 0.078125
        },
        {
          "name": "G5",
          "midi": 79,
          "time": 15.46875,
          "velocity": 0.5354330708661418,
          "duration": 0.0703125
        },
        {
          "name": "B4",
          "midi": 71,
          "time": 15.5625,
          "velocity": 0.7795275590551181,
          "duration": 0.03125
        },
        {
          "name": "F#5",
          "midi": 78,
          "time": 15.5625,
          "velocity": 0.44881889763779526,
          "duration": 0.0703125
        },
        {
          "name": "C#5",
          "midi": 73,
          "time": 15.609375,
          "velocity": 0.7795275590551181,
          "duration": 0.03125
        },
        {
          "name": "G5",
          "midi": 79,
          "time": 15.65625,
          "velocity": 0.3937007874015748,
          "duration": 0.0859375
        },
        {
          "name": "D5",
          "midi": 74,
          "time": 15.6953125,
          "velocity": 0.7716535433070866,
          "duration": 0.03125
        },
        {
          "name": "F#5",
          "midi": 78,
          "time": 15.75,
          "velocity": 0.3779527559055118,
          "duration": 0.0703125
        },
        {
          "name": "E5",
          "midi": 76,
          "time": 15.7890625,
          "velocity": 0.8818897637795275,
          "duration": 0.03125
        },
        {
          "name": "G5",
          "midi": 79,
          "time": 15.8359375,
          "velocity": 0.3228346456692913,
          "duration": 0.078125
        },
        {
          "name": "F#5",
          "midi": 78,
          "time": 15.9375,
          "velocity": 0.3858267716535433,
          "duration": 0.078125
        },
        {
          "name": "G5",
          "midi": 79,
          "time": 16.0234375,
          "velocity": 0.3779527559055118,
          "duration": 0.0625
        },
        {
          "name": "F#5",
          "midi": 78,
          "time": 16.125,
          "velocity": 0.3779527559055118,
          "duration": 0.0625
        },
        {
          "name": "G5",
          "midi": 79,
          "time": 16.2109375,
          "velocity": 0.29133858267716534,
          "duration": 0.078125
        },
        {
          "name": "F#5",
          "midi": 78,
          "time": 16.3125,
          "velocity": 0.3700787401574803,
          "duration": 0.0546875
        },
        {
          "name": "G5",
          "midi": 79,
          "time": 16.3984375,
          "velocity": 0.44881889763779526,
          "duration": 0.0546875
        },
        {
          "name": "F#5",
          "midi": 78,
          "time": 16.5,
          "velocity": 0.5275590551181102,
          "duration": 0.0859375
        },
        {
          "name": "G5",
          "midi": 79,
          "time": 16.59375,
          "velocity": 0.6062992125984252,
          "duration": 0.078125
        },
        {
          "name": "F#5",
          "midi": 78,
          "time": 16.6796875,
          "velocity": 0.6850393700787402,
          "duration": 0.0703125
        },
        {
          "name": "B3",
          "midi": 59,
          "time": 16.6875,
          "velocity": 0.7952755905511811,
          "duration": 0.0078125
        },
        {
          "name": "C#4",
          "midi": 61,
          "time": 16.7265625,
          "velocity": 0.7795275590551181,
          "duration": 0.03125
        },
        {
          "name": "D4",
          "midi": 62,
          "time": 16.7734375,
          "velocity": 0.8031496062992126,
          "duration": 0.0078125
        },
        {
          "name": "G5",
          "midi": 79,
          "time": 16.78125,
          "velocity": 0.7244094488188977,
          "duration": 0.078125
        },
        {
          "name": "E4",
          "midi": 64,
          "time": 16.8203125,
          "velocity": 0.7716535433070866,
          "duration": 0.03125
        },
        {
          "name": "F#5",
          "midi": 78,
          "time": 16.8671875,
          "velocity": 0.7165354330708661,
          "duration": 0.0703125
        },
        {
          "name": "F#4",
          "midi": 66,
          "time": 16.875,
          "velocity": 0.7795275590551181,
          "duration": 0.171875
        },
        {
          "name": "G5",
          "midi": 79,
          "time": 16.96875,
          "velocity": 0.6456692913385826,
          "duration": 0.078125
        },
        {
          "name": "F#5",
          "midi": 78,
          "time": 17.0625,
          "velocity": 0.6456692913385826,
          "duration": 0.078125
        },
        {
          "name": "G5",
          "midi": 79,
          "time": 17.1484375,
          "velocity": 0.5590551181102362,
          "duration": 0.0859375
        },
        {
          "name": "F#4",
          "midi": 66,
          "time": 17.2421875,
          "velocity": 0.4566929133858268,
          "duration": 0.0546875
        },
        {
          "name": "B4",
          "midi": 71,
          "time": 17.25,
          "velocity": 0.7637795275590551,
          "duration": 0.0234375
        },
        {
          "name": "C#5",
          "midi": 73,
          "time": 17.296875,
          "velocity": 0.7952755905511811,
          "duration": 0.015625
        },
        {
          "name": "D5",
          "midi": 74,
          "time": 17.34375,
          "velocity": 0.8031496062992126,
          "duration": 0.0234375
        },
        {
          "name": "G5",
          "midi": 79,
          "time": 17.34375,
          "velocity": 0.3700787401574803,
          "duration": 0.0859375
        },
        {
          "name": "E5",
          "midi": 76,
          "time": 17.390625,
          "velocity": 0.84251968503937,
          "duration": 0.0078125
        },
        {
          "name": "F#5",
          "midi": 78,
          "time": 17.4296875,
          "velocity": 0.3228346456692913,
          "duration": 0.078125
        },
        {
          "name": "G5",
          "midi": 79,
          "time": 17.5234375,
          "velocity": 0.3779527559055118,
          "duration": 0.0859375
        },
        {
          "name": "F#5",
          "midi": 78,
          "time": 17.6171875,
          "velocity": 0.4015748031496063,
          "duration": 0.0703125
        },
        {
          "name": "G5",
          "midi": 79,
          "time": 17.71875,
          "velocity": 0.3700787401574803,
          "duration": 0.078125
        },
        {
          "name": "F#5",
          "midi": 78,
          "time": 17.8046875,
          "velocity": 0.29133858267716534,
          "duration": 0.0703125
        },
        {
          "name": "G5",
          "midi": 79,
          "time": 17.90625,
          "velocity": 0.3700787401574803,
          "duration": 0.0703125
        },
        {
          "name": "F#5",
          "midi": 78,
          "time": 18,
          "velocity": 0.47244094488188976,
          "duration": 0.0625
        },
        {
          "name": "G5",
          "midi": 79,
          "time": 18.0859375,
          "velocity": 0.5354330708661418,
          "duration": 0.0546875
        },
        {
          "name": "F#5",
          "midi": 78,
          "time": 18.1875,
          "velocity": 0.6062992125984252,
          "duration": 0.0703125
        },
        {
          "name": "G5",
          "midi": 79,
          "time": 18.2734375,
          "velocity": 0.6141732283464567,
          "duration": 0.0703125
        },
        {
          "name": "F#5",
          "midi": 78,
          "time": 18.3671875,
          "velocity": 0.7086614173228346,
          "duration": 0.0546875
        },
        {
          "name": "G5",
          "midi": 79,
          "time": 18.4609375,
          "velocity": 0.7165354330708661,
          "duration": 0.078125
        },
        {
          "name": "F#4",
          "midi": 66,
          "time": 18.5546875,
          "velocity": 0.7795275590551181,
          "duration": 0.1484375
        },
        {
          "name": "F#5",
          "midi": 78,
          "time": 18.5625,
          "velocity": 0.7165354330708661,
          "duration": 0.0546875
        },
        {
          "name": "G5",
          "midi": 79,
          "time": 18.6484375,
          "velocity": 0.6299212598425197,
          "duration": 0.0703125
        },
        {
          "name": "F#5",
          "midi": 78,
          "time": 18.75,
          "velocity": 0.6062992125984252,
          "duration": 0.0703125
        },
        {
          "name": "G5",
          "midi": 79,
          "time": 18.84375,
          "velocity": 0.5511811023622047,
          "duration": 0.078125
        },
        {
          "name": "B4",
          "midi": 71,
          "time": 18.9296875,
          "velocity": 0.7952755905511811,
          "duration": 0.03125
        },
        {
          "name": "F#4",
          "midi": 66,
          "time": 18.9375,
          "velocity": 0.4881889763779528,
          "duration": 0.0625
        },
        {
          "name": "C#5",
          "midi": 73,
          "time": 18.984375,
          "velocity": 0.7716535433070866,
          "duration": 0.015625
        },
        {
          "name": "D5",
          "midi": 74,
          "time": 19.0234375,
          "velocity": 0.7637795275590551,
          "duration": 0.0078125
        },
        {
          "name": "G5",
          "midi": 79,
          "time": 19.03125,
          "velocity": 0.3700787401574803,
          "duration": 0.0859375
        },
        {
          "name": "E5",
          "midi": 76,
          "time": 19.078125,
          "velocity": 0.8582677165354331,
          "duration": 0.0078125
        },
        {
          "name": "F#5",
          "midi": 78,
          "time": 19.125,
          "velocity": 0.29133858267716534,
          "duration": 0.0546875
        },
        {
          "name": "G5",
          "midi": 79,
          "time": 19.2109375,
          "velocity": 0.4094488188976378,
          "duration": 0.0625
        },
        {
          "name": "F#5",
          "midi": 78,
          "time": 19.3125,
          "velocity": 0.3779527559055118,
          "duration": 0.0625
        },
        {
          "name": "G5",
          "midi": 79,
          "time": 19.3984375,
          "velocity": 0.3937007874015748,
          "duration": 0.0703125
        },
        {
          "name": "F#5",
          "midi": 78,
          "time": 19.5,
          "velocity": 0.3228346456692913,
          "duration": 0.0546875
        },
        {
          "name": "G5",
          "midi": 79,
          "time": 19.5859375,
          "velocity": 0.4015748031496063,
          "duration": 0.078125
        },
        {
          "name": "F#5",
          "midi": 78,
          "time": 19.6875,
          "velocity": 0.4645669291338583,
          "duration": 0.0546875
        },
        {
          "name": "G5",
          "midi": 79,
          "time": 19.78125,
          "velocity": 0.5511811023622047,
          "duration": 0.078125
        },
        {
          "name": "F#5",
          "midi": 78,
          "time": 19.875,
          "velocity": 0.6299212598425197,
          "duration": 0.078125
        },
        {
          "name": "G5",
          "midi": 79,
          "time": 19.9609375,
          "velocity": 0.6220472440944882,
          "duration": 0.078125
        },
        {
          "name": "F#5",
          "midi": 78,
          "time": 20.0625,
          "velocity": 0.7165354330708661,
          "duration": 0.0703125
        },
        {
          "name": "B3",
          "midi": 59,
          "time": 20.0703125,
          "velocity": 0.7637795275590551,
          "duration": 0.0234375
        },
        {
          "name": "C#4",
          "midi": 61,
          "time": 20.1171875,
          "velocity": 0.7874015748031497,
          "duration": 0.03125
        },
        {
          "name": "D4",
          "midi": 62,
          "time": 20.1484375,
          "velocity": 0.8031496062992126,
          "duration": 0.0390625
        },
        {
          "name": "G5",
          "midi": 79,
          "time": 20.1640625,
          "velocity": 0.7165354330708661,
          "duration": 0.0703125
        },
        {
          "name": "E4",
          "midi": 64,
          "time": 20.2109375,
          "velocity": 0.7952755905511811,
          "duration": 0.015625
        },
        {
          "name": "F#5",
          "midi": 78,
          "time": 20.25,
          "velocity": 0.6929133858267716,
          "duration": 0.0703125
        },
        {
          "name": "F#4",
          "midi": 66,
          "time": 20.2578125,
          "velocity": 0.7874015748031497,
          "duration": 0.1484375
        },
        {
          "name": "G5",
          "midi": 79,
          "time": 20.34375,
          "velocity": 0.6220472440944882,
          "duration": 0.0703125
        },
        {
          "name": "F#5",
          "midi": 78,
          "time": 20.4296875,
          "velocity": 0.6456692913385826,
          "duration": 0.0625
        },
        {
          "name": "G5",
          "midi": 79,
          "time": 20.5234375,
          "velocity": 0.5590551181102362,
          "duration": 0.0859375
        },
        {
          "name": "F#4",
          "midi": 66,
          "time": 20.6171875,
          "velocity": 0.48031496062992124,
          "duration": 0.0625
        },
        {
          "name": "B4",
          "midi": 71,
          "time": 20.625,
          "velocity": 0.7952755905511811,
          "duration": 0.03125
        },
        {
          "name": "C#5",
          "midi": 73,
          "time": 20.6640625,
          "velocity": 0.7716535433070866,
          "duration": 0.0390625
        },
        {
          "name": "G5",
          "midi": 79,
          "time": 20.7109375,
          "velocity": 0.3779527559055118,
          "duration": 0.0703125
        },
        {
          "name": "D5",
          "midi": 74,
          "time": 20.71875,
          "velocity": 0.7716535433070866,
          "duration": 0.015625
        },
        {
          "name": "E5",
          "midi": 76,
          "time": 20.7578125,
          "velocity": 0.8661417322834646,
          "duration": 0.0390625
        },
        {
          "name": "F#5",
          "midi": 78,
          "time": 20.8203125,
          "velocity": 0.31496062992125984,
          "duration": 0.0625
        },
        {
          "name": "G5",
          "midi": 79,
          "time": 20.8984375,
          "velocity": 0.4094488188976378,
          "duration": 0.078125
        },
        {
          "name": "F#5",
          "midi": 78,
          "time": 20.9921875,
          "velocity": 0.3858267716535433,
          "duration": 0.0625
        },
        {
          "name": "G5",
          "midi": 79,
          "time": 21.09375,
          "velocity": 0.3937007874015748,
          "duration": 0.078125
        },
        {
          "name": "F#5",
          "midi": 78,
          "time": 21.1875,
          "velocity": 0.30708661417322836,
          "duration": 0.0625
        },
        {
          "name": "G5",
          "midi": 79,
          "time": 21.2734375,
          "velocity": 0.3858267716535433,
          "duration": 0.078125
        },
        {
          "name": "F#5",
          "midi": 78,
          "time": 21.375,
          "velocity": 0.47244094488188976,
          "duration": 0.0625
        },
        {
          "name": "G5",
          "midi": 79,
          "time": 21.4609375,
          "velocity": 0.5354330708661418,
          "duration": 0.0703125
        },
        {
          "name": "F#5",
          "midi": 78,
          "time": 21.5625,
          "velocity": 0.6456692913385826,
          "duration": 0.0703125
        },
        {
          "name": "G5",
          "midi": 79,
          "time": 21.65625,
          "velocity": 0.6299212598425197,
          "duration": 0.0625
        },
        {
          "name": "B3",
          "midi": 59,
          "time": 21.75,
          "velocity": 0.7637795275590551,
          "duration": 0.0234375
        },
        {
          "name": "F#5",
          "midi": 78,
          "time": 21.75,
          "velocity": 0.6850393700787402,
          "duration": 0.0703125
        },
        {
          "name": "C#4",
          "midi": 61,
          "time": 21.796875,
          "velocity": 0.7874015748031497,
          "duration": 0.0078125
        },
        {
          "name": "D4",
          "midi": 62,
          "time": 21.8359375,
          "velocity": 0.7952755905511811,
          "duration": 0.0078125
        },
        {
          "name": "G5",
          "midi": 79,
          "time": 21.84375,
          "velocity": 0.7244094488188977,
          "duration": 0.0859375
        },
        {
          "name": "E4",
          "midi": 64,
          "time": 21.8828125,
          "velocity": 0.7716535433070866,
          "duration": 0.015625
        },
        {
          "name": "F#4",
          "midi": 66,
          "time": 21.9296875,
          "velocity": 0.8031496062992126,
          "duration": 0.1484375
        },
        {
          "name": "F#5",
          "midi": 78,
          "time": 21.9296875,
          "velocity": 0.7007874015748031,
          "duration": 0.0625
        },
        {
          "name": "G5",
          "midi": 79,
          "time": 22.0234375,
          "velocity": 0.6141732283464567,
          "duration": 0.078125
        },
        {
          "name": "F#5",
          "midi": 78,
          "time": 22.125,
          "velocity": 0.6141732283464567,
          "duration": 0.0625
        },
        {
          "name": "G5",
          "midi": 79,
          "time": 22.2109375,
          "velocity": 0.5590551181102362,
          "duration": 0.0859375
        },
        {
          "name": "B4",
          "midi": 71,
          "time": 22.3046875,
          "velocity": 0.7637795275590551,
          "duration": 0.015625
        },
        {
          "name": "F#4",
          "midi": 66,
          "time": 22.3125,
          "velocity": 0.48031496062992124,
          "duration": 0.078125
        },
        {
          "name": "C#5",
          "midi": 73,
          "time": 22.3515625,
          "velocity": 0.7795275590551181,
          "duration": 0.015625
        },
        {
          "name": "D5",
          "midi": 74,
          "time": 22.3984375,
          "velocity": 0.7952755905511811,
          "duration": 0.0234375
        },
        {
          "name": "G5",
          "midi": 79,
          "time": 22.3984375,
          "velocity": 0.4094488188976378,
          "duration": 0.0859375
        },
        {
          "name": "E5",
          "midi": 76,
          "time": 22.453125,
          "velocity": 0.8503937007874016,
          "duration": 0.0234375
        },
        {
          "name": "F#5",
          "midi": 78,
          "time": 22.5078125,
          "velocity": 0.31496062992125984,
          "duration": 0.0625
        },
        {
          "name": "G5",
          "midi": 79,
          "time": 22.5859375,
          "velocity": 0.3700787401574803,
          "duration": 0.078125
        },
        {
          "name": "F#5",
          "midi": 78,
          "time": 22.6796875,
          "velocity": 0.3937007874015748,
          "duration": 0.078125
        },
        {
          "name": "G5",
          "midi": 79,
          "time": 22.7734375,
          "velocity": 0.4094488188976378,
          "duration": 0.0625
        },
        {
          "name": "F#5",
          "midi": 78,
          "time": 22.8671875,
          "velocity": 0.31496062992125984,
          "duration": 0.0625
        },
        {
          "name": "G5",
          "midi": 79,
          "time": 22.9609375,
          "velocity": 0.3937007874015748,
          "duration": 0.0625
        },
        {
          "name": "F#5",
          "midi": 78,
          "time": 23.0625,
          "velocity": 0.4566929133858268,
          "duration": 0.0625
        },
        {
          "name": "G5",
          "midi": 79,
          "time": 23.15625,
          "velocity": 0.5433070866141733,
          "duration": 0.078125
        },
        {
          "name": "F#5",
          "midi": 78,
          "time": 23.25,
          "velocity": 0.6220472440944882,
          "duration": 0.0625
        },
        {
          "name": "G5",
          "midi": 79,
          "time": 23.34375,
          "velocity": 0.6299212598425197,
          "duration": 0.0703125
        },
        {
          "name": "B3",
          "midi": 59,
          "time": 23.4296875,
          "velocity": 0.8031496062992126,
          "duration": 0.03125
        },
        {
          "name": "F#5",
          "midi": 78,
          "time": 23.4296875,
          "velocity": 0.7244094488188977,
          "duration": 0.0625
        },
        {
          "name": "C#4",
          "midi": 61,
          "time": 23.4765625,
          "velocity": 0.8031496062992126,
          "duration": 0.015625
        },
        {
          "name": "D4",
          "midi": 62,
          "time": 23.5234375,
          "velocity": 0.7716535433070866,
          "duration": 0.0234375
        },
        {
          "name": "G5",
          "midi": 79,
          "time": 23.53125,
          "velocity": 0.7007874015748031,
          "duration": 0.078125
        },
        {
          "name": "E4",
          "midi": 64,
          "time": 23.5859375,
          "velocity": 0.7637795275590551,
          "duration": 0.03125
        },
        {
          "name": "F#4",
          "midi": 66,
          "time": 23.625,
          "velocity": 0.7637795275590551,
          "duration": 0.15625
        },
        {
          "name": "F#5",
          "midi": 78,
          "time": 23.6328125,
          "velocity": 0.7007874015748031,
          "duration": 0.0546875
        },
        {
          "name": "G5",
          "midi": 79,
          "time": 23.71875,
          "velocity": 0.6299212598425197,
          "duration": 0.0625
        },
        {
          "name": "F#5",
          "midi": 78,
          "time": 23.8125,
          "velocity": 0.6456692913385826,
          "duration": 0.0625
        },
        {
          "name": "G5",
          "midi": 79,
          "time": 23.90625,
          "velocity": 0.5590551181102362,
          "duration": 0.078125
        },
        {
          "name": "F#4",
          "midi": 66,
          "time": 23.9921875,
          "velocity": 0.48031496062992124,
          "duration": 0.0625
        },
        {
          "name": "B4",
          "midi": 71,
          "time": 24,
          "velocity": 0.7952755905511811,
          "duration": 0.015625
        },
        {
          "name": "C#5",
          "midi": 73,
          "time": 24.0390625,
          "velocity": 0.7874015748031497,
          "duration": 0.0078125
        },
        {
          "name": "D5",
          "midi": 74,
          "time": 24.0859375,
          "velocity": 0.7637795275590551,
          "duration": 0.03125
        },
        {
          "name": "G5",
          "midi": 79,
          "time": 24.09375,
          "velocity": 0.3937007874015748,
          "duration": 0.0703125
        },
        {
          "name": "E5",
          "midi": 76,
          "time": 24.140625,
          "velocity": 0.8740157480314961,
          "duration": 0.0234375
        },
        {
          "name": "F#5",
          "midi": 78,
          "time": 24.1875,
          "velocity": 0.29133858267716534,
          "duration": 0.0625
        },
        {
          "name": "G5",
          "midi": 79,
          "time": 24.2734375,
          "velocity": 0.3700787401574803,
          "duration": 0.078125
        },
        {
          "name": "F#5",
          "midi": 78,
          "time": 24.3671875,
          "velocity": 0.4015748031496063,
          "duration": 0.0625
        },
        {
          "name": "G5",
          "midi": 79,
          "time": 24.46875,
          "velocity": 0.3700787401574803,
          "duration": 0.0625
        },
        {
          "name": "F#5",
          "midi": 78,
          "time": 24.5546875,
          "velocity": 0.31496062992125984,
          "duration": 0.078125
        },
        {
          "name": "G5",
          "midi": 79,
          "time": 24.65625,
          "velocity": 0.3779527559055118,
          "duration": 0.0859375
        },
        {
          "name": "F#5",
          "midi": 78,
          "time": 24.7421875,
          "velocity": 0.44881889763779526,
          "duration": 0.078125
        },
        {
          "name": "G5",
          "midi": 79,
          "time": 24.84375,
          "velocity": 0.5590551181102362,
          "duration": 0.0703125
        },
        {
          "name": "F#5",
          "midi": 78,
          "time": 24.9296875,
          "velocity": 0.6220472440944882,
          "duration": 0.0625
        },
        {
          "name": "G5",
          "midi": 79,
          "time": 25.0234375,
          "velocity": 0.6299212598425197,
          "duration": 0.078125
        },
        {
          "name": "F#5",
          "midi": 78,
          "time": 25.1171875,
          "velocity": 0.7007874015748031,
          "duration": 0.0546875
        },
        {
          "name": "G5",
          "midi": 79,
          "time": 25.2109375,
          "velocity": 0.7244094488188977,
          "duration": 0.0703125
        },
        {
          "name": "A5",
          "midi": 81,
          "time": 25.3046875,
          "velocity": 0.6299212598425197,
          "duration": 0.078125
        },
        {
          "name": "A4",
          "midi": 69,
          "time": 25.3125,
          "velocity": 0.6850393700787402,
          "duration": 0.1640625
        },
        {
          "name": "B5",
          "midi": 83,
          "time": 25.3984375,
          "velocity": 0.5669291338582677,
          "duration": 0.0703125
        },
        {
          "name": "A5",
          "midi": 81,
          "time": 25.5,
          "velocity": 0.5669291338582677,
          "duration": 0.0625
        },
        {
          "name": "B5",
          "midi": 83,
          "time": 25.59375,
          "velocity": 0.48031496062992124,
          "duration": 0.078125
        },
        {
          "name": "A5",
          "midi": 81,
          "time": 25.6796875,
          "velocity": 0.4015748031496063,
          "duration": 0.0625
        },
        {
          "name": "D5",
          "midi": 74,
          "time": 25.6875,
          "velocity": 0.5354330708661418,
          "duration": 0.0078125
        },
        {
          "name": "E5",
          "midi": 76,
          "time": 25.7265625,
          "velocity": 0.6062992125984252,
          "duration": 0.03125
        },
        {
          "name": "F#5",
          "midi": 78,
          "time": 25.7734375,
          "velocity": 0.7165354330708661,
          "duration": 0.0234375
        },
        {
          "name": "B5",
          "midi": 83,
          "time": 25.7734375,
          "velocity": 0.2992125984251969,
          "duration": 0.0703125
        },
        {
          "name": "G5",
          "midi": 79,
          "time": 25.8203125,
          "velocity": 0.7874015748031497,
          "duration": 0.015625
        },
        {
          "name": "A5",
          "midi": 81,
          "time": 25.8671875,
          "velocity": 0.3937007874015748,
          "duration": 0.078125
        },
        {
          "name": "B5",
          "midi": 83,
          "time": 25.9609375,
          "velocity": 0.29133858267716534,
          "duration": 0.0703125
        },
        {
          "name": "A5",
          "midi": 81,
          "time": 26.0625,
          "velocity": 0.3228346456692913,
          "duration": 0.078125
        },
        {
          "name": "B5",
          "midi": 83,
          "time": 26.1484375,
          "velocity": 0.3858267716535433,
          "duration": 0.0703125
        },
        {
          "name": "A5",
          "midi": 81,
          "time": 26.25,
          "velocity": 0.30708661417322836,
          "duration": 0.0625
        },
        {
          "name": "B5",
          "midi": 83,
          "time": 26.3359375,
          "velocity": 0.3858267716535433,
          "duration": 0.0703125
        },
        {
          "name": "A5",
          "midi": 81,
          "time": 26.4375,
          "velocity": 0.47244094488188976,
          "duration": 0.078125
        },
        {
          "name": "B5",
          "midi": 83,
          "time": 26.53125,
          "velocity": 0.5275590551181102,
          "duration": 0.0625
        },
        {
          "name": "A5",
          "midi": 81,
          "time": 26.6171875,
          "velocity": 0.5275590551181102,
          "duration": 0.0625
        },
        {
          "name": "B5",
          "midi": 83,
          "time": 26.7109375,
          "velocity": 0.5590551181102362,
          "duration": 0.0859375
        },
        {
          "name": "D4",
          "midi": 62,
          "time": 26.8125,
          "velocity": 0.7007874015748031,
          "duration": 0.0078125
        },
        {
          "name": "A5",
          "midi": 81,
          "time": 26.8125,
          "velocity": 0.6456692913385826,
          "duration": 0.0703125
        },
        {
          "name": "E4",
          "midi": 64,
          "time": 26.859375,
          "velocity": 0.6850393700787402,
          "duration": 0.015625
        },
        {
          "name": "F#4",
          "midi": 66,
          "time": 26.8984375,
          "velocity": 0.7086614173228346,
          "duration": 0.015625
        },
        {
          "name": "B5",
          "midi": 83,
          "time": 26.90625,
          "velocity": 0.6062992125984252,
          "duration": 0.0859375
        },
        {
          "name": "G4",
          "midi": 67,
          "time": 26.953125,
          "velocity": 0.7244094488188977,
          "duration": 0.015625
        },
        {
          "name": "A4",
          "midi": 69,
          "time": 27,
          "velocity": 0.6850393700787402,
          "duration": 0.15625
        },
        {
          "name": "A5",
          "midi": 81,
          "time": 27,
          "velocity": 0.6141732283464567,
          "duration": 0.078125
        },
        {
          "name": "B5",
          "midi": 83,
          "time": 27.09375,
          "velocity": 0.5354330708661418,
          "duration": 0.078125
        },
        {
          "name": "A5",
          "midi": 81,
          "time": 27.1875,
          "velocity": 0.5354330708661418,
          "duration": 0.0546875
        },
        {
          "name": "B5",
          "midi": 83,
          "time": 27.28125,
          "velocity": 0.47244094488188976,
          "duration": 0.0546875
        },
        {
          "name": "D5",
          "midi": 74,
          "time": 27.375,
          "velocity": 0.5354330708661418,
          "duration": 0.015625
        },
        {
          "name": "A5",
          "midi": 81,
          "time": 27.375,
          "velocity": 0.3779527559055118,
          "duration": 0.0859375
        },
        {
          "name": "E5",
          "midi": 76,
          "time": 27.4140625,
          "velocity": 0.6062992125984252,
          "duration": 0.015625
        },
        {
          "name": "F#5",
          "midi": 78,
          "time": 27.4609375,
          "velocity": 0.7165354330708661,
          "duration": 0.0078125
        },
        {
          "name": "B5",
          "midi": 83,
          "time": 27.46875,
          "velocity": 0.31496062992125984,
          "duration": 0.078125
        },
        {
          "name": "G5",
          "midi": 79,
          "time": 27.5078125,
          "velocity": 0.7874015748031497,
          "duration": 0.03125
        },
        {
          "name": "A5",
          "midi": 81,
          "time": 27.5703125,
          "velocity": 0.3858267716535433,
          "duration": 0.0546875
        },
        {
          "name": "B5",
          "midi": 83,
          "time": 27.6484375,
          "velocity": 0.29133858267716534,
          "duration": 0.078125
        },
        {
          "name": "A5",
          "midi": 81,
          "time": 27.7421875,
          "velocity": 0.30708661417322836,
          "duration": 0.0703125
        },
        {
          "name": "B5",
          "midi": 83,
          "time": 27.84375,
          "velocity": 0.3937007874015748,
          "duration": 0.0625
        },
        {
          "name": "A5",
          "midi": 81,
          "time": 27.9375,
          "velocity": 0.33070866141732286,
          "duration": 0.0546875
        },
        {
          "name": "B5",
          "midi": 83,
          "time": 28.03125,
          "velocity": 0.3700787401574803,
          "duration": 0.0703125
        },
        {
          "name": "A5",
          "midi": 81,
          "time": 28.1171875,
          "velocity": 0.4566929133858268,
          "duration": 0.0703125
        },
        {
          "name": "B5",
          "midi": 83,
          "time": 28.2109375,
          "velocity": 0.5590551181102362,
          "duration": 0.078125
        },
        {
          "name": "A5",
          "midi": 81,
          "time": 28.3046875,
          "velocity": 0.5275590551181102,
          "duration": 0.0625
        },
        {
          "name": "B5",
          "midi": 83,
          "time": 28.40625,
          "velocity": 0.5275590551181102,
          "duration": 0.078125
        },
        {
          "name": "D4",
          "midi": 62,
          "time": 28.4921875,
          "velocity": 0.7165354330708661,
          "duration": 0.015625
        },
        {
          "name": "A5",
          "midi": 81,
          "time": 28.5,
          "velocity": 0.6141732283464567,
          "duration": 0.0703125
        },
        {
          "name": "E4",
          "midi": 64,
          "time": 28.546875,
          "velocity": 0.7165354330708661,
          "duration": 0.015625
        },
        {
          "name": "F#4",
          "midi": 66,
          "time": 28.5859375,
          "velocity": 0.7165354330708661,
          "duration": 0.03125
        },
        {
          "name": "B5",
          "midi": 83,
          "time": 28.59375,
          "velocity": 0.6220472440944882,
          "duration": 0.0625
        },
        {
          "name": "G4",
          "midi": 67,
          "time": 28.6328125,
          "velocity": 0.7244094488188977,
          "duration": 0.0390625
        },
        {
          "name": "A4",
          "midi": 69,
          "time": 28.6796875,
          "velocity": 0.7165354330708661,
          "duration": 0.15625
        },
        {
          "name": "A5",
          "midi": 81,
          "time": 28.6875,
          "velocity": 0.6220472440944882,
          "duration": 0.078125
        },
        {
          "name": "B5",
          "midi": 83,
          "time": 28.7734375,
          "velocity": 0.5354330708661418,
          "duration": 0.0703125
        },
        {
          "name": "A5",
          "midi": 81,
          "time": 28.875,
          "velocity": 0.5669291338582677,
          "duration": 0.0625
        },
        {
          "name": "B5",
          "midi": 83,
          "time": 28.9609375,
          "velocity": 0.48031496062992124,
          "duration": 0.078125
        },
        {
          "name": "A5",
          "midi": 81,
          "time": 29.0546875,
          "velocity": 0.4015748031496063,
          "duration": 0.0625
        },
        {
          "name": "D5",
          "midi": 74,
          "time": 29.0625,
          "velocity": 0.5590551181102362,
          "duration": 0.0234375
        },
        {
          "name": "E5",
          "midi": 76,
          "time": 29.1015625,
          "velocity": 0.6456692913385826,
          "duration": 0.0234375
        },
        {
          "name": "F#5",
          "midi": 78,
          "time": 29.15625,
          "velocity": 0.6850393700787402,
          "duration": 0.0078125
        },
        {
          "name": "B5",
          "midi": 83,
          "time": 29.15625,
          "velocity": 0.2992125984251969,
          "duration": 0.0703125
        },
        {
          "name": "G5",
          "midi": 79,
          "time": 29.1953125,
          "velocity": 0.7637795275590551,
          "duration": 0.0234375
        },
        {
          "name": "A5",
          "midi": 81,
          "time": 29.2578125,
          "velocity": 0.3858267716535433,
          "duration": 0.0703125
        },
        {
          "name": "B5",
          "midi": 83,
          "time": 29.3359375,
          "velocity": 0.31496062992125984,
          "duration": 0.0703125
        },
        {
          "name": "A5",
          "midi": 81,
          "time": 29.4375,
          "velocity": 0.29133858267716534,
          "duration": 0.0703125
        },
        {
          "name": "B5",
          "midi": 83,
          "time": 29.53125,
          "velocity": 0.4015748031496063,
          "duration": 0.0546875
        },
        {
          "name": "A5",
          "midi": 81,
          "time": 29.625,
          "velocity": 0.33070866141732286,
          "duration": 0.078125
        },
        {
          "name": "B5",
          "midi": 83,
          "time": 29.71875,
          "velocity": 0.4094488188976378,
          "duration": 0.0546875
        },
        {
          "name": "A5",
          "midi": 81,
          "time": 29.8046875,
          "velocity": 0.4566929133858268,
          "duration": 0.0625
        },
        {
          "name": "B5",
          "midi": 83,
          "time": 29.90625,
          "velocity": 0.5669291338582677,
          "duration": 0.0546875
        },
        {
          "name": "A5",
          "midi": 81,
          "time": 29.9921875,
          "velocity": 0.5433070866141733,
          "duration": 0.0703125
        },
        {
          "name": "B5",
          "midi": 83,
          "time": 30.09375,
          "velocity": 0.5354330708661418,
          "duration": 0.078125
        },
        {
          "name": "D4",
          "midi": 62,
          "time": 30.1796875,
          "velocity": 0.7086614173228346,
          "duration": 0.03125
        },
        {
          "name": "A5",
          "midi": 81,
          "time": 30.1796875,
          "velocity": 0.6456692913385826,
          "duration": 0.0703125
        },
        {
          "name": "E4",
          "midi": 64,
          "time": 30.2265625,
          "velocity": 0.6929133858267716,
          "duration": 0.0390625
        },
        {
          "name": "F#4",
          "midi": 66,
          "time": 30.28125,
          "velocity": 0.7007874015748031,
          "duration": 0.015625
        },
        {
          "name": "B5",
          "midi": 83,
          "time": 30.28125,
          "velocity": 0.6377952755905512,
          "duration": 0.0625
        },
        {
          "name": "G4",
          "midi": 67,
          "time": 30.328125,
          "velocity": 0.7244094488188977,
          "duration": 0.015625
        },
        {
          "name": "A5",
          "midi": 81,
          "time": 30.375,
          "velocity": 0.6062992125984252,
          "duration": 0.0625
        },
        {
          "name": "A4",
          "midi": 69,
          "time": 30.3828125,
          "velocity": 0.6850393700787402,
          "duration": 0.1484375
        },
        {
          "name": "B5",
          "midi": 83,
          "time": 30.4609375,
          "velocity": 0.5511811023622047,
          "duration": 0.0546875
        },
        {
          "name": "A5",
          "midi": 81,
          "time": 30.5625,
          "velocity": 0.5275590551181102,
          "duration": 0.0703125
        },
        {
          "name": "B5",
          "midi": 83,
          "time": 30.6484375,
          "velocity": 0.4881889763779528,
          "duration": 0.0625
        },
        {
          "name": "D5",
          "midi": 74,
          "time": 30.7421875,
          "velocity": 0.5590551181102362,
          "duration": 0.03125
        },
        {
          "name": "A5",
          "midi": 81,
          "time": 30.75,
          "velocity": 0.3779527559055118,
          "duration": 0.0703125
        },
        {
          "name": "E5",
          "midi": 76,
          "time": 30.796875,
          "velocity": 0.6299212598425197,
          "duration": 0.0234375
        },
        {
          "name": "B5",
          "midi": 83,
          "time": 30.8359375,
          "velocity": 0.3228346456692913,
          "duration": 0.0859375
        },
        {
          "name": "F#5",
          "midi": 78,
          "time": 30.84375,
          "velocity": 0.7244094488188977,
          "duration": 0.0078125
        },
        {
          "name": "G5",
          "midi": 79,
          "time": 30.8828125,
          "velocity": 0.7637795275590551,
          "duration": 0.03125
        },
        {
          "name": "A5",
          "midi": 81,
          "time": 30.9375,
          "velocity": 0.4094488188976378,
          "duration": 0.0625
        },
        {
          "name": "B5",
          "midi": 83,
          "time": 31.03125,
          "velocity": 0.33070866141732286,
          "duration": 0.0546875
        },
        {
          "name": "A5",
          "midi": 81,
          "time": 31.125,
          "velocity": 0.29133858267716534,
          "duration": 0.0703125
        },
        {
          "name": "B5",
          "midi": 83,
          "time": 31.21875,
          "velocity": 0.3937007874015748,
          "duration": 0.0703125
        },
        {
          "name": "A5",
          "midi": 81,
          "time": 31.3125,
          "velocity": 0.29133858267716534,
          "duration": 0.0703125
        },
        {
          "name": "B5",
          "midi": 83,
          "time": 31.40625,
          "velocity": 0.4094488188976378,
          "duration": 0.0546875
        },
        {
          "name": "A5",
          "midi": 81,
          "time": 31.5,
          "velocity": 0.47244094488188976,
          "duration": 0.0625
        },
        {
          "name": "B5",
          "midi": 83,
          "time": 31.5859375,
          "velocity": 0.5354330708661418,
          "duration": 0.078125
        },
        {
          "name": "A5",
          "midi": 81,
          "time": 31.6875,
          "velocity": 0.5669291338582677,
          "duration": 0.0703125
        },
        {
          "name": "B5",
          "midi": 83,
          "time": 31.7734375,
          "velocity": 0.5354330708661418,
          "duration": 0.078125
        },
        {
          "name": "D4",
          "midi": 62,
          "time": 31.875,
          "velocity": 0.7165354330708661,
          "duration": 0.015625
        },
        {
          "name": "A5",
          "midi": 81,
          "time": 31.8828125,
          "velocity": 0.6141732283464567,
          "duration": 0.0703125
        },
        {
          "name": "E4",
          "midi": 64,
          "time": 31.9140625,
          "velocity": 0.7244094488188977,
          "duration": 0.03125
        },
        {
          "name": "F#4",
          "midi": 66,
          "time": 31.9609375,
          "velocity": 0.7244094488188977,
          "duration": 0.0234375
        },
        {
          "name": "B5",
          "midi": 83,
          "time": 31.9765625,
          "velocity": 0.6141732283464567,
          "duration": 0.0859375
        },
        {
          "name": "G4",
          "midi": 67,
          "time": 32.0078125,
          "velocity": 0.7244094488188977,
          "duration": 0.03125
        },
        {
          "name": "A4",
          "midi": 69,
          "time": 32.0625,
          "velocity": 0.6850393700787402,
          "duration": 0.171875
        },
        {
          "name": "A5",
          "midi": 81,
          "time": 32.0625,
          "velocity": 0.6377952755905512,
          "duration": 0.0546875
        },
        {
          "name": "B5",
          "midi": 83,
          "time": 32.15625,
          "velocity": 0.5590551181102362,
          "duration": 0.0546875
        },
        {
          "name": "A5",
          "midi": 81,
          "time": 32.2421875,
          "velocity": 0.5433070866141733,
          "duration": 0.0703125
        },
        {
          "name": "B5",
          "midi": 83,
          "time": 32.34375,
          "velocity": 0.4881889763779528,
          "duration": 0.078125
        },
        {
          "name": "D5",
          "midi": 74,
          "time": 32.4375,
          "velocity": 0.5433070866141733,
          "duration": 0.03125
        },
        {
          "name": "A5",
          "midi": 81,
          "time": 32.4375,
          "velocity": 0.3700787401574803,
          "duration": 0.0625
        },
        {
          "name": "E5",
          "midi": 76,
          "time": 32.484375,
          "velocity": 0.6220472440944882,
          "duration": 0.015625
        },
        {
          "name": "B5",
          "midi": 83,
          "time": 32.53125,
          "velocity": 0.3228346456692913,
          "duration": 0.0703125
        },
        {
          "name": "F#5",
          "midi": 78,
          "time": 32.5390625,
          "velocity": 0.6929133858267716,
          "duration": 0.0078125
        },
        {
          "name": "G5",
          "midi": 79,
          "time": 32.578125,
          "velocity": 0.8031496062992126,
          "duration": 0.03125
        },
        {
          "name": "A5",
          "midi": 81,
          "time": 32.625,
          "velocity": 0.3700787401574803,
          "duration": 0.0625
        },
        {
          "name": "B5",
          "midi": 83,
          "time": 32.71875,
          "velocity": 0.2992125984251969,
          "duration": 0.0546875
        },
        {
          "name": "A5",
          "midi": 81,
          "time": 32.8125,
          "velocity": 0.31496062992125984,
          "duration": 0.0703125
        },
        {
          "name": "B5",
          "midi": 83,
          "time": 32.90625,
          "velocity": 0.3858267716535433,
          "duration": 0.0859375
        },
        {
          "name": "A5",
          "midi": 81,
          "time": 33,
          "velocity": 0.3228346456692913,
          "duration": 0.0703125
        },
        {
          "name": "B5",
          "midi": 83,
          "time": 33.09375,
          "velocity": 0.3779527559055118,
          "duration": 0.0859375
        },
        {
          "name": "A5",
          "midi": 81,
          "time": 33.1875,
          "velocity": 0.48031496062992124,
          "duration": 0.0625
        },
        {
          "name": "B5",
          "midi": 83,
          "time": 33.2734375,
          "velocity": 0.5354330708661418,
          "duration": 0.0546875
        },
        {
          "name": "A5",
          "midi": 81,
          "time": 33.375,
          "velocity": 0.5275590551181102,
          "duration": 0.0703125
        },
        {
          "name": "B5",
          "midi": 83,
          "time": 33.46875,
          "velocity": 0.5275590551181102,
          "duration": 0.078125
        },
        {
          "name": "D4",
          "midi": 62,
          "time": 33.5546875,
          "velocity": 0.6850393700787402,
          "duration": 0.015625
        },
        {
          "name": "A5",
          "midi": 81,
          "time": 33.5546875,
          "velocity": 0.6141732283464567,
          "duration": 0.078125
        },
        {
          "name": "E4",
          "midi": 64,
          "time": 33.609375,
          "velocity": 0.7086614173228346,
          "duration": 0.0234375
        },
        {
          "name": "B5",
          "midi": 83,
          "time": 33.6484375,
          "velocity": 0.6062992125984252,
          "duration": 0.0859375
        },
        {
          "name": "F#4",
          "midi": 66,
          "time": 33.65625,
          "velocity": 0.6850393700787402,
          "duration": 0.015625
        },
        {
          "name": "G4",
          "midi": 67,
          "time": 33.703125,
          "velocity": 0.7244094488188977,
          "duration": 0.0390625
        },
        {
          "name": "A4",
          "midi": 69,
          "time": 33.75,
          "velocity": 0.7086614173228346,
          "duration": 0.1640625
        },
        {
          "name": "A5",
          "midi": 81,
          "time": 33.7578125,
          "velocity": 0.6062992125984252,
          "duration": 0.078125
        },
        {
          "name": "B5",
          "midi": 83,
          "time": 33.84375,
          "velocity": 0.5354330708661418,
          "duration": 0.0625
        },
        {
          "name": "A5",
          "midi": 81,
          "time": 33.9375,
          "velocity": 0.5354330708661418,
          "duration": 0.0625
        },
        {
          "name": "B5",
          "midi": 83,
          "time": 34.03125,
          "velocity": 0.4881889763779528,
          "duration": 0.0703125
        },
        {
          "name": "D5",
          "midi": 74,
          "time": 34.1328125,
          "velocity": 0.5511811023622047,
          "duration": 0.0078125
        },
        {
          "name": "A5",
          "midi": 81,
          "time": 34.1328125,
          "velocity": 0.3700787401574803,
          "duration": 0.0546875
        },
        {
          "name": "E5",
          "midi": 76,
          "time": 34.171875,
          "velocity": 0.6220472440944882,
          "duration": 0.0078125
        },
        {
          "name": "F#5",
          "midi": 78,
          "time": 34.21875,
          "velocity": 0.7007874015748031,
          "duration": 0.03125
        },
        {
          "name": "B5",
          "midi": 83,
          "time": 34.21875,
          "velocity": 0.29133858267716534,
          "duration": 0.078125
        },
        {
          "name": "G5",
          "midi": 79,
          "time": 34.2578125,
          "velocity": 0.8031496062992126,
          "duration": 0.0234375
        },
        {
          "name": "A5",
          "midi": 81,
          "time": 34.3125,
          "velocity": 0.4015748031496063,
          "duration": 0.0703125
        },
        {
          "name": "B5",
          "midi": 83,
          "time": 34.40625,
          "velocity": 0.3228346456692913,
          "duration": 0.0625
        },
        {
          "name": "A5",
          "midi": 81,
          "time": 34.5,
          "velocity": 0.29133858267716534,
          "duration": 0.078125
        },
        {
          "name": "B5",
          "midi": 83,
          "time": 34.59375,
          "velocity": 0.4094488188976378,
          "duration": 0.0703125
        },
        {
          "name": "A5",
          "midi": 81,
          "time": 34.6875,
          "velocity": 0.30708661417322836,
          "duration": 0.0546875
        },
        {
          "name": "B5",
          "midi": 83,
          "time": 34.7734375,
          "velocity": 0.3937007874015748,
          "duration": 0.0703125
        },
        {
          "name": "A5",
          "midi": 81,
          "time": 34.875,
          "velocity": 0.47244094488188976,
          "duration": 0.0703125
        },
        {
          "name": "B5",
          "midi": 83,
          "time": 34.9609375,
          "velocity": 0.5669291338582677,
          "duration": 0.0703125
        },
        {
          "name": "A5",
          "midi": 81,
          "time": 35.0625,
          "velocity": 0.5275590551181102,
          "duration": 0.0703125
        },
        {
          "name": "B5",
          "midi": 83,
          "time": 35.15625,
          "velocity": 0.5433070866141733,
          "duration": 0.0859375
        },
        {
          "name": "D4",
          "midi": 62,
          "time": 35.25,
          "velocity": 0.6850393700787402,
          "duration": 0.0078125
        },
        {
          "name": "A5",
          "midi": 81,
          "time": 35.25,
          "velocity": 0.6220472440944882,
          "duration": 0.0625
        },
        {
          "name": "E4",
          "midi": 64,
          "time": 35.2890625,
          "velocity": 0.7165354330708661,
          "duration": 0.0234375
        },
        {
          "name": "F#4",
          "midi": 66,
          "time": 35.3359375,
          "velocity": 0.6850393700787402,
          "duration": 0.03125
        },
        {
          "name": "B5",
          "midi": 83,
          "time": 35.34375,
          "velocity": 0.6141732283464567,
          "duration": 0.0859375
        },
        {
          "name": "G4",
          "midi": 67,
          "time": 35.390625,
          "velocity": 0.6929133858267716,
          "duration": 0.0234375
        },
        {
          "name": "A4",
          "midi": 69,
          "time": 35.4375,
          "velocity": 0.7007874015748031,
          "duration": 0.171875
        },
        {
          "name": "A5",
          "midi": 81,
          "time": 35.4375,
          "velocity": 0.6377952755905512,
          "duration": 0.0703125
        },
        {
          "name": "B5",
          "midi": 83,
          "time": 35.5234375,
          "velocity": 0.5354330708661418,
          "duration": 0.0859375
        },
        {
          "name": "A5",
          "midi": 81,
          "time": 35.625,
          "velocity": 0.5590551181102362,
          "duration": 0.078125
        },
        {
          "name": "B5",
          "midi": 83,
          "time": 35.7109375,
          "velocity": 0.4881889763779528,
          "duration": 0.0859375
        },
        {
          "name": "A5",
          "midi": 81,
          "time": 35.8046875,
          "velocity": 0.3700787401574803,
          "duration": 0.078125
        },
        {
          "name": "D5",
          "midi": 74,
          "time": 35.8125,
          "velocity": 0.5354330708661418,
          "duration": 0.0078125
        },
        {
          "name": "E5",
          "midi": 76,
          "time": 35.8515625,
          "velocity": 0.6456692913385826,
          "duration": 0.03125
        },
        {
          "name": "B5",
          "midi": 83,
          "time": 35.8984375,
          "velocity": 0.2992125984251969,
          "duration": 0.0546875
        },
        {
          "name": "F#5",
          "midi": 78,
          "time": 35.90625,
          "velocity": 0.7165354330708661,
          "duration": 0.03125
        },
        {
          "name": "G5",
          "midi": 79,
          "time": 35.9453125,
          "velocity": 0.7795275590551181,
          "duration": 0.03125
        },
        {
          "name": "A5",
          "midi": 81,
          "time": 36,
          "velocity": 0.4015748031496063,
          "duration": 0.0625
        },
        {
          "name": "B5",
          "midi": 83,
          "time": 36.0859375,
          "velocity": 0.30708661417322836,
          "duration": 0.0703125
        },
        {
          "name": "A5",
          "midi": 81,
          "time": 36.1875,
          "velocity": 0.2992125984251969,
          "duration": 0.078125
        },
        {
          "name": "B5",
          "midi": 83,
          "time": 36.28125,
          "velocity": 0.4015748031496063,
          "duration": 0.0625
        },
        {
          "name": "A5",
          "midi": 81,
          "time": 36.375,
          "velocity": 0.33070866141732286,
          "duration": 0.078125
        },
        {
          "name": "B5",
          "midi": 83,
          "time": 36.4609375,
          "velocity": 0.4094488188976378,
          "duration": 0.0703125
        },
        {
          "name": "A5",
          "midi": 81,
          "time": 36.5703125,
          "velocity": 0.48031496062992124,
          "duration": 0.0625
        },
        {
          "name": "B5",
          "midi": 83,
          "time": 36.6484375,
          "velocity": 0.5433070866141733,
          "duration": 0.078125
        },
        {
          "name": "A5",
          "midi": 81,
          "time": 36.75,
          "velocity": 0.5433070866141733,
          "duration": 0.0859375
        },
        {
          "name": "B5",
          "midi": 83,
          "time": 36.8359375,
          "velocity": 0.5511811023622047,
          "duration": 0.078125
        },
        {
          "name": "D4",
          "midi": 62,
          "time": 36.9375,
          "velocity": 0.7165354330708661,
          "duration": 0.0234375
        },
        {
          "name": "A5",
          "midi": 81,
          "time": 36.9375,
          "velocity": 0.6220472440944882,
          "duration": 0.0859375
        },
        {
          "name": "E4",
          "midi": 64,
          "time": 36.9765625,
          "velocity": 0.7086614173228346,
          "duration": 0.0390625
        },
        {
          "name": "F#4",
          "midi": 66,
          "time": 37.0234375,
          "velocity": 0.6929133858267716,
          "duration": 0.03125
        },
        {
          "name": "B5",
          "midi": 83,
          "time": 37.0234375,
          "velocity": 0.6456692913385826,
          "duration": 0.0859375
        },
        {
          "name": "G4",
          "midi": 67,
          "time": 37.078125,
          "velocity": 0.7165354330708661,
          "duration": 0.03125
        },
        {
          "name": "C#6",
          "midi": 85,
          "time": 37.125,
          "velocity": 0.6850393700787402,
          "duration": 0.0625
        },
        {
          "name": "D6",
          "midi": 86,
          "time": 37.2109375,
          "velocity": 0.6062992125984252,
          "duration": 0.0859375
        },
        {
          "name": "C#6",
          "midi": 85,
          "time": 37.3046875,
          "velocity": 0.6377952755905512,
          "duration": 0.0625
        },
        {
          "name": "D6",
          "midi": 86,
          "time": 37.40625,
          "velocity": 0.5511811023622047,
          "duration": 0.078125
        },
        {
          "name": "F#5",
          "midi": 78,
          "time": 37.5,
          "velocity": 0.7795275590551181,
          "duration": 0.03125
        },
        {
          "name": "C#6",
          "midi": 85,
          "time": 37.5,
          "velocity": 0.47244094488188976,
          "duration": 0.0625
        },
        {
          "name": "G#5",
          "midi": 80,
          "time": 37.546875,
          "velocity": 0.7637795275590551,
          "duration": 0.0390625
        },
        {
          "name": "A5",
          "midi": 81,
          "time": 37.59375,
          "velocity": 0.7795275590551181,
          "duration": 0.0078125
        },
        {
          "name": "D6",
          "midi": 86,
          "time": 37.59375,
          "velocity": 0.3779527559055118,
          "duration": 0.0859375
        },
        {
          "name": "B5",
          "midi": 83,
          "time": 37.640625,
          "velocity": 0.8818897637795275,
          "duration": 0.0390625
        },
        {
          "name": "C#6",
          "midi": 85,
          "time": 37.6875,
          "velocity": 0.31496062992125984,
          "duration": 0.078125
        },
        {
          "name": "D6",
          "midi": 86,
          "time": 37.78125,
          "velocity": 0.3779527559055118,
          "duration": 0.078125
        },
        {
          "name": "C#6",
          "midi": 85,
          "time": 37.8671875,
          "velocity": 0.3858267716535433,
          "duration": 0.0625
        },
        {
          "name": "D6",
          "midi": 86,
          "time": 37.96875,
          "velocity": 0.3858267716535433,
          "duration": 0.0546875
        },
        {
          "name": "C#6",
          "midi": 85,
          "time": 38.0625,
          "velocity": 0.30708661417322836,
          "duration": 0.0703125
        },
        {
          "name": "D6",
          "midi": 86,
          "time": 38.15625,
          "velocity": 0.3700787401574803,
          "duration": 0.0625
        },
        {
          "name": "C#6",
          "midi": 85,
          "time": 38.25,
          "velocity": 0.47244094488188976,
          "duration": 0.078125
        },
        {
          "name": "D6",
          "midi": 86,
          "time": 38.34375,
          "velocity": 0.5511811023622047,
          "duration": 0.0546875
        },
        {
          "name": "C#6",
          "midi": 85,
          "time": 38.4296875,
          "velocity": 0.6141732283464567,
          "duration": 0.078125
        },
        {
          "name": "B5",
          "midi": 83,
          "time": 38.5234375,
          "velocity": 0.6141732283464567,
          "duration": 0.078125
        },
        {
          "name": "A5",
          "midi": 81,
          "time": 38.6171875,
          "velocity": 0.7244094488188977,
          "duration": 0.0546875
        },
        {
          "name": "G#5",
          "midi": 80,
          "time": 38.7109375,
          "velocity": 0.7244094488188977,
          "duration": 0.078125
        },
        {
          "name": "F#5",
          "midi": 78,
          "time": 38.8046875,
          "velocity": 0.6850393700787402,
          "duration": 0.0703125
        },
        {
          "name": "F#4",
          "midi": 66,
          "time": 38.8203125,
          "velocity": 0.7874015748031497,
          "duration": 0.1484375
        },
        {
          "name": "F5",
          "midi": 77,
          "time": 38.8984375,
          "velocity": 0.6377952755905512,
          "duration": 0.0703125
        },
        {
          "name": "F#5",
          "midi": 78,
          "time": 38.9921875,
          "velocity": 0.6299212598425197,
          "duration": 0.0703125
        },
        {
          "name": "F5",
          "midi": 77,
          "time": 39.09375,
          "velocity": 0.5433070866141733,
          "duration": 0.0625
        },
        {
          "name": "C#5",
          "midi": 73,
          "time": 39.1875,
          "velocity": 0.7637795275590551,
          "duration": 0.0390625
        },
        {
          "name": "F#5",
          "midi": 78,
          "time": 39.1953125,
          "velocity": 0.44881889763779526,
          "duration": 0.0546875
        },
        {
          "name": "D#5",
          "midi": 75,
          "time": 39.2421875,
          "velocity": 0.7795275590551181,
          "duration": 0.0234375
        },
        {
          "name": "F5",
          "midi": 77,
          "time": 39.28125,
          "velocity": 0.3858267716535433,
          "duration": 0.0703125
        },
        {
          "name": "F#5",
          "midi": 78,
          "time": 39.375,
          "velocity": 0.3228346456692913,
          "duration": 0.0546875
        },
        {
          "name": "F5",
          "midi": 77,
          "time": 39.4609375,
          "velocity": 0.4094488188976378,
          "duration": 0.0625
        },
        {
          "name": "F#5",
          "midi": 78,
          "time": 39.5546875,
          "velocity": 0.3937007874015748,
          "duration": 0.0546875
        },
        {
          "name": "F5",
          "midi": 77,
          "time": 39.6484375,
          "velocity": 0.3700787401574803,
          "duration": 0.0625
        },
        {
          "name": "F#5",
          "midi": 78,
          "time": 39.75,
          "velocity": 0.2992125984251969,
          "duration": 0.0625
        },
        {
          "name": "F5",
          "midi": 77,
          "time": 39.8359375,
          "velocity": 0.4015748031496063,
          "duration": 0.0703125
        },
        {
          "name": "F#5",
          "midi": 78,
          "time": 39.9375,
          "velocity": 0.4566929133858268,
          "duration": 0.0625
        },
        {
          "name": "F5",
          "midi": 77,
          "time": 40.0234375,
          "velocity": 0.5590551181102362,
          "duration": 0.0625
        },
        {
          "name": "F#5",
          "midi": 78,
          "time": 40.1171875,
          "velocity": 0.6299212598425197,
          "duration": 0.0546875
        },
        {
          "name": "F5",
          "midi": 77,
          "time": 40.2109375,
          "velocity": 0.6456692913385826,
          "duration": 0.0546875
        },
        {
          "name": "C#5",
          "midi": 73,
          "time": 40.3125,
          "velocity": 0.7716535433070866,
          "duration": 0.015625
        },
        {
          "name": "F#5",
          "midi": 78,
          "time": 40.3125,
          "velocity": 0.6929133858267716,
          "duration": 0.0625
        },
        {
          "name": "B4",
          "midi": 71,
          "time": 40.359375,
          "velocity": 0.8031496062992126,
          "duration": 0.0078125
        },
        {
          "name": "A#4",
          "midi": 70,
          "time": 40.3984375,
          "velocity": 0.8031496062992126,
          "duration": 0.03125
        },
        {
          "name": "F5",
          "midi": 77,
          "time": 40.3984375,
          "velocity": 0.7007874015748031,
          "duration": 0.0703125
        },
        {
          "name": "G#4",
          "midi": 68,
          "time": 40.453125,
          "velocity": 0.7795275590551181,
          "duration": 0.015625
        },
        {
          "name": "F#5",
          "midi": 78,
          "time": 40.4921875,
          "velocity": 0.7244094488188977,
          "duration": 0.0625
        },
        {
          "name": "F5",
          "midi": 77,
          "time": 40.5859375,
          "velocity": 0.6062992125984252,
          "duration": 0.0625
        },
        {
          "name": "F#5",
          "midi": 78,
          "time": 40.6875,
          "velocity": 0.6220472440944882,
          "duration": 0.0859375
        },
        {
          "name": "F5",
          "midi": 77,
          "time": 40.78125,
          "velocity": 0.5433070866141733,
          "duration": 0.0703125
        },
        {
          "name": "F#5",
          "midi": 78,
          "time": 40.8671875,
          "velocity": 0.47244094488188976,
          "duration": 0.0625
        },
        {
          "name": "C#5",
          "midi": 73,
          "time": 40.875,
          "velocity": 0.8031496062992126,
          "duration": 0.0390625
        },
        {
          "name": "D#5",
          "midi": 75,
          "time": 40.9375,
          "velocity": 0.7637795275590551,
          "duration": 0.0234375
        },
        {
          "name": "F5",
          "midi": 77,
          "time": 40.9609375,
          "velocity": 0.4094488188976378,
          "duration": 0.078125
        },
        {
          "name": "F#5",
          "midi": 78,
          "time": 41.0703125,
          "velocity": 0.3228346456692913,
          "duration": 0.0703125
        },
        {
          "name": "F5",
          "midi": 77,
          "time": 41.15625,
          "velocity": 0.3700787401574803,
          "duration": 0.0703125
        },
        {
          "name": "F#5",
          "midi": 78,
          "time": 41.2421875,
          "velocity": 0.4094488188976378,
          "duration": 0.078125
        },
        {
          "name": "F5",
          "midi": 77,
          "time": 41.34375,
          "velocity": 0.4015748031496063,
          "duration": 0.0546875
        },
        {
          "name": "F#5",
          "midi": 78,
          "time": 41.4375,
          "velocity": 0.2992125984251969,
          "duration": 0.0625
        },
        {
          "name": "F5",
          "midi": 77,
          "time": 41.53125,
          "velocity": 0.4094488188976378,
          "duration": 0.0859375
        },
        {
          "name": "F#5",
          "midi": 78,
          "time": 41.625,
          "velocity": 0.47244094488188976,
          "duration": 0.0546875
        },
        {
          "name": "F5",
          "midi": 77,
          "time": 41.71875,
          "velocity": 0.5669291338582677,
          "duration": 0.078125
        },
        {
          "name": "F#5",
          "midi": 78,
          "time": 41.8125,
          "velocity": 0.6299212598425197,
          "duration": 0.0859375
        },
        {
          "name": "F5",
          "midi": 77,
          "time": 41.90625,
          "velocity": 0.6377952755905512,
          "duration": 0.078125
        },
        {
          "name": "F#5",
          "midi": 78,
          "time": 42,
          "velocity": 0.7165354330708661,
          "duration": 0.078125
        },
        {
          "name": "F5",
          "midi": 77,
          "time": 42.09375,
          "velocity": 0.7086614173228346,
          "duration": 0.0859375
        },
        {
          "name": "F#5",
          "midi": 78,
          "time": 42.1796875,
          "velocity": 0.6850393700787402,
          "duration": 0.0625
        },
        {
          "name": "F5",
          "midi": 77,
          "time": 42.28125,
          "velocity": 0.6456692913385826,
          "duration": 0.078125
        },
        {
          "name": "F#5",
          "midi": 78,
          "time": 42.375,
          "velocity": 0.6299212598425197,
          "duration": 0.0625
        },
        {
          "name": "F5",
          "midi": 77,
          "time": 42.46875,
          "velocity": 0.5433070866141733,
          "duration": 0.078125
        },
        {
          "name": "F#5",
          "midi": 78,
          "time": 42.5546875,
          "velocity": 0.4881889763779528,
          "duration": 0.0625
        },
        {
          "name": "C#5",
          "midi": 73,
          "time": 42.5625,
          "velocity": 0.7874015748031497,
          "duration": 0.0390625
        },
        {
          "name": "D#5",
          "midi": 75,
          "time": 42.6171875,
          "velocity": 0.8031496062992126,
          "duration": 0.0234375
        },
        {
          "name": "F5",
          "midi": 77,
          "time": 42.6484375,
          "velocity": 0.4094488188976378,
          "duration": 0.0859375
        },
        {
          "name": "F#5",
          "midi": 78,
          "time": 42.75,
          "velocity": 0.29133858267716534,
          "duration": 0.0703125
        },
        {
          "name": "F5",
          "midi": 77,
          "time": 42.8359375,
          "velocity": 0.3858267716535433,
          "duration": 0.078125
        },
        {
          "name": "F#5",
          "midi": 78,
          "time": 42.9296875,
          "velocity": 0.3937007874015748,
          "duration": 0.0703125
        },
        {
          "name": "F5",
          "midi": 77,
          "time": 43.0234375,
          "velocity": 0.3779527559055118,
          "duration": 0.0703125
        },
        {
          "name": "F#5",
          "midi": 78,
          "time": 43.1328125,
          "velocity": 0.31496062992125984,
          "duration": 0.046875
        },
        {
          "name": "F5",
          "midi": 77,
          "time": 43.2109375,
          "velocity": 0.3779527559055118,
          "duration": 0.0625
        },
        {
          "name": "F#5",
          "midi": 78,
          "time": 43.3203125,
          "velocity": 0.4645669291338583,
          "duration": 0.0625
        },
        {
          "name": "F5",
          "midi": 77,
          "time": 43.40625,
          "velocity": 0.5433070866141733,
          "duration": 0.0703125
        },
        {
          "name": "F#5",
          "midi": 78,
          "time": 43.4921875,
          "velocity": 0.6377952755905512,
          "duration": 0.078125
        },
        {
          "name": "F5",
          "midi": 77,
          "time": 43.5859375,
          "velocity": 0.6220472440944882,
          "duration": 0.0859375
        },
        {
          "name": "C#5",
          "midi": 73,
          "time": 43.6796875,
          "velocity": 0.7874015748031497,
          "duration": 0.0078125
        },
        {
          "name": "F#5",
          "midi": 78,
          "time": 43.6953125,
          "velocity": 0.7165354330708661,
          "duration": 0.0625
        },
        {
          "name": "B4",
          "midi": 71,
          "time": 43.7265625,
          "velocity": 0.8031496062992126,
          "duration": 0.0234375
        },
        {
          "name": "A#4",
          "midi": 70,
          "time": 43.7734375,
          "velocity": 0.7716535433070866,
          "duration": 0.0234375
        },
        {
          "name": "F5",
          "midi": 77,
          "time": 43.78125,
          "velocity": 0.7007874015748031,
          "duration": 0.0859375
        },
        {
          "name": "G#4",
          "midi": 68,
          "time": 43.8203125,
          "velocity": 0.7637795275590551,
          "duration": 0.0234375
        },
        {
          "name": "F#5",
          "midi": 78,
          "time": 43.875,
          "velocity": 0.7007874015748031,
          "duration": 0.0625
        },
        {
          "name": "F5",
          "midi": 77,
          "time": 43.96875,
          "velocity": 0.6141732283464567,
          "duration": 0.0703125
        },
        {
          "name": "F#5",
          "midi": 78,
          "time": 44.0546875,
          "velocity": 0.6377952755905512,
          "duration": 0.0625
        },
        {
          "name": "F5",
          "midi": 77,
          "time": 44.15625,
          "velocity": 0.5669291338582677,
          "duration": 0.0625
        },
        {
          "name": "F#5",
          "midi": 78,
          "time": 44.2421875,
          "velocity": 0.4645669291338583,
          "duration": 0.078125
        },
        {
          "name": "C#5",
          "midi": 73,
          "time": 44.25,
          "velocity": 0.7716535433070866,
          "duration": 0.03125
        },
        {
          "name": "D#5",
          "midi": 75,
          "time": 44.3125,
          "velocity": 0.7716535433070866,
          "duration": 0.0390625
        },
        {
          "name": "F5",
          "midi": 77,
          "time": 44.3359375,
          "velocity": 0.3858267716535433,
          "duration": 0.078125
        },
        {
          "name": "F#5",
          "midi": 78,
          "time": 44.4296875,
          "velocity": 0.30708661417322836,
          "duration": 0.0625
        },
        {
          "name": "F5",
          "midi": 77,
          "time": 44.5234375,
          "velocity": 0.3779527559055118,
          "duration": 0.0546875
        },
        {
          "name": "F#5",
          "midi": 78,
          "time": 44.6171875,
          "velocity": 0.3858267716535433,
          "duration": 0.0625
        },
        {
          "name": "F5",
          "midi": 77,
          "time": 44.71875,
          "velocity": 0.3937007874015748,
          "duration": 0.0625
        },
        {
          "name": "F#5",
          "midi": 78,
          "time": 44.8125,
          "velocity": 0.30708661417322836,
          "duration": 0.0703125
        },
        {
          "name": "F5",
          "midi": 77,
          "time": 44.8984375,
          "velocity": 0.3779527559055118,
          "duration": 0.078125
        },
        {
          "name": "F#5",
          "midi": 78,
          "time": 44.9921875,
          "velocity": 0.4645669291338583,
          "duration": 0.0625
        },
        {
          "name": "F5",
          "midi": 77,
          "time": 45.09375,
          "velocity": 0.5511811023622047,
          "duration": 0.0546875
        },
        {
          "name": "F#5",
          "midi": 78,
          "time": 45.1796875,
          "velocity": 0.6220472440944882,
          "duration": 0.0625
        },
        {
          "name": "E5",
          "midi": 76,
          "time": 45.2734375,
          "velocity": 0.6220472440944882,
          "duration": 0.0703125
        },
        {
          "name": "D5",
          "midi": 74,
          "time": 45.375,
          "velocity": 0.6929133858267716,
          "duration": 0.0625
        },
        {
          "name": "C#5",
          "midi": 73,
          "time": 45.46875,
          "velocity": 0.7007874015748031,
          "duration": 0.0859375
        },
        {
          "name": "B4",
          "midi": 71,
          "time": 45.5625,
          "velocity": 0.6929133858267716,
          "duration": 0.0625
        },
        {
          "name": "C#5",
          "midi": 73,
          "time": 45.6484375,
          "velocity": 0.6377952755905512,
          "duration": 0.0859375
        },
        {
          "name": "B4",
          "midi": 71,
          "time": 45.75,
          "velocity": 0.6456692913385826,
          "duration": 0.078125
        },
        {
          "name": "C#5",
          "midi": 73,
          "time": 45.8359375,
          "velocity": 0.5354330708661418,
          "duration": 0.0625
        },
        {
          "name": "E4",
          "midi": 64,
          "time": 45.9296875,
          "velocity": 0.7795275590551181,
          "duration": 0.0078125
        },
        {
          "name": "B4",
          "midi": 71,
          "time": 45.9375,
          "velocity": 0.44881889763779526,
          "duration": 0.078125
        },
        {
          "name": "F#4",
          "midi": 66,
          "time": 45.9765625,
          "velocity": 0.7716535433070866,
          "duration": 0.0234375
        },
        {
          "name": "G4",
          "midi": 67,
          "time": 46.03125,
          "velocity": 0.8031496062992126,
          "duration": 0.0078125
        },
        {
          "name": "C#5",
          "midi": 73,
          "time": 46.03125,
          "velocity": 0.3858267716535433,
          "duration": 0.0703125
        },
        {
          "name": "A4",
          "midi": 69,
          "time": 46.0703125,
          "velocity": 0.8582677165354331,
          "duration": 0.0390625
        },
        {
          "name": "B4",
          "midi": 71,
          "time": 46.125,
          "velocity": 0.2992125984251969,
          "duration": 0.078125
        },
        {
          "name": "C#5",
          "midi": 73,
          "time": 46.2109375,
          "velocity": 0.4015748031496063,
          "duration": 0.0859375
        },
        {
          "name": "B4",
          "midi": 71,
          "time": 46.3125,
          "velocity": 0.3937007874015748,
          "duration": 0.078125
        },
        {
          "name": "C#5",
          "midi": 73,
          "time": 46.40625,
          "velocity": 0.3937007874015748,
          "duration": 0.0703125
        },
        {
          "name": "D5",
          "midi": 74,
          "time": 46.5,
          "velocity": 0.31496062992125984,
          "duration": 0.0703125
        },
        {
          "name": "E5",
          "midi": 76,
          "time": 46.59375,
          "velocity": 0.4015748031496063,
          "duration": 0.078125
        },
        {
          "name": "F#5",
          "midi": 78,
          "time": 46.6796875,
          "velocity": 0.44881889763779526,
          "duration": 0.0703125
        },
        {
          "name": "G5",
          "midi": 79,
          "time": 46.78125,
          "velocity": 0.5433070866141733,
          "duration": 0.0625
        },
        {
          "name": "F#5",
          "midi": 78,
          "time": 46.8671875,
          "velocity": 0.6220472440944882,
          "duration": 0.0859375
        },
        {
          "name": "E5",
          "midi": 76,
          "time": 46.9609375,
          "velocity": 0.6299212598425197,
          "duration": 0.0859375
        },
        {
          "name": "D5",
          "midi": 74,
          "time": 47.0546875,
          "velocity": 0.7007874015748031,
          "duration": 0.0703125
        },
        {
          "name": "F#4",
          "midi": 66,
          "time": 47.0625,
          "velocity": 0.8031496062992126,
          "duration": 0.0234375
        },
        {
          "name": "E4",
          "midi": 64,
          "time": 47.1015625,
          "velocity": 0.7952755905511811,
          "duration": 0.03125
        },
        {
          "name": "D4",
          "midi": 62,
          "time": 47.1484375,
          "velocity": 0.7637795275590551,
          "duration": 0.0234375
        },
        {
          "name": "C#5",
          "midi": 73,
          "time": 47.15625,
          "velocity": 0.7007874015748031,
          "duration": 0.0859375
        },
        {
          "name": "C#4",
          "midi": 61,
          "time": 47.203125,
          "velocity": 0.8031496062992126,
          "duration": 0.015625
        },
        {
          "name": "B4",
          "midi": 71,
          "time": 47.2578125,
          "velocity": 0.7007874015748031,
          "duration": 0.046875
        },
        {
          "name": "C5",
          "midi": 72,
          "time": 47.34375,
          "velocity": 0.6062992125984252,
          "duration": 0.0625
        },
        {
          "name": "B4",
          "midi": 71,
          "time": 47.4296875,
          "velocity": 0.6141732283464567,
          "duration": 0.0546875
        },
        {
          "name": "C#5",
          "midi": 73,
          "time": 47.5234375,
          "velocity": 0.5433070866141733,
          "duration": 0.078125
        },
        {
          "name": "B4",
          "midi": 71,
          "time": 47.6171875,
          "velocity": 0.47244094488188976,
          "duration": 0.0703125
        },
        {
          "name": "E4",
          "midi": 64,
          "time": 47.625,
          "velocity": 0.7637795275590551,
          "duration": 0.0234375
        },
        {
          "name": "F#4",
          "midi": 66,
          "time": 47.6640625,
          "velocity": 0.8031496062992126,
          "duration": 0.015625
        },
        {
          "name": "G4",
          "midi": 67,
          "time": 47.71875,
          "velocity": 0.7874015748031497,
          "duration": 0.03125
        },
        {
          "name": "C5",
          "midi": 72,
          "time": 47.71875,
          "velocity": 0.3858267716535433,
          "duration": 0.0703125
        },
        {
          "name": "A4",
          "midi": 69,
          "time": 47.7578125,
          "velocity": 0.8582677165354331,
          "duration": 0.015625
        },
        {
          "name": "B4",
          "midi": 71,
          "time": 47.8203125,
          "velocity": 0.3228346456692913,
          "duration": 0.078125
        },
        {
          "name": "C#5",
          "midi": 73,
          "time": 47.8984375,
          "velocity": 0.3700787401574803,
          "duration": 0.078125
        },
        {
          "name": "B4",
          "midi": 71,
          "time": 47.9921875,
          "velocity": 0.4015748031496063,
          "duration": 0.078125
        },
        {
          "name": "C#5",
          "midi": 73,
          "time": 48.09375,
          "velocity": 0.4015748031496063,
          "duration": 0.078125
        },
        {
          "name": "D5",
          "midi": 74,
          "time": 48.1875,
          "velocity": 0.29133858267716534,
          "duration": 0.0703125
        },
        {
          "name": "E5",
          "midi": 76,
          "time": 48.2734375,
          "velocity": 0.3700787401574803,
          "duration": 0.078125
        },
        {
          "name": "F#5",
          "midi": 78,
          "time": 48.375,
          "velocity": 0.47244094488188976,
          "duration": 0.0703125
        },
        {
          "name": "G5",
          "midi": 79,
          "time": 48.4609375,
          "velocity": 0.5433070866141733,
          "duration": 0.078125
        },
        {
          "name": "F#5",
          "midi": 78,
          "time": 48.5625,
          "velocity": 0.6456692913385826,
          "duration": 0.078125
        },
        {
          "name": "E5",
          "midi": 76,
          "time": 48.65625,
          "velocity": 0.6456692913385826,
          "duration": 0.0546875
        },
        {
          "name": "D5",
          "midi": 74,
          "time": 48.7421875,
          "velocity": 0.7007874015748031,
          "duration": 0.078125
        },
        {
          "name": "C#5",
          "midi": 73,
          "time": 48.84375,
          "velocity": 0.6929133858267716,
          "duration": 0.0625
        },
        {
          "name": "B4",
          "midi": 71,
          "time": 48.9375,
          "velocity": 0.7244094488188977,
          "duration": 0.0546875
        },
        {
          "name": "C5",
          "midi": 72,
          "time": 49.03125,
          "velocity": 0.6299212598425197,
          "duration": 0.0859375
        },
        {
          "name": "B4",
          "midi": 71,
          "time": 49.1171875,
          "velocity": 0.6141732283464567,
          "duration": 0.078125
        },
        {
          "name": "C5",
          "midi": 72,
          "time": 49.2109375,
          "velocity": 0.5511811023622047,
          "duration": 0.0703125
        },
        {
          "name": "B4",
          "midi": 71,
          "time": 49.3046875,
          "velocity": 0.7795275590551181,
          "duration": 0.0234375
        },
        {
          "name": "C#5",
          "midi": 73,
          "time": 49.3046875,
          "velocity": 0.44881889763779526,
          "duration": 0.0859375
        },
        {
          "name": "D#5",
          "midi": 75,
          "time": 49.40625,
          "velocity": 0.4015748031496063,
          "duration": 0.0859375
        },
        {
          "name": "E5",
          "midi": 76,
          "time": 49.5078125,
          "velocity": 0.3228346456692913,
          "duration": 0.0625
        },
        {
          "name": "C5",
          "midi": 72,
          "time": 49.59375,
          "velocity": 0.4015748031496063,
          "duration": 0.078125
        },
        {
          "name": "D5",
          "midi": 74,
          "time": 49.6796875,
          "velocity": 0.3700787401574803,
          "duration": 0.078125
        },
        {
          "name": "E5",
          "midi": 76,
          "time": 49.7734375,
          "velocity": 0.4094488188976378,
          "duration": 0.0625
        },
        {
          "name": "F#5",
          "midi": 78,
          "time": 49.875,
          "velocity": 0.3228346456692913,
          "duration": 0.078125
        },
        {
          "name": "G5",
          "midi": 79,
          "time": 49.96875,
          "velocity": 0.3779527559055118,
          "duration": 0.0703125
        },
        {
          "name": "F#5",
          "midi": 78,
          "time": 50.0546875,
          "velocity": 0.48031496062992124,
          "duration": 0.078125
        },
        {
          "name": "G5",
          "midi": 79,
          "time": 50.1484375,
          "velocity": 0.5433070866141733,
          "duration": 0.0625
        },
        {
          "name": "F#5",
          "midi": 78,
          "time": 50.25,
          "velocity": 0.6377952755905512,
          "duration": 0.0703125
        },
        {
          "name": "G5",
          "midi": 79,
          "time": 50.34375,
          "velocity": 0.6299212598425197,
          "duration": 0.0703125
        },
        {
          "name": "C4",
          "midi": 60,
          "time": 50.4375,
          "velocity": 0.7244094488188977,
          "duration": 0.046875
        },
        {
          "name": "F#5",
          "midi": 78,
          "time": 50.4453125,
          "velocity": 0.7244094488188977,
          "duration": 0.0546875
        },
        {
          "name": "D4",
          "midi": 62,
          "time": 50.5,
          "velocity": 0.7165354330708661,
          "duration": 0.03125
        },
        {
          "name": "G5",
          "midi": 79,
          "time": 50.53125,
          "velocity": 0.7086614173228346,
          "duration": 0.0703125
        },
        {
          "name": "E4",
          "midi": 64,
          "time": 50.5546875,
          "velocity": 0.6850393700787402,
          "duration": 0.03125
        },
        {
          "name": "F#5",
          "midi": 78,
          "time": 50.625,
          "velocity": 0.6929133858267716,
          "duration": 0.078125
        },
        {
          "name": "G5",
          "midi": 79,
          "time": 50.71875,
          "velocity": 0.6377952755905512,
          "duration": 0.078125
        },
        {
          "name": "F#5",
          "midi": 78,
          "time": 50.8046875,
          "velocity": 0.6141732283464567,
          "duration": 0.078125
        },
        {
          "name": "G5",
          "midi": 79,
          "time": 50.90625,
          "velocity": 0.5275590551181102,
          "duration": 0.0625
        },
        {
          "name": "F#5",
          "midi": 78,
          "time": 51,
          "velocity": 0.4645669291338583,
          "duration": 0.0625
        },
        {
          "name": "B4",
          "midi": 71,
          "time": 51.0078125,
          "velocity": 0.8031496062992126,
          "duration": 0.0078125
        },
        {
          "name": "C#4",
          "midi": 61,
          "time": 51.046875,
          "velocity": 0.7952755905511811,
          "duration": 0.0234375
        },
        {
          "name": "D5",
          "midi": 74,
          "time": 51.1015625,
          "velocity": 0.7952755905511811,
          "duration": 0.0234375
        },
        {
          "name": "G5",
          "midi": 79,
          "time": 51.1015625,
          "velocity": 0.3937007874015748,
          "duration": 0.078125
        },
        {
          "name": "E5",
          "midi": 76,
          "time": 51.1328125,
          "velocity": 0.84251968503937,
          "duration": 0.015625
        },
        {
          "name": "F#5",
          "midi": 78,
          "time": 51.1875,
          "velocity": 0.31496062992125984,
          "duration": 0.0703125
        },
        {
          "name": "G5",
          "midi": 79,
          "time": 51.28125,
          "velocity": 0.3937007874015748,
          "duration": 0.0703125
        },
        {
          "name": "F#5",
          "midi": 78,
          "time": 51.375,
          "velocity": 0.3937007874015748,
          "duration": 0.0703125
        },
        {
          "name": "E5",
          "midi": 76,
          "time": 51.4609375,
          "velocity": 0.3858267716535433,
          "duration": 0.0703125
        },
        {
          "name": "D5",
          "midi": 74,
          "time": 51.5625,
          "velocity": 0.2992125984251969,
          "duration": 0.0625
        },
        {
          "name": "C#5",
          "midi": 73,
          "time": 51.6484375,
          "velocity": 0.3700787401574803,
          "duration": 0.078125
        },
        {
          "name": "B4",
          "midi": 71,
          "time": 51.7578125,
          "velocity": 0.4881889763779528,
          "duration": 0.0546875
        },
        {
          "name": "C#5",
          "midi": 73,
          "time": 51.84375,
          "velocity": 0.5669291338582677,
          "duration": 0.0546875
        },
        {
          "name": "D5",
          "midi": 74,
          "time": 51.9375,
          "velocity": 0.6456692913385826,
          "duration": 0.078125
        },
        {
          "name": "E5",
          "midi": 76,
          "time": 52.03125,
          "velocity": 0.6220472440944882,
          "duration": 0.0703125
        },
        {
          "name": "F#5",
          "midi": 78,
          "time": 52.125,
          "velocity": 0.7007874015748031,
          "duration": 0.0703125
        },
        {
          "name": "G5",
          "midi": 79,
          "time": 52.2109375,
          "velocity": 0.7244094488188977,
          "duration": 0.0625
        },
        {
          "name": "F#5",
          "midi": 78,
          "time": 52.3046875,
          "velocity": 0.7007874015748031,
          "duration": 0.0625
        },
        {
          "name": "G5",
          "midi": 79,
          "time": 52.40625,
          "velocity": 0.6377952755905512,
          "duration": 0.0625
        },
        {
          "name": "F#5",
          "midi": 78,
          "time": 52.4921875,
          "velocity": 0.6141732283464567,
          "duration": 0.0625
        },
        {
          "name": "G5",
          "midi": 79,
          "time": 52.5859375,
          "velocity": 0.5275590551181102,
          "duration": 0.078125
        },
        {
          "name": "F#5",
          "midi": 78,
          "time": 52.6796875,
          "velocity": 0.4645669291338583,
          "duration": 0.078125
        },
        {
          "name": "B4",
          "midi": 71,
          "time": 52.6875,
          "velocity": 0.7874015748031497,
          "duration": 0.03125
        },
        {
          "name": "C#4",
          "midi": 61,
          "time": 52.734375,
          "velocity": 0.7952755905511811,
          "duration": 0.015625
        },
        {
          "name": "D5",
          "midi": 74,
          "time": 52.78125,
          "velocity": 0.7716535433070866,
          "duration": 0.0234375
        },
        {
          "name": "G5",
          "midi": 79,
          "time": 52.78125,
          "velocity": 0.4015748031496063,
          "duration": 0.078125
        },
        {
          "name": "E5",
          "midi": 76,
          "time": 52.8203125,
          "velocity": 0.8503937007874016,
          "duration": 0.03125
        },
        {
          "name": "F#5",
          "midi": 78,
          "time": 52.8828125,
          "velocity": 0.29133858267716534,
          "duration": 0.0703125
        },
        {
          "name": "G5",
          "midi": 79,
          "time": 52.9609375,
          "velocity": 0.3700787401574803,
          "duration": 0.0625
        },
        {
          "name": "F#5",
          "midi": 78,
          "time": 53.0546875,
          "velocity": 0.3700787401574803,
          "duration": 0.0703125
        },
        {
          "name": "E5",
          "midi": 76,
          "time": 53.15625,
          "velocity": 0.4094488188976378,
          "duration": 0.0703125
        },
        {
          "name": "D5",
          "midi": 74,
          "time": 53.25,
          "velocity": 0.30708661417322836,
          "duration": 0.0625
        },
        {
          "name": "C#5",
          "midi": 73,
          "time": 53.34375,
          "velocity": 0.3700787401574803,
          "duration": 0.0859375
        },
        {
          "name": "B4",
          "midi": 71,
          "time": 53.4453125,
          "velocity": 0.4566929133858268,
          "duration": 0.0546875
        },
        {
          "name": "C#5",
          "midi": 73,
          "time": 53.5234375,
          "velocity": 0.5511811023622047,
          "duration": 0.0859375
        },
        {
          "name": "D5",
          "midi": 74,
          "time": 53.6171875,
          "velocity": 0.6456692913385826,
          "duration": 0.0703125
        },
        {
          "name": "E5",
          "midi": 76,
          "time": 53.71875,
          "velocity": 0.6220472440944882,
          "duration": 0.078125
        },
        {
          "name": "F#5",
          "midi": 78,
          "time": 53.8046875,
          "velocity": 0.7165354330708661,
          "duration": 0.0625
        },
        {
          "name": "F#4",
          "midi": 66,
          "time": 53.8125,
          "velocity": 0.7165354330708661,
          "duration": 0.0234375
        },
        {
          "name": "E4",
          "midi": 64,
          "time": 53.859375,
          "velocity": 0.6850393700787402,
          "duration": 0.0078125
        },
        {
          "name": "D4",
          "midi": 62,
          "time": 53.8984375,
          "velocity": 0.6850393700787402,
          "duration": 0.0234375
        },
        {
          "name": "D5",
          "midi": 74,
          "time": 53.90625,
          "velocity": 0.7086614173228346,
          "duration": 0.078125
        },
        {
          "name": "C#4",
          "midi": 61,
          "time": 53.953125,
          "velocity": 0.7007874015748031,
          "duration": 0.015625
        },
        {
          "name": "B4",
          "midi": 71,
          "time": 54,
          "velocity": 0.7007874015748031,
          "duration": 0.0625
        },
        {
          "name": "C5",
          "midi": 72,
          "time": 54.0859375,
          "velocity": 0.6299212598425197,
          "duration": 0.0859375
        },
        {
          "name": "B4",
          "midi": 71,
          "time": 54.1796875,
          "velocity": 0.6062992125984252,
          "duration": 0.078125
        },
        {
          "name": "C5",
          "midi": 72,
          "time": 54.28125,
          "velocity": 0.5590551181102362,
          "duration": 0.0703125
        },
        {
          "name": "E4",
          "midi": 64,
          "time": 54.375,
          "velocity": 0.7795275590551181,
          "duration": 0.03125
        },
        {
          "name": "B4",
          "midi": 71,
          "time": 54.3828125,
          "velocity": 0.44881889763779526,
          "duration": 0.078125
        },
        {
          "name": "F#4",
          "midi": 66,
          "time": 54.4140625,
          "velocity": 0.8031496062992126,
          "duration": 0.0390625
        },
        {
          "name": "C5",
          "midi": 72,
          "time": 54.4609375,
          "velocity": 0.3937007874015748,
          "duration": 0.0703125
        },
        {
          "name": "G4",
          "midi": 67,
          "time": 54.46875,
          "velocity": 0.7952755905511811,
          "duration": 0.0078125
        },
        {
          "name": "A4",
          "midi": 69,
          "time": 54.515625,
          "velocity": 0.84251968503937,
          "duration": 0.0234375
        },
        {
          "name": "B4",
          "midi": 71,
          "time": 54.5625,
          "velocity": 0.30708661417322836,
          "duration": 0.0625
        },
        {
          "name": "C#5",
          "midi": 73,
          "time": 54.65625,
          "velocity": 0.4015748031496063,
          "duration": 0.0625
        },
        {
          "name": "B4",
          "midi": 71,
          "time": 54.75,
          "velocity": 0.3937007874015748,
          "duration": 0.0625
        },
        {
          "name": "C#5",
          "midi": 73,
          "time": 54.84375,
          "velocity": 0.3858267716535433,
          "duration": 0.0625
        },
        {
          "name": "D5",
          "midi": 74,
          "time": 54.9296875,
          "velocity": 0.31496062992125984,
          "duration": 0.078125
        },
        {
          "name": "E5",
          "midi": 76,
          "time": 55.03125,
          "velocity": 0.4015748031496063,
          "duration": 0.0625
        },
        {
          "name": "F#5",
          "midi": 78,
          "time": 55.1328125,
          "velocity": 0.4566929133858268,
          "duration": 0.0703125
        },
        {
          "name": "G5",
          "midi": 79,
          "time": 55.2109375,
          "velocity": 0.5354330708661418,
          "duration": 0.0546875
        },
        {
          "name": "F#5",
          "midi": 78,
          "time": 55.3125,
          "velocity": 0.6062992125984252,
          "duration": 0.0859375
        },
        {
          "name": "E5",
          "midi": 76,
          "time": 55.40625,
          "velocity": 0.6220472440944882,
          "duration": 0.0703125
        },
        {
          "name": "D5",
          "midi": 74,
          "time": 55.5,
          "velocity": 0.7244094488188977,
          "duration": 0.0625
        },
        {
          "name": "C#5",
          "midi": 73,
          "time": 55.5859375,
          "velocity": 0.7244094488188977,
          "duration": 0.0703125
        },
        {
          "name": "B4",
          "midi": 71,
          "time": 55.6796875,
          "velocity": 0.7086614173228346,
          "duration": 0.0703125
        },
        {
          "name": "C5",
          "midi": 72,
          "time": 55.7734375,
          "velocity": 0.6299212598425197,
          "duration": 0.0625
        },
        {
          "name": "B4",
          "midi": 71,
          "time": 55.8671875,
          "velocity": 0.6220472440944882,
          "duration": 0.0703125
        },
        {
          "name": "C5",
          "midi": 72,
          "time": 55.96875,
          "velocity": 0.5275590551181102,
          "duration": 0.078125
        },
        {
          "name": "B4",
          "midi": 71,
          "time": 56.0546875,
          "velocity": 0.48031496062992124,
          "duration": 0.078125
        },
        {
          "name": "E4",
          "midi": 64,
          "time": 56.0625,
          "velocity": 0.7795275590551181,
          "duration": 0.0390625
        },
        {
          "name": "F#4",
          "midi": 66,
          "time": 56.1015625,
          "velocity": 0.7637795275590551,
          "duration": 0.03125
        },
        {
          "name": "G4",
          "midi": 67,
          "time": 56.1484375,
          "velocity": 0.7637795275590551,
          "duration": 0.015625
        },
        {
          "name": "C5",
          "midi": 72,
          "time": 56.15625,
          "velocity": 0.3858267716535433,
          "duration": 0.078125
        },
        {
          "name": "A4",
          "midi": 69,
          "time": 56.203125,
          "velocity": 0.8582677165354331,
          "duration": 0.015625
        },
        {
          "name": "B4",
          "midi": 71,
          "time": 56.2421875,
          "velocity": 0.33070866141732286,
          "duration": 0.0546875
        },
        {
          "name": "C#5",
          "midi": 73,
          "time": 56.3359375,
          "velocity": 0.3779527559055118,
          "duration": 0.078125
        },
        {
          "name": "B4",
          "midi": 71,
          "time": 56.4296875,
          "velocity": 0.3858267716535433,
          "duration": 0.078125
        },
        {
          "name": "C#5",
          "midi": 73,
          "time": 56.5234375,
          "velocity": 0.3779527559055118,
          "duration": 0.0703125
        },
        {
          "name": "D5",
          "midi": 74,
          "time": 56.625,
          "velocity": 0.31496062992125984,
          "duration": 0.0703125
        },
        {
          "name": "E5",
          "midi": 76,
          "time": 56.7109375,
          "velocity": 0.4015748031496063,
          "duration": 0.0625
        },
        {
          "name": "F#5",
          "midi": 78,
          "time": 56.8046875,
          "velocity": 0.48031496062992124,
          "duration": 0.078125
        },
        {
          "name": "G5",
          "midi": 79,
          "time": 56.8984375,
          "velocity": 0.5433070866141733,
          "duration": 0.0703125
        },
        {
          "name": "F#5",
          "midi": 78,
          "time": 57,
          "velocity": 0.6377952755905512,
          "duration": 0.078125
        },
        {
          "name": "E5",
          "midi": 76,
          "time": 57.0859375,
          "velocity": 0.6141732283464567,
          "duration": 0.0703125
        },
        {
          "name": "F#4",
          "midi": 66,
          "time": 57.1796875,
          "velocity": 0.7165354330708661,
          "duration": 0.0390625
        },
        {
          "name": "D5",
          "midi": 74,
          "time": 57.1796875,
          "velocity": 0.6850393700787402,
          "duration": 0.0625
        },
        {
          "name": "E4",
          "midi": 64,
          "time": 57.2265625,
          "velocity": 0.7244094488188977,
          "duration": 0.03125
        },
        {
          "name": "D4",
          "midi": 62,
          "time": 57.28125,
          "velocity": 0.7244094488188977,
          "duration": 0.015625
        },
        {
          "name": "C#5",
          "midi": 73,
          "time": 57.28125,
          "velocity": 0.7244094488188977,
          "duration": 0.078125
        },
        {
          "name": "C#4",
          "midi": 61,
          "time": 57.3203125,
          "velocity": 0.7165354330708661,
          "duration": 0.015625
        },
        {
          "name": "B4",
          "midi": 71,
          "time": 57.3671875,
          "velocity": 0.7086614173228346,
          "duration": 0.0625
        },
        {
          "name": "C5",
          "midi": 72,
          "time": 57.46875,
          "velocity": 0.6220472440944882,
          "duration": 0.078125
        },
        {
          "name": "B4",
          "midi": 71,
          "time": 57.5625,
          "velocity": 0.6062992125984252,
          "duration": 0.078125
        },
        {
          "name": "C5",
          "midi": 72,
          "time": 57.6484375,
          "velocity": 0.5511811023622047,
          "duration": 0.0625
        },
        {
          "name": "C#5",
          "midi": 73,
          "time": 57.7421875,
          "velocity": 0.4645669291338583,
          "duration": 0.1015625
        },
        {
          "name": "B4",
          "midi": 71,
          "time": 57.75,
          "velocity": 0.7952755905511811,
          "duration": 0.03125
        },
        {
          "name": "D5",
          "midi": 74,
          "time": 57.84375,
          "velocity": 0.3779527559055118,
          "duration": 0.078125
        },
        {
          "name": "E5",
          "midi": 76,
          "time": 57.9453125,
          "velocity": 0.30708661417322836,
          "duration": 0.0703125
        },
        {
          "name": "C#5",
          "midi": 73,
          "time": 58.03125,
          "velocity": 0.3937007874015748,
          "duration": 0.078125
        },
        {
          "name": "D5",
          "midi": 74,
          "time": 58.1171875,
          "velocity": 0.3937007874015748,
          "duration": 0.078125
        },
        {
          "name": "E5",
          "midi": 76,
          "time": 58.2109375,
          "velocity": 0.3937007874015748,
          "duration": 0.0625
        },
        {
          "name": "F#5",
          "midi": 78,
          "time": 58.3125,
          "velocity": 0.33070866141732286,
          "duration": 0.0546875
        },
        {
          "name": "G5",
          "midi": 79,
          "time": 58.40625,
          "velocity": 0.3700787401574803,
          "duration": 0.0703125
        },
        {
          "name": "F#5",
          "midi": 78,
          "time": 58.5078125,
          "velocity": 0.4566929133858268,
          "duration": 0.0625
        },
        {
          "name": "G5",
          "midi": 79,
          "time": 58.5859375,
          "velocity": 0.5354330708661418,
          "duration": 0.0859375
        },
        {
          "name": "F#5",
          "midi": 78,
          "time": 58.6796875,
          "velocity": 0.6220472440944882,
          "duration": 0.0546875
        },
        {
          "name": "G5",
          "midi": 79,
          "time": 58.78125,
          "velocity": 0.6141732283464567,
          "duration": 0.078125
        },
        {
          "name": "F#5",
          "midi": 78,
          "time": 58.875,
          "velocity": 0.7086614173228346,
          "duration": 0.0625
        },
        {
          "name": "G5",
          "midi": 79,
          "time": 58.96875,
          "velocity": 0.7007874015748031,
          "duration": 0.078125
        },
        {
          "name": "F#5",
          "midi": 78,
          "time": 59.0625,
          "velocity": 0.7007874015748031,
          "duration": 0.0703125
        },
        {
          "name": "G#5",
          "midi": 80,
          "time": 59.1484375,
          "velocity": 0.6220472440944882,
          "duration": 0.0703125
        },
        {
          "name": "F#5",
          "midi": 78,
          "time": 59.2421875,
          "velocity": 0.6377952755905512,
          "duration": 0.078125
        },
        {
          "name": "G#5",
          "midi": 80,
          "time": 59.3359375,
          "velocity": 0.5669291338582677,
          "duration": 0.0625
        },
        {
          "name": "B3",
          "midi": 59,
          "time": 59.4296875,
          "velocity": 0.7716535433070866,
          "duration": 0.0390625
        },
        {
          "name": "F#5",
          "midi": 78,
          "time": 59.4296875,
          "velocity": 0.4566929133858268,
          "duration": 0.0625
        },
        {
          "name": "C#4",
          "midi": 61,
          "time": 59.484375,
          "velocity": 0.7637795275590551,
          "duration": 0.0078125
        },
        {
          "name": "D4",
          "midi": 62,
          "time": 59.5234375,
          "velocity": 0.7874015748031497,
          "duration": 0.015625
        },
        {
          "name": "G#5",
          "midi": 80,
          "time": 59.5234375,
          "velocity": 0.3779527559055118,
          "duration": 0.0859375
        },
        {
          "name": "E4",
          "midi": 64,
          "time": 59.5703125,
          "velocity": 0.84251968503937,
          "duration": 0.03125
        },
        {
          "name": "F#5",
          "midi": 78,
          "time": 59.625,
          "velocity": 0.3228346456692913,
          "duration": 0.078125
        },
        {
          "name": "G#5",
          "midi": 80,
          "time": 59.71875,
          "velocity": 0.3700787401574803,
          "duration": 0.0625
        },
        {
          "name": "F#5",
          "midi": 78,
          "time": 59.8125,
          "velocity": 0.3700787401574803,
          "duration": 0.078125
        },
        {
          "name": "E5",
          "midi": 76,
          "time": 59.90625,
          "velocity": 0.3858267716535433,
          "duration": 0.0703125
        },
        {
          "name": "D5",
          "midi": 74,
          "time": 60,
          "velocity": 0.33070866141732286,
          "duration": 0.0625
        },
        {
          "name": "C#5",
          "midi": 73,
          "time": 60.09375,
          "velocity": 0.4094488188976378,
          "duration": 0.078125
        },
        {
          "name": "B4",
          "midi": 71,
          "time": 60.1875,
          "velocity": 0.4881889763779528,
          "duration": 0.0546875
        },
        {
          "name": "C#5",
          "midi": 73,
          "time": 60.2734375,
          "velocity": 0.5590551181102362,
          "duration": 0.078125
        },
        {
          "name": "D5",
          "midi": 74,
          "time": 60.3671875,
          "velocity": 0.6456692913385826,
          "duration": 0.0703125
        },
        {
          "name": "E5",
          "midi": 76,
          "time": 60.46875,
          "velocity": 0.6299212598425197,
          "duration": 0.0625
        },
        {
          "name": "B3",
          "midi": 59,
          "time": 60.5546875,
          "velocity": 0.6850393700787402,
          "duration": 0.0234375
        },
        {
          "name": "F#5",
          "midi": 78,
          "time": 60.5625,
          "velocity": 0.7165354330708661,
          "duration": 0.078125
        },
        {
          "name": "C#4",
          "midi": 61,
          "time": 60.609375,
          "velocity": 0.6929133858267716,
          "duration": 0.015625
        },
        {
          "name": "D4",
          "midi": 62,
          "time": 60.65625,
          "velocity": 0.7165354330708661,
          "duration": 0.0078125
        },
        {
          "name": "G#5",
          "midi": 80,
          "time": 60.65625,
          "velocity": 0.7007874015748031,
          "duration": 0.0625
        },
        {
          "name": "E4",
          "midi": 64,
          "time": 60.6953125,
          "velocity": 0.7086614173228346,
          "duration": 0.0234375
        },
        {
          "name": "F#5",
          "midi": 78,
          "time": 60.7421875,
          "velocity": 0.7244094488188977,
          "duration": 0.0625
        },
        {
          "name": "G#5",
          "midi": 80,
          "time": 60.84375,
          "velocity": 0.6141732283464567,
          "duration": 0.0625
        },
        {
          "name": "F#5",
          "midi": 78,
          "time": 60.9375,
          "velocity": 0.6299212598425197,
          "duration": 0.0703125
        },
        {
          "name": "G#5",
          "midi": 80,
          "time": 61.0234375,
          "velocity": 0.5590551181102362,
          "duration": 0.0703125
        },
        {
          "name": "F#5",
          "midi": 78,
          "time": 61.1171875,
          "velocity": 0.4566929133858268,
          "duration": 0.0703125
        },
        {
          "name": "B3",
          "midi": 59,
          "time": 61.125,
          "velocity": 0.7637795275590551,
          "duration": 0.03125
        },
        {
          "name": "C#4",
          "midi": 61,
          "time": 61.1640625,
          "velocity": 0.7795275590551181,
          "duration": 0.0234375
        },
        {
          "name": "D4",
          "midi": 62,
          "time": 61.2109375,
          "velocity": 0.7637795275590551,
          "duration": 0.0234375
        },
        {
          "name": "G#5",
          "midi": 80,
          "time": 61.2109375,
          "velocity": 0.3779527559055118,
          "duration": 0.078125
        },
        {
          "name": "E4",
          "midi": 64,
          "time": 61.265625,
          "velocity": 0.8661417322834646,
          "duration": 0.0390625
        },
        {
          "name": "F#5",
          "midi": 78,
          "time": 61.3046875,
          "velocity": 0.33070866141732286,
          "duration": 0.078125
        },
        {
          "name": "G#5",
          "midi": 80,
          "time": 61.3984375,
          "velocity": 0.3779527559055118,
          "duration": 0.0703125
        },
        {
          "name": "F#5",
          "midi": 78,
          "time": 61.5,
          "velocity": 0.3937007874015748,
          "duration": 0.0546875
        },
        {
          "name": "E5",
          "midi": 76,
          "time": 61.5859375,
          "velocity": 0.3779527559055118,
          "duration": 0.0546875
        },
        {
          "name": "D5",
          "midi": 74,
          "time": 61.6796875,
          "velocity": 0.33070866141732286,
          "duration": 0.0703125
        },
        {
          "name": "C#5",
          "midi": 73,
          "time": 61.78125,
          "velocity": 0.3779527559055118,
          "duration": 0.078125
        },
        {
          "name": "B4",
          "midi": 71,
          "time": 61.8671875,
          "velocity": 0.4566929133858268,
          "duration": 0.0546875
        },
        {
          "name": "C#5",
          "midi": 73,
          "time": 61.96875,
          "velocity": 0.5590551181102362,
          "duration": 0.0703125
        },
        {
          "name": "D5",
          "midi": 74,
          "time": 62.0625,
          "velocity": 0.6377952755905512,
          "duration": 0.078125
        },
        {
          "name": "E5",
          "midi": 76,
          "time": 62.15625,
          "velocity": 0.6141732283464567,
          "duration": 0.078125
        },
        {
          "name": "F#5",
          "midi": 78,
          "time": 62.25,
          "velocity": 0.7007874015748031,
          "duration": 0.0703125
        },
        {
          "name": "G5",
          "midi": 79,
          "time": 62.3359375,
          "velocity": 0.7007874015748031,
          "duration": 0.0703125
        },
        {
          "name": "F#5",
          "midi": 78,
          "time": 62.4296875,
          "velocity": 0.7086614173228346,
          "duration": 0.0703125
        },
        {
          "name": "G5",
          "midi": 79,
          "time": 62.5234375,
          "velocity": 0.6377952755905512,
          "duration": 0.0703125
        },
        {
          "name": "F#5",
          "midi": 78,
          "time": 62.625,
          "velocity": 0.6062992125984252,
          "duration": 0.0625
        },
        {
          "name": "G5",
          "midi": 79,
          "time": 62.7109375,
          "velocity": 0.5669291338582677,
          "duration": 0.0859375
        },
        {
          "name": "B3",
          "midi": 59,
          "time": 62.8125,
          "velocity": 0.7952755905511811,
          "duration": 0.03125
        },
        {
          "name": "F#5",
          "midi": 78,
          "time": 62.8125,
          "velocity": 0.44881889763779526,
          "duration": 0.0703125
        },
        {
          "name": "C#4",
          "midi": 61,
          "time": 62.859375,
          "velocity": 0.7952755905511811,
          "duration": 0.0234375
        },
        {
          "name": "D4",
          "midi": 62,
          "time": 62.8984375,
          "velocity": 0.7637795275590551,
          "duration": 0.0234375
        },
        {
          "name": "G5",
          "midi": 79,
          "time": 62.90625,
          "velocity": 0.4094488188976378,
          "duration": 0.078125
        },
        {
          "name": "E4",
          "midi": 64,
          "time": 62.953125,
          "velocity": 0.8818897637795275,
          "duration": 0.015625
        },
        {
          "name": "F#5",
          "midi": 78,
          "time": 63,
          "velocity": 0.33070866141732286,
          "duration": 0.0546875
        },
        {
          "name": "G5",
          "midi": 79,
          "time": 63.0859375,
          "velocity": 0.3700787401574803,
          "duration": 0.0859375
        },
        {
          "name": "F#5",
          "midi": 78,
          "time": 63.1796875,
          "velocity": 0.3700787401574803,
          "duration": 0.0703125
        },
        {
          "name": "G5",
          "midi": 79,
          "time": 63.2734375,
          "velocity": 0.3937007874015748,
          "duration": 0.0625
        },
        {
          "name": "F#5",
          "midi": 78,
          "time": 63.375,
          "velocity": 0.33070866141732286,
          "duration": 0.078125
        },
        {
          "name": "G5",
          "midi": 79,
          "time": 63.4609375,
          "velocity": 0.3700787401574803,
          "duration": 0.078125
        },
        {
          "name": "F#5",
          "midi": 78,
          "time": 63.5703125,
          "velocity": 0.47244094488188976,
          "duration": 0.0703125
        },
        {
          "name": "G5",
          "midi": 79,
          "time": 63.65625,
          "velocity": 0.5433070866141733,
          "duration": 0.078125
        },
        {
          "name": "F#5",
          "midi": 78,
          "time": 63.75,
          "velocity": 0.6062992125984252,
          "duration": 0.0859375
        },
        {
          "name": "G5",
          "midi": 79,
          "time": 63.8359375,
          "velocity": 0.6377952755905512,
          "duration": 0.0703125
        },
        {
          "name": "B3",
          "midi": 59,
          "time": 63.9296875,
          "velocity": 0.6929133858267716,
          "duration": 0.03125
        },
        {
          "name": "F#5",
          "midi": 78,
          "time": 63.9375,
          "velocity": 0.6850393700787402,
          "duration": 0.0703125
        },
        {
          "name": "C#4",
          "midi": 61,
          "time": 63.984375,
          "velocity": 0.7086614173228346,
          "duration": 0.0234375
        },
        {
          "name": "D4",
          "midi": 62,
          "time": 64.03125,
          "velocity": 0.7165354330708661,
          "duration": 0.0234375
        },
        {
          "name": "G5",
          "midi": 79,
          "time": 64.03125,
          "velocity": 0.7165354330708661,
          "duration": 0.0859375
        },
        {
          "name": "E4",
          "midi": 64,
          "time": 64.078125,
          "velocity": 0.6929133858267716,
          "duration": 0.0078125
        },
        {
          "name": "F#5",
          "midi": 78,
          "time": 64.1171875,
          "velocity": 0.7086614173228346,
          "duration": 0.0625
        },
        {
          "name": "G5",
          "midi": 79,
          "time": 64.21875,
          "velocity": 0.6299212598425197,
          "duration": 0.0703125
        },
        {
          "name": "F#5",
          "midi": 78,
          "time": 64.3125,
          "velocity": 0.6299212598425197,
          "duration": 0.0703125
        },
        {
          "name": "G5",
          "midi": 79,
          "time": 64.3984375,
          "velocity": 0.5275590551181102,
          "duration": 0.078125
        },
        {
          "name": "F#5",
          "midi": 78,
          "time": 64.4921875,
          "velocity": 0.47244094488188976,
          "duration": 0.0859375
        },
        {
          "name": "B3",
          "midi": 59,
          "time": 64.4921875,
          "velocity": 0.7716535433070866,
          "duration": 0.0234375
        },
        {
          "name": "C#4",
          "midi": 61,
          "time": 64.546875,
          "velocity": 0.8031496062992126,
          "duration": 0.0390625
        },
        {
          "name": "G5",
          "midi": 79,
          "time": 64.59375,
          "velocity": 0.3779527559055118,
          "duration": 0.0625
        },
        {
          "name": "D4",
          "midi": 62,
          "time": 64.6015625,
          "velocity": 0.7952755905511811,
          "duration": 0.015625
        },
        {
          "name": "E4",
          "midi": 64,
          "time": 64.6484375,
          "velocity": 0.8661417322834646,
          "duration": 0.015625
        },
        {
          "name": "F#5",
          "midi": 78,
          "time": 64.6953125,
          "velocity": 0.30708661417322836,
          "duration": 0.0625
        },
        {
          "name": "G5",
          "midi": 79,
          "time": 64.7734375,
          "velocity": 0.3937007874015748,
          "duration": 0.0625
        },
        {
          "name": "F#5",
          "midi": 78,
          "time": 64.875,
          "velocity": 0.4015748031496063,
          "duration": 0.0546875
        },
        {
          "name": "G5",
          "midi": 79,
          "time": 64.96875,
          "velocity": 0.3779527559055118,
          "duration": 0.0703125
        },
        {
          "name": "F#5",
          "midi": 78,
          "time": 65.0546875,
          "velocity": 0.31496062992125984,
          "duration": 0.0625
        },
        {
          "name": "G5",
          "midi": 79,
          "time": 65.15625,
          "velocity": 0.3700787401574803,
          "duration": 0.078125
        },
        {
          "name": "F#5",
          "midi": 78,
          "time": 65.2578125,
          "velocity": 0.4881889763779528,
          "duration": 0.0625
        },
        {
          "name": "G5",
          "midi": 79,
          "time": 65.34375,
          "velocity": 0.5669291338582677,
          "duration": 0.0625
        },
        {
          "name": "F#5",
          "midi": 78,
          "time": 65.4296875,
          "velocity": 0.6377952755905512,
          "duration": 0.0703125
        },
        {
          "name": "G5",
          "midi": 79,
          "time": 65.5234375,
          "velocity": 0.6377952755905512,
          "duration": 0.0859375
        },
        {
          "name": "F#5",
          "midi": 78,
          "time": 65.625,
          "velocity": 0.6850393700787402,
          "duration": 0.0703125
        },
        {
          "name": "G5",
          "midi": 79,
          "time": 65.71875,
          "velocity": 0.7086614173228346,
          "duration": 0.0625
        },
        {
          "name": "A5",
          "midi": 81,
          "time": 65.8125,
          "velocity": 0.7244094488188977,
          "duration": 0.0703125
        },
        {
          "name": "B5",
          "midi": 83,
          "time": 65.90625,
          "velocity": 0.6141732283464567,
          "duration": 0.0625
        },
        {
          "name": "A5",
          "midi": 81,
          "time": 65.9921875,
          "velocity": 0.6377952755905512,
          "duration": 0.0546875
        },
        {
          "name": "B5",
          "midi": 83,
          "time": 66.0859375,
          "velocity": 0.5669291338582677,
          "duration": 0.078125
        },
        {
          "name": "D5",
          "midi": 74,
          "time": 66.1796875,
          "velocity": 0.7716535433070866,
          "duration": 0.0078125
        },
        {
          "name": "A5",
          "midi": 81,
          "time": 66.1875,
          "velocity": 0.4566929133858268,
          "duration": 0.0859375
        },
        {
          "name": "E5",
          "midi": 76,
          "time": 66.2265625,
          "velocity": 0.7637795275590551,
          "duration": 0.03125
        },
        {
          "name": "F#5",
          "midi": 78,
          "time": 66.2734375,
          "velocity": 0.7952755905511811,
          "duration": 0.0078125
        },
        {
          "name": "B5",
          "midi": 83,
          "time": 66.2734375,
          "velocity": 0.4094488188976378,
          "duration": 0.0859375
        },
        {
          "name": "G5",
          "midi": 79,
          "time": 66.328125,
          "velocity": 0.84251968503937,
          "duration": 0.015625
        },
        {
          "name": "A5",
          "midi": 81,
          "time": 66.375,
          "velocity": 0.29133858267716534,
          "duration": 0.078125
        },
        {
          "name": "B5",
          "midi": 83,
          "time": 66.4609375,
          "velocity": 0.3858267716535433,
          "duration": 0.0859375
        },
        {
          "name": "A5",
          "midi": 81,
          "time": 66.5546875,
          "velocity": 0.3700787401574803,
          "duration": 0.0625
        },
        {
          "name": "B5",
          "midi": 83,
          "time": 66.65625,
          "velocity": 0.4015748031496063,
          "duration": 0.0625
        },
        {
          "name": "A5",
          "midi": 81,
          "time": 66.75,
          "velocity": 0.29133858267716534,
          "duration": 0.078125
        },
        {
          "name": "B5",
          "midi": 83,
          "time": 66.8359375,
          "velocity": 0.4015748031496063,
          "duration": 0.078125
        },
        {
          "name": "A5",
          "midi": 81,
          "time": 66.9375,
          "velocity": 0.48031496062992124,
          "duration": 0.0703125
        },
        {
          "name": "B5",
          "midi": 83,
          "time": 67.0234375,
          "velocity": 0.5433070866141733,
          "duration": 0.0703125
        },
        {
          "name": "A5",
          "midi": 81,
          "time": 67.1171875,
          "velocity": 0.6062992125984252,
          "duration": 0.0703125
        },
        {
          "name": "B5",
          "midi": 83,
          "time": 67.21875,
          "velocity": 0.6062992125984252,
          "duration": 0.0546875
        },
        {
          "name": "A5",
          "midi": 81,
          "time": 67.3046875,
          "velocity": 0.6850393700787402,
          "duration": 0.0546875
        },
        {
          "name": "D4",
          "midi": 62,
          "time": 67.3125,
          "velocity": 0.7165354330708661,
          "duration": 0.015625
        },
        {
          "name": "E4",
          "midi": 64,
          "time": 67.359375,
          "velocity": 0.6929133858267716,
          "duration": 0.0234375
        },
        {
          "name": "F#4",
          "midi": 66,
          "time": 67.3984375,
          "velocity": 0.6850393700787402,
          "duration": 0.015625
        },
        {
          "name": "B5",
          "midi": 83,
          "time": 67.40625,
          "velocity": 0.6850393700787402,
          "duration": 0.0546875
        },
        {
          "name": "G4",
          "midi": 67,
          "time": 67.453125,
          "velocity": 0.7244094488188977,
          "duration": 0.03125
        },
        {
          "name": "A5",
          "midi": 81,
          "time": 67.4921875,
          "velocity": 0.7007874015748031,
          "duration": 0.0703125
        },
        {
          "name": "B5",
          "midi": 83,
          "time": 67.59375,
          "velocity": 0.6141732283464567,
          "duration": 0.078125
        },
        {
          "name": "A5",
          "midi": 81,
          "time": 67.6875,
          "velocity": 0.6377952755905512,
          "duration": 0.0625
        },
        {
          "name": "B5",
          "midi": 83,
          "time": 67.7734375,
          "velocity": 0.5275590551181102,
          "duration": 0.0546875
        },
        {
          "name": "A5",
          "midi": 81,
          "time": 67.8671875,
          "velocity": 0.47244094488188976,
          "duration": 0.0703125
        },
        {
          "name": "D5",
          "midi": 74,
          "time": 67.875,
          "velocity": 0.7716535433070866,
          "duration": 0.015625
        },
        {
          "name": "E5",
          "midi": 76,
          "time": 67.921875,
          "velocity": 0.7795275590551181,
          "duration": 0.03125
        },
        {
          "name": "B5",
          "midi": 83,
          "time": 67.9609375,
          "velocity": 0.3700787401574803,
          "duration": 0.0859375
        },
        {
          "name": "F#5",
          "midi": 78,
          "time": 67.96875,
          "velocity": 0.7952755905511811,
          "duration": 0.03125
        },
        {
          "name": "G5",
          "midi": 79,
          "time": 68.0078125,
          "velocity": 0.8818897637795275,
          "duration": 0.0390625
        },
        {
          "name": "A5",
          "midi": 81,
          "time": 68.0625,
          "velocity": 0.29133858267716534,
          "duration": 0.0625
        },
        {
          "name": "B5",
          "midi": 83,
          "time": 68.15625,
          "velocity": 0.3937007874015748,
          "duration": 0.0625
        },
        {
          "name": "A5",
          "midi": 81,
          "time": 68.2421875,
          "velocity": 0.3779527559055118,
          "duration": 0.0625
        },
        {
          "name": "B5",
          "midi": 83,
          "time": 68.3359375,
          "velocity": 0.3700787401574803,
          "duration": 0.0703125
        },
        {
          "name": "A5",
          "midi": 81,
          "time": 68.4375,
          "velocity": 0.29133858267716534,
          "duration": 0.0625
        },
        {
          "name": "B5",
          "midi": 83,
          "time": 68.53125,
          "velocity": 0.4015748031496063,
          "duration": 0.078125
        },
        {
          "name": "A5",
          "midi": 81,
          "time": 68.6171875,
          "velocity": 0.47244094488188976,
          "duration": 0.078125
        },
        {
          "name": "B5",
          "midi": 83,
          "time": 68.7109375,
          "velocity": 0.5590551181102362,
          "duration": 0.078125
        },
        {
          "name": "A5",
          "midi": 81,
          "time": 68.8046875,
          "velocity": 0.6141732283464567,
          "duration": 0.0546875
        },
        {
          "name": "B5",
          "midi": 83,
          "time": 68.90625,
          "velocity": 0.6062992125984252,
          "duration": 0.0546875
        },
        {
          "name": "A5",
          "midi": 81,
          "time": 68.9921875,
          "velocity": 0.6929133858267716,
          "duration": 0.0703125
        },
        {
          "name": "B5",
          "midi": 83,
          "time": 69.0859375,
          "velocity": 0.7007874015748031,
          "duration": 0.078125
        },
        {
          "name": "A5",
          "midi": 81,
          "time": 69.1796875,
          "velocity": 0.6850393700787402,
          "duration": 0.0625
        },
        {
          "name": "B5",
          "midi": 83,
          "time": 69.2734375,
          "velocity": 0.6220472440944882,
          "duration": 0.0859375
        },
        {
          "name": "A5",
          "midi": 81,
          "time": 69.375,
          "velocity": 0.6299212598425197,
          "duration": 0.078125
        },
        {
          "name": "B5",
          "midi": 83,
          "time": 69.4609375,
          "velocity": 0.5669291338582677,
          "duration": 0.0625
        },
        {
          "name": "A5",
          "midi": 81,
          "time": 69.5546875,
          "velocity": 0.47244094488188976,
          "duration": 0.0546875
        },
        {
          "name": "D5",
          "midi": 74,
          "time": 69.5625,
          "velocity": 0.7637795275590551,
          "duration": 0.0078125
        },
        {
          "name": "E5",
          "midi": 76,
          "time": 69.609375,
          "velocity": 0.7637795275590551,
          "duration": 0.03125
        },
        {
          "name": "F#5",
          "midi": 78,
          "time": 69.65625,
          "velocity": 0.7795275590551181,
          "duration": 0.0234375
        },
        {
          "name": "B5",
          "midi": 83,
          "time": 69.65625,
          "velocity": 0.3779527559055118,
          "duration": 0.0625
        },
        {
          "name": "G5",
          "midi": 79,
          "time": 69.703125,
          "velocity": 0.8818897637795275,
          "duration": 0.0234375
        },
        {
          "name": "A5",
          "midi": 81,
          "time": 69.7421875,
          "velocity": 0.33070866141732286,
          "duration": 0.0546875
        },
        {
          "name": "B5",
          "midi": 83,
          "time": 69.8359375,
          "velocity": 0.3937007874015748,
          "duration": 0.0625
        },
        {
          "name": "A5",
          "midi": 81,
          "time": 69.9453125,
          "velocity": 0.4015748031496063,
          "duration": 0.0625
        },
        {
          "name": "B5",
          "midi": 83,
          "time": 70.0234375,
          "velocity": 0.3700787401574803,
          "duration": 0.0625
        },
        {
          "name": "A5",
          "midi": 81,
          "time": 70.1171875,
          "velocity": 0.33070866141732286,
          "duration": 0.0546875
        },
        {
          "name": "B5",
          "midi": 83,
          "time": 70.21875,
          "velocity": 0.3779527559055118,
          "duration": 0.0703125
        },
        {
          "name": "A5",
          "midi": 81,
          "time": 70.3203125,
          "velocity": 0.4881889763779528,
          "duration": 0.0625
        },
        {
          "name": "B5",
          "midi": 83,
          "time": 70.3984375,
          "velocity": 0.5354330708661418,
          "duration": 0.0859375
        },
        {
          "name": "A5",
          "midi": 81,
          "time": 70.5,
          "velocity": 0.6220472440944882,
          "duration": 0.0859375
        },
        {
          "name": "B5",
          "midi": 83,
          "time": 70.59375,
          "velocity": 0.6220472440944882,
          "duration": 0.0546875
        },
        {
          "name": "A5",
          "midi": 81,
          "time": 70.6796875,
          "velocity": 0.7165354330708661,
          "duration": 0.0546875
        },
        {
          "name": "D4",
          "midi": 62,
          "time": 70.6875,
          "velocity": 0.6850393700787402,
          "duration": 0.03125
        },
        {
          "name": "E4",
          "midi": 64,
          "time": 70.734375,
          "velocity": 0.7165354330708661,
          "duration": 0.0078125
        },
        {
          "name": "F#4",
          "midi": 66,
          "time": 70.7734375,
          "velocity": 0.7007874015748031,
          "duration": 0.03125
        },
        {
          "name": "B5",
          "midi": 83,
          "time": 70.7734375,
          "velocity": 0.6929133858267716,
          "duration": 0.078125
        },
        {
          "name": "G4",
          "midi": 67,
          "time": 70.8203125,
          "velocity": 0.7165354330708661,
          "duration": 0.0234375
        },
        {
          "name": "A5",
          "midi": 81,
          "time": 70.875,
          "velocity": 0.7086614173228346,
          "duration": 0.078125
        },
        {
          "name": "B5",
          "midi": 83,
          "time": 70.9609375,
          "velocity": 0.6299212598425197,
          "duration": 0.0859375
        },
        {
          "name": "A5",
          "midi": 81,
          "time": 71.0625,
          "velocity": 0.6062992125984252,
          "duration": 0.0703125
        },
        {
          "name": "B5",
          "midi": 83,
          "time": 71.15625,
          "velocity": 0.5354330708661418,
          "duration": 0.0703125
        },
        {
          "name": "A5",
          "midi": 81,
          "time": 71.25,
          "velocity": 0.4881889763779528,
          "duration": 0.078125
        },
        {
          "name": "D5",
          "midi": 74,
          "time": 71.25,
          "velocity": 0.7952755905511811,
          "duration": 0.015625
        },
        {
          "name": "E5",
          "midi": 76,
          "time": 71.2890625,
          "velocity": 0.7952755905511811,
          "duration": 0.0234375
        },
        {
          "name": "F#5",
          "midi": 78,
          "time": 71.34375,
          "velocity": 0.7716535433070866,
          "duration": 0.0234375
        },
        {
          "name": "B5",
          "midi": 83,
          "time": 71.34375,
          "velocity": 0.4094488188976378,
          "duration": 0.078125
        },
        {
          "name": "G5",
          "midi": 79,
          "time": 71.390625,
          "velocity": 0.8661417322834646,
          "duration": 0.03125
        },
        {
          "name": "A5",
          "midi": 81,
          "time": 71.4375,
          "velocity": 0.31496062992125984,
          "duration": 0.078125
        },
        {
          "name": "B5",
          "midi": 83,
          "time": 71.5234375,
          "velocity": 0.3700787401574803,
          "duration": 0.078125
        },
        {
          "name": "A5",
          "midi": 81,
          "time": 71.625,
          "velocity": 0.4094488188976378,
          "duration": 0.0703125
        },
        {
          "name": "B5",
          "midi": 83,
          "time": 71.7109375,
          "velocity": 0.3700787401574803,
          "duration": 0.0546875
        },
        {
          "name": "A5",
          "midi": 81,
          "time": 71.8125,
          "velocity": 0.33070866141732286,
          "duration": 0.0703125
        },
        {
          "name": "B5",
          "midi": 83,
          "time": 71.90625,
          "velocity": 0.4015748031496063,
          "duration": 0.0625
        },
        {
          "name": "A5",
          "midi": 81,
          "time": 72,
          "velocity": 0.4645669291338583,
          "duration": 0.0546875
        },
        {
          "name": "B5",
          "midi": 83,
          "time": 72.09375,
          "velocity": 0.5511811023622047,
          "duration": 0.078125
        },
        {
          "name": "A5",
          "midi": 81,
          "time": 72.1875,
          "velocity": 0.6299212598425197,
          "duration": 0.0703125
        },
        {
          "name": "B5",
          "midi": 83,
          "time": 72.2734375,
          "velocity": 0.6062992125984252,
          "duration": 0.078125
        },
        {
          "name": "A5",
          "midi": 81,
          "time": 72.375,
          "velocity": 0.7007874015748031,
          "duration": 0.078125
        },
        {
          "name": "B5",
          "midi": 83,
          "time": 72.46875,
          "velocity": 0.6929133858267716,
          "duration": 0.0859375
        },
        {
          "name": "C#6",
          "midi": 85,
          "time": 72.5625,
          "velocity": 0.6929133858267716,
          "duration": 0.078125
        },
        {
          "name": "D6",
          "midi": 86,
          "time": 72.6484375,
          "velocity": 0.6377952755905512,
          "duration": 0.078125
        },
        {
          "name": "C#6",
          "midi": 85,
          "time": 72.75,
          "velocity": 0.6299212598425197,
          "duration": 0.0546875
        },
        {
          "name": "D6",
          "midi": 86,
          "time": 72.84375,
          "velocity": 0.5354330708661418,
          "duration": 0.078125
        },
        {
          "name": "F#5",
          "midi": 78,
          "time": 72.9375,
          "velocity": 0.7716535433070866,
          "duration": 0.0234375
        },
        {
          "name": "C#6",
          "midi": 85,
          "time": 72.9375,
          "velocity": 0.4566929133858268,
          "duration": 0.0546875
        },
        {
          "name": "G#5",
          "midi": 80,
          "time": 72.984375,
          "velocity": 0.7952755905511811,
          "duration": 0.03125
        },
        {
          "name": "A5",
          "midi": 81,
          "time": 73.03125,
          "velocity": 0.7637795275590551,
          "duration": 0.015625
        },
        {
          "name": "D6",
          "midi": 86,
          "time": 73.03125,
          "velocity": 0.4015748031496063,
          "duration": 0.078125
        },
        {
          "name": "C#6",
          "midi": 85,
          "time": 73.0703125,
          "velocity": 0.84251968503937,
          "duration": 0.1328125
        },
        {
          "name": "D6",
          "midi": 86,
          "time": 73.2109375,
          "velocity": 0.3700787401574803,
          "duration": 0.0546875
        },
        {
          "name": "C#6",
          "midi": 85,
          "time": 73.3125,
          "velocity": 0.3779527559055118,
          "duration": 0.078125
        },
        {
          "name": "D6",
          "midi": 86,
          "time": 73.40625,
          "velocity": 0.3937007874015748,
          "duration": 0.0546875
        },
        {
          "name": "C#6",
          "midi": 85,
          "time": 73.4921875,
          "velocity": 0.3228346456692913,
          "duration": 0.0703125
        },
        {
          "name": "D6",
          "midi": 86,
          "time": 73.5859375,
          "velocity": 0.4094488188976378,
          "duration": 0.0703125
        },
        {
          "name": "C#6",
          "midi": 85,
          "time": 73.6953125,
          "velocity": 0.4881889763779528,
          "duration": 0.046875
        },
        {
          "name": "D6",
          "midi": 86,
          "time": 73.78125,
          "velocity": 0.5433070866141733,
          "duration": 0.078125
        },
        {
          "name": "C#6",
          "midi": 85,
          "time": 73.875,
          "velocity": 0.6299212598425197,
          "duration": 0.0859375
        },
        {
          "name": "B5",
          "midi": 83,
          "time": 73.9609375,
          "velocity": 0.6141732283464567,
          "duration": 0.0859375
        },
        {
          "name": "A5",
          "midi": 81,
          "time": 74.0546875,
          "velocity": 0.7086614173228346,
          "duration": 0.0546875
        },
        {
          "name": "G#5",
          "midi": 80,
          "time": 74.15625,
          "velocity": 0.7165354330708661,
          "duration": 0.0703125
        },
        {
          "name": "F#5",
          "midi": 78,
          "time": 74.2421875,
          "velocity": 0.7086614173228346,
          "duration": 0.0625
        },
        {
          "name": "F5",
          "midi": 77,
          "time": 74.3359375,
          "velocity": 0.5511811023622047,
          "duration": 0.0625
        },
        {
          "name": "F#5",
          "midi": 78,
          "time": 74.4375,
          "velocity": 0.5669291338582677,
          "duration": 0.0546875
        },
        {
          "name": "F5",
          "midi": 77,
          "time": 74.53125,
          "velocity": 0.47244094488188976,
          "duration": 0.0546875
        },
        {
          "name": "F#5",
          "midi": 78,
          "time": 74.6171875,
          "velocity": 0.3858267716535433,
          "duration": 0.0625
        },
        {
          "name": "C#5",
          "midi": 73,
          "time": 74.625,
          "velocity": 0.5590551181102362,
          "duration": 0.03125
        },
        {
          "name": "D#5",
          "midi": 75,
          "time": 74.6796875,
          "velocity": 0.6299212598425197,
          "duration": 0.0390625
        },
        {
          "name": "F5",
          "midi": 77,
          "time": 74.7109375,
          "velocity": 0.31496062992125984,
          "duration": 0.0859375
        },
        {
          "name": "F#5",
          "midi": 78,
          "time": 74.8125,
          "velocity": 0.3779527559055118,
          "duration": 0.0703125
        },
        {
          "name": "F5",
          "midi": 77,
          "time": 74.90625,
          "velocity": 0.33070866141732286,
          "duration": 0.078125
        },
        {
          "name": "F#5",
          "midi": 78,
          "time": 75,
          "velocity": 0.31496062992125984,
          "duration": 0.0703125
        },
        {
          "name": "F5",
          "midi": 77,
          "time": 75.09375,
          "velocity": 0.3779527559055118,
          "duration": 0.078125
        },
        {
          "name": "F#5",
          "midi": 78,
          "time": 75.1796875,
          "velocity": 0.31496062992125984,
          "duration": 0.078125
        },
        {
          "name": "F5",
          "midi": 77,
          "time": 75.28125,
          "velocity": 0.3700787401574803,
          "duration": 0.0546875
        },
        {
          "name": "F#5",
          "midi": 78,
          "time": 75.375,
          "velocity": 0.4881889763779528,
          "duration": 0.078125
        },
        {
          "name": "F5",
          "midi": 77,
          "time": 75.46875,
          "velocity": 0.5433070866141733,
          "duration": 0.0625
        },
        {
          "name": "F#5",
          "midi": 78,
          "time": 75.5546875,
          "velocity": 0.5669291338582677,
          "duration": 0.0625
        },
        {
          "name": "F5",
          "midi": 77,
          "time": 75.6484375,
          "velocity": 0.5354330708661418,
          "duration": 0.0625
        },
        {
          "name": "F#5",
          "midi": 78,
          "time": 75.75,
          "velocity": 0.6141732283464567,
          "duration": 0.046875
        },
        {
          "name": "F5",
          "midi": 77,
          "time": 75.8046875,
          "velocity": 0.6220472440944882,
          "duration": 0.046875
        },
        {
          "name": "F#5",
          "midi": 78,
          "time": 75.8671875,
          "velocity": 0.6377952755905512,
          "duration": 0.0546875
        },
        {
          "name": "B3",
          "midi": 59,
          "time": 75.9375,
          "velocity": 0.8503937007874016,
          "duration": 1.4375
        },
        {
          "name": "D#4",
          "midi": 63,
          "time": 75.9453125,
          "velocity": 0.8818897637795275,
          "duration": 1.4375
        },
        {
          "name": "G4",
          "midi": 67,
          "time": 75.9453125,
          "velocity": 0.8661417322834646,
          "duration": 1.453125
        },
        {
          "name": "B3",
          "midi": 59,
          "time": 77.4296875,
          "velocity": 0.8582677165354331,
          "duration": 0.0703125
        },
        {
          "name": "G4",
          "midi": 67,
          "time": 77.4296875,
          "velocity": 0.8503937007874016,
          "duration": 0.0546875
        },
        {
          "name": "D#4",
          "midi": 63,
          "time": 77.4375,
          "velocity": 0.8818897637795275,
          "duration": 0.0703125
        },
        {
          "name": "B3",
          "midi": 59,
          "time": 77.5234375,
          "velocity": 0.84251968503937,
          "duration": 0.0546875
        },
        {
          "name": "D#4",
          "midi": 63,
          "time": 77.5234375,
          "velocity": 0.8818897637795275,
          "duration": 0.0625
        },
        {
          "name": "G4",
          "midi": 67,
          "time": 77.53125,
          "velocity": 0.8818897637795275,
          "duration": 0.0625
        },
        {
          "name": "B3",
          "midi": 59,
          "time": 77.6171875,
          "velocity": 0.8661417322834646,
          "duration": 1.4453125
        },
        {
          "name": "D#4",
          "midi": 63,
          "time": 77.625,
          "velocity": 0.8818897637795275,
          "duration": 1.4453125
        },
        {
          "name": "G4",
          "midi": 67,
          "time": 77.625,
          "velocity": 0.8582677165354331,
          "duration": 1.453125
        },
        {
          "name": "G4",
          "midi": 67,
          "time": 79.1171875,
          "velocity": 0.9212598425196851,
          "duration": 0.0546875
        },
        {
          "name": "D#4",
          "midi": 63,
          "time": 79.1171875,
          "velocity": 0.952755905511811,
          "duration": 0.0703125
        },
        {
          "name": "B3",
          "midi": 59,
          "time": 79.125,
          "velocity": 0.952755905511811,
          "duration": 0.0703125
        },
        {
          "name": "B3",
          "midi": 59,
          "time": 79.2109375,
          "velocity": 0.9448818897637795,
          "duration": 0.046875
        },
        {
          "name": "D#4",
          "midi": 63,
          "time": 79.2109375,
          "velocity": 0.9212598425196851,
          "duration": 0.046875
        },
        {
          "name": "G4",
          "midi": 67,
          "time": 79.2265625,
          "velocity": 0.9212598425196851,
          "duration": 0.046875
        },
        {
          "name": "B3",
          "midi": 59,
          "time": 79.3203125,
          "velocity": 1,
          "duration": 0.125
        },
        {
          "name": "E4",
          "midi": 64,
          "time": 79.3203125,
          "velocity": 0.9921259842519685,
          "duration": 0.109375
        },
        {
          "name": "G#4",
          "midi": 68,
          "time": 79.3203125,
          "velocity": 0.984251968503937,
          "duration": 0.046875
        },
        {
          "name": "E4",
          "midi": 64,
          "time": 81.0078125,
          "velocity": 0.9763779527559056,
          "duration": 0.1328125
        },
        {
          "name": "G4",
          "midi": 67,
          "time": 81.0078125,
          "velocity": 1,
          "duration": 0.1171875
        },
        {
          "name": "F#4",
          "midi": 66,
          "time": 81.1796875,
          "velocity": 0.8503937007874016,
          "duration": 0.1328125
        },
        {
          "name": "D#4",
          "midi": 63,
          "time": 81.1875,
          "velocity": 0.8503937007874016,
          "duration": 0.1171875
        },
        {
          "name": "F4",
          "midi": 65,
          "time": 81.3671875,
          "velocity": 0.8661417322834646,
          "duration": 0.1328125
        },
        {
          "name": "D4",
          "midi": 62,
          "time": 81.375,
          "velocity": 0.84251968503937,
          "duration": 0.1171875
        },
        {
          "name": "C#4",
          "midi": 61,
          "time": 81.5625,
          "velocity": 0.8818897637795275,
          "duration": 0.140625
        },
        {
          "name": "E4",
          "midi": 64,
          "time": 81.5625,
          "velocity": 0.8818897637795275,
          "duration": 0.1328125
        },
        {
          "name": "C4",
          "midi": 60,
          "time": 81.75,
          "velocity": 0.8661417322834646,
          "duration": 0.1328125
        },
        {
          "name": "D#4",
          "midi": 63,
          "time": 81.75,
          "velocity": 0.8582677165354331,
          "duration": 0.1328125
        },
        {
          "name": "B3",
          "midi": 59,
          "time": 81.9296875,
          "velocity": 0.8818897637795275,
          "duration": 0.125
        },
        {
          "name": "D4",
          "midi": 62,
          "time": 81.9296875,
          "velocity": 0.84251968503937,
          "duration": 0.140625
        },
        {
          "name": "C#4",
          "midi": 61,
          "time": 82.1171875,
          "velocity": 0.8503937007874016,
          "duration": 0.1171875
        },
        {
          "name": "A#3",
          "midi": 58,
          "time": 82.125,
          "velocity": 0.8740157480314961,
          "duration": 0.1328125
        },
        {
          "name": "A3",
          "midi": 57,
          "time": 82.3046875,
          "velocity": 0.84251968503937,
          "duration": 0.1328125
        },
        {
          "name": "C4",
          "midi": 60,
          "time": 82.3046875,
          "velocity": 0.8740157480314961,
          "duration": 0.140625
        },
        {
          "name": "G#3",
          "midi": 56,
          "time": 82.4921875,
          "velocity": 0.8818897637795275,
          "duration": 0.1171875
        },
        {
          "name": "B3",
          "midi": 59,
          "time": 82.5,
          "velocity": 0.8818897637795275,
          "duration": 0.125
        },
        {
          "name": "A3",
          "midi": 57,
          "time": 82.6953125,
          "velocity": 0.6377952755905512,
          "duration": 0.546875
        },
        {
          "name": "F4",
          "midi": 65,
          "time": 82.6953125,
          "velocity": 0.6299212598425197,
          "duration": 0.5234375
        },
        {
          "name": "C4",
          "midi": 60,
          "time": 83.2421875,
          "velocity": 0.33070866141732286,
          "duration": 0.8828125
        },
        {
          "name": "C4",
          "midi": 60,
          "time": 84.1875,
          "velocity": 0.29133858267716534,
          "duration": 0.0546875
        },
        {
          "name": "C4",
          "midi": 60,
          "time": 84.28125,
          "velocity": 0.2992125984251969,
          "duration": 0.0625
        },
        {
          "name": "A3",
          "midi": 57,
          "time": 84.3671875,
          "velocity": 0.3228346456692913,
          "duration": 0.53125
        },
        {
          "name": "F4",
          "midi": 65,
          "time": 84.3671875,
          "velocity": 0.3228346456692913,
          "duration": 0.546875
        },
        {
          "name": "C4",
          "midi": 60,
          "time": 84.9375,
          "velocity": 0.33070866141732286,
          "duration": 0.8828125
        },
        {
          "name": "E4",
          "midi": 64,
          "time": 85.875,
          "velocity": 0.7480314960629921,
          "duration": 0.046875
        },
        {
          "name": "C4",
          "midi": 60,
          "time": 85.875,
          "velocity": 0.7559055118110236,
          "duration": 0.0625
        },
        {
          "name": "C4",
          "midi": 60,
          "time": 85.9765625,
          "velocity": 0.8031496062992126,
          "duration": 0.046875
        },
        {
          "name": "E4",
          "midi": 64,
          "time": 85.9765625,
          "velocity": 0.8031496062992126,
          "duration": 0.0625
        },
        {
          "name": "A#3",
          "midi": 58,
          "time": 86.0625,
          "velocity": 0.7716535433070866,
          "duration": 0.1171875
        },
        {
          "name": "C#4",
          "midi": 61,
          "time": 86.0625,
          "velocity": 0.7716535433070866,
          "duration": 0.140625
        },
        {
          "name": "A4",
          "midi": 69,
          "time": 87.75,
          "velocity": 0.9763779527559056,
          "duration": 0.1171875
        },
        {
          "name": "F#4",
          "midi": 66,
          "time": 87.7578125,
          "velocity": 0.9921259842519685,
          "duration": 0.109375
        },
        {
          "name": "F4",
          "midi": 65,
          "time": 87.9296875,
          "velocity": 0.8582677165354331,
          "duration": 0.140625
        },
        {
          "name": "G#4",
          "midi": 68,
          "time": 87.9296875,
          "velocity": 0.84251968503937,
          "duration": 0.140625
        },
        {
          "name": "E4",
          "midi": 64,
          "time": 88.1171875,
          "velocity": 0.84251968503937,
          "duration": 0.125
        },
        {
          "name": "G4",
          "midi": 67,
          "time": 88.125,
          "velocity": 0.8818897637795275,
          "duration": 0.140625
        },
        {
          "name": "D#4",
          "midi": 63,
          "time": 88.3046875,
          "velocity": 0.8582677165354331,
          "duration": 0.125
        },
        {
          "name": "F#4",
          "midi": 66,
          "time": 88.3046875,
          "velocity": 0.84251968503937,
          "duration": 0.1328125
        },
        {
          "name": "D4",
          "midi": 62,
          "time": 88.4921875,
          "velocity": 0.8582677165354331,
          "duration": 0.1328125
        },
        {
          "name": "F4",
          "midi": 65,
          "time": 88.5,
          "velocity": 0.8661417322834646,
          "duration": 0.1328125
        },
        {
          "name": "E4",
          "midi": 64,
          "time": 88.6796875,
          "velocity": 0.8582677165354331,
          "duration": 0.1171875
        },
        {
          "name": "C#4",
          "midi": 61,
          "time": 88.6875,
          "velocity": 0.8503937007874016,
          "duration": 0.125
        },
        {
          "name": "C4",
          "midi": 60,
          "time": 88.8671875,
          "velocity": 0.8582677165354331,
          "duration": 0.140625
        },
        {
          "name": "D#4",
          "midi": 63,
          "time": 88.875,
          "velocity": 0.8740157480314961,
          "duration": 0.1171875
        },
        {
          "name": "B3",
          "midi": 59,
          "time": 89.0625,
          "velocity": 0.8582677165354331,
          "duration": 0.1328125
        },
        {
          "name": "D4",
          "midi": 62,
          "time": 89.0625,
          "velocity": 0.8503937007874016,
          "duration": 0.1171875
        },
        {
          "name": "A#3",
          "midi": 58,
          "time": 89.25,
          "velocity": 0.8740157480314961,
          "duration": 0.125
        },
        {
          "name": "C#4",
          "midi": 61,
          "time": 89.25,
          "velocity": 0.8661417322834646,
          "duration": 0.140625
        },
        {
          "name": "B3",
          "midi": 59,
          "time": 89.4375,
          "velocity": 0.33070866141732286,
          "duration": 1.4375
        },
        {
          "name": "D#4",
          "midi": 63,
          "time": 89.4375,
          "velocity": 0.2992125984251969,
          "duration": 1.453125
        },
        {
          "name": "B3",
          "midi": 59,
          "time": 90.9296875,
          "velocity": 0.31496062992125984,
          "duration": 0.0625
        },
        {
          "name": "D#4",
          "midi": 63,
          "time": 90.9375,
          "velocity": 0.33070866141732286,
          "duration": 0.0390625
        },
        {
          "name": "B3",
          "midi": 59,
          "time": 91.0234375,
          "velocity": 0.30708661417322836,
          "duration": 0.046875
        },
        {
          "name": "D#4",
          "midi": 63,
          "time": 91.0234375,
          "velocity": 0.3228346456692913,
          "duration": 0.0546875
        },
        {
          "name": "B3",
          "midi": 59,
          "time": 91.1171875,
          "velocity": 0.33070866141732286,
          "duration": 1.453125
        },
        {
          "name": "D#4",
          "midi": 63,
          "time": 91.125,
          "velocity": 0.31496062992125984,
          "duration": 1.453125
        },
        {
          "name": "B3",
          "midi": 59,
          "time": 92.625,
          "velocity": 0.30708661417322836,
          "duration": 0.0546875
        },
        {
          "name": "D#4",
          "midi": 63,
          "time": 92.625,
          "velocity": 0.30708661417322836,
          "duration": 0.0625
        },
        {
          "name": "D#4",
          "midi": 63,
          "time": 92.7109375,
          "velocity": 0.3228346456692913,
          "duration": 0.0625
        },
        {
          "name": "B3",
          "midi": 59,
          "time": 92.71875,
          "velocity": 0.29133858267716534,
          "duration": 0.0625
        },
        {
          "name": "C4",
          "midi": 60,
          "time": 92.8046875,
          "velocity": 0.2992125984251969,
          "duration": 1.4609375
        },
        {
          "name": "E4",
          "midi": 64,
          "time": 92.8046875,
          "velocity": 0.29133858267716534,
          "duration": 1.4453125
        },
        {
          "name": "C4",
          "midi": 60,
          "time": 94.3046875,
          "velocity": 0.2992125984251969,
          "duration": 0.0546875
        },
        {
          "name": "E4",
          "midi": 64,
          "time": 94.3046875,
          "velocity": 0.31496062992125984,
          "duration": 0.0390625
        },
        {
          "name": "C4",
          "midi": 60,
          "time": 94.40625,
          "velocity": 0.33070866141732286,
          "duration": 0.0625
        },
        {
          "name": "E4",
          "midi": 64,
          "time": 94.40625,
          "velocity": 0.33070866141732286,
          "duration": 0.0390625
        },
        {
          "name": "B2",
          "midi": 47,
          "time": 125.25,
          "velocity": 0.8818897637795275,
          "duration": 0.0390625
        },
        {
          "name": "B2",
          "midi": 47,
          "time": 125.3125,
          "velocity": 0.8976377952755905,
          "duration": 0.015625
        },
        {
          "name": "B2",
          "midi": 47,
          "time": 125.3671875,
          "velocity": 0.8818897637795275,
          "duration": 0.0390625
        },
        {
          "name": "B2",
          "midi": 47,
          "time": 125.4453125,
          "velocity": 1,
          "duration": 0.265625
        },
        {
          "name": "B2",
          "midi": 47,
          "time": 125.8125,
          "velocity": 0.8976377952755905,
          "duration": 0.03125
        },
        {
          "name": "B2",
          "midi": 47,
          "time": 125.8671875,
          "velocity": 0.9133858267716536,
          "duration": 0.03125
        },
        {
          "name": "B2",
          "midi": 47,
          "time": 125.9375,
          "velocity": 0.8818897637795275,
          "duration": 0.0234375
        },
        {
          "name": "B2",
          "midi": 47,
          "time": 126,
          "velocity": 0.9763779527559056,
          "duration": 0.296875
        },
        {
          "name": "B2",
          "midi": 47,
          "time": 126.3828125,
          "velocity": 0.9212598425196851,
          "duration": 0.03125
        },
        {
          "name": "B2",
          "midi": 47,
          "time": 126.4296875,
          "velocity": 0.8818897637795275,
          "duration": 0.03125
        },
        {
          "name": "B2",
          "midi": 47,
          "time": 126.5,
          "velocity": 0.905511811023622,
          "duration": 0.0390625
        },
        {
          "name": "B2",
          "midi": 47,
          "time": 126.5625,
          "velocity": 1,
          "duration": 0.28125
        },
        {
          "name": "B2",
          "midi": 47,
          "time": 133.6875,
          "velocity": 0.8818897637795275,
          "duration": 0.0390625
        },
        {
          "name": "B2",
          "midi": 47,
          "time": 133.7421875,
          "velocity": 0.8661417322834646,
          "duration": 0.0390625
        },
        {
          "name": "B2",
          "midi": 47,
          "time": 133.8046875,
          "velocity": 0.8582677165354331,
          "duration": 0.0234375
        },
        {
          "name": "B2",
          "midi": 47,
          "time": 133.8671875,
          "velocity": 1,
          "duration": 0.2734375
        },
        {
          "name": "B2",
          "midi": 47,
          "time": 135.3671875,
          "velocity": 0.8740157480314961,
          "duration": 0.03125
        },
        {
          "name": "B2",
          "midi": 47,
          "time": 135.4375,
          "velocity": 0.8661417322834646,
          "duration": 0.0234375
        },
        {
          "name": "B2",
          "midi": 47,
          "time": 135.4921875,
          "velocity": 0.8503937007874016,
          "duration": 0.0234375
        },
        {
          "name": "B2",
          "midi": 47,
          "time": 135.5546875,
          "velocity": 1,
          "duration": 0.2890625
        }
      ],
      "controlChanges": {
        "7": [
          {
            "number": 7,
            "time": 0,
            "value": 0.7086614173228346
          }
        ],
        "10": [
          {
            "number": 10,
            "time": 0,
            "value": 0.6929133858267716
          },
          {
            "number": 10,
            "time": 124.8671875,
            "value": 0.5039370078740157
          }
        ],
        "11": [
          {
            "number": 11,
            "time": 0.046875,
            "value": 1
          },
          {
            "number": 11,
            "time": 124.875,
            "value": 1
          }
        ],
        "91": [
          {
            "number": 91,
            "time": 0.0390625,
            "value": 0.5511811023622047
          }
        ],
        "93": [
          {
            "number": 93,
            "time": 0.0390625,
            "value": 0.23622047244094488
          }
        ]
      }
    },
    {
      "startTime": 99.5625,
      "duration": 163.7734375,
      "length": 297,
      "id": 8,
      "name": "Timpani",
      "instrumentNumber": 47,
      "instrument": "timpani",
      "instrumentFamily": "strings",
      "channelNumber": 7,
      "isPercussion": false,
      "notes": [
        {
          "name": "C#3",
          "midi": 49,
          "time": 99.5625,
          "velocity": 0.937007874015748,
          "duration": 0.0859375
        },
        {
          "name": "C#3",
          "midi": 49,
          "time": 101.234375,
          "velocity": 0.9606299212598425,
          "duration": 0.0859375
        },
        {
          "name": "C#3",
          "midi": 49,
          "time": 102.9296875,
          "velocity": 0.9606299212598425,
          "duration": 0.0859375
        },
        {
          "name": "C#3",
          "midi": 49,
          "time": 104.625,
          "velocity": 0.9606299212598425,
          "duration": 0.0859375
        },
        {
          "name": "C#3",
          "midi": 49,
          "time": 106.296875,
          "velocity": 0.9606299212598425,
          "duration": 0.0859375
        },
        {
          "name": "C#3",
          "midi": 49,
          "time": 107.9921875,
          "velocity": 0.9448818897637795,
          "duration": 0.0859375
        },
        {
          "name": "C#3",
          "midi": 49,
          "time": 109.671875,
          "velocity": 0.9606299212598425,
          "duration": 0.0859375
        },
        {
          "name": "C#3",
          "midi": 49,
          "time": 111.359375,
          "velocity": 0.937007874015748,
          "duration": 0.0859375
        },
        {
          "name": "C#3",
          "midi": 49,
          "time": 113.046875,
          "velocity": 0.952755905511811,
          "duration": 0.0859375
        },
        {
          "name": "C#3",
          "midi": 49,
          "time": 114.7421875,
          "velocity": 0.9606299212598425,
          "duration": 0.0859375
        },
        {
          "name": "C#3",
          "midi": 49,
          "time": 116.4296875,
          "velocity": 0.9448818897637795,
          "duration": 0.0859375
        },
        {
          "name": "C#3",
          "midi": 49,
          "time": 118.1171875,
          "velocity": 0.9606299212598425,
          "duration": 0.0859375
        },
        {
          "name": "C#3",
          "midi": 49,
          "time": 119.796875,
          "velocity": 0.9606299212598425,
          "duration": 0.0859375
        },
        {
          "name": "C#3",
          "midi": 49,
          "time": 121.4921875,
          "velocity": 0.952755905511811,
          "duration": 0.0859375
        },
        {
          "name": "C#3",
          "midi": 49,
          "time": 123.171875,
          "velocity": 0.952755905511811,
          "duration": 0.0859375
        },
        {
          "name": "C#3",
          "midi": 49,
          "time": 124.875,
          "velocity": 0.9606299212598425,
          "duration": 0.0859375
        },
        {
          "name": "C#3",
          "midi": 49,
          "time": 125.984375,
          "velocity": 0.5669291338582677,
          "duration": 0.0078125
        },
        {
          "name": "C#3",
          "midi": 49,
          "time": 126.03125,
          "velocity": 0.5669291338582677,
          "duration": 0.0078125
        },
        {
          "name": "C#3",
          "midi": 49,
          "time": 126.0859375,
          "velocity": 0.6220472440944882,
          "duration": 0.0078125
        },
        {
          "name": "C#3",
          "midi": 49,
          "time": 126.125,
          "velocity": 0.6299212598425197,
          "duration": 0.0078125
        },
        {
          "name": "C#3",
          "midi": 49,
          "time": 126.1796875,
          "velocity": 0.6614173228346457,
          "duration": 0.0078125
        },
        {
          "name": "C#3",
          "midi": 49,
          "time": 126.21875,
          "velocity": 0.6692913385826772,
          "duration": 0.0078125
        },
        {
          "name": "C#3",
          "midi": 49,
          "time": 126.265625,
          "velocity": 0.5354330708661418,
          "duration": 0.0078125
        },
        {
          "name": "C#3",
          "midi": 49,
          "time": 126.3203125,
          "velocity": 0.5511811023622047,
          "duration": 0.0078125
        },
        {
          "name": "C#3",
          "midi": 49,
          "time": 126.375,
          "velocity": 0.5669291338582677,
          "duration": 0.0078125
        },
        {
          "name": "C#3",
          "midi": 49,
          "time": 126.4140625,
          "velocity": 0.6062992125984252,
          "duration": 0.0078125
        },
        {
          "name": "C#3",
          "midi": 49,
          "time": 126.453125,
          "velocity": 0.6220472440944882,
          "duration": 0.0078125
        },
        {
          "name": "C#3",
          "midi": 49,
          "time": 126.5078125,
          "velocity": 0.6299212598425197,
          "duration": 0.0078125
        },
        {
          "name": "C#3",
          "midi": 49,
          "time": 126.5625,
          "velocity": 0.9763779527559056,
          "duration": 0.0859375
        },
        {
          "name": "C#3",
          "midi": 49,
          "time": 127.6796875,
          "velocity": 0.6456692913385826,
          "duration": 0.0078125
        },
        {
          "name": "C#3",
          "midi": 49,
          "time": 127.7265625,
          "velocity": 0.6692913385826772,
          "duration": 0.0078125
        },
        {
          "name": "C#3",
          "midi": 49,
          "time": 127.765625,
          "velocity": 0.6929133858267716,
          "duration": 0.0078125
        },
        {
          "name": "C#3",
          "midi": 49,
          "time": 127.8203125,
          "velocity": 0.7244094488188977,
          "duration": 0.0078125
        },
        {
          "name": "C#3",
          "midi": 49,
          "time": 127.859375,
          "velocity": 0.7244094488188977,
          "duration": 0.0078125
        },
        {
          "name": "C#3",
          "midi": 49,
          "time": 127.9140625,
          "velocity": 0.7637795275590551,
          "duration": 0.0078125
        },
        {
          "name": "C#3",
          "midi": 49,
          "time": 127.9609375,
          "velocity": 0.6062992125984252,
          "duration": 0.0078125
        },
        {
          "name": "C#3",
          "midi": 49,
          "time": 128,
          "velocity": 0.6062992125984252,
          "duration": 0.0078125
        },
        {
          "name": "C#3",
          "midi": 49,
          "time": 128.0546875,
          "velocity": 0.6850393700787402,
          "duration": 0.0078125
        },
        {
          "name": "C#3",
          "midi": 49,
          "time": 128.1015625,
          "velocity": 0.6771653543307087,
          "duration": 0.0078125
        },
        {
          "name": "C#3",
          "midi": 49,
          "time": 128.1484375,
          "velocity": 0.7086614173228346,
          "duration": 0.0078125
        },
        {
          "name": "C#3",
          "midi": 49,
          "time": 128.1953125,
          "velocity": 0.7007874015748031,
          "duration": 0.0078125
        },
        {
          "name": "C#3",
          "midi": 49,
          "time": 128.2421875,
          "velocity": 0.5590551181102362,
          "duration": 0.0078125
        },
        {
          "name": "C#3",
          "midi": 49,
          "time": 128.2890625,
          "velocity": 0.5590551181102362,
          "duration": 0.0078125
        },
        {
          "name": "C#3",
          "midi": 49,
          "time": 128.328125,
          "velocity": 0.5669291338582677,
          "duration": 0.0078125
        },
        {
          "name": "C#3",
          "midi": 49,
          "time": 128.3828125,
          "velocity": 0.5433070866141733,
          "duration": 0.0078125
        },
        {
          "name": "C#3",
          "midi": 49,
          "time": 128.4296875,
          "velocity": 0.5590551181102362,
          "duration": 0.0078125
        },
        {
          "name": "C#3",
          "midi": 49,
          "time": 128.4765625,
          "velocity": 0.5590551181102362,
          "duration": 0.0078125
        },
        {
          "name": "C#3",
          "midi": 49,
          "time": 128.5234375,
          "velocity": 0.5433070866141733,
          "duration": 0.0078125
        },
        {
          "name": "C#3",
          "midi": 49,
          "time": 128.5703125,
          "velocity": 0.5433070866141733,
          "duration": 0.0078125
        },
        {
          "name": "C#3",
          "midi": 49,
          "time": 128.609375,
          "velocity": 0.5590551181102362,
          "duration": 0.0078125
        },
        {
          "name": "C#3",
          "midi": 49,
          "time": 128.65625,
          "velocity": 0.5590551181102362,
          "duration": 0.0078125
        },
        {
          "name": "C#3",
          "midi": 49,
          "time": 128.7109375,
          "velocity": 0.5590551181102362,
          "duration": 0.0078125
        },
        {
          "name": "C#3",
          "midi": 49,
          "time": 128.7578125,
          "velocity": 0.5669291338582677,
          "duration": 0.0078125
        },
        {
          "name": "C#3",
          "midi": 49,
          "time": 128.8046875,
          "velocity": 0.5354330708661418,
          "duration": 0.0078125
        },
        {
          "name": "C#3",
          "midi": 49,
          "time": 128.84375,
          "velocity": 0.5275590551181102,
          "duration": 0.0078125
        },
        {
          "name": "C#3",
          "midi": 49,
          "time": 128.8984375,
          "velocity": 0.5275590551181102,
          "duration": 0.0078125
        },
        {
          "name": "C#3",
          "midi": 49,
          "time": 128.9375,
          "velocity": 0.5275590551181102,
          "duration": 0.0078125
        },
        {
          "name": "C#3",
          "midi": 49,
          "time": 128.984375,
          "velocity": 0.5590551181102362,
          "duration": 0.0078125
        },
        {
          "name": "C#3",
          "midi": 49,
          "time": 129.03125,
          "velocity": 0.5590551181102362,
          "duration": 0.0078125
        },
        {
          "name": "C#3",
          "midi": 49,
          "time": 129.0859375,
          "velocity": 0.5511811023622047,
          "duration": 0.0078125
        },
        {
          "name": "C#3",
          "midi": 49,
          "time": 129.125,
          "velocity": 0.5511811023622047,
          "duration": 0.0078125
        },
        {
          "name": "C#3",
          "midi": 49,
          "time": 129.1796875,
          "velocity": 0.5984251968503937,
          "duration": 0.0078125
        },
        {
          "name": "C#3",
          "midi": 49,
          "time": 129.2265625,
          "velocity": 0.5826771653543307,
          "duration": 0.0078125
        },
        {
          "name": "C#3",
          "midi": 49,
          "time": 129.2734375,
          "velocity": 0.6220472440944882,
          "duration": 0.0078125
        },
        {
          "name": "C#3",
          "midi": 49,
          "time": 129.3203125,
          "velocity": 0.6141732283464567,
          "duration": 0.0078125
        },
        {
          "name": "C#3",
          "midi": 49,
          "time": 129.3671875,
          "velocity": 0.6535433070866141,
          "duration": 0.0078125
        },
        {
          "name": "C#3",
          "midi": 49,
          "time": 129.40625,
          "velocity": 0.6771653543307087,
          "duration": 0.0078125
        },
        {
          "name": "C#3",
          "midi": 49,
          "time": 129.453125,
          "velocity": 0.7165354330708661,
          "duration": 0.0078125
        },
        {
          "name": "C#3",
          "midi": 49,
          "time": 129.5,
          "velocity": 0.7244094488188977,
          "duration": 0.0078125
        },
        {
          "name": "C#3",
          "midi": 49,
          "time": 129.546875,
          "velocity": 0.7637795275590551,
          "duration": 0.0078125
        },
        {
          "name": "C#3",
          "midi": 49,
          "time": 129.59375,
          "velocity": 0.7322834645669292,
          "duration": 0.0078125
        },
        {
          "name": "C#3",
          "midi": 49,
          "time": 129.6484375,
          "velocity": 0.6299212598425197,
          "duration": 0.0078125
        },
        {
          "name": "C#3",
          "midi": 49,
          "time": 129.6953125,
          "velocity": 0.6141732283464567,
          "duration": 0.0078125
        },
        {
          "name": "C#3",
          "midi": 49,
          "time": 129.734375,
          "velocity": 0.6771653543307087,
          "duration": 0.0078125
        },
        {
          "name": "C#3",
          "midi": 49,
          "time": 129.78125,
          "velocity": 0.6850393700787402,
          "duration": 0.0078125
        },
        {
          "name": "C#3",
          "midi": 49,
          "time": 129.828125,
          "velocity": 0.7007874015748031,
          "duration": 0.0078125
        },
        {
          "name": "C#3",
          "midi": 49,
          "time": 129.875,
          "velocity": 0.7244094488188977,
          "duration": 0.0078125
        },
        {
          "name": "C#3",
          "midi": 49,
          "time": 129.9296875,
          "velocity": 0.5669291338582677,
          "duration": 0.0078125
        },
        {
          "name": "C#3",
          "midi": 49,
          "time": 129.96875,
          "velocity": 0.5433070866141733,
          "duration": 0.0078125
        },
        {
          "name": "C#3",
          "midi": 49,
          "time": 130.0234375,
          "velocity": 0.5354330708661418,
          "duration": 0.0078125
        },
        {
          "name": "C#3",
          "midi": 49,
          "time": 130.0703125,
          "velocity": 0.5511811023622047,
          "duration": 0.0078125
        },
        {
          "name": "C#3",
          "midi": 49,
          "time": 130.109375,
          "velocity": 0.5669291338582677,
          "duration": 0.0078125
        },
        {
          "name": "C#3",
          "midi": 49,
          "time": 130.15625,
          "velocity": 0.5354330708661418,
          "duration": 0.0078125
        },
        {
          "name": "C#3",
          "midi": 49,
          "time": 130.2109375,
          "velocity": 0.5433070866141733,
          "duration": 0.0078125
        },
        {
          "name": "C#3",
          "midi": 49,
          "time": 130.2578125,
          "velocity": 0.5433070866141733,
          "duration": 0.0078125
        },
        {
          "name": "C#3",
          "midi": 49,
          "time": 130.296875,
          "velocity": 0.5354330708661418,
          "duration": 0.0078125
        },
        {
          "name": "C#3",
          "midi": 49,
          "time": 130.34375,
          "velocity": 0.5590551181102362,
          "duration": 0.0078125
        },
        {
          "name": "C#3",
          "midi": 49,
          "time": 130.3984375,
          "velocity": 0.5354330708661418,
          "duration": 0.0078125
        },
        {
          "name": "C#3",
          "midi": 49,
          "time": 130.4453125,
          "velocity": 0.5590551181102362,
          "duration": 0.0078125
        },
        {
          "name": "C#3",
          "midi": 49,
          "time": 130.4921875,
          "velocity": 0.5590551181102362,
          "duration": 0.0078125
        },
        {
          "name": "C#3",
          "midi": 49,
          "time": 130.53125,
          "velocity": 0.5275590551181102,
          "duration": 0.0078125
        },
        {
          "name": "C#3",
          "midi": 49,
          "time": 130.578125,
          "velocity": 0.5669291338582677,
          "duration": 0.0078125
        },
        {
          "name": "C#3",
          "midi": 49,
          "time": 130.625,
          "velocity": 0.5511811023622047,
          "duration": 0.0078125
        },
        {
          "name": "C#3",
          "midi": 49,
          "time": 130.671875,
          "velocity": 0.5354330708661418,
          "duration": 0.0078125
        },
        {
          "name": "C#3",
          "midi": 49,
          "time": 130.7265625,
          "velocity": 0.5590551181102362,
          "duration": 0.0078125
        },
        {
          "name": "C#3",
          "midi": 49,
          "time": 130.7734375,
          "velocity": 0.5590551181102362,
          "duration": 0.0078125
        },
        {
          "name": "C#3",
          "midi": 49,
          "time": 130.8125,
          "velocity": 0.5669291338582677,
          "duration": 0.0078125
        },
        {
          "name": "C#3",
          "midi": 49,
          "time": 130.8671875,
          "velocity": 0.5984251968503937,
          "duration": 0.0078125
        },
        {
          "name": "C#3",
          "midi": 49,
          "time": 130.90625,
          "velocity": 0.5905511811023622,
          "duration": 0.0078125
        },
        {
          "name": "C#3",
          "midi": 49,
          "time": 130.9609375,
          "velocity": 0.6141732283464567,
          "duration": 0.0078125
        },
        {
          "name": "C#3",
          "midi": 49,
          "time": 131.0078125,
          "velocity": 0.6456692913385826,
          "duration": 0.0078125
        },
        {
          "name": "C#3",
          "midi": 49,
          "time": 131.0546875,
          "velocity": 0.6692913385826772,
          "duration": 0.0078125
        },
        {
          "name": "C#3",
          "midi": 49,
          "time": 131.1015625,
          "velocity": 0.6771653543307087,
          "duration": 0.0078125
        },
        {
          "name": "C#3",
          "midi": 49,
          "time": 131.140625,
          "velocity": 0.6850393700787402,
          "duration": 0.0078125
        },
        {
          "name": "C#3",
          "midi": 49,
          "time": 131.1953125,
          "velocity": 0.7086614173228346,
          "duration": 0.0078125
        },
        {
          "name": "C#3",
          "midi": 49,
          "time": 131.234375,
          "velocity": 0.7322834645669292,
          "duration": 0.0078125
        },
        {
          "name": "C#3",
          "midi": 49,
          "time": 131.28125,
          "velocity": 0.7322834645669292,
          "duration": 0.0078125
        },
        {
          "name": "C#3",
          "midi": 49,
          "time": 131.3359375,
          "velocity": 0.6377952755905512,
          "duration": 0.0078125
        },
        {
          "name": "C#3",
          "midi": 49,
          "time": 131.375,
          "velocity": 0.6220472440944882,
          "duration": 0.0078125
        },
        {
          "name": "C#3",
          "midi": 49,
          "time": 131.4296875,
          "velocity": 0.6456692913385826,
          "duration": 0.0078125
        },
        {
          "name": "C#3",
          "midi": 49,
          "time": 131.4765625,
          "velocity": 0.6614173228346457,
          "duration": 0.0078125
        },
        {
          "name": "C#3",
          "midi": 49,
          "time": 131.5234375,
          "velocity": 0.7244094488188977,
          "duration": 0.0078125
        },
        {
          "name": "C#3",
          "midi": 49,
          "time": 131.5625,
          "velocity": 0.6850393700787402,
          "duration": 0.0078125
        },
        {
          "name": "C#3",
          "midi": 49,
          "time": 131.609375,
          "velocity": 0.9448818897637795,
          "duration": 0.2109375
        },
        {
          "name": "C#3",
          "midi": 49,
          "time": 133.296875,
          "velocity": 0.5511811023622047,
          "duration": 0.0078125
        },
        {
          "name": "C#3",
          "midi": 49,
          "time": 133.3515625,
          "velocity": 0.5354330708661418,
          "duration": 0.0078125
        },
        {
          "name": "C#3",
          "midi": 49,
          "time": 133.390625,
          "velocity": 0.5511811023622047,
          "duration": 0.0078125
        },
        {
          "name": "C#3",
          "midi": 49,
          "time": 133.4375,
          "velocity": 0.5669291338582677,
          "duration": 0.0078125
        },
        {
          "name": "C#3",
          "midi": 49,
          "time": 133.4921875,
          "velocity": 0.5433070866141733,
          "duration": 0.0078125
        },
        {
          "name": "C#3",
          "midi": 49,
          "time": 133.5390625,
          "velocity": 0.5275590551181102,
          "duration": 0.0078125
        },
        {
          "name": "C#3",
          "midi": 49,
          "time": 133.5859375,
          "velocity": 0.5669291338582677,
          "duration": 0.0078125
        },
        {
          "name": "C#3",
          "midi": 49,
          "time": 133.6328125,
          "velocity": 0.5590551181102362,
          "duration": 0.0078125
        },
        {
          "name": "C#3",
          "midi": 49,
          "time": 133.671875,
          "velocity": 0.5669291338582677,
          "duration": 0.0078125
        },
        {
          "name": "C#3",
          "midi": 49,
          "time": 133.7265625,
          "velocity": 0.5433070866141733,
          "duration": 0.0078125
        },
        {
          "name": "C#3",
          "midi": 49,
          "time": 133.765625,
          "velocity": 0.5354330708661418,
          "duration": 0.0078125
        },
        {
          "name": "C#3",
          "midi": 49,
          "time": 133.8203125,
          "velocity": 0.5275590551181102,
          "duration": 0.0078125
        },
        {
          "name": "C#3",
          "midi": 49,
          "time": 133.859375,
          "velocity": 0.5511811023622047,
          "duration": 0.0078125
        },
        {
          "name": "C#3",
          "midi": 49,
          "time": 133.9140625,
          "velocity": 0.5590551181102362,
          "duration": 0.0078125
        },
        {
          "name": "C#3",
          "midi": 49,
          "time": 133.9609375,
          "velocity": 0.5275590551181102,
          "duration": 0.0078125
        },
        {
          "name": "C#3",
          "midi": 49,
          "time": 134.0078125,
          "velocity": 0.5669291338582677,
          "duration": 0.0078125
        },
        {
          "name": "C#3",
          "midi": 49,
          "time": 134.046875,
          "velocity": 0.5354330708661418,
          "duration": 0.0078125
        },
        {
          "name": "C#3",
          "midi": 49,
          "time": 134.1015625,
          "velocity": 0.5275590551181102,
          "duration": 0.0078125
        },
        {
          "name": "C#3",
          "midi": 49,
          "time": 134.140625,
          "velocity": 0.5590551181102362,
          "duration": 0.0078125
        },
        {
          "name": "C#3",
          "midi": 49,
          "time": 134.1875,
          "velocity": 0.5590551181102362,
          "duration": 0.0078125
        },
        {
          "name": "C#3",
          "midi": 49,
          "time": 134.2421875,
          "velocity": 0.5354330708661418,
          "duration": 0.0078125
        },
        {
          "name": "C#3",
          "midi": 49,
          "time": 134.28125,
          "velocity": 0.5433070866141733,
          "duration": 0.0078125
        },
        {
          "name": "C#3",
          "midi": 49,
          "time": 134.3359375,
          "velocity": 0.6377952755905512,
          "duration": 0.0078125
        },
        {
          "name": "C#3",
          "midi": 49,
          "time": 134.3828125,
          "velocity": 0.6062992125984252,
          "duration": 0.0078125
        },
        {
          "name": "C#3",
          "midi": 49,
          "time": 134.4296875,
          "velocity": 0.6456692913385826,
          "duration": 0.0078125
        },
        {
          "name": "C#3",
          "midi": 49,
          "time": 134.46875,
          "velocity": 0.6456692913385826,
          "duration": 0.0078125
        },
        {
          "name": "C#3",
          "midi": 49,
          "time": 134.515625,
          "velocity": 0.7244094488188977,
          "duration": 0.0078125
        },
        {
          "name": "C#3",
          "midi": 49,
          "time": 134.5703125,
          "velocity": 0.6929133858267716,
          "duration": 0.0078125
        },
        {
          "name": "C#3",
          "midi": 49,
          "time": 134.609375,
          "velocity": 0.7480314960629921,
          "duration": 0.0078125
        },
        {
          "name": "C#3",
          "midi": 49,
          "time": 134.65625,
          "velocity": 0.7244094488188977,
          "duration": 0.0078125
        },
        {
          "name": "C#3",
          "midi": 49,
          "time": 134.703125,
          "velocity": 0.6062992125984252,
          "duration": 0.0078125
        },
        {
          "name": "C#3",
          "midi": 49,
          "time": 134.7578125,
          "velocity": 0.6062992125984252,
          "duration": 0.0078125
        },
        {
          "name": "C#3",
          "midi": 49,
          "time": 134.796875,
          "velocity": 0.6614173228346457,
          "duration": 0.0078125
        },
        {
          "name": "C#3",
          "midi": 49,
          "time": 134.84375,
          "velocity": 0.6850393700787402,
          "duration": 0.0078125
        },
        {
          "name": "C#3",
          "midi": 49,
          "time": 134.8984375,
          "velocity": 0.7165354330708661,
          "duration": 0.0078125
        },
        {
          "name": "C#3",
          "midi": 49,
          "time": 134.9453125,
          "velocity": 0.7086614173228346,
          "duration": 0.0078125
        },
        {
          "name": "C#3",
          "midi": 49,
          "time": 134.984375,
          "velocity": 0.5511811023622047,
          "duration": 0.0078125
        },
        {
          "name": "C#3",
          "midi": 49,
          "time": 135.03125,
          "velocity": 0.5275590551181102,
          "duration": 0.0078125
        },
        {
          "name": "C#3",
          "midi": 49,
          "time": 135.078125,
          "velocity": 0.5590551181102362,
          "duration": 0.0078125
        },
        {
          "name": "C#3",
          "midi": 49,
          "time": 135.1328125,
          "velocity": 0.5511811023622047,
          "duration": 0.0078125
        },
        {
          "name": "C#3",
          "midi": 49,
          "time": 135.1796875,
          "velocity": 0.5275590551181102,
          "duration": 0.0078125
        },
        {
          "name": "C#3",
          "midi": 49,
          "time": 135.21875,
          "velocity": 0.5511811023622047,
          "duration": 0.0078125
        },
        {
          "name": "C#3",
          "midi": 49,
          "time": 135.2734375,
          "velocity": 0.5511811023622047,
          "duration": 0.0078125
        },
        {
          "name": "C#3",
          "midi": 49,
          "time": 135.3203125,
          "velocity": 0.5275590551181102,
          "duration": 0.0078125
        },
        {
          "name": "C#3",
          "midi": 49,
          "time": 135.359375,
          "velocity": 0.5511811023622047,
          "duration": 0.0078125
        },
        {
          "name": "C#3",
          "midi": 49,
          "time": 135.40625,
          "velocity": 0.5511811023622047,
          "duration": 0.0078125
        },
        {
          "name": "C#3",
          "midi": 49,
          "time": 135.4609375,
          "velocity": 0.5433070866141733,
          "duration": 0.0078125
        },
        {
          "name": "C#3",
          "midi": 49,
          "time": 135.5,
          "velocity": 0.5669291338582677,
          "duration": 0.0078125
        },
        {
          "name": "C#3",
          "midi": 49,
          "time": 135.5546875,
          "velocity": 0.5433070866141733,
          "duration": 0.0078125
        },
        {
          "name": "C#3",
          "midi": 49,
          "time": 135.59375,
          "velocity": 0.5669291338582677,
          "duration": 0.0078125
        },
        {
          "name": "C#3",
          "midi": 49,
          "time": 135.640625,
          "velocity": 0.5354330708661418,
          "duration": 0.0078125
        },
        {
          "name": "C#3",
          "midi": 49,
          "time": 135.6953125,
          "velocity": 0.5275590551181102,
          "duration": 0.0078125
        },
        {
          "name": "C#3",
          "midi": 49,
          "time": 135.734375,
          "velocity": 0.5354330708661418,
          "duration": 0.0078125
        },
        {
          "name": "C#3",
          "midi": 49,
          "time": 135.7890625,
          "velocity": 0.5590551181102362,
          "duration": 0.0078125
        },
        {
          "name": "C#3",
          "midi": 49,
          "time": 135.828125,
          "velocity": 0.5354330708661418,
          "duration": 0.0078125
        },
        {
          "name": "C#3",
          "midi": 49,
          "time": 135.8828125,
          "velocity": 0.5669291338582677,
          "duration": 0.0078125
        },
        {
          "name": "C#3",
          "midi": 49,
          "time": 135.921875,
          "velocity": 0.5826771653543307,
          "duration": 0.0078125
        },
        {
          "name": "C#3",
          "midi": 49,
          "time": 135.96875,
          "velocity": 0.6062992125984252,
          "duration": 0.0078125
        },
        {
          "name": "C#3",
          "midi": 49,
          "time": 136.0234375,
          "velocity": 0.6377952755905512,
          "duration": 0.0078125
        },
        {
          "name": "C#3",
          "midi": 49,
          "time": 136.0703125,
          "velocity": 0.6299212598425197,
          "duration": 0.0078125
        },
        {
          "name": "C#3",
          "midi": 49,
          "time": 136.109375,
          "velocity": 0.6692913385826772,
          "duration": 0.0078125
        },
        {
          "name": "C#3",
          "midi": 49,
          "time": 136.1640625,
          "velocity": 0.6456692913385826,
          "duration": 0.0078125
        },
        {
          "name": "C#3",
          "midi": 49,
          "time": 136.2109375,
          "velocity": 0.7244094488188977,
          "duration": 0.0078125
        },
        {
          "name": "C#3",
          "midi": 49,
          "time": 136.2578125,
          "velocity": 0.7165354330708661,
          "duration": 0.0078125
        },
        {
          "name": "C#3",
          "midi": 49,
          "time": 136.296875,
          "velocity": 0.7559055118110236,
          "duration": 0.0078125
        },
        {
          "name": "C#3",
          "midi": 49,
          "time": 136.3515625,
          "velocity": 0.7401574803149606,
          "duration": 0.0078125
        },
        {
          "name": "C#3",
          "midi": 49,
          "time": 136.3984375,
          "velocity": 0.6062992125984252,
          "duration": 0.0078125
        },
        {
          "name": "C#3",
          "midi": 49,
          "time": 136.4453125,
          "velocity": 0.6220472440944882,
          "duration": 0.0078125
        },
        {
          "name": "C#3",
          "midi": 49,
          "time": 136.484375,
          "velocity": 0.6692913385826772,
          "duration": 0.0078125
        },
        {
          "name": "C#3",
          "midi": 49,
          "time": 136.53125,
          "velocity": 0.6614173228346457,
          "duration": 0.0078125
        },
        {
          "name": "C#3",
          "midi": 49,
          "time": 136.5859375,
          "velocity": 0.7165354330708661,
          "duration": 0.0078125
        },
        {
          "name": "C#3",
          "midi": 49,
          "time": 136.6328125,
          "velocity": 0.7007874015748031,
          "duration": 0.0078125
        },
        {
          "name": "C#3",
          "midi": 49,
          "time": 136.6796875,
          "velocity": 0.5354330708661418,
          "duration": 0.0078125
        },
        {
          "name": "C#3",
          "midi": 49,
          "time": 136.7265625,
          "velocity": 0.5669291338582677,
          "duration": 0.0078125
        },
        {
          "name": "C#3",
          "midi": 49,
          "time": 136.765625,
          "velocity": 0.5511811023622047,
          "duration": 0.0078125
        },
        {
          "name": "C#3",
          "midi": 49,
          "time": 136.8125,
          "velocity": 0.5511811023622047,
          "duration": 0.0078125
        },
        {
          "name": "C#3",
          "midi": 49,
          "time": 136.859375,
          "velocity": 0.5275590551181102,
          "duration": 0.0078125
        },
        {
          "name": "C#3",
          "midi": 49,
          "time": 136.9140625,
          "velocity": 0.5275590551181102,
          "duration": 0.0078125
        },
        {
          "name": "C#3",
          "midi": 49,
          "time": 136.9609375,
          "velocity": 0.5590551181102362,
          "duration": 0.0078125
        },
        {
          "name": "C#3",
          "midi": 49,
          "time": 137,
          "velocity": 0.5433070866141733,
          "duration": 0.0078125
        },
        {
          "name": "C#3",
          "midi": 49,
          "time": 137.046875,
          "velocity": 0.5354330708661418,
          "duration": 0.0078125
        },
        {
          "name": "C#3",
          "midi": 49,
          "time": 137.09375,
          "velocity": 0.5354330708661418,
          "duration": 0.0078125
        },
        {
          "name": "C#3",
          "midi": 49,
          "time": 137.140625,
          "velocity": 0.5433070866141733,
          "duration": 0.0078125
        },
        {
          "name": "C#3",
          "midi": 49,
          "time": 137.1953125,
          "velocity": 0.5354330708661418,
          "duration": 0.0078125
        },
        {
          "name": "C#3",
          "midi": 49,
          "time": 137.2421875,
          "velocity": 0.5669291338582677,
          "duration": 0.0078125
        },
        {
          "name": "C#3",
          "midi": 49,
          "time": 137.2890625,
          "velocity": 0.5511811023622047,
          "duration": 0.0078125
        },
        {
          "name": "C#3",
          "midi": 49,
          "time": 137.3359375,
          "velocity": 0.5511811023622047,
          "duration": 0.0078125
        },
        {
          "name": "C#3",
          "midi": 49,
          "time": 137.375,
          "velocity": 0.5433070866141733,
          "duration": 0.0078125
        },
        {
          "name": "C#3",
          "midi": 49,
          "time": 137.421875,
          "velocity": 0.5669291338582677,
          "duration": 0.0078125
        },
        {
          "name": "C#3",
          "midi": 49,
          "time": 137.46875,
          "velocity": 0.5275590551181102,
          "duration": 0.0078125
        },
        {
          "name": "C#3",
          "midi": 49,
          "time": 137.515625,
          "velocity": 0.5354330708661418,
          "duration": 0.0078125
        },
        {
          "name": "C#3",
          "midi": 49,
          "time": 137.5625,
          "velocity": 0.5590551181102362,
          "duration": 0.0078125
        },
        {
          "name": "C#3",
          "midi": 49,
          "time": 137.6171875,
          "velocity": 0.5905511811023622,
          "duration": 0.0078125
        },
        {
          "name": "C#3",
          "midi": 49,
          "time": 137.65625,
          "velocity": 0.6062992125984252,
          "duration": 0.0078125
        },
        {
          "name": "C#3",
          "midi": 49,
          "time": 137.703125,
          "velocity": 0.6377952755905512,
          "duration": 0.0078125
        },
        {
          "name": "C#3",
          "midi": 49,
          "time": 137.75,
          "velocity": 0.6456692913385826,
          "duration": 0.0078125
        },
        {
          "name": "C#3",
          "midi": 49,
          "time": 137.8046875,
          "velocity": 0.6614173228346457,
          "duration": 0.0078125
        },
        {
          "name": "C#3",
          "midi": 49,
          "time": 137.8515625,
          "velocity": 0.6692913385826772,
          "duration": 0.0078125
        },
        {
          "name": "C#3",
          "midi": 49,
          "time": 137.8984375,
          "velocity": 0.7244094488188977,
          "duration": 0.0078125
        },
        {
          "name": "C#3",
          "midi": 49,
          "time": 137.9453125,
          "velocity": 0.7086614173228346,
          "duration": 0.0078125
        },
        {
          "name": "C#3",
          "midi": 49,
          "time": 137.9921875,
          "velocity": 0.7322834645669292,
          "duration": 0.0078125
        },
        {
          "name": "C#3",
          "midi": 49,
          "time": 138.03125,
          "velocity": 0.7401574803149606,
          "duration": 0.0078125
        },
        {
          "name": "C#3",
          "midi": 49,
          "time": 138.0859375,
          "velocity": 0.6141732283464567,
          "duration": 0.0078125
        },
        {
          "name": "C#3",
          "midi": 49,
          "time": 138.125,
          "velocity": 0.6299212598425197,
          "duration": 0.0078125
        },
        {
          "name": "C#3",
          "midi": 49,
          "time": 138.1875,
          "velocity": 0.6614173228346457,
          "duration": 0.0078125
        },
        {
          "name": "C#3",
          "midi": 49,
          "time": 138.21875,
          "velocity": 0.6456692913385826,
          "duration": 0.0078125
        },
        {
          "name": "C#3",
          "midi": 49,
          "time": 138.2734375,
          "velocity": 0.7007874015748031,
          "duration": 0.0078125
        },
        {
          "name": "C#3",
          "midi": 49,
          "time": 138.3203125,
          "velocity": 0.6850393700787402,
          "duration": 0.0078125
        },
        {
          "name": "C#3",
          "midi": 49,
          "time": 138.375,
          "velocity": 0.9448818897637795,
          "duration": 0.3125
        },
        {
          "name": "C#3",
          "midi": 49,
          "time": 146.8046875,
          "velocity": 0.5590551181102362,
          "duration": 0.0078125
        },
        {
          "name": "C#3",
          "midi": 49,
          "time": 146.8515625,
          "velocity": 0.5433070866141733,
          "duration": 0.0078125
        },
        {
          "name": "C#3",
          "midi": 49,
          "time": 146.890625,
          "velocity": 0.5275590551181102,
          "duration": 0.0078125
        },
        {
          "name": "C#3",
          "midi": 49,
          "time": 146.9453125,
          "velocity": 0.5590551181102362,
          "duration": 0.0078125
        },
        {
          "name": "C#3",
          "midi": 49,
          "time": 146.9921875,
          "velocity": 0.5590551181102362,
          "duration": 0.0078125
        },
        {
          "name": "C#3",
          "midi": 49,
          "time": 147.0390625,
          "velocity": 0.5275590551181102,
          "duration": 0.0078125
        },
        {
          "name": "C#3",
          "midi": 49,
          "time": 147.0859375,
          "velocity": 0.5511811023622047,
          "duration": 0.0078125
        },
        {
          "name": "C#3",
          "midi": 49,
          "time": 147.1328125,
          "velocity": 0.5669291338582677,
          "duration": 0.0078125
        },
        {
          "name": "C#3",
          "midi": 49,
          "time": 147.1796875,
          "velocity": 0.5275590551181102,
          "duration": 0.0078125
        },
        {
          "name": "C#3",
          "midi": 49,
          "time": 147.21875,
          "velocity": 0.5590551181102362,
          "duration": 0.0078125
        },
        {
          "name": "C#3",
          "midi": 49,
          "time": 147.265625,
          "velocity": 0.5590551181102362,
          "duration": 0.0078125
        },
        {
          "name": "C#3",
          "midi": 49,
          "time": 147.3125,
          "velocity": 0.5590551181102362,
          "duration": 0.0078125
        },
        {
          "name": "C#3",
          "midi": 49,
          "time": 147.359375,
          "velocity": 0.5511811023622047,
          "duration": 0.0078125
        },
        {
          "name": "C#3",
          "midi": 49,
          "time": 147.40625,
          "velocity": 0.5590551181102362,
          "duration": 0.0078125
        },
        {
          "name": "C#3",
          "midi": 49,
          "time": 147.453125,
          "velocity": 0.5511811023622047,
          "duration": 0.0078125
        },
        {
          "name": "C#3",
          "midi": 49,
          "time": 147.5,
          "velocity": 0.5354330708661418,
          "duration": 0.0078125
        },
        {
          "name": "C#3",
          "midi": 49,
          "time": 147.546875,
          "velocity": 0.5275590551181102,
          "duration": 0.0078125
        },
        {
          "name": "C#3",
          "midi": 49,
          "time": 147.59375,
          "velocity": 0.5511811023622047,
          "duration": 0.0078125
        },
        {
          "name": "C#3",
          "midi": 49,
          "time": 147.640625,
          "velocity": 0.5590551181102362,
          "duration": 0.0078125
        },
        {
          "name": "C#3",
          "midi": 49,
          "time": 147.6875,
          "velocity": 0.5669291338582677,
          "duration": 0.0078125
        },
        {
          "name": "C#3",
          "midi": 49,
          "time": 147.734375,
          "velocity": 0.5669291338582677,
          "duration": 0.0078125
        },
        {
          "name": "C#3",
          "midi": 49,
          "time": 147.78125,
          "velocity": 0.5826771653543307,
          "duration": 0.0078125
        },
        {
          "name": "C#3",
          "midi": 49,
          "time": 147.828125,
          "velocity": 0.6141732283464567,
          "duration": 0.0078125
        },
        {
          "name": "C#3",
          "midi": 49,
          "time": 147.875,
          "velocity": 0.6299212598425197,
          "duration": 0.0078125
        },
        {
          "name": "C#3",
          "midi": 49,
          "time": 147.9296875,
          "velocity": 0.6614173228346457,
          "duration": 0.0078125
        },
        {
          "name": "C#3",
          "midi": 49,
          "time": 147.96875,
          "velocity": 0.6535433070866141,
          "duration": 0.0078125
        },
        {
          "name": "C#3",
          "midi": 49,
          "time": 148.015625,
          "velocity": 0.7165354330708661,
          "duration": 0.0078125
        },
        {
          "name": "C#3",
          "midi": 49,
          "time": 148.0703125,
          "velocity": 0.7165354330708661,
          "duration": 0.0078125
        },
        {
          "name": "C#3",
          "midi": 49,
          "time": 148.1171875,
          "velocity": 0.7559055118110236,
          "duration": 0.0078125
        },
        {
          "name": "C#3",
          "midi": 49,
          "time": 148.1640625,
          "velocity": 0.7401574803149606,
          "duration": 0.0078125
        },
        {
          "name": "C#3",
          "midi": 49,
          "time": 148.203125,
          "velocity": 0.6141732283464567,
          "duration": 0.0078125
        },
        {
          "name": "C#3",
          "midi": 49,
          "time": 148.2578125,
          "velocity": 0.6220472440944882,
          "duration": 0.0078125
        },
        {
          "name": "C#3",
          "midi": 49,
          "time": 148.3046875,
          "velocity": 0.6771653543307087,
          "duration": 0.0078125
        },
        {
          "name": "C#3",
          "midi": 49,
          "time": 148.3515625,
          "velocity": 0.6614173228346457,
          "duration": 0.0078125
        },
        {
          "name": "C#3",
          "midi": 49,
          "time": 148.390625,
          "velocity": 0.7007874015748031,
          "duration": 0.0078125
        },
        {
          "name": "C#3",
          "midi": 49,
          "time": 148.4453125,
          "velocity": 0.6850393700787402,
          "duration": 0.0078125
        },
        {
          "name": "C#3",
          "midi": 49,
          "time": 148.484375,
          "velocity": 0.5590551181102362,
          "duration": 0.0078125
        },
        {
          "name": "C#3",
          "midi": 49,
          "time": 148.53125,
          "velocity": 0.5275590551181102,
          "duration": 0.0078125
        },
        {
          "name": "C#3",
          "midi": 49,
          "time": 148.5859375,
          "velocity": 0.5275590551181102,
          "duration": 0.0078125
        },
        {
          "name": "C#3",
          "midi": 49,
          "time": 148.625,
          "velocity": 0.5275590551181102,
          "duration": 0.0078125
        },
        {
          "name": "C#3",
          "midi": 49,
          "time": 148.6796875,
          "velocity": 0.5590551181102362,
          "duration": 0.0078125
        },
        {
          "name": "C#3",
          "midi": 49,
          "time": 148.71875,
          "velocity": 0.5669291338582677,
          "duration": 0.0078125
        },
        {
          "name": "C#3",
          "midi": 49,
          "time": 148.765625,
          "velocity": 0.5354330708661418,
          "duration": 0.0078125
        },
        {
          "name": "C#3",
          "midi": 49,
          "time": 148.8203125,
          "velocity": 0.5275590551181102,
          "duration": 0.0078125
        },
        {
          "name": "C#3",
          "midi": 49,
          "time": 148.8671875,
          "velocity": 0.5511811023622047,
          "duration": 0.0078125
        },
        {
          "name": "C#3",
          "midi": 49,
          "time": 148.9140625,
          "velocity": 0.5590551181102362,
          "duration": 0.0078125
        },
        {
          "name": "C#3",
          "midi": 49,
          "time": 148.953125,
          "velocity": 0.5433070866141733,
          "duration": 0.0078125
        },
        {
          "name": "C#3",
          "midi": 49,
          "time": 149.0078125,
          "velocity": 0.5433070866141733,
          "duration": 0.0078125
        },
        {
          "name": "C#3",
          "midi": 49,
          "time": 149.0546875,
          "velocity": 0.5511811023622047,
          "duration": 0.0078125
        },
        {
          "name": "C#3",
          "midi": 49,
          "time": 149.1015625,
          "velocity": 0.5433070866141733,
          "duration": 0.0078125
        },
        {
          "name": "C#3",
          "midi": 49,
          "time": 149.1484375,
          "velocity": 0.5511811023622047,
          "duration": 0.0078125
        },
        {
          "name": "C#3",
          "midi": 49,
          "time": 149.1953125,
          "velocity": 0.5354330708661418,
          "duration": 0.0078125
        },
        {
          "name": "C#3",
          "midi": 49,
          "time": 149.2421875,
          "velocity": 0.5354330708661418,
          "duration": 0.0078125
        },
        {
          "name": "C#3",
          "midi": 49,
          "time": 149.28125,
          "velocity": 0.5354330708661418,
          "duration": 0.0078125
        },
        {
          "name": "C#3",
          "midi": 49,
          "time": 149.328125,
          "velocity": 0.5511811023622047,
          "duration": 0.0078125
        },
        {
          "name": "C#3",
          "midi": 49,
          "time": 149.375,
          "velocity": 0.5511811023622047,
          "duration": 0.0078125
        },
        {
          "name": "C#3",
          "midi": 49,
          "time": 149.4296875,
          "velocity": 0.5590551181102362,
          "duration": 0.0078125
        },
        {
          "name": "C#3",
          "midi": 49,
          "time": 149.4765625,
          "velocity": 0.6062992125984252,
          "duration": 0.0078125
        },
        {
          "name": "C#3",
          "midi": 49,
          "time": 149.515625,
          "velocity": 0.6456692913385826,
          "duration": 0.0078125
        },
        {
          "name": "C#3",
          "midi": 49,
          "time": 149.5703125,
          "velocity": 0.6220472440944882,
          "duration": 0.0078125
        },
        {
          "name": "C#3",
          "midi": 49,
          "time": 149.609375,
          "velocity": 0.6614173228346457,
          "duration": 0.0078125
        },
        {
          "name": "C#3",
          "midi": 49,
          "time": 149.6640625,
          "velocity": 0.6850393700787402,
          "duration": 0.0078125
        },
        {
          "name": "C#3",
          "midi": 49,
          "time": 149.7109375,
          "velocity": 0.6929133858267716,
          "duration": 0.0078125
        },
        {
          "name": "C#3",
          "midi": 49,
          "time": 149.7578125,
          "velocity": 0.6929133858267716,
          "duration": 0.0078125
        },
        {
          "name": "C#3",
          "midi": 49,
          "time": 149.8046875,
          "velocity": 0.7322834645669292,
          "duration": 0.0078125
        },
        {
          "name": "C#3",
          "midi": 49,
          "time": 149.8515625,
          "velocity": 0.7559055118110236,
          "duration": 0.0078125
        },
        {
          "name": "C#3",
          "midi": 49,
          "time": 149.890625,
          "velocity": 0.6220472440944882,
          "duration": 0.0078125
        },
        {
          "name": "C#3",
          "midi": 49,
          "time": 149.9375,
          "velocity": 0.6456692913385826,
          "duration": 0.0078125
        },
        {
          "name": "C#3",
          "midi": 49,
          "time": 149.984375,
          "velocity": 0.6692913385826772,
          "duration": 0.0078125
        },
        {
          "name": "C#3",
          "midi": 49,
          "time": 150.0390625,
          "velocity": 0.6535433070866141,
          "duration": 0.0078125
        },
        {
          "name": "C#3",
          "midi": 49,
          "time": 150.09375,
          "velocity": 0.7165354330708661,
          "duration": 0.0078125
        },
        {
          "name": "C#3",
          "midi": 49,
          "time": 150.1328125,
          "velocity": 0.7244094488188977,
          "duration": 0.0078125
        },
        {
          "name": "C#3",
          "midi": 49,
          "time": 150.1796875,
          "velocity": 0.9606299212598425,
          "duration": 0.0859375
        },
        {
          "name": "C#3",
          "midi": 49,
          "time": 163.6875,
          "velocity": 0.9921259842519685,
          "duration": 0.0859375
        }
      ],
      "controlChanges": {
        "7": [
          {
            "number": 7,
            "time": 0,
            "value": 0.9212598425196851
          }
        ],
        "10": [
          {
            "number": 10,
            "time": 0,
            "value": 0.5039370078740157
          }
        ],
        "11": [
          {
            "number": 11,
            "time": 0.046875,
            "value": 1
          }
        ],
        "91": [
          {
            "number": 91,
            "time": 0.046875,
            "value": 0.5511811023622047
          }
        ],
        "93": [
          {
            "number": 93,
            "time": 0.046875,
            "value": 0.23622047244094488
          }
        ]
      }
    },
    {
      "startTime": 163.6796875,
      "duration": 163.84375,
      "length": 4,
      "id": 9,
      "name": "Orchestra Hit",
      "instrumentNumber": 55,
      "instrument": "orchestra hit",
      "instrumentFamily": "ensemble",
      "channelNumber": 8,
      "isPercussion": false,
      "notes": [
        {
          "name": "B5",
          "midi": 83,
          "time": 163.6796875,
          "velocity": 0.9448818897637795,
          "duration": 0.1796875
        },
        {
          "name": "F#3",
          "midi": 54,
          "time": 163.6953125,
          "velocity": 0.9291338582677166,
          "duration": 0.125
        },
        {
          "name": "B2",
          "midi": 47,
          "time": 163.6953125,
          "velocity": 0.9291338582677166,
          "duration": 0.1328125
        },
        {
          "name": "D#3",
          "midi": 51,
          "time": 163.703125,
          "velocity": 0.937007874015748,
          "duration": 0.140625
        }
      ],
      "controlChanges": {
        "7": [
          {
            "number": 7,
            "time": 0,
            "value": 0.8661417322834646
          }
        ],
        "10": [
          {
            "number": 10,
            "time": 0,
            "value": 0.5039370078740157
          }
        ]
      }
    },
    {
      "startTime": 63.0078125,
      "duration": 164.0625,
      "length": 41,
      "id": 10,
      "name": "Percussion",
      "instrumentNumber": 48,
      "instrument": "orchestra kit",
      "instrumentFamily": "drums",
      "channelNumber": 9,
      "isPercussion": true,
      "notes": [
        {
          "name": "B3",
          "midi": 59,
          "time": 63.0078125,
          "velocity": 0.5039370078740157,
          "duration": 0.3671875
        },
        {
          "name": "B3",
          "midi": 59,
          "time": 64.6953125,
          "velocity": 0.5039370078740157,
          "duration": 0.3671875
        },
        {
          "name": "B3",
          "midi": 59,
          "time": 66.3828125,
          "velocity": 0.5039370078740157,
          "duration": 0.3671875
        },
        {
          "name": "B3",
          "midi": 59,
          "time": 68.0703125,
          "velocity": 0.7401574803149606,
          "duration": 0.3671875
        },
        {
          "name": "B3",
          "midi": 59,
          "time": 69.7578125,
          "velocity": 0.5039370078740157,
          "duration": 0.3671875
        },
        {
          "name": "B3",
          "midi": 59,
          "time": 71.4375,
          "velocity": 0.5039370078740157,
          "duration": 0.3671875
        },
        {
          "name": "B3",
          "midi": 59,
          "time": 73.1328125,
          "velocity": 0.5039370078740157,
          "duration": 0.3671875
        },
        {
          "name": "B3",
          "midi": 59,
          "time": 74.8203125,
          "velocity": 0.9763779527559056,
          "duration": 0.3671875
        },
        {
          "name": "A3",
          "midi": 57,
          "time": 74.8203125,
          "velocity": 0.8188976377952756,
          "duration": 0.3671875
        },
        {
          "name": "B3",
          "midi": 59,
          "time": 81,
          "velocity": 0.7401574803149606,
          "duration": 0.3671875
        },
        {
          "name": "B3",
          "midi": 59,
          "time": 86.0703125,
          "velocity": 0.7401574803149606,
          "duration": 0.3671875
        },
        {
          "name": "A3",
          "midi": 57,
          "time": 96.171875,
          "velocity": 0.6614173228346457,
          "duration": 0.3671875
        },
        {
          "name": "B3",
          "midi": 59,
          "time": 96.1953125,
          "velocity": 0.6614173228346457,
          "duration": 0.3671875
        },
        {
          "name": "B3",
          "midi": 59,
          "time": 100.125,
          "velocity": 0.8188976377952756,
          "duration": 0.3671875
        },
        {
          "name": "B3",
          "midi": 59,
          "time": 101.8125,
          "velocity": 0.8188976377952756,
          "duration": 0.3671875
        },
        {
          "name": "B3",
          "midi": 59,
          "time": 103.4921875,
          "velocity": 0.8188976377952756,
          "duration": 0.3671875
        },
        {
          "name": "B3",
          "midi": 59,
          "time": 105.1875,
          "velocity": 0.8188976377952756,
          "duration": 0.3671875
        },
        {
          "name": "B3",
          "midi": 59,
          "time": 106.875,
          "velocity": 0.8188976377952756,
          "duration": 0.3671875
        },
        {
          "name": "B3",
          "midi": 59,
          "time": 108.5625,
          "velocity": 0.8188976377952756,
          "duration": 0.3671875
        },
        {
          "name": "B3",
          "midi": 59,
          "time": 110.2578125,
          "velocity": 0.8188976377952756,
          "duration": 0.3671875
        },
        {
          "name": "B3",
          "midi": 59,
          "time": 111.9375,
          "velocity": 0.8188976377952756,
          "duration": 0.3671875
        },
        {
          "name": "B3",
          "midi": 59,
          "time": 113.6328125,
          "velocity": 0.8188976377952756,
          "duration": 0.3671875
        },
        {
          "name": "B3",
          "midi": 59,
          "time": 115.3203125,
          "velocity": 0.8188976377952756,
          "duration": 0.3671875
        },
        {
          "name": "B3",
          "midi": 59,
          "time": 117.0078125,
          "velocity": 0.8188976377952756,
          "duration": 0.3671875
        },
        {
          "name": "B3",
          "midi": 59,
          "time": 118.6953125,
          "velocity": 0.9763779527559056,
          "duration": 0.3671875
        },
        {
          "name": "B3",
          "midi": 59,
          "time": 120.3828125,
          "velocity": 0.8188976377952756,
          "duration": 0.3671875
        },
        {
          "name": "B3",
          "midi": 59,
          "time": 122.0625,
          "velocity": 0.8188976377952756,
          "duration": 0.3671875
        },
        {
          "name": "B3",
          "midi": 59,
          "time": 123.7578125,
          "velocity": 0.8188976377952756,
          "duration": 0.3671875
        },
        {
          "name": "B3",
          "midi": 59,
          "time": 125.4453125,
          "velocity": 0.9763779527559056,
          "duration": 0.3671875
        },
        {
          "name": "B3",
          "midi": 59,
          "time": 126.5703125,
          "velocity": 1,
          "duration": 0.3671875
        },
        {
          "name": "A3",
          "midi": 57,
          "time": 126.5703125,
          "velocity": 0.8976377952755905,
          "duration": 0.3671875
        },
        {
          "name": "B3",
          "midi": 59,
          "time": 128.25,
          "velocity": 0.7401574803149606,
          "duration": 0.3671875
        },
        {
          "name": "B3",
          "midi": 59,
          "time": 129.9375,
          "velocity": 1,
          "duration": 0.3671875
        },
        {
          "name": "A3",
          "midi": 57,
          "time": 129.9375,
          "velocity": 0.8188976377952756,
          "duration": 0.3671875
        },
        {
          "name": "B3",
          "midi": 59,
          "time": 136.6875,
          "velocity": 1,
          "duration": 0.3671875
        },
        {
          "name": "A3",
          "midi": 57,
          "time": 136.6875,
          "velocity": 0.8188976377952756,
          "duration": 0.3671875
        },
        {
          "name": "B3",
          "midi": 59,
          "time": 150.1875,
          "velocity": 1,
          "duration": 0.3671875
        },
        {
          "name": "A3",
          "midi": 57,
          "time": 150.1875,
          "velocity": 0.8976377952755905,
          "duration": 0.3671875
        },
        {
          "name": "B3",
          "midi": 59,
          "time": 153.5625,
          "velocity": 0.7401574803149606,
          "duration": 0.3671875
        },
        {
          "name": "A3",
          "midi": 57,
          "time": 163.6875,
          "velocity": 1,
          "duration": 0.3671875
        },
        {
          "name": "B3",
          "midi": 59,
          "time": 163.6953125,
          "velocity": 1,
          "duration": 0.3671875
        }
      ],
      "controlChanges": {
        "7": [
          {
            "number": 7,
            "time": 0,
            "value": 0.8661417322834646
          }
        ],
        "10": [
          {
            "number": 10,
            "time": 0,
            "value": 0.5039370078740157
          }
        ]
      }
    }
  ]
}